<?xml version="1.0" encoding="utf-8"?>
<!-- Generator: Adobe Illustrator 18.1.1, SVG Export Plug-In . SVG Version: 6.00 Build 0)  -->
<svg version="1.1" id="Layer_1" xmlns="http://www.w3.org/2000/svg" xmlns:xlink="http://www.w3.org/1999/xlink" x="0px" y="0px"
	 viewBox="0 0 175 95.6" enable-background="new 0 0 175 95.6" xml:space="preserve">
<g>
	<polygon opacity="0.2" fill="#231F20" points="-1256,1 -1256,90.1 -1321.2,90.1 -1321.2,18.2 -1304,1 	"/>
	<polygon fill="#C0E0DE" points="-1318.3,92.9 -1318.3,45 -1318.3,21 -1301.1,3.8 -1253.2,3.8 -1253.2,21.6 -1253.2,45 
		-1253.2,92.9 	"/>
	<polygon fill="#FFFFFF" points="-1301.1,21 -1318.3,21 -1301.1,3.8 	"/>
	<polygon fill="#8FC3D5" points="-1318.3,21 -1301.1,21 -1318.3,38.2 	"/>
	<g>
		<defs>
			<polygon id="SVGID_1_" points="-1318.3,92.9 -1318.3,45 -1318.3,21 -1301.1,3.8 -1253.2,3.8 -1253.2,21.6 -1253.2,45 
				-1253.2,92.9 			"/>
		</defs>
		<clipPath id="SVGID_2_">
			<use xlink:href="#SVGID_1_"  overflow="visible"/>
		</clipPath>
		<path clip-path="url(#SVGID_2_)" fill="#8FC3D5" d="M-1240.7,36l-10.6-10.6l-4.4-4.4l-42.7,42.7c0,0,0,0,0,0l0,19.5l19.5,0
			c0,0,0,0,0,0l42.7-42.7L-1240.7,36z"/>
	</g>
	<path fill="#0F3754" d="M-1258,17.3l-42.7,42.6c2.6,2,5.9,2.4,8.1,0.8l39-39L-1258,17.3z"/>
	<path fill="#174F78" d="M-1242.9,32.3l-10.6-10.6l-39,39h0c0,0,0,0,0,0.1c0,0,0,0,0.1-0.1c-1.8,2.4-1.1,6.2,1.6,9
		c2.7,2.7,6.6,3.3,8.9,1.6c0,0,0,0,0,0.1c0,0,0,0,0.1,0v0L-1242.9,32.3z"/>
	<path fill="#0F3754" d="M-1282,71.3c-1.6,2.1-1.2,5.4,0.8,8.1l42.7-42.6l-4.4-4.4L-1282,71.3z"/>
	<path fill="#C0E0DE" d="M-1281.1,79.4c-2.1-2.6-2.4-5.9-0.8-8.1v0c0,0,0,0-0.1,0c0,0,0,0,0-0.1c-2.4,1.7-6.2,1.1-8.9-1.6
		c-2.7-2.7-3.3-6.6-1.6-9c0,0,0,0-0.1,0.1c0,0,0,0,0-0.1h0c-2.1,1.6-5.5,1.2-8.1-0.8l0,19.5L-1281.1,79.4z"/>
	<path fill="#0F3754" d="M-1300.6,69.8l0,9.6l9.6,0c-1.2-1.8-2.7-3.6-4.3-5.2C-1297,72.5-1298.8,71.1-1300.6,69.8z"/>
	
		<rect x="-1256.5" y="13.9" transform="matrix(-0.7069 -0.7073 0.7073 -0.7069 -2151.4495 -857.3505)" fill="#0E303F" width="6.3" height="6.5"/>
	
		<rect x="-1253.3" y="21.4" transform="matrix(-0.7072 -0.707 0.707 -0.7072 -2144.3633 -838.7888)" fill="#2C5871" width="15" height="6.5"/>
	
		<rect x="-1241.5" y="28.9" transform="matrix(-0.707 -0.7072 0.7072 -0.707 -2136.5913 -820.9297)" fill="#0E303F" width="6.3" height="6.5"/>
</g>
<g>
	<g>
		<path fill="#338DC9" d="M-701.9,91.1c-0.5,0-0.9,0.4-0.9,0.9c0,0.5,0.4,0.9,0.9,0.9h18.8c0.5,0,0.9-0.4,0.9-0.9
			c0-0.5-0.4-0.9-0.9-0.9H-701.9L-701.9,91.1z"/>
	</g>
</g>
<path fill="#0071BB" d="M-715.9,45c0-13,10.5-23.4,23.4-23.4c13,0,23.4,10.5,23.4,23.4c0,0.8-0.6,11.6-9.4,23
	c-2.6,3.4-2.2,10.3-2.1,10.3c-3.6,0-6.6,0-10.3,0c-1.1,0-2.2,0-3.3,0c-3.6,0-6.7,0-10.3,0c0,0,0.5-6.9-2.1-10.3
	C-715.4,56.6-715.9,45.8-715.9,45z"/>
<path fill="#338DC9" d="M-692.5,78.3c-3.6,0-8.3,0-12,0c0,0,0.5-6.9-2.1-10.3c-8.8-11.4-9.4-22.2-9.4-23c0-13,10.5-23.4,23.4-23.4"
	/>
<g>
	<path fill="#338DC9" d="M-674,45h-2.1c0-9-7.4-16.4-16.4-16.4v-2.1C-682.3,26.6-674,34.9-674,45L-674,45z"/>
</g>
<g>
	<g>
		<g>
			<polygon fill="#FFFFFF" points="-687.4,80.2 -689.4,79.8 -685.4,55.6 -683.4,55.9 -687.4,80.2 			"/>
		</g>
		<g>
			<polygon fill="#FFFFFF" points="-697.6,80.2 -701.6,55.9 -699.6,55.6 -695.6,79.8 -697.6,80.2 			"/>
		</g>
	</g>
	<g>
		<path fill="#FFFFFF" d="M-684.5,59c-0.8,0-1.2-0.8-1.5-1.4c-0.1-0.2-0.3-0.8-0.5-0.8c-0.1,0-0.3,0.5-0.4,0.7
			c-0.2,0.6-0.6,1.5-1.6,1.5c-0.6,0-0.9-0.6-1.3-1.3c-0.1-0.3-0.4-0.7-0.6-0.9c-0.1,0.2-0.4,0.5-0.5,0.7c-0.4,0.7-0.8,1.4-1.5,1.4
			c-0.6,0-1-0.7-1.4-1.4c-0.1-0.2-0.4-0.6-0.5-0.8c-0.2,0.2-0.4,0.6-0.5,0.8c-0.4,0.7-0.8,1.3-1.4,1.3c-0.7,0-1.1-0.7-1.6-1.5
			c-0.1-0.2-0.3-0.6-0.5-0.7c-0.2,0.1-0.3,0.3-0.5,0.8c-0.2,0.6-0.5,1.4-1.4,1.4v-1.1c0.1,0,0.3-0.5,0.4-0.7
			c0.2-0.6,0.6-1.5,1.6-1.5c0.6,0,0.9,0.6,1.3,1.3c0.2,0.3,0.4,0.7,0.6,0.9c0.1-0.2,0.4-0.5,0.5-0.7c0.4-0.7,0.8-1.4,1.5-1.4
			c0.6,0,1,0.7,1.4,1.4c0.1,0.2,0.4,0.6,0.5,0.8c0.2-0.2,0.4-0.6,0.5-0.8c0.4-0.7,0.8-1.3,1.4-1.3c0.7,0,1.1,0.7,1.6,1.5
			c0.1,0.2,0.3,0.6,0.5,0.7c0.2-0.1,0.3-0.3,0.5-0.8c0.2-0.6,0.5-1.4,1.4-1.4c0.8,0,1.2,0.8,1.5,1.4c0.1,0.3,0.3,0.8,0.5,0.8V59
			L-684.5,59z"/>
	</g>
</g>
<path fill="#0071BB" d="M-680.6,78.4v12.3c0,0.8-0.7,1.5-1.5,1.5h-20.8c-0.8,0-1.5-0.7-1.5-1.5V78.4H-680.6z"/>
<g>
	<g>
		<line fill="#338DC9" x1="-680.1" y1="79.5" x2="-704.9" y2="79.5"/>
		<path fill="#338DC9" d="M-680.1,80.7h-24.8c-0.7,0-1.2-0.5-1.2-1.2c0-0.7,0.5-1.2,1.2-1.2h24.8c0.7,0,1.2,0.5,1.2,1.2
			C-678.9,80.2-679.4,80.7-680.1,80.7L-680.1,80.7z"/>
	</g>
	<g>
		<line fill="#338DC9" x1="-680.1" y1="83.5" x2="-704.9" y2="83.5"/>
		<path fill="#338DC9" d="M-680.1,84.7h-24.8c-0.7,0-1.2-0.5-1.2-1.2c0-0.7,0.5-1.2,1.2-1.2h24.8c0.7,0,1.2,0.5,1.2,1.2
			C-678.9,84.2-679.4,84.7-680.1,84.7L-680.1,84.7z"/>
	</g>
	<g>
		<line fill="#338DC9" x1="-680.1" y1="87.5" x2="-704.9" y2="87.5"/>
		<path fill="#338DC9" d="M-680.1,88.8h-24.8c-0.7,0-1.2-0.5-1.2-1.2c0-0.7,0.5-1.2,1.2-1.2h24.8c0.7,0,1.2,0.5,1.2,1.2
			C-678.9,88.2-679.4,88.8-680.1,88.8L-680.1,88.8z"/>
	</g>
</g>
<g>
	<g>
		<path fill="#0071BB" d="M-692.5,13.9c-0.3,0-0.6-0.3-0.6-0.6V0.5c0-0.3,0.3-0.6,0.6-0.6c0.3,0,0.6,0.3,0.6,0.6v12.9
			C-691.9,13.7-692.2,13.9-692.5,13.9L-692.5,13.9z"/>
	</g>
	<g>
		<path fill="#0071BB" d="M-708.9,18.4c-0.2,0-0.4-0.1-0.5-0.3l-6.4-11.2c-0.2-0.3-0.1-0.7,0.2-0.8c0.3-0.2,0.7-0.1,0.8,0.2
			l6.4,11.2c0.2,0.3,0.1,0.7-0.2,0.8C-708.7,18.3-708.8,18.4-708.9,18.4L-708.9,18.4z"/>
	</g>
	<g>
		<path fill="#0071BB" d="M-720.9,30.4c-0.1,0-0.2,0-0.3-0.1l-11.2-6.4c-0.3-0.2-0.4-0.5-0.2-0.8c0.2-0.3,0.5-0.4,0.8-0.2l11.2,6.4
			c0.3,0.2,0.4,0.5,0.2,0.8C-720.5,30.3-720.7,30.4-720.9,30.4L-720.9,30.4z"/>
	</g>
	<g>
		<path fill="#0071BB" d="M-725.3,46.8h-12.9c-0.3,0-0.6-0.3-0.6-0.6c0-0.3,0.3-0.6,0.6-0.6h12.9c0.3,0,0.6,0.3,0.6,0.6
			C-724.7,46.5-725,46.8-725.3,46.8L-725.3,46.8z"/>
	</g>
	<g>
		<path fill="#0071BB" d="M-652.9,69.6c-0.1,0-0.2,0-0.3-0.1l-11.2-6.4c-0.3-0.2-0.4-0.5-0.2-0.8c0.2-0.3,0.5-0.4,0.8-0.2l11.2,6.4
			c0.3,0.2,0.4,0.5,0.2,0.8C-652.5,69.5-652.7,69.6-652.9,69.6L-652.9,69.6z"/>
	</g>
	<g>
		<path fill="#0071BB" d="M-646.8,46.8h-12.9c-0.3,0-0.6-0.3-0.6-0.6s0.3-0.6,0.6-0.6h12.9c0.3,0,0.6,0.3,0.6,0.6
			S-646.4,46.8-646.8,46.8L-646.8,46.8z"/>
	</g>
	<g>
		<path fill="#0071BB" d="M-664.1,30.4c-0.2,0-0.4-0.1-0.5-0.3c-0.2-0.3-0.1-0.7,0.2-0.8l11.2-6.4c0.3-0.2,0.7-0.1,0.8,0.2
			c0.2,0.3,0.1,0.7-0.2,0.8l-11.2,6.4C-663.9,30.3-664,30.4-664.1,30.4L-664.1,30.4z"/>
	</g>
	<g>
		<path fill="#0071BB" d="M-676.1,18.3c-0.1,0-0.2,0-0.3-0.1c-0.3-0.2-0.4-0.5-0.2-0.8l6.4-11.2c0.2-0.3,0.5-0.4,0.8-0.2
			c0.3,0.2,0.4,0.5,0.2,0.8l-6.4,11.2C-675.7,18.2-675.9,18.3-676.1,18.3L-676.1,18.3z"/>
	</g>
	<g>
		<path fill="#0071BB" d="M-692.5,13.9c-0.3,0-0.6-0.3-0.6-0.6V0.5c0-0.3,0.3-0.6,0.6-0.6c0.3,0,0.6,0.3,0.6,0.6v12.9
			C-691.9,13.7-692.2,13.9-692.5,13.9L-692.5,13.9z"/>
	</g>
</g>
<g>
	<g>
		<path fill="#0071BB" d="M-692.5,13.9c-0.3,0-0.6-0.3-0.6-0.6V0.5c0-0.3,0.3-0.6,0.6-0.6c0.3,0,0.6,0.3,0.6,0.6v12.9
			C-691.9,13.7-692.2,13.9-692.5,13.9L-692.5,13.9z"/>
	</g>
	<g>
		<path fill="#0071BB" d="M-676.1,18.4c-0.1,0-0.2,0-0.3-0.1c-0.3-0.2-0.4-0.5-0.2-0.8l6.4-11.2c0.2-0.3,0.5-0.4,0.8-0.2
			c0.3,0.2,0.4,0.5,0.2,0.8l-6.4,11.2C-675.7,18.2-675.9,18.4-676.1,18.4L-676.1,18.4z"/>
	</g>
	<g>
		<path fill="#0071BB" d="M-664.1,30.4c-0.2,0-0.4-0.1-0.5-0.3c-0.2-0.3-0.1-0.7,0.2-0.8l11.2-6.4c0.3-0.2,0.7-0.1,0.8,0.2
			c0.2,0.3,0.1,0.7-0.2,0.8l-11.2,6.4C-663.9,30.3-664,30.4-664.1,30.4L-664.1,30.4z"/>
	</g>
	<g>
		<path fill="#0071BB" d="M-646.8,46.8h-12.9c-0.3,0-0.6-0.3-0.6-0.6c0-0.3,0.3-0.6,0.6-0.6h12.9c0.3,0,0.6,0.3,0.6,0.6
			C-646.2,46.5-646.4,46.8-646.8,46.8L-646.8,46.8z"/>
	</g>
	<g>
		<path fill="#0071BB" d="M-732.1,69.6c-0.2,0-0.4-0.1-0.5-0.3c-0.2-0.3-0.1-0.7,0.2-0.8l11.2-6.4c0.3-0.2,0.7-0.1,0.8,0.2
			c0.2,0.3,0.1,0.7-0.2,0.8l-11.2,6.4C-731.9,69.6-732,69.6-732.1,69.6L-732.1,69.6z"/>
	</g>
	<g>
		<path fill="#0071BB" d="M-725.3,46.8h-12.9c-0.3,0-0.6-0.3-0.6-0.6s0.3-0.6,0.6-0.6h12.9c0.3,0,0.6,0.3,0.6,0.6
			S-725,46.8-725.3,46.8L-725.3,46.8z"/>
	</g>
	<g>
		<path fill="#0071BB" d="M-720.9,30.4c-0.1,0-0.2,0-0.3-0.1l-11.2-6.4c-0.3-0.2-0.4-0.5-0.2-0.8c0.2-0.3,0.5-0.4,0.8-0.2l11.2,6.4
			c0.3,0.2,0.4,0.5,0.2,0.8C-720.5,30.2-720.7,30.4-720.9,30.4L-720.9,30.4z"/>
	</g>
	<g>
		<path fill="#0071BB" d="M-708.9,18.3c-0.2,0-0.4-0.1-0.5-0.3l-6.4-11.2c-0.2-0.3-0.1-0.7,0.2-0.8c0.3-0.2,0.7-0.1,0.8,0.2
			l6.4,11.2c0.2,0.3,0.1,0.7-0.2,0.8C-708.7,18.3-708.8,18.3-708.9,18.3L-708.9,18.3z"/>
	</g>
	<g>
		<path fill="#0071BB" d="M-692.5,13.9c-0.3,0-0.6-0.3-0.6-0.6V0.5c0-0.3,0.3-0.6,0.6-0.6c0.3,0,0.6,0.3,0.6,0.6v12.9
			C-691.9,13.7-692.2,13.9-692.5,13.9L-692.5,13.9z"/>
	</g>
</g>
<g>
	<g>
		<path fill="#338DC9" d="M468.1,91.1c-0.5,0-0.9,0.4-0.9,0.9c0,0.5,0.4,0.9,0.9,0.9h18.8c0.5,0,0.9-0.4,0.9-0.9
			c0-0.5-0.4-0.9-0.9-0.9H468.1L468.1,91.1z"/>
	</g>
</g>
<path fill="#0071BB" d="M454.1,45.1c0-13,10.5-23.4,23.4-23.4c13,0,23.4,10.5,23.4,23.4c0,0.8-0.6,11.6-9.4,23
	c-2.6,3.4-2.2,10.3-2.1,10.3c-3.6,0-6.6,0-10.3,0c-1.1,0-2.2,0-3.3,0c-3.6,0-6.7,0-10.3,0c0,0,0.5-6.9-2.1-10.3
	C454.6,56.6,454.1,45.8,454.1,45.1z"/>
<path fill="#338DC9" d="M477.5,78.4c-3.6,0-8.3,0-12,0c0,0,0.5-6.9-2.1-10.3c-8.8-11.4-9.4-22.2-9.4-23c0-13,10.5-23.4,23.4-23.4"/>
<g>
	<path fill="#338DC9" d="M496,45h-2.1c0-9-7.4-16.4-16.4-16.4v-2.1C487.7,26.6,496,34.9,496,45L496,45z"/>
</g>
<g>
	<g>
		<g>
			<polygon fill="#FFFFFF" points="482.6,80.2 480.6,79.9 484.6,55.6 486.6,56 482.6,80.2 			"/>
		</g>
		<g>
			<polygon fill="#FFFFFF" points="472.4,80.2 468.4,56 470.4,55.6 474.4,79.9 472.4,80.2 			"/>
		</g>
	</g>
	<g>
		<path fill="#FFFFFF" d="M485.5,59c-0.8,0-1.2-0.8-1.5-1.4c-0.1-0.2-0.3-0.8-0.5-0.8c-0.1,0-0.3,0.5-0.4,0.7
			c-0.2,0.6-0.6,1.5-1.6,1.5c-0.6,0-0.9-0.6-1.3-1.3c-0.1-0.3-0.4-0.7-0.6-0.9c-0.1,0.2-0.4,0.5-0.5,0.7c-0.4,0.7-0.8,1.4-1.5,1.4
			c-0.6,0-1-0.7-1.4-1.4c-0.1-0.2-0.4-0.6-0.5-0.8c-0.2,0.2-0.4,0.6-0.5,0.8c-0.4,0.7-0.8,1.3-1.4,1.3c-0.7,0-1.1-0.7-1.6-1.5
			c-0.1-0.2-0.3-0.6-0.5-0.7c-0.2,0.1-0.3,0.3-0.5,0.8c-0.2,0.6-0.5,1.4-1.4,1.4v-1.1c0.1,0,0.3-0.5,0.4-0.7
			c0.2-0.6,0.6-1.5,1.6-1.5c0.6,0,0.9,0.6,1.3,1.3c0.2,0.3,0.4,0.7,0.6,0.9c0.1-0.2,0.4-0.5,0.5-0.7c0.4-0.7,0.8-1.4,1.5-1.4
			c0.6,0,1,0.7,1.4,1.4c0.1,0.2,0.4,0.6,0.5,0.8c0.2-0.2,0.4-0.6,0.5-0.8c0.4-0.7,0.8-1.3,1.4-1.3c0.7,0,1.1,0.7,1.6,1.5
			c0.1,0.2,0.3,0.6,0.5,0.7c0.2-0.1,0.3-0.3,0.5-0.8c0.2-0.6,0.5-1.4,1.4-1.4c0.8,0,1.2,0.8,1.5,1.4c0.1,0.3,0.3,0.8,0.5,0.8V59
			L485.5,59z"/>
	</g>
</g>
<path fill="#0071BB" d="M489.4,78.4v12.3c0,0.8-0.7,1.5-1.5,1.5h-20.8c-0.8,0-1.5-0.7-1.5-1.5V78.4H489.4z"/>
<g>
	<g>
		<line fill="#338DC9" x1="489.9" y1="79.6" x2="465.1" y2="79.6"/>
		<path fill="#338DC9" d="M489.9,80.8h-24.8c-0.7,0-1.2-0.5-1.2-1.2c0-0.7,0.5-1.2,1.2-1.2h24.8c0.7,0,1.2,0.5,1.2,1.2
			C491.1,80.2,490.6,80.8,489.9,80.8L489.9,80.8z"/>
	</g>
	<g>
		<line fill="#338DC9" x1="489.9" y1="83.6" x2="465.1" y2="83.6"/>
		<path fill="#338DC9" d="M489.9,84.8h-24.8c-0.7,0-1.2-0.5-1.2-1.2c0-0.7,0.5-1.2,1.2-1.2h24.8c0.7,0,1.2,0.5,1.2,1.2
			C491.1,84.2,490.6,84.8,489.9,84.8L489.9,84.8z"/>
	</g>
	<g>
		<line fill="#338DC9" x1="489.9" y1="87.6" x2="465.1" y2="87.6"/>
		<path fill="#338DC9" d="M489.9,88.8h-24.8c-0.7,0-1.2-0.5-1.2-1.2c0-0.7,0.5-1.2,1.2-1.2h24.8c0.7,0,1.2,0.5,1.2,1.2
			C491.1,88.2,490.6,88.8,489.9,88.8L489.9,88.8z"/>
	</g>
</g>
<g>
	<g>
		<path fill="#0071BB" d="M477.5,14c-0.3,0-0.6-0.3-0.6-0.6V0.5c0-0.3,0.3-0.6,0.6-0.6c0.3,0,0.6,0.3,0.6,0.6v12.9
			C478.1,13.7,477.8,14,477.5,14L477.5,14z"/>
	</g>
	<g>
		<path fill="#0071BB" d="M461.1,18.4c-0.2,0-0.4-0.1-0.5-0.3l-6.4-11.2c-0.2-0.3-0.1-0.7,0.2-0.8c0.3-0.2,0.7-0.1,0.8,0.2l6.4,11.2
			c0.2,0.3,0.1,0.7-0.2,0.8C461.3,18.3,461.2,18.4,461.1,18.4L461.1,18.4z"/>
	</g>
	<g>
		<path fill="#0071BB" d="M449.1,30.4c-0.1,0-0.2,0-0.3-0.1l-11.2-6.4c-0.3-0.2-0.4-0.5-0.2-0.8c0.2-0.3,0.5-0.4,0.8-0.2l11.2,6.4
			c0.3,0.2,0.4,0.5,0.2,0.8C449.5,30.3,449.3,30.4,449.1,30.4L449.1,30.4z"/>
	</g>
	<g>
		<path fill="#0071BB" d="M444.7,46.8h-12.9c-0.3,0-0.6-0.3-0.6-0.6c0-0.3,0.3-0.6,0.6-0.6h12.9c0.3,0,0.6,0.3,0.6,0.6
			C445.3,46.5,445,46.8,444.7,46.8L444.7,46.8z"/>
	</g>
	<g>
		<path fill="#0071BB" d="M517.1,69.6c-0.1,0-0.2,0-0.3-0.1l-11.2-6.4c-0.3-0.2-0.4-0.5-0.2-0.8c0.2-0.3,0.5-0.4,0.8-0.2l11.2,6.4
			c0.3,0.2,0.4,0.5,0.2,0.8C517.5,69.5,517.3,69.6,517.1,69.6L517.1,69.6z"/>
	</g>
	<g>
		<path fill="#0071BB" d="M523.2,46.8h-12.9c-0.3,0-0.6-0.3-0.6-0.6c0-0.3,0.3-0.6,0.6-0.6h12.9c0.3,0,0.6,0.3,0.6,0.6
			C523.8,46.5,523.6,46.8,523.2,46.8L523.2,46.8z"/>
	</g>
	<g>
		<path fill="#0071BB" d="M505.9,30.4c-0.2,0-0.4-0.1-0.5-0.3c-0.2-0.3-0.1-0.7,0.2-0.8l11.2-6.4c0.3-0.2,0.7-0.1,0.8,0.2
			c0.2,0.3,0.1,0.7-0.2,0.8l-11.2,6.4C506.1,30.3,506,30.4,505.9,30.4L505.9,30.4z"/>
	</g>
	<g>
		<path fill="#0071BB" d="M493.9,18.4c-0.1,0-0.2,0-0.3-0.1c-0.3-0.2-0.4-0.5-0.2-0.8l6.4-11.2c0.2-0.3,0.5-0.4,0.8-0.2
			c0.3,0.2,0.4,0.5,0.2,0.8l-6.4,11.2C494.3,18.3,494.1,18.4,493.9,18.4L493.9,18.4z"/>
	</g>
	<g>
		<path fill="#0071BB" d="M477.5,14c-0.3,0-0.6-0.3-0.6-0.6V0.5c0-0.3,0.3-0.6,0.6-0.6c0.3,0,0.6,0.3,0.6,0.6v12.9
			C478.1,13.7,477.8,14,477.5,14L477.5,14z"/>
	</g>
</g>
<g>
	<g>
		<path fill="#0071BB" d="M477.5,14c-0.3,0-0.6-0.3-0.6-0.6V0.5c0-0.3,0.3-0.6,0.6-0.6c0.3,0,0.6,0.3,0.6,0.6v12.9
			C478.1,13.7,477.8,14,477.5,14L477.5,14z"/>
	</g>
	<g>
		<path fill="#0071BB" d="M493.9,18.4c-0.1,0-0.2,0-0.3-0.1c-0.3-0.2-0.4-0.5-0.2-0.8l6.4-11.2c0.2-0.3,0.5-0.4,0.8-0.2
			c0.3,0.2,0.4,0.5,0.2,0.8l-6.4,11.2C494.3,18.3,494.1,18.4,493.9,18.4L493.9,18.4z"/>
	</g>
	<g>
		<path fill="#0071BB" d="M505.9,30.4c-0.2,0-0.4-0.1-0.5-0.3c-0.2-0.3-0.1-0.7,0.2-0.8l11.2-6.4c0.3-0.2,0.7-0.1,0.8,0.2
			c0.2,0.3,0.1,0.7-0.2,0.8l-11.2,6.4C506.1,30.4,506,30.4,505.9,30.4L505.9,30.4z"/>
	</g>
	<g>
		<path fill="#0071BB" d="M523.2,46.8h-12.9c-0.3,0-0.6-0.3-0.6-0.6c0-0.3,0.3-0.6,0.6-0.6h12.9c0.3,0,0.6,0.3,0.6,0.6
			C523.8,46.5,523.6,46.8,523.2,46.8L523.2,46.8z"/>
	</g>
	<g>
		<path fill="#0071BB" d="M437.9,69.6c-0.2,0-0.4-0.1-0.5-0.3c-0.2-0.3-0.1-0.7,0.2-0.8l11.2-6.4c0.3-0.2,0.7-0.1,0.8,0.2
			c0.2,0.3,0.1,0.7-0.2,0.8l-11.2,6.4C438.1,69.6,438,69.6,437.9,69.6L437.9,69.6z"/>
	</g>
	<g>
		<path fill="#0071BB" d="M444.7,46.8h-12.9c-0.3,0-0.6-0.3-0.6-0.6c0-0.3,0.3-0.6,0.6-0.6h12.9c0.3,0,0.6,0.3,0.6,0.6
			C445.3,46.5,445,46.8,444.7,46.8L444.7,46.8z"/>
	</g>
	<g>
		<path fill="#0071BB" d="M449.1,30.4c-0.1,0-0.2,0-0.3-0.1l-11.2-6.4c-0.3-0.2-0.4-0.5-0.2-0.8c0.2-0.3,0.5-0.4,0.8-0.2l11.2,6.4
			c0.3,0.2,0.4,0.5,0.2,0.8C449.5,30.3,449.3,30.4,449.1,30.4L449.1,30.4z"/>
	</g>
	<g>
		<path fill="#0071BB" d="M461.1,18.4c-0.2,0-0.4-0.1-0.5-0.3l-6.4-11.2c-0.2-0.3-0.1-0.7,0.2-0.8c0.3-0.2,0.7-0.1,0.8,0.2l6.4,11.2
			c0.2,0.3,0.1,0.7-0.2,0.8C461.3,18.3,461.2,18.4,461.1,18.4L461.1,18.4z"/>
	</g>
	<g>
		<path fill="#0071BB" d="M477.5,14c-0.3,0-0.6-0.3-0.6-0.6V0.5c0-0.3,0.3-0.6,0.6-0.6c0.3,0,0.6,0.3,0.6,0.6v12.9
			C478.1,13.7,477.8,14,477.5,14L477.5,14z"/>
	</g>
</g>
<g>
	<g>
		<g>
			<path fill="#0072BC" d="M-1033.3,13.4h-9.6L-1053.3,0h-33.3l-10.5,13.4h-34.6c-4.1,0-7.4,3.3-7.4,7.4v64.4c0,4.1,3.3,7.4,7.4,7.4
				h98.5c4.1,0,7.4-3.3,7.4-7.4V20.7C-1025.9,16.7-1029.2,13.4-1033.3,13.4z"/>
			<path fill="#FFFFFF" d="M-1043.6,52.9c0,14.5-11.8,26.3-26.3,26.3c-14.6,0-26.3-11.8-26.3-26.3c0-14.6,11.8-26.4,26.3-26.4
				C-1055.4,26.6-1043.6,38.4-1043.6,52.9z"/>
			<path fill="#0E303F" d="M-1047.2,52.9c0,12.6-10.2,22.8-22.8,22.8c-12.6,0-22.8-10.2-22.8-22.8c0-12.6,10.2-22.8,22.8-22.8
				C-1057.4,30.1-1047.2,40.3-1047.2,52.9z"/>
			<path fill="#80B8DD" d="M-1053,52.9c0,9.3-7.6,16.9-16.9,16.9c-9.4,0-16.9-7.6-16.9-16.9c0-9.4,7.6-16.9,16.9-16.9
				C-1060.6,36-1053,43.6-1053,52.9z"/>
			<path fill="#FFFFFF" d="M-1069.1,46c0,3.3-2.7,6-6,6c-3.3,0-6-2.7-6-6c0-3.3,2.7-6,6-6C-1071.8,40-1069.1,42.7-1069.1,46z"/>
			<path fill="#FFFFFF" d="M-1077.9,55.4c0,1.9-1.5,3.4-3.4,3.4c-1.9,0-3.4-1.5-3.4-3.4c0-1.9,1.5-3.4,3.4-3.4
				C-1079.4,52-1077.9,53.5-1077.9,55.4z"/>
			<path fill="#175079" d="M-1129.1,18.4c-2.8,0-5.3-1.6-6.5-3.9c-2.1,1.3-3.5,3.6-3.5,6.3v64.4c0,4.1,3.3,7.4,7.4,7.4h20.6V18.4
				H-1129.1z"/>
			<path fill="#175079" d="M-1111.1,13.2c0,1.2-1,2.1-2.1,2.1h-14.4c-1.2,0-2.1-1-2.1-2.1v-1.1c0-1.2,1-2.1,2.1-2.1h14.4
				c1.2,0,2.1,1,2.1,2.1V13.2z"/>
			<path fill="#FFFFFF" d="M-1054.2,9.2c0,1.2-1,2.2-2.2,2.2h-27.6c-1.2,0-2.2-1-2.2-2.2V4.8c0-1.2,1-2.2,2.2-2.2h27.6
				c1.2,0,2.2,1,2.2,2.2V9.2z"/>
		</g>
	</g>
</g>
<g>
	<path fill="#0071BB" d="M-470.7,69.3c-4.5,3.4-6.7,7.4-6.7,12c0,3.5,1.3,6.3,4,8.5c2.7,2.1,5.8,3.2,9.5,3.2c2.9,0,6.2-0.8,9.8-2.4
		c1.7-0.7,3.5-1.6,5.3-2.7v-3.1c-0.8,0.5-1.6,0.9-2.4,1.3c-2.8,1.4-5.2,2.1-7.3,2.1c-2.3,0-4.3-0.9-5.7-2.6c-1.5-1.7-2.2-4-2.2-6.8
		c0-7.1,5.7-12.9,17.2-17.6l0.4-0.2v-3.1l-3.5,1.4C-460,62.6-466.2,65.9-470.7,69.3z M-453.1,34.8c-7.6,0-13.2,1.4-16.8,4.4
		c-3.6,2.9-5.4,5.6-5.4,8.1c0,2.6,1.3,3.9,4.1,3.9c3,0,4.9-2.3,5.6-6.8c0.8-4.4,4.5-6.6,11.1-6.6c2.2,0,4.1,0.3,5.7,0.9V35
		C-450.1,34.9-451.5,34.8-453.1,34.8z"/>
	<path fill="#0071BB" d="M-528.3,28.5V0h-1.2l-26.2,62.6c-1.9,4.5-3,7.1-3.2,7.7c-2.8,7-5.1,11.7-7.1,13.9c-2,2.2-4.9,3.6-8.9,4.2
		v3.1h26.8v-3.1c-2.9,0-5.2-0.7-7.1-2.1c-1.8-1.4-2.8-3.5-2.8-6.2c0-2.5,1.7-7.9,5.2-16.2l2.3-5.7h22.1v-3h-20.8l15.9-38.5
		L-528.3,28.5z"/>
	<path fill="#175079" d="M-481.8,88.5v3.1h-35.5v-3.1c4.3,0,7.3-0.3,8.8-1c1.5-0.6,2.3-1.9,2.3-3.8c0-1-1-3.9-3.1-8.7l-6.9-16.7
		h-12.2v-3h11.1l-11.1-26.7V0h1.4l30.2,71.7l4.1,9.4c0.9,2.1,2.2,3.8,3.8,5C-487.3,87.4-484.9,88.2-481.8,88.5z"/>
	<path fill="#175079" d="M-420.1,81.5c-0.4,7.6-4.1,11.4-11.2,11.4c-3,0-5.4-0.8-7.2-2.4c-1.8-1.6-2.9-4-3.4-7.1
		c-2.4,1.7-4.7,3.2-6.8,4.4v-3.1c2.1-1.3,4.4-2.9,6.8-4.9V58.2l-6.8,2.8v-3.1l6.8-2.8v-2.7c0-3.8-0.2-6.5-0.7-8.2s-1.8-3.2-3.8-4.5
		c-0.7-0.5-1.5-0.8-2.3-1.1V35c3.6,0.4,6.5,1.2,8.8,2.5c3.1,1.8,5.2,3.8,6.2,6.1c1,2.3,1.5,5.7,1.5,10.4v22c0,5.2,0.3,8.5,0.8,9.9
		c0.5,1.5,1.7,2.2,3.5,2.2c2.9,0,4.8-2.2,5.5-6.5H-420.1z"/>
</g>
<g>
	<g>
		<path fill="#0072BC" d="M-906.5,24.4c-21,0-37.9,13.4-37.9,29.9c0,11.9,8.9,22.2,21.7,27c-0.3,0.5-0.5,1.1-0.8,1.6
			c-2.5,4.2-6.2,7.4-10.5,9.5c9.7,0.7,18.6-2.2,24.6-8.3c1,0.1,2,0.1,3,0.1c20.9,0,37.9-13.4,37.9-29.9
			C-868.6,37.8-885.5,24.4-906.5,24.4z"/>
		<path fill="#175079" d="M-880.4,76c-23.5-0.5-42.3-15.7-42.3-34.3c0-5.8,1.8-11.2,5-16c3.5-0.9,7.3-1.3,11.1-1.3
			c20.9,0,37.9,13.4,37.9,29.9C-868.6,62.9-873.1,70.6-880.4,76z"/>
		<path fill="#99C6E4" d="M-874.1-0.1c24,0,43.5,15.4,43.5,34.3c0,13.7-10.2,25.5-24.9,31c0.3,0.6,0.5,1.2,0.9,1.8
			c2.9,4.8,7.1,8.5,12.1,10.9c-11.1,0.8-21.4-2.5-28.2-9.5c-1.1,0.1-2.3,0.1-3.4,0.1c-24,0-43.5-15.4-43.5-34.3
			S-898.1-0.1-874.1-0.1z"/>
		<path fill="#CCE3F1" d="M-830.6,34.3c-0.1,13.6-10.2,25.4-24.9,30.9c0.3,0.6,0.5,1.2,0.9,1.8c2.9,4.8,7.1,8.5,12.1,10.9
			c-11.1,0.8-21.4-2.5-28.2-9.5c-1.1,0.1-2.3,0.1-3.4,0.1c-24,0-43.4-15.3-43.5-34.2H-830.6z"/>
		<g>
			<g>
				<path fill="#1980C2" d="M-861.6,34.8c0,3.4,2.7,6.1,6.1,6.1c3.4,0,6.1-2.7,6.1-6.1c0-3.4-2.7-6.1-6.1-6.1
					C-858.9,28.7-861.6,31.5-861.6,34.8z"/>
				<path fill="#1980C2" d="M-880.3,34.8c0,3.4,2.7,6.1,6.1,6.1c3.4,0,6.1-2.7,6.1-6.1c0-3.4-2.7-6.1-6.1-6.1
					C-877.6,28.7-880.3,31.5-880.3,34.8z"/>
				<path fill="#1980C2" d="M-899.1,34.8c0,3.4,2.7,6.1,6.1,6.1c3.4,0,6.1-2.7,6.1-6.1c0-3.4-2.7-6.1-6.1-6.1
					C-896.3,28.7-899.1,31.5-899.1,34.8z"/>
			</g>
			<g>
				<path fill="#0072BC" d="M-849.4,34.3h-12.1c0.3-3.1,2.9-5.6,6.1-5.6C-852.3,28.7-849.7,31.2-849.4,34.3z"/>
				<path fill="#0072BC" d="M-868.2,34.3h-12.1c0.3-3.1,2.9-5.6,6.1-5.6C-871,28.7-868.4,31.2-868.2,34.3z"/>
				<path fill="#0072BC" d="M-886.9,34.3H-899c0.3-3.1,2.9-5.6,6.1-5.6C-889.8,28.7-887.2,31.2-886.9,34.3z"/>
			</g>
		</g>
	</g>
</g>
<path fill="#B06E59" d="M37,85.1c-0.1-0.2-0.2-0.5-0.3-0.7C36.9,84.6,36.9,84.8,37,85.1z"/>
<g>
	<g>
		<g>
			<g>
				<path fill="#30363D" d="M-170.4,87.2c-0.9,0-1.7-0.3-2.3-1c-0.6-0.6-1-1.4-1-2.3l0-80.6c0-0.9,0.3-1.7,1-2.3
					c0.6-0.6,1.4-1,2.3-1h127.5c0.9,0,1.7,0.3,2.3,1c0.6,0.6,1,1.4,1,2.3v80.6c0,0.9-0.3,1.7-1,2.3c-0.6,0.6-1.4,1-2.3,1H-170.4z"/>
				<path fill="#30363D" d="M-40.5,1c-0.6-0.6-1.5-1-2.3-1h-127.5c-0.9,0-1.7,0.3-2.3,1c-0.6,0.6-1,1.5-1,2.3l0,80.6
					c0,0.9,0.3,1.7,1,2.3c0.6,0.6,1.5,1,2.3,1h127.5c0.9,0,1.7-0.3,2.3-1c0.6-0.6,1-1.5,1-2.3V3.3C-39.6,2.4-39.9,1.6-40.5,1z
					 M-39.7,83.9c0,0.8-0.3,1.6-0.9,2.2c-0.6,0.6-1.4,0.9-2.2,0.9h-127.5c-0.8,0-1.6-0.3-2.2-0.9c-0.6-0.6-0.9-1.4-0.9-2.2l0-80.6
					c0-0.8,0.3-1.6,0.9-2.2c0.6-0.6,1.4-0.9,2.2-0.9h127.5c0.8,0,1.6,0.3,2.2,0.9c0.6,0.6,0.9,1.4,0.9,2.2V83.9z"/>
			</g>
		</g>
	</g>
	<g>
		<g>
			<rect x="-167.8" y="5.9" fill="#FFFFFF" width="122.4" height="80.6"/>
		</g>
	</g>
	<path fill="#565E6A" d="M-23.3,84.3c0-0.4-1.6-0.7-2-0.7h-6h-1H-188c-0.4,0-2,0.2-2,0.7v5.9h0c2.2,2.7,3.9,2.1,5.1,2.3h12.2l1.8,0
		v0l64.2,0l66,0h12.2c1.1-0.1,2.9,0.4,5.1-2.3h0c0-0.1,0-0.1,0-0.2L-23.3,84.3L-23.3,84.3z"/>
	<g>
		<rect x="-165.1" y="22.1" fill="#0072BC" width="35.7" height="18.6"/>
		<rect x="-124.9" y="22.1" fill="#174F78" width="35.7" height="18.6"/>
		<rect x="-84.7" y="22.1" fill="#8FC1E1" width="35.7" height="18.6"/>
		<rect x="-165.1" y="46" fill="#0072BC" width="35.7" height="4"/>
		<rect x="-124.9" y="46" fill="#174F78" width="35.7" height="4"/>
		<rect x="-84.7" y="46" fill="#8FC1E1" width="35.7" height="4"/>
		<g>
			<rect x="-155.2" y="10.9" fill="#CDD5D7" width="23.8" height="2.6"/>
			<circle fill="#CDD5D7" cx="-161.7" cy="12.2" r="3.4"/>
		</g>
		<rect x="-60.9" y="11.7" fill="#CDD5D7" width="11.8" height="1.1"/>
		<rect x="-74.1" y="11.7" fill="#CDD5D7" width="11.8" height="1.1"/>
		<rect x="-87.4" y="11.7" fill="#CDD5D7" width="11.8" height="1.1"/>
		<rect x="-100.6" y="11.7" fill="#CDD5D7" width="11.8" height="1.1"/>
		<rect x="-113.9" y="11.7" fill="#CDD5D7" width="11.8" height="1.1"/>
		<g>
			<rect x="-165.1" y="60.3" fill="#CDD5D7" width="35.7" height="1"/>
			<rect x="-165.1" y="63.9" fill="#CDD5D7" width="35.7" height="1"/>
			<rect x="-165.1" y="67.6" fill="#CDD5D7" width="35.7" height="1"/>
			<rect x="-165.1" y="71.2" fill="#CDD5D7" width="35.7" height="1"/>
			<rect x="-165.1" y="74.8" fill="#CDD5D7" width="25.5" height="1"/>
			<rect x="-165.1" y="54.2" fill="#CDD5D7" width="23.8" height="2.6"/>
		</g>
		<g>
			<rect x="-124.9" y="60.3" fill="#CDD5D7" width="35.7" height="1"/>
			<rect x="-124.9" y="63.9" fill="#CDD5D7" width="35.7" height="1"/>
			<rect x="-124.9" y="67.6" fill="#CDD5D7" width="35.7" height="1"/>
			<rect x="-124.9" y="71.2" fill="#CDD5D7" width="35.7" height="1"/>
			<rect x="-124.9" y="74.8" fill="#CDD5D7" width="25.5" height="1"/>
			<rect x="-124.9" y="54.2" fill="#CDD5D7" width="23.8" height="2.6"/>
		</g>
		<g>
			<rect x="-84.7" y="60.3" fill="#CDD5D7" width="35.7" height="1"/>
			<rect x="-84.7" y="63.9" fill="#CDD5D7" width="35.7" height="1"/>
			<rect x="-84.7" y="67.6" fill="#CDD5D7" width="35.7" height="1"/>
			<rect x="-84.7" y="71.2" fill="#CDD5D7" width="35.7" height="1"/>
			<rect x="-84.7" y="74.8" fill="#CDD5D7" width="25.5" height="1"/>
			<rect x="-84.7" y="54.2" fill="#CDD5D7" width="23.8" height="2.6"/>
		</g>
	</g>
	<g>
		<g>
			<g>
				<path fill="#DAE1DB" d="M-35.1,87.2c0,0.1-0.1,0.2-0.2,0.2h-4.9c-0.1,0-0.2-0.1-0.2-0.2c0-0.1,0.1-0.2,0.2-0.2h4.9
					C-35.2,87-35.1,87.1-35.1,87.2z"/>
			</g>
		</g>
		<g>
			<g>
				<path fill="#DAE1DB" d="M-30.2,86.5c0.4,0,0.7,0.3,0.7,0.7c0,0.4-0.3,0.7-0.7,0.7c-0.4,0-0.7-0.3-0.7-0.7
					C-30.9,86.8-30.5,86.5-30.2,86.5z"/>
			</g>
			<g>
				<path fill="#DAE1DB" d="M-32.3,86.5c0.4,0,0.7,0.3,0.7,0.7c0,0.4-0.3,0.7-0.7,0.7c-0.4,0-0.7-0.3-0.7-0.7
					C-33,86.8-32.6,86.5-32.3,86.5z"/>
			</g>
		</g>
	</g>
	<g>
		<g>
			<path fill="#DAE1DB" d="M-184.3,88.2c0,0.1-0.1,0.2-0.2,0.2h0c-0.1,0-0.2-0.1-0.2-0.2v-2c0-0.1,0.1-0.2,0.2-0.2h0
				c0.1,0,0.2,0.1,0.2,0.2V88.2z"/>
		</g>
		<g>
			<path fill="#DAE1DB" d="M-183.2,88.2c0,0.1-0.1,0.2-0.2,0.2h0c-0.1,0-0.2-0.1-0.2-0.2v-2c0-0.1,0.1-0.2,0.2-0.2h0
				c0.1,0,0.2,0.1,0.2,0.2V88.2z"/>
		</g>
		<g>
			<path fill="#DAE1DB" d="M-182.1,88.2c0,0.1-0.1,0.2-0.2,0.2h0c-0.1,0-0.2-0.1-0.2-0.2v-2c0-0.1,0.1-0.2,0.2-0.2h0
				c0.1,0,0.2,0.1,0.2,0.2V88.2z"/>
		</g>
		<g>
			<path fill="#DAE1DB" d="M-180.9,88.2c0,0.1-0.1,0.2-0.2,0.2h0c-0.1,0-0.2-0.1-0.2-0.2v-2c0-0.1,0.1-0.2,0.2-0.2h0
				c0.1,0,0.2,0.1,0.2,0.2V88.2z"/>
		</g>
	</g>
</g>
<path fill="#B06E59" d="M40.7,84.7c-0.1-0.2-0.2-0.5-0.3-0.7C40.5,84.2,40.6,84.4,40.7,84.7z"/>
<g>
	<path fill="#B06E59" d="M119.5,1.1c0.5,0.1,1.1,0.2,1.6,0.3C120.6,1.3,120,1.2,119.5,1.1z"/>
	<path fill="#B06E59" d="M122.2,1.7c0.2,0.1,0.5,0.2,0.7,0.3C122.7,1.9,122.4,1.8,122.2,1.7z"/>
	<path fill="#B06E59" d="M121.1,1.4c0.3,0.1,0.6,0.2,0.9,0.3C121.7,1.6,121.4,1.5,121.1,1.4z"/>
	<path fill="#2E6186" d="M132.1,9.8c-0.5-2-1.4-3.8-2.9-5.2c-1.4-1.4-3.2-2.4-5.2-2.9c-4.1-0.9-8.3-1.4-12.7-1.4
		c-0.9,0-1.9,0-2.8,0.1c2.7,1.1,5.2,2.4,7.7,3.9c5.1,3.1,9.6,6.9,13.5,11.4c-0.7,3.1-1.9,6.4-3.3,9.7c-5.1-7.5-11.9-13.7-19.8-18.1
		c-3.6-2-7.4-3.6-11.4-4.8c-0.2,0-0.4,0.1-0.5,0.1c-12.1,3.3-23.3,9.7-32.2,18.7C56.1,27.6,51,35,47.4,43.3c0,0,0,0,0,0.1
		c3.1,2,5.9,4.3,8.7,6.7c9,8.1,16.1,18.3,20.4,29.9c-4.6,2.8-9.1,5.1-13.5,6.8c-3.2-8.5-8-16.3-13.9-23c-2-2.2-4-4.3-6.2-6.3
		c-1.8,8.7-1.8,17.5,0.1,25.5c0.5,2,1.4,3.8,2.9,5.2c1.4,1.4,3.2,2.4,5.2,2.9c4.1,0.9,8.3,1.4,12.7,1.4c0,0,0,0,0,0
		c17.5,0,35.8-7.8,48.9-20.9C129.2,54.7,136.9,30.5,132.1,9.8z"/>
	<path fill="#5B1E10" d="M49.1,63.7c1.8-4.5,4.2-9.1,6.9-13.7c4.2-6.9,9.4-13.6,15.5-19.7c10.6-10.6,23.3-18.6,35.1-23.1
		c3.3-1.3,6.5-2.2,9.7-2.9c3.3-0.7,6.5-1.2,9.5-1.2c0,0,0.1,0,0.1,0c0.6,0,1.2,0.1,1.7,0.2c-1.1-0.7-2.3-1.3-3.6-1.6
		c-1.1-0.2-2.1-0.5-3.2-0.6c-1.7,0.2-3.4,0.5-5.1,0.9c-3.2,0.7-6.6,1.7-10,3C93,9.9,80.2,18.3,69.8,28.7c-6,6-11.4,12.8-15.8,20.1
		c-2.8,4.6-5.2,9.3-7.1,14c-2.4,5.9-4,11.6-4.6,16.9c0.2,1.1,0.4,2.1,0.6,3.2c0.3,1.3,0.8,2.5,1.6,3.6c-0.2-0.6-0.3-1.2-0.2-1.9
		C44.4,78.4,46,71.2,49.1,63.7z"/>
	<path fill="#0072BC" d="M132.1,9.8c-0.3-1.3-0.8-2.5-1.6-3.6c0.2,0.6,0.3,1.2,0.2,1.9c0,2.5-0.4,5-1,7.7c-0.7,3.1-1.9,6.4-3.3,9.7
		C121.3,36.9,112.1,49,101.1,60c-7.9,7.9-16.3,14.8-24.7,20c-4.6,2.8-9.1,5.1-13.5,6.8c-4.8,1.8-9.4,2.8-13.7,2.9c0,0-0.1,0-0.1,0
		c-0.6,0-1.2-0.1-1.7-0.2c1.1,0.7,2.3,1.3,3.6,1.6c1,0.2,2,0.4,3,0.6c3.1-0.5,6.4-1.3,9.9-2.6c4.4-1.7,9.1-4,13.9-7
		c8.2-5.1,16.9-12.1,25.1-20.3c11.8-11.8,20.7-24,25.7-35.3c1.6-3.5,2.7-6.9,3.5-10.1c0.3-1.2,0.5-2.3,0.7-3.5
		C132.5,11.8,132.3,10.8,132.1,9.8z"/>
	<path fill="#99C6E4" d="M116.2,4.3c-2.4-1.5-5-2.8-7.7-3.9c-0.2,0-0.5,0-0.7,0c-4.2,0.2-8.4,0.9-12.7,2c4,1.2,7.8,2.8,11.4,4.8
		c7.9,4.4,14.7,10.6,19.8,18.1c1.5-3.3,2.6-6.5,3.3-9.7C125.8,11.3,121.3,7.4,116.2,4.3z"/>
	<path fill="#99C6E4" d="M56,50c-2.7-2.4-5.6-4.7-8.7-6.7c-2,4.5-3.5,9.2-4.5,13.9c0,0.1,0,0.1,0,0.2c2.2,2,4.3,4.1,6.2,6.3
		c5.9,6.7,10.6,14.5,13.9,23c4.4-1.6,8.9-3.9,13.5-6.8C72.1,68.4,65,58.1,56,50z"/>
	<path fill="#B06E59" d="M42.9,82.9c-0.1-0.5-0.2-1-0.3-1.6C42.7,81.8,42.8,82.4,42.9,82.9z"/>
	<path fill="#B06E59" d="M43.2,83.8c-0.1-0.3-0.2-0.6-0.2-0.9C43,83.2,43.1,83.5,43.2,83.8z"/>
	<path fill="#B06E59" d="M122.4,1.4c0.5,0.1,1.1,0.2,1.6,0.3C123.5,1.6,123,1.5,122.4,1.4z"/>
	<path fill="#B06E59" d="M42.6,81.2c-0.1-0.5-0.2-1-0.3-1.5C42.4,80.2,42.5,80.7,42.6,81.2z"/>
	<path fill="#B06E59" d="M125.1,2.1c0.2,0.1,0.5,0.2,0.7,0.3C125.6,2.2,125.4,2.2,125.1,2.1z"/>
	<path fill="#B06E59" d="M124,1.7c0.3,0.1,0.6,0.2,0.9,0.2C124.6,1.9,124.3,1.8,124,1.7z"/>
	<path fill="#457393" d="M44.2,84.6c0,0.7,0.1,1.3,0.2,1.9c-0.4-0.5-0.7-1.1-0.9-1.7c0.5,1.2,1.3,2.3,2.2,3.2c0,0,0,0,0,0L57.8,76
		c-2.5-4.4-5.5-8.5-8.8-12.3C46,71.2,44.4,78.4,44.2,84.6z"/>
	<path fill="#457393" d="M59.9,40.2c-0.1-0.5,0-1.1,0.4-1.5c0.5-0.7,1-1.3,1.6-2c-0.7-0.5-1.5-0.9-2.3-1.2c-0.5-0.2-0.7-0.8-0.5-1.3
		c0.2-0.5,0.8-0.7,1.3-0.5c1,0.4,1.9,0.9,2.8,1.5c0.6-0.7,1.2-1.4,1.8-2.1c-0.7-0.4-1.5-0.8-2.3-1.2c-0.5-0.2-0.8-0.8-0.6-1.3
		c0.2-0.5,0.8-0.8,1.3-0.6c1,0.4,2,0.9,3,1.5c0.7-0.7,1.4-1.5,2.1-2.2c-0.7-0.4-1.5-0.8-2.3-1.1c-0.5-0.2-0.8-0.8-0.6-1.3
		c0.2-0.5,0.8-0.8,1.3-0.6c1.1,0.4,2.1,0.9,3,1.5c0.6-0.6,1.3-1.2,1.9-1.9c-0.7-0.4-1.5-0.8-2.3-1.1c-0.5-0.2-0.8-0.8-0.6-1.3
		c0.2-0.5,0.8-0.8,1.3-0.6c1.1,0.4,2.2,0.9,3.2,1.5c0.7-0.6,1.4-1.3,2.1-1.9c-0.8-0.4-1.5-0.7-2.3-1c-0.5-0.2-0.8-0.8-0.6-1.3
		c0.2-0.5,0.8-0.8,1.3-0.6c1.2,0.4,2.3,0.9,3.3,1.5c0.7-0.6,1.4-1.2,2.2-1.7c-0.7-0.3-1.4-0.6-2.1-0.9c-0.5-0.2-0.8-0.7-0.6-1.3
		c0.2-0.5,0.7-0.8,1.3-0.6c1.1,0.4,2.2,0.9,3.2,1.4c0.8-0.6,1.5-1.1,2.3-1.7c-0.7-0.3-1.4-0.6-2.2-0.8c-0.5-0.2-0.8-0.7-0.7-1.3
		c0.2-0.5,0.7-0.8,1.3-0.7c1.2,0.4,2.3,0.9,3.4,1.5c0.9-0.6,1.7-1.2,2.6-1.7c-0.7-0.3-1.5-0.6-2.3-0.9c-0.5-0.2-0.8-0.7-0.7-1.3
		c0.2-0.5,0.7-0.8,1.3-0.7c1.3,0.4,2.5,0.9,3.7,1.5c1-0.6,2-1.2,3-1.7c-0.5-0.2-0.9-0.3-1.4-0.5c-0.5-0.1-0.8-0.7-0.7-1.2
		c0.1-0.5,0.7-0.8,1.2-0.7C93,8.4,94,8.8,95.1,9.3c0.6-0.3,1.2-0.6,1.9-1c0.5-0.2,1-0.3,1.5-0.1c1.8-0.9,3.6-1.7,5.4-2.4
		c-2.8-1.3-5.6-2.5-8.6-3.4c-0.2,0-0.4,0.1-0.5,0.1c-12.1,3.3-23.3,9.7-32.2,18.7C56.1,27.6,51,35,47.4,43.3c0,0,0,0,0,0.1
		c2.4,1.6,4.7,3.3,6.9,5.1C56,45.6,57.9,42.8,59.9,40.2z"/>
	<path fill="#457393" d="M47.3,61.8c-1.4-1.5-2.9-3-4.5-4.4c-1.6,7.6-1.7,15.2-0.6,22.3c0.7-5.2,2.2-11,4.6-16.9
		C47,62.5,47.2,62.1,47.3,61.8z"/>
	<path fill="#457393" d="M115.7,2c1.7-0.4,3.4-0.7,5.1-0.9c0.5,0.1,1.1,0.2,1.6,0.3c-3.6-0.7-7.3-1.1-11-1.1c-0.9,0-1.9,0-2.8,0.1
		c1.6,0.7,3.2,1.4,4.7,2.2C114.1,2.4,114.9,2.2,115.7,2z"/>
	<path fill="#457393" d="M106.6,7.2c-2.2,0.8-4.5,1.8-6.8,2.9c0,0.6-0.3,1.3-0.9,1.6c0.5,0.5,1.1,0.9,1.6,1.4c0.4,0.4,0.4,1,0,1.4
		c-0.2,0.2-0.4,0.3-0.7,0.3c-0.3,0-0.5-0.1-0.7-0.3c-0.6-0.7-1.3-1.3-2-1.8c-1.2,0.6-2.4,1.3-3.6,2c0.4,0.4,0.9,0.8,1.3,1.2
		c0.4,0.4,0.4,1-0.1,1.4c-0.2,0.2-0.4,0.3-0.7,0.3c-0.3,0-0.5-0.1-0.7-0.3c-0.5-0.5-1-1-1.6-1.5c-1,0.6-1.9,1.2-2.9,1.8
		c0.6,0.5,1.1,1,1.6,1.6c0.4,0.4,0.3,1-0.1,1.4c-0.2,0.2-0.4,0.3-0.7,0.3c-0.3,0-0.6-0.1-0.7-0.3c-0.6-0.6-1.2-1.2-1.8-1.7
		c-0.9,0.6-1.7,1.2-2.5,1.8c0.6,0.6,1.2,1.2,1.8,1.8c0.4,0.4,0.3,1.1-0.1,1.4c-0.2,0.2-0.4,0.2-0.7,0.2c-0.3,0-0.6-0.1-0.8-0.3
		c-0.6-0.7-1.3-1.3-2-1.9c-0.8,0.6-1.6,1.2-2.4,1.9c0.6,0.6,1.2,1.2,1.8,1.9c0.4,0.4,0.3,1.1-0.1,1.4c-0.2,0.2-0.4,0.2-0.6,0.2
		c-0.3,0-0.6-0.1-0.8-0.4c-0.6-0.7-1.2-1.3-1.8-1.9c-0.8,0.6-1.5,1.3-2.3,2c0.7,0.7,1.4,1.4,2,2.1c0.3,0.4,0.3,1.1-0.1,1.4
		c-0.2,0.2-0.4,0.2-0.6,0.2c-0.3,0-0.6-0.1-0.8-0.4c-0.6-0.7-1.2-1.4-1.9-2c-0.7,0.6-1.4,1.3-2,1.9c0.8,0.7,1.5,1.5,2.2,2.3
		c0.3,0.4,0.3,1.1-0.2,1.4c-0.2,0.1-0.4,0.2-0.6,0.2c-0.3,0-0.6-0.1-0.8-0.4c-0.6-0.8-1.3-1.5-2-2.1c-0.7,0.7-1.4,1.5-2.1,2.2
		c0.8,0.8,1.6,1.6,2.3,2.5c0.3,0.4,0.3,1.1-0.2,1.4C71.4,37.9,71.2,38,71,38c-0.3,0-0.6-0.1-0.8-0.4c-0.6-0.8-1.3-1.5-2-2.2
		c-0.6,0.7-1.3,1.4-1.9,2.2c0.9,0.8,1.7,1.7,2.4,2.7c0.3,0.4,0.2,1.1-0.2,1.4c-0.2,0.1-0.4,0.2-0.6,0.2c-0.3,0-0.6-0.1-0.8-0.4
		c-0.6-0.8-1.3-1.6-2.1-2.3c-0.5,0.7-1.1,1.3-1.6,2c-0.4,0.5-1,0.8-1.6,0.8c-0.1,0-0.2,0-0.3,0c-2,2.7-3.9,5.4-5.5,8.2l0,0
		c1.1,1,2.2,2.1,3.3,3.1c3.6,3.6,6.8,7.6,9.6,11.8l49.3-49.3C114.7,12.4,110.8,9.6,106.6,7.2L106.6,7.2z"/>
	<path fill="#457393" d="M126,2.4c0.6,0.3,1.1,0.6,1.7,0.9c-0.5-0.2-1.1-0.2-1.7-0.2c0,0-0.1,0-0.1,0c-3,0.1-6.2,0.5-9.5,1.2l0,0
		c0.6,0.4,1.3,0.8,1.9,1.2c0.4,0.3,0.8,0.5,1.1,0.8c0.2,0.2,0.5,0.3,0.7,0.5c0.4,0.3,0.7,0.5,1.1,0.8c0.2,0.2,0.5,0.4,0.7,0.5
		c0.5,0.4,1,0.8,1.5,1.2c0.1,0.1,0.1,0.1,0.2,0.2c0.2,0.1,0.3,0.3,0.5,0.4l5.3-5.3c0,0,0,0,0,0C128.3,3.7,127.2,2.9,126,2.4z"/>
	<path fill="#0072BC" d="M59.9,40.2c-2,2.7-3.9,5.4-5.7,8.3c0.6,0.5,1.2,1,1.8,1.5c0,0,0,0,0,0l0,0c1.7-2.8,3.5-5.5,5.5-8.2
		c-0.3-0.1-0.6-0.2-0.9-0.4C60.2,41.1,60,40.7,59.9,40.2z"/>
	<path fill="#0072BC" d="M115.7,2c-0.8,0.2-1.6,0.4-2.5,0.6c1,0.5,2,1.1,3,1.7c0,0,0,0,0,0l0,0l0,0c3.3-0.7,6.5-1.2,9.5-1.2
		c0,0,0.1,0,0.1,0c0.6,0,1.2,0.1,1.7,0.2c-0.5-0.4-1.1-0.7-1.7-0.9c0,0-0.1,0-0.1-0.1c-0.2-0.1-0.5-0.2-0.7-0.3
		c-0.1,0-0.1,0-0.2-0.1c-0.3-0.1-0.6-0.2-0.9-0.2c-0.5-0.1-1.1-0.2-1.6-0.3c0,0,0,0,0,0c-0.5-0.1-1-0.2-1.6-0.3
		C119.2,1.3,117.5,1.6,115.7,2z"/>
	<path fill="#0072BC" d="M99.6,9.2c0.1,0.3,0.2,0.6,0.2,0.9c2.3-1.1,4.5-2.1,6.8-2.9l0,0c0,0,0,0,0,0c-0.9-0.5-1.8-1-2.7-1.4
		c-1.8,0.7-3.6,1.5-5.4,2.4C98.9,8.4,99.4,8.7,99.6,9.2z"/>
	<path fill="#0072BC" d="M44.2,84.6c0.1-6.2,1.8-13.4,4.8-20.9c0,0,0,0,0,0c-0.6-0.6-1.2-1.3-1.7-1.9c-0.1,0.3-0.3,0.7-0.4,1
		c-2.4,5.9-4,11.6-4.6,16.9c0,0,0,0,0,0c0,0,0,0,0,0c0.1,0.5,0.2,1,0.3,1.5c0,0,0,0,0,0.1c0.1,0.5,0.2,1.1,0.3,1.6
		c0.1,0.3,0.2,0.6,0.2,0.9c0,0.1,0,0.1,0.1,0.2c0.1,0.2,0.2,0.5,0.3,0.7c0,0,0,0.1,0.1,0.1c0.3,0.6,0.6,1.1,0.9,1.7
		C44.3,85.9,44.2,85.3,44.2,84.6z"/>
	<path fill="#CCE3F2" d="M123.2,9.3c-0.5-0.4-1-0.8-1.5-1.2c-0.2-0.2-0.5-0.4-0.7-0.5c-0.4-0.3-0.7-0.5-1.1-0.8
		c-0.2-0.2-0.5-0.3-0.7-0.5c-0.4-0.3-0.7-0.5-1.1-0.8c-0.6-0.4-1.2-0.8-1.9-1.2c0,0,0,0,0,0c-1-0.6-2-1.1-3-1.7
		c-1.5-0.8-3.1-1.5-4.7-2.2c-0.2,0-0.5,0-0.7,0c-4.2,0.2-8.4,0.9-12.7,2c3,0.9,5.9,2,8.6,3.4c0.9,0.5,1.8,0.9,2.7,1.4c0,0,0,0,0,0
		c4.2,2.3,8.1,5.2,11.6,8.5l5.8-5.8c-0.2-0.1-0.3-0.3-0.5-0.4C123.4,9.4,123.3,9.4,123.2,9.3z"/>
	<path fill="#CCE3F2" d="M56,50C56,50,56,50,56,50c-0.6-0.5-1.2-1-1.8-1.6c-2.2-1.8-4.5-3.6-6.9-5.1c-2,4.5-3.5,9.2-4.5,13.9
		c0,0.1,0,0.1,0,0.2c1.6,1.4,3.1,2.9,4.5,4.4c0.6,0.6,1.2,1.3,1.7,1.9c0,0,0,0,0,0c3.3,3.8,6.2,7.9,8.8,12.3l11-11
		c-2.8-4.3-6-8.2-9.6-11.8C58.2,52.1,57.1,51,56,50z"/>
	<path fill="#FFFFFF" d="M99.6,9.2c-0.3-0.5-0.7-0.9-1.2-1c-0.5-0.2-1-0.1-1.5,0.1c-0.6,0.3-1.2,0.6-1.9,1c1.4,0.7,2.7,1.5,3.9,2.5
		c0.6-0.4,0.9-1,0.9-1.6C99.8,9.8,99.8,9.5,99.6,9.2z"/>
	<g>
		<path fill="#CCE3F2" d="M61.9,41.9c-0.4,0-0.9-0.1-1.2-0.4c-0.9-0.7-1-1.9-0.4-2.8c2.8-3.7,5.9-7.2,9.1-10.4
			c8-8,17.6-14.9,27.5-19.9c1-0.5,2.2-0.1,2.7,0.9c0.5,1,0.1,2.2-0.9,2.7C89.1,16.7,80,23.3,72.2,31.1c-3.1,3.1-6.1,6.5-8.8,10
			C63.1,41.6,62.5,41.9,61.9,41.9z"/>
		<path fill="#CCE3F2" d="M99.8,14.9c-0.3,0-0.5-0.1-0.7-0.3c-2.1-2.2-4.8-3.8-7.7-4.6c-0.5-0.1-0.8-0.7-0.7-1.2
			c0.1-0.5,0.7-0.8,1.2-0.7c3.3,0.9,6.2,2.7,8.6,5.1c0.4,0.4,0.4,1,0,1.4C100.3,14.8,100,14.9,99.8,14.9z"/>
		<path fill="#CCE3F2" d="M94,17.7c-0.3,0-0.5-0.1-0.7-0.3c-2.1-2.2-4.7-3.9-7.7-4.8c-0.5-0.2-0.8-0.7-0.7-1.3
			c0.2-0.5,0.7-0.8,1.3-0.7c3.3,1,6.2,2.8,8.6,5.3c0.4,0.4,0.4,1-0.1,1.4C94.4,17.6,94.2,17.7,94,17.7z"/>
		<path fill="#CCE3F2" d="M89.6,20.9c-0.3,0-0.6-0.1-0.7-0.3c-2.1-2.3-4.7-4-7.6-4.9c-0.5-0.2-0.8-0.7-0.7-1.3
			c0.2-0.5,0.7-0.8,1.3-0.7c3.3,1,6.2,2.9,8.5,5.5c0.4,0.4,0.3,1-0.1,1.4C90.1,20.8,89.8,20.9,89.6,20.9z"/>
		<path fill="#CCE3F2" d="M85.5,24.1c-0.3,0-0.6-0.1-0.8-0.3c-2-2.4-4.7-4.1-7.6-5.1c-0.5-0.2-0.8-0.7-0.6-1.3
			c0.2-0.5,0.7-0.8,1.3-0.6c3.3,1.1,6.2,3.1,8.5,5.7c0.4,0.4,0.3,1.1-0.1,1.4C86,24,85.8,24.1,85.5,24.1z"/>
		<path fill="#CCE3F2" d="M81.5,27.2c-0.3,0-0.6-0.1-0.8-0.4c-2-2.4-4.7-4.2-7.6-5.3c-0.5-0.2-0.8-0.8-0.6-1.3
			c0.2-0.5,0.8-0.8,1.3-0.6c3.3,1.2,6.2,3.2,8.5,5.9c0.4,0.4,0.3,1.1-0.1,1.4C82,27.2,81.7,27.2,81.5,27.2z"/>
		<path fill="#CCE3F2" d="M77.8,30.7c-0.3,0-0.6-0.1-0.8-0.4c-2-2.5-4.6-4.4-7.6-5.5c-0.5-0.2-0.8-0.8-0.6-1.3
			c0.2-0.5,0.8-0.8,1.3-0.6c3.3,1.2,6.2,3.3,8.5,6.1c0.3,0.4,0.3,1.1-0.1,1.4C78.3,30.7,78.1,30.7,77.8,30.7z"/>
		<path fill="#CCE3F2" d="M74.4,34.2c-0.3,0-0.6-0.1-0.8-0.4c-2-2.5-4.6-4.5-7.6-5.6c-0.5-0.2-0.8-0.8-0.6-1.3
			c0.2-0.5,0.8-0.8,1.3-0.6c3.3,1.3,6.2,3.5,8.4,6.3c0.3,0.4,0.3,1.1-0.2,1.4C74.9,34.1,74.7,34.2,74.4,34.2z"/>
		<path fill="#CCE3F2" d="M71,38c-0.3,0-0.6-0.1-0.8-0.4c-2-2.6-4.6-4.6-7.6-5.8c-0.5-0.2-0.8-0.8-0.6-1.3c0.2-0.5,0.8-0.8,1.3-0.6
			c3.3,1.3,6.2,3.6,8.4,6.4c0.3,0.4,0.3,1.1-0.2,1.4C71.4,37.9,71.2,38,71,38z"/>
		<path fill="#CCE3F2" d="M67.9,41.8c-0.3,0-0.6-0.1-0.8-0.4c-1.9-2.6-4.6-4.7-7.6-6c-0.5-0.2-0.7-0.8-0.5-1.3
			c0.2-0.5,0.8-0.7,1.3-0.5c3.3,1.4,6.2,3.7,8.4,6.6c0.3,0.4,0.2,1.1-0.2,1.4C68.3,41.8,68.1,41.8,67.9,41.8z"/>
		<path fill="#CCE3F2" d="M71.8,26c-0.7,0.6-1.3,1.2-1.9,1.9c1.2,0.7,2.3,1.5,3.3,2.4c0.7-0.7,1.3-1.3,2-1.9
			C74.1,27.4,73,26.6,71.8,26z"/>
		<path fill="#CCE3F2" d="M75.5,22.6c-0.7,0.6-1.4,1.3-2.1,1.9c1.2,0.7,2.3,1.5,3.3,2.4c0.7-0.7,1.5-1.3,2.3-2
			C77.8,24.1,76.7,23.3,75.5,22.6z"/>
		<path fill="#CCE3F2" d="M68.4,29.3c-0.7,0.7-1.4,1.4-2.1,2.2c1.1,0.7,2.2,1.5,3.2,2.5c0.7-0.8,1.4-1.5,2.1-2.2
			C70.7,30.8,69.6,30,68.4,29.3z"/>
		<path fill="#CCE3F2" d="M65,33c-0.6,0.7-1.2,1.4-1.8,2.1c1.1,0.7,2.2,1.5,3.2,2.5c0.6-0.7,1.2-1.5,1.9-2.2
			C67.2,34.5,66.1,33.7,65,33z"/>
		<path fill="#CCE3F2" d="M92.8,10.5c-1,0.6-2,1.1-3,1.7c1.3,0.7,2.5,1.6,3.6,2.5c1.2-0.7,2.4-1.3,3.6-2
			C95.7,11.9,94.3,11.1,92.8,10.5z"/>
		<path fill="#CCE3F2" d="M61.8,36.7c-0.5,0.7-1.1,1.3-1.6,2c-0.3,0.5-0.5,1-0.4,1.5c0.1,0.5,0.3,1,0.8,1.3c0.3,0.2,0.6,0.3,0.9,0.4
			c0.1,0,0.2,0,0.3,0c0.6,0,1.2-0.3,1.6-0.8c0.5-0.7,1-1.3,1.6-2C64.1,38.2,63,37.4,61.8,36.7z"/>
		<path fill="#CCE3F2" d="M87.8,13.5c-0.9,0.6-1.7,1.1-2.6,1.7c1.3,0.7,2.4,1.5,3.5,2.5c0.9-0.6,1.9-1.2,2.9-1.8
			C90.5,14.9,89.2,14.1,87.8,13.5z"/>
		<path fill="#CCE3F2" d="M79.3,19.5c-0.7,0.6-1.4,1.1-2.2,1.7c1.2,0.7,2.3,1.5,3.4,2.5c0.8-0.6,1.6-1.2,2.4-1.9
			C81.7,20.9,80.5,20.1,79.3,19.5z"/>
		<path fill="#CCE3F2" d="M83.4,16.5c-0.8,0.6-1.6,1.1-2.3,1.7c1.2,0.7,2.4,1.5,3.5,2.4c0.8-0.6,1.7-1.2,2.5-1.8
			C85.9,17.9,84.7,17.1,83.4,16.5z"/>
		<path fill="#CCE3F2" d="M95.1,9.3c-1-0.5-2.1-0.9-3.1-1.2c-0.5-0.1-1.1,0.2-1.2,0.7c-0.1,0.5,0.2,1.1,0.7,1.2
			c0.5,0.1,1,0.3,1.4,0.5c1.5,0.6,2.9,1.3,4.2,2.3c0.7,0.5,1.4,1.1,2,1.8c0.2,0.2,0.5,0.3,0.7,0.3c0.3,0,0.5-0.1,0.7-0.3
			c0.4-0.4,0.4-1,0-1.4c-0.5-0.5-1-1-1.6-1.4C97.7,10.8,96.4,10,95.1,9.3z"/>
		<path fill="#CCE3F2" d="M89.8,12.2c-1.2-0.6-2.4-1.2-3.7-1.5c-0.5-0.2-1.1,0.1-1.3,0.7c-0.2,0.5,0.1,1.1,0.7,1.3
			c0.8,0.2,1.5,0.5,2.3,0.9c1.4,0.6,2.6,1.4,3.8,2.4c0.6,0.5,1.1,1,1.6,1.5c0.2,0.2,0.5,0.3,0.7,0.3c0.2,0,0.5-0.1,0.7-0.3
			c0.4-0.4,0.4-1,0.1-1.4c-0.4-0.4-0.8-0.8-1.3-1.2C92.3,13.8,91.1,12.9,89.8,12.2z"/>
		<path fill="#CCE3F2" d="M85.2,15.2c-1.1-0.6-2.2-1.1-3.4-1.5c-0.5-0.2-1.1,0.1-1.3,0.7c-0.2,0.5,0.1,1.1,0.7,1.3
			c0.7,0.2,1.5,0.5,2.2,0.8c1.3,0.6,2.5,1.4,3.7,2.3c0.6,0.5,1.3,1.1,1.8,1.7c0.2,0.2,0.5,0.3,0.7,0.3c0.2,0,0.5-0.1,0.7-0.3
			c0.4-0.4,0.4-1,0.1-1.4c-0.5-0.6-1-1.1-1.6-1.6C87.7,16.7,86.5,15.9,85.2,15.2z"/>
		<path fill="#CCE3F2" d="M81,18.2c-1-0.6-2.1-1.1-3.2-1.4c-0.5-0.2-1.1,0.1-1.3,0.6c-0.2,0.5,0.1,1.1,0.6,1.3
			c0.7,0.2,1.4,0.5,2.1,0.9c1.3,0.6,2.5,1.4,3.6,2.3c0.7,0.6,1.4,1.2,2,1.9c0.2,0.2,0.5,0.3,0.8,0.3c0.2,0,0.5-0.1,0.7-0.2
			c0.4-0.4,0.5-1,0.1-1.4c-0.6-0.7-1.2-1.3-1.8-1.8C83.4,19.7,82.3,18.9,81,18.2z"/>
		<path fill="#CCE3F2" d="M77.1,21.3c-1.1-0.6-2.2-1.1-3.3-1.5c-0.5-0.2-1.1,0.1-1.3,0.6c-0.2,0.5,0.1,1.1,0.6,1.3
			c0.8,0.3,1.6,0.6,2.3,1c1.2,0.6,2.4,1.4,3.4,2.4c0.7,0.6,1.3,1.2,1.8,1.9c0.2,0.2,0.5,0.4,0.8,0.4c0.2,0,0.5-0.1,0.6-0.2
			c0.4-0.4,0.5-1,0.1-1.4c-0.6-0.7-1.2-1.3-1.8-1.9C79.4,22.8,78.3,21.9,77.1,21.3z"/>
		<path fill="#CCE3F2" d="M73.3,24.5c-1-0.6-2.1-1.1-3.2-1.5c-0.5-0.2-1.1,0.1-1.3,0.6c-0.2,0.5,0.1,1.1,0.6,1.3
			c0.8,0.3,1.6,0.7,2.3,1.1c1.2,0.7,2.3,1.5,3.3,2.4c0.7,0.6,1.4,1.3,1.9,2c0.2,0.2,0.5,0.4,0.8,0.4c0.2,0,0.4-0.1,0.6-0.2
			c0.4-0.3,0.5-1,0.1-1.4c-0.6-0.8-1.3-1.5-2-2.1C75.6,26,74.5,25.2,73.3,24.5z"/>
		<path fill="#CCE3F2" d="M69.8,27.8c-1-0.6-2-1.1-3-1.5c-0.5-0.2-1.1,0.1-1.3,0.6c-0.2,0.5,0.1,1.1,0.6,1.3
			c0.8,0.3,1.6,0.7,2.3,1.1c1.2,0.7,2.3,1.5,3.3,2.4c0.7,0.7,1.4,1.4,2,2.1c0.2,0.3,0.5,0.4,0.8,0.4c0.2,0,0.4-0.1,0.6-0.2
			c0.4-0.3,0.5-1,0.2-1.4c-0.7-0.8-1.4-1.6-2.2-2.3C72.1,29.3,71,28.5,69.8,27.8z"/>
		<path fill="#CCE3F2" d="M66.3,31.5c-0.9-0.6-1.9-1.1-3-1.5c-0.5-0.2-1.1,0-1.3,0.6c-0.2,0.5,0,1.1,0.6,1.3
			c0.8,0.3,1.6,0.7,2.3,1.2c1.2,0.7,2.2,1.5,3.2,2.4c0.7,0.7,1.4,1.4,2,2.2c0.2,0.3,0.5,0.4,0.8,0.4c0.2,0,0.4-0.1,0.6-0.2
			c0.4-0.3,0.5-1,0.2-1.4c-0.7-0.9-1.4-1.7-2.3-2.5C68.6,33,67.5,32.2,66.3,31.5z"/>
		<path fill="#CCE3F2" d="M63.1,35.1c-0.9-0.6-1.8-1.1-2.8-1.5c-0.5-0.2-1.1,0-1.3,0.5c-0.2,0.5,0,1.1,0.5,1.3
			c0.8,0.3,1.6,0.7,2.3,1.2c1.1,0.7,2.2,1.5,3.2,2.5c0.7,0.7,1.4,1.5,2.1,2.3c0.2,0.3,0.5,0.4,0.8,0.4c0.2,0,0.4-0.1,0.6-0.2
			c0.4-0.3,0.5-1,0.2-1.4c-0.7-1-1.5-1.9-2.4-2.7C65.3,36.6,64.3,35.8,63.1,35.1z"/>
	</g>
</g>
<g>
	<path fill="#414042" d="M217.4,37.7c-2.1,0-3.8,3.9-3.8,8.7c0,4.8,1.7,8.7,3.8,8.7l0,0h8.9V37.7H217.4z"/>
	<ellipse fill="#05838D" cx="237.6" cy="46.5" rx="15.3" ry="35.5"/>
	<ellipse fill="#4C9CD0" cx="251.7" cy="46.5" rx="22.3" ry="46.4"/>
	<ellipse fill="#0072BC" cx="259.7" cy="46.5" rx="14.2" ry="38.5"/>
	<path fill="#175079" d="M260.8,37.7c-2.1,0-3.8,3.9-3.8,8.7c0,4.8,1.7,8.7,3.8,8.7l0,0h38.5V37.7H260.8z"/>
	<ellipse fill="#4C9CD0" cx="311.3" cy="46.5" rx="22.3" ry="46.4"/>
	<ellipse fill="#0072BC" cx="319.3" cy="46.5" rx="14.2" ry="38.5"/>
	<ellipse fill="#4C9CD0" cx="327.7" cy="46.5" rx="15.3" ry="35.5"/>
	<ellipse fill="#0072BC" cx="333.2" cy="46.5" rx="9.8" ry="29.5"/>
	<ellipse fill="#457393" cx="347.6" cy="46.5" rx="3.8" ry="8.7"/>
	<path fill="#175079" d="M343.8,46.5c0-4.8,1.7-8.7,3.8-8.7h-14.1c-2.1,0-3.8,3.9-3.8,8.7c0,4.8,1.7,8.7,3.8,8.7l0,0h14.1l0,0
		C345.5,55.2,343.8,51.3,343.8,46.5z"/>
	<path fill="#457393" d="M222.8,37.7h-5.4c-2.1,0-3.8,3.9-3.8,8.7c0,4.8,1.7,8.7,3.8,8.7l0,0h5.4c-0.3-2.8-0.5-5.7-0.5-8.7
		C222.3,43.4,222.5,40.5,222.8,37.7z"/>
	<path fill="#0072BC" d="M237.3,11c-7,0.3-12.9,11.6-14.5,26.8c-0.3,2.8-0.5,5.7-0.5,8.7c0,3,0.2,5.9,0.5,8.7
		c1.7,15.2,7.5,26.4,14.5,26.8c-4.9-8.5-7.9-21.3-7.9-35.5C229.4,32.2,232.5,19.5,237.3,11z"/>
	<path fill="#66AAD7" d="M245.5,46.5c0-21.3,6.4-38.5,14.2-38.5c3.5,0,6.7,3.5,9.2,9.2c-4.1-10.4-10.3-17.1-17.3-17.1
		c-5.5,0-10.5,4.1-14.3,10.9c-4.9,8.5-7.9,21.2-7.9,35.5c0,14.2,3.1,27,7.9,35.5c1.2,2.1,2.5,3.9,3.9,5.5l10-10
		C247.8,70.4,245.5,59.1,245.5,46.5z"/>
	<path fill="#338DC9" d="M260.8,55.2c-2.1,0-3.8-3.9-3.8-8.7c0-4.8,1.7-8.7,3.8-8.7h12.8c-0.7-8.2-2.4-15.3-4.6-20.6
		c-2.5-5.7-5.7-9.2-9.2-9.2c-7.9,0-14.2,17.2-14.2,38.5c0,12.7,2.3,23.9,5.8,30.9l22.2-22.2H260.8L260.8,55.2z"/>
	<path fill="#457393" d="M273.6,37.7h-12.8c-2.1,0-3.8,3.9-3.8,8.7c0,4.8,1.7,8.7,3.8,8.7l0,0h12.7l15.8-15.8c0-0.6,0.1-1.1,0.1-1.7
		H273.6z"/>
	<path fill="#66AAD7" d="M311.3,0.1c-10.9,0-19.9,16.2-21.9,37.7c-0.1,0.6-0.1,1.1-0.1,1.7l19.9-19.9c2.6-7.1,6.2-11.5,10.1-11.5
		c0.4,0,0.8,0.1,1.2,0.2l1.9-1.9C319.1,2.3,315.3,0.1,311.3,0.1z"/>
	<path fill="#338DC9" d="M309.2,19.5l11.4-11.4C320.1,8,319.7,8,319.3,8C315.3,8,311.8,12.4,309.2,19.5z"/>
</g>
<g>
	<path fill="#2E6186" d="M-230,51.1c-17,7-35.3,9.9-53.3,8.6v32.8c18,1.3,36.3-1.5,53.3-8.6c-3-4.2-6.1-8.6-9.2-13
		C-236.1,64.4-233,57.8-230,51.1z"/>
	<path fill="#175079" d="M-270.6,55.3c-7.5,3.1-12.7,4.4-12.7,4.4v32.8c0,0,5.2-0.7,13.6-4.5c8.4-3.7,11.8-7.1,11.8-7.1V48.1
		C-257.8,48.1-262.9,52.2-270.6,55.3z"/>
	<path fill="#2E6186" d="M-375,51.1c17,7,35.3,9.9,53.3,8.6v32.8c-18,1.3-36.3-1.5-53.3-8.6c3-4.2,6.1-8.6,9.2-13
		C-368.9,64.4-372,57.8-375,51.1z"/>
	<path fill="#175079" d="M-334.4,55.3c7.5,3.1,12.7,4.4,12.7,4.4v32.8c0,0-5.2-0.7-13.6-4.5c-8.4-3.7-11.8-7.1-11.8-7.1V48.1
		C-347.2,48.1-342.1,52.2-334.4,55.3z"/>
	<g>
		<polygon fill="#0072BC" points="-302.1,4.2 -297.5,0 -293.8,5 -288.4,1.9 -285.9,7.6 -280,5.7 -278.7,11.8 -272.4,11.1 
			-272.5,17.4 -266.2,18 -267.6,24.1 -261.6,26 -264.2,31.7 -258.7,34.9 -262.4,39.9 -257.8,44.1 -262.4,48.3 -258.7,53.3 
			-264.2,56.4 -261.6,62.1 -267.6,64 -266.2,70.2 -272.5,70.8 -272.4,77.1 -278.7,76.4 -280,82.5 -285.9,80.6 -288.4,86.3 
			-293.8,83.1 -297.5,88.2 -302.1,84 -306.8,88.2 -310.4,83.1 -315.8,86.3 -318.4,80.6 -324.3,82.5 -325.6,76.4 -331.8,77.1 
			-331.8,70.8 -338,70.2 -336.7,64 -342.7,62.1 -340.1,56.4 -345.5,53.3 -341.8,48.3 -346.5,44.1 -341.8,39.9 -345.5,34.9 
			-340.1,31.7 -342.7,26 -336.7,24.1 -338,18 -331.8,17.4 -331.8,11.1 -325.6,11.8 -324.3,5.7 -318.4,7.6 -315.8,1.9 -310.4,5 
			-306.8,0 		"/>
		<circle fill="#175079" cx="-302.1" cy="44.1" r="36.5"/>
		<circle fill="#80B8DD" cx="-302.1" cy="44.1" r="30.8"/>
		<path fill="#338EC9" d="M-278.7,11.8l-1.3-6.1l-5.9,1.9l-2.5-5.7l-5.4,3.1l-3.7-5.1l-4.6,4.2l-4.6-4.2l-3.7,5.1l-5.4-3.1l-2.5,5.7
			l-5.9-1.9l-1.3,6.1l-6.2-0.7l0,6.3L-338,18l1.3,6.1l-6,1.9l2.6,5.7l-5.4,3.1l3.7,5l-4.7,4.2l4.7,4.2l-3.7,5.1l5.4,3.1l-2.6,5.7
			l6,1.9l-1.3,6.1l6.2,0.6l0,2.1l3.5-3.5c-6.4-6.6-10.3-15.5-10.3-25.4c0-20.2,16.3-36.5,36.5-36.5c9.9,0,18.8,3.9,25.4,10.3
			l4.3-4.3l0-2.4L-278.7,11.8z"/>
		<path fill="#396A8D" d="M-338.6,44.1c0,9.9,3.9,18.8,10.3,25.4l4-4c-5.3-5.5-8.6-13-8.6-21.3c0-17,13.8-30.8,30.8-30.8
			c8.3,0,15.8,3.3,21.3,8.6l4-4c-6.6-6.4-15.5-10.3-25.4-10.3C-322.3,7.6-338.6,23.9-338.6,44.1z"/>
		<path fill="#B2D5EB" d="M-302.1,13.3c-17,0-30.8,13.8-30.8,30.8c0,8.3,3.3,15.8,8.6,21.3l43.5-43.5
			C-286.3,16.6-293.9,13.3-302.1,13.3z"/>
		<circle fill="#99C6E4" cx="-302.1" cy="44" r="30.7"/>
		<path fill="#2E6186" d="M-302.1,72.3c-15.6,0-28.2-12.7-28.2-28.2c0-15.6,12.7-28.2,28.2-28.2c15.6,0,28.2,12.7,28.2,28.2
			C-273.9,59.6-286.6,72.3-302.1,72.3z"/>
		<g>
			<path fill="#CCE3F2" d="M-300.7,66.9c-0.2-0.1-0.4-0.2-0.6-0.3c-0.1,0-0.2-0.1-0.3-0.1c-0.1,0-0.2-0.1-0.3-0.1
				c-0.4-0.2-0.9-0.3-1.3-0.4c-0.4-0.1-0.8-0.2-1.2-0.3l0,0c0,0,0,0,0,0c-0.3-0.1-0.7-0.2-1-0.2c-0.5-1.4-1-3.4-1.8-4.3
				c-1-1-2.7-1.7-4.1-2.1c0.4,1.3,1.3,3.3,2.3,4.2c0.7,0.6,1.7,1.2,2.7,1.8c-1.2-0.2-4-1-4.8-1.4c-0.1-1.5,0-3.5-0.6-4.6
				c-0.7-1.2-2.1-2.4-3.4-3.1c0,1.3,0.3,3.5,1,4.7c0.5,0.8,1.3,1.7,2.1,2.5c-0.7-0.4-3.1-2.1-4.8-3.6c0.4-1.5,1.1-3.3,0.9-4.4
				c-0.3-1.4-1.2-3-2.2-4c-0.4,1.3-0.8,3.4-0.5,4.8c0.2,0.9,0.7,2,1.2,3c-0.8-0.9-2.7-3.1-3.1-3.9c0.8-1.3,2-2.9,2.1-4.1
				c0.1-1.4-0.4-3.2-1-4.5c-0.8,1.1-1.7,3-1.8,4.4c-0.1,0.9,0.2,2.1,0.3,3.2c-0.3-0.8-1.4-3.6-2-5.8c1.1-1.1,2.8-2.3,3.2-3.4
				c0.5-1.3,0.5-3.2,0.2-4.6c-1,0.9-2.5,2.5-2.9,3.8c-0.3,0.9-0.4,2.1-0.6,3.2c-0.3-1.2-0.4-2.4-0.5-3.6c-0.1-0.9,0-1.8,0-2.7
				c1.4-0.7,3.2-1.5,3.9-2.4c0.8-1.1,1.3-2.9,1.4-4.4c-1.2,0.5-3,1.7-3.9,2.8c-0.5,0.7-1,1.9-1.4,2.9c0.1-0.9,0.3-1.8,0.5-2.7
				c0.1-0.3,0.1-0.5,0.2-0.8c0.1-0.3,0.2-0.5,0.3-0.8c0.2-0.5,0.4-1,0.6-1.5c0.1-0.3,0.3-0.5,0.4-0.8c1.5-0.2,3.5-0.2,4.5-0.8
				c1.2-0.8,2.3-2.2,2.9-3.6c-1.3,0.1-3.5,0.5-4.6,1.2c-0.7,0.4-1.5,1.3-2.2,2c0.2-0.3,0.4-0.6,0.6-0.9c1-1.4,2.1-2.6,3.3-3.7
				c1.5,0.1,3.6,0.6,4.7,0.1c1.2-0.5,2.6-1.6,3.5-2.8c-1.3-0.2-3.3-0.2-4.6,0.3c-0.9,0.4-2.1,1.2-3.1,1.9c0.2-0.2,0.4-0.3,0.6-0.5
				c1.5-1.3,3.1-2.4,4.8-3.5c1.1,0.3,2.4,0.3,3.5-0.3c1.2-0.6,2.1-1.6,2.8-2.9c-1.3-0.2-2.8-0.2-4,0.4c-1.1,0.6-2,1.5-2.4,2.6
				c-0.8,0.4-1.6,0.9-2.3,1.3c-0.5,0.3-1.1,0.7-1.6,1.1c0.8-0.8,1.8-1.6,2.3-2.3c0.8-1.1,1.2-3.1,1.3-4.4c-1.3,0.6-2.7,1.6-3.5,2.7
				c-0.7,1-0.7,3.2-1,4.7c-0.1,0.1-0.2,0.2-0.3,0.2c-1.3,1.1-2.6,2.3-3.7,3.6c0.7-1.1,1.7-2.4,2.2-3.5c0.5-1.3,0.5-3.5,0.3-4.8
				c-1.2,0.9-2.4,2.3-2.9,3.6c-0.5,1.2,0,3.5,0.1,5.1c-0.2,0.3-0.4,0.5-0.6,0.8c-0.6,0.8-1.1,1.7-1.6,2.5c0.3-0.8,0.5-1.7,0.5-2.4
				c0.1-1.4-0.6-3.6-1.2-4.8c-0.9,1.2-1.7,3-1.7,4.4c-0.1,1.3,1,3.1,1.6,4.6c0,0,0,0,0,0c-0.1,0.3-0.2,0.5-0.3,0.8
				c-0.1,0.3-0.2,0.5-0.2,0.8c-0.2,0.8-0.4,1.7-0.6,2.6c0-1,0-2-0.2-2.8c-0.3-1.4-1.6-3.4-2.6-4.4c-0.5,1.5-0.7,3.5-0.4,4.9
				c0.3,1.3,1.9,2.9,3,4.2c0,0.7-0.1,1.5,0,2.2c0,0.7,0.1,1.4,0.2,2c-0.3-1-0.7-2-1.1-2.7c-0.8-1.3-2.6-2.6-3.9-3.3
				c0,1.6,0.4,3.5,1.2,4.8c0.7,1.1,2.7,2,4.1,2.9c0.1,0.5,0.3,1.3,0.4,1.8l0,0c0.2,0.9,0.6,2.2,1.2,3.7c-0.5-0.8-1-1.7-1.6-2.3
				c-1-1.1-3.1-2-4.5-2.4c0.3,1.5,1.2,3.3,2.2,4.4c0.9,1,3.2,1.4,4.7,2c0.3,0.7,0.7,1.3,1.1,1.9c0.4,0.6,0.8,1.1,1.2,1.6
				c-0.8-0.7-1.6-1.4-2.3-1.7c-1.3-0.7-3.6-0.9-5-0.8c0.8,1.3,2.2,2.8,3.5,3.5c1.2,0.6,3.4,0.4,5,0.4c0.5,0.3,0.9,0.8,1.4,1.1l0,0
				c0.7,0.6,1.7,1.4,3.1,2.3c-0.9-0.4-1.8-0.8-2.6-1c-1.5-0.3-3.7,0.1-5.1,0.6c1.2,1.1,2.9,2.1,4.3,2.4c1.3,0.3,3.4-0.6,5-1
				c0.6,0.3,1.3,0.7,2,0.9c0.6,0.3,1.3,0.5,1.9,0.7c-1-0.1-2.1-0.2-2.9-0.1c-1.5,0.2-3.5,1.3-4.6,2.2c1.4,0.6,3.4,1.1,4.9,0.9
				c1.3-0.2,3-1.6,4.3-2.5c0.1,0,0.1,0,0.2,0c0.1,0,0.2,0.1,0.3,0.1c0.9,0.2,1.8,0.4,2.6,0.7c0.4,0.1,0.9,0.2,1.3,0.4
				c0.1,0,0.2,0.1,0.3,0.1c0.1,0,0.2,0.1,0.3,0.1c0.2,0.1,0.4,0.2,0.6,0.3c0.8,0.4,1.5,0.9,2.1,1.5c0,0,0.1,0.1,0.1,0.1l0.1-1.3
				C-299.4,67.7-300,67.3-300.7,66.9z"/>
			<path fill="#B2D5EB" d="M-303.6,66.9c0.2-0.1,0.4-0.2,0.6-0.3c0.1,0,0.2-0.1,0.3-0.1c0.1,0,0.2-0.1,0.3-0.1
				c0.4-0.2,0.9-0.3,1.3-0.4c0.4-0.1,0.8-0.2,1.2-0.3l0,0c0,0,0,0,0,0c0.3-0.1,0.7-0.2,1-0.2c0.5-1.4,1-3.4,1.8-4.3
				c1-1,2.7-1.7,4.1-2.1c-0.4,1.3-1.3,3.3-2.3,4.2c-0.7,0.6-1.7,1.2-2.7,1.8c1.2-0.2,4-1,4.8-1.4c0.1-1.5,0-3.5,0.6-4.6
				c0.7-1.2,2.1-2.4,3.4-3.1c0,1.3-0.3,3.5-1,4.7c-0.5,0.8-1.3,1.7-2.1,2.5c0.7-0.4,3.1-2.1,4.8-3.6c-0.4-1.5-1.1-3.3-0.9-4.4
				c0.3-1.4,1.2-3,2.2-4c0.4,1.3,0.8,3.4,0.5,4.8c-0.2,0.9-0.7,2-1.2,3c0.8-0.9,2.7-3.1,3.1-3.9c-0.8-1.3-2-2.9-2.1-4.1
				c-0.1-1.4,0.4-3.2,1-4.5c0.8,1.1,1.7,3,1.8,4.4c0.1,0.9-0.2,2.1-0.3,3.2c0.3-0.8,1.4-3.6,2-5.8c-1.1-1.1-2.8-2.3-3.2-3.4
				c-0.5-1.3-0.5-3.2-0.2-4.6c1,0.9,2.5,2.5,2.9,3.8c0.3,0.9,0.4,2.1,0.6,3.2c0.3-1.2,0.4-2.4,0.5-3.6c0-0.9,0-1.8,0-2.7
				c-1.4-0.7-3.2-1.5-3.9-2.4c-0.8-1.1-1.3-2.9-1.4-4.4c1.2,0.5,3,1.7,3.9,2.8c0.5,0.7,1,1.9,1.4,2.9c-0.1-0.9-0.3-1.8-0.5-2.7
				c-0.1-0.3-0.1-0.5-0.2-0.8c-0.1-0.3-0.2-0.5-0.3-0.8c-0.2-0.5-0.4-1-0.6-1.5c-0.1-0.3-0.3-0.5-0.4-0.8c-1.5-0.2-3.5-0.2-4.5-0.8
				c-1.2-0.8-2.3-2.2-2.9-3.6c1.3,0.1,3.5,0.5,4.6,1.2c0.7,0.4,1.5,1.3,2.2,2c-0.2-0.3-0.4-0.6-0.6-0.9c-1-1.4-2.1-2.6-3.3-3.7
				c-1.5,0.1-3.6,0.6-4.7,0.1c-1.2-0.5-2.6-1.6-3.5-2.8c1.3-0.2,3.3-0.2,4.6,0.3c0.9,0.4,2.1,1.2,3.1,1.9c-0.2-0.2-0.4-0.3-0.6-0.5
				c-1.5-1.3-3.1-2.4-4.8-3.5c-1.1,0.3-2.4,0.3-3.5-0.3c-1.2-0.6-2.1-1.6-2.8-2.9c1.3-0.2,2.8-0.2,4,0.4c1.1,0.6,2,1.5,2.4,2.6
				c0.8,0.4,1.6,0.9,2.3,1.3c0.5,0.3,1.1,0.7,1.6,1.1c-0.8-0.8-1.8-1.6-2.3-2.3c-0.8-1.1-1.2-3.1-1.3-4.4c1.3,0.6,2.7,1.6,3.5,2.7
				c0.7,1,0.7,3.2,1,4.7c0.1,0.1,0.2,0.2,0.3,0.2c1.3,1.1,2.6,2.3,3.7,3.6c-0.7-1.1-1.7-2.4-2.2-3.5c-0.5-1.3-0.5-3.5-0.3-4.8
				c1.2,0.9,2.4,2.3,2.9,3.6c0.5,1.2,0,3.5-0.1,5.1c0.2,0.3,0.4,0.5,0.6,0.8c0.6,0.8,1.1,1.7,1.6,2.5c-0.3-0.8-0.5-1.7-0.5-2.4
				c-0.1-1.4,0.6-3.6,1.2-4.8c0.9,1.2,1.7,3,1.7,4.4c0.1,1.3-1,3.1-1.6,4.6c0,0,0,0,0,0c0.1,0.3,0.2,0.5,0.3,0.8
				c0.1,0.3,0.2,0.5,0.2,0.8c0.2,0.8,0.4,1.7,0.6,2.6c0-1,0-2,0.2-2.8c0.3-1.4,1.6-3.4,2.6-4.4c0.5,1.5,0.7,3.5,0.4,4.9
				c-0.3,1.3-1.9,2.9-3,4.2c0,0.7,0.1,1.5,0,2.2c0,0.7-0.1,1.4-0.2,2c0.3-1,0.7-2,1.1-2.7c0.8-1.3,2.6-2.6,3.9-3.3
				c0,1.6-0.4,3.5-1.2,4.8c-0.7,1.1-2.7,2-4.1,2.9c-0.1,0.5-0.3,1.3-0.4,1.8l0,0c-0.2,0.9-0.6,2.2-1.2,3.7c0.5-0.8,1-1.7,1.6-2.3
				c1-1.1,3.1-2,4.5-2.4c-0.3,1.5-1.2,3.3-2.2,4.4c-0.9,1-3.2,1.4-4.7,2c-0.3,0.7-0.7,1.3-1.1,1.9c-0.4,0.6-0.8,1.1-1.2,1.6
				c0.8-0.7,1.6-1.4,2.3-1.7c1.3-0.7,3.6-0.9,5-0.8c-0.8,1.3-2.2,2.8-3.5,3.5c-1.2,0.6-3.3,0.4-5,0.4c-0.5,0.3-0.9,0.8-1.4,1.1l0,0
				c-0.7,0.6-1.7,1.4-3.1,2.3c0.9-0.4,1.8-0.8,2.6-1c1.5-0.3,3.7,0.1,5.1,0.6c-1.2,1.1-2.9,2.1-4.3,2.4c-1.3,0.3-3.4-0.6-5-1
				c-0.6,0.3-1.3,0.7-2,0.9c-0.6,0.3-1.3,0.5-1.9,0.7c1-0.1,2.1-0.2,2.9-0.1c1.5,0.2,3.5,1.3,4.6,2.2c-1.4,0.6-3.4,1.1-4.9,0.9
				c-1.3-0.2-3-1.6-4.3-2.5c-0.1,0-0.1,0-0.2,0c-0.1,0-0.2,0.1-0.3,0.1c-0.9,0.2-1.8,0.4-2.6,0.7c-0.4,0.1-0.9,0.2-1.3,0.4
				c-0.1,0-0.2,0.1-0.3,0.1c-0.1,0-0.2,0.1-0.3,0.1c-0.2,0.1-0.4,0.2-0.6,0.3c-0.8,0.4-1.5,0.9-2.1,1.5c0,0-0.1,0.1-0.1,0.1
				l-0.1-1.3C-304.9,67.7-304.2,67.3-303.6,66.9z"/>
		</g>
		<g>
			<path fill="#4C9CD0" d="M-302.1,59.3c-8.9,0-16.2-7.2-16.2-16.1c0-8.9,7.2-16.1,16.2-16.1c8.9,0,16.1,7.2,16.1,16.1
				C-286,52.1-293.2,59.3-302.1,59.3z"/>
			<path fill="#66AAD7" d="M-313.6,31.7c-6.3,6.3-6.3,16.5,0,22.8l22.8-22.8C-297,25.5-307.3,25.5-313.6,31.7z"/>
		</g>
	</g>
	<path fill="#2E6186" d="M-302.5,39.3c-15.2,0-30.4,3-44.7,8.9V81c14.3-5.9,29.5-8.9,44.7-8.9c15.2,0,30.4,3,44.7,8.9V48.1
		C-272.1,42.2-287.3,39.3-302.5,39.3z"/>
	<path fill="#517B9A" d="M-302.5,39.3c-15.2,0-30.4,3-44.7,8.9V81c7.7-3.2,15.7-5.5,23.8-7l34-33.9
		C-293.8,39.5-298.1,39.3-302.5,39.3z"/>
</g>
</svg>
