<?xml version="1.0" encoding="utf-8"?>
<!-- Generator: Adobe Illustrator 18.1.1, SVG Export Plug-In . SVG Version: 6.00 Build 0)  -->
<svg version="1.1" id="Layer_1" xmlns="http://www.w3.org/2000/svg" xmlns:xlink="http://www.w3.org/1999/xlink" x="0px" y="0px"
	 viewBox="0 0 175 95.6" enable-background="new 0 0 175 95.6" xml:space="preserve">
<g>
	<polygon opacity="0.2" fill="#231F20" points="-1451,1 -1451,90.1 -1516.2,90.1 -1516.2,18.2 -1499,1 	"/>
	<polygon fill="#C0E0DE" points="-1513.3,92.9 -1513.3,45 -1513.3,21 -1496.1,3.8 -1448.2,3.8 -1448.2,21.6 -1448.2,45 
		-1448.2,92.9 	"/>
	<polygon fill="#FFFFFF" points="-1496.1,21 -1513.3,21 -1496.1,3.8 	"/>
	<polygon fill="#8FC3D5" points="-1513.3,21 -1496.1,21 -1513.3,38.2 	"/>
	<g>
		<defs>
			<polygon id="SVGID_1_" points="-1513.3,92.9 -1513.3,45 -1513.3,21 -1496.1,3.8 -1448.2,3.8 -1448.2,21.6 -1448.2,45 
				-1448.2,92.9 			"/>
		</defs>
		<clipPath id="SVGID_2_">
			<use xlink:href="#SVGID_1_"  overflow="visible"/>
		</clipPath>
		<path clip-path="url(#SVGID_2_)" fill="#8FC3D5" d="M-1435.7,36l-10.6-10.6l-4.4-4.4l-42.7,42.7c0,0,0,0,0,0l0,19.5l19.5,0
			c0,0,0,0,0,0l42.7-42.7L-1435.7,36z"/>
	</g>
	<path fill="#0F3754" d="M-1453,17.3l-42.7,42.6c2.6,2,5.9,2.4,8.1,0.8l39-39L-1453,17.3z"/>
	<path fill="#174F78" d="M-1437.9,32.3l-10.6-10.6l-39,39h0c0,0,0,0,0,0.1c0,0,0,0,0.1-0.1c-1.8,2.4-1.1,6.2,1.6,9
		c2.7,2.7,6.6,3.3,8.9,1.6c0,0,0,0,0,0.1c0,0,0,0,0.1,0v0L-1437.9,32.3z"/>
	<path fill="#0F3754" d="M-1477,71.3c-1.6,2.1-1.2,5.4,0.8,8.1l42.7-42.6l-4.4-4.4L-1477,71.3z"/>
	<path fill="#C0E0DE" d="M-1476.1,79.4c-2.1-2.6-2.4-5.9-0.8-8.1v0c0,0,0,0-0.1,0c0,0,0,0,0-0.1c-2.4,1.7-6.2,1.1-8.9-1.6
		c-2.7-2.7-3.3-6.6-1.6-9c0,0,0,0-0.1,0.1c0,0,0,0,0-0.1h0c-2.1,1.6-5.5,1.2-8.1-0.8l0,19.5L-1476.1,79.4z"/>
	<path fill="#0F3754" d="M-1495.6,69.8l0,9.6l9.6,0c-1.2-1.8-2.7-3.6-4.3-5.2C-1492,72.5-1493.8,71.1-1495.6,69.8z"/>
	
		<rect x="-1451.5" y="13.9" transform="matrix(-0.7069 -0.7073 0.7073 -0.7069 -2484.2881 -995.2833)" fill="#0E303F" width="6.3" height="6.5"/>
	
		<rect x="-1448.3" y="21.4" transform="matrix(-0.7072 -0.707 0.707 -0.7072 -2477.2688 -976.655)" fill="#2C5871" width="15" height="6.5"/>
	
		<rect x="-1436.5" y="28.9" transform="matrix(-0.707 -0.7072 0.7072 -0.707 -2469.4548 -958.8378)" fill="#0E303F" width="6.3" height="6.5"/>
</g>
<g>
	<g>
		<path fill="#338DC9" d="M-896.9,91.1c-0.5,0-0.9,0.4-0.9,0.9c0,0.5,0.4,0.9,0.9,0.9h18.8c0.5,0,0.9-0.4,0.9-0.9
			c0-0.5-0.4-0.9-0.9-0.9H-896.9L-896.9,91.1z"/>
	</g>
</g>
<path fill="#0071BB" d="M-910.9,45c0-13,10.5-23.4,23.4-23.4c13,0,23.4,10.5,23.4,23.4c0,0.8-0.6,11.6-9.4,23
	c-2.6,3.4-2.2,10.3-2.1,10.3c-3.6,0-6.6,0-10.3,0c-1.1,0-2.2,0-3.3,0c-3.6,0-6.7,0-10.3,0c0,0,0.5-6.9-2.1-10.3
	C-910.4,56.6-910.9,45.8-910.9,45z"/>
<path fill="#338DC9" d="M-887.5,78.3c-3.6,0-8.3,0-12,0c0,0,0.5-6.9-2.1-10.3c-8.8-11.4-9.4-22.2-9.4-23c0-13,10.5-23.4,23.4-23.4"
	/>
<g>
	<path fill="#338DC9" d="M-869,45h-2.1c0-9-7.4-16.4-16.4-16.4v-2.1C-877.3,26.6-869,34.9-869,45L-869,45z"/>
</g>
<g>
	<g>
		<g>
			<polygon fill="#FFFFFF" points="-882.4,80.2 -884.4,79.8 -880.4,55.6 -878.4,55.9 -882.4,80.2 			"/>
		</g>
		<g>
			<polygon fill="#FFFFFF" points="-892.6,80.2 -896.6,55.9 -894.6,55.6 -890.6,79.8 -892.6,80.2 			"/>
		</g>
	</g>
	<g>
		<path fill="#FFFFFF" d="M-879.5,59c-0.8,0-1.2-0.8-1.5-1.4c-0.1-0.2-0.3-0.8-0.5-0.8c-0.1,0-0.3,0.5-0.4,0.7
			c-0.2,0.6-0.6,1.5-1.6,1.5c-0.6,0-0.9-0.6-1.3-1.3c-0.1-0.3-0.4-0.7-0.6-0.9c-0.1,0.2-0.4,0.5-0.5,0.7c-0.4,0.7-0.8,1.4-1.5,1.4
			c-0.6,0-1-0.7-1.4-1.4c-0.1-0.2-0.4-0.6-0.5-0.8c-0.2,0.2-0.4,0.6-0.5,0.8c-0.4,0.7-0.8,1.3-1.4,1.3c-0.7,0-1.1-0.7-1.6-1.5
			c-0.1-0.2-0.3-0.6-0.5-0.7c-0.2,0.1-0.3,0.3-0.5,0.8c-0.2,0.6-0.5,1.4-1.4,1.4v-1.1c0.1,0,0.3-0.5,0.4-0.7
			c0.2-0.6,0.6-1.5,1.6-1.5c0.6,0,0.9,0.6,1.3,1.3c0.2,0.3,0.4,0.7,0.6,0.9c0.1-0.2,0.4-0.5,0.5-0.7c0.4-0.7,0.8-1.4,1.5-1.4
			c0.6,0,1,0.7,1.4,1.4c0.1,0.2,0.4,0.6,0.5,0.8c0.2-0.2,0.4-0.6,0.5-0.8c0.4-0.7,0.8-1.3,1.4-1.3c0.7,0,1.1,0.7,1.6,1.5
			c0.1,0.2,0.3,0.6,0.5,0.7c0.2-0.1,0.3-0.3,0.5-0.8c0.2-0.6,0.5-1.4,1.4-1.4c0.8,0,1.2,0.8,1.5,1.4c0.1,0.3,0.3,0.8,0.5,0.8V59
			L-879.5,59z"/>
	</g>
</g>
<path fill="#0071BB" d="M-875.6,78.4v12.3c0,0.8-0.7,1.5-1.5,1.5h-20.8c-0.8,0-1.5-0.7-1.5-1.5V78.4H-875.6z"/>
<g>
	<g>
		<line fill="#338DC9" x1="-875.1" y1="79.5" x2="-899.9" y2="79.5"/>
		<path fill="#338DC9" d="M-875.1,80.7h-24.8c-0.7,0-1.2-0.5-1.2-1.2c0-0.7,0.5-1.2,1.2-1.2h24.8c0.7,0,1.2,0.5,1.2,1.2
			C-873.9,80.2-874.4,80.7-875.1,80.7L-875.1,80.7z"/>
	</g>
	<g>
		<line fill="#338DC9" x1="-875.1" y1="83.5" x2="-899.9" y2="83.5"/>
		<path fill="#338DC9" d="M-875.1,84.7h-24.8c-0.7,0-1.2-0.5-1.2-1.2c0-0.7,0.5-1.2,1.2-1.2h24.8c0.7,0,1.2,0.5,1.2,1.2
			C-873.9,84.2-874.4,84.7-875.1,84.7L-875.1,84.7z"/>
	</g>
	<g>
		<line fill="#338DC9" x1="-875.1" y1="87.5" x2="-899.9" y2="87.5"/>
		<path fill="#338DC9" d="M-875.1,88.8h-24.8c-0.7,0-1.2-0.5-1.2-1.2c0-0.7,0.5-1.2,1.2-1.2h24.8c0.7,0,1.2,0.5,1.2,1.2
			C-873.9,88.2-874.4,88.8-875.1,88.8L-875.1,88.8z"/>
	</g>
</g>
<g>
	<g>
		<path fill="#0071BB" d="M-887.5,13.9c-0.3,0-0.6-0.3-0.6-0.6V0.5c0-0.3,0.3-0.6,0.6-0.6c0.3,0,0.6,0.3,0.6,0.6v12.9
			C-886.9,13.7-887.2,13.9-887.5,13.9L-887.5,13.9z"/>
	</g>
	<g>
		<path fill="#0071BB" d="M-903.9,18.4c-0.2,0-0.4-0.1-0.5-0.3l-6.4-11.2c-0.2-0.3-0.1-0.7,0.2-0.8c0.3-0.2,0.7-0.1,0.8,0.2
			l6.4,11.2c0.2,0.3,0.1,0.7-0.2,0.8C-903.7,18.3-903.8,18.4-903.9,18.4L-903.9,18.4z"/>
	</g>
	<g>
		<path fill="#0071BB" d="M-915.9,30.4c-0.1,0-0.2,0-0.3-0.1l-11.2-6.4c-0.3-0.2-0.4-0.5-0.2-0.8c0.2-0.3,0.5-0.4,0.8-0.2l11.2,6.4
			c0.3,0.2,0.4,0.5,0.2,0.8C-915.5,30.3-915.7,30.4-915.9,30.4L-915.9,30.4z"/>
	</g>
	<g>
		<path fill="#0071BB" d="M-920.3,46.8h-12.9c-0.3,0-0.6-0.3-0.6-0.6c0-0.3,0.3-0.6,0.6-0.6h12.9c0.3,0,0.6,0.3,0.6,0.6
			C-919.7,46.5-920,46.8-920.3,46.8L-920.3,46.8z"/>
	</g>
	<g>
		<path fill="#0071BB" d="M-847.9,69.6c-0.1,0-0.2,0-0.3-0.1l-11.2-6.4c-0.3-0.2-0.4-0.5-0.2-0.8c0.2-0.3,0.5-0.4,0.8-0.2l11.2,6.4
			c0.3,0.2,0.4,0.5,0.2,0.8C-847.5,69.5-847.7,69.6-847.9,69.6L-847.9,69.6z"/>
	</g>
	<g>
		<path fill="#0071BB" d="M-841.8,46.8h-12.9c-0.3,0-0.6-0.3-0.6-0.6s0.3-0.6,0.6-0.6h12.9c0.3,0,0.6,0.3,0.6,0.6
			S-841.4,46.8-841.8,46.8L-841.8,46.8z"/>
	</g>
	<g>
		<path fill="#0071BB" d="M-859.1,30.4c-0.2,0-0.4-0.1-0.5-0.3c-0.2-0.3-0.1-0.7,0.2-0.8l11.2-6.4c0.3-0.2,0.7-0.1,0.8,0.2
			c0.2,0.3,0.1,0.7-0.2,0.8l-11.2,6.4C-858.9,30.3-859,30.4-859.1,30.4L-859.1,30.4z"/>
	</g>
	<g>
		<path fill="#0071BB" d="M-871.1,18.3c-0.1,0-0.2,0-0.3-0.1c-0.3-0.2-0.4-0.5-0.2-0.8l6.4-11.2c0.2-0.3,0.5-0.4,0.8-0.2
			c0.3,0.2,0.4,0.5,0.2,0.8l-6.4,11.2C-870.7,18.2-870.9,18.3-871.1,18.3L-871.1,18.3z"/>
	</g>
	<g>
		<path fill="#0071BB" d="M-887.5,13.9c-0.3,0-0.6-0.3-0.6-0.6V0.5c0-0.3,0.3-0.6,0.6-0.6c0.3,0,0.6,0.3,0.6,0.6v12.9
			C-886.9,13.7-887.2,13.9-887.5,13.9L-887.5,13.9z"/>
	</g>
</g>
<g>
	<g>
		<path fill="#0071BB" d="M-887.5,13.9c-0.3,0-0.6-0.3-0.6-0.6V0.5c0-0.3,0.3-0.6,0.6-0.6c0.3,0,0.6,0.3,0.6,0.6v12.9
			C-886.9,13.7-887.2,13.9-887.5,13.9L-887.5,13.9z"/>
	</g>
	<g>
		<path fill="#0071BB" d="M-871.1,18.4c-0.1,0-0.2,0-0.3-0.1c-0.3-0.2-0.4-0.5-0.2-0.8l6.4-11.2c0.2-0.3,0.5-0.4,0.8-0.2
			c0.3,0.2,0.4,0.5,0.2,0.8l-6.4,11.2C-870.7,18.2-870.9,18.4-871.1,18.4L-871.1,18.4z"/>
	</g>
	<g>
		<path fill="#0071BB" d="M-859.1,30.4c-0.2,0-0.4-0.1-0.5-0.3c-0.2-0.3-0.1-0.7,0.2-0.8l11.2-6.4c0.3-0.2,0.7-0.1,0.8,0.2
			c0.2,0.3,0.1,0.7-0.2,0.8l-11.2,6.4C-858.9,30.3-859,30.4-859.1,30.4L-859.1,30.4z"/>
	</g>
	<g>
		<path fill="#0071BB" d="M-841.8,46.8h-12.9c-0.3,0-0.6-0.3-0.6-0.6c0-0.3,0.3-0.6,0.6-0.6h12.9c0.3,0,0.6,0.3,0.6,0.6
			C-841.2,46.5-841.4,46.8-841.8,46.8L-841.8,46.8z"/>
	</g>
	<g>
		<path fill="#0071BB" d="M-927.1,69.6c-0.2,0-0.4-0.1-0.5-0.3c-0.2-0.3-0.1-0.7,0.2-0.8l11.2-6.4c0.3-0.2,0.7-0.1,0.8,0.2
			c0.2,0.3,0.1,0.7-0.2,0.8l-11.2,6.4C-926.9,69.6-927,69.6-927.1,69.6L-927.1,69.6z"/>
	</g>
	<g>
		<path fill="#0071BB" d="M-920.3,46.8h-12.9c-0.3,0-0.6-0.3-0.6-0.6s0.3-0.6,0.6-0.6h12.9c0.3,0,0.6,0.3,0.6,0.6
			S-920,46.8-920.3,46.8L-920.3,46.8z"/>
	</g>
	<g>
		<path fill="#0071BB" d="M-915.9,30.4c-0.1,0-0.2,0-0.3-0.1l-11.2-6.4c-0.3-0.2-0.4-0.5-0.2-0.8c0.2-0.3,0.5-0.4,0.8-0.2l11.2,6.4
			c0.3,0.2,0.4,0.5,0.2,0.8C-915.5,30.2-915.7,30.4-915.9,30.4L-915.9,30.4z"/>
	</g>
	<g>
		<path fill="#0071BB" d="M-903.9,18.3c-0.2,0-0.4-0.1-0.5-0.3l-6.4-11.2c-0.2-0.3-0.1-0.7,0.2-0.8c0.3-0.2,0.7-0.1,0.8,0.2
			l6.4,11.2c0.2,0.3,0.1,0.7-0.2,0.8C-903.7,18.3-903.8,18.3-903.9,18.3L-903.9,18.3z"/>
	</g>
	<g>
		<path fill="#0071BB" d="M-887.5,13.9c-0.3,0-0.6-0.3-0.6-0.6V0.5c0-0.3,0.3-0.6,0.6-0.6c0.3,0,0.6,0.3,0.6,0.6v12.9
			C-886.9,13.7-887.2,13.9-887.5,13.9L-887.5,13.9z"/>
	</g>
</g>
<g>
	<g>
		<path fill="#338DC9" d="M273.1,91.1c-0.5,0-0.9,0.4-0.9,0.9c0,0.5,0.4,0.9,0.9,0.9h18.8c0.5,0,0.9-0.4,0.9-0.9
			c0-0.5-0.4-0.9-0.9-0.9H273.1L273.1,91.1z"/>
	</g>
</g>
<path fill="#0071BB" d="M259.1,45.1c0-13,10.5-23.4,23.4-23.4c13,0,23.4,10.5,23.4,23.4c0,0.8-0.6,11.6-9.4,23
	c-2.6,3.4-2.2,10.3-2.1,10.3c-3.6,0-6.6,0-10.3,0c-1.1,0-2.2,0-3.3,0c-3.6,0-6.7,0-10.3,0c0,0,0.5-6.9-2.1-10.3
	C259.6,56.6,259.1,45.8,259.1,45.1z"/>
<path fill="#338DC9" d="M282.5,78.4c-3.6,0-8.3,0-12,0c0,0,0.5-6.9-2.1-10.3c-8.8-11.4-9.4-22.2-9.4-23c0-13,10.5-23.4,23.4-23.4"/>
<g>
	<path fill="#338DC9" d="M301,45h-2.1c0-9-7.4-16.4-16.4-16.4v-2.1C292.7,26.6,301,34.9,301,45L301,45z"/>
</g>
<g>
	<g>
		<g>
			<polygon fill="#FFFFFF" points="287.6,80.2 285.6,79.9 289.6,55.6 291.6,56 287.6,80.2 			"/>
		</g>
		<g>
			<polygon fill="#FFFFFF" points="277.4,80.2 273.4,56 275.4,55.6 279.4,79.9 277.4,80.2 			"/>
		</g>
	</g>
	<g>
		<path fill="#FFFFFF" d="M290.5,59c-0.8,0-1.2-0.8-1.5-1.4c-0.1-0.2-0.3-0.8-0.5-0.8c-0.1,0-0.3,0.5-0.4,0.7
			c-0.2,0.6-0.6,1.5-1.6,1.5c-0.6,0-0.9-0.6-1.3-1.3c-0.1-0.3-0.4-0.7-0.6-0.9c-0.1,0.2-0.4,0.5-0.5,0.7c-0.4,0.7-0.8,1.4-1.5,1.4
			c-0.6,0-1-0.7-1.4-1.4c-0.1-0.2-0.4-0.6-0.5-0.8c-0.2,0.2-0.4,0.6-0.5,0.8c-0.4,0.7-0.8,1.3-1.4,1.3c-0.7,0-1.1-0.7-1.6-1.5
			c-0.1-0.2-0.3-0.6-0.5-0.7c-0.2,0.1-0.3,0.3-0.5,0.8c-0.2,0.6-0.5,1.4-1.4,1.4v-1.1c0.1,0,0.3-0.5,0.4-0.7
			c0.2-0.6,0.6-1.5,1.6-1.5c0.6,0,0.9,0.6,1.3,1.3c0.2,0.3,0.4,0.7,0.6,0.9c0.1-0.2,0.4-0.5,0.5-0.7c0.4-0.7,0.8-1.4,1.5-1.4
			c0.6,0,1,0.7,1.4,1.4c0.1,0.2,0.4,0.6,0.5,0.8c0.2-0.2,0.4-0.6,0.5-0.8c0.4-0.7,0.8-1.3,1.4-1.3c0.7,0,1.1,0.7,1.6,1.5
			c0.1,0.2,0.3,0.6,0.5,0.7c0.2-0.1,0.3-0.3,0.5-0.8c0.2-0.6,0.5-1.4,1.4-1.4c0.8,0,1.2,0.8,1.5,1.4c0.1,0.3,0.3,0.8,0.5,0.8V59
			L290.5,59z"/>
	</g>
</g>
<path fill="#0071BB" d="M294.4,78.4v12.3c0,0.8-0.7,1.5-1.5,1.5h-20.8c-0.8,0-1.5-0.7-1.5-1.5V78.4H294.4z"/>
<g>
	<g>
		<line fill="#338DC9" x1="294.9" y1="79.6" x2="270.1" y2="79.6"/>
		<path fill="#338DC9" d="M294.9,80.8h-24.8c-0.7,0-1.2-0.5-1.2-1.2c0-0.7,0.5-1.2,1.2-1.2h24.8c0.7,0,1.2,0.5,1.2,1.2
			C296.1,80.2,295.6,80.8,294.9,80.8L294.9,80.8z"/>
	</g>
	<g>
		<line fill="#338DC9" x1="294.9" y1="83.6" x2="270.1" y2="83.6"/>
		<path fill="#338DC9" d="M294.9,84.8h-24.8c-0.7,0-1.2-0.5-1.2-1.2c0-0.7,0.5-1.2,1.2-1.2h24.8c0.7,0,1.2,0.5,1.2,1.2
			C296.1,84.2,295.6,84.8,294.9,84.8L294.9,84.8z"/>
	</g>
	<g>
		<line fill="#338DC9" x1="294.9" y1="87.6" x2="270.1" y2="87.6"/>
		<path fill="#338DC9" d="M294.9,88.8h-24.8c-0.7,0-1.2-0.5-1.2-1.2c0-0.7,0.5-1.2,1.2-1.2h24.8c0.7,0,1.2,0.5,1.2,1.2
			C296.1,88.2,295.6,88.8,294.9,88.8L294.9,88.8z"/>
	</g>
</g>
<g>
	<g>
		<path fill="#0071BB" d="M282.5,14c-0.3,0-0.6-0.3-0.6-0.6V0.5c0-0.3,0.3-0.6,0.6-0.6c0.3,0,0.6,0.3,0.6,0.6v12.9
			C283.1,13.7,282.8,14,282.5,14L282.5,14z"/>
	</g>
	<g>
		<path fill="#0071BB" d="M266.1,18.4c-0.2,0-0.4-0.1-0.5-0.3l-6.4-11.2c-0.2-0.3-0.1-0.7,0.2-0.8c0.3-0.2,0.7-0.1,0.8,0.2l6.4,11.2
			c0.2,0.3,0.1,0.7-0.2,0.8C266.3,18.3,266.2,18.4,266.1,18.4L266.1,18.4z"/>
	</g>
	<g>
		<path fill="#0071BB" d="M254.1,30.4c-0.1,0-0.2,0-0.3-0.1l-11.2-6.4c-0.3-0.2-0.4-0.5-0.2-0.8c0.2-0.3,0.5-0.4,0.8-0.2l11.2,6.4
			c0.3,0.2,0.4,0.5,0.2,0.8C254.5,30.3,254.3,30.4,254.1,30.4L254.1,30.4z"/>
	</g>
	<g>
		<path fill="#0071BB" d="M249.7,46.8h-12.9c-0.3,0-0.6-0.3-0.6-0.6c0-0.3,0.3-0.6,0.6-0.6h12.9c0.3,0,0.6,0.3,0.6,0.6
			C250.3,46.5,250,46.8,249.7,46.8L249.7,46.8z"/>
	</g>
	<g>
		<path fill="#0071BB" d="M322.1,69.6c-0.1,0-0.2,0-0.3-0.1l-11.2-6.4c-0.3-0.2-0.4-0.5-0.2-0.8c0.2-0.3,0.5-0.4,0.8-0.2l11.2,6.4
			c0.3,0.2,0.4,0.5,0.2,0.8C322.5,69.5,322.3,69.6,322.1,69.6L322.1,69.6z"/>
	</g>
	<g>
		<path fill="#0071BB" d="M328.2,46.8h-12.9c-0.3,0-0.6-0.3-0.6-0.6c0-0.3,0.3-0.6,0.6-0.6h12.9c0.3,0,0.6,0.3,0.6,0.6
			C328.8,46.5,328.6,46.8,328.2,46.8L328.2,46.8z"/>
	</g>
	<g>
		<path fill="#0071BB" d="M310.9,30.4c-0.2,0-0.4-0.1-0.5-0.3c-0.2-0.3-0.1-0.7,0.2-0.8l11.2-6.4c0.3-0.2,0.7-0.1,0.8,0.2
			c0.2,0.3,0.1,0.7-0.2,0.8l-11.2,6.4C311.1,30.3,311,30.4,310.9,30.4L310.9,30.4z"/>
	</g>
	<g>
		<path fill="#0071BB" d="M298.9,18.4c-0.1,0-0.2,0-0.3-0.1c-0.3-0.2-0.4-0.5-0.2-0.8l6.4-11.2c0.2-0.3,0.5-0.4,0.8-0.2
			c0.3,0.2,0.4,0.5,0.2,0.8l-6.4,11.2C299.3,18.3,299.1,18.4,298.9,18.4L298.9,18.4z"/>
	</g>
	<g>
		<path fill="#0071BB" d="M282.5,14c-0.3,0-0.6-0.3-0.6-0.6V0.5c0-0.3,0.3-0.6,0.6-0.6c0.3,0,0.6,0.3,0.6,0.6v12.9
			C283.1,13.7,282.8,14,282.5,14L282.5,14z"/>
	</g>
</g>
<g>
	<g>
		<path fill="#0071BB" d="M282.5,14c-0.3,0-0.6-0.3-0.6-0.6V0.5c0-0.3,0.3-0.6,0.6-0.6c0.3,0,0.6,0.3,0.6,0.6v12.9
			C283.1,13.7,282.8,14,282.5,14L282.5,14z"/>
	</g>
	<g>
		<path fill="#0071BB" d="M298.9,18.4c-0.1,0-0.2,0-0.3-0.1c-0.3-0.2-0.4-0.5-0.2-0.8l6.4-11.2c0.2-0.3,0.5-0.4,0.8-0.2
			c0.3,0.2,0.4,0.5,0.2,0.8l-6.4,11.2C299.3,18.3,299.1,18.4,298.9,18.4L298.9,18.4z"/>
	</g>
	<g>
		<path fill="#0071BB" d="M310.9,30.4c-0.2,0-0.4-0.1-0.5-0.3c-0.2-0.3-0.1-0.7,0.2-0.8l11.2-6.4c0.3-0.2,0.7-0.1,0.8,0.2
			c0.2,0.3,0.1,0.7-0.2,0.8l-11.2,6.4C311.1,30.4,311,30.4,310.9,30.4L310.9,30.4z"/>
	</g>
	<g>
		<path fill="#0071BB" d="M328.2,46.8h-12.9c-0.3,0-0.6-0.3-0.6-0.6c0-0.3,0.3-0.6,0.6-0.6h12.9c0.3,0,0.6,0.3,0.6,0.6
			C328.8,46.5,328.6,46.8,328.2,46.8L328.2,46.8z"/>
	</g>
	<g>
		<path fill="#0071BB" d="M242.9,69.6c-0.2,0-0.4-0.1-0.5-0.3c-0.2-0.3-0.1-0.7,0.2-0.8l11.2-6.4c0.3-0.2,0.7-0.1,0.8,0.2
			c0.2,0.3,0.1,0.7-0.2,0.8l-11.2,6.4C243.1,69.6,243,69.6,242.9,69.6L242.9,69.6z"/>
	</g>
	<g>
		<path fill="#0071BB" d="M249.7,46.8h-12.9c-0.3,0-0.6-0.3-0.6-0.6c0-0.3,0.3-0.6,0.6-0.6h12.9c0.3,0,0.6,0.3,0.6,0.6
			C250.3,46.5,250,46.8,249.7,46.8L249.7,46.8z"/>
	</g>
	<g>
		<path fill="#0071BB" d="M254.1,30.4c-0.1,0-0.2,0-0.3-0.1l-11.2-6.4c-0.3-0.2-0.4-0.5-0.2-0.8c0.2-0.3,0.5-0.4,0.8-0.2l11.2,6.4
			c0.3,0.2,0.4,0.5,0.2,0.8C254.5,30.3,254.3,30.4,254.1,30.4L254.1,30.4z"/>
	</g>
	<g>
		<path fill="#0071BB" d="M266.1,18.4c-0.2,0-0.4-0.1-0.5-0.3l-6.4-11.2c-0.2-0.3-0.1-0.7,0.2-0.8c0.3-0.2,0.7-0.1,0.8,0.2l6.4,11.2
			c0.2,0.3,0.1,0.7-0.2,0.8C266.3,18.3,266.2,18.4,266.1,18.4L266.1,18.4z"/>
	</g>
	<g>
		<path fill="#0071BB" d="M282.5,14c-0.3,0-0.6-0.3-0.6-0.6V0.5c0-0.3,0.3-0.6,0.6-0.6c0.3,0,0.6,0.3,0.6,0.6v12.9
			C283.1,13.7,282.8,14,282.5,14L282.5,14z"/>
	</g>
</g>
<g>
	<g>
		<g>
			<path fill="#0072BC" d="M-1228.3,13.4h-9.6L-1248.3,0h-33.3l-10.5,13.4h-34.6c-4.1,0-7.4,3.3-7.4,7.4v64.4c0,4.1,3.3,7.4,7.4,7.4
				h98.5c4.1,0,7.4-3.3,7.4-7.4V20.7C-1220.9,16.7-1224.2,13.4-1228.3,13.4z"/>
			<path fill="#FFFFFF" d="M-1238.6,52.9c0,14.5-11.8,26.3-26.3,26.3c-14.6,0-26.3-11.8-26.3-26.3c0-14.6,11.8-26.4,26.3-26.4
				C-1250.4,26.6-1238.6,38.4-1238.6,52.9z"/>
			<path fill="#0E303F" d="M-1242.2,52.9c0,12.6-10.2,22.8-22.8,22.8c-12.6,0-22.8-10.2-22.8-22.8c0-12.6,10.2-22.8,22.8-22.8
				C-1252.4,30.1-1242.2,40.3-1242.2,52.9z"/>
			<path fill="#80B8DD" d="M-1248,52.9c0,9.3-7.6,16.9-16.9,16.9c-9.4,0-16.9-7.6-16.9-16.9c0-9.4,7.6-16.9,16.9-16.9
				C-1255.6,36-1248,43.6-1248,52.9z"/>
			<path fill="#FFFFFF" d="M-1264.1,46c0,3.3-2.7,6-6,6c-3.3,0-6-2.7-6-6c0-3.3,2.7-6,6-6C-1266.8,40-1264.1,42.7-1264.1,46z"/>
			<path fill="#FFFFFF" d="M-1272.9,55.4c0,1.9-1.5,3.4-3.4,3.4c-1.9,0-3.4-1.5-3.4-3.4c0-1.9,1.5-3.4,3.4-3.4
				C-1274.4,52-1272.9,53.5-1272.9,55.4z"/>
			<path fill="#175079" d="M-1324.1,18.4c-2.8,0-5.3-1.6-6.5-3.9c-2.1,1.3-3.5,3.6-3.5,6.3v64.4c0,4.1,3.3,7.4,7.4,7.4h20.6V18.4
				H-1324.1z"/>
			<path fill="#175079" d="M-1306.1,13.2c0,1.2-1,2.1-2.1,2.1h-14.4c-1.2,0-2.1-1-2.1-2.1v-1.1c0-1.2,1-2.1,2.1-2.1h14.4
				c1.2,0,2.1,1,2.1,2.1V13.2z"/>
			<path fill="#FFFFFF" d="M-1249.2,9.2c0,1.2-1,2.2-2.2,2.2h-27.6c-1.2,0-2.2-1-2.2-2.2V4.8c0-1.2,1-2.2,2.2-2.2h27.6
				c1.2,0,2.2,1,2.2,2.2V9.2z"/>
		</g>
	</g>
</g>
<g>
	<path fill="#0071BB" d="M-665.7,69.3c-4.5,3.4-6.7,7.4-6.7,12c0,3.5,1.3,6.3,4,8.5c2.7,2.1,5.8,3.2,9.5,3.2c2.9,0,6.2-0.8,9.8-2.4
		c1.7-0.7,3.5-1.6,5.3-2.7v-3.1c-0.8,0.5-1.6,0.9-2.4,1.3c-2.8,1.4-5.2,2.1-7.3,2.1c-2.3,0-4.3-0.9-5.7-2.6c-1.5-1.7-2.2-4-2.2-6.8
		c0-7.1,5.7-12.9,17.2-17.6l0.4-0.2v-3.1l-3.5,1.4C-655,62.6-661.2,65.9-665.7,69.3z M-648.1,34.8c-7.6,0-13.2,1.4-16.8,4.4
		c-3.6,2.9-5.4,5.6-5.4,8.1c0,2.6,1.3,3.9,4.1,3.9c3,0,4.9-2.3,5.6-6.8c0.8-4.4,4.5-6.6,11.1-6.6c2.2,0,4.1,0.3,5.7,0.9V35
		C-645.1,34.9-646.5,34.8-648.1,34.8z"/>
	<path fill="#0071BB" d="M-723.3,28.5V0h-1.2l-26.2,62.6c-1.9,4.5-3,7.1-3.2,7.7c-2.8,7-5.1,11.7-7.1,13.9c-2,2.2-4.9,3.6-8.9,4.2
		v3.1h26.8v-3.1c-2.9,0-5.2-0.7-7.1-2.1c-1.8-1.4-2.8-3.5-2.8-6.2c0-2.5,1.7-7.9,5.2-16.2l2.3-5.7h22.1v-3h-20.8l15.9-38.5
		L-723.3,28.5z"/>
	<path fill="#175079" d="M-676.8,88.5v3.1h-35.5v-3.1c4.3,0,7.3-0.3,8.8-1c1.5-0.6,2.3-1.9,2.3-3.8c0-1-1-3.9-3.1-8.7l-6.9-16.7
		h-12.2v-3h11.1l-11.1-26.7V0h1.4l30.2,71.7l4.1,9.4c0.9,2.1,2.2,3.8,3.8,5C-682.3,87.4-679.9,88.2-676.8,88.5z"/>
	<path fill="#175079" d="M-615.1,81.5c-0.4,7.6-4.1,11.4-11.2,11.4c-3,0-5.4-0.8-7.2-2.4c-1.8-1.6-2.9-4-3.4-7.1
		c-2.4,1.7-4.7,3.2-6.8,4.4v-3.1c2.1-1.3,4.4-2.9,6.8-4.9V58.2l-6.8,2.8v-3.1l6.8-2.8v-2.7c0-3.8-0.2-6.5-0.7-8.2s-1.8-3.2-3.8-4.5
		c-0.7-0.5-1.5-0.8-2.3-1.1V35c3.6,0.4,6.5,1.2,8.8,2.5c3.1,1.8,5.2,3.8,6.2,6.1c1,2.3,1.5,5.7,1.5,10.4v22c0,5.2,0.3,8.5,0.8,9.9
		c0.5,1.5,1.7,2.2,3.5,2.2c2.9,0,4.8-2.2,5.5-6.5H-615.1z"/>
</g>
<g>
	<g>
		<path fill="#0072BC" d="M-1101.5,24.4c-21,0-37.9,13.4-37.9,29.9c0,11.9,8.9,22.2,21.7,27c-0.3,0.5-0.5,1.1-0.8,1.6
			c-2.5,4.2-6.2,7.4-10.5,9.5c9.7,0.7,18.6-2.2,24.6-8.3c1,0.1,2,0.1,3,0.1c20.9,0,37.9-13.4,37.9-29.9
			C-1063.6,37.8-1080.5,24.4-1101.5,24.4z"/>
		<path fill="#175079" d="M-1075.4,76c-23.5-0.5-42.3-15.7-42.3-34.3c0-5.8,1.8-11.2,5-16c3.5-0.9,7.3-1.3,11.1-1.3
			c20.9,0,37.9,13.4,37.9,29.9C-1063.6,62.9-1068.1,70.6-1075.4,76z"/>
		<path fill="#99C6E4" d="M-1069.1-0.1c24,0,43.5,15.4,43.5,34.3c0,13.7-10.2,25.5-24.9,31c0.3,0.6,0.5,1.2,0.9,1.8
			c2.9,4.8,7.1,8.5,12.1,10.9c-11.1,0.8-21.4-2.5-28.2-9.5c-1.1,0.1-2.3,0.1-3.4,0.1c-24,0-43.5-15.4-43.5-34.3
			S-1093.1-0.1-1069.1-0.1z"/>
		<path fill="#CCE3F1" d="M-1025.6,34.3c-0.1,13.6-10.2,25.4-24.9,30.9c0.3,0.6,0.5,1.2,0.9,1.8c2.9,4.8,7.1,8.5,12.1,10.9
			c-11.1,0.8-21.4-2.5-28.2-9.5c-1.1,0.1-2.3,0.1-3.4,0.1c-24,0-43.4-15.3-43.5-34.2H-1025.6z"/>
		<g>
			<g>
				<path fill="#1980C2" d="M-1056.6,34.8c0,3.4,2.7,6.1,6.1,6.1c3.4,0,6.1-2.7,6.1-6.1c0-3.4-2.7-6.1-6.1-6.1
					C-1053.9,28.7-1056.6,31.5-1056.6,34.8z"/>
				<path fill="#1980C2" d="M-1075.3,34.8c0,3.4,2.7,6.1,6.1,6.1c3.4,0,6.1-2.7,6.1-6.1c0-3.4-2.7-6.1-6.1-6.1
					C-1072.6,28.7-1075.3,31.5-1075.3,34.8z"/>
				<path fill="#1980C2" d="M-1094.1,34.8c0,3.4,2.7,6.1,6.1,6.1c3.4,0,6.1-2.7,6.1-6.1c0-3.4-2.7-6.1-6.1-6.1
					C-1091.3,28.7-1094.1,31.5-1094.1,34.8z"/>
			</g>
			<g>
				<path fill="#0072BC" d="M-1044.4,34.3h-12.1c0.3-3.1,2.9-5.6,6.1-5.6C-1047.3,28.7-1044.7,31.2-1044.4,34.3z"/>
				<path fill="#0072BC" d="M-1063.2,34.3h-12.1c0.3-3.1,2.9-5.6,6.1-5.6C-1066,28.7-1063.4,31.2-1063.2,34.3z"/>
				<path fill="#0072BC" d="M-1081.9,34.3h-12.1c0.3-3.1,2.9-5.6,6.1-5.6C-1084.8,28.7-1082.2,31.2-1081.9,34.3z"/>
			</g>
		</g>
	</g>
</g>
<path fill="#B06E59" d="M-158,85.1c-0.1-0.2-0.2-0.5-0.3-0.7C-158.1,84.6-158.1,84.8-158,85.1z"/>
<g>
	<g>
		<g>
			<g>
				<path fill="#30363D" d="M-365.4,87.2c-0.9,0-1.7-0.3-2.3-1c-0.6-0.6-1-1.4-1-2.3l0-80.6c0-0.9,0.3-1.7,1-2.3
					c0.6-0.6,1.4-1,2.3-1h127.5c0.9,0,1.7,0.3,2.3,1c0.6,0.6,1,1.4,1,2.3v80.6c0,0.9-0.3,1.7-1,2.3c-0.6,0.6-1.4,1-2.3,1H-365.4z"/>
				<path fill="#30363D" d="M-235.5,1c-0.6-0.6-1.5-1-2.3-1h-127.5c-0.9,0-1.7,0.3-2.3,1c-0.6,0.6-1,1.5-1,2.3l0,80.6
					c0,0.9,0.3,1.7,1,2.3c0.6,0.6,1.5,1,2.3,1h127.5c0.9,0,1.7-0.3,2.3-1c0.6-0.6,1-1.5,1-2.3V3.3C-234.6,2.4-234.9,1.6-235.5,1z
					 M-234.7,83.9c0,0.8-0.3,1.6-0.9,2.2c-0.6,0.6-1.4,0.9-2.2,0.9h-127.5c-0.8,0-1.6-0.3-2.2-0.9c-0.6-0.6-0.9-1.4-0.9-2.2l0-80.6
					c0-0.8,0.3-1.6,0.9-2.2c0.6-0.6,1.4-0.9,2.2-0.9h127.5c0.8,0,1.6,0.3,2.2,0.9c0.6,0.6,0.9,1.4,0.9,2.2V83.9z"/>
			</g>
		</g>
	</g>
	<g>
		<g>
			<rect x="-362.8" y="5.9" fill="#FFFFFF" width="122.4" height="80.6"/>
		</g>
	</g>
	<path fill="#565E6A" d="M-218.3,84.3c0-0.4-1.6-0.7-2-0.7h-6h-1H-383c-0.4,0-2,0.2-2,0.7v5.9h0c2.2,2.7,3.9,2.1,5.1,2.3h12.2l1.8,0
		v0l64.2,0l66,0h12.2c1.1-0.1,2.9,0.4,5.1-2.3h0c0-0.1,0-0.1,0-0.2L-218.3,84.3L-218.3,84.3z"/>
	<g>
		<rect x="-360.1" y="22.1" fill="#0072BC" width="35.7" height="18.6"/>
		<rect x="-319.9" y="22.1" fill="#174F78" width="35.7" height="18.6"/>
		<rect x="-279.7" y="22.1" fill="#8FC1E1" width="35.7" height="18.6"/>
		<rect x="-360.1" y="46" fill="#0072BC" width="35.7" height="4"/>
		<rect x="-319.9" y="46" fill="#174F78" width="35.7" height="4"/>
		<rect x="-279.7" y="46" fill="#8FC1E1" width="35.7" height="4"/>
		<g>
			<rect x="-350.2" y="10.9" fill="#CDD5D7" width="23.8" height="2.6"/>
			<circle fill="#CDD5D7" cx="-356.7" cy="12.2" r="3.4"/>
		</g>
		<rect x="-255.9" y="11.7" fill="#CDD5D7" width="11.8" height="1.1"/>
		<rect x="-269.1" y="11.7" fill="#CDD5D7" width="11.8" height="1.1"/>
		<rect x="-282.4" y="11.7" fill="#CDD5D7" width="11.8" height="1.1"/>
		<rect x="-295.6" y="11.7" fill="#CDD5D7" width="11.8" height="1.1"/>
		<rect x="-308.9" y="11.7" fill="#CDD5D7" width="11.8" height="1.1"/>
		<g>
			<rect x="-360.1" y="60.3" fill="#CDD5D7" width="35.7" height="1"/>
			<rect x="-360.1" y="63.9" fill="#CDD5D7" width="35.7" height="1"/>
			<rect x="-360.1" y="67.6" fill="#CDD5D7" width="35.7" height="1"/>
			<rect x="-360.1" y="71.2" fill="#CDD5D7" width="35.7" height="1"/>
			<rect x="-360.1" y="74.8" fill="#CDD5D7" width="25.5" height="1"/>
			<rect x="-360.1" y="54.2" fill="#CDD5D7" width="23.8" height="2.6"/>
		</g>
		<g>
			<rect x="-319.9" y="60.3" fill="#CDD5D7" width="35.7" height="1"/>
			<rect x="-319.9" y="63.9" fill="#CDD5D7" width="35.7" height="1"/>
			<rect x="-319.9" y="67.6" fill="#CDD5D7" width="35.7" height="1"/>
			<rect x="-319.9" y="71.2" fill="#CDD5D7" width="35.7" height="1"/>
			<rect x="-319.9" y="74.8" fill="#CDD5D7" width="25.5" height="1"/>
			<rect x="-319.9" y="54.2" fill="#CDD5D7" width="23.8" height="2.6"/>
		</g>
		<g>
			<rect x="-279.7" y="60.3" fill="#CDD5D7" width="35.7" height="1"/>
			<rect x="-279.7" y="63.9" fill="#CDD5D7" width="35.7" height="1"/>
			<rect x="-279.7" y="67.6" fill="#CDD5D7" width="35.7" height="1"/>
			<rect x="-279.7" y="71.2" fill="#CDD5D7" width="35.7" height="1"/>
			<rect x="-279.7" y="74.8" fill="#CDD5D7" width="25.5" height="1"/>
			<rect x="-279.7" y="54.2" fill="#CDD5D7" width="23.8" height="2.6"/>
		</g>
	</g>
	<g>
		<g>
			<g>
				<path fill="#DAE1DB" d="M-230.1,87.2c0,0.1-0.1,0.2-0.2,0.2h-4.9c-0.1,0-0.2-0.1-0.2-0.2c0-0.1,0.1-0.2,0.2-0.2h4.9
					C-230.2,87-230.1,87.1-230.1,87.2z"/>
			</g>
		</g>
		<g>
			<g>
				<path fill="#DAE1DB" d="M-225.2,86.5c0.4,0,0.7,0.3,0.7,0.7c0,0.4-0.3,0.7-0.7,0.7c-0.4,0-0.7-0.3-0.7-0.7
					C-225.9,86.8-225.5,86.5-225.2,86.5z"/>
			</g>
			<g>
				<path fill="#DAE1DB" d="M-227.3,86.5c0.4,0,0.7,0.3,0.7,0.7c0,0.4-0.3,0.7-0.7,0.7s-0.7-0.3-0.7-0.7
					C-228,86.8-227.6,86.5-227.3,86.5z"/>
			</g>
		</g>
	</g>
	<g>
		<g>
			<path fill="#DAE1DB" d="M-379.3,88.2c0,0.1-0.1,0.2-0.2,0.2h0c-0.1,0-0.2-0.1-0.2-0.2v-2c0-0.1,0.1-0.2,0.2-0.2h0
				c0.1,0,0.2,0.1,0.2,0.2V88.2z"/>
		</g>
		<g>
			<path fill="#DAE1DB" d="M-378.2,88.2c0,0.1-0.1,0.2-0.2,0.2h0c-0.1,0-0.2-0.1-0.2-0.2v-2c0-0.1,0.1-0.2,0.2-0.2h0
				c0.1,0,0.2,0.1,0.2,0.2V88.2z"/>
		</g>
		<g>
			<path fill="#DAE1DB" d="M-377.1,88.2c0,0.1-0.1,0.2-0.2,0.2h0c-0.1,0-0.2-0.1-0.2-0.2v-2c0-0.1,0.1-0.2,0.2-0.2h0
				c0.1,0,0.2,0.1,0.2,0.2V88.2z"/>
		</g>
		<g>
			<path fill="#DAE1DB" d="M-375.9,88.2c0,0.1-0.1,0.2-0.2,0.2h0c-0.1,0-0.2-0.1-0.2-0.2v-2c0-0.1,0.1-0.2,0.2-0.2h0
				c0.1,0,0.2,0.1,0.2,0.2V88.2z"/>
		</g>
	</g>
</g>
<path fill="#B06E59" d="M-154.3,84.7c-0.1-0.2-0.2-0.5-0.3-0.7C-154.5,84.2-154.4,84.4-154.3,84.7z"/>
<g>
	<path fill="#B06E59" d="M-75.5,1.1c0.5,0.1,1.1,0.2,1.6,0.3C-74.4,1.3-75,1.2-75.5,1.1z"/>
	<path fill="#B06E59" d="M-72.8,1.7c0.2,0.1,0.5,0.2,0.7,0.3C-72.3,1.9-72.6,1.8-72.8,1.7z"/>
	<path fill="#B06E59" d="M-73.9,1.4c0.3,0.1,0.6,0.2,0.9,0.3C-73.3,1.6-73.6,1.5-73.9,1.4z"/>
	<path fill="#2E6186" d="M-62.9,9.8c-0.5-2-1.4-3.8-2.9-5.2C-67.2,3.2-69,2.2-71,1.7c-4.1-0.9-8.3-1.4-12.7-1.4
		c-0.9,0-1.9,0-2.8,0.1c2.7,1.1,5.2,2.4,7.7,3.9c5.1,3.1,9.6,6.9,13.5,11.4c-0.7,3.1-1.9,6.4-3.3,9.7c-5.1-7.5-11.9-13.7-19.8-18.1
		c-3.6-2-7.4-3.6-11.4-4.8c-0.2,0-0.4,0.1-0.5,0.1c-12.1,3.3-23.3,9.7-32.2,18.7c-6.3,6.3-11.4,13.7-15.1,22c0,0,0,0,0,0.1
		c3.1,2,5.9,4.3,8.7,6.7c9,8.1,16.1,18.3,20.4,29.9c-4.6,2.8-9.1,5.1-13.5,6.8c-3.2-8.5-8-16.3-13.9-23c-2-2.2-4-4.3-6.2-6.3
		c-1.8,8.7-1.8,17.5,0.1,25.5c0.5,2,1.4,3.8,2.9,5.2c1.4,1.4,3.2,2.4,5.2,2.9c4.1,0.9,8.3,1.4,12.7,1.4c0,0,0,0,0,0
		c17.5,0,35.8-7.8,48.9-20.9C-65.8,54.7-58.1,30.5-62.9,9.8z"/>
	<path fill="#5B1E10" d="M-145.9,63.7c1.8-4.5,4.2-9.1,6.9-13.7c4.2-6.9,9.4-13.6,15.5-19.7c10.6-10.6,23.3-18.6,35.1-23.1
		c3.3-1.3,6.5-2.2,9.7-2.9c3.3-0.7,6.5-1.2,9.5-1.2c0,0,0.1,0,0.1,0c0.6,0,1.2,0.1,1.7,0.2c-1.1-0.7-2.3-1.3-3.6-1.6
		c-1.1-0.2-2.1-0.5-3.2-0.6c-1.7,0.2-3.4,0.5-5.1,0.9c-3.2,0.7-6.6,1.7-10,3c-12.8,4.9-25.5,13.3-35.9,23.6
		c-6,6-11.4,12.8-15.8,20.1c-2.8,4.6-5.2,9.3-7.1,14c-2.4,5.9-4,11.6-4.6,16.9c0.2,1.1,0.4,2.1,0.6,3.2c0.3,1.3,0.8,2.5,1.6,3.6
		c-0.2-0.6-0.3-1.2-0.2-1.9C-150.6,78.4-149,71.2-145.9,63.7z"/>
	<path fill="#0072BC" d="M-62.9,9.8c-0.3-1.3-0.8-2.5-1.6-3.6c0.2,0.6,0.3,1.2,0.2,1.9c0,2.5-0.4,5-1,7.7c-0.7,3.1-1.9,6.4-3.3,9.7
		C-73.7,36.9-82.9,49-93.9,60c-7.9,7.9-16.3,14.8-24.7,20c-4.6,2.8-9.1,5.1-13.5,6.8c-4.8,1.8-9.4,2.8-13.7,2.9c0,0-0.1,0-0.1,0
		c-0.6,0-1.2-0.1-1.7-0.2c1.1,0.7,2.3,1.3,3.6,1.6c1,0.2,2,0.4,3,0.6c3.1-0.5,6.4-1.3,9.9-2.6c4.4-1.7,9.1-4,13.9-7
		c8.2-5.1,16.9-12.1,25.1-20.3c11.8-11.8,20.7-24,25.7-35.3c1.6-3.5,2.7-6.9,3.5-10.1c0.3-1.2,0.5-2.3,0.7-3.5
		C-62.5,11.8-62.7,10.8-62.9,9.8z"/>
	<path fill="#99C6E4" d="M-78.8,4.3c-2.4-1.5-5-2.8-7.7-3.9c-0.2,0-0.5,0-0.7,0c-4.2,0.2-8.4,0.9-12.7,2c4,1.2,7.8,2.8,11.4,4.8
		c7.9,4.4,14.7,10.6,19.8,18.1c1.5-3.3,2.6-6.5,3.3-9.7C-69.2,11.3-73.7,7.4-78.8,4.3z"/>
	<path fill="#99C6E4" d="M-139,50c-2.7-2.4-5.6-4.7-8.7-6.7c-2,4.5-3.5,9.2-4.5,13.9c0,0.1,0,0.1,0,0.2c2.2,2,4.3,4.1,6.2,6.3
		c5.9,6.7,10.6,14.5,13.9,23c4.4-1.6,8.9-3.9,13.5-6.8C-122.9,68.4-130,58.1-139,50z"/>
	<path fill="#B06E59" d="M-152.1,82.9c-0.1-0.5-0.2-1-0.3-1.6C-152.3,81.8-152.2,82.4-152.1,82.9z"/>
	<path fill="#B06E59" d="M-151.8,83.8c-0.1-0.3-0.2-0.6-0.2-0.9C-152,83.2-151.9,83.5-151.8,83.8z"/>
	<path fill="#B06E59" d="M-72.6,1.4c0.5,0.1,1.1,0.2,1.6,0.3C-71.5,1.6-72,1.5-72.6,1.4z"/>
	<path fill="#B06E59" d="M-152.4,81.2c-0.1-0.5-0.2-1-0.3-1.5C-152.6,80.2-152.5,80.7-152.4,81.2z"/>
	<path fill="#B06E59" d="M-69.9,2.1c0.2,0.1,0.5,0.2,0.7,0.3C-69.4,2.2-69.6,2.2-69.9,2.1z"/>
	<path fill="#B06E59" d="M-71,1.7c0.3,0.1,0.6,0.2,0.9,0.2C-70.4,1.9-70.7,1.8-71,1.7z"/>
	<path fill="#457393" d="M-150.8,84.6c0,0.7,0.1,1.3,0.2,1.9c-0.4-0.5-0.7-1.1-0.9-1.7c0.5,1.2,1.3,2.3,2.2,3.2c0,0,0,0,0,0
		l12.1-12.1c-2.5-4.4-5.5-8.5-8.8-12.3C-149,71.2-150.6,78.4-150.8,84.6z"/>
	<path fill="#457393" d="M-135.1,40.2c-0.1-0.5,0-1.1,0.4-1.5c0.5-0.7,1-1.3,1.6-2c-0.7-0.5-1.5-0.9-2.3-1.2
		c-0.5-0.2-0.7-0.8-0.5-1.3c0.2-0.5,0.8-0.7,1.3-0.5c1,0.4,1.9,0.9,2.8,1.5c0.6-0.7,1.2-1.4,1.8-2.1c-0.7-0.4-1.5-0.8-2.3-1.2
		c-0.5-0.2-0.8-0.8-0.6-1.3c0.2-0.5,0.8-0.8,1.3-0.6c1,0.4,2,0.9,3,1.5c0.7-0.7,1.4-1.5,2.1-2.2c-0.7-0.4-1.5-0.8-2.3-1.1
		c-0.5-0.2-0.8-0.8-0.6-1.3c0.2-0.5,0.8-0.8,1.3-0.6c1.1,0.4,2.1,0.9,3,1.5c0.6-0.6,1.3-1.2,1.9-1.9c-0.7-0.4-1.5-0.8-2.3-1.1
		c-0.5-0.2-0.8-0.8-0.6-1.3c0.2-0.5,0.8-0.8,1.3-0.6c1.1,0.4,2.2,0.9,3.2,1.5c0.7-0.6,1.4-1.3,2.1-1.9c-0.8-0.4-1.5-0.7-2.3-1
		c-0.5-0.2-0.8-0.8-0.6-1.3c0.2-0.5,0.8-0.8,1.3-0.6c1.2,0.4,2.3,0.9,3.3,1.5c0.7-0.6,1.4-1.2,2.2-1.7c-0.7-0.3-1.4-0.6-2.1-0.9
		c-0.5-0.2-0.8-0.7-0.6-1.3c0.2-0.5,0.7-0.8,1.3-0.6c1.1,0.4,2.2,0.9,3.2,1.4c0.8-0.6,1.5-1.1,2.3-1.7c-0.7-0.3-1.4-0.6-2.2-0.8
		c-0.5-0.2-0.8-0.7-0.7-1.3c0.2-0.5,0.7-0.8,1.3-0.7c1.2,0.4,2.3,0.9,3.4,1.5c0.9-0.6,1.7-1.2,2.6-1.7c-0.7-0.3-1.5-0.6-2.3-0.9
		c-0.5-0.2-0.8-0.7-0.7-1.3c0.2-0.5,0.7-0.8,1.3-0.7c1.3,0.4,2.5,0.9,3.7,1.5c1-0.6,2-1.2,3-1.7c-0.5-0.2-0.9-0.3-1.4-0.5
		c-0.5-0.1-0.8-0.7-0.7-1.2c0.1-0.5,0.7-0.8,1.2-0.7c1.1,0.3,2.1,0.7,3.1,1.2c0.6-0.3,1.2-0.6,1.9-1c0.5-0.2,1-0.3,1.5-0.1
		c1.8-0.9,3.6-1.7,5.4-2.4c-2.8-1.3-5.6-2.5-8.6-3.4c-0.2,0-0.4,0.1-0.5,0.1c-12.1,3.3-23.3,9.7-32.2,18.7
		c-6.3,6.3-11.4,13.7-15.1,22c0,0,0,0,0,0.1c2.4,1.6,4.7,3.3,6.9,5.1C-139,45.6-137.1,42.8-135.1,40.2z"/>
	<path fill="#457393" d="M-147.7,61.8c-1.4-1.5-2.9-3-4.5-4.4c-1.6,7.6-1.7,15.2-0.6,22.3c0.7-5.2,2.2-11,4.6-16.9
		C-148,62.5-147.8,62.1-147.7,61.8z"/>
	<path fill="#457393" d="M-79.3,2c1.7-0.4,3.4-0.7,5.1-0.9c0.5,0.1,1.1,0.2,1.6,0.3c-3.6-0.7-7.3-1.1-11-1.1c-0.9,0-1.9,0-2.8,0.1
		c1.6,0.7,3.2,1.4,4.7,2.2C-80.9,2.4-80.1,2.2-79.3,2z"/>
	<path fill="#457393" d="M-88.4,7.2c-2.2,0.8-4.5,1.8-6.8,2.9c0,0.6-0.3,1.3-0.9,1.6c0.5,0.5,1.1,0.9,1.6,1.4c0.4,0.4,0.4,1,0,1.4
		c-0.2,0.2-0.4,0.3-0.7,0.3c-0.3,0-0.5-0.1-0.7-0.3c-0.6-0.7-1.3-1.3-2-1.8c-1.2,0.6-2.4,1.3-3.6,2c0.4,0.4,0.9,0.8,1.3,1.2
		c0.4,0.4,0.4,1-0.1,1.4c-0.2,0.2-0.4,0.3-0.7,0.3c-0.3,0-0.5-0.1-0.7-0.3c-0.5-0.5-1-1-1.6-1.5c-1,0.6-1.9,1.2-2.9,1.8
		c0.6,0.5,1.1,1,1.6,1.6c0.4,0.4,0.3,1-0.1,1.4c-0.2,0.2-0.4,0.3-0.7,0.3c-0.3,0-0.6-0.1-0.7-0.3c-0.6-0.6-1.2-1.2-1.8-1.7
		c-0.9,0.6-1.7,1.2-2.5,1.8c0.6,0.6,1.2,1.2,1.8,1.8c0.4,0.4,0.3,1.1-0.1,1.4c-0.2,0.2-0.4,0.2-0.7,0.2c-0.3,0-0.6-0.1-0.8-0.3
		c-0.6-0.7-1.3-1.3-2-1.9c-0.8,0.6-1.6,1.2-2.4,1.9c0.6,0.6,1.2,1.2,1.8,1.9c0.4,0.4,0.3,1.1-0.1,1.4c-0.2,0.2-0.4,0.2-0.6,0.2
		c-0.3,0-0.6-0.1-0.8-0.4c-0.6-0.7-1.2-1.3-1.8-1.9c-0.8,0.6-1.5,1.3-2.3,2c0.7,0.7,1.4,1.4,2,2.1c0.3,0.4,0.3,1.1-0.1,1.4
		c-0.2,0.2-0.4,0.2-0.6,0.2c-0.3,0-0.6-0.1-0.8-0.4c-0.6-0.7-1.2-1.4-1.9-2c-0.7,0.6-1.4,1.3-2,1.9c0.8,0.7,1.5,1.5,2.2,2.3
		c0.3,0.4,0.3,1.1-0.2,1.4c-0.2,0.1-0.4,0.2-0.6,0.2c-0.3,0-0.6-0.1-0.8-0.4c-0.6-0.8-1.3-1.5-2-2.1c-0.7,0.7-1.4,1.5-2.1,2.2
		c0.8,0.8,1.6,1.6,2.3,2.5c0.3,0.4,0.3,1.1-0.2,1.4c-0.2,0.1-0.4,0.2-0.6,0.2c-0.3,0-0.6-0.1-0.8-0.4c-0.6-0.8-1.3-1.5-2-2.2
		c-0.6,0.7-1.3,1.4-1.9,2.2c0.9,0.8,1.7,1.7,2.4,2.7c0.3,0.4,0.2,1.1-0.2,1.4c-0.2,0.1-0.4,0.2-0.6,0.2c-0.3,0-0.6-0.1-0.8-0.4
		c-0.6-0.8-1.3-1.6-2.1-2.3c-0.5,0.7-1.1,1.3-1.6,2c-0.4,0.5-1,0.8-1.6,0.8c-0.1,0-0.2,0-0.3,0c-2,2.7-3.9,5.4-5.5,8.2l0,0
		c1.1,1,2.2,2.1,3.3,3.1c3.6,3.6,6.8,7.6,9.6,11.8l49.3-49.3C-80.3,12.4-84.2,9.6-88.4,7.2L-88.4,7.2z"/>
	<path fill="#457393" d="M-69,2.4c0.6,0.3,1.1,0.6,1.7,0.9c-0.5-0.2-1.1-0.2-1.7-0.2c0,0-0.1,0-0.1,0c-3,0.1-6.2,0.5-9.5,1.2l0,0
		c0.6,0.4,1.3,0.8,1.9,1.2c0.4,0.3,0.8,0.5,1.1,0.8c0.2,0.2,0.5,0.3,0.7,0.5c0.4,0.3,0.7,0.5,1.1,0.8c0.2,0.2,0.5,0.4,0.7,0.5
		c0.5,0.4,1,0.8,1.5,1.2c0.1,0.1,0.1,0.1,0.2,0.2c0.2,0.1,0.3,0.3,0.5,0.4l5.3-5.3c0,0,0,0,0,0C-66.7,3.7-67.8,2.9-69,2.4z"/>
	<path fill="#0072BC" d="M-135.1,40.2c-2,2.7-3.9,5.4-5.7,8.3c0.6,0.5,1.2,1,1.8,1.5c0,0,0,0,0,0l0,0c1.7-2.8,3.5-5.5,5.5-8.2
		c-0.3-0.1-0.6-0.2-0.9-0.4C-134.8,41.1-135,40.7-135.1,40.2z"/>
	<path fill="#0072BC" d="M-79.3,2c-0.8,0.2-1.6,0.4-2.5,0.6c1,0.5,2,1.1,3,1.7c0,0,0,0,0,0l0,0l0,0c3.3-0.7,6.5-1.2,9.5-1.2
		c0,0,0.1,0,0.1,0c0.6,0,1.2,0.1,1.7,0.2C-67.9,3-68.4,2.7-69,2.4c0,0-0.1,0-0.1-0.1c-0.2-0.1-0.5-0.2-0.7-0.3C-69.9,2-70,2-70.1,2
		c-0.3-0.1-0.6-0.2-0.9-0.2c-0.5-0.1-1.1-0.2-1.6-0.3c0,0,0,0,0,0c-0.5-0.1-1-0.2-1.6-0.3C-75.8,1.3-77.5,1.6-79.3,2z"/>
	<path fill="#0072BC" d="M-95.4,9.2c0.1,0.3,0.2,0.6,0.2,0.9c2.3-1.1,4.5-2.1,6.8-2.9l0,0c0,0,0,0,0,0c-0.9-0.5-1.8-1-2.7-1.4
		c-1.8,0.7-3.6,1.5-5.4,2.4C-96.1,8.4-95.6,8.7-95.4,9.2z"/>
	<path fill="#0072BC" d="M-150.8,84.6c0.1-6.2,1.8-13.4,4.8-20.9c0,0,0,0,0,0c-0.6-0.6-1.2-1.3-1.7-1.9c-0.1,0.3-0.3,0.7-0.4,1
		c-2.4,5.9-4,11.6-4.6,16.9c0,0,0,0,0,0c0,0,0,0,0,0c0.1,0.5,0.2,1,0.3,1.5c0,0,0,0,0,0.1c0.1,0.5,0.2,1.1,0.3,1.6
		c0.1,0.3,0.2,0.6,0.2,0.9c0,0.1,0,0.1,0.1,0.2c0.1,0.2,0.2,0.5,0.3,0.7c0,0,0,0.1,0.1,0.1c0.3,0.6,0.6,1.1,0.9,1.7
		C-150.7,85.9-150.8,85.3-150.8,84.6z"/>
	<path fill="#CCE3F2" d="M-71.8,9.3c-0.5-0.4-1-0.8-1.5-1.2c-0.2-0.2-0.5-0.4-0.7-0.5c-0.4-0.3-0.7-0.5-1.1-0.8
		c-0.2-0.2-0.5-0.3-0.7-0.5c-0.4-0.3-0.7-0.5-1.1-0.8c-0.6-0.4-1.2-0.8-1.9-1.2c0,0,0,0,0,0c-1-0.6-2-1.1-3-1.7
		c-1.5-0.8-3.1-1.5-4.7-2.2c-0.2,0-0.5,0-0.7,0c-4.2,0.2-8.4,0.9-12.7,2c3,0.9,5.9,2,8.6,3.4c0.9,0.5,1.8,0.9,2.7,1.4c0,0,0,0,0,0
		c4.2,2.3,8.1,5.2,11.6,8.5l5.8-5.8c-0.2-0.1-0.3-0.3-0.5-0.4C-71.6,9.4-71.7,9.4-71.8,9.3z"/>
	<path fill="#CCE3F2" d="M-139,50C-139,50-139,50-139,50c-0.6-0.5-1.2-1-1.8-1.6c-2.2-1.8-4.5-3.6-6.9-5.1c-2,4.5-3.5,9.2-4.5,13.9
		c0,0.1,0,0.1,0,0.2c1.6,1.4,3.1,2.9,4.5,4.4c0.6,0.6,1.2,1.3,1.7,1.9c0,0,0,0,0,0c3.3,3.8,6.2,7.9,8.8,12.3l11-11
		c-2.8-4.3-6-8.2-9.6-11.8C-136.8,52.1-137.9,51-139,50z"/>
	<path fill="#FFFFFF" d="M-95.4,9.2c-0.3-0.5-0.7-0.9-1.2-1c-0.5-0.2-1-0.1-1.5,0.1c-0.6,0.3-1.2,0.6-1.9,1c1.4,0.7,2.7,1.5,3.9,2.5
		c0.6-0.4,0.9-1,0.9-1.6C-95.2,9.8-95.2,9.5-95.4,9.2z"/>
	<g>
		<path fill="#CCE3F2" d="M-133.1,41.9c-0.4,0-0.9-0.1-1.2-0.4c-0.9-0.7-1-1.9-0.4-2.8c2.8-3.7,5.9-7.2,9.1-10.4
			c8-8,17.6-14.9,27.5-19.9c1-0.5,2.2-0.1,2.7,0.9c0.5,1,0.1,2.2-0.9,2.7c-9.6,4.8-18.7,11.4-26.5,19.2c-3.1,3.1-6.1,6.5-8.8,10
			C-131.9,41.6-132.5,41.9-133.1,41.9z"/>
		<path fill="#CCE3F2" d="M-95.2,14.9c-0.3,0-0.5-0.1-0.7-0.3c-2.1-2.2-4.8-3.8-7.7-4.6c-0.5-0.1-0.8-0.7-0.7-1.2
			c0.1-0.5,0.7-0.8,1.2-0.7c3.3,0.9,6.2,2.7,8.6,5.1c0.4,0.4,0.4,1,0,1.4C-94.7,14.8-95,14.9-95.2,14.9z"/>
		<path fill="#CCE3F2" d="M-101,17.7c-0.3,0-0.5-0.1-0.7-0.3c-2.1-2.2-4.7-3.9-7.7-4.8c-0.5-0.2-0.8-0.7-0.7-1.3
			c0.2-0.5,0.7-0.8,1.3-0.7c3.3,1,6.2,2.8,8.6,5.3c0.4,0.4,0.4,1-0.1,1.4C-100.6,17.6-100.8,17.7-101,17.7z"/>
		<path fill="#CCE3F2" d="M-105.4,20.9c-0.3,0-0.6-0.1-0.7-0.3c-2.1-2.3-4.7-4-7.6-4.9c-0.5-0.2-0.8-0.7-0.7-1.3
			c0.2-0.5,0.7-0.8,1.3-0.7c3.3,1,6.2,2.9,8.5,5.5c0.4,0.4,0.3,1-0.1,1.4C-104.9,20.8-105.2,20.9-105.4,20.9z"/>
		<path fill="#CCE3F2" d="M-109.5,24.1c-0.3,0-0.6-0.1-0.8-0.3c-2-2.4-4.7-4.1-7.6-5.1c-0.5-0.2-0.8-0.7-0.6-1.3
			c0.2-0.5,0.7-0.8,1.3-0.6c3.3,1.1,6.2,3.1,8.5,5.7c0.4,0.4,0.3,1.1-0.1,1.4C-109,24-109.2,24.1-109.5,24.1z"/>
		<path fill="#CCE3F2" d="M-113.5,27.2c-0.3,0-0.6-0.1-0.8-0.4c-2-2.4-4.7-4.2-7.6-5.3c-0.5-0.2-0.8-0.8-0.6-1.3
			c0.2-0.5,0.8-0.8,1.3-0.6c3.3,1.2,6.2,3.2,8.5,5.9c0.4,0.4,0.3,1.1-0.1,1.4C-113,27.2-113.3,27.2-113.5,27.2z"/>
		<path fill="#CCE3F2" d="M-117.2,30.7c-0.3,0-0.6-0.1-0.8-0.4c-2-2.5-4.6-4.4-7.6-5.5c-0.5-0.2-0.8-0.8-0.6-1.3
			c0.2-0.5,0.8-0.8,1.3-0.6c3.3,1.2,6.2,3.3,8.5,6.1c0.3,0.4,0.3,1.1-0.1,1.4C-116.7,30.7-116.9,30.7-117.2,30.7z"/>
		<path fill="#CCE3F2" d="M-120.6,34.2c-0.3,0-0.6-0.1-0.8-0.4c-2-2.5-4.6-4.5-7.6-5.6c-0.5-0.2-0.8-0.8-0.6-1.3
			c0.2-0.5,0.8-0.8,1.3-0.6c3.3,1.3,6.2,3.5,8.4,6.3c0.3,0.4,0.3,1.1-0.2,1.4C-120.1,34.1-120.3,34.2-120.6,34.2z"/>
		<path fill="#CCE3F2" d="M-124,38c-0.3,0-0.6-0.1-0.8-0.4c-2-2.6-4.6-4.6-7.6-5.8c-0.5-0.2-0.8-0.8-0.6-1.3
			c0.2-0.5,0.8-0.8,1.3-0.6c3.3,1.3,6.2,3.6,8.4,6.4c0.3,0.4,0.3,1.1-0.2,1.4C-123.6,37.9-123.8,38-124,38z"/>
		<path fill="#CCE3F2" d="M-127.1,41.8c-0.3,0-0.6-0.1-0.8-0.4c-1.9-2.6-4.6-4.7-7.6-6c-0.5-0.2-0.7-0.8-0.5-1.3
			c0.2-0.5,0.8-0.7,1.3-0.5c3.3,1.4,6.2,3.7,8.4,6.6c0.3,0.4,0.2,1.1-0.2,1.4C-126.7,41.8-126.9,41.8-127.1,41.8z"/>
		<path fill="#CCE3F2" d="M-123.2,26c-0.7,0.6-1.3,1.2-1.9,1.9c1.2,0.7,2.3,1.5,3.3,2.4c0.7-0.7,1.3-1.3,2-1.9
			C-120.9,27.4-122,26.6-123.2,26z"/>
		<path fill="#CCE3F2" d="M-119.5,22.6c-0.7,0.6-1.4,1.3-2.1,1.9c1.2,0.7,2.3,1.5,3.3,2.4c0.7-0.7,1.5-1.3,2.3-2
			C-117.2,24.1-118.3,23.3-119.5,22.6z"/>
		<path fill="#CCE3F2" d="M-126.6,29.3c-0.7,0.7-1.4,1.4-2.1,2.2c1.1,0.7,2.2,1.5,3.2,2.5c0.7-0.8,1.4-1.5,2.1-2.2
			C-124.3,30.8-125.4,30-126.6,29.3z"/>
		<path fill="#CCE3F2" d="M-130,33c-0.6,0.7-1.2,1.4-1.8,2.1c1.1,0.7,2.2,1.5,3.2,2.5c0.6-0.7,1.2-1.5,1.9-2.2
			C-127.8,34.5-128.9,33.7-130,33z"/>
		<path fill="#CCE3F2" d="M-102.2,10.5c-1,0.6-2,1.1-3,1.7c1.3,0.7,2.5,1.6,3.6,2.5c1.2-0.7,2.4-1.3,3.6-2
			C-99.3,11.9-100.7,11.1-102.2,10.5z"/>
		<path fill="#CCE3F2" d="M-133.2,36.7c-0.5,0.7-1.1,1.3-1.6,2c-0.3,0.5-0.5,1-0.4,1.5c0.1,0.5,0.3,1,0.8,1.3
			c0.3,0.2,0.6,0.3,0.9,0.4c0.1,0,0.2,0,0.3,0c0.6,0,1.2-0.3,1.6-0.8c0.5-0.7,1-1.3,1.6-2C-130.9,38.2-132,37.4-133.2,36.7z"/>
		<path fill="#CCE3F2" d="M-107.2,13.5c-0.9,0.6-1.7,1.1-2.6,1.7c1.3,0.7,2.4,1.5,3.5,2.5c0.9-0.6,1.9-1.2,2.9-1.8
			C-104.5,14.9-105.8,14.1-107.2,13.5z"/>
		<path fill="#CCE3F2" d="M-115.7,19.5c-0.7,0.6-1.4,1.1-2.2,1.7c1.2,0.7,2.3,1.5,3.4,2.5c0.8-0.6,1.6-1.2,2.4-1.9
			C-113.3,20.9-114.5,20.1-115.7,19.5z"/>
		<path fill="#CCE3F2" d="M-111.6,16.5c-0.8,0.6-1.6,1.1-2.3,1.7c1.2,0.7,2.4,1.5,3.5,2.4c0.8-0.6,1.7-1.2,2.5-1.8
			C-109.1,17.9-110.3,17.1-111.6,16.5z"/>
		<path fill="#CCE3F2" d="M-99.9,9.3c-1-0.5-2.1-0.9-3.1-1.2c-0.5-0.1-1.1,0.2-1.2,0.7c-0.1,0.5,0.2,1.1,0.7,1.2
			c0.5,0.1,1,0.3,1.4,0.5c1.5,0.6,2.9,1.3,4.2,2.3c0.7,0.5,1.4,1.1,2,1.8c0.2,0.2,0.5,0.3,0.7,0.3c0.3,0,0.5-0.1,0.7-0.3
			c0.4-0.4,0.4-1,0-1.4c-0.5-0.5-1-1-1.6-1.4C-97.3,10.8-98.6,10-99.9,9.3z"/>
		<path fill="#CCE3F2" d="M-105.2,12.2c-1.2-0.6-2.4-1.2-3.7-1.5c-0.5-0.2-1.1,0.1-1.3,0.7c-0.2,0.5,0.1,1.1,0.7,1.3
			c0.8,0.2,1.5,0.5,2.3,0.9c1.4,0.6,2.6,1.4,3.8,2.4c0.6,0.5,1.1,1,1.6,1.5c0.2,0.2,0.5,0.3,0.7,0.3c0.2,0,0.5-0.1,0.7-0.3
			c0.4-0.4,0.4-1,0.1-1.4c-0.4-0.4-0.8-0.8-1.3-1.2C-102.7,13.8-103.9,12.9-105.2,12.2z"/>
		<path fill="#CCE3F2" d="M-109.8,15.2c-1.1-0.6-2.2-1.1-3.4-1.5c-0.5-0.2-1.1,0.1-1.3,0.7c-0.2,0.5,0.1,1.1,0.7,1.3
			c0.7,0.2,1.5,0.5,2.2,0.8c1.3,0.6,2.5,1.4,3.7,2.3c0.6,0.5,1.3,1.1,1.8,1.7c0.2,0.2,0.5,0.3,0.7,0.3c0.2,0,0.5-0.1,0.7-0.3
			c0.4-0.4,0.4-1,0.1-1.4c-0.5-0.6-1-1.1-1.6-1.6C-107.3,16.7-108.5,15.9-109.8,15.2z"/>
		<path fill="#CCE3F2" d="M-114,18.2c-1-0.6-2.1-1.1-3.2-1.4c-0.5-0.2-1.1,0.1-1.3,0.6c-0.2,0.5,0.1,1.1,0.6,1.3
			c0.7,0.2,1.4,0.5,2.1,0.9c1.3,0.6,2.5,1.4,3.6,2.3c0.7,0.6,1.4,1.2,2,1.9c0.2,0.2,0.5,0.3,0.8,0.3c0.2,0,0.5-0.1,0.7-0.2
			c0.4-0.4,0.5-1,0.1-1.4c-0.6-0.7-1.2-1.3-1.8-1.8C-111.6,19.7-112.7,18.9-114,18.2z"/>
		<path fill="#CCE3F2" d="M-117.9,21.3c-1.1-0.6-2.2-1.1-3.3-1.5c-0.5-0.2-1.1,0.1-1.3,0.6c-0.2,0.5,0.1,1.1,0.6,1.3
			c0.8,0.3,1.6,0.6,2.3,1c1.2,0.6,2.4,1.4,3.4,2.4c0.7,0.6,1.3,1.2,1.8,1.9c0.2,0.2,0.5,0.4,0.8,0.4c0.2,0,0.5-0.1,0.6-0.2
			c0.4-0.4,0.5-1,0.1-1.4c-0.6-0.7-1.2-1.3-1.8-1.9C-115.6,22.8-116.7,21.9-117.9,21.3z"/>
		<path fill="#CCE3F2" d="M-121.7,24.5c-1-0.6-2.1-1.1-3.2-1.5c-0.5-0.2-1.1,0.1-1.3,0.6c-0.2,0.5,0.1,1.1,0.6,1.3
			c0.8,0.3,1.6,0.7,2.3,1.1c1.2,0.7,2.3,1.5,3.3,2.4c0.7,0.6,1.4,1.3,1.9,2c0.2,0.2,0.5,0.4,0.8,0.4c0.2,0,0.4-0.1,0.6-0.2
			c0.4-0.3,0.5-1,0.1-1.4c-0.6-0.8-1.3-1.5-2-2.1C-119.4,26-120.5,25.2-121.7,24.5z"/>
		<path fill="#CCE3F2" d="M-125.2,27.8c-1-0.6-2-1.1-3-1.5c-0.5-0.2-1.1,0.1-1.3,0.6c-0.2,0.5,0.1,1.1,0.6,1.3
			c0.8,0.3,1.6,0.7,2.3,1.1c1.2,0.7,2.3,1.5,3.3,2.4c0.7,0.7,1.4,1.4,2,2.1c0.2,0.3,0.5,0.4,0.8,0.4c0.2,0,0.4-0.1,0.6-0.2
			c0.4-0.3,0.5-1,0.2-1.4c-0.7-0.8-1.4-1.6-2.2-2.3C-122.9,29.3-124,28.5-125.2,27.8z"/>
		<path fill="#CCE3F2" d="M-128.7,31.5c-0.9-0.6-1.9-1.1-3-1.5c-0.5-0.2-1.1,0-1.3,0.6c-0.2,0.5,0,1.1,0.6,1.3
			c0.8,0.3,1.6,0.7,2.3,1.2c1.2,0.7,2.2,1.5,3.2,2.4c0.7,0.7,1.4,1.4,2,2.2c0.2,0.3,0.5,0.4,0.8,0.4c0.2,0,0.4-0.1,0.6-0.2
			c0.4-0.3,0.5-1,0.2-1.4c-0.7-0.9-1.4-1.7-2.3-2.5C-126.4,33-127.5,32.2-128.7,31.5z"/>
		<path fill="#CCE3F2" d="M-131.9,35.1c-0.9-0.6-1.8-1.1-2.8-1.5c-0.5-0.2-1.1,0-1.3,0.5c-0.2,0.5,0,1.1,0.5,1.3
			c0.8,0.3,1.6,0.7,2.3,1.2c1.1,0.7,2.2,1.5,3.2,2.5c0.7,0.7,1.4,1.5,2.1,2.3c0.2,0.3,0.5,0.4,0.8,0.4c0.2,0,0.4-0.1,0.6-0.2
			c0.4-0.3,0.5-1,0.2-1.4c-0.7-1-1.5-1.9-2.4-2.7C-129.7,36.6-130.7,35.8-131.9,35.1z"/>
	</g>
</g>
<g>
	<path fill="#414042" d="M22.4,37.7c-2.1,0-3.8,3.9-3.8,8.7c0,4.8,1.7,8.7,3.8,8.7l0,0h8.9V37.7H22.4z"/>
	<ellipse fill="#05838D" cx="42.6" cy="46.5" rx="15.3" ry="35.5"/>
	<ellipse fill="#4C9CD0" cx="56.7" cy="46.5" rx="22.3" ry="46.4"/>
	<ellipse fill="#0072BC" cx="64.7" cy="46.5" rx="14.2" ry="38.5"/>
	<path fill="#175079" d="M65.8,37.7c-2.1,0-3.8,3.9-3.8,8.7c0,4.8,1.7,8.7,3.8,8.7l0,0h38.5V37.7H65.8z"/>
	<ellipse fill="#4C9CD0" cx="116.3" cy="46.5" rx="22.3" ry="46.4"/>
	<ellipse fill="#0072BC" cx="124.3" cy="46.5" rx="14.2" ry="38.5"/>
	<ellipse fill="#4C9CD0" cx="132.7" cy="46.5" rx="15.3" ry="35.5"/>
	<ellipse fill="#0072BC" cx="138.2" cy="46.5" rx="9.8" ry="29.5"/>
	<ellipse fill="#457393" cx="152.6" cy="46.5" rx="3.8" ry="8.7"/>
	<path fill="#175079" d="M148.8,46.5c0-4.8,1.7-8.7,3.8-8.7h-14.1c-2.1,0-3.8,3.9-3.8,8.7c0,4.8,1.7,8.7,3.8,8.7l0,0h14.1l0,0
		C150.5,55.2,148.8,51.3,148.8,46.5z"/>
	<path fill="#457393" d="M27.8,37.7h-5.4c-2.1,0-3.8,3.9-3.8,8.7c0,4.8,1.7,8.7,3.8,8.7l0,0h5.4c-0.3-2.8-0.5-5.7-0.5-8.7
		C27.3,43.4,27.5,40.5,27.8,37.7z"/>
	<path fill="#0072BC" d="M42.3,11c-7,0.3-12.9,11.6-14.5,26.8c-0.3,2.8-0.5,5.7-0.5,8.7c0,3,0.2,5.9,0.5,8.7
		c1.7,15.2,7.5,26.4,14.5,26.8c-4.9-8.5-7.9-21.3-7.9-35.5C34.4,32.2,37.5,19.5,42.3,11z"/>
	<path fill="#66AAD7" d="M50.5,46.5C50.5,25.2,56.9,8,64.7,8c3.5,0,6.7,3.5,9.2,9.2C69.9,6.7,63.6,0.1,56.7,0.1
		c-5.5,0-10.5,4.1-14.3,10.9c-4.9,8.5-7.9,21.2-7.9,35.5c0,14.2,3.1,27,7.9,35.5c1.2,2.1,2.5,3.9,3.9,5.5l10-10
		C52.8,70.4,50.5,59.1,50.5,46.5z"/>
	<path fill="#338DC9" d="M65.8,55.2c-2.1,0-3.8-3.9-3.8-8.7c0-4.8,1.7-8.7,3.8-8.7h12.8c-0.7-8.2-2.4-15.3-4.6-20.6
		C71.5,11.4,68.2,8,64.7,8c-7.9,0-14.2,17.2-14.2,38.5c0,12.7,2.3,23.9,5.8,30.9l22.2-22.2H65.8L65.8,55.2z"/>
	<path fill="#457393" d="M78.6,37.7H65.8c-2.1,0-3.8,3.9-3.8,8.7c0,4.8,1.7,8.7,3.8,8.7l0,0h12.7l15.8-15.8c0-0.6,0.1-1.1,0.1-1.7
		H78.6z"/>
	<path fill="#66AAD7" d="M116.3,0.1c-10.9,0-19.9,16.2-21.9,37.7c-0.1,0.6-0.1,1.1-0.1,1.7l19.9-19.9c2.6-7.1,6.2-11.5,10.1-11.5
		c0.4,0,0.8,0.1,1.2,0.2l1.9-1.9C124.1,2.3,120.3,0.1,116.3,0.1z"/>
	<path fill="#338DC9" d="M114.2,19.5l11.4-11.4C125.1,8,124.7,8,124.3,8C120.3,8,116.8,12.4,114.2,19.5z"/>
</g>
<g>
	<path fill="#2E6186" d="M-425,51.1c-17,7-35.3,9.9-53.3,8.6v32.8c18,1.3,36.3-1.5,53.3-8.6c-3-4.2-6.1-8.6-9.2-13
		C-431.1,64.4-428,57.8-425,51.1z"/>
	<path fill="#175079" d="M-465.6,55.3c-7.5,3.1-12.7,4.4-12.7,4.4v32.8c0,0,5.2-0.7,13.6-4.5c8.4-3.7,11.8-7.1,11.8-7.1V48.1
		C-452.8,48.1-457.9,52.2-465.6,55.3z"/>
	<path fill="#2E6186" d="M-570,51.1c17,7,35.3,9.9,53.3,8.6v32.8c-18,1.3-36.3-1.5-53.3-8.6c3-4.2,6.1-8.6,9.2-13
		C-563.9,64.4-567,57.8-570,51.1z"/>
	<path fill="#175079" d="M-529.4,55.3c7.5,3.1,12.7,4.4,12.7,4.4v32.8c0,0-5.2-0.7-13.6-4.5c-8.4-3.7-11.8-7.1-11.8-7.1V48.1
		C-542.2,48.1-537.1,52.2-529.4,55.3z"/>
	<g>
		<polygon fill="#0072BC" points="-497.1,4.2 -492.5,0 -488.8,5 -483.4,1.9 -480.9,7.6 -475,5.7 -473.7,11.8 -467.4,11.1 
			-467.5,17.4 -461.2,18 -462.6,24.1 -456.6,26 -459.2,31.7 -453.7,34.9 -457.4,39.9 -452.8,44.1 -457.4,48.3 -453.7,53.3 
			-459.2,56.4 -456.6,62.1 -462.6,64 -461.2,70.2 -467.5,70.8 -467.4,77.1 -473.7,76.4 -475,82.5 -480.9,80.6 -483.4,86.3 
			-488.8,83.1 -492.5,88.2 -497.1,84 -501.8,88.2 -505.4,83.1 -510.8,86.3 -513.4,80.6 -519.3,82.5 -520.6,76.4 -526.8,77.1 
			-526.8,70.8 -533,70.2 -531.7,64 -537.7,62.1 -535.1,56.4 -540.5,53.3 -536.8,48.3 -541.5,44.1 -536.8,39.9 -540.5,34.9 
			-535.1,31.7 -537.7,26 -531.7,24.1 -533,18 -526.8,17.4 -526.8,11.1 -520.6,11.8 -519.3,5.7 -513.4,7.6 -510.8,1.9 -505.4,5 
			-501.8,0 		"/>
		<circle fill="#175079" cx="-497.1" cy="44.1" r="36.5"/>
		<circle fill="#80B8DD" cx="-497.1" cy="44.1" r="30.8"/>
		<path fill="#338EC9" d="M-473.7,11.8l-1.3-6.1l-5.9,1.9l-2.5-5.7l-5.4,3.1l-3.7-5.1l-4.6,4.2l-4.6-4.2l-3.7,5.1l-5.4-3.1l-2.5,5.7
			l-5.9-1.9l-1.3,6.1l-6.2-0.7l0,6.3L-533,18l1.3,6.1l-6,1.9l2.6,5.7l-5.4,3.1l3.7,5l-4.7,4.2l4.7,4.2l-3.7,5.1l5.4,3.1l-2.6,5.7
			l6,1.9l-1.3,6.1l6.2,0.6l0,2.1l3.5-3.5c-6.4-6.6-10.3-15.5-10.3-25.4c0-20.2,16.3-36.5,36.5-36.5c9.9,0,18.8,3.9,25.4,10.3
			l4.3-4.3l0-2.4L-473.7,11.8z"/>
		<path fill="#396A8D" d="M-533.6,44.1c0,9.9,3.9,18.8,10.3,25.4l4-4c-5.3-5.5-8.6-13-8.6-21.3c0-17,13.8-30.8,30.8-30.8
			c8.3,0,15.8,3.3,21.3,8.6l4-4c-6.6-6.4-15.5-10.3-25.4-10.3C-517.3,7.6-533.6,23.9-533.6,44.1z"/>
		<path fill="#B2D5EB" d="M-497.1,13.3c-17,0-30.8,13.8-30.8,30.8c0,8.3,3.3,15.8,8.6,21.3l43.5-43.5
			C-481.3,16.6-488.9,13.3-497.1,13.3z"/>
		<circle fill="#99C6E4" cx="-497.1" cy="44" r="30.7"/>
		<path fill="#2E6186" d="M-497.1,72.3c-15.6,0-28.2-12.7-28.2-28.2c0-15.6,12.7-28.2,28.2-28.2c15.6,0,28.2,12.7,28.2,28.2
			C-468.9,59.6-481.6,72.3-497.1,72.3z"/>
		<g>
			<path fill="#CCE3F2" d="M-495.7,66.9c-0.2-0.1-0.4-0.2-0.6-0.3c-0.1,0-0.2-0.1-0.3-0.1c-0.1,0-0.2-0.1-0.3-0.1
				c-0.4-0.2-0.9-0.3-1.3-0.4c-0.4-0.1-0.8-0.2-1.2-0.3l0,0c0,0,0,0,0,0c-0.3-0.1-0.7-0.2-1-0.2c-0.5-1.4-1-3.4-1.8-4.3
				c-1-1-2.7-1.7-4.1-2.1c0.4,1.3,1.3,3.3,2.3,4.2c0.7,0.6,1.7,1.2,2.7,1.8c-1.2-0.2-4-1-4.8-1.4c-0.1-1.5,0-3.5-0.6-4.6
				c-0.7-1.2-2.1-2.4-3.4-3.1c0,1.3,0.3,3.5,1,4.7c0.5,0.8,1.3,1.7,2.1,2.5c-0.7-0.4-3.1-2.1-4.8-3.6c0.4-1.5,1.1-3.3,0.9-4.4
				c-0.3-1.4-1.2-3-2.2-4c-0.4,1.3-0.8,3.4-0.5,4.8c0.2,0.9,0.7,2,1.2,3c-0.8-0.9-2.7-3.1-3.1-3.9c0.8-1.3,2-2.9,2.1-4.1
				c0.1-1.4-0.4-3.2-1-4.5c-0.8,1.1-1.7,3-1.8,4.4c-0.1,0.9,0.2,2.1,0.3,3.2c-0.3-0.8-1.4-3.6-2-5.8c1.1-1.1,2.8-2.3,3.2-3.4
				c0.5-1.3,0.5-3.2,0.2-4.6c-1,0.9-2.5,2.5-2.9,3.8c-0.3,0.9-0.4,2.1-0.6,3.2c-0.3-1.2-0.4-2.4-0.5-3.6c-0.1-0.9,0-1.8,0-2.7
				c1.4-0.7,3.2-1.5,3.9-2.4c0.8-1.1,1.3-2.9,1.4-4.4c-1.2,0.5-3,1.7-3.9,2.8c-0.5,0.7-1,1.9-1.4,2.9c0.1-0.9,0.3-1.8,0.5-2.7
				c0.1-0.3,0.1-0.5,0.2-0.8c0.1-0.3,0.2-0.5,0.3-0.8c0.2-0.5,0.4-1,0.6-1.5c0.1-0.3,0.3-0.5,0.4-0.8c1.5-0.2,3.5-0.2,4.5-0.8
				c1.2-0.8,2.3-2.2,2.9-3.6c-1.3,0.1-3.5,0.5-4.6,1.2c-0.7,0.4-1.5,1.3-2.2,2c0.2-0.3,0.4-0.6,0.6-0.9c1-1.4,2.1-2.6,3.3-3.7
				c1.5,0.1,3.6,0.6,4.7,0.1c1.2-0.5,2.6-1.6,3.5-2.8c-1.3-0.2-3.3-0.2-4.6,0.3c-0.9,0.4-2.1,1.2-3.1,1.9c0.2-0.2,0.4-0.3,0.6-0.5
				c1.5-1.3,3.1-2.4,4.8-3.5c1.1,0.3,2.4,0.3,3.5-0.3c1.2-0.6,2.1-1.6,2.8-2.9c-1.3-0.2-2.8-0.2-4,0.4c-1.1,0.6-2,1.5-2.4,2.6
				c-0.8,0.4-1.6,0.9-2.3,1.3c-0.5,0.3-1.1,0.7-1.6,1.1c0.8-0.8,1.8-1.6,2.3-2.3c0.8-1.1,1.2-3.1,1.3-4.4c-1.3,0.6-2.7,1.6-3.5,2.7
				c-0.7,1-0.7,3.2-1,4.7c-0.1,0.1-0.2,0.2-0.3,0.2c-1.3,1.1-2.6,2.3-3.7,3.6c0.7-1.1,1.7-2.4,2.2-3.5c0.5-1.3,0.5-3.5,0.3-4.8
				c-1.2,0.9-2.4,2.3-2.9,3.6c-0.5,1.2,0,3.5,0.1,5.1c-0.2,0.3-0.4,0.5-0.6,0.8c-0.6,0.8-1.1,1.7-1.6,2.5c0.3-0.8,0.5-1.7,0.5-2.4
				c0.1-1.4-0.6-3.6-1.2-4.8c-0.9,1.2-1.7,3-1.7,4.4c-0.1,1.3,1,3.1,1.6,4.6c0,0,0,0,0,0c-0.1,0.3-0.2,0.5-0.3,0.8
				c-0.1,0.3-0.2,0.5-0.2,0.8c-0.2,0.8-0.4,1.7-0.6,2.6c0-1,0-2-0.2-2.8c-0.3-1.4-1.6-3.4-2.6-4.4c-0.5,1.5-0.7,3.5-0.4,4.9
				c0.3,1.3,1.9,2.9,3,4.2c0,0.7-0.1,1.5,0,2.2c0,0.7,0.1,1.4,0.2,2c-0.3-1-0.7-2-1.1-2.7c-0.8-1.3-2.6-2.6-3.9-3.3
				c0,1.6,0.4,3.5,1.2,4.8c0.7,1.1,2.7,2,4.1,2.9c0.1,0.5,0.3,1.3,0.4,1.8l0,0c0.2,0.9,0.6,2.2,1.2,3.7c-0.5-0.8-1-1.7-1.6-2.3
				c-1-1.1-3.1-2-4.5-2.4c0.3,1.5,1.2,3.3,2.2,4.4c0.9,1,3.2,1.4,4.7,2c0.3,0.7,0.7,1.3,1.1,1.9c0.4,0.6,0.8,1.1,1.2,1.6
				c-0.8-0.7-1.6-1.4-2.3-1.7c-1.3-0.7-3.6-0.9-5-0.8c0.8,1.3,2.2,2.8,3.5,3.5c1.2,0.6,3.4,0.4,5,0.4c0.5,0.3,0.9,0.8,1.4,1.1l0,0
				c0.7,0.6,1.7,1.4,3.1,2.3c-0.9-0.4-1.8-0.8-2.6-1c-1.5-0.3-3.7,0.1-5.1,0.6c1.2,1.1,2.9,2.1,4.3,2.4c1.3,0.3,3.4-0.6,5-1
				c0.6,0.3,1.3,0.7,2,0.9c0.6,0.3,1.3,0.5,1.9,0.7c-1-0.1-2.1-0.2-2.9-0.1c-1.5,0.2-3.5,1.3-4.6,2.2c1.4,0.6,3.4,1.1,4.9,0.9
				c1.3-0.2,3-1.6,4.3-2.5c0.1,0,0.1,0,0.2,0c0.1,0,0.2,0.1,0.3,0.1c0.9,0.2,1.8,0.4,2.6,0.7c0.4,0.1,0.9,0.2,1.3,0.4
				c0.1,0,0.2,0.1,0.3,0.1c0.1,0,0.2,0.1,0.3,0.1c0.2,0.1,0.4,0.2,0.6,0.3c0.8,0.4,1.5,0.9,2.1,1.5c0,0,0.1,0.1,0.1,0.1l0.1-1.3
				C-494.4,67.7-495,67.3-495.7,66.9z"/>
			<path fill="#B2D5EB" d="M-498.6,66.9c0.2-0.1,0.4-0.2,0.6-0.3c0.1,0,0.2-0.1,0.3-0.1c0.1,0,0.2-0.1,0.3-0.1
				c0.4-0.2,0.9-0.3,1.3-0.4c0.4-0.1,0.8-0.2,1.2-0.3l0,0c0,0,0,0,0,0c0.3-0.1,0.7-0.2,1-0.2c0.5-1.4,1-3.4,1.8-4.3
				c1-1,2.7-1.7,4.1-2.1c-0.4,1.3-1.3,3.3-2.3,4.2c-0.7,0.6-1.7,1.2-2.7,1.8c1.2-0.2,4-1,4.8-1.4c0.1-1.5,0-3.5,0.6-4.6
				c0.7-1.2,2.1-2.4,3.4-3.1c0,1.3-0.3,3.5-1,4.7c-0.5,0.8-1.3,1.7-2.1,2.5c0.7-0.4,3.1-2.1,4.8-3.6c-0.4-1.5-1.1-3.3-0.9-4.4
				c0.3-1.4,1.2-3,2.2-4c0.4,1.3,0.8,3.4,0.5,4.8c-0.2,0.9-0.7,2-1.2,3c0.8-0.9,2.7-3.1,3.1-3.9c-0.8-1.3-2-2.9-2.1-4.1
				c-0.1-1.4,0.4-3.2,1-4.5c0.8,1.1,1.7,3,1.8,4.4c0.1,0.9-0.2,2.1-0.3,3.2c0.3-0.8,1.4-3.6,2-5.8c-1.1-1.1-2.8-2.3-3.2-3.4
				c-0.5-1.3-0.5-3.2-0.2-4.6c1,0.9,2.5,2.5,2.9,3.8c0.3,0.9,0.4,2.1,0.6,3.2c0.3-1.2,0.4-2.4,0.5-3.6c0-0.9,0-1.8,0-2.7
				c-1.4-0.7-3.2-1.5-3.9-2.4c-0.8-1.1-1.3-2.9-1.4-4.4c1.2,0.5,3,1.7,3.9,2.8c0.5,0.7,1,1.9,1.4,2.9c-0.1-0.9-0.3-1.8-0.5-2.7
				c-0.1-0.3-0.1-0.5-0.2-0.8c-0.1-0.3-0.2-0.5-0.3-0.8c-0.2-0.5-0.4-1-0.6-1.5c-0.1-0.3-0.3-0.5-0.4-0.8c-1.5-0.2-3.5-0.2-4.5-0.8
				c-1.2-0.8-2.3-2.2-2.9-3.6c1.3,0.1,3.5,0.5,4.6,1.2c0.7,0.4,1.5,1.3,2.2,2c-0.2-0.3-0.4-0.6-0.6-0.9c-1-1.4-2.1-2.6-3.3-3.7
				c-1.5,0.1-3.6,0.6-4.7,0.1c-1.2-0.5-2.6-1.6-3.5-2.8c1.3-0.2,3.3-0.2,4.6,0.3c0.9,0.4,2.1,1.2,3.1,1.9c-0.2-0.2-0.4-0.3-0.6-0.5
				c-1.5-1.3-3.1-2.4-4.8-3.5c-1.1,0.3-2.4,0.3-3.5-0.3c-1.2-0.6-2.1-1.6-2.8-2.9c1.3-0.2,2.8-0.2,4,0.4c1.1,0.6,2,1.5,2.4,2.6
				c0.8,0.4,1.6,0.9,2.3,1.3c0.5,0.3,1.1,0.7,1.6,1.1c-0.8-0.8-1.8-1.6-2.3-2.3c-0.8-1.1-1.2-3.1-1.3-4.4c1.3,0.6,2.7,1.6,3.5,2.7
				c0.7,1,0.7,3.2,1,4.7c0.1,0.1,0.2,0.2,0.3,0.2c1.3,1.1,2.6,2.3,3.7,3.6c-0.7-1.1-1.7-2.4-2.2-3.5c-0.5-1.3-0.5-3.5-0.3-4.8
				c1.2,0.9,2.4,2.3,2.9,3.6c0.5,1.2,0,3.5-0.1,5.1c0.2,0.3,0.4,0.5,0.6,0.8c0.6,0.8,1.1,1.7,1.6,2.5c-0.3-0.8-0.5-1.7-0.5-2.4
				c-0.1-1.4,0.6-3.6,1.2-4.8c0.9,1.2,1.7,3,1.7,4.4c0.1,1.3-1,3.1-1.6,4.6c0,0,0,0,0,0c0.1,0.3,0.2,0.5,0.3,0.8
				c0.1,0.3,0.2,0.5,0.2,0.8c0.2,0.8,0.4,1.7,0.6,2.6c0-1,0-2,0.2-2.8c0.3-1.4,1.6-3.4,2.6-4.4c0.5,1.5,0.7,3.5,0.4,4.9
				c-0.3,1.3-1.9,2.9-3,4.2c0,0.7,0.1,1.5,0,2.2c0,0.7-0.1,1.4-0.2,2c0.3-1,0.7-2,1.1-2.7c0.8-1.3,2.6-2.6,3.9-3.3
				c0,1.6-0.4,3.5-1.2,4.8c-0.7,1.1-2.7,2-4.1,2.9c-0.1,0.5-0.3,1.3-0.4,1.8l0,0c-0.2,0.9-0.6,2.2-1.2,3.7c0.5-0.8,1-1.7,1.6-2.3
				c1-1.1,3.1-2,4.5-2.4c-0.3,1.5-1.2,3.3-2.2,4.4c-0.9,1-3.2,1.4-4.7,2c-0.3,0.7-0.7,1.3-1.1,1.9c-0.4,0.6-0.8,1.1-1.2,1.6
				c0.8-0.7,1.6-1.4,2.3-1.7c1.3-0.7,3.6-0.9,5-0.8c-0.8,1.3-2.2,2.8-3.5,3.5c-1.2,0.6-3.3,0.4-5,0.4c-0.5,0.3-0.9,0.8-1.4,1.1l0,0
				c-0.7,0.6-1.7,1.4-3.1,2.3c0.9-0.4,1.8-0.8,2.6-1c1.5-0.3,3.7,0.1,5.1,0.6c-1.2,1.1-2.9,2.1-4.3,2.4c-1.3,0.3-3.4-0.6-5-1
				c-0.6,0.3-1.3,0.7-2,0.9c-0.6,0.3-1.3,0.5-1.9,0.7c1-0.1,2.1-0.2,2.9-0.1c1.5,0.2,3.5,1.3,4.6,2.2c-1.4,0.6-3.4,1.1-4.9,0.9
				c-1.3-0.2-3-1.6-4.3-2.5c-0.1,0-0.1,0-0.2,0c-0.1,0-0.2,0.1-0.3,0.1c-0.9,0.2-1.8,0.4-2.6,0.7c-0.4,0.1-0.9,0.2-1.3,0.4
				c-0.1,0-0.2,0.1-0.3,0.1c-0.1,0-0.2,0.1-0.3,0.1c-0.2,0.1-0.4,0.2-0.6,0.3c-0.8,0.4-1.5,0.9-2.1,1.5c0,0-0.1,0.1-0.1,0.1
				l-0.1-1.3C-499.9,67.7-499.2,67.3-498.6,66.9z"/>
		</g>
		<g>
			<path fill="#4C9CD0" d="M-497.1,59.3c-8.9,0-16.2-7.2-16.2-16.1c0-8.9,7.2-16.1,16.2-16.1c8.9,0,16.1,7.2,16.1,16.1
				C-481,52.1-488.2,59.3-497.1,59.3z"/>
			<path fill="#66AAD7" d="M-508.6,31.7c-6.3,6.3-6.3,16.5,0,22.8l22.8-22.8C-492,25.5-502.3,25.5-508.6,31.7z"/>
		</g>
	</g>
	<path fill="#2E6186" d="M-497.5,39.3c-15.2,0-30.4,3-44.7,8.9V81c14.3-5.9,29.5-8.9,44.7-8.9c15.2,0,30.4,3,44.7,8.9V48.1
		C-467.1,42.2-482.3,39.3-497.5,39.3z"/>
	<path fill="#517B9A" d="M-497.5,39.3c-15.2,0-30.4,3-44.7,8.9V81c7.7-3.2,15.7-5.5,23.8-7l34-33.9
		C-488.8,39.5-493.1,39.3-497.5,39.3z"/>
</g>
</svg>
