<?xml version="1.0" encoding="utf-8"?>
<!-- Generator: Adobe Illustrator 18.1.1, SVG Export Plug-In . SVG Version: 6.00 Build 0)  -->
<svg version="1.1" id="Layer_1" xmlns="http://www.w3.org/2000/svg" xmlns:xlink="http://www.w3.org/1999/xlink" x="0px" y="0px"
	 viewBox="0 0 175 95.6" enable-background="new 0 0 175 95.6" xml:space="preserve">
<g>
	<polygon opacity="0.2" fill="#231F20" points="-671,1 -671,90.1 -736.2,90.1 -736.2,18.2 -719,1 	"/>
	<polygon fill="#C0E0DE" points="-733.3,92.9 -733.3,45 -733.3,21 -716.1,3.8 -668.2,3.8 -668.2,21.6 -668.2,45 -668.2,92.9 	"/>
	<polygon fill="#FFFFFF" points="-716.1,21 -733.3,21 -716.1,3.8 	"/>
	<polygon fill="#8FC3D5" points="-733.3,21 -716.1,21 -733.3,38.2 	"/>
	<g>
		<defs>
			<polygon id="SVGID_1_" points="-733.3,92.9 -733.3,45 -733.3,21 -716.1,3.8 -668.2,3.8 -668.2,21.6 -668.2,45 -668.2,92.9 			"/>
		</defs>
		<clipPath id="SVGID_2_">
			<use xlink:href="#SVGID_1_"  overflow="visible"/>
		</clipPath>
		<path clip-path="url(#SVGID_2_)" fill="#8FC3D5" d="M-655.7,36l-10.6-10.6l-4.4-4.4l-42.7,42.7c0,0,0,0,0,0l0,19.5l19.5,0
			c0,0,0,0,0,0l42.7-42.7L-655.7,36z"/>
	</g>
	<path fill="#0F3754" d="M-673,17.3l-42.7,42.6c2.6,2,5.9,2.4,8.1,0.8l39-39L-673,17.3z"/>
	<path fill="#174F78" d="M-657.9,32.3l-10.6-10.6l-39,39h0c0,0,0,0,0,0.1c0,0,0,0,0.1-0.1c-1.8,2.4-1.1,6.2,1.6,9
		c2.7,2.7,6.6,3.3,8.9,1.6c0,0,0,0,0,0.1c0,0,0,0,0.1,0v0L-657.9,32.3z"/>
	<path fill="#0F3754" d="M-697,71.3c-1.6,2.1-1.2,5.4,0.8,8.1l42.7-42.6l-4.4-4.4L-697,71.3z"/>
	<path fill="#C0E0DE" d="M-696.1,79.4c-2.1-2.6-2.4-5.9-0.8-8.1v0c0,0,0,0-0.1,0c0,0,0,0,0-0.1c-2.4,1.7-6.2,1.1-8.9-1.6
		c-2.7-2.7-3.3-6.6-1.6-9c0,0,0,0-0.1,0.1c0,0,0,0,0-0.1h0c-2.1,1.6-5.5,1.2-8.1-0.8l0,19.5L-696.1,79.4z"/>
	<path fill="#0F3754" d="M-715.6,69.8l0,9.6l9.6,0c-1.2-1.8-2.7-3.6-4.3-5.2C-712,72.5-713.8,71.1-715.6,69.8z"/>
	
		<rect x="-671.5" y="13.9" transform="matrix(-0.7069 -0.7073 0.7073 -0.7069 -1152.9331 -443.5519)" fill="#0E303F" width="6.3" height="6.5"/>
	
		<rect x="-668.3" y="21.4" transform="matrix(-0.7072 -0.707 0.707 -0.7072 -1145.6469 -425.1903)" fill="#2C5871" width="15" height="6.5"/>
	
		<rect x="-656.5" y="28.9" transform="matrix(-0.707 -0.7072 0.7072 -0.707 -1138.0005 -407.2056)" fill="#0E303F" width="6.3" height="6.5"/>
</g>
<g>
	<g>
		<path fill="#338DC9" d="M-116.9,91.1c-0.5,0-0.9,0.4-0.9,0.9c0,0.5,0.4,0.9,0.9,0.9h18.8c0.5,0,0.9-0.4,0.9-0.9
			c0-0.5-0.4-0.9-0.9-0.9H-116.9L-116.9,91.1z"/>
	</g>
</g>
<path fill="#0071BB" d="M-130.9,45c0-13,10.5-23.4,23.4-23.4c13,0,23.4,10.5,23.4,23.4c0,0.8-0.6,11.6-9.4,23
	c-2.6,3.4-2.2,10.3-2.1,10.3c-3.6,0-6.6,0-10.3,0c-1.1,0-2.2,0-3.3,0c-3.6,0-6.7,0-10.3,0c0,0,0.5-6.9-2.1-10.3
	C-130.4,56.6-130.9,45.8-130.9,45z"/>
<path fill="#338DC9" d="M-107.5,78.3c-3.6,0-8.3,0-12,0c0,0,0.5-6.9-2.1-10.3c-8.8-11.4-9.4-22.2-9.4-23c0-13,10.5-23.4,23.4-23.4"
	/>
<g>
	<path fill="#338DC9" d="M-89,45h-2.1c0-9-7.4-16.4-16.4-16.4v-2.1C-97.3,26.6-89,34.9-89,45L-89,45z"/>
</g>
<g>
	<g>
		<g>
			<polygon fill="#FFFFFF" points="-102.4,80.2 -104.4,79.8 -100.4,55.6 -98.4,55.9 -102.4,80.2 			"/>
		</g>
		<g>
			<polygon fill="#FFFFFF" points="-112.6,80.2 -116.6,55.9 -114.6,55.6 -110.6,79.8 -112.6,80.2 			"/>
		</g>
	</g>
	<g>
		<path fill="#FFFFFF" d="M-99.5,59c-0.8,0-1.2-0.8-1.5-1.4c-0.1-0.2-0.3-0.8-0.5-0.8c-0.1,0-0.3,0.5-0.4,0.7
			c-0.2,0.6-0.6,1.5-1.6,1.5c-0.6,0-0.9-0.6-1.3-1.3c-0.1-0.3-0.4-0.7-0.6-0.9c-0.1,0.2-0.4,0.5-0.5,0.7c-0.4,0.7-0.8,1.4-1.5,1.4
			c-0.6,0-1-0.7-1.4-1.4c-0.1-0.2-0.4-0.6-0.5-0.8c-0.2,0.2-0.4,0.6-0.5,0.8c-0.4,0.7-0.8,1.3-1.4,1.3c-0.7,0-1.1-0.7-1.6-1.5
			c-0.1-0.2-0.3-0.6-0.5-0.7c-0.2,0.1-0.3,0.3-0.5,0.8c-0.2,0.6-0.5,1.4-1.4,1.4v-1.1c0.1,0,0.3-0.5,0.4-0.7
			c0.2-0.6,0.6-1.5,1.6-1.5c0.6,0,0.9,0.6,1.3,1.3c0.2,0.3,0.4,0.7,0.6,0.9c0.1-0.2,0.4-0.5,0.5-0.7c0.4-0.7,0.8-1.4,1.5-1.4
			c0.6,0,1,0.7,1.4,1.4c0.1,0.2,0.4,0.6,0.5,0.8c0.2-0.2,0.4-0.6,0.5-0.8c0.4-0.7,0.8-1.3,1.4-1.3c0.7,0,1.1,0.7,1.6,1.5
			c0.1,0.2,0.3,0.6,0.5,0.7c0.2-0.1,0.3-0.3,0.5-0.8c0.2-0.6,0.5-1.4,1.4-1.4c0.8,0,1.2,0.8,1.5,1.4c0.1,0.3,0.3,0.8,0.5,0.8V59
			L-99.5,59z"/>
	</g>
</g>
<path fill="#0071BB" d="M-95.6,78.4v12.3c0,0.8-0.7,1.5-1.5,1.5h-20.8c-0.8,0-1.5-0.7-1.5-1.5V78.4H-95.6z"/>
<g>
	<g>
		<line fill="#338DC9" x1="-95.1" y1="79.5" x2="-119.9" y2="79.5"/>
		<path fill="#338DC9" d="M-95.1,80.7h-24.8c-0.7,0-1.2-0.5-1.2-1.2c0-0.7,0.5-1.2,1.2-1.2h24.8c0.7,0,1.2,0.5,1.2,1.2
			C-93.9,80.2-94.4,80.7-95.1,80.7L-95.1,80.7z"/>
	</g>
	<g>
		<line fill="#338DC9" x1="-95.1" y1="83.5" x2="-119.9" y2="83.5"/>
		<path fill="#338DC9" d="M-95.1,84.7h-24.8c-0.7,0-1.2-0.5-1.2-1.2c0-0.7,0.5-1.2,1.2-1.2h24.8c0.7,0,1.2,0.5,1.2,1.2
			C-93.9,84.2-94.4,84.7-95.1,84.7L-95.1,84.7z"/>
	</g>
	<g>
		<line fill="#338DC9" x1="-95.1" y1="87.5" x2="-119.9" y2="87.5"/>
		<path fill="#338DC9" d="M-95.1,88.8h-24.8c-0.7,0-1.2-0.5-1.2-1.2c0-0.7,0.5-1.2,1.2-1.2h24.8c0.7,0,1.2,0.5,1.2,1.2
			C-93.9,88.2-94.4,88.8-95.1,88.8L-95.1,88.8z"/>
	</g>
</g>
<g>
	<g>
		<path fill="#0071BB" d="M-107.5,13.9c-0.3,0-0.6-0.3-0.6-0.6V0.5c0-0.3,0.3-0.6,0.6-0.6c0.3,0,0.6,0.3,0.6,0.6v12.9
			C-106.9,13.7-107.2,13.9-107.5,13.9L-107.5,13.9z"/>
	</g>
	<g>
		<path fill="#0071BB" d="M-123.9,18.4c-0.2,0-0.4-0.1-0.5-0.3l-6.4-11.2c-0.2-0.3-0.1-0.7,0.2-0.8c0.3-0.2,0.7-0.1,0.8,0.2
			l6.4,11.2c0.2,0.3,0.1,0.7-0.2,0.8C-123.7,18.3-123.8,18.4-123.9,18.4L-123.9,18.4z"/>
	</g>
	<g>
		<path fill="#0071BB" d="M-135.9,30.4c-0.1,0-0.2,0-0.3-0.1l-11.2-6.4c-0.3-0.2-0.4-0.5-0.2-0.8c0.2-0.3,0.5-0.4,0.8-0.2l11.2,6.4
			c0.3,0.2,0.4,0.5,0.2,0.8C-135.5,30.3-135.7,30.4-135.9,30.4L-135.9,30.4z"/>
	</g>
	<g>
		<path fill="#0071BB" d="M-140.3,46.8h-12.9c-0.3,0-0.6-0.3-0.6-0.6c0-0.3,0.3-0.6,0.6-0.6h12.9c0.3,0,0.6,0.3,0.6,0.6
			C-139.7,46.5-140,46.8-140.3,46.8L-140.3,46.8z"/>
	</g>
	<g>
		<path fill="#0071BB" d="M-67.9,69.6c-0.1,0-0.2,0-0.3-0.1l-11.2-6.4c-0.3-0.2-0.4-0.5-0.2-0.8c0.2-0.3,0.5-0.4,0.8-0.2l11.2,6.4
			c0.3,0.2,0.4,0.5,0.2,0.8C-67.5,69.5-67.7,69.6-67.9,69.6L-67.9,69.6z"/>
	</g>
	<g>
		<path fill="#0071BB" d="M-61.8,46.8h-12.9c-0.3,0-0.6-0.3-0.6-0.6s0.3-0.6,0.6-0.6h12.9c0.3,0,0.6,0.3,0.6,0.6
			S-61.4,46.8-61.8,46.8L-61.8,46.8z"/>
	</g>
	<g>
		<path fill="#0071BB" d="M-79.1,30.4c-0.2,0-0.4-0.1-0.5-0.3c-0.2-0.3-0.1-0.7,0.2-0.8l11.2-6.4c0.3-0.2,0.7-0.1,0.8,0.2
			c0.2,0.3,0.1,0.7-0.2,0.8l-11.2,6.4C-78.9,30.3-79,30.4-79.1,30.4L-79.1,30.4z"/>
	</g>
	<g>
		<path fill="#0071BB" d="M-91.1,18.3c-0.1,0-0.2,0-0.3-0.1c-0.3-0.2-0.4-0.5-0.2-0.8l6.4-11.2C-85,6-84.6,5.9-84.3,6
			c0.3,0.2,0.4,0.5,0.2,0.8L-90.6,18C-90.7,18.2-90.9,18.3-91.1,18.3L-91.1,18.3z"/>
	</g>
	<g>
		<path fill="#0071BB" d="M-107.5,13.9c-0.3,0-0.6-0.3-0.6-0.6V0.5c0-0.3,0.3-0.6,0.6-0.6c0.3,0,0.6,0.3,0.6,0.6v12.9
			C-106.9,13.7-107.2,13.9-107.5,13.9L-107.5,13.9z"/>
	</g>
</g>
<g>
	<g>
		<path fill="#0071BB" d="M-107.5,13.9c-0.3,0-0.6-0.3-0.6-0.6V0.5c0-0.3,0.3-0.6,0.6-0.6s0.6,0.3,0.6,0.6v12.9
			C-106.9,13.7-107.2,13.9-107.5,13.9L-107.5,13.9z"/>
	</g>
	<g>
		<path fill="#0071BB" d="M-91.1,18.4c-0.1,0-0.2,0-0.3-0.1c-0.3-0.2-0.4-0.5-0.2-0.8l6.4-11.2c0.2-0.3,0.5-0.4,0.8-0.2
			c0.3,0.2,0.4,0.5,0.2,0.8L-90.5,18C-90.7,18.2-90.9,18.4-91.1,18.4L-91.1,18.4z"/>
	</g>
	<g>
		<path fill="#0071BB" d="M-79.1,30.4c-0.2,0-0.4-0.1-0.5-0.3c-0.2-0.3-0.1-0.7,0.2-0.8l11.2-6.4c0.3-0.2,0.7-0.1,0.8,0.2
			c0.2,0.3,0.1,0.7-0.2,0.8l-11.2,6.4C-78.9,30.3-79,30.4-79.1,30.4L-79.1,30.4z"/>
	</g>
	<g>
		<path fill="#0071BB" d="M-61.8,46.8h-12.9c-0.3,0-0.6-0.3-0.6-0.6c0-0.3,0.3-0.6,0.6-0.6h12.9c0.3,0,0.6,0.3,0.6,0.6
			C-61.2,46.5-61.4,46.8-61.8,46.8L-61.8,46.8z"/>
	</g>
	<g>
		<path fill="#0071BB" d="M-147.1,69.6c-0.2,0-0.4-0.1-0.5-0.3c-0.2-0.3-0.1-0.7,0.2-0.8l11.2-6.4c0.3-0.2,0.7-0.1,0.8,0.2
			c0.2,0.3,0.1,0.7-0.2,0.8l-11.2,6.4C-146.9,69.6-147,69.6-147.1,69.6L-147.1,69.6z"/>
	</g>
	<g>
		<path fill="#0071BB" d="M-140.3,46.8h-12.9c-0.3,0-0.6-0.3-0.6-0.6s0.3-0.6,0.6-0.6h12.9c0.3,0,0.6,0.3,0.6,0.6
			S-140,46.8-140.3,46.8L-140.3,46.8z"/>
	</g>
	<g>
		<path fill="#0071BB" d="M-135.9,30.4c-0.1,0-0.2,0-0.3-0.1l-11.2-6.4c-0.3-0.2-0.4-0.5-0.2-0.8c0.2-0.3,0.5-0.4,0.8-0.2l11.2,6.4
			c0.3,0.2,0.4,0.5,0.2,0.8C-135.5,30.2-135.7,30.4-135.9,30.4L-135.9,30.4z"/>
	</g>
	<g>
		<path fill="#0071BB" d="M-123.9,18.3c-0.2,0-0.4-0.1-0.5-0.3l-6.4-11.2c-0.2-0.3-0.1-0.7,0.2-0.8c0.3-0.2,0.7-0.1,0.8,0.2
			l6.4,11.2c0.2,0.3,0.1,0.7-0.2,0.8C-123.7,18.3-123.8,18.3-123.9,18.3L-123.9,18.3z"/>
	</g>
	<g>
		<path fill="#0071BB" d="M-107.5,13.9c-0.3,0-0.6-0.3-0.6-0.6V0.5c0-0.3,0.3-0.6,0.6-0.6s0.6,0.3,0.6,0.6v12.9
			C-106.9,13.7-107.2,13.9-107.5,13.9L-107.5,13.9z"/>
	</g>
</g>
<g>
	<g>
		<path fill="#338DC9" d="M1053.1,91.1c-0.5,0-0.9,0.4-0.9,0.9c0,0.5,0.4,0.9,0.9,0.9h18.8c0.5,0,0.9-0.4,0.9-0.9
			c0-0.5-0.4-0.9-0.9-0.9H1053.1L1053.1,91.1z"/>
	</g>
</g>
<path fill="#0071BB" d="M1039.1,45.1c0-13,10.5-23.4,23.4-23.4c13,0,23.4,10.5,23.4,23.4c0,0.8-0.6,11.6-9.4,23
	c-2.6,3.4-2.2,10.3-2.1,10.3c-3.6,0-6.6,0-10.3,0c-1.1,0-2.2,0-3.3,0c-3.6,0-6.7,0-10.3,0c0,0,0.5-6.9-2.1-10.3
	C1039.6,56.6,1039.1,45.8,1039.1,45.1z"/>
<path fill="#338DC9" d="M1062.5,78.4c-3.6,0-8.3,0-12,0c0,0,0.5-6.9-2.1-10.3c-8.8-11.4-9.4-22.2-9.4-23c0-13,10.5-23.4,23.4-23.4"
	/>
<g>
	<path fill="#338DC9" d="M1081,45h-2.1c0-9-7.4-16.4-16.4-16.4v-2.1C1072.7,26.6,1081,34.9,1081,45L1081,45z"/>
</g>
<g>
	<g>
		<g>
			<polygon fill="#FFFFFF" points="1067.6,80.2 1065.6,79.9 1069.6,55.6 1071.6,56 1067.6,80.2 			"/>
		</g>
		<g>
			<polygon fill="#FFFFFF" points="1057.4,80.2 1053.4,56 1055.4,55.6 1059.4,79.9 1057.4,80.2 			"/>
		</g>
	</g>
	<g>
		<path fill="#FFFFFF" d="M1070.5,59c-0.8,0-1.2-0.8-1.5-1.4c-0.1-0.2-0.3-0.8-0.5-0.8c-0.1,0-0.3,0.5-0.4,0.7
			c-0.2,0.6-0.6,1.5-1.6,1.5c-0.6,0-0.9-0.6-1.3-1.3c-0.1-0.3-0.4-0.7-0.6-0.9c-0.1,0.2-0.4,0.5-0.5,0.7c-0.4,0.7-0.8,1.4-1.5,1.4
			c-0.6,0-1-0.7-1.4-1.4c-0.1-0.2-0.4-0.6-0.5-0.8c-0.2,0.2-0.4,0.6-0.5,0.8c-0.4,0.7-0.8,1.3-1.4,1.3c-0.7,0-1.1-0.7-1.6-1.5
			c-0.1-0.2-0.3-0.6-0.5-0.7c-0.2,0.1-0.3,0.3-0.5,0.8c-0.2,0.6-0.5,1.4-1.4,1.4v-1.1c0.1,0,0.3-0.5,0.4-0.7
			c0.2-0.6,0.6-1.5,1.6-1.5c0.6,0,0.9,0.6,1.3,1.3c0.2,0.3,0.4,0.7,0.6,0.9c0.1-0.2,0.4-0.5,0.5-0.7c0.4-0.7,0.8-1.4,1.5-1.4
			c0.6,0,1,0.7,1.4,1.4c0.1,0.2,0.4,0.6,0.5,0.8c0.2-0.2,0.4-0.6,0.5-0.8c0.4-0.7,0.8-1.3,1.4-1.3c0.7,0,1.1,0.7,1.6,1.5
			c0.1,0.2,0.3,0.6,0.5,0.7c0.2-0.1,0.3-0.3,0.5-0.8c0.2-0.6,0.5-1.4,1.4-1.4c0.8,0,1.2,0.8,1.5,1.4c0.1,0.3,0.3,0.8,0.5,0.8V59
			L1070.5,59z"/>
	</g>
</g>
<path fill="#0071BB" d="M1074.4,78.4v12.3c0,0.8-0.7,1.5-1.5,1.5h-20.8c-0.8,0-1.5-0.7-1.5-1.5V78.4H1074.4z"/>
<g>
	<g>
		<line fill="#338DC9" x1="1074.9" y1="79.6" x2="1050.1" y2="79.6"/>
		<path fill="#338DC9" d="M1074.9,80.8h-24.8c-0.7,0-1.2-0.5-1.2-1.2c0-0.7,0.5-1.2,1.2-1.2h24.8c0.7,0,1.2,0.5,1.2,1.2
			C1076.1,80.2,1075.6,80.8,1074.9,80.8L1074.9,80.8z"/>
	</g>
	<g>
		<line fill="#338DC9" x1="1074.9" y1="83.6" x2="1050.1" y2="83.6"/>
		<path fill="#338DC9" d="M1074.9,84.8h-24.8c-0.7,0-1.2-0.5-1.2-1.2c0-0.7,0.5-1.2,1.2-1.2h24.8c0.7,0,1.2,0.5,1.2,1.2
			C1076.1,84.2,1075.6,84.8,1074.9,84.8L1074.9,84.8z"/>
	</g>
	<g>
		<line fill="#338DC9" x1="1074.9" y1="87.6" x2="1050.1" y2="87.6"/>
		<path fill="#338DC9" d="M1074.9,88.8h-24.8c-0.7,0-1.2-0.5-1.2-1.2c0-0.7,0.5-1.2,1.2-1.2h24.8c0.7,0,1.2,0.5,1.2,1.2
			C1076.1,88.2,1075.6,88.8,1074.9,88.8L1074.9,88.8z"/>
	</g>
</g>
<g>
	<g>
		<path fill="#0071BB" d="M1062.5,14c-0.3,0-0.6-0.3-0.6-0.6V0.5c0-0.3,0.3-0.6,0.6-0.6s0.6,0.3,0.6,0.6v12.9
			C1063.1,13.7,1062.8,14,1062.5,14L1062.5,14z"/>
	</g>
	<g>
		<path fill="#0071BB" d="M1046.1,18.4c-0.2,0-0.4-0.1-0.5-0.3l-6.4-11.2c-0.2-0.3-0.1-0.7,0.2-0.8c0.3-0.2,0.7-0.1,0.8,0.2
			l6.4,11.2c0.2,0.3,0.1,0.7-0.2,0.8C1046.3,18.3,1046.2,18.4,1046.1,18.4L1046.1,18.4z"/>
	</g>
	<g>
		<path fill="#0071BB" d="M1034.1,30.4c-0.1,0-0.2,0-0.3-0.1l-11.2-6.4c-0.3-0.2-0.4-0.5-0.2-0.8c0.2-0.3,0.5-0.4,0.8-0.2l11.2,6.4
			c0.3,0.2,0.4,0.5,0.2,0.8C1034.5,30.3,1034.3,30.4,1034.1,30.4L1034.1,30.4z"/>
	</g>
	<g>
		<path fill="#0071BB" d="M1029.7,46.8h-12.9c-0.3,0-0.6-0.3-0.6-0.6c0-0.3,0.3-0.6,0.6-0.6h12.9c0.3,0,0.6,0.3,0.6,0.6
			C1030.3,46.5,1030,46.8,1029.7,46.8L1029.7,46.8z"/>
	</g>
	<g>
		<path fill="#0071BB" d="M1102.1,69.6c-0.1,0-0.2,0-0.3-0.1l-11.2-6.4c-0.3-0.2-0.4-0.5-0.2-0.8c0.2-0.3,0.5-0.4,0.8-0.2l11.2,6.4
			c0.3,0.2,0.4,0.5,0.2,0.8C1102.5,69.5,1102.3,69.6,1102.1,69.6L1102.1,69.6z"/>
	</g>
	<g>
		<path fill="#0071BB" d="M1108.2,46.8h-12.9c-0.3,0-0.6-0.3-0.6-0.6c0-0.3,0.3-0.6,0.6-0.6h12.9c0.3,0,0.6,0.3,0.6,0.6
			C1108.8,46.5,1108.6,46.8,1108.2,46.8L1108.2,46.8z"/>
	</g>
	<g>
		<path fill="#0071BB" d="M1090.9,30.4c-0.2,0-0.4-0.1-0.5-0.3c-0.2-0.3-0.1-0.7,0.2-0.8l11.2-6.4c0.3-0.2,0.7-0.1,0.8,0.2
			c0.2,0.3,0.1,0.7-0.2,0.8l-11.2,6.4C1091.1,30.3,1091,30.4,1090.9,30.4L1090.9,30.4z"/>
	</g>
	<g>
		<path fill="#0071BB" d="M1078.9,18.4c-0.1,0-0.2,0-0.3-0.1c-0.3-0.2-0.4-0.5-0.2-0.8l6.4-11.2c0.2-0.3,0.5-0.4,0.8-0.2
			c0.3,0.2,0.4,0.5,0.2,0.8l-6.4,11.2C1079.3,18.3,1079.1,18.4,1078.9,18.4L1078.9,18.4z"/>
	</g>
	<g>
		<path fill="#0071BB" d="M1062.5,14c-0.3,0-0.6-0.3-0.6-0.6V0.5c0-0.3,0.3-0.6,0.6-0.6s0.6,0.3,0.6,0.6v12.9
			C1063.1,13.7,1062.8,14,1062.5,14L1062.5,14z"/>
	</g>
</g>
<g>
	<g>
		<path fill="#0071BB" d="M1062.5,14c-0.3,0-0.6-0.3-0.6-0.6V0.5c0-0.3,0.3-0.6,0.6-0.6s0.6,0.3,0.6,0.6v12.9
			C1063.1,13.7,1062.8,14,1062.5,14L1062.5,14z"/>
	</g>
	<g>
		<path fill="#0071BB" d="M1078.9,18.4c-0.1,0-0.2,0-0.3-0.1c-0.3-0.2-0.4-0.5-0.2-0.8l6.4-11.2c0.2-0.3,0.5-0.4,0.8-0.2
			c0.3,0.2,0.4,0.5,0.2,0.8l-6.4,11.2C1079.3,18.3,1079.1,18.4,1078.9,18.4L1078.9,18.4z"/>
	</g>
	<g>
		<path fill="#0071BB" d="M1090.9,30.4c-0.2,0-0.4-0.1-0.5-0.3c-0.2-0.3-0.1-0.7,0.2-0.8l11.2-6.4c0.3-0.2,0.7-0.1,0.8,0.2
			c0.2,0.3,0.1,0.7-0.2,0.8l-11.2,6.4C1091.1,30.4,1091,30.4,1090.9,30.4L1090.9,30.4z"/>
	</g>
	<g>
		<path fill="#0071BB" d="M1108.2,46.8h-12.9c-0.3,0-0.6-0.3-0.6-0.6c0-0.3,0.3-0.6,0.6-0.6h12.9c0.3,0,0.6,0.3,0.6,0.6
			C1108.8,46.5,1108.6,46.8,1108.2,46.8L1108.2,46.8z"/>
	</g>
	<g>
		<path fill="#0071BB" d="M1022.9,69.6c-0.2,0-0.4-0.1-0.5-0.3c-0.2-0.3-0.1-0.7,0.2-0.8l11.2-6.4c0.3-0.2,0.7-0.1,0.8,0.2
			c0.2,0.3,0.1,0.7-0.2,0.8l-11.2,6.4C1023.1,69.6,1023,69.6,1022.9,69.6L1022.9,69.6z"/>
	</g>
	<g>
		<path fill="#0071BB" d="M1029.7,46.8h-12.9c-0.3,0-0.6-0.3-0.6-0.6c0-0.3,0.3-0.6,0.6-0.6h12.9c0.3,0,0.6,0.3,0.6,0.6
			C1030.3,46.5,1030,46.8,1029.7,46.8L1029.7,46.8z"/>
	</g>
	<g>
		<path fill="#0071BB" d="M1034.1,30.4c-0.1,0-0.2,0-0.3-0.1l-11.2-6.4c-0.3-0.2-0.4-0.5-0.2-0.8c0.2-0.3,0.5-0.4,0.8-0.2l11.2,6.4
			c0.3,0.2,0.4,0.5,0.2,0.8C1034.5,30.3,1034.3,30.4,1034.1,30.4L1034.1,30.4z"/>
	</g>
	<g>
		<path fill="#0071BB" d="M1046.1,18.4c-0.2,0-0.4-0.1-0.5-0.3l-6.4-11.2c-0.2-0.3-0.1-0.7,0.2-0.8c0.3-0.2,0.7-0.1,0.8,0.2
			l6.4,11.2c0.2,0.3,0.1,0.7-0.2,0.8C1046.3,18.3,1046.2,18.4,1046.1,18.4L1046.1,18.4z"/>
	</g>
	<g>
		<path fill="#0071BB" d="M1062.5,14c-0.3,0-0.6-0.3-0.6-0.6V0.5c0-0.3,0.3-0.6,0.6-0.6s0.6,0.3,0.6,0.6v12.9
			C1063.1,13.7,1062.8,14,1062.5,14L1062.5,14z"/>
	</g>
</g>
<g>
	<g>
		<g>
			<path fill="#0072BC" d="M-448.3,13.4h-9.6L-468.3,0h-33.3l-10.5,13.4h-34.6c-4.1,0-7.4,3.3-7.4,7.4v64.4c0,4.1,3.3,7.4,7.4,7.4
				h98.5c4.1,0,7.4-3.3,7.4-7.4V20.7C-440.9,16.7-444.2,13.4-448.3,13.4z"/>
			<path fill="#FFFFFF" d="M-458.6,52.9c0,14.5-11.8,26.3-26.3,26.3c-14.6,0-26.3-11.8-26.3-26.3c0-14.6,11.8-26.4,26.3-26.4
				C-470.4,26.6-458.6,38.4-458.6,52.9z"/>
			<path fill="#0E303F" d="M-462.2,52.9c0,12.6-10.2,22.8-22.8,22.8c-12.6,0-22.8-10.2-22.8-22.8c0-12.6,10.2-22.8,22.8-22.8
				C-472.4,30.1-462.2,40.3-462.2,52.9z"/>
			<path fill="#80B8DD" d="M-468,52.9c0,9.3-7.6,16.9-16.9,16.9c-9.4,0-16.9-7.6-16.9-16.9c0-9.4,7.6-16.9,16.9-16.9
				C-475.6,36-468,43.6-468,52.9z"/>
			<path fill="#FFFFFF" d="M-484.1,46c0,3.3-2.7,6-6,6c-3.3,0-6-2.7-6-6c0-3.3,2.7-6,6-6C-486.8,40-484.1,42.7-484.1,46z"/>
			<path fill="#FFFFFF" d="M-492.9,55.4c0,1.9-1.5,3.4-3.4,3.4c-1.9,0-3.4-1.5-3.4-3.4c0-1.9,1.5-3.4,3.4-3.4
				C-494.4,52-492.9,53.5-492.9,55.4z"/>
			<path fill="#175079" d="M-544.1,18.4c-2.8,0-5.3-1.6-6.5-3.9c-2.1,1.3-3.5,3.6-3.5,6.3v64.4c0,4.1,3.3,7.4,7.4,7.4h20.6V18.4
				H-544.1z"/>
			<path fill="#175079" d="M-526.1,13.2c0,1.2-1,2.1-2.1,2.1h-14.4c-1.2,0-2.1-1-2.1-2.1v-1.1c0-1.2,1-2.1,2.1-2.1h14.4
				c1.2,0,2.1,1,2.1,2.1V13.2z"/>
			<path fill="#FFFFFF" d="M-469.2,9.2c0,1.2-1,2.2-2.2,2.2H-499c-1.2,0-2.2-1-2.2-2.2V4.8c0-1.2,1-2.2,2.2-2.2h27.6
				c1.2,0,2.2,1,2.2,2.2V9.2z"/>
		</g>
	</g>
</g>
<g>
	<path fill="#0071BB" d="M114.3,69.3c-4.5,3.4-6.7,7.4-6.7,12c0,3.5,1.3,6.3,4,8.5c2.7,2.1,5.8,3.2,9.5,3.2c2.9,0,6.2-0.8,9.8-2.4
		c1.7-0.7,3.5-1.6,5.3-2.7v-3.1c-0.8,0.5-1.6,0.9-2.4,1.3c-2.8,1.4-5.2,2.1-7.3,2.1c-2.3,0-4.3-0.9-5.7-2.6c-1.5-1.7-2.2-4-2.2-6.8
		c0-7.1,5.7-12.9,17.2-17.6l0.4-0.2v-3.1l-3.5,1.4C125,62.6,118.8,65.9,114.3,69.3z M131.9,34.8c-7.6,0-13.2,1.4-16.8,4.4
		c-3.6,2.9-5.4,5.6-5.4,8.1c0,2.6,1.3,3.9,4.1,3.9c3,0,4.9-2.3,5.6-6.8c0.8-4.4,4.5-6.6,11.1-6.6c2.2,0,4.1,0.3,5.7,0.9V35
		C134.9,34.9,133.5,34.8,131.9,34.8z"/>
	<path fill="#0071BB" d="M56.7,28.5V0h-1.2L29.3,62.6c-1.9,4.5-3,7.1-3.2,7.7C23.3,77.4,21,82,19,84.2c-2,2.2-4.9,3.6-8.9,4.2v3.1
		h26.8v-3.1c-2.9,0-5.2-0.7-7.1-2.1c-1.8-1.4-2.8-3.5-2.8-6.2c0-2.5,1.7-7.9,5.2-16.2l2.3-5.7h22.1v-3H35.9l15.9-38.5L56.7,28.5z"/>
	<path fill="#175079" d="M103.2,88.5v3.1H67.8v-3.1c4.3,0,7.3-0.3,8.8-1c1.5-0.6,2.3-1.9,2.3-3.8c0-1-1-3.9-3.1-8.7l-6.9-16.7H56.7
		v-3h11.1L56.7,28.5V0h1.4l30.2,71.7l4.1,9.4c0.9,2.1,2.2,3.8,3.8,5C97.7,87.4,100.1,88.2,103.2,88.5z"/>
	<path fill="#175079" d="M164.9,81.5c-0.4,7.6-4.1,11.4-11.2,11.4c-3,0-5.4-0.8-7.2-2.4c-1.8-1.6-2.9-4-3.4-7.1
		c-2.4,1.7-4.7,3.2-6.8,4.4v-3.1c2.1-1.3,4.4-2.9,6.8-4.9V58.2l-6.8,2.8v-3.1l6.8-2.8v-2.7c0-3.8-0.2-6.5-0.7-8.2s-1.8-3.2-3.8-4.5
		c-0.7-0.5-1.5-0.8-2.3-1.1V35c3.6,0.4,6.5,1.2,8.8,2.5c3.1,1.8,5.2,3.8,6.2,6.1c1,2.3,1.5,5.7,1.5,10.4v22c0,5.2,0.3,8.5,0.8,9.9
		c0.5,1.5,1.7,2.2,3.5,2.2c2.9,0,4.8-2.2,5.5-6.5H164.9z"/>
</g>
<g>
	<g>
		<path fill="#0072BC" d="M-321.5,24.4c-21,0-37.9,13.4-37.9,29.9c0,11.9,8.9,22.2,21.7,27c-0.3,0.5-0.5,1.1-0.8,1.6
			c-2.5,4.2-6.2,7.4-10.5,9.5c9.7,0.7,18.6-2.2,24.6-8.3c1,0.1,2,0.1,3,0.1c20.9,0,37.9-13.4,37.9-29.9
			C-283.6,37.8-300.5,24.4-321.5,24.4z"/>
		<path fill="#175079" d="M-295.4,76c-23.5-0.5-42.3-15.7-42.3-34.3c0-5.8,1.8-11.2,5-16c3.5-0.9,7.3-1.3,11.1-1.3
			c20.9,0,37.9,13.4,37.9,29.9C-283.6,62.9-288.1,70.6-295.4,76z"/>
		<path fill="#99C6E4" d="M-289.1-0.1c24,0,43.5,15.4,43.5,34.3c0,13.7-10.2,25.5-24.9,31c0.3,0.6,0.5,1.2,0.9,1.8
			c2.9,4.8,7.1,8.5,12.1,10.9c-11.1,0.8-21.4-2.5-28.2-9.5c-1.1,0.1-2.3,0.1-3.4,0.1c-24,0-43.5-15.4-43.5-34.3
			S-313.1-0.1-289.1-0.1z"/>
		<path fill="#CCE3F1" d="M-245.6,34.3c-0.1,13.6-10.2,25.4-24.9,30.9c0.3,0.6,0.5,1.2,0.9,1.8c2.9,4.8,7.1,8.5,12.1,10.9
			c-11.1,0.8-21.4-2.5-28.2-9.5c-1.1,0.1-2.3,0.1-3.4,0.1c-24,0-43.4-15.3-43.5-34.2H-245.6z"/>
		<g>
			<g>
				<path fill="#1980C2" d="M-276.6,34.8c0,3.4,2.7,6.1,6.1,6.1c3.4,0,6.1-2.7,6.1-6.1c0-3.4-2.7-6.1-6.1-6.1
					C-273.9,28.7-276.6,31.5-276.6,34.8z"/>
				<path fill="#1980C2" d="M-295.3,34.8c0,3.4,2.7,6.1,6.1,6.1c3.4,0,6.1-2.7,6.1-6.1c0-3.4-2.7-6.1-6.1-6.1
					C-292.6,28.7-295.3,31.5-295.3,34.8z"/>
				<path fill="#1980C2" d="M-314.1,34.8c0,3.4,2.7,6.1,6.1,6.1c3.4,0,6.1-2.7,6.1-6.1c0-3.4-2.7-6.1-6.1-6.1
					C-311.3,28.7-314.1,31.5-314.1,34.8z"/>
			</g>
			<g>
				<path fill="#0072BC" d="M-264.4,34.3h-12.1c0.3-3.1,2.9-5.6,6.1-5.6C-267.3,28.7-264.7,31.2-264.4,34.3z"/>
				<path fill="#0072BC" d="M-283.2,34.3h-12.1c0.3-3.1,2.9-5.6,6.1-5.6C-286,28.7-283.4,31.2-283.2,34.3z"/>
				<path fill="#0072BC" d="M-301.9,34.3H-314c0.3-3.1,2.9-5.6,6.1-5.6C-304.8,28.7-302.2,31.2-301.9,34.3z"/>
			</g>
		</g>
	</g>
</g>
<path fill="#B06E59" d="M622,85.1c-0.1-0.2-0.2-0.5-0.3-0.7C621.9,84.6,621.9,84.8,622,85.1z"/>
<g>
	<g>
		<g>
			<g>
				<path fill="#30363D" d="M414.6,87.2c-0.9,0-1.7-0.3-2.3-1c-0.6-0.6-1-1.4-1-2.3l0-80.6c0-0.9,0.3-1.7,1-2.3c0.6-0.6,1.4-1,2.3-1
					h127.5c0.9,0,1.7,0.3,2.3,1c0.6,0.6,1,1.4,1,2.3v80.6c0,0.9-0.3,1.7-1,2.3c-0.6,0.6-1.4,1-2.3,1H414.6z"/>
				<path fill="#30363D" d="M544.5,1c-0.6-0.6-1.5-1-2.3-1H414.6c-0.9,0-1.7,0.3-2.3,1c-0.6,0.6-1,1.5-1,2.3l0,80.6
					c0,0.9,0.3,1.7,1,2.3c0.6,0.6,1.5,1,2.3,1h127.5c0.9,0,1.7-0.3,2.3-1c0.6-0.6,1-1.5,1-2.3V3.3C545.4,2.4,545.1,1.6,544.5,1z
					 M545.3,83.9c0,0.8-0.3,1.6-0.9,2.2c-0.6,0.6-1.4,0.9-2.2,0.9H414.6c-0.8,0-1.6-0.3-2.2-0.9c-0.6-0.6-0.9-1.4-0.9-2.2l0-80.6
					c0-0.8,0.3-1.6,0.9-2.2c0.6-0.6,1.4-0.9,2.2-0.9h127.5c0.8,0,1.6,0.3,2.2,0.9c0.6,0.6,0.9,1.4,0.9,2.2V83.9z"/>
			</g>
		</g>
	</g>
	<g>
		<g>
			<rect x="417.2" y="5.9" fill="#FFFFFF" width="122.4" height="80.6"/>
		</g>
	</g>
	<path fill="#565E6A" d="M561.7,84.3c0-0.4-1.6-0.7-2-0.7h-6h-1H397c-0.4,0-2,0.2-2,0.7v5.9h0c2.2,2.7,3.9,2.1,5.1,2.3h12.2l1.8,0v0
		l64.2,0l66,0h12.2c1.1-0.1,2.9,0.4,5.1-2.3h0c0-0.1,0-0.1,0-0.2L561.7,84.3L561.7,84.3z"/>
	<g>
		<rect x="419.9" y="22.1" fill="#0072BC" width="35.7" height="18.6"/>
		<rect x="460.1" y="22.1" fill="#174F78" width="35.7" height="18.6"/>
		<rect x="500.3" y="22.1" fill="#8FC1E1" width="35.7" height="18.6"/>
		<rect x="419.9" y="46" fill="#0072BC" width="35.7" height="4"/>
		<rect x="460.1" y="46" fill="#174F78" width="35.7" height="4"/>
		<rect x="500.3" y="46" fill="#8FC1E1" width="35.7" height="4"/>
		<g>
			<rect x="429.8" y="10.9" fill="#CDD5D7" width="23.8" height="2.6"/>
			<circle fill="#CDD5D7" cx="423.3" cy="12.2" r="3.4"/>
		</g>
		<rect x="524.2" y="11.7" fill="#CDD5D7" width="11.8" height="1.1"/>
		<rect x="510.9" y="11.7" fill="#CDD5D7" width="11.8" height="1.1"/>
		<rect x="497.6" y="11.7" fill="#CDD5D7" width="11.8" height="1.1"/>
		<rect x="484.4" y="11.7" fill="#CDD5D7" width="11.8" height="1.1"/>
		<rect x="471.1" y="11.7" fill="#CDD5D7" width="11.8" height="1.1"/>
		<g>
			<rect x="419.9" y="60.3" fill="#CDD5D7" width="35.7" height="1"/>
			<rect x="419.9" y="63.9" fill="#CDD5D7" width="35.7" height="1"/>
			<rect x="419.9" y="67.6" fill="#CDD5D7" width="35.7" height="1"/>
			<rect x="419.9" y="71.2" fill="#CDD5D7" width="35.7" height="1"/>
			<rect x="419.9" y="74.8" fill="#CDD5D7" width="25.5" height="1"/>
			<rect x="419.9" y="54.2" fill="#CDD5D7" width="23.8" height="2.6"/>
		</g>
		<g>
			<rect x="460.1" y="60.3" fill="#CDD5D7" width="35.7" height="1"/>
			<rect x="460.1" y="63.9" fill="#CDD5D7" width="35.7" height="1"/>
			<rect x="460.1" y="67.6" fill="#CDD5D7" width="35.7" height="1"/>
			<rect x="460.1" y="71.2" fill="#CDD5D7" width="35.7" height="1"/>
			<rect x="460.1" y="74.8" fill="#CDD5D7" width="25.5" height="1"/>
			<rect x="460.1" y="54.2" fill="#CDD5D7" width="23.8" height="2.6"/>
		</g>
		<g>
			<rect x="500.3" y="60.3" fill="#CDD5D7" width="35.7" height="1"/>
			<rect x="500.3" y="63.9" fill="#CDD5D7" width="35.7" height="1"/>
			<rect x="500.3" y="67.6" fill="#CDD5D7" width="35.7" height="1"/>
			<rect x="500.3" y="71.2" fill="#CDD5D7" width="35.7" height="1"/>
			<rect x="500.3" y="74.8" fill="#CDD5D7" width="25.5" height="1"/>
			<rect x="500.3" y="54.2" fill="#CDD5D7" width="23.8" height="2.6"/>
		</g>
	</g>
	<g>
		<g>
			<g>
				<path fill="#DAE1DB" d="M549.9,87.2c0,0.1-0.1,0.2-0.2,0.2h-4.9c-0.1,0-0.2-0.1-0.2-0.2c0-0.1,0.1-0.2,0.2-0.2h4.9
					C549.8,87,549.9,87.1,549.9,87.2z"/>
			</g>
		</g>
		<g>
			<g>
				<path fill="#DAE1DB" d="M554.8,86.5c0.4,0,0.7,0.3,0.7,0.7c0,0.4-0.3,0.7-0.7,0.7c-0.4,0-0.7-0.3-0.7-0.7
					C554.1,86.8,554.5,86.5,554.8,86.5z"/>
			</g>
			<g>
				<path fill="#DAE1DB" d="M552.7,86.5c0.4,0,0.7,0.3,0.7,0.7c0,0.4-0.3,0.7-0.7,0.7c-0.4,0-0.7-0.3-0.7-0.7
					C552,86.8,552.4,86.5,552.7,86.5z"/>
			</g>
		</g>
	</g>
	<g>
		<g>
			<path fill="#DAE1DB" d="M400.7,88.2c0,0.1-0.1,0.2-0.2,0.2h0c-0.1,0-0.2-0.1-0.2-0.2v-2c0-0.1,0.1-0.2,0.2-0.2h0
				c0.1,0,0.2,0.1,0.2,0.2V88.2z"/>
		</g>
		<g>
			<path fill="#DAE1DB" d="M401.8,88.2c0,0.1-0.1,0.2-0.2,0.2h0c-0.1,0-0.2-0.1-0.2-0.2v-2c0-0.1,0.1-0.2,0.2-0.2h0
				c0.1,0,0.2,0.1,0.2,0.2V88.2z"/>
		</g>
		<g>
			<path fill="#DAE1DB" d="M402.9,88.2c0,0.1-0.1,0.2-0.2,0.2h0c-0.1,0-0.2-0.1-0.2-0.2v-2c0-0.1,0.1-0.2,0.2-0.2h0
				c0.1,0,0.2,0.1,0.2,0.2V88.2z"/>
		</g>
		<g>
			<path fill="#DAE1DB" d="M404.1,88.2c0,0.1-0.1,0.2-0.2,0.2h0c-0.1,0-0.2-0.1-0.2-0.2v-2c0-0.1,0.1-0.2,0.2-0.2h0
				c0.1,0,0.2,0.1,0.2,0.2V88.2z"/>
		</g>
	</g>
</g>
<path fill="#B06E59" d="M625.7,84.7c-0.1-0.2-0.2-0.5-0.3-0.7C625.5,84.2,625.6,84.4,625.7,84.7z"/>
<g>
	<path fill="#B06E59" d="M704.5,1.1c0.5,0.1,1.1,0.2,1.6,0.3C705.6,1.3,705,1.2,704.5,1.1z"/>
	<path fill="#B06E59" d="M707.2,1.7c0.2,0.1,0.5,0.2,0.7,0.3C707.7,1.9,707.4,1.8,707.2,1.7z"/>
	<path fill="#B06E59" d="M706.1,1.4c0.3,0.1,0.6,0.2,0.9,0.3C706.7,1.6,706.4,1.5,706.1,1.4z"/>
	<path fill="#2E6186" d="M717.1,9.8c-0.5-2-1.4-3.8-2.9-5.2c-1.4-1.4-3.2-2.4-5.2-2.9c-4.1-0.9-8.3-1.4-12.7-1.4
		c-0.9,0-1.9,0-2.8,0.1c2.7,1.1,5.2,2.4,7.7,3.9c5.1,3.1,9.6,6.9,13.5,11.4c-0.7,3.1-1.9,6.4-3.3,9.7c-5.1-7.5-11.9-13.7-19.8-18.1
		c-3.6-2-7.4-3.6-11.4-4.8c-0.2,0-0.4,0.1-0.5,0.1c-12.1,3.3-23.3,9.7-32.2,18.7c-6.3,6.3-11.4,13.7-15.1,22c0,0,0,0,0,0.1
		c3.1,2,5.9,4.3,8.7,6.7c9,8.1,16.1,18.3,20.4,29.9c-4.6,2.8-9.1,5.1-13.5,6.8c-3.2-8.5-8-16.3-13.9-23c-2-2.2-4-4.3-6.2-6.3
		c-1.8,8.7-1.8,17.5,0.1,25.5c0.5,2,1.4,3.8,2.9,5.2c1.4,1.4,3.2,2.4,5.2,2.9c4.1,0.9,8.3,1.4,12.7,1.4c0,0,0,0,0,0
		c17.5,0,35.8-7.8,48.9-20.9C714.2,54.7,721.9,30.5,717.1,9.8z"/>
	<path fill="#5B1E10" d="M634.1,63.7c1.8-4.5,4.2-9.1,6.9-13.7c4.2-6.9,9.4-13.6,15.5-19.7c10.6-10.6,23.3-18.6,35.1-23.1
		c3.3-1.3,6.5-2.2,9.7-2.9c3.3-0.7,6.5-1.2,9.5-1.2c0,0,0.1,0,0.1,0c0.6,0,1.2,0.1,1.7,0.2c-1.1-0.7-2.3-1.3-3.6-1.6
		c-1.1-0.2-2.1-0.5-3.2-0.6c-1.7,0.2-3.4,0.5-5.1,0.9c-3.2,0.7-6.6,1.7-10,3c-12.8,4.9-25.5,13.3-35.9,23.6
		c-6,6-11.4,12.8-15.8,20.1c-2.8,4.6-5.2,9.3-7.1,14c-2.4,5.9-4,11.6-4.6,16.9c0.2,1.1,0.4,2.1,0.6,3.2c0.3,1.3,0.8,2.5,1.6,3.6
		c-0.2-0.6-0.3-1.2-0.2-1.9C629.4,78.4,631,71.2,634.1,63.7z"/>
	<path fill="#0072BC" d="M717.1,9.8c-0.3-1.3-0.8-2.5-1.6-3.6c0.2,0.6,0.3,1.2,0.2,1.9c0,2.5-0.4,5-1,7.7c-0.7,3.1-1.9,6.4-3.3,9.7
		C706.3,36.9,697.1,49,686.1,60c-7.9,7.9-16.3,14.8-24.7,20c-4.6,2.8-9.1,5.1-13.5,6.8c-4.8,1.8-9.4,2.8-13.7,2.9c0,0-0.1,0-0.1,0
		c-0.6,0-1.2-0.1-1.7-0.2c1.1,0.7,2.3,1.3,3.6,1.6c1,0.2,2,0.4,3,0.6c3.1-0.5,6.4-1.3,9.9-2.6c4.4-1.7,9.1-4,13.9-7
		c8.2-5.1,16.9-12.1,25.1-20.3c11.8-11.8,20.7-24,25.7-35.3c1.6-3.5,2.7-6.9,3.5-10.1c0.3-1.2,0.5-2.3,0.7-3.5
		C717.5,11.8,717.3,10.8,717.1,9.8z"/>
	<path fill="#99C6E4" d="M701.2,4.3c-2.4-1.5-5-2.8-7.7-3.9c-0.2,0-0.5,0-0.7,0c-4.2,0.2-8.4,0.9-12.7,2c4,1.2,7.8,2.8,11.4,4.8
		c7.9,4.4,14.7,10.6,19.8,18.1c1.5-3.3,2.6-6.5,3.3-9.7C710.8,11.3,706.3,7.4,701.2,4.3z"/>
	<path fill="#99C6E4" d="M641,50c-2.7-2.4-5.6-4.7-8.7-6.7c-2,4.5-3.5,9.2-4.5,13.9c0,0.1,0,0.1,0,0.2c2.2,2,4.3,4.1,6.2,6.3
		c5.9,6.7,10.6,14.5,13.9,23c4.4-1.6,8.9-3.9,13.5-6.8C657.1,68.4,650,58.1,641,50z"/>
	<path fill="#B06E59" d="M627.9,82.9c-0.1-0.5-0.2-1-0.3-1.6C627.7,81.8,627.8,82.4,627.9,82.9z"/>
	<path fill="#B06E59" d="M628.2,83.8c-0.1-0.3-0.2-0.6-0.2-0.9C628,83.2,628.1,83.5,628.2,83.8z"/>
	<path fill="#B06E59" d="M707.4,1.4c0.5,0.1,1.1,0.2,1.6,0.3C708.5,1.6,708,1.5,707.4,1.4z"/>
	<path fill="#B06E59" d="M627.6,81.2c-0.1-0.5-0.2-1-0.3-1.5C627.4,80.2,627.5,80.7,627.6,81.2z"/>
	<path fill="#B06E59" d="M710.1,2.1c0.2,0.1,0.5,0.2,0.7,0.3C710.6,2.2,710.4,2.2,710.1,2.1z"/>
	<path fill="#B06E59" d="M709,1.7c0.3,0.1,0.6,0.2,0.9,0.2C709.6,1.9,709.3,1.8,709,1.7z"/>
	<path fill="#457393" d="M629.2,84.6c0,0.7,0.1,1.3,0.2,1.9c-0.4-0.5-0.7-1.1-0.9-1.7c0.5,1.2,1.3,2.3,2.2,3.2c0,0,0,0,0,0L642.8,76
		c-2.5-4.4-5.5-8.5-8.8-12.3C631,71.2,629.4,78.4,629.2,84.6z"/>
	<path fill="#457393" d="M644.9,40.2c-0.1-0.5,0-1.1,0.4-1.5c0.5-0.7,1-1.3,1.6-2c-0.7-0.5-1.5-0.9-2.3-1.2
		c-0.5-0.2-0.7-0.8-0.5-1.3c0.2-0.5,0.8-0.7,1.3-0.5c1,0.4,1.9,0.9,2.8,1.5c0.6-0.7,1.2-1.4,1.8-2.1c-0.7-0.4-1.5-0.8-2.3-1.2
		c-0.5-0.2-0.8-0.8-0.6-1.3c0.2-0.5,0.8-0.8,1.3-0.6c1,0.4,2,0.9,3,1.5c0.7-0.7,1.4-1.5,2.1-2.2c-0.7-0.4-1.5-0.8-2.3-1.1
		c-0.5-0.2-0.8-0.8-0.6-1.3c0.2-0.5,0.8-0.8,1.3-0.6c1.1,0.4,2.1,0.9,3,1.5c0.6-0.6,1.3-1.2,1.9-1.9c-0.7-0.4-1.5-0.8-2.3-1.1
		c-0.5-0.2-0.8-0.8-0.6-1.3c0.2-0.5,0.8-0.8,1.3-0.6c1.1,0.4,2.2,0.9,3.2,1.5c0.7-0.6,1.4-1.3,2.1-1.9c-0.8-0.4-1.5-0.7-2.3-1
		c-0.5-0.2-0.8-0.8-0.6-1.3c0.2-0.5,0.8-0.8,1.3-0.6c1.2,0.4,2.3,0.9,3.3,1.5c0.7-0.6,1.4-1.2,2.2-1.7c-0.7-0.3-1.4-0.6-2.1-0.9
		c-0.5-0.2-0.8-0.7-0.6-1.3c0.2-0.5,0.7-0.8,1.3-0.6c1.1,0.4,2.2,0.9,3.2,1.4c0.8-0.6,1.5-1.1,2.3-1.7c-0.7-0.3-1.4-0.6-2.2-0.8
		c-0.5-0.2-0.8-0.7-0.7-1.3c0.2-0.5,0.7-0.8,1.3-0.7c1.2,0.4,2.3,0.9,3.4,1.5c0.9-0.6,1.7-1.2,2.6-1.7c-0.7-0.3-1.5-0.6-2.3-0.9
		c-0.5-0.2-0.8-0.7-0.7-1.3c0.2-0.5,0.7-0.8,1.3-0.7c1.3,0.4,2.5,0.9,3.7,1.5c1-0.6,2-1.2,3-1.7c-0.5-0.2-0.9-0.3-1.4-0.5
		c-0.5-0.1-0.8-0.7-0.7-1.2c0.1-0.5,0.7-0.8,1.2-0.7c1.1,0.3,2.1,0.7,3.1,1.2c0.6-0.3,1.2-0.6,1.9-1c0.5-0.2,1-0.3,1.5-0.1
		c1.8-0.9,3.6-1.7,5.4-2.4c-2.8-1.3-5.6-2.5-8.6-3.4c-0.2,0-0.4,0.1-0.5,0.1c-12.1,3.3-23.3,9.7-32.2,18.7
		c-6.3,6.3-11.4,13.7-15.1,22c0,0,0,0,0,0.1c2.4,1.6,4.7,3.3,6.9,5.1C641,45.6,642.9,42.8,644.9,40.2z"/>
	<path fill="#457393" d="M632.3,61.8c-1.4-1.5-2.9-3-4.5-4.4c-1.6,7.6-1.7,15.2-0.6,22.3c0.7-5.2,2.2-11,4.6-16.9
		C632,62.5,632.2,62.1,632.3,61.8z"/>
	<path fill="#457393" d="M700.7,2c1.7-0.4,3.4-0.7,5.1-0.9c0.5,0.1,1.1,0.2,1.6,0.3c-3.6-0.7-7.3-1.1-11-1.1c-0.9,0-1.9,0-2.8,0.1
		c1.6,0.7,3.2,1.4,4.7,2.2C699.1,2.4,699.9,2.2,700.7,2z"/>
	<path fill="#457393" d="M691.6,7.2c-2.2,0.8-4.5,1.8-6.8,2.9c0,0.6-0.3,1.3-0.9,1.6c0.5,0.5,1.1,0.9,1.6,1.4c0.4,0.4,0.4,1,0,1.4
		c-0.2,0.2-0.4,0.3-0.7,0.3c-0.3,0-0.5-0.1-0.7-0.3c-0.6-0.7-1.3-1.3-2-1.8c-1.2,0.6-2.4,1.3-3.6,2c0.4,0.4,0.9,0.8,1.3,1.2
		c0.4,0.4,0.4,1-0.1,1.4c-0.2,0.2-0.4,0.3-0.7,0.3c-0.3,0-0.5-0.1-0.7-0.3c-0.5-0.5-1-1-1.6-1.5c-1,0.6-1.9,1.2-2.9,1.8
		c0.6,0.5,1.1,1,1.6,1.6c0.4,0.4,0.3,1-0.1,1.4c-0.2,0.2-0.4,0.3-0.7,0.3c-0.3,0-0.6-0.1-0.7-0.3c-0.6-0.6-1.2-1.2-1.8-1.7
		c-0.9,0.6-1.7,1.2-2.5,1.8c0.6,0.6,1.2,1.2,1.8,1.8c0.4,0.4,0.3,1.1-0.1,1.4c-0.2,0.2-0.4,0.2-0.7,0.2c-0.3,0-0.6-0.1-0.8-0.3
		c-0.6-0.7-1.3-1.3-2-1.9c-0.8,0.6-1.6,1.2-2.4,1.9c0.6,0.6,1.2,1.2,1.8,1.9c0.4,0.4,0.3,1.1-0.1,1.4c-0.2,0.2-0.4,0.2-0.6,0.2
		c-0.3,0-0.6-0.1-0.8-0.4c-0.6-0.7-1.2-1.3-1.8-1.9c-0.8,0.6-1.5,1.3-2.3,2c0.7,0.7,1.4,1.4,2,2.1c0.3,0.4,0.3,1.1-0.1,1.4
		c-0.2,0.2-0.4,0.2-0.6,0.2c-0.3,0-0.6-0.1-0.8-0.4c-0.6-0.7-1.2-1.4-1.9-2c-0.7,0.6-1.4,1.3-2,1.9c0.8,0.7,1.5,1.5,2.2,2.3
		c0.3,0.4,0.3,1.1-0.2,1.4c-0.2,0.1-0.4,0.2-0.6,0.2c-0.3,0-0.6-0.1-0.8-0.4c-0.6-0.8-1.3-1.5-2-2.1c-0.7,0.7-1.4,1.5-2.1,2.2
		c0.8,0.8,1.6,1.6,2.3,2.5c0.3,0.4,0.3,1.1-0.2,1.4c-0.2,0.1-0.4,0.2-0.6,0.2c-0.3,0-0.6-0.1-0.8-0.4c-0.6-0.8-1.3-1.5-2-2.2
		c-0.6,0.7-1.3,1.4-1.9,2.2c0.9,0.8,1.7,1.7,2.4,2.7c0.3,0.4,0.2,1.1-0.2,1.4c-0.2,0.1-0.4,0.2-0.6,0.2c-0.3,0-0.6-0.1-0.8-0.4
		c-0.6-0.8-1.3-1.6-2.1-2.3c-0.5,0.7-1.1,1.3-1.6,2c-0.4,0.5-1,0.8-1.6,0.8c-0.1,0-0.2,0-0.3,0c-2,2.7-3.9,5.4-5.5,8.2l0,0
		c1.1,1,2.2,2.1,3.3,3.1c3.6,3.6,6.8,7.6,9.6,11.8l49.3-49.3C699.7,12.4,695.8,9.6,691.6,7.2L691.6,7.2z"/>
	<path fill="#457393" d="M711,2.4c0.6,0.3,1.1,0.6,1.7,0.9c-0.5-0.2-1.1-0.2-1.7-0.2c0,0-0.1,0-0.1,0c-3,0.1-6.2,0.5-9.5,1.2l0,0
		c0.6,0.4,1.3,0.8,1.9,1.2c0.4,0.3,0.8,0.5,1.1,0.8c0.2,0.2,0.5,0.3,0.7,0.5c0.4,0.3,0.7,0.5,1.1,0.8c0.2,0.2,0.5,0.4,0.7,0.5
		c0.5,0.4,1,0.8,1.5,1.2c0.1,0.1,0.1,0.1,0.2,0.2c0.2,0.1,0.3,0.3,0.5,0.4l5.3-5.3c0,0,0,0,0,0C713.3,3.7,712.2,2.9,711,2.4z"/>
	<path fill="#0072BC" d="M644.9,40.2c-2,2.7-3.9,5.4-5.7,8.3c0.6,0.5,1.2,1,1.8,1.5c0,0,0,0,0,0l0,0c1.7-2.8,3.5-5.5,5.5-8.2
		c-0.3-0.1-0.6-0.2-0.9-0.4C645.2,41.1,645,40.7,644.9,40.2z"/>
	<path fill="#0072BC" d="M700.7,2c-0.8,0.2-1.6,0.4-2.5,0.6c1,0.5,2,1.1,3,1.7c0,0,0,0,0,0l0,0l0,0c3.3-0.7,6.5-1.2,9.5-1.2
		c0,0,0.1,0,0.1,0c0.6,0,1.2,0.1,1.7,0.2c-0.5-0.4-1.1-0.7-1.7-0.9c0,0-0.1,0-0.1-0.1c-0.2-0.1-0.5-0.2-0.7-0.3
		c-0.1,0-0.1,0-0.2-0.1c-0.3-0.1-0.6-0.2-0.9-0.2c-0.5-0.1-1.1-0.2-1.6-0.3c0,0,0,0,0,0c-0.5-0.1-1-0.2-1.6-0.3
		C704.2,1.3,702.5,1.6,700.7,2z"/>
	<path fill="#0072BC" d="M684.6,9.2c0.1,0.3,0.2,0.6,0.2,0.9c2.3-1.1,4.5-2.1,6.8-2.9l0,0c0,0,0,0,0,0c-0.9-0.5-1.8-1-2.7-1.4
		c-1.8,0.7-3.6,1.5-5.4,2.4C683.9,8.4,684.4,8.7,684.6,9.2z"/>
	<path fill="#0072BC" d="M629.2,84.6c0.1-6.2,1.8-13.4,4.8-20.9c0,0,0,0,0,0c-0.6-0.6-1.2-1.3-1.7-1.9c-0.1,0.3-0.3,0.7-0.4,1
		c-2.4,5.9-4,11.6-4.6,16.9c0,0,0,0,0,0c0,0,0,0,0,0c0.1,0.5,0.2,1,0.3,1.5c0,0,0,0,0,0.1c0.1,0.5,0.2,1.1,0.3,1.6
		c0.1,0.3,0.2,0.6,0.2,0.9c0,0.1,0,0.1,0.1,0.2c0.1,0.2,0.2,0.5,0.3,0.7c0,0,0,0.1,0.1,0.1c0.3,0.6,0.6,1.1,0.9,1.7
		C629.3,85.9,629.2,85.3,629.2,84.6z"/>
	<path fill="#CCE3F2" d="M708.2,9.3c-0.5-0.4-1-0.8-1.5-1.2c-0.2-0.2-0.5-0.4-0.7-0.5c-0.4-0.3-0.7-0.5-1.1-0.8
		c-0.2-0.2-0.5-0.3-0.7-0.5c-0.4-0.3-0.7-0.5-1.1-0.8c-0.6-0.4-1.2-0.8-1.9-1.2c0,0,0,0,0,0c-1-0.6-2-1.1-3-1.7
		c-1.5-0.8-3.1-1.5-4.7-2.2c-0.2,0-0.5,0-0.7,0c-4.2,0.2-8.4,0.9-12.7,2c3,0.9,5.9,2,8.6,3.4c0.9,0.5,1.8,0.9,2.7,1.4c0,0,0,0,0,0
		c4.2,2.3,8.1,5.2,11.6,8.5l5.8-5.8c-0.2-0.1-0.3-0.3-0.5-0.4C708.4,9.4,708.3,9.4,708.2,9.3z"/>
	<path fill="#CCE3F2" d="M641,50C641,50,641,50,641,50c-0.6-0.5-1.2-1-1.8-1.6c-2.2-1.8-4.5-3.6-6.9-5.1c-2,4.5-3.5,9.2-4.5,13.9
		c0,0.1,0,0.1,0,0.2c1.6,1.4,3.1,2.9,4.5,4.4c0.6,0.6,1.2,1.3,1.7,1.9c0,0,0,0,0,0c3.3,3.8,6.2,7.9,8.8,12.3l11-11
		c-2.8-4.3-6-8.2-9.6-11.8C643.2,52.1,642.1,51,641,50z"/>
	<path fill="#FFFFFF" d="M684.6,9.2c-0.3-0.5-0.7-0.9-1.2-1c-0.5-0.2-1-0.1-1.5,0.1c-0.6,0.3-1.2,0.6-1.9,1c1.4,0.7,2.7,1.5,3.9,2.5
		c0.6-0.4,0.9-1,0.9-1.6C684.8,9.8,684.8,9.5,684.6,9.2z"/>
	<g>
		<path fill="#CCE3F2" d="M646.9,41.9c-0.4,0-0.9-0.1-1.2-0.4c-0.9-0.7-1-1.9-0.4-2.8c2.8-3.7,5.9-7.2,9.1-10.4
			c8-8,17.6-14.9,27.5-19.9c1-0.5,2.2-0.1,2.7,0.9c0.5,1,0.1,2.2-0.9,2.7c-9.6,4.8-18.7,11.4-26.5,19.2c-3.1,3.1-6.1,6.5-8.8,10
			C648.1,41.6,647.5,41.9,646.9,41.9z"/>
		<path fill="#CCE3F2" d="M684.8,14.9c-0.3,0-0.5-0.1-0.7-0.3c-2.1-2.2-4.8-3.8-7.7-4.6c-0.5-0.1-0.8-0.7-0.7-1.2
			c0.1-0.5,0.7-0.8,1.2-0.7c3.3,0.9,6.2,2.7,8.6,5.1c0.4,0.4,0.4,1,0,1.4C685.3,14.8,685,14.9,684.8,14.9z"/>
		<path fill="#CCE3F2" d="M679,17.7c-0.3,0-0.5-0.1-0.7-0.3c-2.1-2.2-4.7-3.9-7.7-4.8c-0.5-0.2-0.8-0.7-0.7-1.3
			c0.2-0.5,0.7-0.8,1.3-0.7c3.3,1,6.2,2.8,8.6,5.3c0.4,0.4,0.4,1-0.1,1.4C679.4,17.6,679.2,17.7,679,17.7z"/>
		<path fill="#CCE3F2" d="M674.6,20.9c-0.3,0-0.6-0.1-0.7-0.3c-2.1-2.3-4.7-4-7.6-4.9c-0.5-0.2-0.8-0.7-0.7-1.3
			c0.2-0.5,0.7-0.8,1.3-0.7c3.3,1,6.2,2.9,8.5,5.5c0.4,0.4,0.3,1-0.1,1.4C675.1,20.8,674.8,20.9,674.6,20.9z"/>
		<path fill="#CCE3F2" d="M670.5,24.1c-0.3,0-0.6-0.1-0.8-0.3c-2-2.4-4.7-4.1-7.6-5.1c-0.5-0.2-0.8-0.7-0.6-1.3
			c0.2-0.5,0.7-0.8,1.3-0.6c3.3,1.1,6.2,3.1,8.5,5.7c0.4,0.4,0.3,1.1-0.1,1.4C671,24,670.8,24.1,670.5,24.1z"/>
		<path fill="#CCE3F2" d="M666.5,27.2c-0.3,0-0.6-0.1-0.8-0.4c-2-2.4-4.7-4.2-7.6-5.3c-0.5-0.2-0.8-0.8-0.6-1.3
			c0.2-0.5,0.8-0.8,1.3-0.6c3.3,1.2,6.2,3.2,8.5,5.9c0.4,0.4,0.3,1.1-0.1,1.4C667,27.2,666.7,27.2,666.5,27.2z"/>
		<path fill="#CCE3F2" d="M662.8,30.7c-0.3,0-0.6-0.1-0.8-0.4c-2-2.5-4.6-4.4-7.6-5.5c-0.5-0.2-0.8-0.8-0.6-1.3
			c0.2-0.5,0.8-0.8,1.3-0.6c3.3,1.2,6.2,3.3,8.5,6.1c0.3,0.4,0.3,1.1-0.1,1.4C663.3,30.7,663.1,30.7,662.8,30.7z"/>
		<path fill="#CCE3F2" d="M659.4,34.2c-0.3,0-0.6-0.1-0.8-0.4c-2-2.5-4.6-4.5-7.6-5.6c-0.5-0.2-0.8-0.8-0.6-1.3
			c0.2-0.5,0.8-0.8,1.3-0.6c3.3,1.3,6.2,3.5,8.4,6.3c0.3,0.4,0.3,1.1-0.2,1.4C659.9,34.1,659.7,34.2,659.4,34.2z"/>
		<path fill="#CCE3F2" d="M656,38c-0.3,0-0.6-0.1-0.8-0.4c-2-2.6-4.6-4.6-7.6-5.8c-0.5-0.2-0.8-0.8-0.6-1.3c0.2-0.5,0.8-0.8,1.3-0.6
			c3.3,1.3,6.2,3.6,8.4,6.4c0.3,0.4,0.3,1.1-0.2,1.4C656.4,37.9,656.2,38,656,38z"/>
		<path fill="#CCE3F2" d="M652.9,41.8c-0.3,0-0.6-0.1-0.8-0.4c-1.9-2.6-4.6-4.7-7.6-6c-0.5-0.2-0.7-0.8-0.5-1.3
			c0.2-0.5,0.8-0.7,1.3-0.5c3.3,1.4,6.2,3.7,8.4,6.6c0.3,0.4,0.2,1.1-0.2,1.4C653.3,41.8,653.1,41.8,652.9,41.8z"/>
		<path fill="#CCE3F2" d="M656.8,26c-0.7,0.6-1.3,1.2-1.9,1.9c1.2,0.7,2.3,1.5,3.3,2.4c0.7-0.7,1.3-1.3,2-1.9
			C659.1,27.4,658,26.6,656.8,26z"/>
		<path fill="#CCE3F2" d="M660.5,22.6c-0.7,0.6-1.4,1.3-2.1,1.9c1.2,0.7,2.3,1.5,3.3,2.4c0.7-0.7,1.5-1.3,2.3-2
			C662.8,24.1,661.7,23.3,660.5,22.6z"/>
		<path fill="#CCE3F2" d="M653.4,29.3c-0.7,0.7-1.4,1.4-2.1,2.2c1.1,0.7,2.2,1.5,3.2,2.5c0.7-0.8,1.4-1.5,2.1-2.2
			C655.7,30.8,654.6,30,653.4,29.3z"/>
		<path fill="#CCE3F2" d="M650,33c-0.6,0.7-1.2,1.4-1.8,2.1c1.1,0.7,2.2,1.5,3.2,2.5c0.6-0.7,1.2-1.5,1.9-2.2
			C652.2,34.5,651.1,33.7,650,33z"/>
		<path fill="#CCE3F2" d="M677.8,10.5c-1,0.6-2,1.1-3,1.7c1.3,0.7,2.5,1.6,3.6,2.5c1.2-0.7,2.4-1.3,3.6-2
			C680.7,11.9,679.3,11.1,677.8,10.5z"/>
		<path fill="#CCE3F2" d="M646.8,36.7c-0.5,0.7-1.1,1.3-1.6,2c-0.3,0.5-0.5,1-0.4,1.5c0.1,0.5,0.3,1,0.8,1.3
			c0.3,0.2,0.6,0.3,0.9,0.4c0.1,0,0.2,0,0.3,0c0.6,0,1.2-0.3,1.6-0.8c0.5-0.7,1-1.3,1.6-2C649.1,38.2,648,37.4,646.8,36.7z"/>
		<path fill="#CCE3F2" d="M672.8,13.5c-0.9,0.6-1.7,1.1-2.6,1.7c1.3,0.7,2.4,1.5,3.5,2.5c0.9-0.6,1.9-1.2,2.9-1.8
			C675.5,14.9,674.2,14.1,672.8,13.5z"/>
		<path fill="#CCE3F2" d="M664.3,19.5c-0.7,0.6-1.4,1.1-2.2,1.7c1.2,0.7,2.3,1.5,3.4,2.5c0.8-0.6,1.6-1.2,2.4-1.9
			C666.7,20.9,665.5,20.1,664.3,19.5z"/>
		<path fill="#CCE3F2" d="M668.4,16.5c-0.8,0.6-1.6,1.1-2.3,1.7c1.2,0.7,2.4,1.5,3.5,2.4c0.8-0.6,1.7-1.2,2.5-1.8
			C670.9,17.9,669.7,17.1,668.4,16.5z"/>
		<path fill="#CCE3F2" d="M680.1,9.3c-1-0.5-2.1-0.9-3.1-1.2c-0.5-0.1-1.1,0.2-1.2,0.7c-0.1,0.5,0.2,1.1,0.7,1.2
			c0.5,0.1,1,0.3,1.4,0.5c1.5,0.6,2.9,1.3,4.2,2.3c0.7,0.5,1.4,1.1,2,1.8c0.2,0.2,0.5,0.3,0.7,0.3c0.3,0,0.5-0.1,0.7-0.3
			c0.4-0.4,0.4-1,0-1.4c-0.5-0.5-1-1-1.6-1.4C682.7,10.8,681.4,10,680.1,9.3z"/>
		<path fill="#CCE3F2" d="M674.8,12.2c-1.2-0.6-2.4-1.2-3.7-1.5c-0.5-0.2-1.1,0.1-1.3,0.7c-0.2,0.5,0.1,1.1,0.7,1.3
			c0.8,0.2,1.5,0.5,2.3,0.9c1.4,0.6,2.6,1.4,3.8,2.4c0.6,0.5,1.1,1,1.6,1.5c0.2,0.2,0.5,0.3,0.7,0.3c0.2,0,0.5-0.1,0.7-0.3
			c0.4-0.4,0.4-1,0.1-1.4c-0.4-0.4-0.8-0.8-1.3-1.2C677.3,13.8,676.1,12.9,674.8,12.2z"/>
		<path fill="#CCE3F2" d="M670.2,15.2c-1.1-0.6-2.2-1.1-3.4-1.5c-0.5-0.2-1.1,0.1-1.3,0.7c-0.2,0.5,0.1,1.1,0.7,1.3
			c0.7,0.2,1.5,0.5,2.2,0.8c1.3,0.6,2.5,1.4,3.7,2.3c0.6,0.5,1.3,1.1,1.8,1.7c0.2,0.2,0.5,0.3,0.7,0.3c0.2,0,0.5-0.1,0.7-0.3
			c0.4-0.4,0.4-1,0.1-1.4c-0.5-0.6-1-1.1-1.6-1.6C672.7,16.7,671.5,15.9,670.2,15.2z"/>
		<path fill="#CCE3F2" d="M666,18.2c-1-0.6-2.1-1.1-3.2-1.4c-0.5-0.2-1.1,0.1-1.3,0.6c-0.2,0.5,0.1,1.1,0.6,1.3
			c0.7,0.2,1.4,0.5,2.1,0.9c1.3,0.6,2.5,1.4,3.6,2.3c0.7,0.6,1.4,1.2,2,1.9c0.2,0.2,0.5,0.3,0.8,0.3c0.2,0,0.5-0.1,0.7-0.2
			c0.4-0.4,0.5-1,0.1-1.4c-0.6-0.7-1.2-1.3-1.8-1.8C668.4,19.7,667.3,18.9,666,18.2z"/>
		<path fill="#CCE3F2" d="M662.1,21.3c-1.1-0.6-2.2-1.1-3.3-1.5c-0.5-0.2-1.1,0.1-1.3,0.6c-0.2,0.5,0.1,1.1,0.6,1.3
			c0.8,0.3,1.6,0.6,2.3,1c1.2,0.6,2.4,1.4,3.4,2.4c0.7,0.6,1.3,1.2,1.8,1.9c0.2,0.2,0.5,0.4,0.8,0.4c0.2,0,0.5-0.1,0.6-0.2
			c0.4-0.4,0.5-1,0.1-1.4c-0.6-0.7-1.2-1.3-1.8-1.9C664.4,22.8,663.3,21.9,662.1,21.3z"/>
		<path fill="#CCE3F2" d="M658.3,24.5c-1-0.6-2.1-1.1-3.2-1.5c-0.5-0.2-1.1,0.1-1.3,0.6c-0.2,0.5,0.1,1.1,0.6,1.3
			c0.8,0.3,1.6,0.7,2.3,1.1c1.2,0.7,2.3,1.5,3.3,2.4c0.7,0.6,1.4,1.3,1.9,2c0.2,0.2,0.5,0.4,0.8,0.4c0.2,0,0.4-0.1,0.6-0.2
			c0.4-0.3,0.5-1,0.1-1.4c-0.6-0.8-1.3-1.5-2-2.1C660.6,26,659.5,25.2,658.3,24.5z"/>
		<path fill="#CCE3F2" d="M654.8,27.8c-1-0.6-2-1.1-3-1.5c-0.5-0.2-1.1,0.1-1.3,0.6c-0.2,0.5,0.1,1.1,0.6,1.3
			c0.8,0.3,1.6,0.7,2.3,1.1c1.2,0.7,2.3,1.5,3.3,2.4c0.7,0.7,1.4,1.4,2,2.1c0.2,0.3,0.5,0.4,0.8,0.4c0.2,0,0.4-0.1,0.6-0.2
			c0.4-0.3,0.5-1,0.2-1.4c-0.7-0.8-1.4-1.6-2.2-2.3C657.1,29.3,656,28.5,654.8,27.8z"/>
		<path fill="#CCE3F2" d="M651.3,31.5c-0.9-0.6-1.9-1.1-3-1.5c-0.5-0.2-1.1,0-1.3,0.6c-0.2,0.5,0,1.1,0.6,1.3
			c0.8,0.3,1.6,0.7,2.3,1.2c1.2,0.7,2.2,1.5,3.2,2.4c0.7,0.7,1.4,1.4,2,2.2c0.2,0.3,0.5,0.4,0.8,0.4c0.2,0,0.4-0.1,0.6-0.2
			c0.4-0.3,0.5-1,0.2-1.4c-0.7-0.9-1.4-1.7-2.3-2.5C653.6,33,652.5,32.2,651.3,31.5z"/>
		<path fill="#CCE3F2" d="M648.1,35.1c-0.9-0.6-1.8-1.1-2.8-1.5c-0.5-0.2-1.1,0-1.3,0.5c-0.2,0.5,0,1.1,0.5,1.3
			c0.8,0.3,1.6,0.7,2.3,1.2c1.1,0.7,2.2,1.5,3.2,2.5c0.7,0.7,1.4,1.5,2.1,2.3c0.2,0.3,0.5,0.4,0.8,0.4c0.2,0,0.4-0.1,0.6-0.2
			c0.4-0.3,0.5-1,0.2-1.4c-0.7-1-1.5-1.9-2.4-2.7C650.3,36.6,649.3,35.8,648.1,35.1z"/>
	</g>
</g>
<g>
	<path fill="#414042" d="M802.4,37.7c-2.1,0-3.8,3.9-3.8,8.7c0,4.8,1.7,8.7,3.8,8.7l0,0h8.9V37.7H802.4z"/>
	<ellipse fill="#05838D" cx="822.6" cy="46.5" rx="15.3" ry="35.5"/>
	<ellipse fill="#4C9CD0" cx="836.7" cy="46.5" rx="22.3" ry="46.4"/>
	<ellipse fill="#0072BC" cx="844.7" cy="46.5" rx="14.2" ry="38.5"/>
	<path fill="#175079" d="M845.8,37.7c-2.1,0-3.8,3.9-3.8,8.7c0,4.8,1.7,8.7,3.8,8.7l0,0h38.5V37.7H845.8z"/>
	<ellipse fill="#4C9CD0" cx="896.3" cy="46.5" rx="22.3" ry="46.4"/>
	<ellipse fill="#0072BC" cx="904.3" cy="46.5" rx="14.2" ry="38.5"/>
	<ellipse fill="#4C9CD0" cx="912.7" cy="46.5" rx="15.3" ry="35.5"/>
	<ellipse fill="#0072BC" cx="918.2" cy="46.5" rx="9.8" ry="29.5"/>
	<ellipse fill="#457393" cx="932.6" cy="46.5" rx="3.8" ry="8.7"/>
	<path fill="#175079" d="M928.8,46.5c0-4.8,1.7-8.7,3.8-8.7h-14.1c-2.1,0-3.8,3.9-3.8,8.7c0,4.8,1.7,8.7,3.8,8.7l0,0h14.1l0,0
		C930.5,55.2,928.8,51.3,928.8,46.5z"/>
	<path fill="#457393" d="M807.8,37.7h-5.4c-2.1,0-3.8,3.9-3.8,8.7c0,4.8,1.7,8.7,3.8,8.7l0,0h5.4c-0.3-2.8-0.5-5.7-0.5-8.7
		C807.3,43.4,807.5,40.5,807.8,37.7z"/>
	<path fill="#0072BC" d="M822.3,11c-7,0.3-12.9,11.6-14.5,26.8c-0.3,2.8-0.5,5.7-0.5,8.7c0,3,0.2,5.9,0.5,8.7
		c1.7,15.2,7.5,26.4,14.5,26.8c-4.9-8.5-7.9-21.3-7.9-35.5C814.4,32.2,817.5,19.5,822.3,11z"/>
	<path fill="#66AAD7" d="M830.5,46.5c0-21.3,6.4-38.5,14.2-38.5c3.5,0,6.7,3.5,9.2,9.2c-4.1-10.4-10.3-17.1-17.3-17.1
		c-5.5,0-10.5,4.1-14.3,10.9c-4.9,8.5-7.9,21.2-7.9,35.5c0,14.2,3.1,27,7.9,35.5c1.2,2.1,2.5,3.9,3.9,5.5l10-10
		C832.8,70.4,830.5,59.1,830.5,46.5z"/>
	<path fill="#338DC9" d="M845.8,55.2c-2.1,0-3.8-3.9-3.8-8.7c0-4.8,1.7-8.7,3.8-8.7h12.8c-0.7-8.2-2.4-15.3-4.6-20.6
		c-2.5-5.7-5.7-9.2-9.2-9.2c-7.9,0-14.2,17.2-14.2,38.5c0,12.7,2.3,23.9,5.8,30.9l22.2-22.2H845.8L845.8,55.2z"/>
	<path fill="#457393" d="M858.6,37.7h-12.8c-2.1,0-3.8,3.9-3.8,8.7c0,4.8,1.7,8.7,3.8,8.7l0,0h12.7l15.8-15.8c0-0.6,0.1-1.1,0.1-1.7
		H858.6z"/>
	<path fill="#66AAD7" d="M896.3,0.1c-10.9,0-19.9,16.2-21.9,37.7c-0.1,0.6-0.1,1.1-0.1,1.7l19.9-19.9c2.6-7.1,6.2-11.5,10.1-11.5
		c0.4,0,0.8,0.1,1.2,0.2l1.9-1.9C904.1,2.3,900.3,0.1,896.3,0.1z"/>
	<path fill="#338DC9" d="M894.2,19.5l11.4-11.4C905.1,8,904.7,8,904.3,8C900.3,8,896.8,12.4,894.2,19.5z"/>
</g>
<g>
	<path fill="#2E6186" d="M355,51.1c-17,7-35.3,9.9-53.3,8.6v32.8c18,1.3,36.3-1.5,53.3-8.6c-3-4.2-6.1-8.6-9.2-13
		C348.9,64.4,352,57.8,355,51.1z"/>
	<path fill="#175079" d="M314.4,55.3c-7.5,3.1-12.7,4.4-12.7,4.4v32.8c0,0,5.2-0.7,13.6-4.5c8.4-3.7,11.8-7.1,11.8-7.1V48.1
		C327.2,48.1,322.1,52.2,314.4,55.3z"/>
	<path fill="#2E6186" d="M210,51.1c17,7,35.3,9.9,53.3,8.6v32.8c-18,1.3-36.3-1.5-53.3-8.6c3-4.2,6.1-8.6,9.2-13
		C216.1,64.4,213,57.8,210,51.1z"/>
	<path fill="#175079" d="M250.6,55.3c7.5,3.1,12.7,4.4,12.7,4.4v32.8c0,0-5.2-0.7-13.6-4.5c-8.4-3.7-11.8-7.1-11.8-7.1V48.1
		C237.8,48.1,242.9,52.2,250.6,55.3z"/>
	<g>
		<polygon fill="#0072BC" points="282.9,4.2 287.5,0 291.2,5 296.6,1.9 299.1,7.6 305,5.7 306.3,11.8 312.6,11.1 312.5,17.4 
			318.8,18 317.4,24.1 323.4,26 320.8,31.7 326.3,34.9 322.6,39.9 327.2,44.1 322.6,48.3 326.3,53.3 320.8,56.4 323.4,62.1 
			317.4,64 318.8,70.2 312.5,70.8 312.6,77.1 306.3,76.4 305,82.5 299.1,80.6 296.6,86.3 291.2,83.1 287.5,88.2 282.9,84 
			278.2,88.2 274.6,83.1 269.2,86.3 266.6,80.6 260.7,82.5 259.4,76.4 253.2,77.1 253.2,70.8 247,70.2 248.3,64 242.3,62.1 
			244.9,56.4 239.5,53.3 243.2,48.3 238.5,44.1 243.2,39.9 239.5,34.9 244.9,31.7 242.3,26 248.3,24.1 247,18 253.2,17.4 
			253.2,11.1 259.4,11.8 260.7,5.7 266.6,7.6 269.2,1.9 274.6,5 278.2,0 		"/>
		<circle fill="#175079" cx="282.9" cy="44.1" r="36.5"/>
		<circle fill="#80B8DD" cx="282.9" cy="44.1" r="30.8"/>
		<path fill="#338EC9" d="M306.3,11.8L305,5.7l-5.9,1.9l-2.5-5.7L291.2,5L287.5,0l-4.6,4.2L278.2,0L274.6,5l-5.4-3.1l-2.5,5.7
			l-5.9-1.9l-1.3,6.1l-6.2-0.7l0,6.3L247,18l1.3,6.1l-6,1.9l2.6,5.7l-5.4,3.1l3.7,5l-4.7,4.2l4.7,4.2l-3.7,5.1l5.4,3.1l-2.6,5.7
			l6,1.9l-1.3,6.1l6.2,0.6l0,2.1l3.5-3.5c-6.4-6.6-10.3-15.5-10.3-25.4c0-20.2,16.3-36.5,36.5-36.5c9.9,0,18.8,3.9,25.4,10.3
			l4.3-4.3l0-2.4L306.3,11.8z"/>
		<path fill="#396A8D" d="M246.4,44.1c0,9.9,3.9,18.8,10.3,25.4l4-4c-5.3-5.5-8.6-13-8.6-21.3c0-17,13.8-30.8,30.8-30.8
			c8.3,0,15.8,3.3,21.3,8.6l4-4c-6.6-6.4-15.5-10.3-25.4-10.3C262.7,7.6,246.4,23.9,246.4,44.1z"/>
		<path fill="#B2D5EB" d="M282.9,13.3c-17,0-30.8,13.8-30.8,30.8c0,8.3,3.3,15.8,8.6,21.3l43.5-43.5
			C298.7,16.6,291.1,13.3,282.9,13.3z"/>
		<circle fill="#99C6E4" cx="282.9" cy="44" r="30.7"/>
		<path fill="#2E6186" d="M282.9,72.3c-15.6,0-28.2-12.7-28.2-28.2c0-15.6,12.7-28.2,28.2-28.2c15.6,0,28.2,12.7,28.2,28.2
			C311.1,59.6,298.4,72.3,282.9,72.3z"/>
		<g>
			<path fill="#CCE3F2" d="M284.3,66.9c-0.2-0.1-0.4-0.2-0.6-0.3c-0.1,0-0.2-0.1-0.3-0.1c-0.1,0-0.2-0.1-0.3-0.1
				c-0.4-0.2-0.9-0.3-1.3-0.4c-0.4-0.1-0.8-0.2-1.2-0.3l0,0c0,0,0,0,0,0c-0.3-0.1-0.7-0.2-1-0.2c-0.5-1.4-1-3.4-1.8-4.3
				c-1-1-2.7-1.7-4.1-2.1c0.4,1.3,1.3,3.3,2.3,4.2c0.7,0.6,1.7,1.2,2.7,1.8c-1.2-0.2-4-1-4.8-1.4c-0.1-1.5,0-3.5-0.6-4.6
				c-0.7-1.2-2.1-2.4-3.4-3.1c0,1.3,0.3,3.5,1,4.7c0.5,0.8,1.3,1.7,2.1,2.5c-0.7-0.4-3.1-2.1-4.8-3.6c0.4-1.5,1.1-3.3,0.9-4.4
				c-0.3-1.4-1.2-3-2.2-4c-0.4,1.3-0.8,3.4-0.5,4.8c0.2,0.9,0.7,2,1.2,3c-0.8-0.9-2.7-3.1-3.1-3.9c0.8-1.3,2-2.9,2.1-4.1
				c0.1-1.4-0.4-3.2-1-4.5c-0.8,1.1-1.7,3-1.8,4.4c-0.1,0.9,0.2,2.1,0.3,3.2c-0.3-0.8-1.4-3.6-2-5.8c1.1-1.1,2.8-2.3,3.2-3.4
				c0.5-1.3,0.5-3.2,0.2-4.6c-1,0.9-2.5,2.5-2.9,3.8c-0.3,0.9-0.4,2.1-0.6,3.2c-0.3-1.2-0.4-2.4-0.5-3.6c-0.1-0.9,0-1.8,0-2.7
				c1.4-0.7,3.2-1.5,3.9-2.4c0.8-1.1,1.3-2.9,1.4-4.4c-1.2,0.5-3,1.7-3.9,2.8c-0.5,0.7-1,1.9-1.4,2.9c0.1-0.9,0.3-1.8,0.5-2.7
				c0.1-0.3,0.1-0.5,0.2-0.8c0.1-0.3,0.2-0.5,0.3-0.8c0.2-0.5,0.4-1,0.6-1.5c0.1-0.3,0.3-0.5,0.4-0.8c1.5-0.2,3.5-0.2,4.5-0.8
				c1.2-0.8,2.3-2.2,2.9-3.6c-1.3,0.1-3.5,0.5-4.6,1.2c-0.7,0.4-1.5,1.3-2.2,2c0.2-0.3,0.4-0.6,0.6-0.9c1-1.4,2.1-2.6,3.3-3.7
				c1.5,0.1,3.6,0.6,4.7,0.1c1.2-0.5,2.6-1.6,3.5-2.8c-1.3-0.2-3.3-0.2-4.6,0.3c-0.9,0.4-2.1,1.2-3.1,1.9c0.2-0.2,0.4-0.3,0.6-0.5
				c1.5-1.3,3.1-2.4,4.8-3.5c1.1,0.3,2.4,0.3,3.5-0.3c1.2-0.6,2.1-1.6,2.8-2.9c-1.3-0.2-2.8-0.2-4,0.4c-1.1,0.6-2,1.5-2.4,2.6
				c-0.8,0.4-1.6,0.9-2.3,1.3c-0.5,0.3-1.1,0.7-1.6,1.1c0.8-0.8,1.8-1.6,2.3-2.3c0.8-1.1,1.2-3.1,1.3-4.4c-1.3,0.6-2.7,1.6-3.5,2.7
				c-0.7,1-0.7,3.2-1,4.7c-0.1,0.1-0.2,0.2-0.3,0.2c-1.3,1.1-2.6,2.3-3.7,3.6c0.7-1.1,1.7-2.4,2.2-3.5c0.5-1.3,0.5-3.5,0.3-4.8
				c-1.2,0.9-2.4,2.3-2.9,3.6c-0.5,1.2,0,3.5,0.1,5.1c-0.2,0.3-0.4,0.5-0.6,0.8c-0.6,0.8-1.1,1.7-1.6,2.5c0.3-0.8,0.5-1.7,0.5-2.4
				c0.1-1.4-0.6-3.6-1.2-4.8c-0.9,1.2-1.7,3-1.7,4.4c-0.1,1.3,1,3.1,1.6,4.6c0,0,0,0,0,0c-0.1,0.3-0.2,0.5-0.3,0.8
				c-0.1,0.3-0.2,0.5-0.2,0.8c-0.2,0.8-0.4,1.7-0.6,2.6c0-1,0-2-0.2-2.8c-0.3-1.4-1.6-3.4-2.6-4.4c-0.5,1.5-0.7,3.5-0.4,4.9
				c0.3,1.3,1.9,2.9,3,4.2c0,0.7-0.1,1.5,0,2.2c0,0.7,0.1,1.4,0.2,2c-0.3-1-0.7-2-1.1-2.7c-0.8-1.3-2.6-2.6-3.9-3.3
				c0,1.6,0.4,3.5,1.2,4.8c0.7,1.1,2.7,2,4.1,2.9c0.1,0.5,0.3,1.3,0.4,1.8l0,0c0.2,0.9,0.6,2.2,1.2,3.7c-0.5-0.8-1-1.7-1.6-2.3
				c-1-1.1-3.1-2-4.5-2.4c0.3,1.5,1.2,3.3,2.2,4.4c0.9,1,3.2,1.4,4.7,2c0.3,0.7,0.7,1.3,1.1,1.9c0.4,0.6,0.8,1.1,1.2,1.6
				c-0.8-0.7-1.6-1.4-2.3-1.7c-1.3-0.7-3.6-0.9-5-0.8c0.8,1.3,2.2,2.8,3.5,3.5c1.2,0.6,3.4,0.4,5,0.4c0.5,0.3,0.9,0.8,1.4,1.1l0,0
				c0.7,0.6,1.7,1.4,3.1,2.3c-0.9-0.4-1.8-0.8-2.6-1c-1.5-0.3-3.7,0.1-5.1,0.6c1.2,1.1,2.9,2.1,4.3,2.4c1.3,0.3,3.4-0.6,5-1
				c0.6,0.3,1.3,0.7,2,0.9c0.6,0.3,1.3,0.5,1.9,0.7c-1-0.1-2.1-0.2-2.9-0.1c-1.5,0.2-3.5,1.3-4.6,2.2c1.4,0.6,3.4,1.1,4.9,0.9
				c1.3-0.2,3-1.6,4.3-2.5c0.1,0,0.1,0,0.2,0c0.1,0,0.2,0.1,0.3,0.1c0.9,0.2,1.8,0.4,2.6,0.7c0.4,0.1,0.9,0.2,1.3,0.4
				c0.1,0,0.2,0.1,0.3,0.1c0.1,0,0.2,0.1,0.3,0.1c0.2,0.1,0.4,0.2,0.6,0.3c0.8,0.4,1.5,0.9,2.1,1.5c0,0,0.1,0.1,0.1,0.1l0.1-1.3
				C285.6,67.7,285,67.3,284.3,66.9z"/>
			<path fill="#B2D5EB" d="M281.4,66.9c0.2-0.1,0.4-0.2,0.6-0.3c0.1,0,0.2-0.1,0.3-0.1c0.1,0,0.2-0.1,0.3-0.1
				c0.4-0.2,0.9-0.3,1.3-0.4c0.4-0.1,0.8-0.2,1.2-0.3l0,0c0,0,0,0,0,0c0.3-0.1,0.7-0.2,1-0.2c0.5-1.4,1-3.4,1.8-4.3
				c1-1,2.7-1.7,4.1-2.1c-0.4,1.3-1.3,3.3-2.3,4.2c-0.7,0.6-1.7,1.2-2.7,1.8c1.2-0.2,4-1,4.8-1.4c0.1-1.5,0-3.5,0.6-4.6
				c0.7-1.2,2.1-2.4,3.4-3.1c0,1.3-0.3,3.5-1,4.7c-0.5,0.8-1.3,1.7-2.1,2.5c0.7-0.4,3.1-2.1,4.8-3.6c-0.4-1.5-1.1-3.3-0.9-4.4
				c0.3-1.4,1.2-3,2.2-4c0.4,1.3,0.8,3.4,0.5,4.8c-0.2,0.9-0.7,2-1.2,3c0.8-0.9,2.7-3.1,3.1-3.9c-0.8-1.3-2-2.9-2.1-4.1
				c-0.1-1.4,0.4-3.2,1-4.5c0.8,1.1,1.7,3,1.8,4.4c0.1,0.9-0.2,2.1-0.3,3.2c0.3-0.8,1.4-3.6,2-5.8c-1.1-1.1-2.8-2.3-3.2-3.4
				c-0.5-1.3-0.5-3.2-0.2-4.6c1,0.9,2.5,2.5,2.9,3.8c0.3,0.9,0.4,2.1,0.6,3.2c0.3-1.2,0.4-2.4,0.5-3.6c0-0.9,0-1.8,0-2.7
				c-1.4-0.7-3.2-1.5-3.9-2.4c-0.8-1.1-1.3-2.9-1.4-4.4c1.2,0.5,3,1.7,3.9,2.8c0.5,0.7,1,1.9,1.4,2.9c-0.1-0.9-0.3-1.8-0.5-2.7
				c-0.1-0.3-0.1-0.5-0.2-0.8c-0.1-0.3-0.2-0.5-0.3-0.8c-0.2-0.5-0.4-1-0.6-1.5c-0.1-0.3-0.3-0.5-0.4-0.8c-1.5-0.2-3.5-0.2-4.5-0.8
				c-1.2-0.8-2.3-2.2-2.9-3.6c1.3,0.1,3.5,0.5,4.6,1.2c0.7,0.4,1.5,1.3,2.2,2c-0.2-0.3-0.4-0.6-0.6-0.9c-1-1.4-2.1-2.6-3.3-3.7
				c-1.5,0.1-3.6,0.6-4.7,0.1c-1.2-0.5-2.6-1.6-3.5-2.8c1.3-0.2,3.3-0.2,4.6,0.3c0.9,0.4,2.1,1.2,3.1,1.9c-0.2-0.2-0.4-0.3-0.6-0.5
				c-1.5-1.3-3.1-2.4-4.8-3.5c-1.1,0.3-2.4,0.3-3.5-0.3c-1.2-0.6-2.1-1.6-2.8-2.9c1.3-0.2,2.8-0.2,4,0.4c1.1,0.6,2,1.5,2.4,2.6
				c0.8,0.4,1.6,0.9,2.3,1.3c0.5,0.3,1.1,0.7,1.6,1.1c-0.8-0.8-1.8-1.6-2.3-2.3c-0.8-1.1-1.2-3.1-1.3-4.4c1.3,0.6,2.7,1.6,3.5,2.7
				c0.7,1,0.7,3.2,1,4.7c0.1,0.1,0.2,0.2,0.3,0.2c1.3,1.1,2.6,2.3,3.7,3.6c-0.7-1.1-1.7-2.4-2.2-3.5c-0.5-1.3-0.5-3.5-0.3-4.8
				c1.2,0.9,2.4,2.3,2.9,3.6c0.5,1.2,0,3.5-0.1,5.1c0.2,0.3,0.4,0.5,0.6,0.8c0.6,0.8,1.1,1.7,1.6,2.5c-0.3-0.8-0.5-1.7-0.5-2.4
				c-0.1-1.4,0.6-3.6,1.2-4.8c0.9,1.2,1.7,3,1.7,4.4c0.1,1.3-1,3.1-1.6,4.6c0,0,0,0,0,0c0.1,0.3,0.2,0.5,0.3,0.8
				c0.1,0.3,0.2,0.5,0.2,0.8c0.2,0.8,0.4,1.7,0.6,2.6c0-1,0-2,0.2-2.8c0.3-1.4,1.6-3.4,2.6-4.4c0.5,1.5,0.7,3.5,0.4,4.9
				c-0.3,1.3-1.9,2.9-3,4.2c0,0.7,0.1,1.5,0,2.2c0,0.7-0.1,1.4-0.2,2c0.3-1,0.7-2,1.1-2.7c0.8-1.3,2.6-2.6,3.9-3.3
				c0,1.6-0.4,3.5-1.2,4.8c-0.7,1.1-2.7,2-4.1,2.9c-0.1,0.5-0.3,1.3-0.4,1.8l0,0c-0.2,0.9-0.6,2.2-1.2,3.7c0.5-0.8,1-1.7,1.6-2.3
				c1-1.1,3.1-2,4.5-2.4c-0.3,1.5-1.2,3.3-2.2,4.4c-0.9,1-3.2,1.4-4.7,2c-0.3,0.7-0.7,1.3-1.1,1.9c-0.4,0.6-0.8,1.1-1.2,1.6
				c0.8-0.7,1.6-1.4,2.3-1.7c1.3-0.7,3.6-0.9,5-0.8c-0.8,1.3-2.2,2.8-3.5,3.5c-1.2,0.6-3.3,0.4-5,0.4c-0.5,0.3-0.9,0.8-1.4,1.1l0,0
				c-0.7,0.6-1.7,1.4-3.1,2.3c0.9-0.4,1.8-0.8,2.6-1c1.5-0.3,3.7,0.1,5.1,0.6c-1.2,1.1-2.9,2.1-4.3,2.4c-1.3,0.3-3.4-0.6-5-1
				c-0.6,0.3-1.3,0.7-2,0.9c-0.6,0.3-1.3,0.5-1.9,0.7c1-0.1,2.1-0.2,2.9-0.1c1.5,0.2,3.5,1.3,4.6,2.2c-1.4,0.6-3.4,1.1-4.9,0.9
				c-1.3-0.2-3-1.6-4.3-2.5c-0.1,0-0.1,0-0.2,0c-0.1,0-0.2,0.1-0.3,0.1c-0.9,0.2-1.8,0.4-2.6,0.7c-0.4,0.1-0.9,0.2-1.3,0.4
				c-0.1,0-0.2,0.1-0.3,0.1c-0.1,0-0.2,0.1-0.3,0.1c-0.2,0.1-0.4,0.2-0.6,0.3c-0.8,0.4-1.5,0.9-2.1,1.5c0,0-0.1,0.1-0.1,0.1
				l-0.1-1.3C280.1,67.7,280.8,67.3,281.4,66.9z"/>
		</g>
		<g>
			<path fill="#4C9CD0" d="M282.9,59.3c-8.9,0-16.2-7.2-16.2-16.1c0-8.9,7.2-16.1,16.2-16.1c8.9,0,16.1,7.2,16.1,16.1
				C299,52.1,291.8,59.3,282.9,59.3z"/>
			<path fill="#66AAD7" d="M271.4,31.7c-6.3,6.3-6.3,16.5,0,22.8l22.8-22.8C288,25.5,277.7,25.5,271.4,31.7z"/>
		</g>
	</g>
	<path fill="#2E6186" d="M282.5,39.3c-15.2,0-30.4,3-44.7,8.9V81c14.3-5.9,29.5-8.9,44.7-8.9c15.2,0,30.4,3,44.7,8.9V48.1
		C312.9,42.2,297.7,39.3,282.5,39.3z"/>
	<path fill="#517B9A" d="M282.5,39.3c-15.2,0-30.4,3-44.7,8.9V81c7.7-3.2,15.7-5.5,23.8-7l34-33.9C291.2,39.5,286.9,39.3,282.5,39.3
		z"/>
</g>
</svg>
