<?xml version="1.0" encoding="utf-8"?>
<!-- Generator: Adobe Illustrator 18.1.1, SVG Export Plug-In . SVG Version: 6.00 Build 0)  -->
<svg version="1.1" id="Layer_1" xmlns="http://www.w3.org/2000/svg" xmlns:xlink="http://www.w3.org/1999/xlink" x="0px" y="0px"
	 viewBox="0 0 175 95.6" enable-background="new 0 0 175 95.6" xml:space="preserve">
<g>
	<polygon opacity="0.2" fill="#231F20" points="-86,1 -86,90.1 -151.2,90.1 -151.2,18.2 -134,1 	"/>
	<polygon fill="#C0E0DE" points="-148.3,92.9 -148.3,45 -148.3,21 -131.1,3.8 -83.2,3.8 -83.2,21.6 -83.2,45 -83.2,92.9 	"/>
	<polygon fill="#FFFFFF" points="-131.1,21 -148.3,21 -131.1,3.8 	"/>
	<polygon fill="#8FC3D5" points="-148.3,21 -131.1,21 -148.3,38.2 	"/>
	<g>
		<defs>
			<polygon id="SVGID_1_" points="-148.3,92.9 -148.3,45 -148.3,21 -131.1,3.8 -83.2,3.8 -83.2,21.6 -83.2,45 -83.2,92.9 			"/>
		</defs>
		<clipPath id="SVGID_2_">
			<use xlink:href="#SVGID_1_"  overflow="visible"/>
		</clipPath>
		<path clip-path="url(#SVGID_2_)" fill="#8FC3D5" d="M-70.7,36l-10.6-10.6l-4.4-4.4l-42.7,42.7c0,0,0,0,0,0l0,19.5l19.5,0
			c0,0,0,0,0,0l42.7-42.7L-70.7,36z"/>
	</g>
	<path fill="#0F3754" d="M-88,17.3l-42.7,42.6c2.6,2,5.9,2.4,8.1,0.8l39-39L-88,17.3z"/>
	<path fill="#174F78" d="M-72.9,32.3l-10.6-10.6l-39,39h0c0,0,0,0,0,0.1c0,0,0,0,0.1-0.1c-1.8,2.4-1.1,6.2,1.6,9
		c2.7,2.7,6.6,3.3,8.9,1.6c0,0,0,0,0,0.1c0,0,0,0,0.1,0v0L-72.9,32.3z"/>
	<path fill="#0F3754" d="M-112,71.3c-1.6,2.1-1.2,5.4,0.8,8.1l42.7-42.6l-4.4-4.4L-112,71.3z"/>
	<path fill="#C0E0DE" d="M-111.1,79.4c-2.1-2.6-2.4-5.9-0.8-8.1v0c0,0,0,0-0.1,0c0,0,0,0,0-0.1c-2.4,1.7-6.2,1.1-8.9-1.6
		c-2.7-2.7-3.3-6.6-1.6-9c0,0,0,0-0.1,0.1c0,0,0,0,0-0.1h0c-2.1,1.6-5.5,1.2-8.1-0.8l0,19.5L-111.1,79.4z"/>
	<path fill="#0F3754" d="M-130.6,69.8l0,9.6l9.6,0c-1.2-1.8-2.7-3.6-4.3-5.2C-127,72.5-128.8,71.1-130.6,69.8z"/>
	
		<rect x="-86.5" y="13.9" transform="matrix(-0.7069 -0.7073 0.7073 -0.7069 -154.4168 -29.7533)" fill="#0E303F" width="6.3" height="6.5"/>
	
		<rect x="-83.3" y="21.4" transform="matrix(-0.7072 -0.707 0.707 -0.7072 -146.9305 -11.5919)" fill="#2C5871" width="15" height="6.5"/>
	
		<rect x="-71.5" y="28.9" transform="matrix(-0.707 -0.7072 0.7072 -0.707 -139.4096 6.5185)" fill="#0E303F" width="6.3" height="6.5"/>
</g>
<g>
	<g>
		<path fill="#338DC9" d="M468.1,91.1c-0.5,0-0.9,0.4-0.9,0.9c0,0.5,0.4,0.9,0.9,0.9h18.8c0.5,0,0.9-0.4,0.9-0.9
			c0-0.5-0.4-0.9-0.9-0.9H468.1L468.1,91.1z"/>
	</g>
</g>
<path fill="#0071BB" d="M454.1,45c0-13,10.5-23.4,23.4-23.4c13,0,23.4,10.5,23.4,23.4c0,0.8-0.6,11.6-9.4,23
	c-2.6,3.4-2.2,10.3-2.1,10.3c-3.6,0-6.6,0-10.3,0c-1.1,0-2.2,0-3.3,0c-3.6,0-6.7,0-10.3,0c0,0,0.5-6.9-2.1-10.3
	C454.6,56.6,454.1,45.8,454.1,45z"/>
<path fill="#338DC9" d="M477.5,78.3c-3.6,0-8.3,0-12,0c0,0,0.5-6.9-2.1-10.3c-8.8-11.4-9.4-22.2-9.4-23c0-13,10.5-23.4,23.4-23.4"/>
<g>
	<path fill="#338DC9" d="M496,45h-2.1c0-9-7.4-16.4-16.4-16.4v-2.1C487.7,26.6,496,34.9,496,45L496,45z"/>
</g>
<g>
	<g>
		<g>
			<polygon fill="#FFFFFF" points="482.6,80.2 480.6,79.8 484.6,55.6 486.6,55.9 482.6,80.2 			"/>
		</g>
		<g>
			<polygon fill="#FFFFFF" points="472.4,80.2 468.4,55.9 470.4,55.6 474.4,79.8 472.4,80.2 			"/>
		</g>
	</g>
	<g>
		<path fill="#FFFFFF" d="M485.5,59c-0.8,0-1.2-0.8-1.5-1.4c-0.1-0.2-0.3-0.8-0.5-0.8c-0.1,0-0.3,0.5-0.4,0.7
			c-0.2,0.6-0.6,1.5-1.6,1.5c-0.6,0-0.9-0.6-1.3-1.3c-0.1-0.3-0.4-0.7-0.6-0.9c-0.1,0.2-0.4,0.5-0.5,0.7c-0.4,0.7-0.8,1.4-1.5,1.4
			c-0.6,0-1-0.7-1.4-1.4c-0.1-0.2-0.4-0.6-0.5-0.8c-0.2,0.2-0.4,0.6-0.5,0.8c-0.4,0.7-0.8,1.3-1.4,1.3c-0.7,0-1.1-0.7-1.6-1.5
			c-0.1-0.2-0.3-0.6-0.5-0.7c-0.2,0.1-0.3,0.3-0.5,0.8c-0.2,0.6-0.5,1.4-1.4,1.4v-1.1c0.1,0,0.3-0.5,0.4-0.7
			c0.2-0.6,0.6-1.5,1.6-1.5c0.6,0,0.9,0.6,1.3,1.3c0.2,0.3,0.4,0.7,0.6,0.9c0.1-0.2,0.4-0.5,0.5-0.7c0.4-0.7,0.8-1.4,1.5-1.4
			c0.6,0,1,0.7,1.4,1.4c0.1,0.2,0.4,0.6,0.5,0.8c0.2-0.2,0.4-0.6,0.5-0.8c0.4-0.7,0.8-1.3,1.4-1.3c0.7,0,1.1,0.7,1.6,1.5
			c0.1,0.2,0.3,0.6,0.5,0.7c0.2-0.1,0.3-0.3,0.5-0.8c0.2-0.6,0.5-1.4,1.4-1.4c0.8,0,1.2,0.8,1.5,1.4c0.1,0.3,0.3,0.8,0.5,0.8V59
			L485.5,59z"/>
	</g>
</g>
<path fill="#0071BB" d="M489.4,78.4v12.3c0,0.8-0.7,1.5-1.5,1.5h-20.8c-0.8,0-1.5-0.7-1.5-1.5V78.4H489.4z"/>
<g>
	<g>
		<line fill="#338DC9" x1="489.9" y1="79.5" x2="465.1" y2="79.5"/>
		<path fill="#338DC9" d="M489.9,80.7h-24.8c-0.7,0-1.2-0.5-1.2-1.2c0-0.7,0.5-1.2,1.2-1.2h24.8c0.7,0,1.2,0.5,1.2,1.2
			C491.1,80.2,490.6,80.7,489.9,80.7L489.9,80.7z"/>
	</g>
	<g>
		<line fill="#338DC9" x1="489.9" y1="83.5" x2="465.1" y2="83.5"/>
		<path fill="#338DC9" d="M489.9,84.7h-24.8c-0.7,0-1.2-0.5-1.2-1.2c0-0.7,0.5-1.2,1.2-1.2h24.8c0.7,0,1.2,0.5,1.2,1.2
			C491.1,84.2,490.6,84.7,489.9,84.7L489.9,84.7z"/>
	</g>
	<g>
		<line fill="#338DC9" x1="489.9" y1="87.5" x2="465.1" y2="87.5"/>
		<path fill="#338DC9" d="M489.9,88.8h-24.8c-0.7,0-1.2-0.5-1.2-1.2c0-0.7,0.5-1.2,1.2-1.2h24.8c0.7,0,1.2,0.5,1.2,1.2
			C491.1,88.2,490.6,88.8,489.9,88.8L489.9,88.8z"/>
	</g>
</g>
<g>
	<g>
		<path fill="#0071BB" d="M477.5,13.9c-0.3,0-0.6-0.3-0.6-0.6V0.5c0-0.3,0.3-0.6,0.6-0.6c0.3,0,0.6,0.3,0.6,0.6v12.9
			C478.1,13.7,477.8,13.9,477.5,13.9L477.5,13.9z"/>
	</g>
	<g>
		<path fill="#0071BB" d="M461.1,18.4c-0.2,0-0.4-0.1-0.5-0.3l-6.4-11.2c-0.2-0.3-0.1-0.7,0.2-0.8c0.3-0.2,0.7-0.1,0.8,0.2l6.4,11.2
			c0.2,0.3,0.1,0.7-0.2,0.8C461.3,18.3,461.2,18.4,461.1,18.4L461.1,18.4z"/>
	</g>
	<g>
		<path fill="#0071BB" d="M449.1,30.4c-0.1,0-0.2,0-0.3-0.1l-11.2-6.4c-0.3-0.2-0.4-0.5-0.2-0.8c0.2-0.3,0.5-0.4,0.8-0.2l11.2,6.4
			c0.3,0.2,0.4,0.5,0.2,0.8C449.5,30.3,449.3,30.4,449.1,30.4L449.1,30.4z"/>
	</g>
	<g>
		<path fill="#0071BB" d="M444.7,46.8h-12.9c-0.3,0-0.6-0.3-0.6-0.6c0-0.3,0.3-0.6,0.6-0.6h12.9c0.3,0,0.6,0.3,0.6,0.6
			C445.3,46.5,445,46.8,444.7,46.8L444.7,46.8z"/>
	</g>
	<g>
		<path fill="#0071BB" d="M517.1,69.6c-0.1,0-0.2,0-0.3-0.1l-11.2-6.4c-0.3-0.2-0.4-0.5-0.2-0.8c0.2-0.3,0.5-0.4,0.8-0.2l11.2,6.4
			c0.3,0.2,0.4,0.5,0.2,0.8C517.5,69.5,517.3,69.6,517.1,69.6L517.1,69.6z"/>
	</g>
	<g>
		<path fill="#0071BB" d="M523.2,46.8h-12.9c-0.3,0-0.6-0.3-0.6-0.6s0.3-0.6,0.6-0.6h12.9c0.3,0,0.6,0.3,0.6,0.6
			S523.6,46.8,523.2,46.8L523.2,46.8z"/>
	</g>
	<g>
		<path fill="#0071BB" d="M505.9,30.4c-0.2,0-0.4-0.1-0.5-0.3c-0.2-0.3-0.1-0.7,0.2-0.8l11.2-6.4c0.3-0.2,0.7-0.1,0.8,0.2
			c0.2,0.3,0.1,0.7-0.2,0.8l-11.2,6.4C506.1,30.3,506,30.4,505.9,30.4L505.9,30.4z"/>
	</g>
	<g>
		<path fill="#0071BB" d="M493.9,18.3c-0.1,0-0.2,0-0.3-0.1c-0.3-0.2-0.4-0.5-0.2-0.8l6.4-11.2c0.2-0.3,0.5-0.4,0.8-0.2
			c0.3,0.2,0.4,0.5,0.2,0.8L494.4,18C494.3,18.2,494.1,18.3,493.9,18.3L493.9,18.3z"/>
	</g>
	<g>
		<path fill="#0071BB" d="M477.5,13.9c-0.3,0-0.6-0.3-0.6-0.6V0.5c0-0.3,0.3-0.6,0.6-0.6c0.3,0,0.6,0.3,0.6,0.6v12.9
			C478.1,13.7,477.8,13.9,477.5,13.9L477.5,13.9z"/>
	</g>
</g>
<g>
	<g>
		<path fill="#0071BB" d="M477.5,13.9c-0.3,0-0.6-0.3-0.6-0.6V0.5c0-0.3,0.3-0.6,0.6-0.6c0.3,0,0.6,0.3,0.6,0.6v12.9
			C478.1,13.7,477.8,13.9,477.5,13.9L477.5,13.9z"/>
	</g>
	<g>
		<path fill="#0071BB" d="M493.9,18.4c-0.1,0-0.2,0-0.3-0.1c-0.3-0.2-0.4-0.5-0.2-0.8l6.4-11.2c0.2-0.3,0.5-0.4,0.8-0.2
			c0.3,0.2,0.4,0.5,0.2,0.8L494.5,18C494.3,18.2,494.1,18.4,493.9,18.4L493.9,18.4z"/>
	</g>
	<g>
		<path fill="#0071BB" d="M505.9,30.4c-0.2,0-0.4-0.1-0.5-0.3c-0.2-0.3-0.1-0.7,0.2-0.8l11.2-6.4c0.3-0.2,0.7-0.1,0.8,0.2
			c0.2,0.3,0.1,0.7-0.2,0.8l-11.2,6.4C506.1,30.3,506,30.4,505.9,30.4L505.9,30.4z"/>
	</g>
	<g>
		<path fill="#0071BB" d="M523.2,46.8h-12.9c-0.3,0-0.6-0.3-0.6-0.6c0-0.3,0.3-0.6,0.6-0.6h12.9c0.3,0,0.6,0.3,0.6,0.6
			C523.8,46.5,523.6,46.8,523.2,46.8L523.2,46.8z"/>
	</g>
	<g>
		<path fill="#0071BB" d="M437.9,69.6c-0.2,0-0.4-0.1-0.5-0.3c-0.2-0.3-0.1-0.7,0.2-0.8l11.2-6.4c0.3-0.2,0.7-0.1,0.8,0.2
			c0.2,0.3,0.1,0.7-0.2,0.8l-11.2,6.4C438.1,69.6,438,69.6,437.9,69.6L437.9,69.6z"/>
	</g>
	<g>
		<path fill="#0071BB" d="M444.7,46.8h-12.9c-0.3,0-0.6-0.3-0.6-0.6s0.3-0.6,0.6-0.6h12.9c0.3,0,0.6,0.3,0.6,0.6
			S445,46.8,444.7,46.8L444.7,46.8z"/>
	</g>
	<g>
		<path fill="#0071BB" d="M449.1,30.4c-0.1,0-0.2,0-0.3-0.1l-11.2-6.4c-0.3-0.2-0.4-0.5-0.2-0.8c0.2-0.3,0.5-0.4,0.8-0.2l11.2,6.4
			c0.3,0.2,0.4,0.5,0.2,0.8C449.5,30.2,449.3,30.4,449.1,30.4L449.1,30.4z"/>
	</g>
	<g>
		<path fill="#0071BB" d="M461.1,18.3c-0.2,0-0.4-0.1-0.5-0.3l-6.4-11.2c-0.2-0.3-0.1-0.7,0.2-0.8c0.3-0.2,0.7-0.1,0.8,0.2l6.4,11.2
			c0.2,0.3,0.1,0.7-0.2,0.8C461.3,18.3,461.2,18.3,461.1,18.3L461.1,18.3z"/>
	</g>
	<g>
		<path fill="#0071BB" d="M477.5,13.9c-0.3,0-0.6-0.3-0.6-0.6V0.5c0-0.3,0.3-0.6,0.6-0.6c0.3,0,0.6,0.3,0.6,0.6v12.9
			C478.1,13.7,477.8,13.9,477.5,13.9L477.5,13.9z"/>
	</g>
</g>
<g>
	<g>
		<path fill="#338DC9" d="M1638.1,91.1c-0.5,0-0.9,0.4-0.9,0.9c0,0.5,0.4,0.9,0.9,0.9h18.8c0.5,0,0.9-0.4,0.9-0.9
			c0-0.5-0.4-0.9-0.9-0.9H1638.1L1638.1,91.1z"/>
	</g>
</g>
<path fill="#0071BB" d="M1624.1,45.1c0-13,10.5-23.4,23.4-23.4c13,0,23.4,10.5,23.4,23.4c0,0.8-0.6,11.6-9.4,23
	c-2.6,3.4-2.2,10.3-2.1,10.3c-3.6,0-6.6,0-10.3,0c-1.1,0-2.2,0-3.3,0c-3.6,0-6.7,0-10.3,0c0,0,0.5-6.9-2.1-10.3
	C1624.6,56.6,1624.1,45.8,1624.1,45.1z"/>
<path fill="#338DC9" d="M1647.5,78.4c-3.6,0-8.3,0-12,0c0,0,0.5-6.9-2.1-10.3c-8.8-11.4-9.4-22.2-9.4-23c0-13,10.5-23.4,23.4-23.4"
	/>
<g>
	<path fill="#338DC9" d="M1666,45h-2.1c0-9-7.4-16.4-16.4-16.4v-2.1C1657.7,26.6,1666,34.9,1666,45L1666,45z"/>
</g>
<g>
	<g>
		<g>
			<polygon fill="#FFFFFF" points="1652.6,80.2 1650.6,79.9 1654.6,55.6 1656.6,56 1652.6,80.2 			"/>
		</g>
		<g>
			<polygon fill="#FFFFFF" points="1642.4,80.2 1638.4,56 1640.4,55.6 1644.4,79.9 1642.4,80.2 			"/>
		</g>
	</g>
	<g>
		<path fill="#FFFFFF" d="M1655.5,59c-0.8,0-1.2-0.8-1.5-1.4c-0.1-0.2-0.3-0.8-0.5-0.8c-0.1,0-0.3,0.5-0.4,0.7
			c-0.2,0.6-0.6,1.5-1.6,1.5c-0.6,0-0.9-0.6-1.3-1.3c-0.1-0.3-0.4-0.7-0.6-0.9c-0.1,0.2-0.4,0.5-0.5,0.7c-0.4,0.7-0.8,1.4-1.5,1.4
			c-0.6,0-1-0.7-1.4-1.4c-0.1-0.2-0.4-0.6-0.5-0.8c-0.2,0.2-0.4,0.6-0.5,0.8c-0.4,0.7-0.8,1.3-1.4,1.3c-0.7,0-1.1-0.7-1.6-1.5
			c-0.1-0.2-0.3-0.6-0.5-0.7c-0.2,0.1-0.3,0.3-0.5,0.8c-0.2,0.6-0.5,1.4-1.4,1.4v-1.1c0.1,0,0.3-0.5,0.4-0.7
			c0.2-0.6,0.6-1.5,1.6-1.5c0.6,0,0.9,0.6,1.3,1.3c0.2,0.3,0.4,0.7,0.6,0.9c0.1-0.2,0.4-0.5,0.5-0.7c0.4-0.7,0.8-1.4,1.5-1.4
			c0.6,0,1,0.7,1.4,1.4c0.1,0.2,0.4,0.6,0.5,0.8c0.2-0.2,0.4-0.6,0.5-0.8c0.4-0.7,0.8-1.3,1.4-1.3c0.7,0,1.1,0.7,1.6,1.5
			c0.1,0.2,0.3,0.6,0.5,0.7c0.2-0.1,0.3-0.3,0.5-0.8c0.2-0.6,0.5-1.4,1.4-1.4c0.8,0,1.2,0.8,1.5,1.4c0.1,0.3,0.3,0.8,0.5,0.8V59
			L1655.5,59z"/>
	</g>
</g>
<path fill="#0071BB" d="M1659.4,78.4v12.3c0,0.8-0.7,1.5-1.5,1.5h-20.8c-0.8,0-1.5-0.7-1.5-1.5V78.4H1659.4z"/>
<g>
	<g>
		<line fill="#338DC9" x1="1659.9" y1="79.6" x2="1635.1" y2="79.6"/>
		<path fill="#338DC9" d="M1659.9,80.8h-24.8c-0.7,0-1.2-0.5-1.2-1.2c0-0.7,0.5-1.2,1.2-1.2h24.8c0.7,0,1.2,0.5,1.2,1.2
			C1661.1,80.2,1660.6,80.8,1659.9,80.8L1659.9,80.8z"/>
	</g>
	<g>
		<line fill="#338DC9" x1="1659.9" y1="83.6" x2="1635.1" y2="83.6"/>
		<path fill="#338DC9" d="M1659.9,84.8h-24.8c-0.7,0-1.2-0.5-1.2-1.2c0-0.7,0.5-1.2,1.2-1.2h24.8c0.7,0,1.2,0.5,1.2,1.2
			C1661.1,84.2,1660.6,84.8,1659.9,84.8L1659.9,84.8z"/>
	</g>
	<g>
		<line fill="#338DC9" x1="1659.9" y1="87.6" x2="1635.1" y2="87.6"/>
		<path fill="#338DC9" d="M1659.9,88.8h-24.8c-0.7,0-1.2-0.5-1.2-1.2c0-0.7,0.5-1.2,1.2-1.2h24.8c0.7,0,1.2,0.5,1.2,1.2
			C1661.1,88.2,1660.6,88.8,1659.9,88.8L1659.9,88.8z"/>
	</g>
</g>
<g>
	<g>
		<path fill="#0071BB" d="M1647.5,14c-0.3,0-0.6-0.3-0.6-0.6V0.5c0-0.3,0.3-0.6,0.6-0.6s0.6,0.3,0.6,0.6v12.9
			C1648.1,13.7,1647.8,14,1647.5,14L1647.5,14z"/>
	</g>
	<g>
		<path fill="#0071BB" d="M1631.1,18.4c-0.2,0-0.4-0.1-0.5-0.3l-6.4-11.2c-0.2-0.3-0.1-0.7,0.2-0.8c0.3-0.2,0.7-0.1,0.8,0.2
			l6.4,11.2c0.2,0.3,0.1,0.7-0.2,0.8C1631.3,18.3,1631.2,18.4,1631.1,18.4L1631.1,18.4z"/>
	</g>
	<g>
		<path fill="#0071BB" d="M1619.1,30.4c-0.1,0-0.2,0-0.3-0.1l-11.2-6.4c-0.3-0.2-0.4-0.5-0.2-0.8c0.2-0.3,0.5-0.4,0.8-0.2l11.2,6.4
			c0.3,0.2,0.4,0.5,0.2,0.8C1619.5,30.3,1619.3,30.4,1619.1,30.4L1619.1,30.4z"/>
	</g>
	<g>
		<path fill="#0071BB" d="M1614.7,46.8h-12.9c-0.3,0-0.6-0.3-0.6-0.6c0-0.3,0.3-0.6,0.6-0.6h12.9c0.3,0,0.6,0.3,0.6,0.6
			C1615.3,46.5,1615,46.8,1614.7,46.8L1614.7,46.8z"/>
	</g>
	<g>
		<path fill="#0071BB" d="M1687.1,69.6c-0.1,0-0.2,0-0.3-0.1l-11.2-6.4c-0.3-0.2-0.4-0.5-0.2-0.8c0.2-0.3,0.5-0.4,0.8-0.2l11.2,6.4
			c0.3,0.2,0.4,0.5,0.2,0.8C1687.5,69.5,1687.3,69.6,1687.1,69.6L1687.1,69.6z"/>
	</g>
	<g>
		<path fill="#0071BB" d="M1693.2,46.8h-12.9c-0.3,0-0.6-0.3-0.6-0.6c0-0.3,0.3-0.6,0.6-0.6h12.9c0.3,0,0.6,0.3,0.6,0.6
			C1693.8,46.5,1693.6,46.8,1693.2,46.8L1693.2,46.8z"/>
	</g>
	<g>
		<path fill="#0071BB" d="M1675.9,30.4c-0.2,0-0.4-0.1-0.5-0.3c-0.2-0.3-0.1-0.7,0.2-0.8l11.2-6.4c0.3-0.2,0.7-0.1,0.8,0.2
			c0.2,0.3,0.1,0.7-0.2,0.8l-11.2,6.4C1676.1,30.3,1676,30.4,1675.9,30.4L1675.9,30.4z"/>
	</g>
	<g>
		<path fill="#0071BB" d="M1663.9,18.4c-0.1,0-0.2,0-0.3-0.1c-0.3-0.2-0.4-0.5-0.2-0.8l6.4-11.2c0.2-0.3,0.5-0.4,0.8-0.2
			c0.3,0.2,0.4,0.5,0.2,0.8l-6.4,11.2C1664.3,18.3,1664.1,18.4,1663.9,18.4L1663.9,18.4z"/>
	</g>
	<g>
		<path fill="#0071BB" d="M1647.5,14c-0.3,0-0.6-0.3-0.6-0.6V0.5c0-0.3,0.3-0.6,0.6-0.6s0.6,0.3,0.6,0.6v12.9
			C1648.1,13.7,1647.8,14,1647.5,14L1647.5,14z"/>
	</g>
</g>
<g>
	<g>
		<path fill="#0071BB" d="M1647.5,14c-0.3,0-0.6-0.3-0.6-0.6V0.5c0-0.3,0.3-0.6,0.6-0.6s0.6,0.3,0.6,0.6v12.9
			C1648.1,13.7,1647.8,14,1647.5,14L1647.5,14z"/>
	</g>
	<g>
		<path fill="#0071BB" d="M1663.9,18.4c-0.1,0-0.2,0-0.3-0.1c-0.3-0.2-0.4-0.5-0.2-0.8l6.4-11.2c0.2-0.3,0.5-0.4,0.8-0.2
			c0.3,0.2,0.4,0.5,0.2,0.8l-6.4,11.2C1664.3,18.3,1664.1,18.4,1663.9,18.4L1663.9,18.4z"/>
	</g>
	<g>
		<path fill="#0071BB" d="M1675.9,30.4c-0.2,0-0.4-0.1-0.5-0.3c-0.2-0.3-0.1-0.7,0.2-0.8l11.2-6.4c0.3-0.2,0.7-0.1,0.8,0.2
			c0.2,0.3,0.1,0.7-0.2,0.8l-11.2,6.4C1676.1,30.4,1676,30.4,1675.9,30.4L1675.9,30.4z"/>
	</g>
	<g>
		<path fill="#0071BB" d="M1693.2,46.8h-12.9c-0.3,0-0.6-0.3-0.6-0.6c0-0.3,0.3-0.6,0.6-0.6h12.9c0.3,0,0.6,0.3,0.6,0.6
			C1693.8,46.5,1693.6,46.8,1693.2,46.8L1693.2,46.8z"/>
	</g>
	<g>
		<path fill="#0071BB" d="M1607.9,69.6c-0.2,0-0.4-0.1-0.5-0.3c-0.2-0.3-0.1-0.7,0.2-0.8l11.2-6.4c0.3-0.2,0.7-0.1,0.8,0.2
			c0.2,0.3,0.1,0.7-0.2,0.8l-11.2,6.4C1608.1,69.6,1608,69.6,1607.9,69.6L1607.9,69.6z"/>
	</g>
	<g>
		<path fill="#0071BB" d="M1614.7,46.8h-12.9c-0.3,0-0.6-0.3-0.6-0.6c0-0.3,0.3-0.6,0.6-0.6h12.9c0.3,0,0.6,0.3,0.6,0.6
			C1615.3,46.5,1615,46.8,1614.7,46.8L1614.7,46.8z"/>
	</g>
	<g>
		<path fill="#0071BB" d="M1619.1,30.4c-0.1,0-0.2,0-0.3-0.1l-11.2-6.4c-0.3-0.2-0.4-0.5-0.2-0.8c0.2-0.3,0.5-0.4,0.8-0.2l11.2,6.4
			c0.3,0.2,0.4,0.5,0.2,0.8C1619.5,30.3,1619.3,30.4,1619.1,30.4L1619.1,30.4z"/>
	</g>
	<g>
		<path fill="#0071BB" d="M1631.1,18.4c-0.2,0-0.4-0.1-0.5-0.3l-6.4-11.2c-0.2-0.3-0.1-0.7,0.2-0.8c0.3-0.2,0.7-0.1,0.8,0.2
			l6.4,11.2c0.2,0.3,0.1,0.7-0.2,0.8C1631.3,18.3,1631.2,18.4,1631.1,18.4L1631.1,18.4z"/>
	</g>
	<g>
		<path fill="#0071BB" d="M1647.5,14c-0.3,0-0.6-0.3-0.6-0.6V0.5c0-0.3,0.3-0.6,0.6-0.6s0.6,0.3,0.6,0.6v12.9
			C1648.1,13.7,1647.8,14,1647.5,14L1647.5,14z"/>
	</g>
</g>
<g>
	<g>
		<g>
			<path fill="#0072BC" d="M136.7,13.4h-9.6L116.7,0H83.4L72.9,13.4H38.3c-4.1,0-7.4,3.3-7.4,7.4v64.4c0,4.1,3.3,7.4,7.4,7.4h98.5
				c4.1,0,7.4-3.3,7.4-7.4V20.7C144.1,16.7,140.8,13.4,136.7,13.4z"/>
			<path fill="#FFFFFF" d="M126.4,52.9c0,14.5-11.8,26.3-26.3,26.3c-14.6,0-26.3-11.8-26.3-26.3c0-14.6,11.8-26.4,26.3-26.4
				C114.6,26.6,126.4,38.4,126.4,52.9z"/>
			<path fill="#0E303F" d="M122.8,52.9c0,12.6-10.2,22.8-22.8,22.8c-12.6,0-22.8-10.2-22.8-22.8c0-12.6,10.2-22.8,22.8-22.8
				C112.6,30.1,122.8,40.3,122.8,52.9z"/>
			<path fill="#80B8DD" d="M117,52.9c0,9.3-7.6,16.9-16.9,16.9c-9.4,0-16.9-7.6-16.9-16.9c0-9.4,7.6-16.9,16.9-16.9
				C109.4,36,117,43.6,117,52.9z"/>
			<path fill="#FFFFFF" d="M100.9,46c0,3.3-2.7,6-6,6c-3.3,0-6-2.7-6-6c0-3.3,2.7-6,6-6C98.2,40,100.9,42.7,100.9,46z"/>
			<path fill="#FFFFFF" d="M92.1,55.4c0,1.9-1.5,3.4-3.4,3.4c-1.9,0-3.4-1.5-3.4-3.4c0-1.9,1.5-3.4,3.4-3.4
				C90.6,52,92.1,53.5,92.1,55.4z"/>
			<path fill="#175079" d="M40.9,18.4c-2.8,0-5.3-1.6-6.5-3.9c-2.1,1.3-3.5,3.6-3.5,6.3v64.4c0,4.1,3.3,7.4,7.4,7.4h20.6V18.4H40.9z
				"/>
			<path fill="#175079" d="M58.9,13.2c0,1.2-1,2.1-2.1,2.1H42.4c-1.2,0-2.1-1-2.1-2.1v-1.1c0-1.2,1-2.1,2.1-2.1h14.4
				c1.2,0,2.1,1,2.1,2.1V13.2z"/>
			<path fill="#FFFFFF" d="M115.8,9.2c0,1.2-1,2.2-2.2,2.2H86c-1.2,0-2.2-1-2.2-2.2V4.8c0-1.2,1-2.2,2.2-2.2h27.6
				c1.2,0,2.2,1,2.2,2.2V9.2z"/>
		</g>
	</g>
</g>
<g>
	<path fill="#0071BB" d="M699.3,69.3c-4.5,3.4-6.7,7.4-6.7,12c0,3.5,1.3,6.3,4,8.5c2.7,2.1,5.8,3.2,9.5,3.2c2.9,0,6.2-0.8,9.8-2.4
		c1.7-0.7,3.5-1.6,5.3-2.7v-3.1c-0.8,0.5-1.6,0.9-2.4,1.3c-2.8,1.4-5.2,2.1-7.3,2.1c-2.3,0-4.3-0.9-5.7-2.6c-1.5-1.7-2.2-4-2.2-6.8
		c0-7.1,5.7-12.9,17.2-17.6l0.4-0.2v-3.1l-3.5,1.4C710,62.6,703.8,65.9,699.3,69.3z M716.9,34.8c-7.6,0-13.2,1.4-16.8,4.4
		c-3.6,2.9-5.4,5.6-5.4,8.1c0,2.6,1.3,3.9,4.1,3.9c3,0,4.9-2.3,5.6-6.8c0.8-4.4,4.5-6.6,11.1-6.6c2.2,0,4.1,0.3,5.7,0.9V35
		C719.9,34.9,718.5,34.8,716.9,34.8z"/>
	<path fill="#0071BB" d="M641.7,28.5V0h-1.2l-26.2,62.6c-1.9,4.5-3,7.1-3.2,7.7c-2.8,7-5.1,11.7-7.1,13.9c-2,2.2-4.9,3.6-8.9,4.2
		v3.1h26.8v-3.1c-2.9,0-5.2-0.7-7.1-2.1c-1.8-1.4-2.8-3.5-2.8-6.2c0-2.5,1.7-7.9,5.2-16.2l2.3-5.7h22.1v-3h-20.8l15.9-38.5
		L641.7,28.5z"/>
	<path fill="#175079" d="M688.2,88.5v3.1h-35.5v-3.1c4.3,0,7.3-0.3,8.8-1c1.5-0.6,2.3-1.9,2.3-3.8c0-1-1-3.9-3.1-8.7l-6.9-16.7
		h-12.2v-3h11.1l-11.1-26.7V0h1.4l30.2,71.7l4.1,9.4c0.9,2.1,2.2,3.8,3.8,5C682.7,87.4,685.1,88.2,688.2,88.5z"/>
	<path fill="#175079" d="M749.9,81.5c-0.4,7.6-4.1,11.4-11.2,11.4c-3,0-5.4-0.8-7.2-2.4c-1.8-1.6-2.9-4-3.4-7.1
		c-2.4,1.7-4.7,3.2-6.8,4.4v-3.1c2.1-1.3,4.4-2.9,6.8-4.9V58.2l-6.8,2.8v-3.1l6.8-2.8v-2.7c0-3.8-0.2-6.5-0.7-8.2s-1.8-3.2-3.8-4.5
		c-0.7-0.5-1.5-0.8-2.3-1.1V35c3.6,0.4,6.5,1.2,8.8,2.5c3.1,1.8,5.2,3.8,6.2,6.1c1,2.3,1.5,5.7,1.5,10.4v22c0,5.2,0.3,8.5,0.8,9.9
		c0.5,1.5,1.7,2.2,3.5,2.2c2.9,0,4.8-2.2,5.5-6.5H749.9z"/>
</g>
<g>
	<g>
		<path fill="#0072BC" d="M263.5,24.4c-21,0-37.9,13.4-37.9,29.9c0,11.9,8.9,22.2,21.7,27c-0.3,0.5-0.5,1.1-0.8,1.6
			c-2.5,4.2-6.2,7.4-10.5,9.5c9.7,0.7,18.6-2.2,24.6-8.3c1,0.1,2,0.1,3,0.1c20.9,0,37.9-13.4,37.9-29.9
			C301.4,37.8,284.5,24.4,263.5,24.4z"/>
		<path fill="#175079" d="M289.6,76c-23.5-0.5-42.3-15.7-42.3-34.3c0-5.8,1.8-11.2,5-16c3.5-0.9,7.3-1.3,11.1-1.3
			c20.9,0,37.9,13.4,37.9,29.9C301.4,62.9,296.9,70.6,289.6,76z"/>
		<path fill="#99C6E4" d="M295.9-0.1c24,0,43.5,15.4,43.5,34.3c0,13.7-10.2,25.5-24.9,31c0.3,0.6,0.5,1.2,0.9,1.8
			c2.9,4.8,7.1,8.5,12.1,10.9c-11.1,0.8-21.4-2.5-28.2-9.5c-1.1,0.1-2.3,0.1-3.4,0.1c-24,0-43.5-15.4-43.5-34.3S271.9-0.1,295.9-0.1
			z"/>
		<path fill="#CCE3F1" d="M339.4,34.3c-0.1,13.6-10.2,25.4-24.9,30.9c0.3,0.6,0.5,1.2,0.9,1.8c2.9,4.8,7.1,8.5,12.1,10.9
			c-11.1,0.8-21.4-2.5-28.2-9.5c-1.1,0.1-2.3,0.1-3.4,0.1c-24,0-43.4-15.3-43.5-34.2H339.4z"/>
		<g>
			<g>
				<path fill="#1980C2" d="M308.4,34.8c0,3.4,2.7,6.1,6.1,6.1c3.4,0,6.1-2.7,6.1-6.1c0-3.4-2.7-6.1-6.1-6.1
					C311.1,28.7,308.4,31.5,308.4,34.8z"/>
				<path fill="#1980C2" d="M289.7,34.8c0,3.4,2.7,6.1,6.1,6.1c3.4,0,6.1-2.7,6.1-6.1c0-3.4-2.7-6.1-6.1-6.1
					C292.4,28.7,289.7,31.5,289.7,34.8z"/>
				<path fill="#1980C2" d="M270.9,34.8c0,3.4,2.7,6.1,6.1,6.1c3.4,0,6.1-2.7,6.1-6.1c0-3.4-2.7-6.1-6.1-6.1
					C273.7,28.7,270.9,31.5,270.9,34.8z"/>
			</g>
			<g>
				<path fill="#0072BC" d="M320.6,34.3h-12.1c0.3-3.1,2.9-5.6,6.1-5.6C317.7,28.7,320.3,31.2,320.6,34.3z"/>
				<path fill="#0072BC" d="M301.8,34.3h-12.1c0.3-3.1,2.9-5.6,6.1-5.6C299,28.7,301.6,31.2,301.8,34.3z"/>
				<path fill="#0072BC" d="M283.1,34.3H271c0.3-3.1,2.9-5.6,6.1-5.6C280.2,28.7,282.8,31.2,283.1,34.3z"/>
			</g>
		</g>
	</g>
</g>
<path fill="#B06E59" d="M1207,85.1c-0.1-0.2-0.2-0.5-0.3-0.7C1206.9,84.6,1206.9,84.8,1207,85.1z"/>
<g>
	<g>
		<g>
			<g>
				<path fill="#30363D" d="M999.6,87.2c-0.9,0-1.7-0.3-2.3-1c-0.6-0.6-1-1.4-1-2.3l0-80.6c0-0.9,0.3-1.7,1-2.3c0.6-0.6,1.4-1,2.3-1
					h127.5c0.9,0,1.7,0.3,2.3,1c0.6,0.6,1,1.4,1,2.3v80.6c0,0.9-0.3,1.7-1,2.3c-0.6,0.6-1.4,1-2.3,1H999.6z"/>
				<path fill="#30363D" d="M1129.5,1c-0.6-0.6-1.5-1-2.3-1H999.6c-0.9,0-1.7,0.3-2.3,1c-0.6,0.6-1,1.5-1,2.3l0,80.6
					c0,0.9,0.3,1.7,1,2.3c0.6,0.6,1.5,1,2.3,1h127.5c0.9,0,1.7-0.3,2.3-1c0.6-0.6,1-1.5,1-2.3V3.3C1130.4,2.4,1130.1,1.6,1129.5,1z
					 M1130.3,83.9c0,0.8-0.3,1.6-0.9,2.2c-0.6,0.6-1.4,0.9-2.2,0.9H999.6c-0.8,0-1.6-0.3-2.2-0.9c-0.6-0.6-0.9-1.4-0.9-2.2l0-80.6
					c0-0.8,0.3-1.6,0.9-2.2c0.6-0.6,1.4-0.9,2.2-0.9h127.5c0.8,0,1.6,0.3,2.2,0.9c0.6,0.6,0.9,1.4,0.9,2.2V83.9z"/>
			</g>
		</g>
	</g>
	<g>
		<g>
			<rect x="1002.2" y="5.9" fill="#FFFFFF" width="122.4" height="80.6"/>
		</g>
	</g>
	<path fill="#565E6A" d="M1146.7,84.3c0-0.4-1.6-0.7-2-0.7h-6h-1H982c-0.4,0-2,0.2-2,0.7v5.9h0c2.2,2.7,3.9,2.1,5.1,2.3h12.2l1.8,0
		v0l64.2,0l66,0h12.2c1.1-0.1,2.9,0.4,5.1-2.3h0c0-0.1,0-0.1,0-0.2L1146.7,84.3L1146.7,84.3z"/>
	<g>
		<rect x="1004.9" y="22.1" fill="#0072BC" width="35.7" height="18.6"/>
		<rect x="1045.1" y="22.1" fill="#174F78" width="35.7" height="18.6"/>
		<rect x="1085.3" y="22.1" fill="#8FC1E1" width="35.7" height="18.6"/>
		<rect x="1004.9" y="46" fill="#0072BC" width="35.7" height="4"/>
		<rect x="1045.1" y="46" fill="#174F78" width="35.7" height="4"/>
		<rect x="1085.3" y="46" fill="#8FC1E1" width="35.7" height="4"/>
		<g>
			<rect x="1014.8" y="10.9" fill="#CDD5D7" width="23.8" height="2.6"/>
			<circle fill="#CDD5D7" cx="1008.3" cy="12.2" r="3.4"/>
		</g>
		<rect x="1109.2" y="11.7" fill="#CDD5D7" width="11.8" height="1.1"/>
		<rect x="1095.9" y="11.7" fill="#CDD5D7" width="11.8" height="1.1"/>
		<rect x="1082.6" y="11.7" fill="#CDD5D7" width="11.8" height="1.1"/>
		<rect x="1069.4" y="11.7" fill="#CDD5D7" width="11.8" height="1.1"/>
		<rect x="1056.1" y="11.7" fill="#CDD5D7" width="11.8" height="1.1"/>
		<g>
			<rect x="1004.9" y="60.3" fill="#CDD5D7" width="35.7" height="1"/>
			<rect x="1004.9" y="63.9" fill="#CDD5D7" width="35.7" height="1"/>
			<rect x="1004.9" y="67.6" fill="#CDD5D7" width="35.7" height="1"/>
			<rect x="1004.9" y="71.2" fill="#CDD5D7" width="35.7" height="1"/>
			<rect x="1004.9" y="74.8" fill="#CDD5D7" width="25.5" height="1"/>
			<rect x="1004.9" y="54.2" fill="#CDD5D7" width="23.8" height="2.6"/>
		</g>
		<g>
			<rect x="1045.1" y="60.3" fill="#CDD5D7" width="35.7" height="1"/>
			<rect x="1045.1" y="63.9" fill="#CDD5D7" width="35.7" height="1"/>
			<rect x="1045.1" y="67.6" fill="#CDD5D7" width="35.7" height="1"/>
			<rect x="1045.1" y="71.2" fill="#CDD5D7" width="35.7" height="1"/>
			<rect x="1045.1" y="74.8" fill="#CDD5D7" width="25.5" height="1"/>
			<rect x="1045.1" y="54.2" fill="#CDD5D7" width="23.8" height="2.6"/>
		</g>
		<g>
			<rect x="1085.3" y="60.3" fill="#CDD5D7" width="35.7" height="1"/>
			<rect x="1085.3" y="63.9" fill="#CDD5D7" width="35.7" height="1"/>
			<rect x="1085.3" y="67.6" fill="#CDD5D7" width="35.7" height="1"/>
			<rect x="1085.3" y="71.2" fill="#CDD5D7" width="35.7" height="1"/>
			<rect x="1085.3" y="74.8" fill="#CDD5D7" width="25.5" height="1"/>
			<rect x="1085.3" y="54.2" fill="#CDD5D7" width="23.8" height="2.6"/>
		</g>
	</g>
	<g>
		<g>
			<g>
				<path fill="#DAE1DB" d="M1134.9,87.2c0,0.1-0.1,0.2-0.2,0.2h-4.9c-0.1,0-0.2-0.1-0.2-0.2c0-0.1,0.1-0.2,0.2-0.2h4.9
					C1134.8,87,1134.9,87.1,1134.9,87.2z"/>
			</g>
		</g>
		<g>
			<g>
				<path fill="#DAE1DB" d="M1139.8,86.5c0.4,0,0.7,0.3,0.7,0.7c0,0.4-0.3,0.7-0.7,0.7c-0.4,0-0.7-0.3-0.7-0.7
					C1139.1,86.8,1139.5,86.5,1139.8,86.5z"/>
			</g>
			<g>
				<path fill="#DAE1DB" d="M1137.7,86.5c0.4,0,0.7,0.3,0.7,0.7c0,0.4-0.3,0.7-0.7,0.7s-0.7-0.3-0.7-0.7
					C1137,86.8,1137.4,86.5,1137.7,86.5z"/>
			</g>
		</g>
	</g>
	<g>
		<g>
			<path fill="#DAE1DB" d="M985.7,88.2c0,0.1-0.1,0.2-0.2,0.2h0c-0.1,0-0.2-0.1-0.2-0.2v-2c0-0.1,0.1-0.2,0.2-0.2h0
				c0.1,0,0.2,0.1,0.2,0.2V88.2z"/>
		</g>
		<g>
			<path fill="#DAE1DB" d="M986.8,88.2c0,0.1-0.1,0.2-0.2,0.2h0c-0.1,0-0.2-0.1-0.2-0.2v-2c0-0.1,0.1-0.2,0.2-0.2h0
				c0.1,0,0.2,0.1,0.2,0.2V88.2z"/>
		</g>
		<g>
			<path fill="#DAE1DB" d="M987.9,88.2c0,0.1-0.1,0.2-0.2,0.2h0c-0.1,0-0.2-0.1-0.2-0.2v-2c0-0.1,0.1-0.2,0.2-0.2h0
				c0.1,0,0.2,0.1,0.2,0.2V88.2z"/>
		</g>
		<g>
			<path fill="#DAE1DB" d="M989.1,88.2c0,0.1-0.1,0.2-0.2,0.2h0c-0.1,0-0.2-0.1-0.2-0.2v-2c0-0.1,0.1-0.2,0.2-0.2h0
				c0.1,0,0.2,0.1,0.2,0.2V88.2z"/>
		</g>
	</g>
</g>
<path fill="#B06E59" d="M1210.7,84.7c-0.1-0.2-0.2-0.5-0.3-0.7C1210.5,84.2,1210.6,84.4,1210.7,84.7z"/>
<g>
	<path fill="#B06E59" d="M1289.5,1.1c0.5,0.1,1.1,0.2,1.6,0.3C1290.6,1.3,1290,1.2,1289.5,1.1z"/>
	<path fill="#B06E59" d="M1292.2,1.7c0.2,0.1,0.5,0.2,0.7,0.3C1292.7,1.9,1292.4,1.8,1292.2,1.7z"/>
	<path fill="#B06E59" d="M1291.1,1.4c0.3,0.1,0.6,0.2,0.9,0.3C1291.7,1.6,1291.4,1.5,1291.1,1.4z"/>
	<path fill="#2E6186" d="M1302.1,9.8c-0.5-2-1.4-3.8-2.9-5.2c-1.4-1.4-3.2-2.4-5.2-2.9c-4.1-0.9-8.3-1.4-12.7-1.4
		c-0.9,0-1.9,0-2.8,0.1c2.7,1.1,5.2,2.4,7.7,3.9c5.1,3.1,9.6,6.9,13.5,11.4c-0.7,3.1-1.9,6.4-3.3,9.7c-5.1-7.5-11.9-13.7-19.8-18.1
		c-3.6-2-7.4-3.6-11.4-4.8c-0.2,0-0.4,0.1-0.5,0.1c-12.1,3.3-23.3,9.7-32.2,18.7c-6.3,6.3-11.4,13.7-15.1,22c0,0,0,0,0,0.1
		c3.1,2,5.9,4.3,8.7,6.7c9,8.1,16.1,18.3,20.4,29.9c-4.6,2.8-9.1,5.1-13.5,6.8c-3.2-8.5-8-16.3-13.9-23c-2-2.2-4-4.3-6.2-6.3
		c-1.8,8.7-1.8,17.5,0.1,25.5c0.5,2,1.4,3.8,2.9,5.2c1.4,1.4,3.2,2.4,5.2,2.9c4.1,0.9,8.3,1.4,12.7,1.4c0,0,0,0,0,0
		c17.5,0,35.8-7.8,48.9-20.9C1299.2,54.7,1306.9,30.5,1302.1,9.8z"/>
	<path fill="#5B1E10" d="M1219.1,63.7c1.8-4.5,4.2-9.1,6.9-13.7c4.2-6.9,9.4-13.6,15.5-19.7c10.6-10.6,23.3-18.6,35.1-23.1
		c3.3-1.3,6.5-2.2,9.7-2.9c3.3-0.7,6.5-1.2,9.5-1.2c0,0,0.1,0,0.1,0c0.6,0,1.2,0.1,1.7,0.2c-1.1-0.7-2.3-1.3-3.6-1.6
		c-1.1-0.2-2.1-0.5-3.2-0.6c-1.7,0.2-3.4,0.5-5.1,0.9c-3.2,0.7-6.6,1.7-10,3c-12.8,4.9-25.5,13.3-35.9,23.6
		c-6,6-11.4,12.8-15.8,20.1c-2.8,4.6-5.2,9.3-7.1,14c-2.4,5.9-4,11.6-4.6,16.9c0.2,1.1,0.4,2.1,0.6,3.2c0.3,1.3,0.8,2.5,1.6,3.6
		c-0.2-0.6-0.3-1.2-0.2-1.9C1214.4,78.4,1216,71.2,1219.1,63.7z"/>
	<path fill="#0072BC" d="M1302.1,9.8c-0.3-1.3-0.8-2.5-1.6-3.6c0.2,0.6,0.3,1.2,0.2,1.9c0,2.5-0.4,5-1,7.7c-0.7,3.1-1.9,6.4-3.3,9.7
		c-5.1,11.5-14.3,23.6-25.3,34.6c-7.9,7.9-16.3,14.8-24.7,20c-4.6,2.8-9.1,5.1-13.5,6.8c-4.8,1.8-9.4,2.8-13.7,2.9c0,0-0.1,0-0.1,0
		c-0.6,0-1.2-0.1-1.7-0.2c1.1,0.7,2.3,1.3,3.6,1.6c1,0.2,2,0.4,3,0.6c3.1-0.5,6.4-1.3,9.9-2.6c4.4-1.7,9.1-4,13.9-7
		c8.2-5.1,16.9-12.1,25.1-20.3c11.8-11.8,20.7-24,25.7-35.3c1.6-3.5,2.7-6.9,3.5-10.1c0.3-1.2,0.5-2.3,0.7-3.5
		C1302.5,11.8,1302.3,10.8,1302.1,9.8z"/>
	<path fill="#99C6E4" d="M1286.2,4.3c-2.4-1.5-5-2.8-7.7-3.9c-0.2,0-0.5,0-0.7,0c-4.2,0.2-8.4,0.9-12.7,2c4,1.2,7.8,2.8,11.4,4.8
		c7.9,4.4,14.7,10.6,19.8,18.1c1.5-3.3,2.6-6.5,3.3-9.7C1295.8,11.3,1291.3,7.4,1286.2,4.3z"/>
	<path fill="#99C6E4" d="M1226,50c-2.7-2.4-5.6-4.7-8.7-6.7c-2,4.5-3.5,9.2-4.5,13.9c0,0.1,0,0.1,0,0.2c2.2,2,4.3,4.1,6.2,6.3
		c5.9,6.7,10.6,14.5,13.9,23c4.4-1.6,8.9-3.9,13.5-6.8C1242.1,68.4,1235,58.1,1226,50z"/>
	<path fill="#B06E59" d="M1212.9,82.9c-0.1-0.5-0.2-1-0.3-1.6C1212.7,81.8,1212.8,82.4,1212.9,82.9z"/>
	<path fill="#B06E59" d="M1213.2,83.8c-0.1-0.3-0.2-0.6-0.2-0.9C1213,83.2,1213.1,83.5,1213.2,83.8z"/>
	<path fill="#B06E59" d="M1292.4,1.4c0.5,0.1,1.1,0.2,1.6,0.3C1293.5,1.6,1293,1.5,1292.4,1.4z"/>
	<path fill="#B06E59" d="M1212.6,81.2c-0.1-0.5-0.2-1-0.3-1.5C1212.4,80.2,1212.5,80.7,1212.6,81.2z"/>
	<path fill="#B06E59" d="M1295.1,2.1c0.2,0.1,0.5,0.2,0.7,0.3C1295.6,2.2,1295.4,2.2,1295.1,2.1z"/>
	<path fill="#B06E59" d="M1294,1.7c0.3,0.1,0.6,0.2,0.9,0.2C1294.6,1.9,1294.3,1.8,1294,1.7z"/>
	<path fill="#457393" d="M1214.2,84.6c0,0.7,0.1,1.3,0.2,1.9c-0.4-0.5-0.7-1.1-0.9-1.7c0.5,1.2,1.3,2.3,2.2,3.2c0,0,0,0,0,0
		l12.1-12.1c-2.5-4.4-5.5-8.5-8.8-12.3C1216,71.2,1214.4,78.4,1214.2,84.6z"/>
	<path fill="#457393" d="M1229.9,40.2c-0.1-0.5,0-1.1,0.4-1.5c0.5-0.7,1-1.3,1.6-2c-0.7-0.5-1.5-0.9-2.3-1.2
		c-0.5-0.2-0.7-0.8-0.5-1.3c0.2-0.5,0.8-0.7,1.3-0.5c1,0.4,1.9,0.9,2.8,1.5c0.6-0.7,1.2-1.4,1.8-2.1c-0.7-0.4-1.5-0.8-2.3-1.2
		c-0.5-0.2-0.8-0.8-0.6-1.3c0.2-0.5,0.8-0.8,1.3-0.6c1,0.4,2,0.9,3,1.5c0.7-0.7,1.4-1.5,2.1-2.2c-0.7-0.4-1.5-0.8-2.3-1.1
		c-0.5-0.2-0.8-0.8-0.6-1.3c0.2-0.5,0.8-0.8,1.3-0.6c1.1,0.4,2.1,0.9,3,1.5c0.6-0.6,1.3-1.2,1.9-1.9c-0.7-0.4-1.5-0.8-2.3-1.1
		c-0.5-0.2-0.8-0.8-0.6-1.3c0.2-0.5,0.8-0.8,1.3-0.6c1.1,0.4,2.2,0.9,3.2,1.5c0.7-0.6,1.4-1.3,2.1-1.9c-0.8-0.4-1.5-0.7-2.3-1
		c-0.5-0.2-0.8-0.8-0.6-1.3c0.2-0.5,0.8-0.8,1.3-0.6c1.2,0.4,2.3,0.9,3.3,1.5c0.7-0.6,1.4-1.2,2.2-1.7c-0.7-0.3-1.4-0.6-2.1-0.9
		c-0.5-0.2-0.8-0.7-0.6-1.3c0.2-0.5,0.7-0.8,1.3-0.6c1.1,0.4,2.2,0.9,3.2,1.4c0.8-0.6,1.5-1.1,2.3-1.7c-0.7-0.3-1.4-0.6-2.2-0.8
		c-0.5-0.2-0.8-0.7-0.7-1.3c0.2-0.5,0.7-0.8,1.3-0.7c1.2,0.4,2.3,0.9,3.4,1.5c0.9-0.6,1.7-1.2,2.6-1.7c-0.7-0.3-1.5-0.6-2.3-0.9
		c-0.5-0.2-0.8-0.7-0.7-1.3c0.2-0.5,0.7-0.8,1.3-0.7c1.3,0.4,2.5,0.9,3.7,1.5c1-0.6,2-1.2,3-1.7c-0.5-0.2-0.9-0.3-1.4-0.5
		c-0.5-0.1-0.8-0.7-0.7-1.2c0.1-0.5,0.7-0.8,1.2-0.7c1.1,0.3,2.1,0.7,3.1,1.2c0.6-0.3,1.2-0.6,1.9-1c0.5-0.2,1-0.3,1.5-0.1
		c1.8-0.9,3.6-1.7,5.4-2.4c-2.8-1.3-5.6-2.5-8.6-3.4c-0.2,0-0.4,0.1-0.5,0.1c-12.1,3.3-23.3,9.7-32.2,18.7
		c-6.3,6.3-11.4,13.7-15.1,22c0,0,0,0,0,0.1c2.4,1.6,4.7,3.3,6.9,5.1C1226,45.6,1227.9,42.8,1229.9,40.2z"/>
	<path fill="#457393" d="M1217.3,61.8c-1.4-1.5-2.9-3-4.5-4.4c-1.6,7.6-1.7,15.2-0.6,22.3c0.7-5.2,2.2-11,4.6-16.9
		C1217,62.5,1217.2,62.1,1217.3,61.8z"/>
	<path fill="#457393" d="M1285.7,2c1.7-0.4,3.4-0.7,5.1-0.9c0.5,0.1,1.1,0.2,1.6,0.3c-3.6-0.7-7.3-1.1-11-1.1c-0.9,0-1.9,0-2.8,0.1
		c1.6,0.7,3.2,1.4,4.7,2.2C1284.1,2.4,1284.9,2.2,1285.7,2z"/>
	<path fill="#457393" d="M1276.6,7.2c-2.2,0.8-4.5,1.8-6.8,2.9c0,0.6-0.3,1.3-0.9,1.6c0.5,0.5,1.1,0.9,1.6,1.4c0.4,0.4,0.4,1,0,1.4
		c-0.2,0.2-0.4,0.3-0.7,0.3c-0.3,0-0.5-0.1-0.7-0.3c-0.6-0.7-1.3-1.3-2-1.8c-1.2,0.6-2.4,1.3-3.6,2c0.4,0.4,0.9,0.8,1.3,1.2
		c0.4,0.4,0.4,1-0.1,1.4c-0.2,0.2-0.4,0.3-0.7,0.3c-0.3,0-0.5-0.1-0.7-0.3c-0.5-0.5-1-1-1.6-1.5c-1,0.6-1.9,1.2-2.9,1.8
		c0.6,0.5,1.1,1,1.6,1.6c0.4,0.4,0.3,1-0.1,1.4c-0.2,0.2-0.4,0.3-0.7,0.3c-0.3,0-0.6-0.1-0.7-0.3c-0.6-0.6-1.2-1.2-1.8-1.7
		c-0.9,0.6-1.7,1.2-2.5,1.8c0.6,0.6,1.2,1.2,1.8,1.8c0.4,0.4,0.3,1.1-0.1,1.4c-0.2,0.2-0.4,0.2-0.7,0.2c-0.3,0-0.6-0.1-0.8-0.3
		c-0.6-0.7-1.3-1.3-2-1.9c-0.8,0.6-1.6,1.2-2.4,1.9c0.6,0.6,1.2,1.2,1.8,1.9c0.4,0.4,0.3,1.1-0.1,1.4c-0.2,0.2-0.4,0.2-0.6,0.2
		c-0.3,0-0.6-0.1-0.8-0.4c-0.6-0.7-1.2-1.3-1.8-1.9c-0.8,0.6-1.5,1.3-2.3,2c0.7,0.7,1.4,1.4,2,2.1c0.3,0.4,0.3,1.1-0.1,1.4
		c-0.2,0.2-0.4,0.2-0.6,0.2c-0.3,0-0.6-0.1-0.8-0.4c-0.6-0.7-1.2-1.4-1.9-2c-0.7,0.6-1.4,1.3-2,1.9c0.8,0.7,1.5,1.5,2.2,2.3
		c0.3,0.4,0.3,1.1-0.2,1.4c-0.2,0.1-0.4,0.2-0.6,0.2c-0.3,0-0.6-0.1-0.8-0.4c-0.6-0.8-1.3-1.5-2-2.1c-0.7,0.7-1.4,1.5-2.1,2.2
		c0.8,0.8,1.6,1.6,2.3,2.5c0.3,0.4,0.3,1.1-0.2,1.4c-0.2,0.1-0.4,0.2-0.6,0.2c-0.3,0-0.6-0.1-0.8-0.4c-0.6-0.8-1.3-1.5-2-2.2
		c-0.6,0.7-1.3,1.4-1.9,2.2c0.9,0.8,1.7,1.7,2.4,2.7c0.3,0.4,0.2,1.1-0.2,1.4c-0.2,0.1-0.4,0.2-0.6,0.2c-0.3,0-0.6-0.1-0.8-0.4
		c-0.6-0.8-1.3-1.6-2.1-2.3c-0.5,0.7-1.1,1.3-1.6,2c-0.4,0.5-1,0.8-1.6,0.8c-0.1,0-0.2,0-0.3,0c-2,2.7-3.9,5.4-5.5,8.2l0,0
		c1.1,1,2.2,2.1,3.3,3.1c3.6,3.6,6.8,7.6,9.6,11.8l49.3-49.3C1284.7,12.4,1280.8,9.6,1276.6,7.2L1276.6,7.2z"/>
	<path fill="#457393" d="M1296,2.4c0.6,0.3,1.1,0.6,1.7,0.9c-0.5-0.2-1.1-0.2-1.7-0.2c0,0-0.1,0-0.1,0c-3,0.1-6.2,0.5-9.5,1.2l0,0
		c0.6,0.4,1.3,0.8,1.9,1.2c0.4,0.3,0.8,0.5,1.1,0.8c0.2,0.2,0.5,0.3,0.7,0.5c0.4,0.3,0.7,0.5,1.1,0.8c0.2,0.2,0.5,0.4,0.7,0.5
		c0.5,0.4,1,0.8,1.5,1.2c0.1,0.1,0.1,0.1,0.2,0.2c0.2,0.1,0.3,0.3,0.5,0.4l5.3-5.3c0,0,0,0,0,0C1298.3,3.7,1297.2,2.9,1296,2.4z"/>
	<path fill="#0072BC" d="M1229.9,40.2c-2,2.7-3.9,5.4-5.7,8.3c0.6,0.5,1.2,1,1.8,1.5c0,0,0,0,0,0l0,0c1.7-2.8,3.5-5.5,5.5-8.2
		c-0.3-0.1-0.6-0.2-0.9-0.4C1230.2,41.1,1230,40.7,1229.9,40.2z"/>
	<path fill="#0072BC" d="M1285.7,2c-0.8,0.2-1.6,0.4-2.5,0.6c1,0.5,2,1.1,3,1.7c0,0,0,0,0,0l0,0l0,0c3.3-0.7,6.5-1.2,9.5-1.2
		c0,0,0.1,0,0.1,0c0.6,0,1.2,0.1,1.7,0.2c-0.5-0.4-1.1-0.7-1.7-0.9c0,0-0.1,0-0.1-0.1c-0.2-0.1-0.5-0.2-0.7-0.3
		c-0.1,0-0.1,0-0.2-0.1c-0.3-0.1-0.6-0.2-0.9-0.2c-0.5-0.1-1.1-0.2-1.6-0.3c0,0,0,0,0,0c-0.5-0.1-1-0.2-1.6-0.3
		C1289.2,1.3,1287.5,1.6,1285.7,2z"/>
	<path fill="#0072BC" d="M1269.6,9.2c0.1,0.3,0.2,0.6,0.2,0.9c2.3-1.1,4.5-2.1,6.8-2.9l0,0c0,0,0,0,0,0c-0.9-0.5-1.8-1-2.7-1.4
		c-1.8,0.7-3.6,1.5-5.4,2.4C1268.9,8.4,1269.4,8.7,1269.6,9.2z"/>
	<path fill="#0072BC" d="M1214.2,84.6c0.1-6.2,1.8-13.4,4.8-20.9c0,0,0,0,0,0c-0.6-0.6-1.2-1.3-1.7-1.9c-0.1,0.3-0.3,0.7-0.4,1
		c-2.4,5.9-4,11.6-4.6,16.9c0,0,0,0,0,0c0,0,0,0,0,0c0.1,0.5,0.2,1,0.3,1.5c0,0,0,0,0,0.1c0.1,0.5,0.2,1.1,0.3,1.6
		c0.1,0.3,0.2,0.6,0.2,0.9c0,0.1,0,0.1,0.1,0.2c0.1,0.2,0.2,0.5,0.3,0.7c0,0,0,0.1,0.1,0.1c0.3,0.6,0.6,1.1,0.9,1.7
		C1214.3,85.9,1214.2,85.3,1214.2,84.6z"/>
	<path fill="#CCE3F2" d="M1293.2,9.3c-0.5-0.4-1-0.8-1.5-1.2c-0.2-0.2-0.5-0.4-0.7-0.5c-0.4-0.3-0.7-0.5-1.1-0.8
		c-0.2-0.2-0.5-0.3-0.7-0.5c-0.4-0.3-0.7-0.5-1.1-0.8c-0.6-0.4-1.2-0.8-1.9-1.2c0,0,0,0,0,0c-1-0.6-2-1.1-3-1.7
		c-1.5-0.8-3.1-1.5-4.7-2.2c-0.2,0-0.5,0-0.7,0c-4.2,0.2-8.4,0.9-12.7,2c3,0.9,5.9,2,8.6,3.4c0.9,0.5,1.8,0.9,2.7,1.4c0,0,0,0,0,0
		c4.2,2.3,8.1,5.2,11.6,8.5l5.8-5.8c-0.2-0.1-0.3-0.3-0.5-0.4C1293.4,9.4,1293.3,9.4,1293.2,9.3z"/>
	<path fill="#CCE3F2" d="M1226,50C1226,50,1226,50,1226,50c-0.6-0.5-1.2-1-1.8-1.6c-2.2-1.8-4.5-3.6-6.9-5.1
		c-2,4.5-3.5,9.2-4.5,13.9c0,0.1,0,0.1,0,0.2c1.6,1.4,3.1,2.9,4.5,4.4c0.6,0.6,1.2,1.3,1.7,1.9c0,0,0,0,0,0
		c3.3,3.8,6.2,7.9,8.8,12.3l11-11c-2.8-4.3-6-8.2-9.6-11.8C1228.2,52.1,1227.1,51,1226,50z"/>
	<path fill="#FFFFFF" d="M1269.6,9.2c-0.3-0.5-0.7-0.9-1.2-1c-0.5-0.2-1-0.1-1.5,0.1c-0.6,0.3-1.2,0.6-1.9,1
		c1.4,0.7,2.7,1.5,3.9,2.5c0.6-0.4,0.9-1,0.9-1.6C1269.8,9.8,1269.8,9.5,1269.6,9.2z"/>
	<g>
		<path fill="#CCE3F2" d="M1231.9,41.9c-0.4,0-0.9-0.1-1.2-0.4c-0.9-0.7-1-1.9-0.4-2.8c2.8-3.7,5.9-7.2,9.1-10.4
			c8-8,17.6-14.9,27.5-19.9c1-0.5,2.2-0.1,2.7,0.9c0.5,1,0.1,2.2-0.9,2.7c-9.6,4.8-18.7,11.4-26.5,19.2c-3.1,3.1-6.1,6.5-8.8,10
			C1233.1,41.6,1232.5,41.9,1231.9,41.9z"/>
		<path fill="#CCE3F2" d="M1269.8,14.9c-0.3,0-0.5-0.1-0.7-0.3c-2.1-2.2-4.8-3.8-7.7-4.6c-0.5-0.1-0.8-0.7-0.7-1.2
			c0.1-0.5,0.7-0.8,1.2-0.7c3.3,0.9,6.2,2.7,8.6,5.1c0.4,0.4,0.4,1,0,1.4C1270.3,14.8,1270,14.9,1269.8,14.9z"/>
		<path fill="#CCE3F2" d="M1264,17.7c-0.3,0-0.5-0.1-0.7-0.3c-2.1-2.2-4.7-3.9-7.7-4.8c-0.5-0.2-0.8-0.7-0.7-1.3
			c0.2-0.5,0.7-0.8,1.3-0.7c3.3,1,6.2,2.8,8.6,5.3c0.4,0.4,0.4,1-0.1,1.4C1264.4,17.6,1264.2,17.7,1264,17.7z"/>
		<path fill="#CCE3F2" d="M1259.6,20.9c-0.3,0-0.6-0.1-0.7-0.3c-2.1-2.3-4.7-4-7.6-4.9c-0.5-0.2-0.8-0.7-0.7-1.3
			c0.2-0.5,0.7-0.8,1.3-0.7c3.3,1,6.2,2.9,8.5,5.5c0.4,0.4,0.3,1-0.1,1.4C1260.1,20.8,1259.8,20.9,1259.6,20.9z"/>
		<path fill="#CCE3F2" d="M1255.5,24.1c-0.3,0-0.6-0.1-0.8-0.3c-2-2.4-4.7-4.1-7.6-5.1c-0.5-0.2-0.8-0.7-0.6-1.3
			c0.2-0.5,0.7-0.8,1.3-0.6c3.3,1.1,6.2,3.1,8.5,5.7c0.4,0.4,0.3,1.1-0.1,1.4C1256,24,1255.8,24.1,1255.5,24.1z"/>
		<path fill="#CCE3F2" d="M1251.5,27.2c-0.3,0-0.6-0.1-0.8-0.4c-2-2.4-4.7-4.2-7.6-5.3c-0.5-0.2-0.8-0.8-0.6-1.3
			c0.2-0.5,0.8-0.8,1.3-0.6c3.3,1.2,6.2,3.2,8.5,5.9c0.4,0.4,0.3,1.1-0.1,1.4C1252,27.2,1251.7,27.2,1251.5,27.2z"/>
		<path fill="#CCE3F2" d="M1247.8,30.7c-0.3,0-0.6-0.1-0.8-0.4c-2-2.5-4.6-4.4-7.6-5.5c-0.5-0.2-0.8-0.8-0.6-1.3
			c0.2-0.5,0.8-0.8,1.3-0.6c3.3,1.2,6.2,3.3,8.5,6.1c0.3,0.4,0.3,1.1-0.1,1.4C1248.3,30.7,1248.1,30.7,1247.8,30.7z"/>
		<path fill="#CCE3F2" d="M1244.4,34.2c-0.3,0-0.6-0.1-0.8-0.4c-2-2.5-4.6-4.5-7.6-5.6c-0.5-0.2-0.8-0.8-0.6-1.3
			c0.2-0.5,0.8-0.8,1.3-0.6c3.3,1.3,6.2,3.5,8.4,6.3c0.3,0.4,0.3,1.1-0.2,1.4C1244.9,34.1,1244.7,34.2,1244.4,34.2z"/>
		<path fill="#CCE3F2" d="M1241,38c-0.3,0-0.6-0.1-0.8-0.4c-2-2.6-4.6-4.6-7.6-5.8c-0.5-0.2-0.8-0.8-0.6-1.3
			c0.2-0.5,0.8-0.8,1.3-0.6c3.3,1.3,6.2,3.6,8.4,6.4c0.3,0.4,0.3,1.1-0.2,1.4C1241.4,37.9,1241.2,38,1241,38z"/>
		<path fill="#CCE3F2" d="M1237.9,41.8c-0.3,0-0.6-0.1-0.8-0.4c-1.9-2.6-4.6-4.7-7.6-6c-0.5-0.2-0.7-0.8-0.5-1.3
			c0.2-0.5,0.8-0.7,1.3-0.5c3.3,1.4,6.2,3.7,8.4,6.6c0.3,0.4,0.2,1.1-0.2,1.4C1238.3,41.8,1238.1,41.8,1237.9,41.8z"/>
		<path fill="#CCE3F2" d="M1241.8,26c-0.7,0.6-1.3,1.2-1.9,1.9c1.2,0.7,2.3,1.5,3.3,2.4c0.7-0.7,1.3-1.3,2-1.9
			C1244.1,27.4,1243,26.6,1241.8,26z"/>
		<path fill="#CCE3F2" d="M1245.5,22.6c-0.7,0.6-1.4,1.3-2.1,1.9c1.2,0.7,2.3,1.5,3.3,2.4c0.7-0.7,1.5-1.3,2.3-2
			C1247.8,24.1,1246.7,23.3,1245.5,22.6z"/>
		<path fill="#CCE3F2" d="M1238.4,29.3c-0.7,0.7-1.4,1.4-2.1,2.2c1.1,0.7,2.2,1.5,3.2,2.5c0.7-0.8,1.4-1.5,2.1-2.2
			C1240.7,30.8,1239.6,30,1238.4,29.3z"/>
		<path fill="#CCE3F2" d="M1235,33c-0.6,0.7-1.2,1.4-1.8,2.1c1.1,0.7,2.2,1.5,3.2,2.5c0.6-0.7,1.2-1.5,1.9-2.2
			C1237.2,34.5,1236.1,33.7,1235,33z"/>
		<path fill="#CCE3F2" d="M1262.8,10.5c-1,0.6-2,1.1-3,1.7c1.3,0.7,2.5,1.6,3.6,2.5c1.2-0.7,2.4-1.3,3.6-2
			C1265.7,11.9,1264.3,11.1,1262.8,10.5z"/>
		<path fill="#CCE3F2" d="M1231.8,36.7c-0.5,0.7-1.1,1.3-1.6,2c-0.3,0.5-0.5,1-0.4,1.5c0.1,0.5,0.3,1,0.8,1.3
			c0.3,0.2,0.6,0.3,0.9,0.4c0.1,0,0.2,0,0.3,0c0.6,0,1.2-0.3,1.6-0.8c0.5-0.7,1-1.3,1.6-2C1234.1,38.2,1233,37.4,1231.8,36.7z"/>
		<path fill="#CCE3F2" d="M1257.8,13.5c-0.9,0.6-1.7,1.1-2.6,1.7c1.3,0.7,2.4,1.5,3.5,2.5c0.9-0.6,1.9-1.2,2.9-1.8
			C1260.5,14.9,1259.2,14.1,1257.8,13.5z"/>
		<path fill="#CCE3F2" d="M1249.3,19.5c-0.7,0.6-1.4,1.1-2.2,1.7c1.2,0.7,2.3,1.5,3.4,2.5c0.8-0.6,1.6-1.2,2.4-1.9
			C1251.7,20.9,1250.5,20.1,1249.3,19.5z"/>
		<path fill="#CCE3F2" d="M1253.4,16.5c-0.8,0.6-1.6,1.1-2.3,1.7c1.2,0.7,2.4,1.5,3.5,2.4c0.8-0.6,1.7-1.2,2.5-1.8
			C1255.9,17.9,1254.7,17.1,1253.4,16.5z"/>
		<path fill="#CCE3F2" d="M1265.1,9.3c-1-0.5-2.1-0.9-3.1-1.2c-0.5-0.1-1.1,0.2-1.2,0.7c-0.1,0.5,0.2,1.1,0.7,1.2
			c0.5,0.1,1,0.3,1.4,0.5c1.5,0.6,2.9,1.3,4.2,2.3c0.7,0.5,1.4,1.1,2,1.8c0.2,0.2,0.5,0.3,0.7,0.3c0.3,0,0.5-0.1,0.7-0.3
			c0.4-0.4,0.4-1,0-1.4c-0.5-0.5-1-1-1.6-1.4C1267.7,10.8,1266.4,10,1265.1,9.3z"/>
		<path fill="#CCE3F2" d="M1259.8,12.2c-1.2-0.6-2.4-1.2-3.7-1.5c-0.5-0.2-1.1,0.1-1.3,0.7c-0.2,0.5,0.1,1.1,0.7,1.3
			c0.8,0.2,1.5,0.5,2.3,0.9c1.4,0.6,2.6,1.4,3.8,2.4c0.6,0.5,1.1,1,1.6,1.5c0.2,0.2,0.5,0.3,0.7,0.3c0.2,0,0.5-0.1,0.7-0.3
			c0.4-0.4,0.4-1,0.1-1.4c-0.4-0.4-0.8-0.8-1.3-1.2C1262.3,13.8,1261.1,12.9,1259.8,12.2z"/>
		<path fill="#CCE3F2" d="M1255.2,15.2c-1.1-0.6-2.2-1.1-3.4-1.5c-0.5-0.2-1.1,0.1-1.3,0.7c-0.2,0.5,0.1,1.1,0.7,1.3
			c0.7,0.2,1.5,0.5,2.2,0.8c1.3,0.6,2.5,1.4,3.7,2.3c0.6,0.5,1.3,1.1,1.8,1.7c0.2,0.2,0.5,0.3,0.7,0.3c0.2,0,0.5-0.1,0.7-0.3
			c0.4-0.4,0.4-1,0.1-1.4c-0.5-0.6-1-1.1-1.6-1.6C1257.7,16.7,1256.5,15.9,1255.2,15.2z"/>
		<path fill="#CCE3F2" d="M1251,18.2c-1-0.6-2.1-1.1-3.2-1.4c-0.5-0.2-1.1,0.1-1.3,0.6c-0.2,0.5,0.1,1.1,0.6,1.3
			c0.7,0.2,1.4,0.5,2.1,0.9c1.3,0.6,2.5,1.4,3.6,2.3c0.7,0.6,1.4,1.2,2,1.9c0.2,0.2,0.5,0.3,0.8,0.3c0.2,0,0.5-0.1,0.7-0.2
			c0.4-0.4,0.5-1,0.1-1.4c-0.6-0.7-1.2-1.3-1.8-1.8C1253.4,19.7,1252.3,18.9,1251,18.2z"/>
		<path fill="#CCE3F2" d="M1247.1,21.3c-1.1-0.6-2.2-1.1-3.3-1.5c-0.5-0.2-1.1,0.1-1.3,0.6c-0.2,0.5,0.1,1.1,0.6,1.3
			c0.8,0.3,1.6,0.6,2.3,1c1.2,0.6,2.4,1.4,3.4,2.4c0.7,0.6,1.3,1.2,1.8,1.9c0.2,0.2,0.5,0.4,0.8,0.4c0.2,0,0.5-0.1,0.6-0.2
			c0.4-0.4,0.5-1,0.1-1.4c-0.6-0.7-1.2-1.3-1.8-1.9C1249.4,22.8,1248.3,21.9,1247.1,21.3z"/>
		<path fill="#CCE3F2" d="M1243.3,24.5c-1-0.6-2.1-1.1-3.2-1.5c-0.5-0.2-1.1,0.1-1.3,0.6c-0.2,0.5,0.1,1.1,0.6,1.3
			c0.8,0.3,1.6,0.7,2.3,1.1c1.2,0.7,2.3,1.5,3.3,2.4c0.7,0.6,1.4,1.3,1.9,2c0.2,0.2,0.5,0.4,0.8,0.4c0.2,0,0.4-0.1,0.6-0.2
			c0.4-0.3,0.5-1,0.1-1.4c-0.6-0.8-1.3-1.5-2-2.1C1245.6,26,1244.5,25.2,1243.3,24.5z"/>
		<path fill="#CCE3F2" d="M1239.8,27.8c-1-0.6-2-1.1-3-1.5c-0.5-0.2-1.1,0.1-1.3,0.6c-0.2,0.5,0.1,1.1,0.6,1.3
			c0.8,0.3,1.6,0.7,2.3,1.1c1.2,0.7,2.3,1.5,3.3,2.4c0.7,0.7,1.4,1.4,2,2.1c0.2,0.3,0.5,0.4,0.8,0.4c0.2,0,0.4-0.1,0.6-0.2
			c0.4-0.3,0.5-1,0.2-1.4c-0.7-0.8-1.4-1.6-2.2-2.3C1242.1,29.3,1241,28.5,1239.8,27.8z"/>
		<path fill="#CCE3F2" d="M1236.3,31.5c-0.9-0.6-1.9-1.1-3-1.5c-0.5-0.2-1.1,0-1.3,0.6c-0.2,0.5,0,1.1,0.6,1.3
			c0.8,0.3,1.6,0.7,2.3,1.2c1.2,0.7,2.2,1.5,3.2,2.4c0.7,0.7,1.4,1.4,2,2.2c0.2,0.3,0.5,0.4,0.8,0.4c0.2,0,0.4-0.1,0.6-0.2
			c0.4-0.3,0.5-1,0.2-1.4c-0.7-0.9-1.4-1.7-2.3-2.5C1238.6,33,1237.5,32.2,1236.3,31.5z"/>
		<path fill="#CCE3F2" d="M1233.1,35.1c-0.9-0.6-1.8-1.1-2.8-1.5c-0.5-0.2-1.1,0-1.3,0.5c-0.2,0.5,0,1.1,0.5,1.3
			c0.8,0.3,1.6,0.7,2.3,1.2c1.1,0.7,2.2,1.5,3.2,2.5c0.7,0.7,1.4,1.5,2.1,2.3c0.2,0.3,0.5,0.4,0.8,0.4c0.2,0,0.4-0.1,0.6-0.2
			c0.4-0.3,0.5-1,0.2-1.4c-0.7-1-1.5-1.9-2.4-2.7C1235.3,36.6,1234.3,35.8,1233.1,35.1z"/>
	</g>
</g>
<g>
	<path fill="#414042" d="M1387.4,37.7c-2.1,0-3.8,3.9-3.8,8.7c0,4.8,1.7,8.7,3.8,8.7l0,0h8.9V37.7H1387.4z"/>
	<ellipse fill="#05838D" cx="1407.6" cy="46.5" rx="15.3" ry="35.5"/>
	<ellipse fill="#4C9CD0" cx="1421.7" cy="46.5" rx="22.3" ry="46.4"/>
	<ellipse fill="#0072BC" cx="1429.7" cy="46.5" rx="14.2" ry="38.5"/>
	<path fill="#175079" d="M1430.8,37.7c-2.1,0-3.8,3.9-3.8,8.7c0,4.8,1.7,8.7,3.8,8.7l0,0h38.5V37.7H1430.8z"/>
	<ellipse fill="#4C9CD0" cx="1481.3" cy="46.5" rx="22.3" ry="46.4"/>
	<ellipse fill="#0072BC" cx="1489.3" cy="46.5" rx="14.2" ry="38.5"/>
	<ellipse fill="#4C9CD0" cx="1497.7" cy="46.5" rx="15.3" ry="35.5"/>
	<ellipse fill="#0072BC" cx="1503.2" cy="46.5" rx="9.8" ry="29.5"/>
	<ellipse fill="#457393" cx="1517.6" cy="46.5" rx="3.8" ry="8.7"/>
	<path fill="#175079" d="M1513.8,46.5c0-4.8,1.7-8.7,3.8-8.7h-14.1c-2.1,0-3.8,3.9-3.8,8.7c0,4.8,1.7,8.7,3.8,8.7l0,0h14.1l0,0
		C1515.5,55.2,1513.8,51.3,1513.8,46.5z"/>
	<path fill="#457393" d="M1392.8,37.7h-5.4c-2.1,0-3.8,3.9-3.8,8.7c0,4.8,1.7,8.7,3.8,8.7l0,0h5.4c-0.3-2.8-0.5-5.7-0.5-8.7
		C1392.3,43.4,1392.5,40.5,1392.8,37.7z"/>
	<path fill="#0072BC" d="M1407.3,11c-7,0.3-12.9,11.6-14.5,26.8c-0.3,2.8-0.5,5.7-0.5,8.7c0,3,0.2,5.9,0.5,8.7
		c1.7,15.2,7.5,26.4,14.5,26.8c-4.9-8.5-7.9-21.3-7.9-35.5C1399.4,32.2,1402.5,19.5,1407.3,11z"/>
	<path fill="#66AAD7" d="M1415.5,46.5c0-21.3,6.4-38.5,14.2-38.5c3.5,0,6.7,3.5,9.2,9.2c-4.1-10.4-10.3-17.1-17.3-17.1
		c-5.5,0-10.5,4.1-14.3,10.9c-4.9,8.5-7.9,21.2-7.9,35.5c0,14.2,3.1,27,7.9,35.5c1.2,2.1,2.5,3.9,3.9,5.5l10-10
		C1417.8,70.4,1415.5,59.1,1415.5,46.5z"/>
	<path fill="#338DC9" d="M1430.8,55.2c-2.1,0-3.8-3.9-3.8-8.7c0-4.8,1.7-8.7,3.8-8.7h12.8c-0.7-8.2-2.4-15.3-4.6-20.6
		c-2.5-5.7-5.7-9.2-9.2-9.2c-7.9,0-14.2,17.2-14.2,38.5c0,12.7,2.3,23.9,5.8,30.9l22.2-22.2H1430.8L1430.8,55.2z"/>
	<path fill="#457393" d="M1443.6,37.7h-12.8c-2.1,0-3.8,3.9-3.8,8.7c0,4.8,1.7,8.7,3.8,8.7l0,0h12.7l15.8-15.8
		c0-0.6,0.1-1.1,0.1-1.7H1443.6z"/>
	<path fill="#66AAD7" d="M1481.3,0.1c-10.9,0-19.9,16.2-21.9,37.7c-0.1,0.6-0.1,1.1-0.1,1.7l19.9-19.9c2.6-7.1,6.2-11.5,10.1-11.5
		c0.4,0,0.8,0.1,1.2,0.2l1.9-1.9C1489.1,2.3,1485.3,0.1,1481.3,0.1z"/>
	<path fill="#338DC9" d="M1479.2,19.5l11.4-11.4c-0.4-0.1-0.8-0.2-1.2-0.2C1485.3,8,1481.8,12.4,1479.2,19.5z"/>
</g>
<g>
	<path fill="#2E6186" d="M940,51.1c-17,7-35.3,9.9-53.3,8.6v32.8c18,1.3,36.3-1.5,53.3-8.6c-3-4.2-6.1-8.6-9.2-13
		C933.9,64.4,937,57.8,940,51.1z"/>
	<path fill="#175079" d="M899.4,55.3c-7.5,3.1-12.7,4.4-12.7,4.4v32.8c0,0,5.2-0.7,13.6-4.5c8.4-3.7,11.8-7.1,11.8-7.1V48.1
		C912.2,48.1,907.1,52.2,899.4,55.3z"/>
	<path fill="#2E6186" d="M795,51.1c17,7,35.3,9.9,53.3,8.6v32.8c-18,1.3-36.3-1.5-53.3-8.6c3-4.2,6.1-8.6,9.2-13
		C801.1,64.4,798,57.8,795,51.1z"/>
	<path fill="#175079" d="M835.6,55.3c7.5,3.1,12.7,4.4,12.7,4.4v32.8c0,0-5.2-0.7-13.6-4.5c-8.4-3.7-11.8-7.1-11.8-7.1V48.1
		C822.8,48.1,827.9,52.2,835.6,55.3z"/>
	<g>
		<polygon fill="#0072BC" points="867.9,4.2 872.5,0 876.2,5 881.6,1.9 884.1,7.6 890,5.7 891.3,11.8 897.6,11.1 897.5,17.4 
			903.8,18 902.4,24.1 908.4,26 905.8,31.7 911.3,34.9 907.6,39.9 912.2,44.1 907.6,48.3 911.3,53.3 905.8,56.4 908.4,62.1 
			902.4,64 903.8,70.2 897.5,70.8 897.6,77.1 891.3,76.4 890,82.5 884.1,80.6 881.6,86.3 876.2,83.1 872.5,88.2 867.9,84 
			863.2,88.2 859.6,83.1 854.2,86.3 851.6,80.6 845.7,82.5 844.4,76.4 838.2,77.1 838.2,70.8 832,70.2 833.3,64 827.3,62.1 
			829.9,56.4 824.5,53.3 828.2,48.3 823.5,44.1 828.2,39.9 824.5,34.9 829.9,31.7 827.3,26 833.3,24.1 832,18 838.2,17.4 
			838.2,11.1 844.4,11.8 845.7,5.7 851.6,7.6 854.2,1.9 859.6,5 863.2,0 		"/>
		<circle fill="#175079" cx="867.9" cy="44.1" r="36.5"/>
		<circle fill="#80B8DD" cx="867.9" cy="44.1" r="30.8"/>
		<path fill="#338EC9" d="M891.3,11.8L890,5.7l-5.9,1.9l-2.5-5.7L876.2,5L872.5,0l-4.6,4.2L863.2,0L859.6,5l-5.4-3.1l-2.5,5.7
			l-5.9-1.9l-1.3,6.1l-6.2-0.7l0,6.3L832,18l1.3,6.1l-6,1.9l2.6,5.7l-5.4,3.1l3.7,5l-4.7,4.2l4.7,4.2l-3.7,5.1l5.4,3.1l-2.6,5.7
			l6,1.9l-1.3,6.1l6.2,0.6l0,2.1l3.5-3.5c-6.4-6.6-10.3-15.5-10.3-25.4c0-20.2,16.3-36.5,36.5-36.5c9.9,0,18.8,3.9,25.4,10.3
			l4.3-4.3l0-2.4L891.3,11.8z"/>
		<path fill="#396A8D" d="M831.4,44.1c0,9.9,3.9,18.8,10.3,25.4l4-4c-5.3-5.5-8.6-13-8.6-21.3c0-17,13.8-30.8,30.8-30.8
			c8.3,0,15.8,3.3,21.3,8.6l4-4c-6.6-6.4-15.5-10.3-25.4-10.3C847.7,7.6,831.4,23.9,831.4,44.1z"/>
		<path fill="#B2D5EB" d="M867.9,13.3c-17,0-30.8,13.8-30.8,30.8c0,8.3,3.3,15.8,8.6,21.3l43.5-43.5
			C883.7,16.6,876.1,13.3,867.9,13.3z"/>
		<circle fill="#99C6E4" cx="867.9" cy="44" r="30.7"/>
		<path fill="#2E6186" d="M867.9,72.3c-15.6,0-28.2-12.7-28.2-28.2c0-15.6,12.7-28.2,28.2-28.2c15.6,0,28.2,12.7,28.2,28.2
			C896.1,59.6,883.4,72.3,867.9,72.3z"/>
		<g>
			<path fill="#CCE3F2" d="M869.3,66.9c-0.2-0.1-0.4-0.2-0.6-0.3c-0.1,0-0.2-0.1-0.3-0.1c-0.1,0-0.2-0.1-0.3-0.1
				c-0.4-0.2-0.9-0.3-1.3-0.4c-0.4-0.1-0.8-0.2-1.2-0.3l0,0c0,0,0,0,0,0c-0.3-0.1-0.7-0.2-1-0.2c-0.5-1.4-1-3.4-1.8-4.3
				c-1-1-2.7-1.7-4.1-2.1c0.4,1.3,1.3,3.3,2.3,4.2c0.7,0.6,1.7,1.2,2.7,1.8c-1.2-0.2-4-1-4.8-1.4c-0.1-1.5,0-3.5-0.6-4.6
				c-0.7-1.2-2.1-2.4-3.4-3.1c0,1.3,0.3,3.5,1,4.7c0.5,0.8,1.3,1.7,2.1,2.5c-0.7-0.4-3.1-2.1-4.8-3.6c0.4-1.5,1.1-3.3,0.9-4.4
				c-0.3-1.4-1.2-3-2.2-4c-0.4,1.3-0.8,3.4-0.5,4.8c0.2,0.9,0.7,2,1.2,3c-0.8-0.9-2.7-3.1-3.1-3.9c0.8-1.3,2-2.9,2.1-4.1
				c0.1-1.4-0.4-3.2-1-4.5c-0.8,1.1-1.7,3-1.8,4.4c-0.1,0.9,0.2,2.1,0.3,3.2c-0.3-0.8-1.4-3.6-2-5.8c1.1-1.1,2.8-2.3,3.2-3.4
				c0.5-1.3,0.5-3.2,0.2-4.6c-1,0.9-2.5,2.5-2.9,3.8c-0.3,0.9-0.4,2.1-0.6,3.2c-0.3-1.2-0.4-2.4-0.5-3.6c-0.1-0.9,0-1.8,0-2.7
				c1.4-0.7,3.2-1.5,3.9-2.4c0.8-1.1,1.3-2.9,1.4-4.4c-1.2,0.5-3,1.7-3.9,2.8c-0.5,0.7-1,1.9-1.4,2.9c0.1-0.9,0.3-1.8,0.5-2.7
				c0.1-0.3,0.1-0.5,0.2-0.8c0.1-0.3,0.2-0.5,0.3-0.8c0.2-0.5,0.4-1,0.6-1.5c0.1-0.3,0.3-0.5,0.4-0.8c1.5-0.2,3.5-0.2,4.5-0.8
				c1.2-0.8,2.3-2.2,2.9-3.6c-1.3,0.1-3.5,0.5-4.6,1.2c-0.7,0.4-1.5,1.3-2.2,2c0.2-0.3,0.4-0.6,0.6-0.9c1-1.4,2.1-2.6,3.3-3.7
				c1.5,0.1,3.6,0.6,4.7,0.1c1.2-0.5,2.6-1.6,3.5-2.8c-1.3-0.2-3.3-0.2-4.6,0.3c-0.9,0.4-2.1,1.2-3.1,1.9c0.2-0.2,0.4-0.3,0.6-0.5
				c1.5-1.3,3.1-2.4,4.8-3.5c1.1,0.3,2.4,0.3,3.5-0.3c1.2-0.6,2.1-1.6,2.8-2.9c-1.3-0.2-2.8-0.2-4,0.4c-1.1,0.6-2,1.5-2.4,2.6
				c-0.8,0.4-1.6,0.9-2.3,1.3c-0.5,0.3-1.1,0.7-1.6,1.1c0.8-0.8,1.8-1.6,2.3-2.3c0.8-1.1,1.2-3.1,1.3-4.4c-1.3,0.6-2.7,1.6-3.5,2.7
				c-0.7,1-0.7,3.2-1,4.7c-0.1,0.1-0.2,0.2-0.3,0.2c-1.3,1.1-2.6,2.3-3.7,3.6c0.7-1.1,1.7-2.4,2.2-3.5c0.5-1.3,0.5-3.5,0.3-4.8
				c-1.2,0.9-2.4,2.3-2.9,3.6c-0.5,1.2,0,3.5,0.1,5.1c-0.2,0.3-0.4,0.5-0.6,0.8c-0.6,0.8-1.1,1.7-1.6,2.5c0.3-0.8,0.5-1.7,0.5-2.4
				c0.1-1.4-0.6-3.6-1.2-4.8c-0.9,1.2-1.7,3-1.7,4.4c-0.1,1.3,1,3.1,1.6,4.6c0,0,0,0,0,0c-0.1,0.3-0.2,0.5-0.3,0.8
				c-0.1,0.3-0.2,0.5-0.2,0.8c-0.2,0.8-0.4,1.7-0.6,2.6c0-1,0-2-0.2-2.8c-0.3-1.4-1.6-3.4-2.6-4.4c-0.5,1.5-0.7,3.5-0.4,4.9
				c0.3,1.3,1.9,2.9,3,4.2c0,0.7-0.1,1.5,0,2.2c0,0.7,0.1,1.4,0.2,2c-0.3-1-0.7-2-1.1-2.7c-0.8-1.3-2.6-2.6-3.9-3.3
				c0,1.6,0.4,3.5,1.2,4.8c0.7,1.1,2.7,2,4.1,2.9c0.1,0.5,0.3,1.3,0.4,1.8l0,0c0.2,0.9,0.6,2.2,1.2,3.7c-0.5-0.8-1-1.7-1.6-2.3
				c-1-1.1-3.1-2-4.5-2.4c0.3,1.5,1.2,3.3,2.2,4.4c0.9,1,3.2,1.4,4.7,2c0.3,0.7,0.7,1.3,1.1,1.9c0.4,0.6,0.8,1.1,1.2,1.6
				c-0.8-0.7-1.6-1.4-2.3-1.7c-1.3-0.7-3.6-0.9-5-0.8c0.8,1.3,2.2,2.8,3.5,3.5c1.2,0.6,3.4,0.4,5,0.4c0.5,0.3,0.9,0.8,1.4,1.1l0,0
				c0.7,0.6,1.7,1.4,3.1,2.3c-0.9-0.4-1.8-0.8-2.6-1c-1.5-0.3-3.7,0.1-5.1,0.6c1.2,1.1,2.9,2.1,4.3,2.4c1.3,0.3,3.4-0.6,5-1
				c0.6,0.3,1.3,0.7,2,0.9c0.6,0.3,1.3,0.5,1.9,0.7c-1-0.1-2.1-0.2-2.9-0.1c-1.5,0.2-3.5,1.3-4.6,2.2c1.4,0.6,3.4,1.1,4.9,0.9
				c1.3-0.2,3-1.6,4.3-2.5c0.1,0,0.1,0,0.2,0c0.1,0,0.2,0.1,0.3,0.1c0.9,0.2,1.8,0.4,2.6,0.7c0.4,0.1,0.9,0.2,1.3,0.4
				c0.1,0,0.2,0.1,0.3,0.1c0.1,0,0.2,0.1,0.3,0.1c0.2,0.1,0.4,0.2,0.6,0.3c0.8,0.4,1.5,0.9,2.1,1.5c0,0,0.1,0.1,0.1,0.1l0.1-1.3
				C870.6,67.7,870,67.3,869.3,66.9z"/>
			<path fill="#B2D5EB" d="M866.4,66.9c0.2-0.1,0.4-0.2,0.6-0.3c0.1,0,0.2-0.1,0.3-0.1c0.1,0,0.2-0.1,0.3-0.1
				c0.4-0.2,0.9-0.3,1.3-0.4c0.4-0.1,0.8-0.2,1.2-0.3l0,0c0,0,0,0,0,0c0.3-0.1,0.7-0.2,1-0.2c0.5-1.4,1-3.4,1.8-4.3
				c1-1,2.7-1.7,4.1-2.1c-0.4,1.3-1.3,3.3-2.3,4.2c-0.7,0.6-1.7,1.2-2.7,1.8c1.2-0.2,4-1,4.8-1.4c0.1-1.5,0-3.5,0.6-4.6
				c0.7-1.2,2.1-2.4,3.4-3.1c0,1.3-0.3,3.5-1,4.7c-0.5,0.8-1.3,1.7-2.1,2.5c0.7-0.4,3.1-2.1,4.8-3.6c-0.4-1.5-1.1-3.3-0.9-4.4
				c0.3-1.4,1.2-3,2.2-4c0.4,1.3,0.8,3.4,0.5,4.8c-0.2,0.9-0.7,2-1.2,3c0.8-0.9,2.7-3.1,3.1-3.9c-0.8-1.3-2-2.9-2.1-4.1
				c-0.1-1.4,0.4-3.2,1-4.5c0.8,1.1,1.7,3,1.8,4.4c0.1,0.9-0.2,2.1-0.3,3.2c0.3-0.8,1.4-3.6,2-5.8c-1.1-1.1-2.8-2.3-3.2-3.4
				c-0.5-1.3-0.5-3.2-0.2-4.6c1,0.9,2.5,2.5,2.9,3.8c0.3,0.9,0.4,2.1,0.6,3.2c0.3-1.2,0.4-2.4,0.5-3.6c0-0.9,0-1.8,0-2.7
				c-1.4-0.7-3.2-1.5-3.9-2.4c-0.8-1.1-1.3-2.9-1.4-4.4c1.2,0.5,3,1.7,3.9,2.8c0.5,0.7,1,1.9,1.4,2.9c-0.1-0.9-0.3-1.8-0.5-2.7
				c-0.1-0.3-0.1-0.5-0.2-0.8c-0.1-0.3-0.2-0.5-0.3-0.8c-0.2-0.5-0.4-1-0.6-1.5c-0.1-0.3-0.3-0.5-0.4-0.8c-1.5-0.2-3.5-0.2-4.5-0.8
				c-1.2-0.8-2.3-2.2-2.9-3.6c1.3,0.1,3.5,0.5,4.6,1.2c0.7,0.4,1.5,1.3,2.2,2c-0.2-0.3-0.4-0.6-0.6-0.9c-1-1.4-2.1-2.6-3.3-3.7
				c-1.5,0.1-3.6,0.6-4.7,0.1c-1.2-0.5-2.6-1.6-3.5-2.8c1.3-0.2,3.3-0.2,4.6,0.3c0.9,0.4,2.1,1.2,3.1,1.9c-0.2-0.2-0.4-0.3-0.6-0.5
				c-1.5-1.3-3.1-2.4-4.8-3.5c-1.1,0.3-2.4,0.3-3.5-0.3c-1.2-0.6-2.1-1.6-2.8-2.9c1.3-0.2,2.8-0.2,4,0.4c1.1,0.6,2,1.5,2.4,2.6
				c0.8,0.4,1.6,0.9,2.3,1.3c0.5,0.3,1.1,0.7,1.6,1.1c-0.8-0.8-1.8-1.6-2.3-2.3c-0.8-1.1-1.2-3.1-1.3-4.4c1.3,0.6,2.7,1.6,3.5,2.7
				c0.7,1,0.7,3.2,1,4.7c0.1,0.1,0.2,0.2,0.3,0.2c1.3,1.1,2.6,2.3,3.7,3.6c-0.7-1.1-1.7-2.4-2.2-3.5c-0.5-1.3-0.5-3.5-0.3-4.8
				c1.2,0.9,2.4,2.3,2.9,3.6c0.5,1.2,0,3.5-0.1,5.1c0.2,0.3,0.4,0.5,0.6,0.8c0.6,0.8,1.1,1.7,1.6,2.5c-0.3-0.8-0.5-1.7-0.5-2.4
				c-0.1-1.4,0.6-3.6,1.2-4.8c0.9,1.2,1.7,3,1.7,4.4c0.1,1.3-1,3.1-1.6,4.6c0,0,0,0,0,0c0.1,0.3,0.2,0.5,0.3,0.8
				c0.1,0.3,0.2,0.5,0.2,0.8c0.2,0.8,0.4,1.7,0.6,2.6c0-1,0-2,0.2-2.8c0.3-1.4,1.6-3.4,2.6-4.4c0.5,1.5,0.7,3.5,0.4,4.9
				c-0.3,1.3-1.9,2.9-3,4.2c0,0.7,0.1,1.5,0,2.2c0,0.7-0.1,1.4-0.2,2c0.3-1,0.7-2,1.1-2.7c0.8-1.3,2.6-2.6,3.9-3.3
				c0,1.6-0.4,3.5-1.2,4.8c-0.7,1.1-2.7,2-4.1,2.9c-0.1,0.5-0.3,1.3-0.4,1.8l0,0c-0.2,0.9-0.6,2.2-1.2,3.7c0.5-0.8,1-1.7,1.6-2.3
				c1-1.1,3.1-2,4.5-2.4c-0.3,1.5-1.2,3.3-2.2,4.4c-0.9,1-3.2,1.4-4.7,2c-0.3,0.7-0.7,1.3-1.1,1.9c-0.4,0.6-0.8,1.1-1.2,1.6
				c0.8-0.7,1.6-1.4,2.3-1.7c1.3-0.7,3.6-0.9,5-0.8c-0.8,1.3-2.2,2.8-3.5,3.5c-1.2,0.6-3.3,0.4-5,0.4c-0.5,0.3-0.9,0.8-1.4,1.1l0,0
				c-0.7,0.6-1.7,1.4-3.1,2.3c0.9-0.4,1.8-0.8,2.6-1c1.5-0.3,3.7,0.1,5.1,0.6c-1.2,1.1-2.9,2.1-4.3,2.4c-1.3,0.3-3.4-0.6-5-1
				c-0.6,0.3-1.3,0.7-2,0.9c-0.6,0.3-1.3,0.5-1.9,0.7c1-0.1,2.1-0.2,2.9-0.1c1.5,0.2,3.5,1.3,4.6,2.2c-1.4,0.6-3.4,1.1-4.9,0.9
				c-1.3-0.2-3-1.6-4.3-2.5c-0.1,0-0.1,0-0.2,0c-0.1,0-0.2,0.1-0.3,0.1c-0.9,0.2-1.8,0.4-2.6,0.7c-0.4,0.1-0.9,0.2-1.3,0.4
				c-0.1,0-0.2,0.1-0.3,0.1c-0.1,0-0.2,0.1-0.3,0.1c-0.2,0.1-0.4,0.2-0.6,0.3c-0.8,0.4-1.5,0.9-2.1,1.5c0,0-0.1,0.1-0.1,0.1
				l-0.1-1.3C865.1,67.7,865.8,67.3,866.4,66.9z"/>
		</g>
		<g>
			<path fill="#4C9CD0" d="M867.9,59.3c-8.9,0-16.2-7.2-16.2-16.1c0-8.9,7.2-16.1,16.2-16.1c8.9,0,16.1,7.2,16.1,16.1
				C884,52.1,876.8,59.3,867.9,59.3z"/>
			<path fill="#66AAD7" d="M856.4,31.7c-6.3,6.3-6.3,16.5,0,22.8l22.8-22.8C873,25.5,862.7,25.5,856.4,31.7z"/>
		</g>
	</g>
	<path fill="#2E6186" d="M867.5,39.3c-15.2,0-30.4,3-44.7,8.9V81c14.3-5.9,29.5-8.9,44.7-8.9c15.2,0,30.4,3,44.7,8.9V48.1
		C897.9,42.2,882.7,39.3,867.5,39.3z"/>
	<path fill="#517B9A" d="M867.5,39.3c-15.2,0-30.4,3-44.7,8.9V81c7.7-3.2,15.7-5.5,23.8-7l34-33.9C876.2,39.5,871.9,39.3,867.5,39.3
		z"/>
</g>
</svg>
