<?xml version="1.0" encoding="utf-8"?>
<!-- Generator: Adobe Illustrator 18.1.1, SVG Export Plug-In . SVG Version: 6.00 Build 0)  -->
<svg version="1.1" id="Layer_1" xmlns="http://www.w3.org/2000/svg" xmlns:xlink="http://www.w3.org/1999/xlink" x="0px" y="0px"
	 viewBox="0 0 175 95.6" enable-background="new 0 0 175 95.6" xml:space="preserve">
<g>
	<polygon opacity="0.2" fill="#231F20" points="-281,1 -281,90.1 -346.2,90.1 -346.2,18.2 -329,1 	"/>
	<polygon fill="#C0E0DE" points="-343.3,92.9 -343.3,45 -343.3,21 -326.1,3.8 -278.2,3.8 -278.2,21.6 -278.2,45 -278.2,92.9 	"/>
	<polygon fill="#FFFFFF" points="-326.1,21 -343.3,21 -326.1,3.8 	"/>
	<polygon fill="#8FC3D5" points="-343.3,21 -326.1,21 -343.3,38.2 	"/>
	<g>
		<defs>
			<polygon id="SVGID_1_" points="-343.3,92.9 -343.3,45 -343.3,21 -326.1,3.8 -278.2,3.8 -278.2,21.6 -278.2,45 -278.2,92.9 			"/>
		</defs>
		<clipPath id="SVGID_2_">
			<use xlink:href="#SVGID_1_"  overflow="visible"/>
		</clipPath>
		<path clip-path="url(#SVGID_2_)" fill="#8FC3D5" d="M-265.7,36l-10.6-10.6l-4.4-4.4l-42.7,42.7c0,0,0,0,0,0l0,19.5l19.5,0
			c0,0,0,0,0,0l42.7-42.7L-265.7,36z"/>
	</g>
	<path fill="#0F3754" d="M-283,17.3l-42.7,42.6c2.6,2,5.9,2.4,8.1,0.8l39-39L-283,17.3z"/>
	<path fill="#174F78" d="M-267.9,32.3l-10.6-10.6l-39,39h0c0,0,0,0,0,0.1c0,0,0,0,0.1-0.1c-1.8,2.4-1.1,6.2,1.6,9
		c2.7,2.7,6.6,3.3,8.9,1.6c0,0,0,0,0,0.1c0,0,0,0,0.1,0v0L-267.9,32.3z"/>
	<path fill="#0F3754" d="M-307,71.3c-1.6,2.1-1.2,5.4,0.8,8.1l42.7-42.6l-4.4-4.4L-307,71.3z"/>
	<path fill="#C0E0DE" d="M-306.1,79.4c-2.1-2.6-2.4-5.9-0.8-8.1v0c0,0,0,0-0.1,0c0,0,0,0,0-0.1c-2.4,1.7-6.2,1.1-8.9-1.6
		c-2.7-2.7-3.3-6.6-1.6-9c0,0,0,0-0.1,0.1c0,0,0,0,0-0.1h0c-2.1,1.6-5.5,1.2-8.1-0.8l0,19.5L-306.1,79.4z"/>
	<path fill="#0F3754" d="M-325.6,69.8l0,9.6l9.6,0c-1.2-1.8-2.7-3.6-4.3-5.2C-322,72.5-323.8,71.1-325.6,69.8z"/>
	
		<rect x="-281.5" y="13.9" transform="matrix(-0.7069 -0.7073 0.7073 -0.7069 -487.2556 -167.6862)" fill="#0E303F" width="6.3" height="6.5"/>
	
		<rect x="-278.3" y="21.4" transform="matrix(-0.7072 -0.707 0.707 -0.7072 -479.8359 -149.458)" fill="#2C5871" width="15" height="6.5"/>
	
		<rect x="-266.5" y="28.9" transform="matrix(-0.707 -0.7072 0.7072 -0.707 -472.2732 -131.3895)" fill="#0E303F" width="6.3" height="6.5"/>
</g>
<g>
	<g>
		<path fill="#338DC9" d="M273.1,91.1c-0.5,0-0.9,0.4-0.9,0.9c0,0.5,0.4,0.9,0.9,0.9h18.8c0.5,0,0.9-0.4,0.9-0.9
			c0-0.5-0.4-0.9-0.9-0.9H273.1L273.1,91.1z"/>
	</g>
</g>
<path fill="#0071BB" d="M259.1,45c0-13,10.5-23.4,23.4-23.4c13,0,23.4,10.5,23.4,23.4c0,0.8-0.6,11.6-9.4,23
	c-2.6,3.4-2.2,10.3-2.1,10.3c-3.6,0-6.6,0-10.3,0c-1.1,0-2.2,0-3.3,0c-3.6,0-6.7,0-10.3,0c0,0,0.5-6.9-2.1-10.3
	C259.6,56.6,259.1,45.8,259.1,45z"/>
<path fill="#338DC9" d="M282.5,78.3c-3.6,0-8.3,0-12,0c0,0,0.5-6.9-2.1-10.3c-8.8-11.4-9.4-22.2-9.4-23c0-13,10.5-23.4,23.4-23.4"/>
<g>
	<path fill="#338DC9" d="M301,45h-2.1c0-9-7.4-16.4-16.4-16.4v-2.1C292.7,26.6,301,34.9,301,45L301,45z"/>
</g>
<g>
	<g>
		<g>
			<polygon fill="#FFFFFF" points="287.6,80.2 285.6,79.8 289.6,55.6 291.6,55.9 287.6,80.2 			"/>
		</g>
		<g>
			<polygon fill="#FFFFFF" points="277.4,80.2 273.4,55.9 275.4,55.6 279.4,79.8 277.4,80.2 			"/>
		</g>
	</g>
	<g>
		<path fill="#FFFFFF" d="M290.5,59c-0.8,0-1.2-0.8-1.5-1.4c-0.1-0.2-0.3-0.8-0.5-0.8c-0.1,0-0.3,0.5-0.4,0.7
			c-0.2,0.6-0.6,1.5-1.6,1.5c-0.6,0-0.9-0.6-1.3-1.3c-0.1-0.3-0.4-0.7-0.6-0.9c-0.1,0.2-0.4,0.5-0.5,0.7c-0.4,0.7-0.8,1.4-1.5,1.4
			c-0.6,0-1-0.7-1.4-1.4c-0.1-0.2-0.4-0.6-0.5-0.8c-0.2,0.2-0.4,0.6-0.5,0.8c-0.4,0.7-0.8,1.3-1.4,1.3c-0.7,0-1.1-0.7-1.6-1.5
			c-0.1-0.2-0.3-0.6-0.5-0.7c-0.2,0.1-0.3,0.3-0.5,0.8c-0.2,0.6-0.5,1.4-1.4,1.4v-1.1c0.1,0,0.3-0.5,0.4-0.7
			c0.2-0.6,0.6-1.5,1.6-1.5c0.6,0,0.9,0.6,1.3,1.3c0.2,0.3,0.4,0.7,0.6,0.9c0.1-0.2,0.4-0.5,0.5-0.7c0.4-0.7,0.8-1.4,1.5-1.4
			c0.6,0,1,0.7,1.4,1.4c0.1,0.2,0.4,0.6,0.5,0.8c0.2-0.2,0.4-0.6,0.5-0.8c0.4-0.7,0.8-1.3,1.4-1.3c0.7,0,1.1,0.7,1.6,1.5
			c0.1,0.2,0.3,0.6,0.5,0.7c0.2-0.1,0.3-0.3,0.5-0.8c0.2-0.6,0.5-1.4,1.4-1.4c0.8,0,1.2,0.8,1.5,1.4c0.1,0.3,0.3,0.8,0.5,0.8V59
			L290.5,59z"/>
	</g>
</g>
<path fill="#0071BB" d="M294.4,78.4v12.3c0,0.8-0.7,1.5-1.5,1.5h-20.8c-0.8,0-1.5-0.7-1.5-1.5V78.4H294.4z"/>
<g>
	<g>
		<line fill="#338DC9" x1="294.9" y1="79.5" x2="270.1" y2="79.5"/>
		<path fill="#338DC9" d="M294.9,80.7h-24.8c-0.7,0-1.2-0.5-1.2-1.2c0-0.7,0.5-1.2,1.2-1.2h24.8c0.7,0,1.2,0.5,1.2,1.2
			C296.1,80.2,295.6,80.7,294.9,80.7L294.9,80.7z"/>
	</g>
	<g>
		<line fill="#338DC9" x1="294.9" y1="83.5" x2="270.1" y2="83.5"/>
		<path fill="#338DC9" d="M294.9,84.7h-24.8c-0.7,0-1.2-0.5-1.2-1.2c0-0.7,0.5-1.2,1.2-1.2h24.8c0.7,0,1.2,0.5,1.2,1.2
			C296.1,84.2,295.6,84.7,294.9,84.7L294.9,84.7z"/>
	</g>
	<g>
		<line fill="#338DC9" x1="294.9" y1="87.5" x2="270.1" y2="87.5"/>
		<path fill="#338DC9" d="M294.9,88.8h-24.8c-0.7,0-1.2-0.5-1.2-1.2c0-0.7,0.5-1.2,1.2-1.2h24.8c0.7,0,1.2,0.5,1.2,1.2
			C296.1,88.2,295.6,88.8,294.9,88.8L294.9,88.8z"/>
	</g>
</g>
<g>
	<g>
		<path fill="#0071BB" d="M282.5,13.9c-0.3,0-0.6-0.3-0.6-0.6V0.5c0-0.3,0.3-0.6,0.6-0.6c0.3,0,0.6,0.3,0.6,0.6v12.9
			C283.1,13.7,282.8,13.9,282.5,13.9L282.5,13.9z"/>
	</g>
	<g>
		<path fill="#0071BB" d="M266.1,18.4c-0.2,0-0.4-0.1-0.5-0.3l-6.4-11.2c-0.2-0.3-0.1-0.7,0.2-0.8c0.3-0.2,0.7-0.1,0.8,0.2l6.4,11.2
			c0.2,0.3,0.1,0.7-0.2,0.8C266.3,18.3,266.2,18.4,266.1,18.4L266.1,18.4z"/>
	</g>
	<g>
		<path fill="#0071BB" d="M254.1,30.4c-0.1,0-0.2,0-0.3-0.1l-11.2-6.4c-0.3-0.2-0.4-0.5-0.2-0.8c0.2-0.3,0.5-0.4,0.8-0.2l11.2,6.4
			c0.3,0.2,0.4,0.5,0.2,0.8C254.5,30.3,254.3,30.4,254.1,30.4L254.1,30.4z"/>
	</g>
	<g>
		<path fill="#0071BB" d="M249.7,46.8h-12.9c-0.3,0-0.6-0.3-0.6-0.6c0-0.3,0.3-0.6,0.6-0.6h12.9c0.3,0,0.6,0.3,0.6,0.6
			C250.3,46.5,250,46.8,249.7,46.8L249.7,46.8z"/>
	</g>
	<g>
		<path fill="#0071BB" d="M322.1,69.6c-0.1,0-0.2,0-0.3-0.1l-11.2-6.4c-0.3-0.2-0.4-0.5-0.2-0.8c0.2-0.3,0.5-0.4,0.8-0.2l11.2,6.4
			c0.3,0.2,0.4,0.5,0.2,0.8C322.5,69.5,322.3,69.6,322.1,69.6L322.1,69.6z"/>
	</g>
	<g>
		<path fill="#0071BB" d="M328.2,46.8h-12.9c-0.3,0-0.6-0.3-0.6-0.6s0.3-0.6,0.6-0.6h12.9c0.3,0,0.6,0.3,0.6,0.6
			S328.6,46.8,328.2,46.8L328.2,46.8z"/>
	</g>
	<g>
		<path fill="#0071BB" d="M310.9,30.4c-0.2,0-0.4-0.1-0.5-0.3c-0.2-0.3-0.1-0.7,0.2-0.8l11.2-6.4c0.3-0.2,0.7-0.1,0.8,0.2
			c0.2,0.3,0.1,0.7-0.2,0.8l-11.2,6.4C311.1,30.3,311,30.4,310.9,30.4L310.9,30.4z"/>
	</g>
	<g>
		<path fill="#0071BB" d="M298.9,18.3c-0.1,0-0.2,0-0.3-0.1c-0.3-0.2-0.4-0.5-0.2-0.8l6.4-11.2c0.2-0.3,0.5-0.4,0.8-0.2
			c0.3,0.2,0.4,0.5,0.2,0.8L299.4,18C299.3,18.2,299.1,18.3,298.9,18.3L298.9,18.3z"/>
	</g>
	<g>
		<path fill="#0071BB" d="M282.5,13.9c-0.3,0-0.6-0.3-0.6-0.6V0.5c0-0.3,0.3-0.6,0.6-0.6c0.3,0,0.6,0.3,0.6,0.6v12.9
			C283.1,13.7,282.8,13.9,282.5,13.9L282.5,13.9z"/>
	</g>
</g>
<g>
	<g>
		<path fill="#0071BB" d="M282.5,13.9c-0.3,0-0.6-0.3-0.6-0.6V0.5c0-0.3,0.3-0.6,0.6-0.6c0.3,0,0.6,0.3,0.6,0.6v12.9
			C283.1,13.7,282.8,13.9,282.5,13.9L282.5,13.9z"/>
	</g>
	<g>
		<path fill="#0071BB" d="M298.9,18.4c-0.1,0-0.2,0-0.3-0.1c-0.3-0.2-0.4-0.5-0.2-0.8l6.4-11.2c0.2-0.3,0.5-0.4,0.8-0.2
			c0.3,0.2,0.4,0.5,0.2,0.8L299.5,18C299.3,18.2,299.1,18.4,298.9,18.4L298.9,18.4z"/>
	</g>
	<g>
		<path fill="#0071BB" d="M310.9,30.4c-0.2,0-0.4-0.1-0.5-0.3c-0.2-0.3-0.1-0.7,0.2-0.8l11.2-6.4c0.3-0.2,0.7-0.1,0.8,0.2
			c0.2,0.3,0.1,0.7-0.2,0.8l-11.2,6.4C311.1,30.3,311,30.4,310.9,30.4L310.9,30.4z"/>
	</g>
	<g>
		<path fill="#0071BB" d="M328.2,46.8h-12.9c-0.3,0-0.6-0.3-0.6-0.6c0-0.3,0.3-0.6,0.6-0.6h12.9c0.3,0,0.6,0.3,0.6,0.6
			C328.8,46.5,328.6,46.8,328.2,46.8L328.2,46.8z"/>
	</g>
	<g>
		<path fill="#0071BB" d="M242.9,69.6c-0.2,0-0.4-0.1-0.5-0.3c-0.2-0.3-0.1-0.7,0.2-0.8l11.2-6.4c0.3-0.2,0.7-0.1,0.8,0.2
			c0.2,0.3,0.1,0.7-0.2,0.8l-11.2,6.4C243.1,69.6,243,69.6,242.9,69.6L242.9,69.6z"/>
	</g>
	<g>
		<path fill="#0071BB" d="M249.7,46.8h-12.9c-0.3,0-0.6-0.3-0.6-0.6s0.3-0.6,0.6-0.6h12.9c0.3,0,0.6,0.3,0.6,0.6
			S250,46.8,249.7,46.8L249.7,46.8z"/>
	</g>
	<g>
		<path fill="#0071BB" d="M254.1,30.4c-0.1,0-0.2,0-0.3-0.1l-11.2-6.4c-0.3-0.2-0.4-0.5-0.2-0.8c0.2-0.3,0.5-0.4,0.8-0.2l11.2,6.4
			c0.3,0.2,0.4,0.5,0.2,0.8C254.5,30.2,254.3,30.4,254.1,30.4L254.1,30.4z"/>
	</g>
	<g>
		<path fill="#0071BB" d="M266.1,18.3c-0.2,0-0.4-0.1-0.5-0.3l-6.4-11.2c-0.2-0.3-0.1-0.7,0.2-0.8c0.3-0.2,0.7-0.1,0.8,0.2l6.4,11.2
			c0.2,0.3,0.1,0.7-0.2,0.8C266.3,18.3,266.2,18.3,266.1,18.3L266.1,18.3z"/>
	</g>
	<g>
		<path fill="#0071BB" d="M282.5,13.9c-0.3,0-0.6-0.3-0.6-0.6V0.5c0-0.3,0.3-0.6,0.6-0.6c0.3,0,0.6,0.3,0.6,0.6v12.9
			C283.1,13.7,282.8,13.9,282.5,13.9L282.5,13.9z"/>
	</g>
</g>
<g>
	<g>
		<path fill="#338DC9" d="M1443.1,91.1c-0.5,0-0.9,0.4-0.9,0.9c0,0.5,0.4,0.9,0.9,0.9h18.8c0.5,0,0.9-0.4,0.9-0.9
			c0-0.5-0.4-0.9-0.9-0.9H1443.1L1443.1,91.1z"/>
	</g>
</g>
<path fill="#0071BB" d="M1429.1,45.1c0-13,10.5-23.4,23.4-23.4c13,0,23.4,10.5,23.4,23.4c0,0.8-0.6,11.6-9.4,23
	c-2.6,3.4-2.2,10.3-2.1,10.3c-3.6,0-6.6,0-10.3,0c-1.1,0-2.2,0-3.3,0c-3.6,0-6.7,0-10.3,0c0,0,0.5-6.9-2.1-10.3
	C1429.6,56.6,1429.1,45.8,1429.1,45.1z"/>
<path fill="#338DC9" d="M1452.5,78.4c-3.6,0-8.3,0-12,0c0,0,0.5-6.9-2.1-10.3c-8.8-11.4-9.4-22.2-9.4-23c0-13,10.5-23.4,23.4-23.4"
	/>
<g>
	<path fill="#338DC9" d="M1471,45h-2.1c0-9-7.4-16.4-16.4-16.4v-2.1C1462.7,26.6,1471,34.9,1471,45L1471,45z"/>
</g>
<g>
	<g>
		<g>
			<polygon fill="#FFFFFF" points="1457.6,80.2 1455.6,79.9 1459.6,55.6 1461.6,56 1457.6,80.2 			"/>
		</g>
		<g>
			<polygon fill="#FFFFFF" points="1447.4,80.2 1443.4,56 1445.4,55.6 1449.4,79.9 1447.4,80.2 			"/>
		</g>
	</g>
	<g>
		<path fill="#FFFFFF" d="M1460.5,59c-0.8,0-1.2-0.8-1.5-1.4c-0.1-0.2-0.3-0.8-0.5-0.8c-0.1,0-0.3,0.5-0.4,0.7
			c-0.2,0.6-0.6,1.5-1.6,1.5c-0.6,0-0.9-0.6-1.3-1.3c-0.1-0.3-0.4-0.7-0.6-0.9c-0.1,0.2-0.4,0.5-0.5,0.7c-0.4,0.7-0.8,1.4-1.5,1.4
			c-0.6,0-1-0.7-1.4-1.4c-0.1-0.2-0.4-0.6-0.5-0.8c-0.2,0.2-0.4,0.6-0.5,0.8c-0.4,0.7-0.8,1.3-1.4,1.3c-0.7,0-1.1-0.7-1.6-1.5
			c-0.1-0.2-0.3-0.6-0.5-0.7c-0.2,0.1-0.3,0.3-0.5,0.8c-0.2,0.6-0.5,1.4-1.4,1.4v-1.1c0.1,0,0.3-0.5,0.4-0.7
			c0.2-0.6,0.6-1.5,1.6-1.5c0.6,0,0.9,0.6,1.3,1.3c0.2,0.3,0.4,0.7,0.6,0.9c0.1-0.2,0.4-0.5,0.5-0.7c0.4-0.7,0.8-1.4,1.5-1.4
			c0.6,0,1,0.7,1.4,1.4c0.1,0.2,0.4,0.6,0.5,0.8c0.2-0.2,0.4-0.6,0.5-0.8c0.4-0.7,0.8-1.3,1.4-1.3c0.7,0,1.1,0.7,1.6,1.5
			c0.1,0.2,0.3,0.6,0.5,0.7c0.2-0.1,0.3-0.3,0.5-0.8c0.2-0.6,0.5-1.4,1.4-1.4c0.8,0,1.2,0.8,1.5,1.4c0.1,0.3,0.3,0.8,0.5,0.8V59
			L1460.5,59z"/>
	</g>
</g>
<path fill="#0071BB" d="M1464.4,78.4v12.3c0,0.8-0.7,1.5-1.5,1.5h-20.8c-0.8,0-1.5-0.7-1.5-1.5V78.4H1464.4z"/>
<g>
	<g>
		<line fill="#338DC9" x1="1464.9" y1="79.6" x2="1440.1" y2="79.6"/>
		<path fill="#338DC9" d="M1464.9,80.8h-24.8c-0.7,0-1.2-0.5-1.2-1.2c0-0.7,0.5-1.2,1.2-1.2h24.8c0.7,0,1.2,0.5,1.2,1.2
			C1466.1,80.2,1465.6,80.8,1464.9,80.8L1464.9,80.8z"/>
	</g>
	<g>
		<line fill="#338DC9" x1="1464.9" y1="83.6" x2="1440.1" y2="83.6"/>
		<path fill="#338DC9" d="M1464.9,84.8h-24.8c-0.7,0-1.2-0.5-1.2-1.2c0-0.7,0.5-1.2,1.2-1.2h24.8c0.7,0,1.2,0.5,1.2,1.2
			C1466.1,84.2,1465.6,84.8,1464.9,84.8L1464.9,84.8z"/>
	</g>
	<g>
		<line fill="#338DC9" x1="1464.9" y1="87.6" x2="1440.1" y2="87.6"/>
		<path fill="#338DC9" d="M1464.9,88.8h-24.8c-0.7,0-1.2-0.5-1.2-1.2c0-0.7,0.5-1.2,1.2-1.2h24.8c0.7,0,1.2,0.5,1.2,1.2
			C1466.1,88.2,1465.6,88.8,1464.9,88.8L1464.9,88.8z"/>
	</g>
</g>
<g>
	<g>
		<path fill="#0071BB" d="M1452.5,14c-0.3,0-0.6-0.3-0.6-0.6V0.5c0-0.3,0.3-0.6,0.6-0.6s0.6,0.3,0.6,0.6v12.9
			C1453.1,13.7,1452.8,14,1452.5,14L1452.5,14z"/>
	</g>
	<g>
		<path fill="#0071BB" d="M1436.1,18.4c-0.2,0-0.4-0.1-0.5-0.3l-6.4-11.2c-0.2-0.3-0.1-0.7,0.2-0.8c0.3-0.2,0.7-0.1,0.8,0.2
			l6.4,11.2c0.2,0.3,0.1,0.7-0.2,0.8C1436.3,18.3,1436.2,18.4,1436.1,18.4L1436.1,18.4z"/>
	</g>
	<g>
		<path fill="#0071BB" d="M1424.1,30.4c-0.1,0-0.2,0-0.3-0.1l-11.2-6.4c-0.3-0.2-0.4-0.5-0.2-0.8c0.2-0.3,0.5-0.4,0.8-0.2l11.2,6.4
			c0.3,0.2,0.4,0.5,0.2,0.8C1424.5,30.3,1424.3,30.4,1424.1,30.4L1424.1,30.4z"/>
	</g>
	<g>
		<path fill="#0071BB" d="M1419.7,46.8h-12.9c-0.3,0-0.6-0.3-0.6-0.6c0-0.3,0.3-0.6,0.6-0.6h12.9c0.3,0,0.6,0.3,0.6,0.6
			C1420.3,46.5,1420,46.8,1419.7,46.8L1419.7,46.8z"/>
	</g>
	<g>
		<path fill="#0071BB" d="M1492.1,69.6c-0.1,0-0.2,0-0.3-0.1l-11.2-6.4c-0.3-0.2-0.4-0.5-0.2-0.8c0.2-0.3,0.5-0.4,0.8-0.2l11.2,6.4
			c0.3,0.2,0.4,0.5,0.2,0.8C1492.5,69.5,1492.3,69.6,1492.1,69.6L1492.1,69.6z"/>
	</g>
	<g>
		<path fill="#0071BB" d="M1498.2,46.8h-12.9c-0.3,0-0.6-0.3-0.6-0.6c0-0.3,0.3-0.6,0.6-0.6h12.9c0.3,0,0.6,0.3,0.6,0.6
			C1498.8,46.5,1498.6,46.8,1498.2,46.8L1498.2,46.8z"/>
	</g>
	<g>
		<path fill="#0071BB" d="M1480.9,30.4c-0.2,0-0.4-0.1-0.5-0.3c-0.2-0.3-0.1-0.7,0.2-0.8l11.2-6.4c0.3-0.2,0.7-0.1,0.8,0.2
			c0.2,0.3,0.1,0.7-0.2,0.8l-11.2,6.4C1481.1,30.3,1481,30.4,1480.9,30.4L1480.9,30.4z"/>
	</g>
	<g>
		<path fill="#0071BB" d="M1468.9,18.4c-0.1,0-0.2,0-0.3-0.1c-0.3-0.2-0.4-0.5-0.2-0.8l6.4-11.2c0.2-0.3,0.5-0.4,0.8-0.2
			c0.3,0.2,0.4,0.5,0.2,0.8l-6.4,11.2C1469.3,18.3,1469.1,18.4,1468.9,18.4L1468.9,18.4z"/>
	</g>
	<g>
		<path fill="#0071BB" d="M1452.5,14c-0.3,0-0.6-0.3-0.6-0.6V0.5c0-0.3,0.3-0.6,0.6-0.6s0.6,0.3,0.6,0.6v12.9
			C1453.1,13.7,1452.8,14,1452.5,14L1452.5,14z"/>
	</g>
</g>
<g>
	<g>
		<path fill="#0071BB" d="M1452.5,14c-0.3,0-0.6-0.3-0.6-0.6V0.5c0-0.3,0.3-0.6,0.6-0.6s0.6,0.3,0.6,0.6v12.9
			C1453.1,13.7,1452.8,14,1452.5,14L1452.5,14z"/>
	</g>
	<g>
		<path fill="#0071BB" d="M1468.9,18.4c-0.1,0-0.2,0-0.3-0.1c-0.3-0.2-0.4-0.5-0.2-0.8l6.4-11.2c0.2-0.3,0.5-0.4,0.8-0.2
			c0.3,0.2,0.4,0.5,0.2,0.8l-6.4,11.2C1469.3,18.3,1469.1,18.4,1468.9,18.4L1468.9,18.4z"/>
	</g>
	<g>
		<path fill="#0071BB" d="M1480.9,30.4c-0.2,0-0.4-0.1-0.5-0.3c-0.2-0.3-0.1-0.7,0.2-0.8l11.2-6.4c0.3-0.2,0.7-0.1,0.8,0.2
			c0.2,0.3,0.1,0.7-0.2,0.8l-11.2,6.4C1481.1,30.4,1481,30.4,1480.9,30.4L1480.9,30.4z"/>
	</g>
	<g>
		<path fill="#0071BB" d="M1498.2,46.8h-12.9c-0.3,0-0.6-0.3-0.6-0.6c0-0.3,0.3-0.6,0.6-0.6h12.9c0.3,0,0.6,0.3,0.6,0.6
			C1498.8,46.5,1498.6,46.8,1498.2,46.8L1498.2,46.8z"/>
	</g>
	<g>
		<path fill="#0071BB" d="M1412.9,69.6c-0.2,0-0.4-0.1-0.5-0.3c-0.2-0.3-0.1-0.7,0.2-0.8l11.2-6.4c0.3-0.2,0.7-0.1,0.8,0.2
			c0.2,0.3,0.1,0.7-0.2,0.8l-11.2,6.4C1413.1,69.6,1413,69.6,1412.9,69.6L1412.9,69.6z"/>
	</g>
	<g>
		<path fill="#0071BB" d="M1419.7,46.8h-12.9c-0.3,0-0.6-0.3-0.6-0.6c0-0.3,0.3-0.6,0.6-0.6h12.9c0.3,0,0.6,0.3,0.6,0.6
			C1420.3,46.5,1420,46.8,1419.7,46.8L1419.7,46.8z"/>
	</g>
	<g>
		<path fill="#0071BB" d="M1424.1,30.4c-0.1,0-0.2,0-0.3-0.1l-11.2-6.4c-0.3-0.2-0.4-0.5-0.2-0.8c0.2-0.3,0.5-0.4,0.8-0.2l11.2,6.4
			c0.3,0.2,0.4,0.5,0.2,0.8C1424.5,30.3,1424.3,30.4,1424.1,30.4L1424.1,30.4z"/>
	</g>
	<g>
		<path fill="#0071BB" d="M1436.1,18.4c-0.2,0-0.4-0.1-0.5-0.3l-6.4-11.2c-0.2-0.3-0.1-0.7,0.2-0.8c0.3-0.2,0.7-0.1,0.8,0.2
			l6.4,11.2c0.2,0.3,0.1,0.7-0.2,0.8C1436.3,18.3,1436.2,18.4,1436.1,18.4L1436.1,18.4z"/>
	</g>
	<g>
		<path fill="#0071BB" d="M1452.5,14c-0.3,0-0.6-0.3-0.6-0.6V0.5c0-0.3,0.3-0.6,0.6-0.6s0.6,0.3,0.6,0.6v12.9
			C1453.1,13.7,1452.8,14,1452.5,14L1452.5,14z"/>
	</g>
</g>
<g>
	<g>
		<g>
			<path fill="#0072BC" d="M-58.3,13.4h-9.6L-78.3,0h-33.3l-10.5,13.4h-34.6c-4.1,0-7.4,3.3-7.4,7.4v64.4c0,4.1,3.3,7.4,7.4,7.4
				h98.5c4.1,0,7.4-3.3,7.4-7.4V20.7C-50.9,16.7-54.2,13.4-58.3,13.4z"/>
			<path fill="#FFFFFF" d="M-68.6,52.9c0,14.5-11.8,26.3-26.3,26.3c-14.6,0-26.3-11.8-26.3-26.3c0-14.6,11.8-26.4,26.3-26.4
				C-80.4,26.6-68.6,38.4-68.6,52.9z"/>
			<path fill="#0E303F" d="M-72.2,52.9c0,12.6-10.2,22.8-22.8,22.8c-12.6,0-22.8-10.2-22.8-22.8c0-12.6,10.2-22.8,22.8-22.8
				C-82.4,30.1-72.2,40.3-72.2,52.9z"/>
			<path fill="#80B8DD" d="M-78,52.9c0,9.3-7.6,16.9-16.9,16.9c-9.4,0-16.9-7.6-16.9-16.9c0-9.4,7.6-16.9,16.9-16.9
				C-85.6,36-78,43.6-78,52.9z"/>
			<path fill="#FFFFFF" d="M-94.1,46c0,3.3-2.7,6-6,6c-3.3,0-6-2.7-6-6c0-3.3,2.7-6,6-6C-96.8,40-94.1,42.7-94.1,46z"/>
			<path fill="#FFFFFF" d="M-102.9,55.4c0,1.9-1.5,3.4-3.4,3.4c-1.9,0-3.4-1.5-3.4-3.4c0-1.9,1.5-3.4,3.4-3.4
				C-104.4,52-102.9,53.5-102.9,55.4z"/>
			<path fill="#175079" d="M-154.1,18.4c-2.8,0-5.3-1.6-6.5-3.9c-2.1,1.3-3.5,3.6-3.5,6.3v64.4c0,4.1,3.3,7.4,7.4,7.4h20.6V18.4
				H-154.1z"/>
			<path fill="#175079" d="M-136.1,13.2c0,1.2-1,2.1-2.1,2.1h-14.4c-1.2,0-2.1-1-2.1-2.1v-1.1c0-1.2,1-2.1,2.1-2.1h14.4
				c1.2,0,2.1,1,2.1,2.1V13.2z"/>
			<path fill="#FFFFFF" d="M-79.2,9.2c0,1.2-1,2.2-2.2,2.2H-109c-1.2,0-2.2-1-2.2-2.2V4.8c0-1.2,1-2.2,2.2-2.2h27.6
				c1.2,0,2.2,1,2.2,2.2V9.2z"/>
		</g>
	</g>
</g>
<g>
	<path fill="#0071BB" d="M504.3,69.3c-4.5,3.4-6.7,7.4-6.7,12c0,3.5,1.3,6.3,4,8.5c2.7,2.1,5.8,3.2,9.5,3.2c2.9,0,6.2-0.8,9.8-2.4
		c1.7-0.7,3.5-1.6,5.3-2.7v-3.1c-0.8,0.5-1.6,0.9-2.4,1.3c-2.8,1.4-5.2,2.1-7.3,2.1c-2.3,0-4.3-0.9-5.7-2.6c-1.5-1.7-2.2-4-2.2-6.8
		c0-7.1,5.7-12.9,17.2-17.6l0.4-0.2v-3.1l-3.5,1.4C515,62.6,508.8,65.9,504.3,69.3z M521.9,34.8c-7.6,0-13.2,1.4-16.8,4.4
		c-3.6,2.9-5.4,5.6-5.4,8.1c0,2.6,1.3,3.9,4.1,3.9c3,0,4.9-2.3,5.6-6.8c0.8-4.4,4.5-6.6,11.1-6.6c2.2,0,4.1,0.3,5.7,0.9V35
		C524.9,34.9,523.5,34.8,521.9,34.8z"/>
	<path fill="#0071BB" d="M446.7,28.5V0h-1.2l-26.2,62.6c-1.9,4.5-3,7.1-3.2,7.7c-2.8,7-5.1,11.7-7.1,13.9c-2,2.2-4.9,3.6-8.9,4.2
		v3.1h26.8v-3.1c-2.9,0-5.2-0.7-7.1-2.1c-1.8-1.4-2.8-3.5-2.8-6.2c0-2.5,1.7-7.9,5.2-16.2l2.3-5.7h22.1v-3h-20.8l15.9-38.5
		L446.7,28.5z"/>
	<path fill="#175079" d="M493.2,88.5v3.1h-35.5v-3.1c4.3,0,7.3-0.3,8.8-1c1.5-0.6,2.3-1.9,2.3-3.8c0-1-1-3.9-3.1-8.7l-6.9-16.7
		h-12.2v-3h11.1l-11.1-26.7V0h1.4l30.2,71.7l4.1,9.4c0.9,2.1,2.2,3.8,3.8,5C487.7,87.4,490.1,88.2,493.2,88.5z"/>
	<path fill="#175079" d="M554.9,81.5c-0.4,7.6-4.1,11.4-11.2,11.4c-3,0-5.4-0.8-7.2-2.4c-1.8-1.6-2.9-4-3.4-7.1
		c-2.4,1.7-4.7,3.2-6.8,4.4v-3.1c2.1-1.3,4.4-2.9,6.8-4.9V58.2l-6.8,2.8v-3.1l6.8-2.8v-2.7c0-3.8-0.2-6.5-0.7-8.2s-1.8-3.2-3.8-4.5
		c-0.7-0.5-1.5-0.8-2.3-1.1V35c3.6,0.4,6.5,1.2,8.8,2.5c3.1,1.8,5.2,3.8,6.2,6.1c1,2.3,1.5,5.7,1.5,10.4v22c0,5.2,0.3,8.5,0.8,9.9
		c0.5,1.5,1.7,2.2,3.5,2.2c2.9,0,4.8-2.2,5.5-6.5H554.9z"/>
</g>
<g>
	<g>
		<path fill="#0072BC" d="M68.5,24.4c-21,0-37.9,13.4-37.9,29.9c0,11.9,8.9,22.2,21.7,27c-0.3,0.5-0.5,1.1-0.8,1.6
			c-2.5,4.2-6.2,7.4-10.5,9.5c9.7,0.7,18.6-2.2,24.6-8.3c1,0.1,2,0.1,3,0.1c20.9,0,37.9-13.4,37.9-29.9
			C106.4,37.8,89.5,24.4,68.5,24.4z"/>
		<path fill="#175079" d="M94.6,76c-23.5-0.5-42.3-15.7-42.3-34.3c0-5.8,1.8-11.2,5-16c3.5-0.9,7.3-1.3,11.1-1.3
			c20.9,0,37.9,13.4,37.9,29.9C106.4,62.9,101.9,70.6,94.6,76z"/>
		<path fill="#99C6E4" d="M100.9-0.1c24,0,43.5,15.4,43.5,34.3c0,13.7-10.2,25.5-24.9,31c0.3,0.6,0.5,1.2,0.9,1.8
			c2.9,4.8,7.1,8.5,12.1,10.9c-11.1,0.8-21.4-2.5-28.2-9.5c-1.1,0.1-2.3,0.1-3.4,0.1c-24,0-43.5-15.4-43.5-34.3S76.9-0.1,100.9-0.1z
			"/>
		<path fill="#CCE3F1" d="M144.4,34.3c-0.1,13.6-10.2,25.4-24.9,30.9c0.3,0.6,0.5,1.2,0.9,1.8c2.9,4.8,7.1,8.5,12.1,10.9
			c-11.1,0.8-21.4-2.5-28.2-9.5c-1.1,0.1-2.3,0.1-3.4,0.1c-24,0-43.4-15.3-43.5-34.2H144.4z"/>
		<g>
			<g>
				<path fill="#1980C2" d="M113.4,34.8c0,3.4,2.7,6.1,6.1,6.1c3.4,0,6.1-2.7,6.1-6.1c0-3.4-2.7-6.1-6.1-6.1
					C116.1,28.7,113.4,31.5,113.4,34.8z"/>
				<path fill="#1980C2" d="M94.7,34.8c0,3.4,2.7,6.1,6.1,6.1c3.4,0,6.1-2.7,6.1-6.1c0-3.4-2.7-6.1-6.1-6.1
					C97.4,28.7,94.7,31.5,94.7,34.8z"/>
				<path fill="#1980C2" d="M75.9,34.8c0,3.4,2.7,6.1,6.1,6.1c3.4,0,6.1-2.7,6.1-6.1c0-3.4-2.7-6.1-6.1-6.1
					C78.7,28.7,75.9,31.5,75.9,34.8z"/>
			</g>
			<g>
				<path fill="#0072BC" d="M125.6,34.3h-12.1c0.3-3.1,2.9-5.6,6.1-5.6C122.7,28.7,125.3,31.2,125.6,34.3z"/>
				<path fill="#0072BC" d="M106.8,34.3H94.7c0.3-3.1,2.9-5.6,6.1-5.6C104,28.7,106.6,31.2,106.8,34.3z"/>
				<path fill="#0072BC" d="M88.1,34.3H76c0.3-3.1,2.9-5.6,6.1-5.6C85.2,28.7,87.8,31.2,88.1,34.3z"/>
			</g>
		</g>
	</g>
</g>
<path fill="#B06E59" d="M1012,85.1c-0.1-0.2-0.2-0.5-0.3-0.7C1011.9,84.6,1011.9,84.8,1012,85.1z"/>
<g>
	<g>
		<g>
			<g>
				<path fill="#30363D" d="M804.6,87.2c-0.9,0-1.7-0.3-2.3-1c-0.6-0.6-1-1.4-1-2.3l0-80.6c0-0.9,0.3-1.7,1-2.3c0.6-0.6,1.4-1,2.3-1
					h127.5c0.9,0,1.7,0.3,2.3,1c0.6,0.6,1,1.4,1,2.3v80.6c0,0.9-0.3,1.7-1,2.3c-0.6,0.6-1.4,1-2.3,1H804.6z"/>
				<path fill="#30363D" d="M934.5,1c-0.6-0.6-1.5-1-2.3-1H804.6c-0.9,0-1.7,0.3-2.3,1c-0.6,0.6-1,1.5-1,2.3l0,80.6
					c0,0.9,0.3,1.7,1,2.3c0.6,0.6,1.5,1,2.3,1h127.5c0.9,0,1.7-0.3,2.3-1c0.6-0.6,1-1.5,1-2.3V3.3C935.4,2.4,935.1,1.6,934.5,1z
					 M935.3,83.9c0,0.8-0.3,1.6-0.9,2.2c-0.6,0.6-1.4,0.9-2.2,0.9H804.6c-0.8,0-1.6-0.3-2.2-0.9c-0.6-0.6-0.9-1.4-0.9-2.2l0-80.6
					c0-0.8,0.3-1.6,0.9-2.2c0.6-0.6,1.4-0.9,2.2-0.9h127.5c0.8,0,1.6,0.3,2.2,0.9c0.6,0.6,0.9,1.4,0.9,2.2V83.9z"/>
			</g>
		</g>
	</g>
	<g>
		<g>
			<rect x="807.2" y="5.9" fill="#FFFFFF" width="122.4" height="80.6"/>
		</g>
	</g>
	<path fill="#565E6A" d="M951.7,84.3c0-0.4-1.6-0.7-2-0.7h-6h-1H787c-0.4,0-2,0.2-2,0.7v5.9h0c2.2,2.7,3.9,2.1,5.1,2.3h12.2l1.8,0v0
		l64.2,0l66,0h12.2c1.1-0.1,2.9,0.4,5.1-2.3h0c0-0.1,0-0.1,0-0.2L951.7,84.3L951.7,84.3z"/>
	<g>
		<rect x="809.9" y="22.1" fill="#0072BC" width="35.7" height="18.6"/>
		<rect x="850.1" y="22.1" fill="#174F78" width="35.7" height="18.6"/>
		<rect x="890.3" y="22.1" fill="#8FC1E1" width="35.7" height="18.6"/>
		<rect x="809.9" y="46" fill="#0072BC" width="35.7" height="4"/>
		<rect x="850.1" y="46" fill="#174F78" width="35.7" height="4"/>
		<rect x="890.3" y="46" fill="#8FC1E1" width="35.7" height="4"/>
		<g>
			<rect x="819.8" y="10.9" fill="#CDD5D7" width="23.8" height="2.6"/>
			<circle fill="#CDD5D7" cx="813.3" cy="12.2" r="3.4"/>
		</g>
		<rect x="914.2" y="11.7" fill="#CDD5D7" width="11.8" height="1.1"/>
		<rect x="900.9" y="11.7" fill="#CDD5D7" width="11.8" height="1.1"/>
		<rect x="887.6" y="11.7" fill="#CDD5D7" width="11.8" height="1.1"/>
		<rect x="874.4" y="11.7" fill="#CDD5D7" width="11.8" height="1.1"/>
		<rect x="861.1" y="11.7" fill="#CDD5D7" width="11.8" height="1.1"/>
		<g>
			<rect x="809.9" y="60.3" fill="#CDD5D7" width="35.7" height="1"/>
			<rect x="809.9" y="63.9" fill="#CDD5D7" width="35.7" height="1"/>
			<rect x="809.9" y="67.6" fill="#CDD5D7" width="35.7" height="1"/>
			<rect x="809.9" y="71.2" fill="#CDD5D7" width="35.7" height="1"/>
			<rect x="809.9" y="74.8" fill="#CDD5D7" width="25.5" height="1"/>
			<rect x="809.9" y="54.2" fill="#CDD5D7" width="23.8" height="2.6"/>
		</g>
		<g>
			<rect x="850.1" y="60.3" fill="#CDD5D7" width="35.7" height="1"/>
			<rect x="850.1" y="63.9" fill="#CDD5D7" width="35.7" height="1"/>
			<rect x="850.1" y="67.6" fill="#CDD5D7" width="35.7" height="1"/>
			<rect x="850.1" y="71.2" fill="#CDD5D7" width="35.7" height="1"/>
			<rect x="850.1" y="74.8" fill="#CDD5D7" width="25.5" height="1"/>
			<rect x="850.1" y="54.2" fill="#CDD5D7" width="23.8" height="2.6"/>
		</g>
		<g>
			<rect x="890.3" y="60.3" fill="#CDD5D7" width="35.7" height="1"/>
			<rect x="890.3" y="63.9" fill="#CDD5D7" width="35.7" height="1"/>
			<rect x="890.3" y="67.6" fill="#CDD5D7" width="35.7" height="1"/>
			<rect x="890.3" y="71.2" fill="#CDD5D7" width="35.7" height="1"/>
			<rect x="890.3" y="74.8" fill="#CDD5D7" width="25.5" height="1"/>
			<rect x="890.3" y="54.2" fill="#CDD5D7" width="23.8" height="2.6"/>
		</g>
	</g>
	<g>
		<g>
			<g>
				<path fill="#DAE1DB" d="M939.9,87.2c0,0.1-0.1,0.2-0.2,0.2h-4.9c-0.1,0-0.2-0.1-0.2-0.2c0-0.1,0.1-0.2,0.2-0.2h4.9
					C939.8,87,939.9,87.1,939.9,87.2z"/>
			</g>
		</g>
		<g>
			<g>
				<path fill="#DAE1DB" d="M944.8,86.5c0.4,0,0.7,0.3,0.7,0.7c0,0.4-0.3,0.7-0.7,0.7c-0.4,0-0.7-0.3-0.7-0.7
					C944.1,86.8,944.5,86.5,944.8,86.5z"/>
			</g>
			<g>
				<path fill="#DAE1DB" d="M942.7,86.5c0.4,0,0.7,0.3,0.7,0.7c0,0.4-0.3,0.7-0.7,0.7c-0.4,0-0.7-0.3-0.7-0.7
					C942,86.8,942.4,86.5,942.7,86.5z"/>
			</g>
		</g>
	</g>
	<g>
		<g>
			<path fill="#DAE1DB" d="M790.7,88.2c0,0.1-0.1,0.2-0.2,0.2h0c-0.1,0-0.2-0.1-0.2-0.2v-2c0-0.1,0.1-0.2,0.2-0.2h0
				c0.1,0,0.2,0.1,0.2,0.2V88.2z"/>
		</g>
		<g>
			<path fill="#DAE1DB" d="M791.8,88.2c0,0.1-0.1,0.2-0.2,0.2h0c-0.1,0-0.2-0.1-0.2-0.2v-2c0-0.1,0.1-0.2,0.2-0.2h0
				c0.1,0,0.2,0.1,0.2,0.2V88.2z"/>
		</g>
		<g>
			<path fill="#DAE1DB" d="M792.9,88.2c0,0.1-0.1,0.2-0.2,0.2h0c-0.1,0-0.2-0.1-0.2-0.2v-2c0-0.1,0.1-0.2,0.2-0.2h0
				c0.1,0,0.2,0.1,0.2,0.2V88.2z"/>
		</g>
		<g>
			<path fill="#DAE1DB" d="M794.1,88.2c0,0.1-0.1,0.2-0.2,0.2h0c-0.1,0-0.2-0.1-0.2-0.2v-2c0-0.1,0.1-0.2,0.2-0.2h0
				c0.1,0,0.2,0.1,0.2,0.2V88.2z"/>
		</g>
	</g>
</g>
<path fill="#B06E59" d="M1015.7,84.7c-0.1-0.2-0.2-0.5-0.3-0.7C1015.5,84.2,1015.6,84.4,1015.7,84.7z"/>
<g>
	<path fill="#B06E59" d="M1094.5,1.1c0.5,0.1,1.1,0.2,1.6,0.3C1095.6,1.3,1095,1.2,1094.5,1.1z"/>
	<path fill="#B06E59" d="M1097.2,1.7c0.2,0.1,0.5,0.2,0.7,0.3C1097.7,1.9,1097.4,1.8,1097.2,1.7z"/>
	<path fill="#B06E59" d="M1096.1,1.4c0.3,0.1,0.6,0.2,0.9,0.3C1096.7,1.6,1096.4,1.5,1096.1,1.4z"/>
	<path fill="#2E6186" d="M1107.1,9.8c-0.5-2-1.4-3.8-2.9-5.2c-1.4-1.4-3.2-2.4-5.2-2.9c-4.1-0.9-8.3-1.4-12.7-1.4
		c-0.9,0-1.9,0-2.8,0.1c2.7,1.1,5.2,2.4,7.7,3.9c5.1,3.1,9.6,6.9,13.5,11.4c-0.7,3.1-1.9,6.4-3.3,9.7c-5.1-7.5-11.9-13.7-19.8-18.1
		c-3.6-2-7.4-3.6-11.4-4.8c-0.2,0-0.4,0.1-0.5,0.1c-12.1,3.3-23.3,9.7-32.2,18.7c-6.3,6.3-11.4,13.7-15.1,22c0,0,0,0,0,0.1
		c3.1,2,5.9,4.3,8.7,6.7c9,8.1,16.1,18.3,20.4,29.9c-4.6,2.8-9.1,5.1-13.5,6.8c-3.2-8.5-8-16.3-13.9-23c-2-2.2-4-4.3-6.2-6.3
		c-1.8,8.7-1.8,17.5,0.1,25.5c0.5,2,1.4,3.8,2.9,5.2c1.4,1.4,3.2,2.4,5.2,2.9c4.1,0.9,8.3,1.4,12.7,1.4c0,0,0,0,0,0
		c17.5,0,35.8-7.8,48.9-20.9C1104.2,54.7,1111.9,30.5,1107.1,9.8z"/>
	<path fill="#5B1E10" d="M1024.1,63.7c1.8-4.5,4.2-9.1,6.9-13.7c4.2-6.9,9.4-13.6,15.5-19.7c10.6-10.6,23.3-18.6,35.1-23.1
		c3.3-1.3,6.5-2.2,9.7-2.9c3.3-0.7,6.5-1.2,9.5-1.2c0,0,0.1,0,0.1,0c0.6,0,1.2,0.1,1.7,0.2c-1.1-0.7-2.3-1.3-3.6-1.6
		c-1.1-0.2-2.1-0.5-3.2-0.6c-1.7,0.2-3.4,0.5-5.1,0.9c-3.2,0.7-6.6,1.7-10,3c-12.8,4.9-25.5,13.3-35.9,23.6
		c-6,6-11.4,12.8-15.8,20.1c-2.8,4.6-5.2,9.3-7.1,14c-2.4,5.9-4,11.6-4.6,16.9c0.2,1.1,0.4,2.1,0.6,3.2c0.3,1.3,0.8,2.5,1.6,3.6
		c-0.2-0.6-0.3-1.2-0.2-1.9C1019.4,78.4,1021,71.2,1024.1,63.7z"/>
	<path fill="#0072BC" d="M1107.1,9.8c-0.3-1.3-0.8-2.5-1.6-3.6c0.2,0.6,0.3,1.2,0.2,1.9c0,2.5-0.4,5-1,7.7c-0.7,3.1-1.9,6.4-3.3,9.7
		c-5.1,11.5-14.3,23.6-25.3,34.6c-7.9,7.9-16.3,14.8-24.7,20c-4.6,2.8-9.1,5.1-13.5,6.8c-4.8,1.8-9.4,2.8-13.7,2.9c0,0-0.1,0-0.1,0
		c-0.6,0-1.2-0.1-1.7-0.2c1.1,0.7,2.3,1.3,3.6,1.6c1,0.2,2,0.4,3,0.6c3.1-0.5,6.4-1.3,9.9-2.6c4.4-1.7,9.1-4,13.9-7
		c8.2-5.1,16.9-12.1,25.1-20.3c11.8-11.8,20.7-24,25.7-35.3c1.6-3.5,2.7-6.9,3.5-10.1c0.3-1.2,0.5-2.3,0.7-3.5
		C1107.5,11.8,1107.3,10.8,1107.1,9.8z"/>
	<path fill="#99C6E4" d="M1091.2,4.3c-2.4-1.5-5-2.8-7.7-3.9c-0.2,0-0.5,0-0.7,0c-4.2,0.2-8.4,0.9-12.7,2c4,1.2,7.8,2.8,11.4,4.8
		c7.9,4.4,14.7,10.6,19.8,18.1c1.5-3.3,2.6-6.5,3.3-9.7C1100.8,11.3,1096.3,7.4,1091.2,4.3z"/>
	<path fill="#99C6E4" d="M1031,50c-2.7-2.4-5.6-4.7-8.7-6.7c-2,4.5-3.5,9.2-4.5,13.9c0,0.1,0,0.1,0,0.2c2.2,2,4.3,4.1,6.2,6.3
		c5.9,6.7,10.6,14.5,13.9,23c4.4-1.6,8.9-3.9,13.5-6.8C1047.1,68.4,1040,58.1,1031,50z"/>
	<path fill="#B06E59" d="M1017.9,82.9c-0.1-0.5-0.2-1-0.3-1.6C1017.7,81.8,1017.8,82.4,1017.9,82.9z"/>
	<path fill="#B06E59" d="M1018.2,83.8c-0.1-0.3-0.2-0.6-0.2-0.9C1018,83.2,1018.1,83.5,1018.2,83.8z"/>
	<path fill="#B06E59" d="M1097.4,1.4c0.5,0.1,1.1,0.2,1.6,0.3C1098.5,1.6,1098,1.5,1097.4,1.4z"/>
	<path fill="#B06E59" d="M1017.6,81.2c-0.1-0.5-0.2-1-0.3-1.5C1017.4,80.2,1017.5,80.7,1017.6,81.2z"/>
	<path fill="#B06E59" d="M1100.1,2.1c0.2,0.1,0.5,0.2,0.7,0.3C1100.6,2.2,1100.4,2.2,1100.1,2.1z"/>
	<path fill="#B06E59" d="M1099,1.7c0.3,0.1,0.6,0.2,0.9,0.2C1099.6,1.9,1099.3,1.8,1099,1.7z"/>
	<path fill="#457393" d="M1019.2,84.6c0,0.7,0.1,1.3,0.2,1.9c-0.4-0.5-0.7-1.1-0.9-1.7c0.5,1.2,1.3,2.3,2.2,3.2c0,0,0,0,0,0
		l12.1-12.1c-2.5-4.4-5.5-8.5-8.8-12.3C1021,71.2,1019.4,78.4,1019.2,84.6z"/>
	<path fill="#457393" d="M1034.9,40.2c-0.1-0.5,0-1.1,0.4-1.5c0.5-0.7,1-1.3,1.6-2c-0.7-0.5-1.5-0.9-2.3-1.2
		c-0.5-0.2-0.7-0.8-0.5-1.3c0.2-0.5,0.8-0.7,1.3-0.5c1,0.4,1.9,0.9,2.8,1.5c0.6-0.7,1.2-1.4,1.8-2.1c-0.7-0.4-1.5-0.8-2.3-1.2
		c-0.5-0.2-0.8-0.8-0.6-1.3c0.2-0.5,0.8-0.8,1.3-0.6c1,0.4,2,0.9,3,1.5c0.7-0.7,1.4-1.5,2.1-2.2c-0.7-0.4-1.5-0.8-2.3-1.1
		c-0.5-0.2-0.8-0.8-0.6-1.3c0.2-0.5,0.8-0.8,1.3-0.6c1.1,0.4,2.1,0.9,3,1.5c0.6-0.6,1.3-1.2,1.9-1.9c-0.7-0.4-1.5-0.8-2.3-1.1
		c-0.5-0.2-0.8-0.8-0.6-1.3c0.2-0.5,0.8-0.8,1.3-0.6c1.1,0.4,2.2,0.9,3.2,1.5c0.7-0.6,1.4-1.3,2.1-1.9c-0.8-0.4-1.5-0.7-2.3-1
		c-0.5-0.2-0.8-0.8-0.6-1.3c0.2-0.5,0.8-0.8,1.3-0.6c1.2,0.4,2.3,0.9,3.3,1.5c0.7-0.6,1.4-1.2,2.2-1.7c-0.7-0.3-1.4-0.6-2.1-0.9
		c-0.5-0.2-0.8-0.7-0.6-1.3c0.2-0.5,0.7-0.8,1.3-0.6c1.1,0.4,2.2,0.9,3.2,1.4c0.8-0.6,1.5-1.1,2.3-1.7c-0.7-0.3-1.4-0.6-2.2-0.8
		c-0.5-0.2-0.8-0.7-0.7-1.3c0.2-0.5,0.7-0.8,1.3-0.7c1.2,0.4,2.3,0.9,3.4,1.5c0.9-0.6,1.7-1.2,2.6-1.7c-0.7-0.3-1.5-0.6-2.3-0.9
		c-0.5-0.2-0.8-0.7-0.7-1.3c0.2-0.5,0.7-0.8,1.3-0.7c1.3,0.4,2.5,0.9,3.7,1.5c1-0.6,2-1.2,3-1.7c-0.5-0.2-0.9-0.3-1.4-0.5
		c-0.5-0.1-0.8-0.7-0.7-1.2c0.1-0.5,0.7-0.8,1.2-0.7c1.1,0.3,2.1,0.7,3.1,1.2c0.6-0.3,1.2-0.6,1.9-1c0.5-0.2,1-0.3,1.5-0.1
		c1.8-0.9,3.6-1.7,5.4-2.4c-2.8-1.3-5.6-2.5-8.6-3.4c-0.2,0-0.4,0.1-0.5,0.1c-12.1,3.3-23.3,9.7-32.2,18.7
		c-6.3,6.3-11.4,13.7-15.1,22c0,0,0,0,0,0.1c2.4,1.6,4.7,3.3,6.9,5.1C1031,45.6,1032.9,42.8,1034.9,40.2z"/>
	<path fill="#457393" d="M1022.3,61.8c-1.4-1.5-2.9-3-4.5-4.4c-1.6,7.6-1.7,15.2-0.6,22.3c0.7-5.2,2.2-11,4.6-16.9
		C1022,62.5,1022.2,62.1,1022.3,61.8z"/>
	<path fill="#457393" d="M1090.7,2c1.7-0.4,3.4-0.7,5.1-0.9c0.5,0.1,1.1,0.2,1.6,0.3c-3.6-0.7-7.3-1.1-11-1.1c-0.9,0-1.9,0-2.8,0.1
		c1.6,0.7,3.2,1.4,4.7,2.2C1089.1,2.4,1089.9,2.2,1090.7,2z"/>
	<path fill="#457393" d="M1081.6,7.2c-2.2,0.8-4.5,1.8-6.8,2.9c0,0.6-0.3,1.3-0.9,1.6c0.5,0.5,1.1,0.9,1.6,1.4c0.4,0.4,0.4,1,0,1.4
		c-0.2,0.2-0.4,0.3-0.7,0.3c-0.3,0-0.5-0.1-0.7-0.3c-0.6-0.7-1.3-1.3-2-1.8c-1.2,0.6-2.4,1.3-3.6,2c0.4,0.4,0.9,0.8,1.3,1.2
		c0.4,0.4,0.4,1-0.1,1.4c-0.2,0.2-0.4,0.3-0.7,0.3c-0.3,0-0.5-0.1-0.7-0.3c-0.5-0.5-1-1-1.6-1.5c-1,0.6-1.9,1.2-2.9,1.8
		c0.6,0.5,1.1,1,1.6,1.6c0.4,0.4,0.3,1-0.1,1.4c-0.2,0.2-0.4,0.3-0.7,0.3c-0.3,0-0.6-0.1-0.7-0.3c-0.6-0.6-1.2-1.2-1.8-1.7
		c-0.9,0.6-1.7,1.2-2.5,1.8c0.6,0.6,1.2,1.2,1.8,1.8c0.4,0.4,0.3,1.1-0.1,1.4c-0.2,0.2-0.4,0.2-0.7,0.2c-0.3,0-0.6-0.1-0.8-0.3
		c-0.6-0.7-1.3-1.3-2-1.9c-0.8,0.6-1.6,1.2-2.4,1.9c0.6,0.6,1.2,1.2,1.8,1.9c0.4,0.4,0.3,1.1-0.1,1.4c-0.2,0.2-0.4,0.2-0.6,0.2
		c-0.3,0-0.6-0.1-0.8-0.4c-0.6-0.7-1.2-1.3-1.8-1.9c-0.8,0.6-1.5,1.3-2.3,2c0.7,0.7,1.4,1.4,2,2.1c0.3,0.4,0.3,1.1-0.1,1.4
		c-0.2,0.2-0.4,0.2-0.6,0.2c-0.3,0-0.6-0.1-0.8-0.4c-0.6-0.7-1.2-1.4-1.9-2c-0.7,0.6-1.4,1.3-2,1.9c0.8,0.7,1.5,1.5,2.2,2.3
		c0.3,0.4,0.3,1.1-0.2,1.4c-0.2,0.1-0.4,0.2-0.6,0.2c-0.3,0-0.6-0.1-0.8-0.4c-0.6-0.8-1.3-1.5-2-2.1c-0.7,0.7-1.4,1.5-2.1,2.2
		c0.8,0.8,1.6,1.6,2.3,2.5c0.3,0.4,0.3,1.1-0.2,1.4c-0.2,0.1-0.4,0.2-0.6,0.2c-0.3,0-0.6-0.1-0.8-0.4c-0.6-0.8-1.3-1.5-2-2.2
		c-0.6,0.7-1.3,1.4-1.9,2.2c0.9,0.8,1.7,1.7,2.4,2.7c0.3,0.4,0.2,1.1-0.2,1.4c-0.2,0.1-0.4,0.2-0.6,0.2c-0.3,0-0.6-0.1-0.8-0.4
		c-0.6-0.8-1.3-1.6-2.1-2.3c-0.5,0.7-1.1,1.3-1.6,2c-0.4,0.5-1,0.8-1.6,0.8c-0.1,0-0.2,0-0.3,0c-2,2.7-3.9,5.4-5.5,8.2l0,0
		c1.1,1,2.2,2.1,3.3,3.1c3.6,3.6,6.8,7.6,9.6,11.8l49.3-49.3C1089.7,12.4,1085.8,9.6,1081.6,7.2L1081.6,7.2z"/>
	<path fill="#457393" d="M1101,2.4c0.6,0.3,1.1,0.6,1.7,0.9c-0.5-0.2-1.1-0.2-1.7-0.2c0,0-0.1,0-0.1,0c-3,0.1-6.2,0.5-9.5,1.2l0,0
		c0.6,0.4,1.3,0.8,1.9,1.2c0.4,0.3,0.8,0.5,1.1,0.8c0.2,0.2,0.5,0.3,0.7,0.5c0.4,0.3,0.7,0.5,1.1,0.8c0.2,0.2,0.5,0.4,0.7,0.5
		c0.5,0.4,1,0.8,1.5,1.2c0.1,0.1,0.1,0.1,0.2,0.2c0.2,0.1,0.3,0.3,0.5,0.4l5.3-5.3c0,0,0,0,0,0C1103.3,3.7,1102.2,2.9,1101,2.4z"/>
	<path fill="#0072BC" d="M1034.9,40.2c-2,2.7-3.9,5.4-5.7,8.3c0.6,0.5,1.2,1,1.8,1.5c0,0,0,0,0,0l0,0c1.7-2.8,3.5-5.5,5.5-8.2
		c-0.3-0.1-0.6-0.2-0.9-0.4C1035.2,41.1,1035,40.7,1034.9,40.2z"/>
	<path fill="#0072BC" d="M1090.7,2c-0.8,0.2-1.6,0.4-2.5,0.6c1,0.5,2,1.1,3,1.7c0,0,0,0,0,0l0,0l0,0c3.3-0.7,6.5-1.2,9.5-1.2
		c0,0,0.1,0,0.1,0c0.6,0,1.2,0.1,1.7,0.2c-0.5-0.4-1.1-0.7-1.7-0.9c0,0-0.1,0-0.1-0.1c-0.2-0.1-0.5-0.2-0.7-0.3
		c-0.1,0-0.1,0-0.2-0.1c-0.3-0.1-0.6-0.2-0.9-0.2c-0.5-0.1-1.1-0.2-1.6-0.3c0,0,0,0,0,0c-0.5-0.1-1-0.2-1.6-0.3
		C1094.2,1.3,1092.5,1.6,1090.7,2z"/>
	<path fill="#0072BC" d="M1074.6,9.2c0.1,0.3,0.2,0.6,0.2,0.9c2.3-1.1,4.5-2.1,6.8-2.9l0,0c0,0,0,0,0,0c-0.9-0.5-1.8-1-2.7-1.4
		c-1.8,0.7-3.6,1.5-5.4,2.4C1073.9,8.4,1074.4,8.7,1074.6,9.2z"/>
	<path fill="#0072BC" d="M1019.2,84.6c0.1-6.2,1.8-13.4,4.8-20.9c0,0,0,0,0,0c-0.6-0.6-1.2-1.3-1.7-1.9c-0.1,0.3-0.3,0.7-0.4,1
		c-2.4,5.9-4,11.6-4.6,16.9c0,0,0,0,0,0c0,0,0,0,0,0c0.1,0.5,0.2,1,0.3,1.5c0,0,0,0,0,0.1c0.1,0.5,0.2,1.1,0.3,1.6
		c0.1,0.3,0.2,0.6,0.2,0.9c0,0.1,0,0.1,0.1,0.2c0.1,0.2,0.2,0.5,0.3,0.7c0,0,0,0.1,0.1,0.1c0.3,0.6,0.6,1.1,0.9,1.7
		C1019.3,85.9,1019.2,85.3,1019.2,84.6z"/>
	<path fill="#CCE3F2" d="M1098.2,9.3c-0.5-0.4-1-0.8-1.5-1.2c-0.2-0.2-0.5-0.4-0.7-0.5c-0.4-0.3-0.7-0.5-1.1-0.8
		c-0.2-0.2-0.5-0.3-0.7-0.5c-0.4-0.3-0.7-0.5-1.1-0.8c-0.6-0.4-1.2-0.8-1.9-1.2c0,0,0,0,0,0c-1-0.6-2-1.1-3-1.7
		c-1.5-0.8-3.1-1.5-4.7-2.2c-0.2,0-0.5,0-0.7,0c-4.2,0.2-8.4,0.9-12.7,2c3,0.9,5.9,2,8.6,3.4c0.9,0.5,1.8,0.9,2.7,1.4c0,0,0,0,0,0
		c4.2,2.3,8.1,5.2,11.6,8.5l5.8-5.8c-0.2-0.1-0.3-0.3-0.5-0.4C1098.4,9.4,1098.3,9.4,1098.2,9.3z"/>
	<path fill="#CCE3F2" d="M1031,50C1031,50,1031,50,1031,50c-0.6-0.5-1.2-1-1.8-1.6c-2.2-1.8-4.5-3.6-6.9-5.1
		c-2,4.5-3.5,9.2-4.5,13.9c0,0.1,0,0.1,0,0.2c1.6,1.4,3.1,2.9,4.5,4.4c0.6,0.6,1.2,1.3,1.7,1.9c0,0,0,0,0,0
		c3.3,3.8,6.2,7.9,8.8,12.3l11-11c-2.8-4.3-6-8.2-9.6-11.8C1033.2,52.1,1032.1,51,1031,50z"/>
	<path fill="#FFFFFF" d="M1074.6,9.2c-0.3-0.5-0.7-0.9-1.2-1c-0.5-0.2-1-0.1-1.5,0.1c-0.6,0.3-1.2,0.6-1.9,1
		c1.4,0.7,2.7,1.5,3.9,2.5c0.6-0.4,0.9-1,0.9-1.6C1074.8,9.8,1074.8,9.5,1074.6,9.2z"/>
	<g>
		<path fill="#CCE3F2" d="M1036.9,41.9c-0.4,0-0.9-0.1-1.2-0.4c-0.9-0.7-1-1.9-0.4-2.8c2.8-3.7,5.9-7.2,9.1-10.4
			c8-8,17.6-14.9,27.5-19.9c1-0.5,2.2-0.1,2.7,0.9c0.5,1,0.1,2.2-0.9,2.7c-9.6,4.8-18.7,11.4-26.5,19.2c-3.1,3.1-6.1,6.5-8.8,10
			C1038.1,41.6,1037.5,41.9,1036.9,41.9z"/>
		<path fill="#CCE3F2" d="M1074.8,14.9c-0.3,0-0.5-0.1-0.7-0.3c-2.1-2.2-4.8-3.8-7.7-4.6c-0.5-0.1-0.8-0.7-0.7-1.2
			c0.1-0.5,0.7-0.8,1.2-0.7c3.3,0.9,6.2,2.7,8.6,5.1c0.4,0.4,0.4,1,0,1.4C1075.3,14.8,1075,14.9,1074.8,14.9z"/>
		<path fill="#CCE3F2" d="M1069,17.7c-0.3,0-0.5-0.1-0.7-0.3c-2.1-2.2-4.7-3.9-7.7-4.8c-0.5-0.2-0.8-0.7-0.7-1.3
			c0.2-0.5,0.7-0.8,1.3-0.7c3.3,1,6.2,2.8,8.6,5.3c0.4,0.4,0.4,1-0.1,1.4C1069.4,17.6,1069.2,17.7,1069,17.7z"/>
		<path fill="#CCE3F2" d="M1064.6,20.9c-0.3,0-0.6-0.1-0.7-0.3c-2.1-2.3-4.7-4-7.6-4.9c-0.5-0.2-0.8-0.7-0.7-1.3
			c0.2-0.5,0.7-0.8,1.3-0.7c3.3,1,6.2,2.9,8.5,5.5c0.4,0.4,0.3,1-0.1,1.4C1065.1,20.8,1064.8,20.9,1064.6,20.9z"/>
		<path fill="#CCE3F2" d="M1060.5,24.1c-0.3,0-0.6-0.1-0.8-0.3c-2-2.4-4.7-4.1-7.6-5.1c-0.5-0.2-0.8-0.7-0.6-1.3
			c0.2-0.5,0.7-0.8,1.3-0.6c3.3,1.1,6.2,3.1,8.5,5.7c0.4,0.4,0.3,1.1-0.1,1.4C1061,24,1060.8,24.1,1060.5,24.1z"/>
		<path fill="#CCE3F2" d="M1056.5,27.2c-0.3,0-0.6-0.1-0.8-0.4c-2-2.4-4.7-4.2-7.6-5.3c-0.5-0.2-0.8-0.8-0.6-1.3
			c0.2-0.5,0.8-0.8,1.3-0.6c3.3,1.2,6.2,3.2,8.5,5.9c0.4,0.4,0.3,1.1-0.1,1.4C1057,27.2,1056.7,27.2,1056.5,27.2z"/>
		<path fill="#CCE3F2" d="M1052.8,30.7c-0.3,0-0.6-0.1-0.8-0.4c-2-2.5-4.6-4.4-7.6-5.5c-0.5-0.2-0.8-0.8-0.6-1.3
			c0.2-0.5,0.8-0.8,1.3-0.6c3.3,1.2,6.2,3.3,8.5,6.1c0.3,0.4,0.3,1.1-0.1,1.4C1053.3,30.7,1053.1,30.7,1052.8,30.7z"/>
		<path fill="#CCE3F2" d="M1049.4,34.2c-0.3,0-0.6-0.1-0.8-0.4c-2-2.5-4.6-4.5-7.6-5.6c-0.5-0.2-0.8-0.8-0.6-1.3
			c0.2-0.5,0.8-0.8,1.3-0.6c3.3,1.3,6.2,3.5,8.4,6.3c0.3,0.4,0.3,1.1-0.2,1.4C1049.9,34.1,1049.7,34.2,1049.4,34.2z"/>
		<path fill="#CCE3F2" d="M1046,38c-0.3,0-0.6-0.1-0.8-0.4c-2-2.6-4.6-4.6-7.6-5.8c-0.5-0.2-0.8-0.8-0.6-1.3
			c0.2-0.5,0.8-0.8,1.3-0.6c3.3,1.3,6.2,3.6,8.4,6.4c0.3,0.4,0.3,1.1-0.2,1.4C1046.4,37.9,1046.2,38,1046,38z"/>
		<path fill="#CCE3F2" d="M1042.9,41.8c-0.3,0-0.6-0.1-0.8-0.4c-1.9-2.6-4.6-4.7-7.6-6c-0.5-0.2-0.7-0.8-0.5-1.3
			c0.2-0.5,0.8-0.7,1.3-0.5c3.3,1.4,6.2,3.7,8.4,6.6c0.3,0.4,0.2,1.1-0.2,1.4C1043.3,41.8,1043.1,41.8,1042.9,41.8z"/>
		<path fill="#CCE3F2" d="M1046.8,26c-0.7,0.6-1.3,1.2-1.9,1.9c1.2,0.7,2.3,1.5,3.3,2.4c0.7-0.7,1.3-1.3,2-1.9
			C1049.1,27.4,1048,26.6,1046.8,26z"/>
		<path fill="#CCE3F2" d="M1050.5,22.6c-0.7,0.6-1.4,1.3-2.1,1.9c1.2,0.7,2.3,1.5,3.3,2.4c0.7-0.7,1.5-1.3,2.3-2
			C1052.8,24.1,1051.7,23.3,1050.5,22.6z"/>
		<path fill="#CCE3F2" d="M1043.4,29.3c-0.7,0.7-1.4,1.4-2.1,2.2c1.1,0.7,2.2,1.5,3.2,2.5c0.7-0.8,1.4-1.5,2.1-2.2
			C1045.7,30.8,1044.6,30,1043.4,29.3z"/>
		<path fill="#CCE3F2" d="M1040,33c-0.6,0.7-1.2,1.4-1.8,2.1c1.1,0.7,2.2,1.5,3.2,2.5c0.6-0.7,1.2-1.5,1.9-2.2
			C1042.2,34.5,1041.1,33.7,1040,33z"/>
		<path fill="#CCE3F2" d="M1067.8,10.5c-1,0.6-2,1.1-3,1.7c1.3,0.7,2.5,1.6,3.6,2.5c1.2-0.7,2.4-1.3,3.6-2
			C1070.7,11.9,1069.3,11.1,1067.8,10.5z"/>
		<path fill="#CCE3F2" d="M1036.8,36.7c-0.5,0.7-1.1,1.3-1.6,2c-0.3,0.5-0.5,1-0.4,1.5c0.1,0.5,0.3,1,0.8,1.3
			c0.3,0.2,0.6,0.3,0.9,0.4c0.1,0,0.2,0,0.3,0c0.6,0,1.2-0.3,1.6-0.8c0.5-0.7,1-1.3,1.6-2C1039.1,38.2,1038,37.4,1036.8,36.7z"/>
		<path fill="#CCE3F2" d="M1062.8,13.5c-0.9,0.6-1.7,1.1-2.6,1.7c1.3,0.7,2.4,1.5,3.5,2.5c0.9-0.6,1.9-1.2,2.9-1.8
			C1065.5,14.9,1064.2,14.1,1062.8,13.5z"/>
		<path fill="#CCE3F2" d="M1054.3,19.5c-0.7,0.6-1.4,1.1-2.2,1.7c1.2,0.7,2.3,1.5,3.4,2.5c0.8-0.6,1.6-1.2,2.4-1.9
			C1056.7,20.9,1055.5,20.1,1054.3,19.5z"/>
		<path fill="#CCE3F2" d="M1058.4,16.5c-0.8,0.6-1.6,1.1-2.3,1.7c1.2,0.7,2.4,1.5,3.5,2.4c0.8-0.6,1.7-1.2,2.5-1.8
			C1060.9,17.9,1059.7,17.1,1058.4,16.5z"/>
		<path fill="#CCE3F2" d="M1070.1,9.3c-1-0.5-2.1-0.9-3.1-1.2c-0.5-0.1-1.1,0.2-1.2,0.7c-0.1,0.5,0.2,1.1,0.7,1.2
			c0.5,0.1,1,0.3,1.4,0.5c1.5,0.6,2.9,1.3,4.2,2.3c0.7,0.5,1.4,1.1,2,1.8c0.2,0.2,0.5,0.3,0.7,0.3c0.3,0,0.5-0.1,0.7-0.3
			c0.4-0.4,0.4-1,0-1.4c-0.5-0.5-1-1-1.6-1.4C1072.7,10.8,1071.4,10,1070.1,9.3z"/>
		<path fill="#CCE3F2" d="M1064.8,12.2c-1.2-0.6-2.4-1.2-3.7-1.5c-0.5-0.2-1.1,0.1-1.3,0.7c-0.2,0.5,0.1,1.1,0.7,1.3
			c0.8,0.2,1.5,0.5,2.3,0.9c1.4,0.6,2.6,1.4,3.8,2.4c0.6,0.5,1.1,1,1.6,1.5c0.2,0.2,0.5,0.3,0.7,0.3c0.2,0,0.5-0.1,0.7-0.3
			c0.4-0.4,0.4-1,0.1-1.4c-0.4-0.4-0.8-0.8-1.3-1.2C1067.3,13.8,1066.1,12.9,1064.8,12.2z"/>
		<path fill="#CCE3F2" d="M1060.2,15.2c-1.1-0.6-2.2-1.1-3.4-1.5c-0.5-0.2-1.1,0.1-1.3,0.7c-0.2,0.5,0.1,1.1,0.7,1.3
			c0.7,0.2,1.5,0.5,2.2,0.8c1.3,0.6,2.5,1.4,3.7,2.3c0.6,0.5,1.3,1.1,1.8,1.7c0.2,0.2,0.5,0.3,0.7,0.3c0.2,0,0.5-0.1,0.7-0.3
			c0.4-0.4,0.4-1,0.1-1.4c-0.5-0.6-1-1.1-1.6-1.6C1062.7,16.7,1061.5,15.9,1060.2,15.2z"/>
		<path fill="#CCE3F2" d="M1056,18.2c-1-0.6-2.1-1.1-3.2-1.4c-0.5-0.2-1.1,0.1-1.3,0.6c-0.2,0.5,0.1,1.1,0.6,1.3
			c0.7,0.2,1.4,0.5,2.1,0.9c1.3,0.6,2.5,1.4,3.6,2.3c0.7,0.6,1.4,1.2,2,1.9c0.2,0.2,0.5,0.3,0.8,0.3c0.2,0,0.5-0.1,0.7-0.2
			c0.4-0.4,0.5-1,0.1-1.4c-0.6-0.7-1.2-1.3-1.8-1.8C1058.4,19.7,1057.3,18.9,1056,18.2z"/>
		<path fill="#CCE3F2" d="M1052.1,21.3c-1.1-0.6-2.2-1.1-3.3-1.5c-0.5-0.2-1.1,0.1-1.3,0.6c-0.2,0.5,0.1,1.1,0.6,1.3
			c0.8,0.3,1.6,0.6,2.3,1c1.2,0.6,2.4,1.4,3.4,2.4c0.7,0.6,1.3,1.2,1.8,1.9c0.2,0.2,0.5,0.4,0.8,0.4c0.2,0,0.5-0.1,0.6-0.2
			c0.4-0.4,0.5-1,0.1-1.4c-0.6-0.7-1.2-1.3-1.8-1.9C1054.4,22.8,1053.3,21.9,1052.1,21.3z"/>
		<path fill="#CCE3F2" d="M1048.3,24.5c-1-0.6-2.1-1.1-3.2-1.5c-0.5-0.2-1.1,0.1-1.3,0.6c-0.2,0.5,0.1,1.1,0.6,1.3
			c0.8,0.3,1.6,0.7,2.3,1.1c1.2,0.7,2.3,1.5,3.3,2.4c0.7,0.6,1.4,1.3,1.9,2c0.2,0.2,0.5,0.4,0.8,0.4c0.2,0,0.4-0.1,0.6-0.2
			c0.4-0.3,0.5-1,0.1-1.4c-0.6-0.8-1.3-1.5-2-2.1C1050.6,26,1049.5,25.2,1048.3,24.5z"/>
		<path fill="#CCE3F2" d="M1044.8,27.8c-1-0.6-2-1.1-3-1.5c-0.5-0.2-1.1,0.1-1.3,0.6c-0.2,0.5,0.1,1.1,0.6,1.3
			c0.8,0.3,1.6,0.7,2.3,1.1c1.2,0.7,2.3,1.5,3.3,2.4c0.7,0.7,1.4,1.4,2,2.1c0.2,0.3,0.5,0.4,0.8,0.4c0.2,0,0.4-0.1,0.6-0.2
			c0.4-0.3,0.5-1,0.2-1.4c-0.7-0.8-1.4-1.6-2.2-2.3C1047.1,29.3,1046,28.5,1044.8,27.8z"/>
		<path fill="#CCE3F2" d="M1041.3,31.5c-0.9-0.6-1.9-1.1-3-1.5c-0.5-0.2-1.1,0-1.3,0.6c-0.2,0.5,0,1.1,0.6,1.3
			c0.8,0.3,1.6,0.7,2.3,1.2c1.2,0.7,2.2,1.5,3.2,2.4c0.7,0.7,1.4,1.4,2,2.2c0.2,0.3,0.5,0.4,0.8,0.4c0.2,0,0.4-0.1,0.6-0.2
			c0.4-0.3,0.5-1,0.2-1.4c-0.7-0.9-1.4-1.7-2.3-2.5C1043.6,33,1042.5,32.2,1041.3,31.5z"/>
		<path fill="#CCE3F2" d="M1038.1,35.1c-0.9-0.6-1.8-1.1-2.8-1.5c-0.5-0.2-1.1,0-1.3,0.5c-0.2,0.5,0,1.1,0.5,1.3
			c0.8,0.3,1.6,0.7,2.3,1.2c1.1,0.7,2.2,1.5,3.2,2.5c0.7,0.7,1.4,1.5,2.1,2.3c0.2,0.3,0.5,0.4,0.8,0.4c0.2,0,0.4-0.1,0.6-0.2
			c0.4-0.3,0.5-1,0.2-1.4c-0.7-1-1.5-1.9-2.4-2.7C1040.3,36.6,1039.3,35.8,1038.1,35.1z"/>
	</g>
</g>
<g>
	<path fill="#414042" d="M1192.4,37.7c-2.1,0-3.8,3.9-3.8,8.7c0,4.8,1.7,8.7,3.8,8.7l0,0h8.9V37.7H1192.4z"/>
	<ellipse fill="#05838D" cx="1212.6" cy="46.5" rx="15.3" ry="35.5"/>
	<ellipse fill="#4C9CD0" cx="1226.7" cy="46.5" rx="22.3" ry="46.4"/>
	<ellipse fill="#0072BC" cx="1234.7" cy="46.5" rx="14.2" ry="38.5"/>
	<path fill="#175079" d="M1235.8,37.7c-2.1,0-3.8,3.9-3.8,8.7c0,4.8,1.7,8.7,3.8,8.7l0,0h38.5V37.7H1235.8z"/>
	<ellipse fill="#4C9CD0" cx="1286.3" cy="46.5" rx="22.3" ry="46.4"/>
	<ellipse fill="#0072BC" cx="1294.3" cy="46.5" rx="14.2" ry="38.5"/>
	<ellipse fill="#4C9CD0" cx="1302.7" cy="46.5" rx="15.3" ry="35.5"/>
	<ellipse fill="#0072BC" cx="1308.2" cy="46.5" rx="9.8" ry="29.5"/>
	<ellipse fill="#457393" cx="1322.6" cy="46.5" rx="3.8" ry="8.7"/>
	<path fill="#175079" d="M1318.8,46.5c0-4.8,1.7-8.7,3.8-8.7h-14.1c-2.1,0-3.8,3.9-3.8,8.7c0,4.8,1.7,8.7,3.8,8.7l0,0h14.1l0,0
		C1320.5,55.2,1318.8,51.3,1318.8,46.5z"/>
	<path fill="#457393" d="M1197.8,37.7h-5.4c-2.1,0-3.8,3.9-3.8,8.7c0,4.8,1.7,8.7,3.8,8.7l0,0h5.4c-0.3-2.8-0.5-5.7-0.5-8.7
		C1197.3,43.4,1197.5,40.5,1197.8,37.7z"/>
	<path fill="#0072BC" d="M1212.3,11c-7,0.3-12.9,11.6-14.5,26.8c-0.3,2.8-0.5,5.7-0.5,8.7c0,3,0.2,5.9,0.5,8.7
		c1.7,15.2,7.5,26.4,14.5,26.8c-4.9-8.5-7.9-21.3-7.9-35.5C1204.4,32.2,1207.5,19.5,1212.3,11z"/>
	<path fill="#66AAD7" d="M1220.5,46.5c0-21.3,6.4-38.5,14.2-38.5c3.5,0,6.7,3.5,9.2,9.2c-4.1-10.4-10.3-17.1-17.3-17.1
		c-5.5,0-10.5,4.1-14.3,10.9c-4.9,8.5-7.9,21.2-7.9,35.5c0,14.2,3.1,27,7.9,35.5c1.2,2.1,2.5,3.9,3.9,5.5l10-10
		C1222.8,70.4,1220.5,59.1,1220.5,46.5z"/>
	<path fill="#338DC9" d="M1235.8,55.2c-2.1,0-3.8-3.9-3.8-8.7c0-4.8,1.7-8.7,3.8-8.7h12.8c-0.7-8.2-2.4-15.3-4.6-20.6
		c-2.5-5.7-5.7-9.2-9.2-9.2c-7.9,0-14.2,17.2-14.2,38.5c0,12.7,2.3,23.9,5.8,30.9l22.2-22.2H1235.8L1235.8,55.2z"/>
	<path fill="#457393" d="M1248.6,37.7h-12.8c-2.1,0-3.8,3.9-3.8,8.7c0,4.8,1.7,8.7,3.8,8.7l0,0h12.7l15.8-15.8
		c0-0.6,0.1-1.1,0.1-1.7H1248.6z"/>
	<path fill="#66AAD7" d="M1286.3,0.1c-10.9,0-19.9,16.2-21.9,37.7c-0.1,0.6-0.1,1.1-0.1,1.7l19.9-19.9c2.6-7.1,6.2-11.5,10.1-11.5
		c0.4,0,0.8,0.1,1.2,0.2l1.9-1.9C1294.1,2.3,1290.3,0.1,1286.3,0.1z"/>
	<path fill="#338DC9" d="M1284.2,19.5l11.4-11.4c-0.4-0.1-0.8-0.2-1.2-0.2C1290.3,8,1286.8,12.4,1284.2,19.5z"/>
</g>
<g>
	<path fill="#2E6186" d="M745,51.1c-17,7-35.3,9.9-53.3,8.6v32.8c18,1.3,36.3-1.5,53.3-8.6c-3-4.2-6.1-8.6-9.2-13
		C738.9,64.4,742,57.8,745,51.1z"/>
	<path fill="#175079" d="M704.4,55.3c-7.5,3.1-12.7,4.4-12.7,4.4v32.8c0,0,5.2-0.7,13.6-4.5c8.4-3.7,11.8-7.1,11.8-7.1V48.1
		C717.2,48.1,712.1,52.2,704.4,55.3z"/>
	<path fill="#2E6186" d="M600,51.1c17,7,35.3,9.9,53.3,8.6v32.8c-18,1.3-36.3-1.5-53.3-8.6c3-4.2,6.1-8.6,9.2-13
		C606.1,64.4,603,57.8,600,51.1z"/>
	<path fill="#175079" d="M640.6,55.3c7.5,3.1,12.7,4.4,12.7,4.4v32.8c0,0-5.2-0.7-13.6-4.5c-8.4-3.7-11.8-7.1-11.8-7.1V48.1
		C627.8,48.1,632.9,52.2,640.6,55.3z"/>
	<g>
		<polygon fill="#0072BC" points="672.9,4.2 677.5,0 681.2,5 686.6,1.9 689.1,7.6 695,5.7 696.3,11.8 702.6,11.1 702.5,17.4 
			708.8,18 707.4,24.1 713.4,26 710.8,31.7 716.3,34.9 712.6,39.9 717.2,44.1 712.6,48.3 716.3,53.3 710.8,56.4 713.4,62.1 
			707.4,64 708.8,70.2 702.5,70.8 702.6,77.1 696.3,76.4 695,82.5 689.1,80.6 686.6,86.3 681.2,83.1 677.5,88.2 672.9,84 
			668.2,88.2 664.6,83.1 659.2,86.3 656.6,80.6 650.7,82.5 649.4,76.4 643.2,77.1 643.2,70.8 637,70.2 638.3,64 632.3,62.1 
			634.9,56.4 629.5,53.3 633.2,48.3 628.5,44.1 633.2,39.9 629.5,34.9 634.9,31.7 632.3,26 638.3,24.1 637,18 643.2,17.4 
			643.2,11.1 649.4,11.8 650.7,5.7 656.6,7.6 659.2,1.9 664.6,5 668.2,0 		"/>
		<circle fill="#175079" cx="672.9" cy="44.1" r="36.5"/>
		<circle fill="#80B8DD" cx="672.9" cy="44.1" r="30.8"/>
		<path fill="#338EC9" d="M696.3,11.8L695,5.7l-5.9,1.9l-2.5-5.7L681.2,5L677.5,0l-4.6,4.2L668.2,0L664.6,5l-5.4-3.1l-2.5,5.7
			l-5.9-1.9l-1.3,6.1l-6.2-0.7l0,6.3L637,18l1.3,6.1l-6,1.9l2.6,5.7l-5.4,3.1l3.7,5l-4.7,4.2l4.7,4.2l-3.7,5.1l5.4,3.1l-2.6,5.7
			l6,1.9l-1.3,6.1l6.2,0.6l0,2.1l3.5-3.5c-6.4-6.6-10.3-15.5-10.3-25.4c0-20.2,16.3-36.5,36.5-36.5c9.9,0,18.8,3.9,25.4,10.3
			l4.3-4.3l0-2.4L696.3,11.8z"/>
		<path fill="#396A8D" d="M636.4,44.1c0,9.9,3.9,18.8,10.3,25.4l4-4c-5.3-5.5-8.6-13-8.6-21.3c0-17,13.8-30.8,30.8-30.8
			c8.3,0,15.8,3.3,21.3,8.6l4-4c-6.6-6.4-15.5-10.3-25.4-10.3C652.7,7.6,636.4,23.9,636.4,44.1z"/>
		<path fill="#B2D5EB" d="M672.9,13.3c-17,0-30.8,13.8-30.8,30.8c0,8.3,3.3,15.8,8.6,21.3l43.5-43.5
			C688.7,16.6,681.1,13.3,672.9,13.3z"/>
		<circle fill="#99C6E4" cx="672.9" cy="44" r="30.7"/>
		<path fill="#2E6186" d="M672.9,72.3c-15.6,0-28.2-12.7-28.2-28.2c0-15.6,12.7-28.2,28.2-28.2c15.6,0,28.2,12.7,28.2,28.2
			C701.1,59.6,688.4,72.3,672.9,72.3z"/>
		<g>
			<path fill="#CCE3F2" d="M674.3,66.9c-0.2-0.1-0.4-0.2-0.6-0.3c-0.1,0-0.2-0.1-0.3-0.1c-0.1,0-0.2-0.1-0.3-0.1
				c-0.4-0.2-0.9-0.3-1.3-0.4c-0.4-0.1-0.8-0.2-1.2-0.3l0,0c0,0,0,0,0,0c-0.3-0.1-0.7-0.2-1-0.2c-0.5-1.4-1-3.4-1.8-4.3
				c-1-1-2.7-1.7-4.1-2.1c0.4,1.3,1.3,3.3,2.3,4.2c0.7,0.6,1.7,1.2,2.7,1.8c-1.2-0.2-4-1-4.8-1.4c-0.1-1.5,0-3.5-0.6-4.6
				c-0.7-1.2-2.1-2.4-3.4-3.1c0,1.3,0.3,3.5,1,4.7c0.5,0.8,1.3,1.7,2.1,2.5c-0.7-0.4-3.1-2.1-4.8-3.6c0.4-1.5,1.1-3.3,0.9-4.4
				c-0.3-1.4-1.2-3-2.2-4c-0.4,1.3-0.8,3.4-0.5,4.8c0.2,0.9,0.7,2,1.2,3c-0.8-0.9-2.7-3.1-3.1-3.9c0.8-1.3,2-2.9,2.1-4.1
				c0.1-1.4-0.4-3.2-1-4.5c-0.8,1.1-1.7,3-1.8,4.4c-0.1,0.9,0.2,2.1,0.3,3.2c-0.3-0.8-1.4-3.6-2-5.8c1.1-1.1,2.8-2.3,3.2-3.4
				c0.5-1.3,0.5-3.2,0.2-4.6c-1,0.9-2.5,2.5-2.9,3.8c-0.3,0.9-0.4,2.1-0.6,3.2c-0.3-1.2-0.4-2.4-0.5-3.6c-0.1-0.9,0-1.8,0-2.7
				c1.4-0.7,3.2-1.5,3.9-2.4c0.8-1.1,1.3-2.9,1.4-4.4c-1.2,0.5-3,1.7-3.9,2.8c-0.5,0.7-1,1.9-1.4,2.9c0.1-0.9,0.3-1.8,0.5-2.7
				c0.1-0.3,0.1-0.5,0.2-0.8c0.1-0.3,0.2-0.5,0.3-0.8c0.2-0.5,0.4-1,0.6-1.5c0.1-0.3,0.3-0.5,0.4-0.8c1.5-0.2,3.5-0.2,4.5-0.8
				c1.2-0.8,2.3-2.2,2.9-3.6c-1.3,0.1-3.5,0.5-4.6,1.2c-0.7,0.4-1.5,1.3-2.2,2c0.2-0.3,0.4-0.6,0.6-0.9c1-1.4,2.1-2.6,3.3-3.7
				c1.5,0.1,3.6,0.6,4.7,0.1c1.2-0.5,2.6-1.6,3.5-2.8c-1.3-0.2-3.3-0.2-4.6,0.3c-0.9,0.4-2.1,1.2-3.1,1.9c0.2-0.2,0.4-0.3,0.6-0.5
				c1.5-1.3,3.1-2.4,4.8-3.5c1.1,0.3,2.4,0.3,3.5-0.3c1.2-0.6,2.1-1.6,2.8-2.9c-1.3-0.2-2.8-0.2-4,0.4c-1.1,0.6-2,1.5-2.4,2.6
				c-0.8,0.4-1.6,0.9-2.3,1.3c-0.5,0.3-1.1,0.7-1.6,1.1c0.8-0.8,1.8-1.6,2.3-2.3c0.8-1.1,1.2-3.1,1.3-4.4c-1.3,0.6-2.7,1.6-3.5,2.7
				c-0.7,1-0.7,3.2-1,4.7c-0.1,0.1-0.2,0.2-0.3,0.2c-1.3,1.1-2.6,2.3-3.7,3.6c0.7-1.1,1.7-2.4,2.2-3.5c0.5-1.3,0.5-3.5,0.3-4.8
				c-1.2,0.9-2.4,2.3-2.9,3.6c-0.5,1.2,0,3.5,0.1,5.1c-0.2,0.3-0.4,0.5-0.6,0.8c-0.6,0.8-1.1,1.7-1.6,2.5c0.3-0.8,0.5-1.7,0.5-2.4
				c0.1-1.4-0.6-3.6-1.2-4.8c-0.9,1.2-1.7,3-1.7,4.4c-0.1,1.3,1,3.1,1.6,4.6c0,0,0,0,0,0c-0.1,0.3-0.2,0.5-0.3,0.8
				c-0.1,0.3-0.2,0.5-0.2,0.8c-0.2,0.8-0.4,1.7-0.6,2.6c0-1,0-2-0.2-2.8c-0.3-1.4-1.6-3.4-2.6-4.4c-0.5,1.5-0.7,3.5-0.4,4.9
				c0.3,1.3,1.9,2.9,3,4.2c0,0.7-0.1,1.5,0,2.2c0,0.7,0.1,1.4,0.2,2c-0.3-1-0.7-2-1.1-2.7c-0.8-1.3-2.6-2.6-3.9-3.3
				c0,1.6,0.4,3.5,1.2,4.8c0.7,1.1,2.7,2,4.1,2.9c0.1,0.5,0.3,1.3,0.4,1.8l0,0c0.2,0.9,0.6,2.2,1.2,3.7c-0.5-0.8-1-1.7-1.6-2.3
				c-1-1.1-3.1-2-4.5-2.4c0.3,1.5,1.2,3.3,2.2,4.4c0.9,1,3.2,1.4,4.7,2c0.3,0.7,0.7,1.3,1.1,1.9c0.4,0.6,0.8,1.1,1.2,1.6
				c-0.8-0.7-1.6-1.4-2.3-1.7c-1.3-0.7-3.6-0.9-5-0.8c0.8,1.3,2.2,2.8,3.5,3.5c1.2,0.6,3.4,0.4,5,0.4c0.5,0.3,0.9,0.8,1.4,1.1l0,0
				c0.7,0.6,1.7,1.4,3.1,2.3c-0.9-0.4-1.8-0.8-2.6-1c-1.5-0.3-3.7,0.1-5.1,0.6c1.2,1.1,2.9,2.1,4.3,2.4c1.3,0.3,3.4-0.6,5-1
				c0.6,0.3,1.3,0.7,2,0.9c0.6,0.3,1.3,0.5,1.9,0.7c-1-0.1-2.1-0.2-2.9-0.1c-1.5,0.2-3.5,1.3-4.6,2.2c1.4,0.6,3.4,1.1,4.9,0.9
				c1.3-0.2,3-1.6,4.3-2.5c0.1,0,0.1,0,0.2,0c0.1,0,0.2,0.1,0.3,0.1c0.9,0.2,1.8,0.4,2.6,0.7c0.4,0.1,0.9,0.2,1.3,0.4
				c0.1,0,0.2,0.1,0.3,0.1c0.1,0,0.2,0.1,0.3,0.1c0.2,0.1,0.4,0.2,0.6,0.3c0.8,0.4,1.5,0.9,2.1,1.5c0,0,0.1,0.1,0.1,0.1l0.1-1.3
				C675.6,67.7,675,67.3,674.3,66.9z"/>
			<path fill="#B2D5EB" d="M671.4,66.9c0.2-0.1,0.4-0.2,0.6-0.3c0.1,0,0.2-0.1,0.3-0.1c0.1,0,0.2-0.1,0.3-0.1
				c0.4-0.2,0.9-0.3,1.3-0.4c0.4-0.1,0.8-0.2,1.2-0.3l0,0c0,0,0,0,0,0c0.3-0.1,0.7-0.2,1-0.2c0.5-1.4,1-3.4,1.8-4.3
				c1-1,2.7-1.7,4.1-2.1c-0.4,1.3-1.3,3.3-2.3,4.2c-0.7,0.6-1.7,1.2-2.7,1.8c1.2-0.2,4-1,4.8-1.4c0.1-1.5,0-3.5,0.6-4.6
				c0.7-1.2,2.1-2.4,3.4-3.1c0,1.3-0.3,3.5-1,4.7c-0.5,0.8-1.3,1.7-2.1,2.5c0.7-0.4,3.1-2.1,4.8-3.6c-0.4-1.5-1.1-3.3-0.9-4.4
				c0.3-1.4,1.2-3,2.2-4c0.4,1.3,0.8,3.4,0.5,4.8c-0.2,0.9-0.7,2-1.2,3c0.8-0.9,2.7-3.1,3.1-3.9c-0.8-1.3-2-2.9-2.1-4.1
				c-0.1-1.4,0.4-3.2,1-4.5c0.8,1.1,1.7,3,1.8,4.4c0.1,0.9-0.2,2.1-0.3,3.2c0.3-0.8,1.4-3.6,2-5.8c-1.1-1.1-2.8-2.3-3.2-3.4
				c-0.5-1.3-0.5-3.2-0.2-4.6c1,0.9,2.5,2.5,2.9,3.8c0.3,0.9,0.4,2.1,0.6,3.2c0.3-1.2,0.4-2.4,0.5-3.6c0-0.9,0-1.8,0-2.7
				c-1.4-0.7-3.2-1.5-3.9-2.4c-0.8-1.1-1.3-2.9-1.4-4.4c1.2,0.5,3,1.7,3.9,2.8c0.5,0.7,1,1.9,1.4,2.9c-0.1-0.9-0.3-1.8-0.5-2.7
				c-0.1-0.3-0.1-0.5-0.2-0.8c-0.1-0.3-0.2-0.5-0.3-0.8c-0.2-0.5-0.4-1-0.6-1.5c-0.1-0.3-0.3-0.5-0.4-0.8c-1.5-0.2-3.5-0.2-4.5-0.8
				c-1.2-0.8-2.3-2.2-2.9-3.6c1.3,0.1,3.5,0.5,4.6,1.2c0.7,0.4,1.5,1.3,2.2,2c-0.2-0.3-0.4-0.6-0.6-0.9c-1-1.4-2.1-2.6-3.3-3.7
				c-1.5,0.1-3.6,0.6-4.7,0.1c-1.2-0.5-2.6-1.6-3.5-2.8c1.3-0.2,3.3-0.2,4.6,0.3c0.9,0.4,2.1,1.2,3.1,1.9c-0.2-0.2-0.4-0.3-0.6-0.5
				c-1.5-1.3-3.1-2.4-4.8-3.5c-1.1,0.3-2.4,0.3-3.5-0.3c-1.2-0.6-2.1-1.6-2.8-2.9c1.3-0.2,2.8-0.2,4,0.4c1.1,0.6,2,1.5,2.4,2.6
				c0.8,0.4,1.6,0.9,2.3,1.3c0.5,0.3,1.1,0.7,1.6,1.1c-0.8-0.8-1.8-1.6-2.3-2.3c-0.8-1.1-1.2-3.1-1.3-4.4c1.3,0.6,2.7,1.6,3.5,2.7
				c0.7,1,0.7,3.2,1,4.7c0.1,0.1,0.2,0.2,0.3,0.2c1.3,1.1,2.6,2.3,3.7,3.6c-0.7-1.1-1.7-2.4-2.2-3.5c-0.5-1.3-0.5-3.5-0.3-4.8
				c1.2,0.9,2.4,2.3,2.9,3.6c0.5,1.2,0,3.5-0.1,5.1c0.2,0.3,0.4,0.5,0.6,0.8c0.6,0.8,1.1,1.7,1.6,2.5c-0.3-0.8-0.5-1.7-0.5-2.4
				c-0.1-1.4,0.6-3.6,1.2-4.8c0.9,1.2,1.7,3,1.7,4.4c0.1,1.3-1,3.1-1.6,4.6c0,0,0,0,0,0c0.1,0.3,0.2,0.5,0.3,0.8
				c0.1,0.3,0.2,0.5,0.2,0.8c0.2,0.8,0.4,1.7,0.6,2.6c0-1,0-2,0.2-2.8c0.3-1.4,1.6-3.4,2.6-4.4c0.5,1.5,0.7,3.5,0.4,4.9
				c-0.3,1.3-1.9,2.9-3,4.2c0,0.7,0.1,1.5,0,2.2c0,0.7-0.1,1.4-0.2,2c0.3-1,0.7-2,1.1-2.7c0.8-1.3,2.6-2.6,3.9-3.3
				c0,1.6-0.4,3.5-1.2,4.8c-0.7,1.1-2.7,2-4.1,2.9c-0.1,0.5-0.3,1.3-0.4,1.8l0,0c-0.2,0.9-0.6,2.2-1.2,3.7c0.5-0.8,1-1.7,1.6-2.3
				c1-1.1,3.1-2,4.5-2.4c-0.3,1.5-1.2,3.3-2.2,4.4c-0.9,1-3.2,1.4-4.7,2c-0.3,0.7-0.7,1.3-1.1,1.9c-0.4,0.6-0.8,1.1-1.2,1.6
				c0.8-0.7,1.6-1.4,2.3-1.7c1.3-0.7,3.6-0.9,5-0.8c-0.8,1.3-2.2,2.8-3.5,3.5c-1.2,0.6-3.3,0.4-5,0.4c-0.5,0.3-0.9,0.8-1.4,1.1l0,0
				c-0.7,0.6-1.7,1.4-3.1,2.3c0.9-0.4,1.8-0.8,2.6-1c1.5-0.3,3.7,0.1,5.1,0.6c-1.2,1.1-2.9,2.1-4.3,2.4c-1.3,0.3-3.4-0.6-5-1
				c-0.6,0.3-1.3,0.7-2,0.9c-0.6,0.3-1.3,0.5-1.9,0.7c1-0.1,2.1-0.2,2.9-0.1c1.5,0.2,3.5,1.3,4.6,2.2c-1.4,0.6-3.4,1.1-4.9,0.9
				c-1.3-0.2-3-1.6-4.3-2.5c-0.1,0-0.1,0-0.2,0c-0.1,0-0.2,0.1-0.3,0.1c-0.9,0.2-1.8,0.4-2.6,0.7c-0.4,0.1-0.9,0.2-1.3,0.4
				c-0.1,0-0.2,0.1-0.3,0.1c-0.1,0-0.2,0.1-0.3,0.1c-0.2,0.1-0.4,0.2-0.6,0.3c-0.8,0.4-1.5,0.9-2.1,1.5c0,0-0.1,0.1-0.1,0.1
				l-0.1-1.3C670.1,67.7,670.8,67.3,671.4,66.9z"/>
		</g>
		<g>
			<path fill="#4C9CD0" d="M672.9,59.3c-8.9,0-16.2-7.2-16.2-16.1c0-8.9,7.2-16.1,16.2-16.1c8.9,0,16.1,7.2,16.1,16.1
				C689,52.1,681.8,59.3,672.9,59.3z"/>
			<path fill="#66AAD7" d="M661.4,31.7c-6.3,6.3-6.3,16.5,0,22.8l22.8-22.8C678,25.5,667.7,25.5,661.4,31.7z"/>
		</g>
	</g>
	<path fill="#2E6186" d="M672.5,39.3c-15.2,0-30.4,3-44.7,8.9V81c14.3-5.9,29.5-8.9,44.7-8.9c15.2,0,30.4,3,44.7,8.9V48.1
		C702.9,42.2,687.7,39.3,672.5,39.3z"/>
	<path fill="#517B9A" d="M672.5,39.3c-15.2,0-30.4,3-44.7,8.9V81c7.7-3.2,15.7-5.5,23.8-7l34-33.9C681.2,39.5,676.9,39.3,672.5,39.3
		z"/>
</g>
</svg>
