<?xml version="1.0" encoding="utf-8"?>
<!-- Generator: Adobe Illustrator 18.1.1, SVG Export Plug-In . SVG Version: 6.00 Build 0)  -->
<svg version="1.1" id="Layer_1" xmlns="http://www.w3.org/2000/svg" xmlns:xlink="http://www.w3.org/1999/xlink" x="0px" y="0px"
	 viewBox="0 0 175 95.6" enable-background="new 0 0 175 95.6" xml:space="preserve">
<g>
	<path fill="#0071BB" d="M-140.6,82.6c-5.9,0-12.4-10.5-14.5-25.7c-0.5-3.3-0.7-6.8-0.7-10.5c0-3.7,0.3-7.2,0.7-10.5
		c2.1-15.2,8.6-25.7,14.5-25.7c4.9,0,10.1,7.1,13,18.1h10.5c-1.1-4.9-2.6-9.4-4.6-13.4C-126.4,5.3-133.1,0-140.6,0h-16.8
		c-7.5,0-14.2,5.3-18.9,14.9c-2.8,5.7-4.8,12.7-5.8,20.3h-6.3c-3.7,0-6.6,5-6.6,11.1s3,11.1,6.6,11.1h6.3c1,7.6,2.9,14.6,5.8,20.3
		c4.7,9.6,11.5,14.9,18.9,14.9h16.8c7.5,0,14.2-5.3,18.9-14.9c1.9-3.9,3.5-8.5,4.6-13.4h-10.5C-130.5,75.5-135.7,82.6-140.6,82.6"/>
	<path fill="#0071BB" d="M-57.4,82.6c-6.2,0-13-11.4-14.8-27.8c-0.3-2.7-0.4-5.5-0.4-8.4c0-2.9,0.2-5.7,0.4-8.4
		c1.8-16.4,8.6-27.8,14.8-27.8c4.9,0,10.1,7.1,13,18.1h10.5c-1.1-4.9-2.6-9.4-4.6-13.4C-43.2,5.3-49.9,0-57.4,0h-16.8
		c-7.5,0-14.2,5.3-18.9,14.9c-1.9,3.9-3.5,8.5-4.6,13.4c-0.5,2.2-0.9,4.6-1.2,6.9h-35.8c-3.7,0-6.6,5-6.6,11.1s3,11.1,6.6,11.1h35.8
		c0.3,2.4,0.7,4.7,1.2,6.9c1.1,4.9,2.6,9.4,4.6,13.4c4.7,9.6,11.5,14.9,18.9,14.9h16.8c7.5,0,14.2-5.3,18.9-14.9
		c1.9-3.9,3.5-8.5,4.6-13.4h-10.5C-47.3,75.5-52.5,82.6-57.4,82.6"/>
	<path fill="#0071BB" d="M-26.6,35.2h-23.8c-3.7,0-6.6,5-6.6,11.1c0,6.1,3,11.1,6.6,11.1h23.8c3.7,0,6.6-5,6.6-11.1
		C-20,40.2-23,35.2-26.6,35.2"/>
</g>
<g>
	<path fill="#0071BB" d="M-258.7,2.5c-9.4-2.6-19.3-3.2-28.9-1.9l30.7,30.7C-255.5,21.8-256.1,12-258.7,2.5"/>
	<path fill="#0071BB" d="M-293,25.9c0.7-0.7,1.8-0.7,2.4,0l8.5,8.5c0.7,0.7,0.7,1.8,0,2.4c-0.7,0.7-1.8,0.7-2.4,0l-3.2-3.2l-5.1,5.1
		l3.2,3.2c0.7,0.7,0.7,1.8,0,2.4c-0.7,0.7-1.8,0.7-2.4,0l-3.2-3.2l-5.1,5.1l3.2,3.2c0.7,0.7,0.7,1.8,0,2.4c-0.7,0.7-1.8,0.7-2.4,0
		l-3.2-3.2l-5.1,5.1l3.2,3.2c0.7,0.7,0.7,1.8,0,2.4c-0.7,0.7-1.8,0.7-2.4,0l-3.2-3.2l-5.1,5.1l3.2,3.2c0.7,0.7,0.7,1.8,0,2.4
		c-0.7,0.7-1.8,0.7-2.4,0l-8.5-8.5c-0.7-0.7-0.7-1.8,0-2.4c0.7-0.7,1.8-0.7,2.4,0l3.2,3.2l5.1-5.1l-3.2-3.2c-0.7-0.7-0.7-1.8,0-2.4
		c0.7-0.7,1.8-0.7,2.4,0l3.2,3.2l5.1-5.1l-3.2-3.2c-0.7-0.7-0.7-1.8,0-2.4c0.7-0.7,1.8-0.7,2.4,0l3.2,3.2l5.1-5.1l-3.2-3.2
		c-0.7-0.7-0.7-1.8,0-2.4c0.7-0.7,1.8-0.7,2.4,0l3.2,3.2l5.1-5.1l-3.2-3.2C-293.7,27.6-293.7,26.6-293,25.9 M-328,20.9
		c-9.4,9.4-15.6,20.7-18.6,32.6l37,37c11.9-3.1,23.3-9.3,32.6-18.6c9.4-9.4,15.6-20.7,18.6-32.6l-37-37
		C-307.3,5.3-318.6,11.5-328,20.9"/>
	<path fill="#0071BB" d="M-346.3,90.2c9.4,2.6,19.3,3.2,28.9,1.9l-30.7-30.7C-349.5,70.9-348.9,80.7-346.3,90.2"/>
</g>
<path fill="#0071BB" d="M-547.5,7.1h100v64.3h-100V7.1z M-554.6,0v78.6h50v7.1h-25v7.1h64.3v-7.1h-25v-7.1h50V0H-554.6z"/>
<g>
	<g>
		<defs>
			<rect id="SVGID_1_" x="-759.1" width="133.1" height="92.8"/>
		</defs>
		<clipPath id="SVGID_2_">
			<use xlink:href="#SVGID_1_"  overflow="visible"/>
		</clipPath>
		<path clip-path="url(#SVGID_2_)" fill="#0071BB" d="M-692.5,92.8c25.6,0,46.4-20.8,46.4-46.4c0-25.6-20.8-46.4-46.4-46.4
			s-46.4,20.8-46.4,46.4C-738.9,72.1-718.1,92.8-692.5,92.8"/>
		<circle clip-path="url(#SVGID_2_)" fill="none" stroke="#FFFFFF" stroke-width="0.938" cx="-692.5" cy="46.4" r="38.5"/>
	</g>
	<polygon fill="#0071BB" points="-756.8,32.2 -746.3,48.9 -756.8,65.7 -628.2,65.7 -638.7,48.9 -628.2,32.2 	"/>
	<g>
		<polygon fill="none" stroke="#FFFFFF" stroke-width="1.875" points="-756.8,32.2 -746.3,48.9 -756.8,65.7 -628.2,65.7 
			-638.7,48.9 -628.2,32.2 		"/>
	</g>
</g>
<g>
	<path fill="#0071BB" d="M-831.9,79.8c-3.4,2.8-6.5,4.8-9.3,6.2c-2.8,1.4-5.2,2.1-7.3,2.1c-2.4,0-4.3-0.9-5.7-2.6
		c-1.5-1.7-2.2-4-2.2-6.8c0-7.1,5.7-12.9,17.2-17.6l7.3-2.9V79.8z M-818,88.1c-1.8,0-2.9-0.7-3.5-2.2s-0.8-4.8-0.8-9.9v-22
		c0-4.7-0.5-8.1-1.5-10.4c-1-2.3-3.1-4.3-6.2-6.1c-3.1-1.8-7.5-2.7-13.1-2.7c-7.6,0-13.2,1.5-16.8,4.4c-3.6,2.9-5.4,5.6-5.4,8.2
		c0,2.6,1.4,3.9,4.1,3.9c3,0,4.9-2.3,5.6-6.8c0.8-4.4,4.5-6.7,11.1-6.7c3.3,0,6,0.7,8.1,2c2,1.3,3.3,2.8,3.8,4.5
		c0.5,1.7,0.7,4.4,0.7,8.2v2.7l-10.3,4.2c-7.9,3.2-14,6.6-18.5,10c-4.5,3.4-6.7,7.4-6.7,12c0,3.5,1.3,6.3,4,8.5
		c2.7,2.1,5.8,3.2,9.5,3.2c2.9,0,6.2-0.8,9.8-2.4c3.7-1.6,7.7-4,12.1-7.1c0.5,3.2,1.7,5.5,3.4,7.1c1.8,1.6,4.1,2.4,7.2,2.4
		c7.1,0,10.8-3.8,11.2-11.4h-2.5C-813.3,85.9-815.1,88.1-818,88.1 M-939.1,55.3l15.9-38.5l16,38.5H-939.1z M-899.2,75
		c2,4.8,3.1,7.7,3.1,8.7c0,1.9-0.8,3.2-2.3,3.8c-1.5,0.6-4.5,1-8.8,1v3.1h35.5v-3.1c-3.2-0.3-5.5-1.1-7.1-2.3
		c-1.6-1.2-2.8-2.9-3.8-5l-4.1-9.5L-916.9,0h-2.6l-26.2,62.6c-1.9,4.5-3,7.1-3.2,7.7c-2.8,7.1-5.1,11.7-7.1,13.9
		c-2,2.2-4.9,3.6-8.9,4.2v3.1h26.8v-3.1c-2.9,0-5.3-0.7-7.1-2.1c-1.8-1.4-2.8-3.4-2.8-6.2c0-2.5,1.7-7.9,5.2-16.2l2.3-5.7h34.3
		L-899.2,75z"/>
</g>
<g>
	<path fill="#0071BB" d="M-1220.4,11c-4.2,1.9-8.7,3.1-13.5,3.7c4.8-2.9,8.6-7.5,10.3-13c-4.5,2.7-9.5,4.6-14.9,5.7
		c-4.3-4.6-10.4-7.4-17.1-7.4c-12.9,0-23.4,10.5-23.4,23.4c0,1.8,0.2,3.6,0.6,5.3c-19.5-1-36.7-10.3-48.3-24.5
		c-2,3.5-3.2,7.5-3.2,11.8c0,8.1,4.1,15.3,10.4,19.5c-3.8-0.1-7.5-1.2-10.6-2.9c0,0.1,0,0.2,0,0.3c0,11.4,8.1,20.8,18.8,23
		c-2,0.5-4,0.8-6.2,0.8c-1.5,0-3-0.1-4.4-0.4c3,9.3,11.6,16.1,21.9,16.3c-8,6.3-18.1,10-29.1,10c-1.9,0-3.8-0.1-5.6-0.3
		c10.4,6.6,22.7,10.5,35.9,10.5c43.1,0,66.7-35.7,66.7-66.7c0-1,0-2-0.1-3C-1227.5,19.8-1223.5,15.7-1220.4,11"/>
</g>
<g>
	<path fill="#0071BB" d="M-1422.5,35.7h-14.3v-7.1h14.3V35.7z M-1472.5,85.3c-17.5,0-31.7-14.2-31.7-31.7s14.2-31.7,31.7-31.7
		c17.5,0,31.7,14.2,31.7,31.7S-1455,85.3-1472.5,85.3 M-1422.5,14.3h-25c-1.8-7.1-3.6-14.3-10.7-14.3h-28.6
		c-7.1,0-8.9,7.1-10.7,14.3h-25c-3.9,0-7.1,3.2-7.1,7.1v64.3c0,3.9,3.2,7.1,7.1,7.1h100c3.9,0,7.1-3.2,7.1-7.1V21.4
		C-1415.4,17.5-1418.6,14.3-1422.5,14.3 M-1495.7,53.6c0,12.8,10.4,23.2,23.2,23.2c12.8,0,23.2-10.4,23.2-23.2s-10.4-23.2-23.2-23.2
		C-1485.3,30.4-1495.7,40.7-1495.7,53.6"/>
</g>
<g>
	<path fill="#0071BB" d="M-1687.7,78.7c-2.9-6.1-6-9.1-12-12l9-24.7l11.6-7.1l34.8-34.8h-17.4l-34.8,34.8l-17.4,58.1l58.1-17.4
		l34.8-34.8V23.2l-34.8,34.8l-7.1,11.6 M-1679.1,58.1l11.6-5.8l40.6-40.6l-5.8-5.8l-40.6,40.6L-1679.1,58.1z"/>
</g>
<g>
	<g>
		<path fill="#338DC9" d="M-1091.9,91.1c-0.5,0-0.9,0.4-0.9,0.9c0,0.5,0.4,0.9,0.9,0.9h18.8c0.5,0,0.9-0.4,0.9-0.9
			c0-0.5-0.4-0.9-0.9-0.9H-1091.9L-1091.9,91.1z"/>
	</g>
</g>
<path fill="#0071BB" d="M-1105.9,45c0-13,10.5-23.4,23.4-23.4c13,0,23.4,10.5,23.4,23.4c0,0.8-0.6,11.6-9.4,23
	c-2.6,3.4-2.2,10.3-2.1,10.3c-3.6,0-6.6,0-10.3,0c-1.1,0-2.2,0-3.3,0c-3.6,0-6.7,0-10.3,0c0,0,0.5-6.9-2.1-10.3
	C-1105.4,56.6-1105.9,45.8-1105.9,45z"/>
<path fill="#338DC9" d="M-1082.5,78.3c-3.6,0-8.3,0-12,0c0,0,0.5-6.9-2.1-10.3c-8.8-11.4-9.4-22.2-9.4-23c0-13,10.5-23.4,23.4-23.4"
	/>
<g>
	<path fill="#338DC9" d="M-1064,45h-2.1c0-9-7.4-16.4-16.4-16.4v-2.1C-1072.3,26.6-1064,34.9-1064,45L-1064,45z"/>
</g>
<g>
	<g>
		<g>
			<polygon fill="#FFFFFF" points="-1077.4,80.2 -1079.4,79.8 -1075.4,55.6 -1073.4,55.9 -1077.4,80.2 			"/>
		</g>
		<g>
			<polygon fill="#FFFFFF" points="-1087.6,80.2 -1091.6,55.9 -1089.6,55.6 -1085.6,79.8 -1087.6,80.2 			"/>
		</g>
	</g>
	<g>
		<path fill="#FFFFFF" d="M-1074.5,59c-0.8,0-1.2-0.8-1.5-1.4c-0.1-0.2-0.3-0.8-0.5-0.8c-0.1,0-0.3,0.5-0.4,0.7
			c-0.2,0.6-0.6,1.5-1.6,1.5c-0.6,0-0.9-0.6-1.3-1.3c-0.1-0.3-0.4-0.7-0.6-0.9c-0.1,0.2-0.4,0.5-0.5,0.7c-0.4,0.7-0.8,1.4-1.5,1.4
			c-0.6,0-1-0.7-1.4-1.4c-0.1-0.2-0.4-0.6-0.5-0.8c-0.2,0.2-0.4,0.6-0.5,0.8c-0.4,0.7-0.8,1.3-1.4,1.3c-0.7,0-1.1-0.7-1.6-1.5
			c-0.1-0.2-0.3-0.6-0.5-0.7c-0.2,0.1-0.3,0.3-0.5,0.8c-0.2,0.6-0.5,1.4-1.4,1.4v-1.1c0.1,0,0.3-0.5,0.4-0.7
			c0.2-0.6,0.6-1.5,1.6-1.5c0.6,0,0.9,0.6,1.3,1.3c0.2,0.3,0.4,0.7,0.6,0.9c0.1-0.2,0.4-0.5,0.5-0.7c0.4-0.7,0.8-1.4,1.5-1.4
			c0.6,0,1,0.7,1.4,1.4c0.1,0.2,0.4,0.6,0.5,0.8c0.2-0.2,0.4-0.6,0.5-0.8c0.4-0.7,0.8-1.3,1.4-1.3c0.7,0,1.1,0.7,1.6,1.5
			c0.1,0.2,0.3,0.6,0.5,0.7c0.2-0.1,0.3-0.3,0.5-0.8c0.2-0.6,0.5-1.4,1.4-1.4c0.8,0,1.2,0.8,1.5,1.4c0.1,0.3,0.3,0.8,0.5,0.8V59
			L-1074.5,59z"/>
	</g>
</g>
<path fill="#0071BB" d="M-1070.6,78.4v12.3c0,0.8-0.7,1.5-1.5,1.5h-20.8c-0.8,0-1.5-0.7-1.5-1.5V78.4H-1070.6z"/>
<g>
	<g>
		<line fill="#338DC9" x1="-1070.1" y1="79.5" x2="-1094.9" y2="79.5"/>
		<path fill="#338DC9" d="M-1070.1,80.7h-24.8c-0.7,0-1.2-0.5-1.2-1.2c0-0.7,0.5-1.2,1.2-1.2h24.8c0.7,0,1.2,0.5,1.2,1.2
			C-1068.9,80.2-1069.4,80.7-1070.1,80.7L-1070.1,80.7z"/>
	</g>
	<g>
		<line fill="#338DC9" x1="-1070.1" y1="83.5" x2="-1094.9" y2="83.5"/>
		<path fill="#338DC9" d="M-1070.1,84.7h-24.8c-0.7,0-1.2-0.5-1.2-1.2c0-0.7,0.5-1.2,1.2-1.2h24.8c0.7,0,1.2,0.5,1.2,1.2
			C-1068.9,84.2-1069.4,84.7-1070.1,84.7L-1070.1,84.7z"/>
	</g>
	<g>
		<line fill="#338DC9" x1="-1070.1" y1="87.5" x2="-1094.9" y2="87.5"/>
		<path fill="#338DC9" d="M-1070.1,88.8h-24.8c-0.7,0-1.2-0.5-1.2-1.2c0-0.7,0.5-1.2,1.2-1.2h24.8c0.7,0,1.2,0.5,1.2,1.2
			C-1068.9,88.2-1069.4,88.8-1070.1,88.8L-1070.1,88.8z"/>
	</g>
</g>
<g>
	<g>
		<path fill="#0071BB" d="M-1082.5,13.9c-0.3,0-0.6-0.3-0.6-0.6V0.5c0-0.3,0.3-0.6,0.6-0.6s0.6,0.3,0.6,0.6v12.9
			C-1081.9,13.7-1082.2,13.9-1082.5,13.9L-1082.5,13.9z"/>
	</g>
	<g>
		<path fill="#0071BB" d="M-1098.9,18.4c-0.2,0-0.4-0.1-0.5-0.3l-6.4-11.2c-0.2-0.3-0.1-0.7,0.2-0.8c0.3-0.2,0.7-0.1,0.8,0.2
			l6.4,11.2c0.2,0.3,0.1,0.7-0.2,0.8C-1098.7,18.3-1098.8,18.4-1098.9,18.4L-1098.9,18.4z"/>
	</g>
	<g>
		<path fill="#0071BB" d="M-1110.9,30.4c-0.1,0-0.2,0-0.3-0.1l-11.2-6.4c-0.3-0.2-0.4-0.5-0.2-0.8c0.2-0.3,0.5-0.4,0.8-0.2l11.2,6.4
			c0.3,0.2,0.4,0.5,0.2,0.8C-1110.5,30.3-1110.7,30.4-1110.9,30.4L-1110.9,30.4z"/>
	</g>
	<g>
		<path fill="#0071BB" d="M-1115.3,46.8h-12.9c-0.3,0-0.6-0.3-0.6-0.6c0-0.3,0.3-0.6,0.6-0.6h12.9c0.3,0,0.6,0.3,0.6,0.6
			C-1114.7,46.5-1115,46.8-1115.3,46.8L-1115.3,46.8z"/>
	</g>
	<g>
		<path fill="#0071BB" d="M-1042.9,69.6c-0.1,0-0.2,0-0.3-0.1l-11.2-6.4c-0.3-0.2-0.4-0.5-0.2-0.8c0.2-0.3,0.5-0.4,0.8-0.2l11.2,6.4
			c0.3,0.2,0.4,0.5,0.2,0.8C-1042.5,69.5-1042.7,69.6-1042.9,69.6L-1042.9,69.6z"/>
	</g>
	<g>
		<path fill="#0071BB" d="M-1036.8,46.8h-12.9c-0.3,0-0.6-0.3-0.6-0.6s0.3-0.6,0.6-0.6h12.9c0.3,0,0.6,0.3,0.6,0.6
			S-1036.4,46.8-1036.8,46.8L-1036.8,46.8z"/>
	</g>
	<g>
		<path fill="#0071BB" d="M-1054.1,30.4c-0.2,0-0.4-0.1-0.5-0.3c-0.2-0.3-0.1-0.7,0.2-0.8l11.2-6.4c0.3-0.2,0.7-0.1,0.8,0.2
			c0.2,0.3,0.1,0.7-0.2,0.8l-11.2,6.4C-1053.9,30.3-1054,30.4-1054.1,30.4L-1054.1,30.4z"/>
	</g>
	<g>
		<path fill="#0071BB" d="M-1066.1,18.3c-0.1,0-0.2,0-0.3-0.1c-0.3-0.2-0.4-0.5-0.2-0.8l6.4-11.2c0.2-0.3,0.5-0.4,0.8-0.2
			c0.3,0.2,0.4,0.5,0.2,0.8l-6.4,11.2C-1065.7,18.2-1065.9,18.3-1066.1,18.3L-1066.1,18.3z"/>
	</g>
	<g>
		<path fill="#0071BB" d="M-1082.5,13.9c-0.3,0-0.6-0.3-0.6-0.6V0.5c0-0.3,0.3-0.6,0.6-0.6s0.6,0.3,0.6,0.6v12.9
			C-1081.9,13.7-1082.2,13.9-1082.5,13.9L-1082.5,13.9z"/>
	</g>
</g>
<g>
	<g>
		<path fill="#0071BB" d="M-1082.5,13.9c-0.3,0-0.6-0.3-0.6-0.6V0.5c0-0.3,0.3-0.6,0.6-0.6s0.6,0.3,0.6,0.6v12.9
			C-1081.9,13.7-1082.2,13.9-1082.5,13.9L-1082.5,13.9z"/>
	</g>
	<g>
		<path fill="#0071BB" d="M-1066.1,18.4c-0.1,0-0.2,0-0.3-0.1c-0.3-0.2-0.4-0.5-0.2-0.8l6.4-11.2c0.2-0.3,0.5-0.4,0.8-0.2
			c0.3,0.2,0.4,0.5,0.2,0.8l-6.4,11.2C-1065.7,18.2-1065.9,18.4-1066.1,18.4L-1066.1,18.4z"/>
	</g>
	<g>
		<path fill="#0071BB" d="M-1054.1,30.4c-0.2,0-0.4-0.1-0.5-0.3c-0.2-0.3-0.1-0.7,0.2-0.8l11.2-6.4c0.3-0.2,0.7-0.1,0.8,0.2
			c0.2,0.3,0.1,0.7-0.2,0.8l-11.2,6.4C-1053.9,30.3-1054,30.4-1054.1,30.4L-1054.1,30.4z"/>
	</g>
	<g>
		<path fill="#0071BB" d="M-1036.8,46.8h-12.9c-0.3,0-0.6-0.3-0.6-0.6c0-0.3,0.3-0.6,0.6-0.6h12.9c0.3,0,0.6,0.3,0.6,0.6
			C-1036.2,46.5-1036.4,46.8-1036.8,46.8L-1036.8,46.8z"/>
	</g>
	<g>
		<path fill="#0071BB" d="M-1122.1,69.6c-0.2,0-0.4-0.1-0.5-0.3c-0.2-0.3-0.1-0.7,0.2-0.8l11.2-6.4c0.3-0.2,0.7-0.1,0.8,0.2
			c0.2,0.3,0.1,0.7-0.2,0.8l-11.2,6.4C-1121.9,69.6-1122,69.6-1122.1,69.6L-1122.1,69.6z"/>
	</g>
	<g>
		<path fill="#0071BB" d="M-1115.3,46.8h-12.9c-0.3,0-0.6-0.3-0.6-0.6s0.3-0.6,0.6-0.6h12.9c0.3,0,0.6,0.3,0.6,0.6
			S-1115,46.8-1115.3,46.8L-1115.3,46.8z"/>
	</g>
	<g>
		<path fill="#0071BB" d="M-1110.9,30.4c-0.1,0-0.2,0-0.3-0.1l-11.2-6.4c-0.3-0.2-0.4-0.5-0.2-0.8c0.2-0.3,0.5-0.4,0.8-0.2l11.2,6.4
			c0.3,0.2,0.4,0.5,0.2,0.8C-1110.5,30.2-1110.7,30.4-1110.9,30.4L-1110.9,30.4z"/>
	</g>
	<g>
		<path fill="#0071BB" d="M-1098.9,18.3c-0.2,0-0.4-0.1-0.5-0.3l-6.4-11.2c-0.2-0.3-0.1-0.7,0.2-0.8c0.3-0.2,0.7-0.1,0.8,0.2
			l6.4,11.2c0.2,0.3,0.1,0.7-0.2,0.8C-1098.7,18.3-1098.8,18.3-1098.9,18.3L-1098.9,18.3z"/>
	</g>
	<g>
		<path fill="#0071BB" d="M-1082.5,13.9c-0.3,0-0.6-0.3-0.6-0.6V0.5c0-0.3,0.3-0.6,0.6-0.6s0.6,0.3,0.6,0.6v12.9
			C-1081.9,13.7-1082.2,13.9-1082.5,13.9L-1082.5,13.9z"/>
	</g>
</g>
<g>
	<g>
		<path fill="#338DC9" d="M78.1,91.1c-0.5,0-0.9,0.4-0.9,0.9c0,0.5,0.4,0.9,0.9,0.9h18.8c0.5,0,0.9-0.4,0.9-0.9
			c0-0.5-0.4-0.9-0.9-0.9H78.1L78.1,91.1z"/>
	</g>
</g>
<path fill="#0071BB" d="M64.1,45.1c0-13,10.5-23.4,23.4-23.4c13,0,23.4,10.5,23.4,23.4c0,0.8-0.6,11.6-9.4,23
	c-2.6,3.4-2.2,10.3-2.1,10.3c-3.6,0-6.6,0-10.3,0c-1.1,0-2.2,0-3.3,0c-3.6,0-6.7,0-10.3,0c0,0,0.5-6.9-2.1-10.3
	C64.6,56.6,64.1,45.8,64.1,45.1z"/>
<path fill="#338DC9" d="M87.5,78.4c-3.6,0-8.3,0-12,0c0,0,0.5-6.9-2.1-10.3c-8.8-11.4-9.4-22.2-9.4-23c0-13,10.5-23.4,23.4-23.4"/>
<g>
	<path fill="#338DC9" d="M106,45h-2.1c0-9-7.4-16.4-16.4-16.4v-2.1C97.7,26.6,106,34.9,106,45L106,45z"/>
</g>
<g>
	<g>
		<g>
			<polygon fill="#FFFFFF" points="92.6,80.2 90.6,79.9 94.6,55.6 96.6,56 92.6,80.2 			"/>
		</g>
		<g>
			<polygon fill="#FFFFFF" points="82.4,80.2 78.4,56 80.4,55.6 84.4,79.9 82.4,80.2 			"/>
		</g>
	</g>
	<g>
		<path fill="#FFFFFF" d="M95.5,59c-0.8,0-1.2-0.8-1.5-1.4c-0.1-0.2-0.3-0.8-0.5-0.8c-0.1,0-0.3,0.5-0.4,0.7
			c-0.2,0.6-0.6,1.5-1.6,1.5c-0.6,0-0.9-0.6-1.3-1.3c-0.1-0.3-0.4-0.7-0.6-0.9c-0.1,0.2-0.4,0.5-0.5,0.7c-0.4,0.7-0.8,1.4-1.5,1.4
			c-0.6,0-1-0.7-1.4-1.4c-0.1-0.2-0.4-0.6-0.5-0.8c-0.2,0.2-0.4,0.6-0.5,0.8c-0.4,0.7-0.8,1.3-1.4,1.3c-0.7,0-1.1-0.7-1.6-1.5
			c-0.1-0.2-0.3-0.6-0.5-0.7c-0.2,0.1-0.3,0.3-0.5,0.8c-0.2,0.6-0.5,1.4-1.4,1.4v-1.1c0.1,0,0.3-0.5,0.4-0.7
			c0.2-0.6,0.6-1.5,1.6-1.5c0.6,0,0.9,0.6,1.3,1.3c0.2,0.3,0.4,0.7,0.6,0.9c0.1-0.2,0.4-0.5,0.5-0.7c0.4-0.7,0.8-1.4,1.5-1.4
			c0.6,0,1,0.7,1.4,1.4c0.1,0.2,0.4,0.6,0.5,0.8c0.2-0.2,0.4-0.6,0.5-0.8c0.4-0.7,0.8-1.3,1.4-1.3c0.7,0,1.1,0.7,1.6,1.5
			c0.1,0.2,0.3,0.6,0.5,0.7c0.2-0.1,0.3-0.3,0.5-0.8c0.2-0.6,0.5-1.4,1.4-1.4c0.8,0,1.2,0.8,1.5,1.4c0.1,0.3,0.3,0.8,0.5,0.8V59
			L95.5,59z"/>
	</g>
</g>
<path fill="#0071BB" d="M99.4,78.4v12.3c0,0.8-0.7,1.5-1.5,1.5H77.1c-0.8,0-1.5-0.7-1.5-1.5V78.4H99.4z"/>
<g>
	<g>
		<line fill="#338DC9" x1="99.9" y1="79.6" x2="75.1" y2="79.6"/>
		<path fill="#338DC9" d="M99.9,80.8H75.1c-0.7,0-1.2-0.5-1.2-1.2c0-0.7,0.5-1.2,1.2-1.2h24.8c0.7,0,1.2,0.5,1.2,1.2
			C101.1,80.2,100.6,80.8,99.9,80.8L99.9,80.8z"/>
	</g>
	<g>
		<line fill="#338DC9" x1="99.9" y1="83.6" x2="75.1" y2="83.6"/>
		<path fill="#338DC9" d="M99.9,84.8H75.1c-0.7,0-1.2-0.5-1.2-1.2c0-0.7,0.5-1.2,1.2-1.2h24.8c0.7,0,1.2,0.5,1.2,1.2
			C101.1,84.2,100.6,84.8,99.9,84.8L99.9,84.8z"/>
	</g>
	<g>
		<line fill="#338DC9" x1="99.9" y1="87.6" x2="75.1" y2="87.6"/>
		<path fill="#338DC9" d="M99.9,88.8H75.1c-0.7,0-1.2-0.5-1.2-1.2c0-0.7,0.5-1.2,1.2-1.2h24.8c0.7,0,1.2,0.5,1.2,1.2
			C101.1,88.2,100.6,88.8,99.9,88.8L99.9,88.8z"/>
	</g>
</g>
<g>
	<g>
		<path fill="#0071BB" d="M87.5,14c-0.3,0-0.6-0.3-0.6-0.6V0.5c0-0.3,0.3-0.6,0.6-0.6c0.3,0,0.6,0.3,0.6,0.6v12.9
			C88.1,13.7,87.8,14,87.5,14L87.5,14z"/>
	</g>
	<g>
		<path fill="#0071BB" d="M71.1,18.4c-0.2,0-0.4-0.1-0.5-0.3L64.1,6.9c-0.2-0.3-0.1-0.7,0.2-0.8C64.6,5.9,65,6,65.2,6.3l6.4,11.2
			c0.2,0.3,0.1,0.7-0.2,0.8C71.3,18.3,71.2,18.4,71.1,18.4L71.1,18.4z"/>
	</g>
	<g>
		<path fill="#0071BB" d="M59.1,30.4c-0.1,0-0.2,0-0.3-0.1l-11.2-6.4c-0.3-0.2-0.4-0.5-0.2-0.8c0.2-0.3,0.5-0.4,0.8-0.2l11.2,6.4
			c0.3,0.2,0.4,0.5,0.2,0.8C59.5,30.3,59.3,30.4,59.1,30.4L59.1,30.4z"/>
	</g>
	<g>
		<path fill="#0071BB" d="M54.7,46.8H41.8c-0.3,0-0.6-0.3-0.6-0.6c0-0.3,0.3-0.6,0.6-0.6h12.9c0.3,0,0.6,0.3,0.6,0.6
			C55.3,46.5,55,46.8,54.7,46.8L54.7,46.8z"/>
	</g>
	<g>
		<path fill="#0071BB" d="M127.1,69.6c-0.1,0-0.2,0-0.3-0.1l-11.2-6.4c-0.3-0.2-0.4-0.5-0.2-0.8c0.2-0.3,0.5-0.4,0.8-0.2l11.2,6.4
			c0.3,0.2,0.4,0.5,0.2,0.8C127.5,69.5,127.3,69.6,127.1,69.6L127.1,69.6z"/>
	</g>
	<g>
		<path fill="#0071BB" d="M133.2,46.8h-12.9c-0.3,0-0.6-0.3-0.6-0.6c0-0.3,0.3-0.6,0.6-0.6h12.9c0.3,0,0.6,0.3,0.6,0.6
			C133.8,46.5,133.6,46.8,133.2,46.8L133.2,46.8z"/>
	</g>
	<g>
		<path fill="#0071BB" d="M115.9,30.4c-0.2,0-0.4-0.1-0.5-0.3c-0.2-0.3-0.1-0.7,0.2-0.8l11.2-6.4c0.3-0.2,0.7-0.1,0.8,0.2
			c0.2,0.3,0.1,0.7-0.2,0.8l-11.2,6.4C116.1,30.3,116,30.4,115.9,30.4L115.9,30.4z"/>
	</g>
	<g>
		<path fill="#0071BB" d="M103.9,18.4c-0.1,0-0.2,0-0.3-0.1c-0.3-0.2-0.4-0.5-0.2-0.8l6.4-11.2c0.2-0.3,0.5-0.4,0.8-0.2
			c0.3,0.2,0.4,0.5,0.2,0.8l-6.4,11.2C104.3,18.3,104.1,18.4,103.9,18.4L103.9,18.4z"/>
	</g>
	<g>
		<path fill="#0071BB" d="M87.5,14c-0.3,0-0.6-0.3-0.6-0.6V0.5c0-0.3,0.3-0.6,0.6-0.6c0.3,0,0.6,0.3,0.6,0.6v12.9
			C88.1,13.7,87.8,14,87.5,14L87.5,14z"/>
	</g>
</g>
<g>
	<g>
		<path fill="#0071BB" d="M87.5,14c-0.3,0-0.6-0.3-0.6-0.6V0.5c0-0.3,0.3-0.6,0.6-0.6s0.6,0.3,0.6,0.6v12.9
			C88.1,13.7,87.8,14,87.5,14L87.5,14z"/>
	</g>
	<g>
		<path fill="#0071BB" d="M103.9,18.4c-0.1,0-0.2,0-0.3-0.1c-0.3-0.2-0.4-0.5-0.2-0.8l6.4-11.2c0.2-0.3,0.5-0.4,0.8-0.2
			c0.3,0.2,0.4,0.5,0.2,0.8l-6.4,11.2C104.3,18.3,104.1,18.4,103.9,18.4L103.9,18.4z"/>
	</g>
	<g>
		<path fill="#0071BB" d="M115.9,30.4c-0.2,0-0.4-0.1-0.5-0.3c-0.2-0.3-0.1-0.7,0.2-0.8l11.2-6.4c0.3-0.2,0.7-0.1,0.8,0.2
			c0.2,0.3,0.1,0.7-0.2,0.8l-11.2,6.4C116.1,30.4,116,30.4,115.9,30.4L115.9,30.4z"/>
	</g>
	<g>
		<path fill="#0071BB" d="M133.2,46.8h-12.9c-0.3,0-0.6-0.3-0.6-0.6c0-0.3,0.3-0.6,0.6-0.6h12.9c0.3,0,0.6,0.3,0.6,0.6
			C133.8,46.5,133.6,46.8,133.2,46.8L133.2,46.8z"/>
	</g>
	<g>
		<path fill="#0071BB" d="M47.9,69.6c-0.2,0-0.4-0.1-0.5-0.3c-0.2-0.3-0.1-0.7,0.2-0.8l11.2-6.4c0.3-0.2,0.7-0.1,0.8,0.2
			c0.2,0.3,0.1,0.7-0.2,0.8l-11.2,6.4C48.1,69.6,48,69.6,47.9,69.6L47.9,69.6z"/>
	</g>
	<g>
		<path fill="#0071BB" d="M54.7,46.8H41.8c-0.3,0-0.6-0.3-0.6-0.6c0-0.3,0.3-0.6,0.6-0.6h12.9c0.3,0,0.6,0.3,0.6,0.6
			C55.3,46.5,55,46.8,54.7,46.8L54.7,46.8z"/>
	</g>
	<g>
		<path fill="#0071BB" d="M59.1,30.4c-0.1,0-0.2,0-0.3-0.1l-11.2-6.4c-0.3-0.2-0.4-0.5-0.2-0.8c0.2-0.3,0.5-0.4,0.8-0.2l11.2,6.4
			c0.3,0.2,0.4,0.5,0.2,0.8C59.5,30.3,59.3,30.4,59.1,30.4L59.1,30.4z"/>
	</g>
	<g>
		<path fill="#0071BB" d="M71.1,18.4c-0.2,0-0.4-0.1-0.5-0.3L64.1,6.9c-0.2-0.3-0.1-0.7,0.2-0.8C64.6,5.9,65,6,65.2,6.3l6.4,11.2
			c0.2,0.3,0.1,0.7-0.2,0.8C71.3,18.3,71.2,18.4,71.1,18.4L71.1,18.4z"/>
	</g>
	<g>
		<path fill="#0071BB" d="M87.5,14c-0.3,0-0.6-0.3-0.6-0.6V0.5c0-0.3,0.3-0.6,0.6-0.6s0.6,0.3,0.6,0.6v12.9
			C88.1,13.7,87.8,14,87.5,14L87.5,14z"/>
	</g>
</g>
</svg>
