<?xml version="1.0" encoding="utf-8"?>
<!-- Generator: Adobe Illustrator 18.1.1, SVG Export Plug-In . SVG Version: 6.00 Build 0)  -->
<svg version="1.1" id="Layer_1" xmlns="http://www.w3.org/2000/svg" xmlns:xlink="http://www.w3.org/1999/xlink" x="0px" y="0px"
	 viewBox="0 0 175 95.6" enable-background="new 0 0 175 95.6" xml:space="preserve">
<g>
	<polygon opacity="0.2" fill="#231F20" points="-866,1 -866,90.1 -931.2,90.1 -931.2,18.2 -914,1 	"/>
	<polygon fill="#C0E0DE" points="-928.3,92.9 -928.3,45 -928.3,21 -911.1,3.8 -863.2,3.8 -863.2,21.6 -863.2,45 -863.2,92.9 	"/>
	<polygon fill="#FFFFFF" points="-911.1,21 -928.3,21 -911.1,3.8 	"/>
	<polygon fill="#8FC3D5" points="-928.3,21 -911.1,21 -928.3,38.2 	"/>
	<g>
		<defs>
			<polygon id="SVGID_1_" points="-928.3,92.9 -928.3,45 -928.3,21 -911.1,3.8 -863.2,3.8 -863.2,21.6 -863.2,45 -863.2,92.9 			"/>
		</defs>
		<clipPath id="SVGID_2_">
			<use xlink:href="#SVGID_1_"  overflow="visible"/>
		</clipPath>
		<path clip-path="url(#SVGID_2_)" fill="#8FC3D5" d="M-850.7,36l-10.6-10.6l-4.4-4.4l-42.7,42.7c0,0,0,0,0,0l0,19.5l19.5,0
			c0,0,0,0,0,0l42.7-42.7L-850.7,36z"/>
	</g>
	<path fill="#0F3754" d="M-868,17.3l-42.7,42.6c2.6,2,5.9,2.4,8.1,0.8l39-39L-868,17.3z"/>
	<path fill="#174F78" d="M-852.9,32.3l-10.6-10.6l-39,39h0c0,0,0,0,0,0.1c0,0,0,0,0.1-0.1c-1.8,2.4-1.1,6.2,1.6,9
		c2.7,2.7,6.6,3.3,8.9,1.6c0,0,0,0,0,0.1c0,0,0,0,0.1,0v0L-852.9,32.3z"/>
	<path fill="#0F3754" d="M-892,71.3c-1.6,2.1-1.2,5.4,0.8,8.1l42.7-42.6l-4.4-4.4L-892,71.3z"/>
	<path fill="#C0E0DE" d="M-891.1,79.4c-2.1-2.6-2.4-5.9-0.8-8.1v0c0,0,0,0-0.1,0c0,0,0,0,0-0.1c-2.4,1.7-6.2,1.1-8.9-1.6
		c-2.7-2.7-3.3-6.6-1.6-9c0,0,0,0-0.1,0.1c0,0,0,0,0-0.1h0c-2.1,1.6-5.5,1.2-8.1-0.8l0,19.5L-891.1,79.4z"/>
	<path fill="#0F3754" d="M-910.6,69.8l0,9.6l9.6,0c-1.2-1.8-2.7-3.6-4.3-5.2C-907,72.5-908.8,71.1-910.6,69.8z"/>
	
		<rect x="-866.5" y="13.9" transform="matrix(-0.7069 -0.7073 0.7073 -0.7069 -1485.7719 -581.4847)" fill="#0E303F" width="6.3" height="6.5"/>
	
		<rect x="-863.3" y="21.4" transform="matrix(-0.7072 -0.707 0.707 -0.7072 -1478.5524 -563.0565)" fill="#2C5871" width="15" height="6.5"/>
	
		<rect x="-851.5" y="28.9" transform="matrix(-0.707 -0.7072 0.7072 -0.707 -1470.864 -545.1136)" fill="#0E303F" width="6.3" height="6.5"/>
</g>
<g>
	<g>
		<path fill="#338DC9" d="M-311.9,91.1c-0.5,0-0.9,0.4-0.9,0.9c0,0.5,0.4,0.9,0.9,0.9h18.8c0.5,0,0.9-0.4,0.9-0.9
			c0-0.5-0.4-0.9-0.9-0.9H-311.9L-311.9,91.1z"/>
	</g>
</g>
<path fill="#0071BB" d="M-325.9,45c0-13,10.5-23.4,23.4-23.4c13,0,23.4,10.5,23.4,23.4c0,0.8-0.6,11.6-9.4,23
	c-2.6,3.4-2.2,10.3-2.1,10.3c-3.6,0-6.6,0-10.3,0c-1.1,0-2.2,0-3.3,0c-3.6,0-6.7,0-10.3,0c0,0,0.5-6.9-2.1-10.3
	C-325.4,56.6-325.9,45.8-325.9,45z"/>
<path fill="#338DC9" d="M-302.5,78.3c-3.6,0-8.3,0-12,0c0,0,0.5-6.9-2.1-10.3c-8.8-11.4-9.4-22.2-9.4-23c0-13,10.5-23.4,23.4-23.4"
	/>
<g>
	<path fill="#338DC9" d="M-284,45h-2.1c0-9-7.4-16.4-16.4-16.4v-2.1C-292.3,26.6-284,34.9-284,45L-284,45z"/>
</g>
<g>
	<g>
		<g>
			<polygon fill="#FFFFFF" points="-297.4,80.2 -299.4,79.8 -295.4,55.6 -293.4,55.9 -297.4,80.2 			"/>
		</g>
		<g>
			<polygon fill="#FFFFFF" points="-307.6,80.2 -311.6,55.9 -309.6,55.6 -305.6,79.8 -307.6,80.2 			"/>
		</g>
	</g>
	<g>
		<path fill="#FFFFFF" d="M-294.5,59c-0.8,0-1.2-0.8-1.5-1.4c-0.1-0.2-0.3-0.8-0.5-0.8c-0.1,0-0.3,0.5-0.4,0.7
			c-0.2,0.6-0.6,1.5-1.6,1.5c-0.6,0-0.9-0.6-1.3-1.3c-0.1-0.3-0.4-0.7-0.6-0.9c-0.1,0.2-0.4,0.5-0.5,0.7c-0.4,0.7-0.8,1.4-1.5,1.4
			c-0.6,0-1-0.7-1.4-1.4c-0.1-0.2-0.4-0.6-0.5-0.8c-0.2,0.2-0.4,0.6-0.5,0.8c-0.4,0.7-0.8,1.3-1.4,1.3c-0.7,0-1.1-0.7-1.6-1.5
			c-0.1-0.2-0.3-0.6-0.5-0.7c-0.2,0.1-0.3,0.3-0.5,0.8c-0.2,0.6-0.5,1.4-1.4,1.4v-1.1c0.1,0,0.3-0.5,0.4-0.7
			c0.2-0.6,0.6-1.5,1.6-1.5c0.6,0,0.9,0.6,1.3,1.3c0.2,0.3,0.4,0.7,0.6,0.9c0.1-0.2,0.4-0.5,0.5-0.7c0.4-0.7,0.8-1.4,1.5-1.4
			c0.6,0,1,0.7,1.4,1.4c0.1,0.2,0.4,0.6,0.5,0.8c0.2-0.2,0.4-0.6,0.5-0.8c0.4-0.7,0.8-1.3,1.4-1.3c0.7,0,1.1,0.7,1.6,1.5
			c0.1,0.2,0.3,0.6,0.5,0.7c0.2-0.1,0.3-0.3,0.5-0.8c0.2-0.6,0.5-1.4,1.4-1.4c0.8,0,1.2,0.8,1.5,1.4c0.1,0.3,0.3,0.8,0.5,0.8V59
			L-294.5,59z"/>
	</g>
</g>
<path fill="#0071BB" d="M-290.6,78.4v12.3c0,0.8-0.7,1.5-1.5,1.5h-20.8c-0.8,0-1.5-0.7-1.5-1.5V78.4H-290.6z"/>
<g>
	<g>
		<line fill="#338DC9" x1="-290.1" y1="79.5" x2="-314.9" y2="79.5"/>
		<path fill="#338DC9" d="M-290.1,80.7h-24.8c-0.7,0-1.2-0.5-1.2-1.2c0-0.7,0.5-1.2,1.2-1.2h24.8c0.7,0,1.2,0.5,1.2,1.2
			C-288.9,80.2-289.4,80.7-290.1,80.7L-290.1,80.7z"/>
	</g>
	<g>
		<line fill="#338DC9" x1="-290.1" y1="83.5" x2="-314.9" y2="83.5"/>
		<path fill="#338DC9" d="M-290.1,84.7h-24.8c-0.7,0-1.2-0.5-1.2-1.2c0-0.7,0.5-1.2,1.2-1.2h24.8c0.7,0,1.2,0.5,1.2,1.2
			C-288.9,84.2-289.4,84.7-290.1,84.7L-290.1,84.7z"/>
	</g>
	<g>
		<line fill="#338DC9" x1="-290.1" y1="87.5" x2="-314.9" y2="87.5"/>
		<path fill="#338DC9" d="M-290.1,88.8h-24.8c-0.7,0-1.2-0.5-1.2-1.2c0-0.7,0.5-1.2,1.2-1.2h24.8c0.7,0,1.2,0.5,1.2,1.2
			C-288.9,88.2-289.4,88.8-290.1,88.8L-290.1,88.8z"/>
	</g>
</g>
<g>
	<g>
		<path fill="#0071BB" d="M-302.5,13.9c-0.3,0-0.6-0.3-0.6-0.6V0.5c0-0.3,0.3-0.6,0.6-0.6c0.3,0,0.6,0.3,0.6,0.6v12.9
			C-301.9,13.7-302.2,13.9-302.5,13.9L-302.5,13.9z"/>
	</g>
	<g>
		<path fill="#0071BB" d="M-318.9,18.4c-0.2,0-0.4-0.1-0.5-0.3l-6.4-11.2c-0.2-0.3-0.1-0.7,0.2-0.8c0.3-0.2,0.7-0.1,0.8,0.2
			l6.4,11.2c0.2,0.3,0.1,0.7-0.2,0.8C-318.7,18.3-318.8,18.4-318.9,18.4L-318.9,18.4z"/>
	</g>
	<g>
		<path fill="#0071BB" d="M-330.9,30.4c-0.1,0-0.2,0-0.3-0.1l-11.2-6.4c-0.3-0.2-0.4-0.5-0.2-0.8c0.2-0.3,0.5-0.4,0.8-0.2l11.2,6.4
			c0.3,0.2,0.4,0.5,0.2,0.8C-330.5,30.3-330.7,30.4-330.9,30.4L-330.9,30.4z"/>
	</g>
	<g>
		<path fill="#0071BB" d="M-335.3,46.8h-12.9c-0.3,0-0.6-0.3-0.6-0.6c0-0.3,0.3-0.6,0.6-0.6h12.9c0.3,0,0.6,0.3,0.6,0.6
			C-334.7,46.5-335,46.8-335.3,46.8L-335.3,46.8z"/>
	</g>
	<g>
		<path fill="#0071BB" d="M-262.9,69.6c-0.1,0-0.2,0-0.3-0.1l-11.2-6.4c-0.3-0.2-0.4-0.5-0.2-0.8c0.2-0.3,0.5-0.4,0.8-0.2l11.2,6.4
			c0.3,0.2,0.4,0.5,0.2,0.8C-262.5,69.5-262.7,69.6-262.9,69.6L-262.9,69.6z"/>
	</g>
	<g>
		<path fill="#0071BB" d="M-256.8,46.8h-12.9c-0.3,0-0.6-0.3-0.6-0.6s0.3-0.6,0.6-0.6h12.9c0.3,0,0.6,0.3,0.6,0.6
			S-256.4,46.8-256.8,46.8L-256.8,46.8z"/>
	</g>
	<g>
		<path fill="#0071BB" d="M-274.1,30.4c-0.2,0-0.4-0.1-0.5-0.3c-0.2-0.3-0.1-0.7,0.2-0.8l11.2-6.4c0.3-0.2,0.7-0.1,0.8,0.2
			c0.2,0.3,0.1,0.7-0.2,0.8l-11.2,6.4C-273.9,30.3-274,30.4-274.1,30.4L-274.1,30.4z"/>
	</g>
	<g>
		<path fill="#0071BB" d="M-286.1,18.3c-0.1,0-0.2,0-0.3-0.1c-0.3-0.2-0.4-0.5-0.2-0.8l6.4-11.2c0.2-0.3,0.5-0.4,0.8-0.2
			c0.3,0.2,0.4,0.5,0.2,0.8l-6.4,11.2C-285.7,18.2-285.9,18.3-286.1,18.3L-286.1,18.3z"/>
	</g>
	<g>
		<path fill="#0071BB" d="M-302.5,13.9c-0.3,0-0.6-0.3-0.6-0.6V0.5c0-0.3,0.3-0.6,0.6-0.6c0.3,0,0.6,0.3,0.6,0.6v12.9
			C-301.9,13.7-302.2,13.9-302.5,13.9L-302.5,13.9z"/>
	</g>
</g>
<g>
	<g>
		<path fill="#0071BB" d="M-302.5,13.9c-0.3,0-0.6-0.3-0.6-0.6V0.5c0-0.3,0.3-0.6,0.6-0.6c0.3,0,0.6,0.3,0.6,0.6v12.9
			C-301.9,13.7-302.2,13.9-302.5,13.9L-302.5,13.9z"/>
	</g>
	<g>
		<path fill="#0071BB" d="M-286.1,18.4c-0.1,0-0.2,0-0.3-0.1c-0.3-0.2-0.4-0.5-0.2-0.8l6.4-11.2c0.2-0.3,0.5-0.4,0.8-0.2
			c0.3,0.2,0.4,0.5,0.2,0.8l-6.4,11.2C-285.7,18.2-285.9,18.4-286.1,18.4L-286.1,18.4z"/>
	</g>
	<g>
		<path fill="#0071BB" d="M-274.1,30.4c-0.2,0-0.4-0.1-0.5-0.3c-0.2-0.3-0.1-0.7,0.2-0.8l11.2-6.4c0.3-0.2,0.7-0.1,0.8,0.2
			c0.2,0.3,0.1,0.7-0.2,0.8l-11.2,6.4C-273.9,30.3-274,30.4-274.1,30.4L-274.1,30.4z"/>
	</g>
	<g>
		<path fill="#0071BB" d="M-256.8,46.8h-12.9c-0.3,0-0.6-0.3-0.6-0.6c0-0.3,0.3-0.6,0.6-0.6h12.9c0.3,0,0.6,0.3,0.6,0.6
			C-256.2,46.5-256.4,46.8-256.8,46.8L-256.8,46.8z"/>
	</g>
	<g>
		<path fill="#0071BB" d="M-342.1,69.6c-0.2,0-0.4-0.1-0.5-0.3c-0.2-0.3-0.1-0.7,0.2-0.8l11.2-6.4c0.3-0.2,0.7-0.1,0.8,0.2
			c0.2,0.3,0.1,0.7-0.2,0.8l-11.2,6.4C-341.9,69.6-342,69.6-342.1,69.6L-342.1,69.6z"/>
	</g>
	<g>
		<path fill="#0071BB" d="M-335.3,46.8h-12.9c-0.3,0-0.6-0.3-0.6-0.6s0.3-0.6,0.6-0.6h12.9c0.3,0,0.6,0.3,0.6,0.6
			S-335,46.8-335.3,46.8L-335.3,46.8z"/>
	</g>
	<g>
		<path fill="#0071BB" d="M-330.9,30.4c-0.1,0-0.2,0-0.3-0.1l-11.2-6.4c-0.3-0.2-0.4-0.5-0.2-0.8c0.2-0.3,0.5-0.4,0.8-0.2l11.2,6.4
			c0.3,0.2,0.4,0.5,0.2,0.8C-330.5,30.2-330.7,30.4-330.9,30.4L-330.9,30.4z"/>
	</g>
	<g>
		<path fill="#0071BB" d="M-318.9,18.3c-0.2,0-0.4-0.1-0.5-0.3l-6.4-11.2c-0.2-0.3-0.1-0.7,0.2-0.8c0.3-0.2,0.7-0.1,0.8,0.2
			l6.4,11.2c0.2,0.3,0.1,0.7-0.2,0.8C-318.7,18.3-318.8,18.3-318.9,18.3L-318.9,18.3z"/>
	</g>
	<g>
		<path fill="#0071BB" d="M-302.5,13.9c-0.3,0-0.6-0.3-0.6-0.6V0.5c0-0.3,0.3-0.6,0.6-0.6c0.3,0,0.6,0.3,0.6,0.6v12.9
			C-301.9,13.7-302.2,13.9-302.5,13.9L-302.5,13.9z"/>
	</g>
</g>
<g>
	<g>
		<path fill="#338DC9" d="M858.1,91.1c-0.5,0-0.9,0.4-0.9,0.9c0,0.5,0.4,0.9,0.9,0.9h18.8c0.5,0,0.9-0.4,0.9-0.9
			c0-0.5-0.4-0.9-0.9-0.9H858.1L858.1,91.1z"/>
	</g>
</g>
<path fill="#0071BB" d="M844.1,45.1c0-13,10.5-23.4,23.4-23.4c13,0,23.4,10.5,23.4,23.4c0,0.8-0.6,11.6-9.4,23
	c-2.6,3.4-2.2,10.3-2.1,10.3c-3.6,0-6.6,0-10.3,0c-1.1,0-2.2,0-3.3,0c-3.6,0-6.7,0-10.3,0c0,0,0.5-6.9-2.1-10.3
	C844.6,56.6,844.1,45.8,844.1,45.1z"/>
<path fill="#338DC9" d="M867.5,78.4c-3.6,0-8.3,0-12,0c0,0,0.5-6.9-2.1-10.3c-8.8-11.4-9.4-22.2-9.4-23c0-13,10.5-23.4,23.4-23.4"/>
<g>
	<path fill="#338DC9" d="M886,45h-2.1c0-9-7.4-16.4-16.4-16.4v-2.1C877.7,26.6,886,34.9,886,45L886,45z"/>
</g>
<g>
	<g>
		<g>
			<polygon fill="#FFFFFF" points="872.6,80.2 870.6,79.9 874.6,55.6 876.6,56 872.6,80.2 			"/>
		</g>
		<g>
			<polygon fill="#FFFFFF" points="862.4,80.2 858.4,56 860.4,55.6 864.4,79.9 862.4,80.2 			"/>
		</g>
	</g>
	<g>
		<path fill="#FFFFFF" d="M875.5,59c-0.8,0-1.2-0.8-1.5-1.4c-0.1-0.2-0.3-0.8-0.5-0.8c-0.1,0-0.3,0.5-0.4,0.7
			c-0.2,0.6-0.6,1.5-1.6,1.5c-0.6,0-0.9-0.6-1.3-1.3c-0.1-0.3-0.4-0.7-0.6-0.9c-0.1,0.2-0.4,0.5-0.5,0.7c-0.4,0.7-0.8,1.4-1.5,1.4
			c-0.6,0-1-0.7-1.4-1.4c-0.1-0.2-0.4-0.6-0.5-0.8c-0.2,0.2-0.4,0.6-0.5,0.8c-0.4,0.7-0.8,1.3-1.4,1.3c-0.7,0-1.1-0.7-1.6-1.5
			c-0.1-0.2-0.3-0.6-0.5-0.7c-0.2,0.1-0.3,0.3-0.5,0.8c-0.2,0.6-0.5,1.4-1.4,1.4v-1.1c0.1,0,0.3-0.5,0.4-0.7
			c0.2-0.6,0.6-1.5,1.6-1.5c0.6,0,0.9,0.6,1.3,1.3c0.2,0.3,0.4,0.7,0.6,0.9c0.1-0.2,0.4-0.5,0.5-0.7c0.4-0.7,0.8-1.4,1.5-1.4
			c0.6,0,1,0.7,1.4,1.4c0.1,0.2,0.4,0.6,0.5,0.8c0.2-0.2,0.4-0.6,0.5-0.8c0.4-0.7,0.8-1.3,1.4-1.3c0.7,0,1.1,0.7,1.6,1.5
			c0.1,0.2,0.3,0.6,0.5,0.7c0.2-0.1,0.3-0.3,0.5-0.8c0.2-0.6,0.5-1.4,1.4-1.4c0.8,0,1.2,0.8,1.5,1.4c0.1,0.3,0.3,0.8,0.5,0.8V59
			L875.5,59z"/>
	</g>
</g>
<path fill="#0071BB" d="M879.4,78.4v12.3c0,0.8-0.7,1.5-1.5,1.5h-20.8c-0.8,0-1.5-0.7-1.5-1.5V78.4H879.4z"/>
<g>
	<g>
		<line fill="#338DC9" x1="879.9" y1="79.6" x2="855.1" y2="79.6"/>
		<path fill="#338DC9" d="M879.9,80.8h-24.8c-0.7,0-1.2-0.5-1.2-1.2c0-0.7,0.5-1.2,1.2-1.2h24.8c0.7,0,1.2,0.5,1.2,1.2
			C881.1,80.2,880.6,80.8,879.9,80.8L879.9,80.8z"/>
	</g>
	<g>
		<line fill="#338DC9" x1="879.9" y1="83.6" x2="855.1" y2="83.6"/>
		<path fill="#338DC9" d="M879.9,84.8h-24.8c-0.7,0-1.2-0.5-1.2-1.2c0-0.7,0.5-1.2,1.2-1.2h24.8c0.7,0,1.2,0.5,1.2,1.2
			C881.1,84.2,880.6,84.8,879.9,84.8L879.9,84.8z"/>
	</g>
	<g>
		<line fill="#338DC9" x1="879.9" y1="87.6" x2="855.1" y2="87.6"/>
		<path fill="#338DC9" d="M879.9,88.8h-24.8c-0.7,0-1.2-0.5-1.2-1.2c0-0.7,0.5-1.2,1.2-1.2h24.8c0.7,0,1.2,0.5,1.2,1.2
			C881.1,88.2,880.6,88.8,879.9,88.8L879.9,88.8z"/>
	</g>
</g>
<g>
	<g>
		<path fill="#0071BB" d="M867.5,14c-0.3,0-0.6-0.3-0.6-0.6V0.5c0-0.3,0.3-0.6,0.6-0.6c0.3,0,0.6,0.3,0.6,0.6v12.9
			C868.1,13.7,867.8,14,867.5,14L867.5,14z"/>
	</g>
	<g>
		<path fill="#0071BB" d="M851.1,18.4c-0.2,0-0.4-0.1-0.5-0.3l-6.4-11.2c-0.2-0.3-0.1-0.7,0.2-0.8c0.3-0.2,0.7-0.1,0.8,0.2l6.4,11.2
			c0.2,0.3,0.1,0.7-0.2,0.8C851.3,18.3,851.2,18.4,851.1,18.4L851.1,18.4z"/>
	</g>
	<g>
		<path fill="#0071BB" d="M839.1,30.4c-0.1,0-0.2,0-0.3-0.1l-11.2-6.4c-0.3-0.2-0.4-0.5-0.2-0.8c0.2-0.3,0.5-0.4,0.8-0.2l11.2,6.4
			c0.3,0.2,0.4,0.5,0.2,0.8C839.5,30.3,839.3,30.4,839.1,30.4L839.1,30.4z"/>
	</g>
	<g>
		<path fill="#0071BB" d="M834.7,46.8h-12.9c-0.3,0-0.6-0.3-0.6-0.6c0-0.3,0.3-0.6,0.6-0.6h12.9c0.3,0,0.6,0.3,0.6,0.6
			C835.3,46.5,835,46.8,834.7,46.8L834.7,46.8z"/>
	</g>
	<g>
		<path fill="#0071BB" d="M907.1,69.6c-0.1,0-0.2,0-0.3-0.1l-11.2-6.4c-0.3-0.2-0.4-0.5-0.2-0.8c0.2-0.3,0.5-0.4,0.8-0.2l11.2,6.4
			c0.3,0.2,0.4,0.5,0.2,0.8C907.5,69.5,907.3,69.6,907.1,69.6L907.1,69.6z"/>
	</g>
	<g>
		<path fill="#0071BB" d="M913.2,46.8h-12.9c-0.3,0-0.6-0.3-0.6-0.6c0-0.3,0.3-0.6,0.6-0.6h12.9c0.3,0,0.6,0.3,0.6,0.6
			C913.8,46.5,913.6,46.8,913.2,46.8L913.2,46.8z"/>
	</g>
	<g>
		<path fill="#0071BB" d="M895.9,30.4c-0.2,0-0.4-0.1-0.5-0.3c-0.2-0.3-0.1-0.7,0.2-0.8l11.2-6.4c0.3-0.2,0.7-0.1,0.8,0.2
			c0.2,0.3,0.1,0.7-0.2,0.8l-11.2,6.4C896.1,30.3,896,30.4,895.9,30.4L895.9,30.4z"/>
	</g>
	<g>
		<path fill="#0071BB" d="M883.9,18.4c-0.1,0-0.2,0-0.3-0.1c-0.3-0.2-0.4-0.5-0.2-0.8l6.4-11.2c0.2-0.3,0.5-0.4,0.8-0.2
			c0.3,0.2,0.4,0.5,0.2,0.8l-6.4,11.2C884.3,18.3,884.1,18.4,883.9,18.4L883.9,18.4z"/>
	</g>
	<g>
		<path fill="#0071BB" d="M867.5,14c-0.3,0-0.6-0.3-0.6-0.6V0.5c0-0.3,0.3-0.6,0.6-0.6c0.3,0,0.6,0.3,0.6,0.6v12.9
			C868.1,13.7,867.8,14,867.5,14L867.5,14z"/>
	</g>
</g>
<g>
	<g>
		<path fill="#0071BB" d="M867.5,14c-0.3,0-0.6-0.3-0.6-0.6V0.5c0-0.3,0.3-0.6,0.6-0.6c0.3,0,0.6,0.3,0.6,0.6v12.9
			C868.1,13.7,867.8,14,867.5,14L867.5,14z"/>
	</g>
	<g>
		<path fill="#0071BB" d="M883.9,18.4c-0.1,0-0.2,0-0.3-0.1c-0.3-0.2-0.4-0.5-0.2-0.8l6.4-11.2c0.2-0.3,0.5-0.4,0.8-0.2
			c0.3,0.2,0.4,0.5,0.2,0.8l-6.4,11.2C884.3,18.3,884.1,18.4,883.9,18.4L883.9,18.4z"/>
	</g>
	<g>
		<path fill="#0071BB" d="M895.9,30.4c-0.2,0-0.4-0.1-0.5-0.3c-0.2-0.3-0.1-0.7,0.2-0.8l11.2-6.4c0.3-0.2,0.7-0.1,0.8,0.2
			c0.2,0.3,0.1,0.7-0.2,0.8l-11.2,6.4C896.1,30.4,896,30.4,895.9,30.4L895.9,30.4z"/>
	</g>
	<g>
		<path fill="#0071BB" d="M913.2,46.8h-12.9c-0.3,0-0.6-0.3-0.6-0.6c0-0.3,0.3-0.6,0.6-0.6h12.9c0.3,0,0.6,0.3,0.6,0.6
			C913.8,46.5,913.6,46.8,913.2,46.8L913.2,46.8z"/>
	</g>
	<g>
		<path fill="#0071BB" d="M827.9,69.6c-0.2,0-0.4-0.1-0.5-0.3c-0.2-0.3-0.1-0.7,0.2-0.8l11.2-6.4c0.3-0.2,0.7-0.1,0.8,0.2
			c0.2,0.3,0.1,0.7-0.2,0.8l-11.2,6.4C828.1,69.6,828,69.6,827.9,69.6L827.9,69.6z"/>
	</g>
	<g>
		<path fill="#0071BB" d="M834.7,46.8h-12.9c-0.3,0-0.6-0.3-0.6-0.6c0-0.3,0.3-0.6,0.6-0.6h12.9c0.3,0,0.6,0.3,0.6,0.6
			C835.3,46.5,835,46.8,834.7,46.8L834.7,46.8z"/>
	</g>
	<g>
		<path fill="#0071BB" d="M839.1,30.4c-0.1,0-0.2,0-0.3-0.1l-11.2-6.4c-0.3-0.2-0.4-0.5-0.2-0.8c0.2-0.3,0.5-0.4,0.8-0.2l11.2,6.4
			c0.3,0.2,0.4,0.5,0.2,0.8C839.5,30.3,839.3,30.4,839.1,30.4L839.1,30.4z"/>
	</g>
	<g>
		<path fill="#0071BB" d="M851.1,18.4c-0.2,0-0.4-0.1-0.5-0.3l-6.4-11.2c-0.2-0.3-0.1-0.7,0.2-0.8c0.3-0.2,0.7-0.1,0.8,0.2l6.4,11.2
			c0.2,0.3,0.1,0.7-0.2,0.8C851.3,18.3,851.2,18.4,851.1,18.4L851.1,18.4z"/>
	</g>
	<g>
		<path fill="#0071BB" d="M867.5,14c-0.3,0-0.6-0.3-0.6-0.6V0.5c0-0.3,0.3-0.6,0.6-0.6c0.3,0,0.6,0.3,0.6,0.6v12.9
			C868.1,13.7,867.8,14,867.5,14L867.5,14z"/>
	</g>
</g>
<g>
	<g>
		<g>
			<path fill="#0072BC" d="M-643.3,13.4h-9.6L-663.3,0h-33.3l-10.5,13.4h-34.6c-4.1,0-7.4,3.3-7.4,7.4v64.4c0,4.1,3.3,7.4,7.4,7.4
				h98.5c4.1,0,7.4-3.3,7.4-7.4V20.7C-635.9,16.7-639.2,13.4-643.3,13.4z"/>
			<path fill="#FFFFFF" d="M-653.6,52.9c0,14.5-11.8,26.3-26.3,26.3c-14.6,0-26.3-11.8-26.3-26.3c0-14.6,11.8-26.4,26.3-26.4
				C-665.4,26.6-653.6,38.4-653.6,52.9z"/>
			<path fill="#0E303F" d="M-657.2,52.9c0,12.6-10.2,22.8-22.8,22.8c-12.6,0-22.8-10.2-22.8-22.8c0-12.6,10.2-22.8,22.8-22.8
				C-667.4,30.1-657.2,40.3-657.2,52.9z"/>
			<path fill="#80B8DD" d="M-663,52.9c0,9.3-7.6,16.9-16.9,16.9c-9.4,0-16.9-7.6-16.9-16.9c0-9.4,7.6-16.9,16.9-16.9
				C-670.6,36-663,43.6-663,52.9z"/>
			<path fill="#FFFFFF" d="M-679.1,46c0,3.3-2.7,6-6,6c-3.3,0-6-2.7-6-6c0-3.3,2.7-6,6-6C-681.8,40-679.1,42.7-679.1,46z"/>
			<path fill="#FFFFFF" d="M-687.9,55.4c0,1.9-1.5,3.4-3.4,3.4c-1.9,0-3.4-1.5-3.4-3.4c0-1.9,1.5-3.4,3.4-3.4
				C-689.4,52-687.9,53.5-687.9,55.4z"/>
			<path fill="#175079" d="M-739.1,18.4c-2.8,0-5.3-1.6-6.5-3.9c-2.1,1.3-3.5,3.6-3.5,6.3v64.4c0,4.1,3.3,7.4,7.4,7.4h20.6V18.4
				H-739.1z"/>
			<path fill="#175079" d="M-721.1,13.2c0,1.2-1,2.1-2.1,2.1h-14.4c-1.2,0-2.1-1-2.1-2.1v-1.1c0-1.2,1-2.1,2.1-2.1h14.4
				c1.2,0,2.1,1,2.1,2.1V13.2z"/>
			<path fill="#FFFFFF" d="M-664.2,9.2c0,1.2-1,2.2-2.2,2.2H-694c-1.2,0-2.2-1-2.2-2.2V4.8c0-1.2,1-2.2,2.2-2.2h27.6
				c1.2,0,2.2,1,2.2,2.2V9.2z"/>
		</g>
	</g>
</g>
<g>
	<path fill="#0071BB" d="M-80.7,69.3c-4.5,3.4-6.7,7.4-6.7,12c0,3.5,1.3,6.3,4,8.5c2.7,2.1,5.8,3.2,9.5,3.2c2.9,0,6.2-0.8,9.8-2.4
		c1.7-0.7,3.5-1.6,5.3-2.7v-3.1c-0.8,0.5-1.6,0.9-2.4,1.3c-2.8,1.4-5.2,2.1-7.3,2.1c-2.3,0-4.3-0.9-5.7-2.6c-1.5-1.7-2.2-4-2.2-6.8
		c0-7.1,5.7-12.9,17.2-17.6l0.4-0.2v-3.1l-3.5,1.4C-70,62.6-76.2,65.9-80.7,69.3z M-63.1,34.8c-7.6,0-13.2,1.4-16.8,4.4
		c-3.6,2.9-5.4,5.6-5.4,8.1c0,2.6,1.3,3.9,4.1,3.9c3,0,4.9-2.3,5.6-6.8c0.8-4.4,4.5-6.6,11.1-6.6c2.2,0,4.1,0.3,5.7,0.9V35
		C-60.1,34.9-61.5,34.8-63.1,34.8z"/>
	<path fill="#0071BB" d="M-138.3,28.5V0h-1.2l-26.2,62.6c-1.9,4.5-3,7.1-3.2,7.7c-2.8,7-5.1,11.7-7.1,13.9c-2,2.2-4.9,3.6-8.9,4.2
		v3.1h26.8v-3.1c-2.9,0-5.2-0.7-7.1-2.1c-1.8-1.4-2.8-3.5-2.8-6.2c0-2.5,1.7-7.9,5.2-16.2l2.3-5.7h22.1v-3h-20.8l15.9-38.5
		L-138.3,28.5z"/>
	<path fill="#175079" d="M-91.8,88.5v3.1h-35.5v-3.1c4.3,0,7.3-0.3,8.8-1c1.5-0.6,2.3-1.9,2.3-3.8c0-1-1-3.9-3.1-8.7l-6.9-16.7
		h-12.2v-3h11.1l-11.1-26.7V0h1.4l30.2,71.7l4.1,9.4c0.9,2.1,2.2,3.8,3.8,5C-97.3,87.4-94.9,88.2-91.8,88.5z"/>
	<path fill="#175079" d="M-30.1,81.5c-0.4,7.6-4.1,11.4-11.2,11.4c-3,0-5.4-0.8-7.2-2.4c-1.8-1.6-2.9-4-3.4-7.1
		c-2.4,1.7-4.7,3.2-6.8,4.4v-3.1c2.1-1.3,4.4-2.9,6.8-4.9V58.2l-6.8,2.8v-3.1l6.8-2.8v-2.7c0-3.8-0.2-6.5-0.7-8.2s-1.8-3.2-3.8-4.5
		c-0.7-0.5-1.5-0.8-2.3-1.1V35c3.6,0.4,6.5,1.2,8.8,2.5c3.1,1.8,5.2,3.8,6.2,6.1c1,2.3,1.5,5.7,1.5,10.4v22c0,5.2,0.3,8.5,0.8,9.9
		c0.5,1.5,1.7,2.2,3.5,2.2c2.9,0,4.8-2.2,5.5-6.5H-30.1z"/>
</g>
<g>
	<g>
		<path fill="#0072BC" d="M-516.5,24.4c-21,0-37.9,13.4-37.9,29.9c0,11.9,8.9,22.2,21.7,27c-0.3,0.5-0.5,1.1-0.8,1.6
			c-2.5,4.2-6.2,7.4-10.5,9.5c9.7,0.7,18.6-2.2,24.6-8.3c1,0.1,2,0.1,3,0.1c20.9,0,37.9-13.4,37.9-29.9
			C-478.6,37.8-495.5,24.4-516.5,24.4z"/>
		<path fill="#175079" d="M-490.4,76c-23.5-0.5-42.3-15.7-42.3-34.3c0-5.8,1.8-11.2,5-16c3.5-0.9,7.3-1.3,11.1-1.3
			c20.9,0,37.9,13.4,37.9,29.9C-478.6,62.9-483.1,70.6-490.4,76z"/>
		<path fill="#99C6E4" d="M-484.1-0.1c24,0,43.5,15.4,43.5,34.3c0,13.7-10.2,25.5-24.9,31c0.3,0.6,0.5,1.2,0.9,1.8
			c2.9,4.8,7.1,8.5,12.1,10.9c-11.1,0.8-21.4-2.5-28.2-9.5c-1.1,0.1-2.3,0.1-3.4,0.1c-24,0-43.5-15.4-43.5-34.3
			S-508.1-0.1-484.1-0.1z"/>
		<path fill="#CCE3F1" d="M-440.6,34.3c-0.1,13.6-10.2,25.4-24.9,30.9c0.3,0.6,0.5,1.2,0.9,1.8c2.9,4.8,7.1,8.5,12.1,10.9
			c-11.1,0.8-21.4-2.5-28.2-9.5c-1.1,0.1-2.3,0.1-3.4,0.1c-24,0-43.4-15.3-43.5-34.2H-440.6z"/>
		<g>
			<g>
				<path fill="#1980C2" d="M-471.6,34.8c0,3.4,2.7,6.1,6.1,6.1c3.4,0,6.1-2.7,6.1-6.1c0-3.4-2.7-6.1-6.1-6.1
					C-468.9,28.7-471.6,31.5-471.6,34.8z"/>
				<path fill="#1980C2" d="M-490.3,34.8c0,3.4,2.7,6.1,6.1,6.1c3.4,0,6.1-2.7,6.1-6.1c0-3.4-2.7-6.1-6.1-6.1
					C-487.6,28.7-490.3,31.5-490.3,34.8z"/>
				<path fill="#1980C2" d="M-509.1,34.8c0,3.4,2.7,6.1,6.1,6.1c3.4,0,6.1-2.7,6.1-6.1c0-3.4-2.7-6.1-6.1-6.1
					C-506.3,28.7-509.1,31.5-509.1,34.8z"/>
			</g>
			<g>
				<path fill="#0072BC" d="M-459.4,34.3h-12.1c0.3-3.1,2.9-5.6,6.1-5.6C-462.3,28.7-459.7,31.2-459.4,34.3z"/>
				<path fill="#0072BC" d="M-478.2,34.3h-12.1c0.3-3.1,2.9-5.6,6.1-5.6C-481,28.7-478.4,31.2-478.2,34.3z"/>
				<path fill="#0072BC" d="M-496.9,34.3H-509c0.3-3.1,2.9-5.6,6.1-5.6C-499.8,28.7-497.2,31.2-496.9,34.3z"/>
			</g>
		</g>
	</g>
</g>
<path fill="#B06E59" d="M427,85.1c-0.1-0.2-0.2-0.5-0.3-0.7C426.9,84.6,426.9,84.8,427,85.1z"/>
<g>
	<g>
		<g>
			<g>
				<path fill="#30363D" d="M219.6,87.2c-0.9,0-1.7-0.3-2.3-1c-0.6-0.6-1-1.4-1-2.3l0-80.6c0-0.9,0.3-1.7,1-2.3c0.6-0.6,1.4-1,2.3-1
					h127.5c0.9,0,1.7,0.3,2.3,1c0.6,0.6,1,1.4,1,2.3v80.6c0,0.9-0.3,1.7-1,2.3c-0.6,0.6-1.4,1-2.3,1H219.6z"/>
				<path fill="#30363D" d="M349.5,1c-0.6-0.6-1.5-1-2.3-1H219.6c-0.9,0-1.7,0.3-2.3,1c-0.6,0.6-1,1.5-1,2.3l0,80.6
					c0,0.9,0.3,1.7,1,2.3c0.6,0.6,1.5,1,2.3,1h127.5c0.9,0,1.7-0.3,2.3-1c0.6-0.6,1-1.5,1-2.3V3.3C350.4,2.4,350.1,1.6,349.5,1z
					 M350.3,83.9c0,0.8-0.3,1.6-0.9,2.2c-0.6,0.6-1.4,0.9-2.2,0.9H219.6c-0.8,0-1.6-0.3-2.2-0.9c-0.6-0.6-0.9-1.4-0.9-2.2l0-80.6
					c0-0.8,0.3-1.6,0.9-2.2c0.6-0.6,1.4-0.9,2.2-0.9h127.5c0.8,0,1.6,0.3,2.2,0.9c0.6,0.6,0.9,1.4,0.9,2.2V83.9z"/>
			</g>
		</g>
	</g>
	<g>
		<g>
			<rect x="222.2" y="5.9" fill="#FFFFFF" width="122.4" height="80.6"/>
		</g>
	</g>
	<path fill="#565E6A" d="M366.7,84.3c0-0.4-1.6-0.7-2-0.7h-6h-1H202c-0.4,0-2,0.2-2,0.7v5.9h0c2.2,2.7,3.9,2.1,5.1,2.3h12.2l1.8,0v0
		l64.2,0l66,0h12.2c1.1-0.1,2.9,0.4,5.1-2.3h0c0-0.1,0-0.1,0-0.2L366.7,84.3L366.7,84.3z"/>
	<g>
		<rect x="224.9" y="22.1" fill="#0072BC" width="35.7" height="18.6"/>
		<rect x="265.1" y="22.1" fill="#174F78" width="35.7" height="18.6"/>
		<rect x="305.3" y="22.1" fill="#8FC1E1" width="35.7" height="18.6"/>
		<rect x="224.9" y="46" fill="#0072BC" width="35.7" height="4"/>
		<rect x="265.1" y="46" fill="#174F78" width="35.7" height="4"/>
		<rect x="305.3" y="46" fill="#8FC1E1" width="35.7" height="4"/>
		<g>
			<rect x="234.8" y="10.9" fill="#CDD5D7" width="23.8" height="2.6"/>
			<circle fill="#CDD5D7" cx="228.3" cy="12.2" r="3.4"/>
		</g>
		<rect x="329.1" y="11.7" fill="#CDD5D7" width="11.8" height="1.1"/>
		<rect x="315.9" y="11.7" fill="#CDD5D7" width="11.8" height="1.1"/>
		<rect x="302.6" y="11.7" fill="#CDD5D7" width="11.8" height="1.1"/>
		<rect x="289.4" y="11.7" fill="#CDD5D7" width="11.8" height="1.1"/>
		<rect x="276.1" y="11.7" fill="#CDD5D7" width="11.8" height="1.1"/>
		<g>
			<rect x="224.9" y="60.3" fill="#CDD5D7" width="35.7" height="1"/>
			<rect x="224.9" y="63.9" fill="#CDD5D7" width="35.7" height="1"/>
			<rect x="224.9" y="67.6" fill="#CDD5D7" width="35.7" height="1"/>
			<rect x="224.9" y="71.2" fill="#CDD5D7" width="35.7" height="1"/>
			<rect x="224.9" y="74.8" fill="#CDD5D7" width="25.5" height="1"/>
			<rect x="224.9" y="54.2" fill="#CDD5D7" width="23.8" height="2.6"/>
		</g>
		<g>
			<rect x="265.1" y="60.3" fill="#CDD5D7" width="35.7" height="1"/>
			<rect x="265.1" y="63.9" fill="#CDD5D7" width="35.7" height="1"/>
			<rect x="265.1" y="67.6" fill="#CDD5D7" width="35.7" height="1"/>
			<rect x="265.1" y="71.2" fill="#CDD5D7" width="35.7" height="1"/>
			<rect x="265.1" y="74.8" fill="#CDD5D7" width="25.5" height="1"/>
			<rect x="265.1" y="54.2" fill="#CDD5D7" width="23.8" height="2.6"/>
		</g>
		<g>
			<rect x="305.3" y="60.3" fill="#CDD5D7" width="35.7" height="1"/>
			<rect x="305.3" y="63.9" fill="#CDD5D7" width="35.7" height="1"/>
			<rect x="305.3" y="67.6" fill="#CDD5D7" width="35.7" height="1"/>
			<rect x="305.3" y="71.2" fill="#CDD5D7" width="35.7" height="1"/>
			<rect x="305.3" y="74.8" fill="#CDD5D7" width="25.5" height="1"/>
			<rect x="305.3" y="54.2" fill="#CDD5D7" width="23.8" height="2.6"/>
		</g>
	</g>
	<g>
		<g>
			<g>
				<path fill="#DAE1DB" d="M354.9,87.2c0,0.1-0.1,0.2-0.2,0.2h-4.9c-0.1,0-0.2-0.1-0.2-0.2c0-0.1,0.1-0.2,0.2-0.2h4.9
					C354.8,87,354.9,87.1,354.9,87.2z"/>
			</g>
		</g>
		<g>
			<g>
				<path fill="#DAE1DB" d="M359.8,86.5c0.4,0,0.7,0.3,0.7,0.7c0,0.4-0.3,0.7-0.7,0.7c-0.4,0-0.7-0.3-0.7-0.7
					C359.1,86.8,359.5,86.5,359.8,86.5z"/>
			</g>
			<g>
				<path fill="#DAE1DB" d="M357.7,86.5c0.4,0,0.7,0.3,0.7,0.7c0,0.4-0.3,0.7-0.7,0.7s-0.7-0.3-0.7-0.7
					C357,86.8,357.4,86.5,357.7,86.5z"/>
			</g>
		</g>
	</g>
	<g>
		<g>
			<path fill="#DAE1DB" d="M205.7,88.2c0,0.1-0.1,0.2-0.2,0.2h0c-0.1,0-0.2-0.1-0.2-0.2v-2c0-0.1,0.1-0.2,0.2-0.2h0
				c0.1,0,0.2,0.1,0.2,0.2V88.2z"/>
		</g>
		<g>
			<path fill="#DAE1DB" d="M206.8,88.2c0,0.1-0.1,0.2-0.2,0.2h0c-0.1,0-0.2-0.1-0.2-0.2v-2c0-0.1,0.1-0.2,0.2-0.2h0
				c0.1,0,0.2,0.1,0.2,0.2V88.2z"/>
		</g>
		<g>
			<path fill="#DAE1DB" d="M207.9,88.2c0,0.1-0.1,0.2-0.2,0.2h0c-0.1,0-0.2-0.1-0.2-0.2v-2c0-0.1,0.1-0.2,0.2-0.2h0
				c0.1,0,0.2,0.1,0.2,0.2V88.2z"/>
		</g>
		<g>
			<path fill="#DAE1DB" d="M209.1,88.2c0,0.1-0.1,0.2-0.2,0.2h0c-0.1,0-0.2-0.1-0.2-0.2v-2c0-0.1,0.1-0.2,0.2-0.2h0
				c0.1,0,0.2,0.1,0.2,0.2V88.2z"/>
		</g>
	</g>
</g>
<path fill="#B06E59" d="M430.7,84.7c-0.1-0.2-0.2-0.5-0.3-0.7C430.5,84.2,430.6,84.4,430.7,84.7z"/>
<g>
	<path fill="#B06E59" d="M509.5,1.1c0.5,0.1,1.1,0.2,1.6,0.3C510.6,1.3,510,1.2,509.5,1.1z"/>
	<path fill="#B06E59" d="M512.2,1.7c0.2,0.1,0.5,0.2,0.7,0.3C512.7,1.9,512.4,1.8,512.2,1.7z"/>
	<path fill="#B06E59" d="M511.1,1.4c0.3,0.1,0.6,0.2,0.9,0.3C511.7,1.6,511.4,1.5,511.1,1.4z"/>
	<path fill="#2E6186" d="M522.1,9.8c-0.5-2-1.4-3.8-2.9-5.2c-1.4-1.4-3.2-2.4-5.2-2.9c-4.1-0.9-8.3-1.4-12.7-1.4
		c-0.9,0-1.9,0-2.8,0.1c2.7,1.1,5.2,2.4,7.7,3.9c5.1,3.1,9.6,6.9,13.5,11.4c-0.7,3.1-1.9,6.4-3.3,9.7c-5.1-7.5-11.9-13.7-19.8-18.1
		c-3.6-2-7.4-3.6-11.4-4.8c-0.2,0-0.4,0.1-0.5,0.1c-12.1,3.3-23.3,9.7-32.2,18.7c-6.3,6.3-11.4,13.7-15.1,22c0,0,0,0,0,0.1
		c3.1,2,5.9,4.3,8.7,6.7c9,8.1,16.1,18.3,20.4,29.9c-4.6,2.8-9.1,5.1-13.5,6.8c-3.2-8.5-8-16.3-13.9-23c-2-2.2-4-4.3-6.2-6.3
		c-1.8,8.7-1.8,17.5,0.1,25.5c0.5,2,1.4,3.8,2.9,5.2c1.4,1.4,3.2,2.4,5.2,2.9c4.1,0.9,8.3,1.4,12.7,1.4c0,0,0,0,0,0
		c17.5,0,35.8-7.8,48.9-20.9C519.2,54.7,526.9,30.5,522.1,9.8z"/>
	<path fill="#5B1E10" d="M439.1,63.7c1.8-4.5,4.2-9.1,6.9-13.7c4.2-6.9,9.4-13.6,15.5-19.7c10.6-10.6,23.3-18.6,35.1-23.1
		c3.3-1.3,6.5-2.2,9.7-2.9c3.3-0.7,6.5-1.2,9.5-1.2c0,0,0.1,0,0.1,0c0.6,0,1.2,0.1,1.7,0.2c-1.1-0.7-2.3-1.3-3.6-1.6
		c-1.1-0.2-2.1-0.5-3.2-0.6c-1.7,0.2-3.4,0.5-5.1,0.9c-3.2,0.7-6.6,1.7-10,3c-12.8,4.9-25.5,13.3-35.9,23.6
		c-6,6-11.4,12.8-15.8,20.1c-2.8,4.6-5.2,9.3-7.1,14c-2.4,5.9-4,11.6-4.6,16.9c0.2,1.1,0.4,2.1,0.6,3.2c0.3,1.3,0.8,2.5,1.6,3.6
		c-0.2-0.6-0.3-1.2-0.2-1.9C434.4,78.4,436,71.2,439.1,63.7z"/>
	<path fill="#0072BC" d="M522.1,9.8c-0.3-1.3-0.8-2.5-1.6-3.6c0.2,0.6,0.3,1.2,0.2,1.9c0,2.5-0.4,5-1,7.7c-0.7,3.1-1.9,6.4-3.3,9.7
		C511.3,36.9,502.1,49,491.1,60c-7.9,7.9-16.3,14.8-24.7,20c-4.6,2.8-9.1,5.1-13.5,6.8c-4.8,1.8-9.4,2.8-13.7,2.9c0,0-0.1,0-0.1,0
		c-0.6,0-1.2-0.1-1.7-0.2c1.1,0.7,2.3,1.3,3.6,1.6c1,0.2,2,0.4,3,0.6c3.1-0.5,6.4-1.3,9.9-2.6c4.4-1.7,9.1-4,13.9-7
		c8.2-5.1,16.9-12.1,25.1-20.3c11.8-11.8,20.7-24,25.7-35.3c1.6-3.5,2.7-6.9,3.5-10.1c0.3-1.2,0.5-2.3,0.7-3.5
		C522.5,11.8,522.3,10.8,522.1,9.8z"/>
	<path fill="#99C6E4" d="M506.2,4.3c-2.4-1.5-5-2.8-7.7-3.9c-0.2,0-0.5,0-0.7,0c-4.2,0.2-8.4,0.9-12.7,2c4,1.2,7.8,2.8,11.4,4.8
		c7.9,4.4,14.7,10.6,19.8,18.1c1.5-3.3,2.6-6.5,3.3-9.7C515.8,11.3,511.3,7.4,506.2,4.3z"/>
	<path fill="#99C6E4" d="M446,50c-2.7-2.4-5.6-4.7-8.7-6.7c-2,4.5-3.5,9.2-4.5,13.9c0,0.1,0,0.1,0,0.2c2.2,2,4.3,4.1,6.2,6.3
		c5.9,6.7,10.6,14.5,13.9,23c4.4-1.6,8.9-3.9,13.5-6.8C462.1,68.4,455,58.1,446,50z"/>
	<path fill="#B06E59" d="M432.9,82.9c-0.1-0.5-0.2-1-0.3-1.6C432.7,81.8,432.8,82.4,432.9,82.9z"/>
	<path fill="#B06E59" d="M433.2,83.8c-0.1-0.3-0.2-0.6-0.2-0.9C433,83.2,433.1,83.5,433.2,83.8z"/>
	<path fill="#B06E59" d="M512.4,1.4c0.5,0.1,1.1,0.2,1.6,0.3C513.5,1.6,513,1.5,512.4,1.4z"/>
	<path fill="#B06E59" d="M432.6,81.2c-0.1-0.5-0.2-1-0.3-1.5C432.4,80.2,432.5,80.7,432.6,81.2z"/>
	<path fill="#B06E59" d="M515.1,2.1c0.2,0.1,0.5,0.2,0.7,0.3C515.6,2.2,515.4,2.2,515.1,2.1z"/>
	<path fill="#B06E59" d="M514,1.7c0.3,0.1,0.6,0.2,0.9,0.2C514.6,1.9,514.3,1.8,514,1.7z"/>
	<path fill="#457393" d="M434.2,84.6c0,0.7,0.1,1.3,0.2,1.9c-0.4-0.5-0.7-1.1-0.9-1.7c0.5,1.2,1.3,2.3,2.2,3.2c0,0,0,0,0,0L447.8,76
		c-2.5-4.4-5.5-8.5-8.8-12.3C436,71.2,434.4,78.4,434.2,84.6z"/>
	<path fill="#457393" d="M449.9,40.2c-0.1-0.5,0-1.1,0.4-1.5c0.5-0.7,1-1.3,1.6-2c-0.7-0.5-1.5-0.9-2.3-1.2
		c-0.5-0.2-0.7-0.8-0.5-1.3c0.2-0.5,0.8-0.7,1.3-0.5c1,0.4,1.9,0.9,2.8,1.5c0.6-0.7,1.2-1.4,1.8-2.1c-0.7-0.4-1.5-0.8-2.3-1.2
		c-0.5-0.2-0.8-0.8-0.6-1.3c0.2-0.5,0.8-0.8,1.3-0.6c1,0.4,2,0.9,3,1.5c0.7-0.7,1.4-1.5,2.1-2.2c-0.7-0.4-1.5-0.8-2.3-1.1
		c-0.5-0.2-0.8-0.8-0.6-1.3c0.2-0.5,0.8-0.8,1.3-0.6c1.1,0.4,2.1,0.9,3,1.5c0.6-0.6,1.3-1.2,1.9-1.9c-0.7-0.4-1.5-0.8-2.3-1.1
		c-0.5-0.2-0.8-0.8-0.6-1.3c0.2-0.5,0.8-0.8,1.3-0.6c1.1,0.4,2.2,0.9,3.2,1.5c0.7-0.6,1.4-1.3,2.1-1.9c-0.8-0.4-1.5-0.7-2.3-1
		c-0.5-0.2-0.8-0.8-0.6-1.3c0.2-0.5,0.8-0.8,1.3-0.6c1.2,0.4,2.3,0.9,3.3,1.5c0.7-0.6,1.4-1.2,2.2-1.7c-0.7-0.3-1.4-0.6-2.1-0.9
		c-0.5-0.2-0.8-0.7-0.6-1.3c0.2-0.5,0.7-0.8,1.3-0.6c1.1,0.4,2.2,0.9,3.2,1.4c0.8-0.6,1.5-1.1,2.3-1.7c-0.7-0.3-1.4-0.6-2.2-0.8
		c-0.5-0.2-0.8-0.7-0.7-1.3c0.2-0.5,0.7-0.8,1.3-0.7c1.2,0.4,2.3,0.9,3.4,1.5c0.9-0.6,1.7-1.2,2.6-1.7c-0.7-0.3-1.5-0.6-2.3-0.9
		c-0.5-0.2-0.8-0.7-0.7-1.3c0.2-0.5,0.7-0.8,1.3-0.7c1.3,0.4,2.5,0.9,3.7,1.5c1-0.6,2-1.2,3-1.7c-0.5-0.2-0.9-0.3-1.4-0.5
		c-0.5-0.1-0.8-0.7-0.7-1.2c0.1-0.5,0.7-0.8,1.2-0.7c1.1,0.3,2.1,0.7,3.1,1.2c0.6-0.3,1.2-0.6,1.9-1c0.5-0.2,1-0.3,1.5-0.1
		c1.8-0.9,3.6-1.7,5.4-2.4c-2.8-1.3-5.6-2.5-8.6-3.4c-0.2,0-0.4,0.1-0.5,0.1c-12.1,3.3-23.3,9.7-32.2,18.7
		c-6.3,6.3-11.4,13.7-15.1,22c0,0,0,0,0,0.1c2.4,1.6,4.7,3.3,6.9,5.1C446,45.6,447.9,42.8,449.9,40.2z"/>
	<path fill="#457393" d="M437.3,61.8c-1.4-1.5-2.9-3-4.5-4.4c-1.6,7.6-1.7,15.2-0.6,22.3c0.7-5.2,2.2-11,4.6-16.9
		C437,62.5,437.2,62.1,437.3,61.8z"/>
	<path fill="#457393" d="M505.7,2c1.7-0.4,3.4-0.7,5.1-0.9c0.5,0.1,1.1,0.2,1.6,0.3c-3.6-0.7-7.3-1.1-11-1.1c-0.9,0-1.9,0-2.8,0.1
		c1.6,0.7,3.2,1.4,4.7,2.2C504.1,2.4,504.9,2.2,505.7,2z"/>
	<path fill="#457393" d="M496.6,7.2c-2.2,0.8-4.5,1.8-6.8,2.9c0,0.6-0.3,1.3-0.9,1.6c0.5,0.5,1.1,0.9,1.6,1.4c0.4,0.4,0.4,1,0,1.4
		c-0.2,0.2-0.4,0.3-0.7,0.3c-0.3,0-0.5-0.1-0.7-0.3c-0.6-0.7-1.3-1.3-2-1.8c-1.2,0.6-2.4,1.3-3.6,2c0.4,0.4,0.9,0.8,1.3,1.2
		c0.4,0.4,0.4,1-0.1,1.4c-0.2,0.2-0.4,0.3-0.7,0.3c-0.3,0-0.5-0.1-0.7-0.3c-0.5-0.5-1-1-1.6-1.5c-1,0.6-1.9,1.2-2.9,1.8
		c0.6,0.5,1.1,1,1.6,1.6c0.4,0.4,0.3,1-0.1,1.4c-0.2,0.2-0.4,0.3-0.7,0.3c-0.3,0-0.6-0.1-0.7-0.3c-0.6-0.6-1.2-1.2-1.8-1.7
		c-0.9,0.6-1.7,1.2-2.5,1.8c0.6,0.6,1.2,1.2,1.8,1.8c0.4,0.4,0.3,1.1-0.1,1.4c-0.2,0.2-0.4,0.2-0.7,0.2c-0.3,0-0.6-0.1-0.8-0.3
		c-0.6-0.7-1.3-1.3-2-1.9c-0.8,0.6-1.6,1.2-2.4,1.9c0.6,0.6,1.2,1.2,1.8,1.9c0.4,0.4,0.3,1.1-0.1,1.4c-0.2,0.2-0.4,0.2-0.6,0.2
		c-0.3,0-0.6-0.1-0.8-0.4c-0.6-0.7-1.2-1.3-1.8-1.9c-0.8,0.6-1.5,1.3-2.3,2c0.7,0.7,1.4,1.4,2,2.1c0.3,0.4,0.3,1.1-0.1,1.4
		c-0.2,0.2-0.4,0.2-0.6,0.2c-0.3,0-0.6-0.1-0.8-0.4c-0.6-0.7-1.2-1.4-1.9-2c-0.7,0.6-1.4,1.3-2,1.9c0.8,0.7,1.5,1.5,2.2,2.3
		c0.3,0.4,0.3,1.1-0.2,1.4c-0.2,0.1-0.4,0.2-0.6,0.2c-0.3,0-0.6-0.1-0.8-0.4c-0.6-0.8-1.3-1.5-2-2.1c-0.7,0.7-1.4,1.5-2.1,2.2
		c0.8,0.8,1.6,1.6,2.3,2.5c0.3,0.4,0.3,1.1-0.2,1.4c-0.2,0.1-0.4,0.2-0.6,0.2c-0.3,0-0.6-0.1-0.8-0.4c-0.6-0.8-1.3-1.5-2-2.2
		c-0.6,0.7-1.3,1.4-1.9,2.2c0.9,0.8,1.7,1.7,2.4,2.7c0.3,0.4,0.2,1.1-0.2,1.4c-0.2,0.1-0.4,0.2-0.6,0.2c-0.3,0-0.6-0.1-0.8-0.4
		c-0.6-0.8-1.3-1.6-2.1-2.3c-0.5,0.7-1.1,1.3-1.6,2c-0.4,0.5-1,0.8-1.6,0.8c-0.1,0-0.2,0-0.3,0c-2,2.7-3.9,5.4-5.5,8.2l0,0
		c1.1,1,2.2,2.1,3.3,3.1c3.6,3.6,6.8,7.6,9.6,11.8l49.3-49.3C504.7,12.4,500.8,9.6,496.6,7.2L496.6,7.2z"/>
	<path fill="#457393" d="M516,2.4c0.6,0.3,1.1,0.6,1.7,0.9c-0.5-0.2-1.1-0.2-1.7-0.2c0,0-0.1,0-0.1,0c-3,0.1-6.2,0.5-9.5,1.2l0,0
		c0.6,0.4,1.3,0.8,1.9,1.2c0.4,0.3,0.8,0.5,1.1,0.8c0.2,0.2,0.5,0.3,0.7,0.5c0.4,0.3,0.7,0.5,1.1,0.8c0.2,0.2,0.5,0.4,0.7,0.5
		c0.5,0.4,1,0.8,1.5,1.2c0.1,0.1,0.1,0.1,0.2,0.2c0.2,0.1,0.3,0.3,0.5,0.4l5.3-5.3c0,0,0,0,0,0C518.3,3.7,517.2,2.9,516,2.4z"/>
	<path fill="#0072BC" d="M449.9,40.2c-2,2.7-3.9,5.4-5.7,8.3c0.6,0.5,1.2,1,1.8,1.5c0,0,0,0,0,0l0,0c1.7-2.8,3.5-5.5,5.5-8.2
		c-0.3-0.1-0.6-0.2-0.9-0.4C450.2,41.1,450,40.7,449.9,40.2z"/>
	<path fill="#0072BC" d="M505.7,2c-0.8,0.2-1.6,0.4-2.5,0.6c1,0.5,2,1.1,3,1.7c0,0,0,0,0,0l0,0l0,0c3.3-0.7,6.5-1.2,9.5-1.2
		c0,0,0.1,0,0.1,0c0.6,0,1.2,0.1,1.7,0.2c-0.5-0.4-1.1-0.7-1.7-0.9c0,0-0.1,0-0.1-0.1c-0.2-0.1-0.5-0.2-0.7-0.3
		c-0.1,0-0.1,0-0.2-0.1c-0.3-0.1-0.6-0.2-0.9-0.2c-0.5-0.1-1.1-0.2-1.6-0.3c0,0,0,0,0,0c-0.5-0.1-1-0.2-1.6-0.3
		C509.2,1.3,507.5,1.6,505.7,2z"/>
	<path fill="#0072BC" d="M489.6,9.2c0.1,0.3,0.2,0.6,0.2,0.9c2.3-1.1,4.5-2.1,6.8-2.9l0,0c0,0,0,0,0,0c-0.9-0.5-1.8-1-2.7-1.4
		c-1.8,0.7-3.6,1.5-5.4,2.4C488.9,8.4,489.4,8.7,489.6,9.2z"/>
	<path fill="#0072BC" d="M434.2,84.6c0.1-6.2,1.8-13.4,4.8-20.9c0,0,0,0,0,0c-0.6-0.6-1.2-1.3-1.7-1.9c-0.1,0.3-0.3,0.7-0.4,1
		c-2.4,5.9-4,11.6-4.6,16.9c0,0,0,0,0,0c0,0,0,0,0,0c0.1,0.5,0.2,1,0.3,1.5c0,0,0,0,0,0.1c0.1,0.5,0.2,1.1,0.3,1.6
		c0.1,0.3,0.2,0.6,0.2,0.9c0,0.1,0,0.1,0.1,0.2c0.1,0.2,0.2,0.5,0.3,0.7c0,0,0,0.1,0.1,0.1c0.3,0.6,0.6,1.1,0.9,1.7
		C434.3,85.9,434.2,85.3,434.2,84.6z"/>
	<path fill="#CCE3F2" d="M513.2,9.3c-0.5-0.4-1-0.8-1.5-1.2c-0.2-0.2-0.5-0.4-0.7-0.5c-0.4-0.3-0.7-0.5-1.1-0.8
		c-0.2-0.2-0.5-0.3-0.7-0.5c-0.4-0.3-0.7-0.5-1.1-0.8c-0.6-0.4-1.2-0.8-1.9-1.2c0,0,0,0,0,0c-1-0.6-2-1.1-3-1.7
		c-1.5-0.8-3.1-1.5-4.7-2.2c-0.2,0-0.5,0-0.7,0c-4.2,0.2-8.4,0.9-12.7,2c3,0.9,5.9,2,8.6,3.4c0.9,0.5,1.8,0.9,2.7,1.4c0,0,0,0,0,0
		c4.2,2.3,8.1,5.2,11.6,8.5l5.8-5.8c-0.2-0.1-0.3-0.3-0.5-0.4C513.4,9.4,513.3,9.4,513.2,9.3z"/>
	<path fill="#CCE3F2" d="M446,50C446,50,446,50,446,50c-0.6-0.5-1.2-1-1.8-1.6c-2.2-1.8-4.5-3.6-6.9-5.1c-2,4.5-3.5,9.2-4.5,13.9
		c0,0.1,0,0.1,0,0.2c1.6,1.4,3.1,2.9,4.5,4.4c0.6,0.6,1.2,1.3,1.7,1.9c0,0,0,0,0,0c3.3,3.8,6.2,7.9,8.8,12.3l11-11
		c-2.8-4.3-6-8.2-9.6-11.8C448.2,52.1,447.1,51,446,50z"/>
	<path fill="#FFFFFF" d="M489.6,9.2c-0.3-0.5-0.7-0.9-1.2-1c-0.5-0.2-1-0.1-1.5,0.1c-0.6,0.3-1.2,0.6-1.9,1c1.4,0.7,2.7,1.5,3.9,2.5
		c0.6-0.4,0.9-1,0.9-1.6C489.8,9.8,489.8,9.5,489.6,9.2z"/>
	<g>
		<path fill="#CCE3F2" d="M451.9,41.9c-0.4,0-0.9-0.1-1.2-0.4c-0.9-0.7-1-1.9-0.4-2.8c2.8-3.7,5.9-7.2,9.1-10.4
			c8-8,17.6-14.9,27.5-19.9c1-0.5,2.2-0.1,2.7,0.9c0.5,1,0.1,2.2-0.9,2.7c-9.6,4.8-18.7,11.4-26.5,19.2c-3.1,3.1-6.1,6.5-8.8,10
			C453.1,41.6,452.5,41.9,451.9,41.9z"/>
		<path fill="#CCE3F2" d="M489.8,14.9c-0.3,0-0.5-0.1-0.7-0.3c-2.1-2.2-4.8-3.8-7.7-4.6c-0.5-0.1-0.8-0.7-0.7-1.2
			c0.1-0.5,0.7-0.8,1.2-0.7c3.3,0.9,6.2,2.7,8.6,5.1c0.4,0.4,0.4,1,0,1.4C490.3,14.8,490,14.9,489.8,14.9z"/>
		<path fill="#CCE3F2" d="M484,17.7c-0.3,0-0.5-0.1-0.7-0.3c-2.1-2.2-4.7-3.9-7.7-4.8c-0.5-0.2-0.8-0.7-0.7-1.3
			c0.2-0.5,0.7-0.8,1.3-0.7c3.3,1,6.2,2.8,8.6,5.3c0.4,0.4,0.4,1-0.1,1.4C484.4,17.6,484.2,17.7,484,17.7z"/>
		<path fill="#CCE3F2" d="M479.6,20.9c-0.3,0-0.6-0.1-0.7-0.3c-2.1-2.3-4.7-4-7.6-4.9c-0.5-0.2-0.8-0.7-0.7-1.3
			c0.2-0.5,0.7-0.8,1.3-0.7c3.3,1,6.2,2.9,8.5,5.5c0.4,0.4,0.3,1-0.1,1.4C480.1,20.8,479.8,20.9,479.6,20.9z"/>
		<path fill="#CCE3F2" d="M475.5,24.1c-0.3,0-0.6-0.1-0.8-0.3c-2-2.4-4.7-4.1-7.6-5.1c-0.5-0.2-0.8-0.7-0.6-1.3
			c0.2-0.5,0.7-0.8,1.3-0.6c3.3,1.1,6.2,3.1,8.5,5.7c0.4,0.4,0.3,1.1-0.1,1.4C476,24,475.8,24.1,475.5,24.1z"/>
		<path fill="#CCE3F2" d="M471.5,27.2c-0.3,0-0.6-0.1-0.8-0.4c-2-2.4-4.7-4.2-7.6-5.3c-0.5-0.2-0.8-0.8-0.6-1.3
			c0.2-0.5,0.8-0.8,1.3-0.6c3.3,1.2,6.2,3.2,8.5,5.9c0.4,0.4,0.3,1.1-0.1,1.4C472,27.2,471.7,27.2,471.5,27.2z"/>
		<path fill="#CCE3F2" d="M467.8,30.7c-0.3,0-0.6-0.1-0.8-0.4c-2-2.5-4.6-4.4-7.6-5.5c-0.5-0.2-0.8-0.8-0.6-1.3
			c0.2-0.5,0.8-0.8,1.3-0.6c3.3,1.2,6.2,3.3,8.5,6.1c0.3,0.4,0.3,1.1-0.1,1.4C468.3,30.7,468.1,30.7,467.8,30.7z"/>
		<path fill="#CCE3F2" d="M464.4,34.2c-0.3,0-0.6-0.1-0.8-0.4c-2-2.5-4.6-4.5-7.6-5.6c-0.5-0.2-0.8-0.8-0.6-1.3
			c0.2-0.5,0.8-0.8,1.3-0.6c3.3,1.3,6.2,3.5,8.4,6.3c0.3,0.4,0.3,1.1-0.2,1.4C464.9,34.1,464.7,34.2,464.4,34.2z"/>
		<path fill="#CCE3F2" d="M461,38c-0.3,0-0.6-0.1-0.8-0.4c-2-2.6-4.6-4.6-7.6-5.8c-0.5-0.2-0.8-0.8-0.6-1.3c0.2-0.5,0.8-0.8,1.3-0.6
			c3.3,1.3,6.2,3.6,8.4,6.4c0.3,0.4,0.3,1.1-0.2,1.4C461.4,37.9,461.2,38,461,38z"/>
		<path fill="#CCE3F2" d="M457.9,41.8c-0.3,0-0.6-0.1-0.8-0.4c-1.9-2.6-4.6-4.7-7.6-6c-0.5-0.2-0.7-0.8-0.5-1.3
			c0.2-0.5,0.8-0.7,1.3-0.5c3.3,1.4,6.2,3.7,8.4,6.6c0.3,0.4,0.2,1.1-0.2,1.4C458.3,41.8,458.1,41.8,457.9,41.8z"/>
		<path fill="#CCE3F2" d="M461.8,26c-0.7,0.6-1.3,1.2-1.9,1.9c1.2,0.7,2.3,1.5,3.3,2.4c0.7-0.7,1.3-1.3,2-1.9
			C464.1,27.4,463,26.6,461.8,26z"/>
		<path fill="#CCE3F2" d="M465.5,22.6c-0.7,0.6-1.4,1.3-2.1,1.9c1.2,0.7,2.3,1.5,3.3,2.4c0.7-0.7,1.5-1.3,2.3-2
			C467.8,24.1,466.7,23.3,465.5,22.6z"/>
		<path fill="#CCE3F2" d="M458.4,29.3c-0.7,0.7-1.4,1.4-2.1,2.2c1.1,0.7,2.2,1.5,3.2,2.5c0.7-0.8,1.4-1.5,2.1-2.2
			C460.7,30.8,459.6,30,458.4,29.3z"/>
		<path fill="#CCE3F2" d="M455,33c-0.6,0.7-1.2,1.4-1.8,2.1c1.1,0.7,2.2,1.5,3.2,2.5c0.6-0.7,1.2-1.5,1.9-2.2
			C457.2,34.5,456.1,33.7,455,33z"/>
		<path fill="#CCE3F2" d="M482.8,10.5c-1,0.6-2,1.1-3,1.7c1.3,0.7,2.5,1.6,3.6,2.5c1.2-0.7,2.4-1.3,3.6-2
			C485.7,11.9,484.3,11.1,482.8,10.5z"/>
		<path fill="#CCE3F2" d="M451.8,36.7c-0.5,0.7-1.1,1.3-1.6,2c-0.3,0.5-0.5,1-0.4,1.5c0.1,0.5,0.3,1,0.8,1.3
			c0.3,0.2,0.6,0.3,0.9,0.4c0.1,0,0.2,0,0.3,0c0.6,0,1.2-0.3,1.6-0.8c0.5-0.7,1-1.3,1.6-2C454.1,38.2,453,37.4,451.8,36.7z"/>
		<path fill="#CCE3F2" d="M477.8,13.5c-0.9,0.6-1.7,1.1-2.6,1.7c1.3,0.7,2.4,1.5,3.5,2.5c0.9-0.6,1.9-1.2,2.9-1.8
			C480.5,14.9,479.2,14.1,477.8,13.5z"/>
		<path fill="#CCE3F2" d="M469.3,19.5c-0.7,0.6-1.4,1.1-2.2,1.7c1.2,0.7,2.3,1.5,3.4,2.5c0.8-0.6,1.6-1.2,2.4-1.9
			C471.7,20.9,470.5,20.1,469.3,19.5z"/>
		<path fill="#CCE3F2" d="M473.4,16.5c-0.8,0.6-1.6,1.1-2.3,1.7c1.2,0.7,2.4,1.5,3.5,2.4c0.8-0.6,1.7-1.2,2.5-1.8
			C475.9,17.9,474.7,17.1,473.4,16.5z"/>
		<path fill="#CCE3F2" d="M485.1,9.3c-1-0.5-2.1-0.9-3.1-1.2c-0.5-0.1-1.1,0.2-1.2,0.7c-0.1,0.5,0.2,1.1,0.7,1.2
			c0.5,0.1,1,0.3,1.4,0.5c1.5,0.6,2.9,1.3,4.2,2.3c0.7,0.5,1.4,1.1,2,1.8c0.2,0.2,0.5,0.3,0.7,0.3c0.3,0,0.5-0.1,0.7-0.3
			c0.4-0.4,0.4-1,0-1.4c-0.5-0.5-1-1-1.6-1.4C487.7,10.8,486.4,10,485.1,9.3z"/>
		<path fill="#CCE3F2" d="M479.8,12.2c-1.2-0.6-2.4-1.2-3.7-1.5c-0.5-0.2-1.1,0.1-1.3,0.7c-0.2,0.5,0.1,1.1,0.7,1.3
			c0.8,0.2,1.5,0.5,2.3,0.9c1.4,0.6,2.6,1.4,3.8,2.4c0.6,0.5,1.1,1,1.6,1.5c0.2,0.2,0.5,0.3,0.7,0.3c0.2,0,0.5-0.1,0.7-0.3
			c0.4-0.4,0.4-1,0.1-1.4c-0.4-0.4-0.8-0.8-1.3-1.2C482.3,13.8,481.1,12.9,479.8,12.2z"/>
		<path fill="#CCE3F2" d="M475.2,15.2c-1.1-0.6-2.2-1.1-3.4-1.5c-0.5-0.2-1.1,0.1-1.3,0.7c-0.2,0.5,0.1,1.1,0.7,1.3
			c0.7,0.2,1.5,0.5,2.2,0.8c1.3,0.6,2.5,1.4,3.7,2.3c0.6,0.5,1.3,1.1,1.8,1.7c0.2,0.2,0.5,0.3,0.7,0.3c0.2,0,0.5-0.1,0.7-0.3
			c0.4-0.4,0.4-1,0.1-1.4c-0.5-0.6-1-1.1-1.6-1.6C477.7,16.7,476.5,15.9,475.2,15.2z"/>
		<path fill="#CCE3F2" d="M471,18.2c-1-0.6-2.1-1.1-3.2-1.4c-0.5-0.2-1.1,0.1-1.3,0.6c-0.2,0.5,0.1,1.1,0.6,1.3
			c0.7,0.2,1.4,0.5,2.1,0.9c1.3,0.6,2.5,1.4,3.6,2.3c0.7,0.6,1.4,1.2,2,1.9c0.2,0.2,0.5,0.3,0.8,0.3c0.2,0,0.5-0.1,0.7-0.2
			c0.4-0.4,0.5-1,0.1-1.4c-0.6-0.7-1.2-1.3-1.8-1.8C473.4,19.7,472.3,18.9,471,18.2z"/>
		<path fill="#CCE3F2" d="M467.1,21.3c-1.1-0.6-2.2-1.1-3.3-1.5c-0.5-0.2-1.1,0.1-1.3,0.6c-0.2,0.5,0.1,1.1,0.6,1.3
			c0.8,0.3,1.6,0.6,2.3,1c1.2,0.6,2.4,1.4,3.4,2.4c0.7,0.6,1.3,1.2,1.8,1.9c0.2,0.2,0.5,0.4,0.8,0.4c0.2,0,0.5-0.1,0.6-0.2
			c0.4-0.4,0.5-1,0.1-1.4c-0.6-0.7-1.2-1.3-1.8-1.9C469.4,22.8,468.3,21.9,467.1,21.3z"/>
		<path fill="#CCE3F2" d="M463.3,24.5c-1-0.6-2.1-1.1-3.2-1.5c-0.5-0.2-1.1,0.1-1.3,0.6c-0.2,0.5,0.1,1.1,0.6,1.3
			c0.8,0.3,1.6,0.7,2.3,1.1c1.2,0.7,2.3,1.5,3.3,2.4c0.7,0.6,1.4,1.3,1.9,2c0.2,0.2,0.5,0.4,0.8,0.4c0.2,0,0.4-0.1,0.6-0.2
			c0.4-0.3,0.5-1,0.1-1.4c-0.6-0.8-1.3-1.5-2-2.1C465.6,26,464.5,25.2,463.3,24.5z"/>
		<path fill="#CCE3F2" d="M459.8,27.8c-1-0.6-2-1.1-3-1.5c-0.5-0.2-1.1,0.1-1.3,0.6c-0.2,0.5,0.1,1.1,0.6,1.3
			c0.8,0.3,1.6,0.7,2.3,1.1c1.2,0.7,2.3,1.5,3.3,2.4c0.7,0.7,1.4,1.4,2,2.1c0.2,0.3,0.5,0.4,0.8,0.4c0.2,0,0.4-0.1,0.6-0.2
			c0.4-0.3,0.5-1,0.2-1.4c-0.7-0.8-1.4-1.6-2.2-2.3C462.1,29.3,461,28.5,459.8,27.8z"/>
		<path fill="#CCE3F2" d="M456.3,31.5c-0.9-0.6-1.9-1.1-3-1.5c-0.5-0.2-1.1,0-1.3,0.6c-0.2,0.5,0,1.1,0.6,1.3
			c0.8,0.3,1.6,0.7,2.3,1.2c1.2,0.7,2.2,1.5,3.2,2.4c0.7,0.7,1.4,1.4,2,2.2c0.2,0.3,0.5,0.4,0.8,0.4c0.2,0,0.4-0.1,0.6-0.2
			c0.4-0.3,0.5-1,0.2-1.4c-0.7-0.9-1.4-1.7-2.3-2.5C458.6,33,457.5,32.2,456.3,31.5z"/>
		<path fill="#CCE3F2" d="M453.1,35.1c-0.9-0.6-1.8-1.1-2.8-1.5c-0.5-0.2-1.1,0-1.3,0.5c-0.2,0.5,0,1.1,0.5,1.3
			c0.8,0.3,1.6,0.7,2.3,1.2c1.1,0.7,2.2,1.5,3.2,2.5c0.7,0.7,1.4,1.5,2.1,2.3c0.2,0.3,0.5,0.4,0.8,0.4c0.2,0,0.4-0.1,0.6-0.2
			c0.4-0.3,0.5-1,0.2-1.4c-0.7-1-1.5-1.9-2.4-2.7C455.3,36.6,454.3,35.8,453.1,35.1z"/>
	</g>
</g>
<g>
	<path fill="#414042" d="M607.4,37.7c-2.1,0-3.8,3.9-3.8,8.7c0,4.8,1.7,8.7,3.8,8.7l0,0h8.9V37.7H607.4z"/>
	<ellipse fill="#05838D" cx="627.6" cy="46.5" rx="15.3" ry="35.5"/>
	<ellipse fill="#4C9CD0" cx="641.7" cy="46.5" rx="22.3" ry="46.4"/>
	<ellipse fill="#0072BC" cx="649.7" cy="46.5" rx="14.2" ry="38.5"/>
	<path fill="#175079" d="M650.8,37.7c-2.1,0-3.8,3.9-3.8,8.7c0,4.8,1.7,8.7,3.8,8.7l0,0h38.5V37.7H650.8z"/>
	<ellipse fill="#4C9CD0" cx="701.3" cy="46.5" rx="22.3" ry="46.4"/>
	<ellipse fill="#0072BC" cx="709.3" cy="46.5" rx="14.2" ry="38.5"/>
	<ellipse fill="#4C9CD0" cx="717.7" cy="46.5" rx="15.3" ry="35.5"/>
	<ellipse fill="#0072BC" cx="723.2" cy="46.5" rx="9.8" ry="29.5"/>
	<ellipse fill="#457393" cx="737.6" cy="46.5" rx="3.8" ry="8.7"/>
	<path fill="#175079" d="M733.8,46.5c0-4.8,1.7-8.7,3.8-8.7h-14.1c-2.1,0-3.8,3.9-3.8,8.7c0,4.8,1.7,8.7,3.8,8.7l0,0h14.1l0,0
		C735.5,55.2,733.8,51.3,733.8,46.5z"/>
	<path fill="#457393" d="M612.8,37.7h-5.4c-2.1,0-3.8,3.9-3.8,8.7c0,4.8,1.7,8.7,3.8,8.7l0,0h5.4c-0.3-2.8-0.5-5.7-0.5-8.7
		C612.3,43.4,612.5,40.5,612.8,37.7z"/>
	<path fill="#0072BC" d="M627.3,11c-7,0.3-12.9,11.6-14.5,26.8c-0.3,2.8-0.5,5.7-0.5,8.7c0,3,0.2,5.9,0.5,8.7
		c1.7,15.2,7.5,26.4,14.5,26.8c-4.9-8.5-7.9-21.3-7.9-35.5C619.4,32.2,622.5,19.5,627.3,11z"/>
	<path fill="#66AAD7" d="M635.5,46.5c0-21.3,6.4-38.5,14.2-38.5c3.5,0,6.7,3.5,9.2,9.2c-4.1-10.4-10.3-17.1-17.3-17.1
		c-5.5,0-10.5,4.1-14.3,10.9c-4.9,8.5-7.9,21.2-7.9,35.5c0,14.2,3.1,27,7.9,35.5c1.2,2.1,2.5,3.9,3.9,5.5l10-10
		C637.8,70.4,635.5,59.1,635.5,46.5z"/>
	<path fill="#338DC9" d="M650.8,55.2c-2.1,0-3.8-3.9-3.8-8.7c0-4.8,1.7-8.7,3.8-8.7h12.8c-0.7-8.2-2.4-15.3-4.6-20.6
		c-2.5-5.7-5.7-9.2-9.2-9.2c-7.9,0-14.2,17.2-14.2,38.5c0,12.7,2.3,23.9,5.8,30.9l22.2-22.2H650.8L650.8,55.2z"/>
	<path fill="#457393" d="M663.6,37.7h-12.8c-2.1,0-3.8,3.9-3.8,8.7c0,4.8,1.7,8.7,3.8,8.7l0,0h12.7l15.8-15.8c0-0.6,0.1-1.1,0.1-1.7
		H663.6z"/>
	<path fill="#66AAD7" d="M701.3,0.1c-10.9,0-19.9,16.2-21.9,37.7c-0.1,0.6-0.1,1.1-0.1,1.7l19.9-19.9c2.6-7.1,6.2-11.5,10.1-11.5
		c0.4,0,0.8,0.1,1.2,0.2l1.9-1.9C709.1,2.3,705.3,0.1,701.3,0.1z"/>
	<path fill="#338DC9" d="M699.2,19.5l11.4-11.4C710.1,8,709.7,8,709.3,8C705.3,8,701.8,12.4,699.2,19.5z"/>
</g>
<g>
	<path fill="#2E6186" d="M160,51.1c-17,7-35.3,9.9-53.3,8.6v32.8c18,1.3,36.3-1.5,53.3-8.6c-3-4.2-6.1-8.6-9.2-13
		C153.9,64.4,157,57.8,160,51.1z"/>
	<path fill="#175079" d="M119.4,55.3c-7.5,3.1-12.7,4.4-12.7,4.4v32.8c0,0,5.2-0.7,13.6-4.5c8.4-3.7,11.8-7.1,11.8-7.1V48.1
		C132.2,48.1,127.1,52.2,119.4,55.3z"/>
	<path fill="#2E6186" d="M15,51.1c17,7,35.3,9.9,53.3,8.6v32.8C50.2,93.8,32,91,15,83.9c3-4.2,6.1-8.6,9.2-13
		C21.1,64.4,18,57.8,15,51.1z"/>
	<path fill="#175079" d="M55.6,55.3c7.5,3.1,12.7,4.4,12.7,4.4v32.8c0,0-5.2-0.7-13.6-4.5C46.3,84.3,42.8,81,42.8,81V48.1
		C42.8,48.1,47.9,52.2,55.6,55.3z"/>
	<g>
		<polygon fill="#0072BC" points="87.9,4.2 92.5,0 96.2,5 101.6,1.9 104.1,7.6 110,5.7 111.3,11.8 117.6,11.1 117.5,17.4 123.8,18 
			122.4,24.1 128.4,26 125.8,31.7 131.3,34.9 127.6,39.9 132.2,44.1 127.6,48.3 131.3,53.3 125.8,56.4 128.4,62.1 122.4,64 
			123.8,70.2 117.5,70.8 117.6,77.1 111.3,76.4 110,82.5 104.1,80.6 101.6,86.3 96.2,83.1 92.5,88.2 87.9,84 83.2,88.2 79.6,83.1 
			74.2,86.3 71.6,80.6 65.7,82.5 64.4,76.4 58.2,77.1 58.2,70.8 52,70.2 53.3,64 47.3,62.1 49.9,56.4 44.5,53.3 48.2,48.3 
			43.5,44.1 48.2,39.9 44.5,34.9 49.9,31.7 47.3,26 53.3,24.1 52,18 58.2,17.4 58.2,11.1 64.4,11.8 65.7,5.7 71.6,7.6 74.2,1.9 
			79.6,5 83.2,0 		"/>
		<circle fill="#175079" cx="87.9" cy="44.1" r="36.5"/>
		<circle fill="#80B8DD" cx="87.9" cy="44.1" r="30.8"/>
		<path fill="#338EC9" d="M111.3,11.8L110,5.7l-5.9,1.9l-2.5-5.7L96.2,5L92.5,0l-4.6,4.2L83.2,0L79.6,5l-5.4-3.1l-2.5,5.7l-5.9-1.9
			l-1.3,6.1l-6.2-0.7l0,6.3L52,18l1.3,6.1l-6,1.9l2.6,5.7l-5.4,3.1l3.7,5l-4.7,4.2l4.7,4.2l-3.7,5.1l5.4,3.1l-2.6,5.7l6,1.9L52,70.2
			l6.2,0.6l0,2.1l3.5-3.5c-6.4-6.6-10.3-15.5-10.3-25.4c0-20.2,16.3-36.5,36.5-36.5c9.9,0,18.8,3.9,25.4,10.3l4.3-4.3l0-2.4
			L111.3,11.8z"/>
		<path fill="#396A8D" d="M51.4,44.1c0,9.9,3.9,18.8,10.3,25.4l4-4c-5.3-5.5-8.6-13-8.6-21.3c0-17,13.8-30.8,30.8-30.8
			c8.3,0,15.8,3.3,21.3,8.6l4-4c-6.6-6.4-15.5-10.3-25.4-10.3C67.7,7.6,51.4,23.9,51.4,44.1z"/>
		<path fill="#B2D5EB" d="M87.9,13.3c-17,0-30.8,13.8-30.8,30.8c0,8.3,3.3,15.8,8.6,21.3l43.5-43.5C103.7,16.6,96.1,13.3,87.9,13.3z
			"/>
		<circle fill="#99C6E4" cx="87.9" cy="44" r="30.7"/>
		<path fill="#2E6186" d="M87.9,72.3c-15.6,0-28.2-12.7-28.2-28.2c0-15.6,12.7-28.2,28.2-28.2c15.6,0,28.2,12.7,28.2,28.2
			C116.1,59.6,103.4,72.3,87.9,72.3z"/>
		<g>
			<path fill="#CCE3F2" d="M89.3,66.9c-0.2-0.1-0.4-0.2-0.6-0.3c-0.1,0-0.2-0.1-0.3-0.1c-0.1,0-0.2-0.1-0.3-0.1
				c-0.4-0.2-0.9-0.3-1.3-0.4c-0.4-0.1-0.8-0.2-1.2-0.3l0,0c0,0,0,0,0,0c-0.3-0.1-0.7-0.2-1-0.2c-0.5-1.4-1-3.4-1.8-4.3
				c-1-1-2.7-1.7-4.1-2.1c0.4,1.3,1.3,3.3,2.3,4.2c0.7,0.6,1.7,1.2,2.7,1.8c-1.2-0.2-4-1-4.8-1.4c-0.1-1.5,0-3.5-0.6-4.6
				c-0.7-1.2-2.1-2.4-3.4-3.1c0,1.3,0.3,3.5,1,4.7c0.5,0.8,1.3,1.7,2.1,2.5c-0.7-0.4-3.1-2.1-4.8-3.6c0.4-1.5,1.1-3.3,0.9-4.4
				c-0.3-1.4-1.2-3-2.2-4c-0.4,1.3-0.8,3.4-0.5,4.8c0.2,0.9,0.7,2,1.2,3c-0.8-0.9-2.7-3.1-3.1-3.9c0.8-1.3,2-2.9,2.1-4.1
				c0.1-1.4-0.4-3.2-1-4.5c-0.8,1.1-1.7,3-1.8,4.4c-0.1,0.9,0.2,2.1,0.3,3.2c-0.3-0.8-1.4-3.6-2-5.8c1.1-1.1,2.8-2.3,3.2-3.4
				c0.5-1.3,0.5-3.2,0.2-4.6c-1,0.9-2.5,2.5-2.9,3.8c-0.3,0.9-0.4,2.1-0.6,3.2c-0.3-1.2-0.4-2.4-0.5-3.6c-0.1-0.9,0-1.8,0-2.7
				c1.4-0.7,3.2-1.5,3.9-2.4c0.8-1.1,1.3-2.9,1.4-4.4c-1.2,0.5-3,1.7-3.9,2.8c-0.5,0.7-1,1.9-1.4,2.9c0.1-0.9,0.3-1.8,0.5-2.7
				c0.1-0.3,0.1-0.5,0.2-0.8c0.1-0.3,0.2-0.5,0.3-0.8c0.2-0.5,0.4-1,0.6-1.5c0.1-0.3,0.3-0.5,0.4-0.8c1.5-0.2,3.5-0.2,4.5-0.8
				c1.2-0.8,2.3-2.2,2.9-3.6c-1.3,0.1-3.5,0.5-4.6,1.2c-0.7,0.4-1.5,1.3-2.2,2c0.2-0.3,0.4-0.6,0.6-0.9c1-1.4,2.1-2.6,3.3-3.7
				c1.5,0.1,3.6,0.6,4.7,0.1c1.2-0.5,2.6-1.6,3.5-2.8c-1.3-0.2-3.3-0.2-4.6,0.3c-0.9,0.4-2.1,1.2-3.1,1.9c0.2-0.2,0.4-0.3,0.6-0.5
				c1.5-1.3,3.1-2.4,4.8-3.5c1.1,0.3,2.4,0.3,3.5-0.3c1.2-0.6,2.1-1.6,2.8-2.9c-1.3-0.2-2.8-0.2-4,0.4c-1.1,0.6-2,1.5-2.4,2.6
				c-0.8,0.4-1.6,0.9-2.3,1.3c-0.5,0.3-1.1,0.7-1.6,1.1c0.8-0.8,1.8-1.6,2.3-2.3c0.8-1.1,1.2-3.1,1.3-4.4c-1.3,0.6-2.7,1.6-3.5,2.7
				c-0.7,1-0.7,3.2-1,4.7c-0.1,0.1-0.2,0.2-0.3,0.2c-1.3,1.1-2.6,2.3-3.7,3.6c0.7-1.1,1.7-2.4,2.2-3.5c0.5-1.3,0.5-3.5,0.3-4.8
				c-1.2,0.9-2.4,2.3-2.9,3.6c-0.5,1.2,0,3.5,0.1,5.1c-0.2,0.3-0.4,0.5-0.6,0.8c-0.6,0.8-1.1,1.7-1.6,2.5c0.3-0.8,0.5-1.7,0.5-2.4
				c0.1-1.4-0.6-3.6-1.2-4.8c-0.9,1.2-1.7,3-1.7,4.4c-0.1,1.3,1,3.1,1.6,4.6c0,0,0,0,0,0c-0.1,0.3-0.2,0.5-0.3,0.8
				c-0.1,0.3-0.2,0.5-0.2,0.8c-0.2,0.8-0.4,1.7-0.6,2.6c0-1,0-2-0.2-2.8c-0.3-1.4-1.6-3.4-2.6-4.4c-0.5,1.5-0.7,3.5-0.4,4.9
				c0.3,1.3,1.9,2.9,3,4.2c0,0.7-0.1,1.5,0,2.2c0,0.7,0.1,1.4,0.2,2c-0.3-1-0.7-2-1.1-2.7c-0.8-1.3-2.6-2.6-3.9-3.3
				c0,1.6,0.4,3.5,1.2,4.8c0.7,1.1,2.7,2,4.1,2.9c0.1,0.5,0.3,1.3,0.4,1.8l0,0c0.2,0.9,0.6,2.2,1.2,3.7c-0.5-0.8-1-1.7-1.6-2.3
				c-1-1.1-3.1-2-4.5-2.4c0.3,1.5,1.2,3.3,2.2,4.4c0.9,1,3.2,1.4,4.7,2c0.3,0.7,0.7,1.3,1.1,1.9c0.4,0.6,0.8,1.1,1.2,1.6
				c-0.8-0.7-1.6-1.4-2.3-1.7c-1.3-0.7-3.6-0.9-5-0.8c0.8,1.3,2.2,2.8,3.5,3.5c1.2,0.6,3.4,0.4,5,0.4c0.5,0.3,0.9,0.8,1.4,1.1l0,0
				c0.7,0.6,1.7,1.4,3.1,2.3c-0.9-0.4-1.8-0.8-2.6-1c-1.5-0.3-3.7,0.1-5.1,0.6c1.2,1.1,2.9,2.1,4.3,2.4c1.3,0.3,3.4-0.6,5-1
				c0.6,0.3,1.3,0.7,2,0.9c0.6,0.3,1.3,0.5,1.9,0.7c-1-0.1-2.1-0.2-2.9-0.1c-1.5,0.2-3.5,1.3-4.6,2.2c1.4,0.6,3.4,1.1,4.9,0.9
				c1.3-0.2,3-1.6,4.3-2.5c0.1,0,0.1,0,0.2,0c0.1,0,0.2,0.1,0.3,0.1c0.9,0.2,1.8,0.4,2.6,0.7c0.4,0.1,0.9,0.2,1.3,0.4
				c0.1,0,0.2,0.1,0.3,0.1c0.1,0,0.2,0.1,0.3,0.1c0.2,0.1,0.4,0.2,0.6,0.3c0.8,0.4,1.5,0.9,2.1,1.5c0,0,0.1,0.1,0.1,0.1l0.1-1.3
				C90.6,67.7,90,67.3,89.3,66.9z"/>
			<path fill="#B2D5EB" d="M86.4,66.9c0.2-0.1,0.4-0.2,0.6-0.3c0.1,0,0.2-0.1,0.3-0.1c0.1,0,0.2-0.1,0.3-0.1
				c0.4-0.2,0.9-0.3,1.3-0.4c0.4-0.1,0.8-0.2,1.2-0.3l0,0c0,0,0,0,0,0c0.3-0.1,0.7-0.2,1-0.2c0.5-1.4,1-3.4,1.8-4.3
				c1-1,2.7-1.7,4.1-2.1c-0.4,1.3-1.3,3.3-2.3,4.2c-0.7,0.6-1.7,1.2-2.7,1.8c1.2-0.2,4-1,4.8-1.4c0.1-1.5,0-3.5,0.6-4.6
				c0.7-1.2,2.1-2.4,3.4-3.1c0,1.3-0.3,3.5-1,4.7c-0.5,0.8-1.3,1.7-2.1,2.5c0.7-0.4,3.1-2.1,4.8-3.6c-0.4-1.5-1.1-3.3-0.9-4.4
				c0.3-1.4,1.2-3,2.2-4c0.4,1.3,0.8,3.4,0.5,4.8c-0.2,0.9-0.7,2-1.2,3c0.8-0.9,2.7-3.1,3.1-3.9c-0.8-1.3-2-2.9-2.1-4.1
				c-0.1-1.4,0.4-3.2,1-4.5c0.8,1.1,1.7,3,1.8,4.4c0.1,0.9-0.2,2.1-0.3,3.2c0.3-0.8,1.4-3.6,2-5.8c-1.1-1.1-2.8-2.3-3.2-3.4
				c-0.5-1.3-0.5-3.2-0.2-4.6c1,0.9,2.5,2.5,2.9,3.8c0.3,0.9,0.4,2.1,0.6,3.2c0.3-1.2,0.4-2.4,0.5-3.6c0-0.9,0-1.8,0-2.7
				c-1.4-0.7-3.2-1.5-3.9-2.4c-0.8-1.1-1.3-2.9-1.4-4.4c1.2,0.5,3,1.7,3.9,2.8c0.5,0.7,1,1.9,1.4,2.9c-0.1-0.9-0.3-1.8-0.5-2.7
				c-0.1-0.3-0.1-0.5-0.2-0.8c-0.1-0.3-0.2-0.5-0.3-0.8c-0.2-0.5-0.4-1-0.6-1.5c-0.1-0.3-0.3-0.5-0.4-0.8c-1.5-0.2-3.5-0.2-4.5-0.8
				c-1.2-0.8-2.3-2.2-2.9-3.6c1.3,0.1,3.5,0.5,4.6,1.2c0.7,0.4,1.5,1.3,2.2,2c-0.2-0.3-0.4-0.6-0.6-0.9c-1-1.4-2.1-2.6-3.3-3.7
				c-1.5,0.1-3.6,0.6-4.7,0.1c-1.2-0.5-2.6-1.6-3.5-2.8c1.3-0.2,3.3-0.2,4.6,0.3c0.9,0.4,2.1,1.2,3.1,1.9c-0.2-0.2-0.4-0.3-0.6-0.5
				c-1.5-1.3-3.1-2.4-4.8-3.5c-1.1,0.3-2.4,0.3-3.5-0.3c-1.2-0.6-2.1-1.6-2.8-2.9c1.3-0.2,2.8-0.2,4,0.4c1.1,0.6,2,1.5,2.4,2.6
				c0.8,0.4,1.6,0.9,2.3,1.3c0.5,0.3,1.1,0.7,1.6,1.1c-0.8-0.8-1.8-1.6-2.3-2.3c-0.8-1.1-1.2-3.1-1.3-4.4c1.3,0.6,2.7,1.6,3.5,2.7
				c0.7,1,0.7,3.2,1,4.7c0.1,0.1,0.2,0.2,0.3,0.2c1.3,1.1,2.6,2.3,3.7,3.6c-0.7-1.1-1.7-2.4-2.2-3.5c-0.5-1.3-0.5-3.5-0.3-4.8
				c1.2,0.9,2.4,2.3,2.9,3.6c0.5,1.2,0,3.5-0.1,5.1c0.2,0.3,0.4,0.5,0.6,0.8c0.6,0.8,1.1,1.7,1.6,2.5c-0.3-0.8-0.5-1.7-0.5-2.4
				c-0.1-1.4,0.6-3.6,1.2-4.8c0.9,1.2,1.7,3,1.7,4.4c0.1,1.3-1,3.1-1.6,4.6c0,0,0,0,0,0c0.1,0.3,0.2,0.5,0.3,0.8
				c0.1,0.3,0.2,0.5,0.2,0.8c0.2,0.8,0.4,1.7,0.6,2.6c0-1,0-2,0.2-2.8c0.3-1.4,1.6-3.4,2.6-4.4c0.5,1.5,0.7,3.5,0.4,4.9
				c-0.3,1.3-1.9,2.9-3,4.2c0,0.7,0.1,1.5,0,2.2c0,0.7-0.1,1.4-0.2,2c0.3-1,0.7-2,1.1-2.7c0.8-1.3,2.6-2.6,3.9-3.3
				c0,1.6-0.4,3.5-1.2,4.8c-0.7,1.1-2.7,2-4.1,2.9c-0.1,0.5-0.3,1.3-0.4,1.8l0,0c-0.2,0.9-0.6,2.2-1.2,3.7c0.5-0.8,1-1.7,1.6-2.3
				c1-1.1,3.1-2,4.5-2.4c-0.3,1.5-1.2,3.3-2.2,4.4c-0.9,1-3.2,1.4-4.7,2c-0.3,0.7-0.7,1.3-1.1,1.9c-0.4,0.6-0.8,1.1-1.2,1.6
				c0.8-0.7,1.6-1.4,2.3-1.7c1.3-0.7,3.6-0.9,5-0.8c-0.8,1.3-2.2,2.8-3.5,3.5c-1.2,0.6-3.3,0.4-5,0.4c-0.5,0.3-0.9,0.8-1.4,1.1l0,0
				c-0.7,0.6-1.7,1.4-3.1,2.3c0.9-0.4,1.8-0.8,2.6-1c1.5-0.3,3.7,0.1,5.1,0.6c-1.2,1.1-2.9,2.1-4.3,2.4c-1.3,0.3-3.4-0.6-5-1
				c-0.6,0.3-1.3,0.7-2,0.9c-0.6,0.3-1.3,0.5-1.9,0.7c1-0.1,2.1-0.2,2.9-0.1c1.5,0.2,3.5,1.3,4.6,2.2c-1.4,0.6-3.4,1.1-4.9,0.9
				c-1.3-0.2-3-1.6-4.3-2.5c-0.1,0-0.1,0-0.2,0c-0.1,0-0.2,0.1-0.3,0.1c-0.9,0.2-1.8,0.4-2.6,0.7c-0.4,0.1-0.9,0.2-1.3,0.4
				c-0.1,0-0.2,0.1-0.3,0.1c-0.1,0-0.2,0.1-0.3,0.1c-0.2,0.1-0.4,0.2-0.6,0.3c-0.8,0.4-1.5,0.9-2.1,1.5c0,0-0.1,0.1-0.1,0.1
				l-0.1-1.3C85.1,67.7,85.8,67.3,86.4,66.9z"/>
		</g>
		<g>
			<path fill="#4C9CD0" d="M87.9,59.3c-8.9,0-16.2-7.2-16.2-16.1C71.7,34.3,79,27,87.9,27c8.9,0,16.1,7.2,16.1,16.1
				C104,52.1,96.8,59.3,87.9,59.3z"/>
			<path fill="#66AAD7" d="M76.4,31.7c-6.3,6.3-6.3,16.5,0,22.8l22.8-22.8C93,25.5,82.7,25.5,76.4,31.7z"/>
		</g>
	</g>
	<path fill="#2E6186" d="M87.5,39.3c-15.2,0-30.4,3-44.7,8.9V81c14.3-5.9,29.5-8.9,44.7-8.9c15.2,0,30.4,3,44.7,8.9V48.1
		C117.9,42.2,102.7,39.3,87.5,39.3z"/>
	<path fill="#517B9A" d="M87.5,39.3c-15.2,0-30.4,3-44.7,8.9V81c7.7-3.2,15.7-5.5,23.8-7l34-33.9C96.2,39.5,91.9,39.3,87.5,39.3z"/>
</g>
</svg>
