<?xml version="1.0" encoding="utf-8"?>
<!-- Generator: Adobe Illustrator 18.1.1, SVG Export Plug-In . SVG Version: 6.00 Build 0)  -->
<svg version="1.1" id="Layer_1" xmlns="http://www.w3.org/2000/svg" xmlns:xlink="http://www.w3.org/1999/xlink" x="0px" y="0px"
	 viewBox="0 0 100 100" enable-background="new 0 0 100 100" xml:space="preserve">
<path fill="#FFFFFF" d="M-190,5c-24.9,0-45,20.1-45,45s20.1,45,45,45c24.9,0,45-20.1,45-45S-165.1,5-190,5z M-212.5,27.5h45
	c0.8,0,1.6,0.2,2.3,0.5L-190,56.9L-214.8,28C-214.1,27.7-213.3,27.5-212.5,27.5z M-218.1,66.9V33.1c0-0.1,0-0.2,0-0.4l16.5,19.2
	l-16.3,16.3C-218.1,67.9-218.1,67.4-218.1,66.9z M-167.5,72.5h-45c-0.5,0-1-0.1-1.5-0.2l16-16l7.9,9.3l7.9-9.3l16,16
	C-166.5,72.4-167,72.5-167.5,72.5z M-161.9,66.9c0,0.5-0.1,1-0.2,1.5L-178.4,52l16.5-19.2c0,0.1,0,0.2,0,0.4V66.9z"/>
<path fill="#FFFFFF" d="M-29.8,29.8C-35.3,18.9-45,10.5-56.9,6.9C-61,5.7-65.4,5-70,5s-9,0.7-13.1,1.9c-11.9,3.6-21.6,12-27.1,22.9
	c-3.1,6.1-4.8,12.9-4.8,20.2s1.7,14.1,4.8,20.2c3.5,6.9,8.7,12.9,15.2,17.2c7.2,4.8,15.8,7.6,25,7.6c9.3,0,17.9-2.8,25-7.6
	c6.4-4.3,11.7-10.3,15.2-17.2C-26.7,64.1-25,57.3-25,50S-26.7,35.9-29.8,29.8z M-80.1,72.3h-10V37.1h10V72.3z M-85.1,32.1
	c-2.8,0-5-2.2-5-5c0-2.8,2.2-5,5-5c2.8,0,5,2.3,5,5C-80.1,29.8-82.3,32.1-85.1,32.1z M-44.9,72.3h-10.1V52.2c0-2.8-2.2-5-5-5
	c-2.8,0-5,2.2-5,5v20.1H-75V37.1H-65v6.2c2.1-2.8,5.2-6.2,8.8-6.2c6.2,0,11.3,5.6,11.3,12.6V72.3z"/>
<g>
	<path fill="#FFFFFF" d="M91,31.6c-4-8.9-10.9-16.3-19.4-21C65.2,7,57.8,5,50,5c-7.8,0-15.2,2-21.6,5.5c-8.6,4.7-15.4,12-19.4,21
		C6.4,37.1,5,43.4,5,50c0,6.6,1.4,12.9,4,18.5c5.1,11.2,14.7,20,26.4,24C40,94.2,44.9,95,50,95c5.1,0,10-0.8,14.6-2.4
		C76.4,88.5,86,79.7,91,68.5c2.6-5.6,4-11.9,4-18.5C95,43.4,93.6,37.2,91,31.6z M58.4,30.7h17.8c1.7,0,3,1.4,3,3.1c0,1.7-1.4,3-3,3
		H58.4c-1.7,0-3-1.4-3-3C55.3,32,56.7,30.7,58.4,30.7z M51.1,62c0,0.2-0.1,0.5-0.2,0.8c-0.1,0.5-0.2,0.9-0.4,1.3
		c-0.9,2.3-2.5,4.2-4.6,5.6c-0.6,0.4-1.2,0.6-1.7,0.9c-0.6,0.3-1.2,0.5-1.9,0.6c-0.3,0.1-0.6,0.2-1,0.2c-0.1,0-0.3,0-0.4,0
		c-0.3,0.1-0.6,0.2-0.9,0.2h-0.3c-0.2,0.1-0.6,0.1-0.9,0.1h-0.3c-0.2,0-0.4,0-0.6,0H22.3c-0.5,0-0.9,0-1.3-0.1c-1-0.1-1.6-0.6-1.9-1
		c-0.3-0.5-0.5-0.9-0.5-1.5c0-0.3,0-0.7,0-1.1V33.5c0-0.6,0.1-1.2,0.4-1.6c0.3-0.5,0.8-0.8,1.5-1.1l0.9-0.1l15.9,0
		c0.2,0,0.4,0,0.6,0.1l0.8,0.1c0.4,0,0.6,0,0.9,0.1l0.8,0.1c0.5,0,0.8,0.1,1.2,0.2c0.1,0,0.4,0.1,0.6,0.1c0.3,0.1,0.7,0.1,1.1,0.3
		c2,0.8,3.5,2.1,4.6,3.6c0.6,0.9,1.1,1.9,1.5,2.9c0.1,0.4,0.2,0.7,0.2,1.1c0,0.1,0,0.3,0.1,0.5c0.1,0.3,0.1,0.7,0.1,1l0,1.5
		c-0.1,0.3-0.1,0.5-0.1,0.8c0,0.4-0.1,0.8-0.2,1.2c-0.5,2-1.3,3.5-2.6,4.7c-0.2,0.3-0.6,0.6-1,0.9c0.3,0.1,0.4,0.3,0.6,0.3
		c1.2,0.8,2.2,1.7,3,2.8c0.3,0.5,0.6,1,0.9,1.5c0.2,0.5,0.4,1,0.6,1.5c0.3,0.9,0.4,1.9,0.4,3C51.5,60.2,51.3,61.1,51.1,62z
		 M81.4,56.8c-0.1,0.8-0.3,1.3-0.7,1.7c-0.5,0.4-1,0.6-1.6,0.7c-0.7,0.1-1.7,0.1-2.7,0.1H60.8c0,0,0,0,0,0c0.1,0.3,0.1,0.6,0.1,0.7
		l0.2,1c0.1,0.2,0.1,0.4,0.2,0.6c0.7,1.7,1.8,2.8,3.4,3.5c0.2,0.1,0.3,0.1,0.5,0.2l1.3,0.3c0.3,0.1,0.7,0.2,1.6,0.2
		c0.8,0,1.3-0.1,1.6-0.2c0.5-0.1,0.9-0.3,1.2-0.4c0.3-0.1,0.6-0.3,0.9-0.5c0.3-0.2,0.5-0.4,0.8-0.6c0.2-0.3,0.4-0.6,0.6-0.9
		c0.2-0.4,0.3-0.7,0.5-1c0.3-0.7,0.8-1.3,1.5-1.6c0.3-0.1,0.6-0.2,1.2-0.3c0.3,0,0.5-0.1,0.8-0.1h0.4c0.3,0,0.7,0.1,1,0.1
		c0.6,0.1,1.1,0.3,1.4,0.6c0.7,0.5,1,1.5,0.6,2.7c-0.3,1-0.7,2-1.3,2.9c-0.8,1.3-1.7,2.4-2.7,3.2c-1,0.8-2.4,1.5-3.9,2
		c-0.4,0.2-0.8,0.3-1.3,0.3c-0.4,0.1-0.7,0.1-1.1,0.2c-0.3,0.1-0.5,0.1-0.8,0.1l-1,0c0,0-0.3,0.1-0.6,0.1c-0.3,0-0.5,0-0.7-0.1
		l-0.8,0c-0.2,0-0.5,0-0.8-0.1c-0.1,0-0.2,0-0.4,0c-0.3,0-0.5-0.1-0.7-0.1c-0.4-0.1-0.7-0.2-1.1-0.3c-0.4-0.1-0.7-0.2-1-0.3
		c-0.4-0.1-0.6-0.2-0.9-0.3c-0.5-0.3-1.2-0.6-1.8-1c-1.2-0.8-2.2-1.7-3-2.9c-0.8-1-1.5-2.3-2-3.6c-0.2-0.4-0.4-0.9-0.5-1.5
		c-0.1-0.4-0.2-0.7-0.3-1.1c-0.1-0.3-0.1-0.6-0.1-0.8c-0.1-0.4-0.1-0.8-0.2-1.2c0-0.3-0.1-0.5-0.1-0.8l0-0.9c0-0.2-0.1-0.4-0.1-0.7
		c0-0.4,0-0.7,0-1V55l0.1-0.3c-0.1-0.2-0.1-0.6,0-0.9c0.1-0.6,0.3-1.1,0.3-1.6c0.1-0.7,0.3-1.4,0.6-2c0.2-0.4,0.3-0.8,0.5-1.2
		c0.2-0.5,0.4-0.9,0.6-1.4c0.9-1.4,1.9-2.6,3-3.6c1.1-1,2.5-1.9,4.1-2.6c0.5-0.2,1-0.3,1.5-0.5l1.4-0.3c0.3-0.1,0.4-0.1,0.6-0.1
		c0.1,0,0.2,0,0.3,0l0.3,0l1,0c1.4,0,2.8,0.2,3.9,0.5c1.2,0.4,2.3,0.9,3.3,1.5c0.1,0.1,0.5,0.3,0.7,0.6c0.5,0.3,0.8,0.6,1.2,1
		c0.4,0.3,0.7,0.7,1,1c0.6,0.8,1.1,1.6,1.5,2.3c0.3,0.5,0.5,1,0.7,1.6c0.1,0.4,0.3,0.9,0.5,1.3c0.2,0.6,0.4,1.1,0.5,1.7
		c0.1,0.5,0.2,0.9,0.3,1.4c0.1,0.5,0.1,0.7,0.1,1c0,0.2,0.1,0.4,0.1,0.7C81.5,55.6,81.5,56.1,81.4,56.8z"/>
	<path fill="#FFFFFF" d="M43.6,59.1c-0.1,0.3-0.1,0.6,0,0.9c0,0,0,0,0,0.1c-0.1,0.4-0.2,0.9-0.3,1.3c-0.1,0.3-0.2,0.6-0.4,0.8
		c-0.3,0.6-0.7,1-1.2,1.3c-0.5,0.3-1.2,0.6-2,0.9c-0.4,0.1-0.8,0.2-1.3,0.2H27.3c-0.4,0-0.7,0-0.8,0.1c0,0-0.1-0.1-0.1-0.5v-7.8
		c0-0.5,0-1-0.1-1.6c0-0.3,0-0.5,0-0.6l10.2-0.1h0.1c0.5,0.2,1,0.1,1.4,0.1c0.4,0.1,0.8,0.1,1.2,0.2c0.3,0,0.5,0.1,0.6,0.1
		c0.8,0.3,1.4,0.5,1.9,0.8c0.4,0.3,0.8,0.6,1.1,1c0.3,0.4,0.5,0.8,0.6,1.5c0,0.2,0,0.5,0.1,0.8C43.6,58.7,43.6,58.9,43.6,59.1z"/>
	<path fill="#FFFFFF" d="M42,42.2c0,0.3,0,0.5-0.1,0.8c-0.1,0.8-0.3,1.4-0.5,1.8c-0.3,0.5-0.6,0.8-1,1.1c-0.5,0.3-1.1,0.6-1.8,0.8
		c-0.2,0.1-0.4,0.1-0.6,0.1c-0.5,0-1,0.1-1.3,0.2l-0.5-0.1c-0.2,0-0.4,0-0.5,0.1h-1.3l-0.5,0.1c-0.3,0-0.6-0.1-0.9-0.1h-4.9
		c-0.2,0-0.5,0-0.8,0.1l-0.7-0.1l-0.2-0.1v-7.4c0-0.4,0-0.9-0.1-1.4c0-0.3,0-0.4,0-0.5l7-0.1c1,0,1.9,0,2.7,0.1
		c0.9,0,1.7,0.1,2.4,0.2c0.7,0.1,1.3,0.3,1.7,0.6c0.5,0.2,0.8,0.4,1,0.8c0.1,0.2,0.2,0.4,0.3,0.6l0.3,1c0,0.3,0,0.5,0.1,0.6
		C42,41.8,42,42,42,42.2z"/>
	<path fill="#FFFFFF" d="M73.6,52.5h-0.3c-0.8,0-1.4,0-2,0h-8.2c-0.5,0-1.1,0-1.9,0.1c-0.1,0-0.2,0-0.3,0c0,0,0-0.1,0-0.1
		c0.1-0.2,0.1-0.5,0.2-0.7c0.1-0.2,0.1-0.3,0.3-0.5c0.4-0.8,0.9-1.5,1.4-2.1c0.5-0.5,1.2-1,1.9-1.2c0.3-0.1,0.5-0.1,0.7-0.2
		c0.3,0,0.5-0.1,0.8-0.2l0.2,0c0.2,0,0.4-0.1,0.6-0.1h0.6c0.2,0,0.4,0,0.6,0.1c0.3,0.1,0.6,0.1,0.9,0.2c0.2,0.1,0.4,0.1,0.5,0.1
		c0.8,0.3,1.4,0.7,1.9,1.2c0.5,0.5,1,1.1,1.4,1.8C73.2,51.3,73.5,51.9,73.6,52.5z"/>
</g>
<path fill="#FFFFFF" d="M170,5c-24.9,0-45,20.1-45,45s20.1,45,45,45s45-20.1,45-45S194.9,5,170,5z M174.4,65.1
	c-4.1-0.3-5.8-2.3-9-4.3c-1.8,9.2-3.9,18.1-10.3,22.7c-2-14,2.9-24.5,5.1-35.6c-3.8-6.5,0.5-19.5,8.6-16.3c10,4-8.6,24.1,3.9,26.6
	c13.1,2.6,18.4-22.7,10.3-30.9c-11.7-11.9-34.1-0.3-31.3,16.7c0.7,4.2,5,5.4,1.7,11.2c-7.5-1.7-9.7-7.6-9.4-15.4
	c0.5-12.9,11.6-21.9,22.7-23.2c14.1-1.6,27.3,5.2,29.2,18.4C197.9,50.1,189.4,66.3,174.4,65.1z"/>
</svg>
