<?xml version="1.0" encoding="utf-8"?>
<!-- Generator: Adobe Illustrator 18.1.1, SVG Export Plug-In . SVG Version: 6.00 Build 0)  -->
<svg version="1.1" id="Layer_1" xmlns="http://www.w3.org/2000/svg" xmlns:xlink="http://www.w3.org/1999/xlink" x="0px" y="0px"
	 viewBox="0 0 273.6 130.1" enable-background="new 0 0 273.6 130.1" xml:space="preserve">
<g>
	<path fill="#FFFFFF" d="M269.5,43.3h4v-5.2h-4V43.3z M232.9,28.5l11.2-24.6l11.2,24.6H232.9z M222.9,43.3h3.3l5.4-11.9h25.1
		l5.4,11.9h3.5L245.7,0.4h-3L222.9,43.3z M192,43.3h3.2V26.4l18.2-25.6h-3.8l-16,22.8L177.7,0.7h-3.9L192,26.4V43.3z M137.4,43.3
		H168v-2.9h-27.4V23.3H165v-2.9h-24.4V3.6h27.1V0.7h-30.3V43.3z M97.9,22.8V3.6h14.5c7.7,0,12.2,3.6,12.2,9.3v0.1
		c0,6.1-5.3,9.7-12.4,9.7H97.9z M94.7,43.3h3.2V25.6h13.9l13.6,17.6h4l-14-18.2c7.2-1,12.5-5,12.5-12.2v-0.1c0-3-1.2-5.9-3.2-7.9
		c-2.6-2.6-6.7-4.2-12-4.2H94.7V43.3z M65.1,41.1c-10.5,0-18.2-8.6-18.2-19.1v-0.1c0-10.5,7.5-19,18-19c10.5,0,18.2,8.6,18.2,19.1
		v0.1C83.1,32.6,75.6,41.1,65.1,41.1 M65,44c12.9,0,21.4-10.4,21.4-22v-0.1C86.4,10.3,78,0,65.1,0C52.2,0,43.6,10.4,43.6,22v0.1
		C43.6,33.7,52.1,44,65,44 M21.1,44c7.5,0,12.4-3,16.9-7.4l-2.1-2.1c-4.3,4.3-8.5,6.6-14.6,6.6c-10.1,0-18-8.4-18-19.1v-0.1
		c0-10.7,7.7-19,17.9-19c6.4,0,10.6,2.7,14.3,6.3l2.2-2.3C33.4,2.8,28.9,0,21.3,0C9,0,0,10,0,22v0.1C0,34.3,9,44,21.1,44"/>
	<path fill="#FFFFFF" d="M244.7,100.1h6.9V69.7l15.8,30.4h6.2v-46h-6.9v29.3l-15.3-29.3h-6.6V100.1z M219.7,83.2l5.1-18.5l5,18.5
		H219.7z M208.1,100.1h7l2.8-10.6h13.5l2.9,10.6h7.3l-13.2-46.2h-7.2L208.1,100.1z M171.3,100.1h6.8v-32l9.6,20.8h0.2l9.6-20.8v32
		h6.9v-46h-7.3l-9.3,20.5l-9.3-20.5h-7.3V100.1z M147.3,77.2V60.6h4.5c5.5,0,8.6,2.8,8.6,8.3c0,5-2.8,8.4-8.9,8.4H147.3z
		 M140.2,100.1h7.1V83.6h4.5c0.3,0,0.5,0,0.9-0.1l8,16.6h8l-8.9-18.4c4.5-2,7.9-6.2,7.9-13v-0.3c0-4.5-1.4-8-3.7-10.4
		c-2.6-2.6-6.6-4-11.3-4h-12.2V100.1z M113.7,100.1h23.5v-6.6h-16.4V80.2h14.4v-6.5h-14.4v-13h16.2v-6.6h-23.2V100.1z M94.4,100.1
		h7.1V60.7h9.3v-6.6H85.2v6.6h9.2V100.1z M65.6,100.1h7.1V60.7H82v-6.6H56.4v6.6h9.2V100.1z M39.7,100.8c8.5,0,14.2-5.4,14.2-16.1
		V54.1h-7v31c0,6.1-2.8,9.1-7.1,9.1c-4.3,0-7.1-3-7.1-9.1v-31h-7.1v30.7C25.6,95.4,31.3,100.8,39.7,100.8 M0,100.1h7.1V80.7H21V74
		H7.1V60.6h15.7v-6.6H0V100.1z"/>
	<path fill="#FFFFFF" d="M260.1,120.6v-7.7h5.8c3,0,4.8,1.4,4.8,3.7v0.1c0,2.4-2,3.9-4.9,3.9H260.1z M257.9,129.8h2.1v-7.3h5.4
		l5.5,7.3h2.6l-5.8-7.7c3-0.5,5.1-2.4,5.1-5.5v-0.1c0-1.5-0.5-2.8-1.5-3.7c-1.2-1.2-3-1.9-5.4-1.9h-8.1V129.8z M239.9,129.8h13.8
		v-1.9H242v-6.6h10.3v-1.9H242v-6.5h11.5v-1.9h-13.6V129.8z M219.4,129.8h2.1v-15.5l12.2,15.5h1.7v-18.9h-2.1v15.1l-11.9-15.1h-2
		V129.8z M207,130.1c3.2,0,5.8-1.3,7.6-2.9v-7.5h-7.8v1.9h5.7v4.7c-1.3,1.1-3.3,1.9-5.5,1.9c-4.6,0-7.5-3.3-7.5-7.9v-0.1
		c0-4.2,3-7.7,7.2-7.7c2.7,0,4.3,0.9,5.7,2.2l1.4-1.6c-1.9-1.6-3.9-2.5-7-2.5c-5.7,0-9.5,4.6-9.5,9.8v0.1
		C197.4,125.8,201,130.1,207,130.1 M190.6,129.8h2.1v-18.9h-2.1V129.8z M179.6,130.1c3.8,0,6.4-2.1,6.4-5.3v-0.1
		c0-2.9-1.9-4.4-6.1-5.3c-4.2-0.9-5.1-1.9-5.1-3.7v-0.1c0-1.7,1.6-3,4-3c1.9,0,3.7,0.6,5.5,2.1l1.2-1.6c-1.9-1.5-3.9-2.3-6.6-2.3
		c-3.6,0-6.2,2.2-6.2,5.2v0.1c0,3.1,2,4.5,6.3,5.5c4,0.8,4.9,1.8,4.9,3.6v0.1c0,1.9-1.7,3.2-4.2,3.2c-2.6,0-4.5-0.9-6.5-2.7
		l-1.3,1.6C174.1,129.1,176.6,130.1,179.6,130.1 M155,129.8h13.8v-1.9h-11.7v-6.6h10.3v-1.9h-10.3v-6.5h11.5v-1.9H155V129.8z
		 M141,112.9c4.8,0,7.8,3.3,7.8,7.5v0.1c0,4.2-3,7.4-7.8,7.4h-4.4v-15H141z M134.5,129.8h6.6c5.9,0,10-4.1,10-9.4v-0.1
		c0-5.3-4.1-9.4-10-9.4h-6.6V129.8z M115.1,130.1c3.4,0,5.6-1.3,7.6-3.3l-1.4-1.4c-1.8,1.7-3.5,2.7-6.1,2.7c-4.2,0-7.3-3.4-7.3-7.8
		v-0.1c0-4.3,3.1-7.7,7.3-7.7c2.6,0,4.3,1.1,5.9,2.6l1.5-1.6c-1.9-1.8-3.9-3-7.4-3c-5.6,0-9.5,4.4-9.5,9.8v0.1
		C105.6,125.9,109.7,130.1,115.1,130.1 M98.8,129.8h2.1v-18.9h-2.1V129.8z M78.7,129.8h2.1v-8.5h10.9v8.5h2.1v-18.9h-2.1v8.4H80.8
		v-8.4h-2.1V129.8z M63.3,121.2v-8.3h4.8c3,0,5.1,1.4,5.1,4.1v0.1c0,2.5-2.1,4.2-5.2,4.2H63.3z M61.2,129.8h2.1v-6.7h4.6
		c4,0,7.4-2.1,7.4-6.2v-0.1c0-3.7-2.8-6-7.1-6h-7.1V129.8z M44.1,122.9l4.3-9.6l4.3,9.6H44.1z M38.8,129.8H41l2.2-5h10.3l2.2,5H58
		l-8.6-19h-2L38.8,129.8z M23,120.6v-7.7h5.8c3,0,4.8,1.4,4.8,3.7v0.1c0,2.4-2,3.9-4.9,3.9H23z M20.9,129.8H23v-7.3h5.4l5.5,7.3h2.6
		l-5.8-7.7c3-0.5,5.1-2.4,5.1-5.5v-0.1c0-1.5-0.5-2.8-1.5-3.7c-1.2-1.2-3-1.9-5.4-1.9h-8.1V129.8z M9.6,130.1c3.2,0,5.8-1.3,7.6-2.9
		v-7.5H9.4v1.9h5.7v4.7c-1.3,1.1-3.3,1.9-5.4,1.9c-4.6,0-7.5-3.3-7.5-7.9v-0.1c0-4.2,3-7.7,7.2-7.7c2.7,0,4.3,0.9,5.7,2.2l1.4-1.6
		c-1.9-1.6-3.9-2.5-7-2.5c-5.7,0-9.5,4.6-9.5,9.8v0.1C0,125.8,3.7,130.1,9.6,130.1"/>
	<path fill="#FFFFFF" d="M-59.8,27.9c-0.6-0.3-1.2-0.7-1.8-1C-61.1,27.3-60.4,27.6-59.8,27.9"/>
</g>
</svg>
