<?xml version="1.0" encoding="utf-8"?>
<!-- Generator: Adobe Illustrator 18.1.1, SVG Export Plug-In . SVG Version: 6.00 Build 0)  -->
<svg version="1.1" id="Layer_1" xmlns="http://www.w3.org/2000/svg" xmlns:xlink="http://www.w3.org/1999/xlink" x="0px" y="0px"
	 viewBox="0 0 415 130.1" enable-background="new 0 0 415 130.1" xml:space="preserve">
<g>
	<path fill="#003C73" d="M407.6,44h3.9v-5h-3.9V44z M372.2,29.7L383,5.9l10.8,23.8H372.2z M362.5,44h3.2l5.2-11.5h24.3l5.2,11.5h3.4
		L384.6,2.5h-2.9L362.5,44z M332.6,44h3.1V27.6l17.6-24.8h-3.6l-15.5,22.1L318.8,2.8H315l17.6,24.9V44z M279.8,44h29.6v-2.8h-26.5
		V24.6h23.6v-2.8h-23.6V5.7h26.2V2.8h-29.3V44z M241.6,24.2V5.7h14c7.5,0,11.8,3.5,11.8,9v0.1c0,5.9-5.1,9.4-12,9.4H241.6z
		 M238.5,44h3.1v-17H255l13.1,17h3.9l-13.6-17.6c6.9-0.9,12-4.9,12-11.8v-0.1c0-2.9-1.2-5.7-3.1-7.6c-2.5-2.5-6.5-4.1-11.6-4.1
		h-17.3V44z M209.8,41.9c-10.2,0-17.6-8.3-17.6-18.5v-0.1c0-10.2,7.3-18.4,17.5-18.4c10.2,0,17.6,8.3,17.6,18.5v0.1
		C227.3,33.7,220,41.9,209.8,41.9 M209.7,44.7c12.5,0,20.7-10,20.7-21.3v-0.1c0-11.2-8.2-21.2-20.6-21.2
		c-12.5,0-20.7,10.1-20.7,21.3v0.1C189.1,34.8,197.3,44.7,209.7,44.7 M167.3,44.7c7.3,0,12-2.9,16.3-7.2l-2.1-2
		c-4.2,4.1-8.2,6.4-14.2,6.4c-9.8,0-17.4-8.1-17.4-18.5v-0.1c0-10.3,7.5-18.4,17.3-18.4c6.2,0,10.3,2.6,13.9,6.1l2.2-2.2
		c-4.2-3.9-8.6-6.6-16-6.6c-11.9,0-20.6,9.6-20.6,21.3v0.1C146.9,35.3,155.6,44.7,167.3,44.7"/>
	<path fill="#003C73" d="M383.6,98.9h6.7V69.6l15.3,29.4h6V54.4h-6.7v28.4L390,54.4h-6.4V98.9z M359.4,82.6l4.9-17.9l4.8,17.9H359.4
		z M348.2,98.9h6.8l2.7-10.2h13l2.8,10.2h7.1l-12.8-44.7h-6.9L348.2,98.9z M312.6,98.9h6.6V68l9.3,20.1h0.2l9.3-20.2v31h6.7V54.4
		h-7.1l-9,19.8l-9-19.8h-7.1V98.9z M289.3,76.8V60.7h4.3c5.3,0,8.3,2.7,8.3,8c0,4.8-2.7,8.1-8.6,8.1H289.3z M282.5,98.9h6.9V83h4.3
		c0.3,0,0.5,0,0.8-0.1l7.7,16h7.7l-8.7-17.7c4.4-2,7.6-6,7.6-12.5v-0.3c0-4.3-1.3-7.8-3.6-10.1c-2.5-2.5-6.4-3.9-10.9-3.9h-11.8
		V98.9z M256.8,98.9h22.7v-6.4h-15.9V79.7h13.9v-6.3h-13.9V60.8h15.7v-6.4h-22.5V98.9z M238.2,98.9h6.9V60.8h9v-6.4h-24.7v6.4h8.9
		V98.9z M210.4,98.9h6.9V60.8h9v-6.4h-24.7v6.4h8.9V98.9z M185.3,99.6c8.2,0,13.7-5.2,13.7-15.6V54.4h-6.8v30c0,5.9-2.7,8.8-6.9,8.8
		c-4.2,0-6.9-2.9-6.9-8.8v-30h-6.9v29.6C171.6,94.4,177.2,99.6,185.3,99.6 M146.9,98.9h6.9V80.2h13.4v-6.4h-13.4v-13H169v-6.4h-22.1
		V98.9z"/>
	<path fill="#003C73" d="M398.4,118.7v-7.4h5.6c2.9,0,4.7,1.4,4.7,3.6v0.1c0,2.3-2,3.8-4.7,3.8H398.4z M396.4,127.7h2.1v-7.1h5.2
		l5.3,7.1h2.5l-5.6-7.5c2.9-0.5,5-2.3,5-5.3v-0.1c0-1.4-0.5-2.7-1.4-3.6c-1.1-1.1-2.9-1.8-5.2-1.8h-7.9V127.7z M378.9,127.7h13.3
		v-1.9H381v-6.4h10v-1.9h-10v-6.2h11.1v-1.9h-13.2V127.7z M359.1,127.7h2v-15l11.8,15h1.6v-18.3h-2v14.6L361,109.4h-1.9V127.7z
		 M347.1,128c3.1,0,5.6-1.3,7.3-2.8v-7.3h-7.5v1.8h5.6v4.5c-1.3,1-3.2,1.8-5.3,1.8c-4.4,0-7.2-3.2-7.2-7.6v-0.1
		c0-4.1,2.9-7.5,6.9-7.5c2.6,0,4.2,0.9,5.6,2.1l1.3-1.6c-1.8-1.5-3.7-2.4-6.8-2.4c-5.5,0-9.2,4.4-9.2,9.4v0.1
		C337.8,123.8,341.3,128,347.1,128 M331.2,127.7h2.1v-18.3h-2.1V127.7z M320.6,128c3.6,0,6.2-2,6.2-5.2v-0.1c0-2.8-1.9-4.3-5.9-5.2
		c-4-0.9-5-1.8-5-3.5V114c0-1.6,1.5-2.9,3.9-2.9c1.9,0,3.6,0.6,5.3,2l1.2-1.6c-1.9-1.5-3.8-2.2-6.4-2.2c-3.5,0-6,2.1-6,5v0.1
		c0,3,1.9,4.4,6.1,5.3c3.8,0.8,4.8,1.8,4.8,3.5v0.1c0,1.8-1.6,3.1-4.1,3.1c-2.5,0-4.4-0.9-6.3-2.6l-1.3,1.5
		C315.3,127,317.7,128,320.6,128 M296.8,127.7h13.3v-1.9h-11.3v-6.4h10v-1.9h-10v-6.2H310v-1.9h-13.2V127.7z M283.3,111.3
		c4.6,0,7.6,3.2,7.6,7.2v0.1c0,4-2.9,7.2-7.6,7.2H279v-14.5H283.3z M277,127.7h6.3c5.7,0,9.7-4,9.7-9.1v-0.1c0-5.1-4-9.1-9.7-9.1
		H277V127.7z M258.2,128c3.3,0,5.4-1.3,7.3-3.2l-1.4-1.3c-1.7,1.7-3.4,2.6-5.9,2.6c-4,0-7.1-3.3-7.1-7.5v-0.1c0-4.2,3-7.5,7.1-7.5
		c2.5,0,4.2,1,5.7,2.5l1.4-1.5c-1.8-1.7-3.8-2.9-7.1-2.9c-5.4,0-9.2,4.3-9.2,9.4v0.1C249.1,123.9,252.9,128,258.2,128 M242.5,127.7
		h2.1v-18.3h-2.1V127.7z M223,127.7h2.1v-8.2h10.5v8.2h2.1v-18.3h-2.1v8.1H225v-8.1H223V127.7z M208.1,119.4v-8h4.6
		c2.9,0,4.9,1.4,4.9,4v0.1c0,2.4-2,4-5,4H208.1z M206.1,127.7h2.1v-6.4h4.4c3.9,0,7.2-2,7.2-6v-0.1c0-3.6-2.7-5.8-6.8-5.8h-6.8
		V127.7z M189.5,121l4.2-9.3l4.1,9.3H189.5z M184.4,127.7h2.1l2.2-4.8h9.9l2.1,4.8h2.2l-8.3-18.4h-1.9L184.4,127.7z M169.2,118.7
		v-7.4h5.6c2.9,0,4.7,1.4,4.7,3.6v0.1c0,2.3-2,3.8-4.7,3.8H169.2z M167.1,127.7h2.1v-7.1h5.2l5.3,7.1h2.5l-5.6-7.5
		c2.9-0.5,5-2.3,5-5.3v-0.1c0-1.4-0.5-2.7-1.4-3.6c-1.1-1.1-2.9-1.8-5.2-1.8h-7.9V127.7z M156.2,128c3.1,0,5.6-1.3,7.3-2.8v-7.3H156
		v1.8h5.6v4.5c-1.3,1-3.2,1.8-5.3,1.8c-4.4,0-7.2-3.2-7.2-7.6v-0.1c0-4.1,2.9-7.5,6.9-7.5c2.6,0,4.1,0.9,5.6,2.1l1.3-1.6
		c-1.8-1.5-3.7-2.4-6.8-2.4c-5.5,0-9.2,4.4-9.2,9.4v0.1C146.9,123.8,150.4,128,156.2,128"/>
	<path fill="#003C73" d="M68.2,120.1c-31,0-56.2-24.7-56.2-55.1C11.9,34.7,37.1,10,68.2,10c24.7,0,45.6,15.5,53.2,37.2h8.4
		c-7.9-26-32.5-45-61.6-45C32.7,2.1,3.9,30.3,3.9,65.1c0,34.8,28.8,62.9,64.3,62.9c29.1,0,53.7-19,61.6-45h-8.4
		C113.8,104.6,92.8,120.1,68.2,120.1"/>
	<path fill="#003C73" d="M64.2,61.2H26.2C28,41.5,44.1,25.8,64.2,23.9V61.2z M72.1,16c-1.3-0.1-2.6-0.1-3.9-0.1
		c-1.3,0-2.6,0-3.9,0.1C39.6,17.9,20,37.1,18.1,61.2C18,62.5,18,63.8,18,65.1c0,1.3,0,2.6,0.2,3.8c1.3,16.6,11,30.8,24.9,38.7v-9.4
		c-9.4-6.8-15.7-17.3-16.9-29.3h38.1v45.2c1.3,0.1,2.6,0.1,3.9,0.1c1.3,0,2.6,0,3.9-0.1V68.9H97v-7.7H72.1V24
		c0.6,0.1,1.2,0.1,1.8,0.2c0.3,0,0.6,0.1,0.9,0.1c0.3,0,0.6,0.1,0.9,0.2c0.1,0,0.2,0,0.3,0.1c0.5,0.1,1,0.2,1.5,0.3
		c0.1,0,0.2,0.1,0.4,0.1c0.1,0,0.2,0,0.2,0.1c0.3,0.1,0.6,0.1,0.8,0.2c0.1,0,0.2,0,0.2,0.1c0.4,0.1,0.7,0.2,1,0.3
		c0.2,0.1,0.4,0.1,0.7,0.2c0.2,0.1,0.4,0.1,0.6,0.2c0.1,0,0.1,0,0.2,0.1c0.2,0.1,0.5,0.2,0.7,0.3c0.3,0.1,0.6,0.2,0.9,0.3
		c0.2,0.1,0.4,0.1,0.6,0.2c0.3,0.1,0.5,0.2,0.8,0.3c0.4,0.2,0.8,0.4,1.2,0.5c0.2,0.1,0.4,0.2,0.6,0.3c0.2,0.1,0.4,0.2,0.6,0.3
		c0.6,0.3,1.2,0.6,1.8,0.9c0.2,0.1,0.4,0.2,0.6,0.3c0.2,0.1,0.4,0.2,0.5,0.3c0.2,0.1,0.4,0.2,0.6,0.4c0.3,0.2,0.7,0.4,1,0.6
		c0.4,0.3,0.8,0.5,1.2,0.8c0.2,0.1,0.4,0.3,0.5,0.4c0.4,0.3,0.7,0.5,1.1,0.8c0.1,0.1,0.2,0.2,0.3,0.2c0.1,0.1,0.2,0.1,0.3,0.2
		c0.2,0.1,0.3,0.3,0.5,0.4c0.2,0.1,0.3,0.3,0.5,0.4c0.2,0.1,0.3,0.3,0.5,0.4c0.2,0.1,0.3,0.3,0.5,0.4c0.2,0.1,0.3,0.3,0.5,0.4
		c0.2,0.2,0.3,0.3,0.5,0.5c0.2,0.2,0.3,0.3,0.5,0.5c0.1,0.1,0.2,0.2,0.4,0.4c0.1,0.1,0.2,0.2,0.3,0.3c0.1,0.1,0.2,0.2,0.2,0.3
		c0.2,0.2,0.5,0.5,0.7,0.7c0.2,0.2,0.4,0.5,0.6,0.7c0.2,0.2,0.4,0.5,0.6,0.7c0,0,0.1,0.1,0.1,0.1c0.2,0.3,0.4,0.5,0.6,0.8
		c0.2,0.2,0.3,0.4,0.4,0.6c0.2,0.2,0.3,0.4,0.5,0.6c0.1,0.1,0.2,0.2,0.3,0.4c0.3,0.4,0.6,0.9,0.9,1.3c0,0.1,0.1,0.2,0.1,0.2
		c0.1,0.2,0.3,0.5,0.4,0.7c0.1,0.2,0.3,0.5,0.4,0.7c0.4,0.7,0.8,1.4,1.2,2.2h8.8C108.1,30,91.7,17.5,72.1,16"/>
	<path fill="#003C73" d="M89,29.2c-0.6-0.3-1.2-0.6-1.8-0.9C87.8,28.5,88.4,28.8,89,29.2"/>
</g>
</svg>
