<?xml version="1.0" encoding="utf-8"?>
<!-- Generator: Adobe Illustrator 18.1.1, SVG Export Plug-In . SVG Version: 6.00 Build 0)  -->
<svg version="1.1" id="Layer_1" xmlns="http://www.w3.org/2000/svg" xmlns:xlink="http://www.w3.org/1999/xlink" x="0px" y="0px"
	 viewBox="0 0 612 792" enable-background="new 0 0 612 792" xml:space="preserve">
<g>
	<path fill="#003C73" d="M606.2,364.4h5.8v-7.6h-5.8V364.4z M552.9,342.9l16.4-35.7l16.3,35.7H552.9z M538.4,364.4h4.8l7.8-17.3
		h36.5l7.8,17.3h5.1l-28.8-62.3h-4.4L538.4,364.4z M493.5,364.4h4.6v-24.5l26.4-37.2h-5.5l-23.2,33.1l-22.9-33.3h-5.7l26.4,37.3
		v24.5H493.5z M414.3,364.4h44.4v-4.2H419v-24.8h35.4v-4.2H419v-24.4h39.4v-4.2h-44L414.3,364.4L414.3,364.4z M356.8,334.6v-27.9
		h21.1c11.2,0,17.7,5.2,17.7,13.5v0.1c0,8.9-7.7,14.1-18,14.1h-20.8V334.6z M352.3,364.4h4.6v-25.7h20.2l19.8,25.6h5.8l-20.3-26.4
		c10.5-1.5,18.2-7.3,18.2-17.7V320c0-4.4-1.7-8.6-4.6-11.5c-3.8-3.8-9.7-6.1-17.4-6.1h-26v62H352.3z M309.2,361.2
		c-15.2,0-26.4-12.5-26.4-27.7v-0.1c0-15.2,10.9-27.6,26.1-27.6s26.4,12.5,26.4,27.7v0.1C335.5,348.9,324.4,361.2,309.2,361.2
		 M309,365.4c18.7,0,31.1-15.1,31.1-32v-0.1c0-16.8-12.2-31.8-30.9-31.8s-31.1,15.1-31.1,32v0.1C278.1,350.5,290.3,365.4,309,365.4
		 M245.4,365.4c10.9,0,18-4.4,24.5-10.7l-3-3c-6.2,6.2-12.3,9.6-21.2,9.6c-14.7,0-26.1-12.2-26.1-27.7v-0.1
		c0-15.5,11.2-27.6,26-27.6c9.3,0,15.4,3.9,20.8,9.1l3.2-3.3c-6.4-5.8-12.9-9.9-24-9.9c-17.9,0-30.9,14.5-30.9,32v0.1
		C214.7,351.3,227.7,365.4,245.4,365.4"/>
	<path fill="#003C73" d="M570,446.9h10v-44.1l22.9,44.1h9v-66.8h-10v42.6l-22.2-42.6h-9.6v66.8H570z M533.7,422.4l7.4-26.9l7.3,26.9
		H533.7z M516.9,446.9H527l4.1-15.4h19.6l4.2,15.4h10.6l-19.2-67.1h-10.5L516.9,446.9z M463.4,446.9h9.9v-46.5l13.9,30.2h0.3
		l13.9-30.2v46.5h10v-66.8H501l-13.5,29.8L474,380.1h-10.6L463.4,446.9L463.4,446.9z M428.6,413.6v-24.1h6.5c8,0,12.5,4.1,12.5,12.1
		c0,7.3-4.1,12.2-12.9,12.2h-6.1V413.6z M418.3,446.9h10.3v-24h6.5c0.4,0,0.7,0,1.3-0.1l11.6,24.1h11.6l-12.9-26.7
		c6.5-2.9,11.5-9,11.5-18.9v-0.4c0-6.5-2-11.6-5.4-15.1c-3.8-3.8-9.6-5.8-16.4-5.8h-18.2V446.9z M379.8,446.9h34.1v-9.6h-23.8V418
		H411v-9.4h-20.9v-18.9h23.5v-9.6h-33.7v66.8H379.8z M351.7,446.9h10.3v-57.2h13.5v-9.6h-37.2v9.6h13.4V446.9z M310.1,446.9h10.3
		v-57.2h13.5v-9.6h-37.2v9.6h13.4V446.9z M272.5,447.9c12.3,0,20.6-7.8,20.6-23.4v-44.4h-10.2v45c0,8.9-4.1,13.2-10.3,13.2
		s-10.3-4.4-10.3-13.2v-45H252v44.6C251.8,440.1,260.1,447.9,272.5,447.9 M214.7,446.9H225v-28.2h20.2V409H225v-19.5h22.8V380h-33.1
		V446.9z"/>
	<path fill="#003C73" d="M592.4,476.7v-11.2h8.4c4.4,0,7,2,7,5.4v0.1c0,3.5-2.9,5.7-7.1,5.7H592.4z M589.3,490h3v-10.6h7.8l8,10.6
		h3.8l-8.4-11.2c4.4-0.7,7.4-3.5,7.4-8v-0.1c0-2.2-0.7-4.1-2.2-5.4c-1.7-1.7-4.4-2.8-7.8-2.8h-11.8V490H589.3z M563.1,490h20v-2.8
		h-17v-9.6h15v-2.8h-15v-9.4h16.7v-2.8h-19.8V490L563.1,490z M533.3,490h3v-22.5l17.7,22.5h2.5v-27.4h-3v21.9l-17.3-21.9h-2.9V490
		L533.3,490z M515.3,490.5c4.6,0,8.4-1.9,11-4.2v-10.9H515v2.8h8.3v6.8c-1.9,1.6-4.8,2.8-8,2.8c-6.7,0-10.9-4.8-10.9-11.5v-0.1
		c0-6.1,4.4-11.2,10.5-11.2c3.9,0,6.2,1.3,8.3,3.2l2-2.3c-2.8-2.3-5.7-3.6-10.2-3.6c-8.3,0-13.8,6.7-13.8,14.2v0.1
		C501.3,484.2,506.7,490.5,515.3,490.5 M491.5,490h3v-27.4h-3V490z M475.5,490.5c5.5,0,9.3-3,9.3-7.7v-0.1c0-4.2-2.8-6.4-8.9-7.7
		c-6.1-1.3-7.4-2.8-7.4-5.4v-0.1c0-2.5,2.3-4.4,5.8-4.4c2.8,0,5.4,0.9,8,3l1.7-2.3c-2.8-2.2-5.7-3.3-9.6-3.3c-5.2,0-9,3.2-9,7.6v0.1
		c0,4.5,2.9,6.5,9.1,8c5.8,1.2,7.1,2.6,7.1,5.2v0.1c0,2.8-2.5,4.6-6.1,4.6c-3.8,0-6.5-1.3-9.4-3.9l-1.9,2.3
		C467.6,489,471.1,490.5,475.5,490.5 M439.9,490h20v-2.8h-17v-9.6h15v-2.8h-15v-9.4h16.7v-2.8h-19.8V490z M419.6,465.5
		c7,0,11.3,4.8,11.3,10.9v0.1c0,6.1-4.4,10.7-11.3,10.7h-6.4v-21.8H419.6z M410,490h9.6c8.6,0,14.5-6,14.5-13.7v-0.1
		c0-7.7-6-13.7-14.5-13.7H410V490z M381.8,490.5c4.9,0,8.1-1.9,11-4.8l-2-2c-2.6,2.5-5.1,3.9-8.9,3.9c-6.1,0-10.6-4.9-10.6-11.3
		v-0.1c0-6.2,4.5-11.2,10.6-11.2c3.8,0,6.2,1.6,8.6,3.8l2.2-2.3c-2.8-2.6-5.7-4.4-10.7-4.4c-8.1,0-13.8,6.4-13.8,14.2v0.1
		C368.2,484.4,374,490.5,381.8,490.5 M358.1,490h3v-27.4h-3V490z M328.9,490h3v-12.3h15.8V490h3v-27.4h-3v12.2H332v-12.2h-3V490z
		 M306.6,477.5v-12.1h7c4.4,0,7.4,2,7.4,6v0.1c0,3.6-3,6.1-7.6,6.1h-6.8V477.5z M303.5,490h3v-9.7h6.7c5.8,0,10.7-3,10.7-9v-0.1
		c0-5.4-4.1-8.7-10.3-8.7h-10.2V490z M278.7,480l6.2-13.9l6.2,13.9H278.7z M271,490h3.2l3.2-7.3h15l3.2,7.3h3.3l-12.5-27.6h-2.9
		L271,490z M248.2,476.7v-11.2h8.4c4.4,0,7,2,7,5.4v0.1c0,3.5-2.9,5.7-7.1,5.7H248.2z M245,490h3v-10.6h7.8l8,10.6h3.8l-8.4-11.2
		c4.4-0.7,7.4-3.5,7.4-8v-0.1c0-2.2-0.7-4.1-2.2-5.4c-1.7-1.7-4.4-2.8-7.8-2.8h-11.8V490H245z M228.6,490.5c4.6,0,8.4-1.9,11-4.2
		v-10.9h-11.3v2.8h8.3v6.8c-1.9,1.6-4.8,2.8-7.8,2.8c-6.7,0-10.9-4.8-10.9-11.5v-0.1c0-6.1,4.4-11.2,10.5-11.2
		c3.9,0,6.2,1.3,8.3,3.2l2-2.3c-2.8-2.3-5.7-3.6-10.2-3.6c-8.3,0-13.8,6.7-13.8,14.2v0.1C214.7,484.2,220,490.5,228.6,490.5"/>
	<path fill="#003C73" d="M96.4,478.7c-46.6,0-84.4-37-84.4-82.6s37.8-82.6,84.4-82.6c37,0,68.4,23.4,79.9,55.8h12.6
		c-11.8-39.2-48.7-67.7-92.5-67.7C43.1,301.5,0,343.8,0,396.1c0,52.1,43.1,94.5,96.4,94.5c43.7,0,80.7-28.5,92.5-67.5h-12.6
		C165,455.3,133.5,478.7,96.4,478.7"/>
	<path fill="#003C73" d="M90.6,390.3H33.4c2.9-29.6,26.9-53.3,57.2-55.9V390.3z M102.4,322.4c-1.9-0.1-3.9-0.3-6-0.3s-3.9,0-6,0.3
		c-36.7,2.8-66.2,31.7-69.1,67.8c-0.1,1.9-0.3,3.8-0.3,5.8c0,1.9,0.1,3.9,0.3,5.8c2,24.8,16.6,46.3,37.5,58.1v-14.1
		c-14.1-10.3-23.7-26-25.4-44.1h57.2v67.8c1.9,0.1,3.9,0.3,6,0.3s3.9,0,6-0.3v-67.8H140v-11.6h-37.6v-55.8c0.9,0.1,1.9,0.1,2.8,0.3
		c0.4,0,0.9,0.1,1.3,0.1c0.4,0,0.9,0.1,1.3,0.3c0.1,0,0.3,0,0.4,0.1c0.7,0.1,1.5,0.3,2.3,0.4c0.1,0,0.4,0.1,0.6,0.1
		c0.1,0,0.3,0,0.4,0.1c0.4,0.1,0.9,0.1,1.3,0.3c0.1,0,0.3,0,0.3,0.1c0.6,0.1,1,0.3,1.6,0.4c0.3,0.1,0.7,0.1,1,0.3
		c0.3,0.1,0.6,0.1,1,0.3c0.1,0,0.1,0,0.3,0.1c0.4,0.1,0.7,0.3,1.2,0.4c0.4,0.1,0.9,0.3,1.5,0.6c0.3,0.1,0.6,0.1,0.9,0.3
		c0.4,0.1,0.7,0.3,1.2,0.4c0.6,0.3,1.3,0.6,1.9,0.9c0.3,0.1,0.6,0.3,0.9,0.4c0.3,0.1,0.6,0.3,0.9,0.4c0.9,0.4,1.7,0.9,2.6,1.5
		c0.3,0.1,0.6,0.3,0.9,0.4c0.3,0.1,0.6,0.3,0.9,0.4c0.3,0.1,0.6,0.4,0.9,0.6c0.6,0.3,1,0.6,1.6,1s1.2,0.9,1.7,1.3
		c0.3,0.1,0.6,0.4,0.9,0.6c0.6,0.4,1,0.9,1.6,1.2c0.1,0.1,0.3,0.3,0.4,0.3c0.1,0.1,0.3,0.1,0.4,0.3c0.3,0.1,0.4,0.4,0.7,0.6
		c0.3,0.1,0.6,0.4,0.7,0.6c0.3,0.1,0.4,0.4,0.7,0.7c0.3,0.1,0.4,0.4,0.7,0.7c0.3,0.1,0.4,0.4,0.7,0.7c0.3,0.3,0.4,0.4,0.7,0.7
		c0.3,0.3,0.4,0.4,0.7,0.7c0.1,0.1,0.3,0.4,0.6,0.6c0.1,0.1,0.3,0.3,0.4,0.4s0.3,0.3,0.4,0.4c0.3,0.4,0.7,0.7,1,1.2
		c0.3,0.3,0.6,0.7,0.9,1s0.6,0.7,0.9,1l0.1,0.1c0.3,0.4,0.6,0.7,0.9,1.2c0.3,0.3,0.4,0.6,0.7,0.9c0.3,0.3,0.4,0.6,0.7,1
		c0.1,0.1,0.3,0.4,0.4,0.6c0.4,0.7,0.9,1.3,1.3,2c0,0.1,0.1,0.3,0.1,0.3c0.1,0.3,0.4,0.7,0.6,1c0.1,0.3,0.4,0.7,0.6,1.2
		c0.6,1,1.2,2.2,1.7,3.3H167C156.4,343.4,131.7,324.6,102.4,322.4"/>
	<path fill="#003C73" d="M127.8,342c-0.9-0.4-1.7-1-2.6-1.5C126.1,341.2,126.9,341.6,127.8,342"/>
</g>
</svg>
