<?xml version="1.0" encoding="utf-8"?>
<!-- Generator: Adobe Illustrator 18.1.1, SVG Export Plug-In . SVG Version: 6.00 Build 0)  -->
<svg version="1.1" id="Layer_1" xmlns="http://www.w3.org/2000/svg" xmlns:xlink="http://www.w3.org/1999/xlink" x="0px" y="0px"
	 viewBox="0 0 421.4 130.1" enable-background="new 0 0 421.4 130.1" xml:space="preserve">
<g>
	<path fill="#FFFFFF" d="M417.4,43.3h4v-5.2h-4V43.3z M380.7,28.5L392,3.9l11.2,24.6H380.7z M370.7,43.3h3.3l5.4-11.9h25.1l5.4,11.9
		h3.5L393.6,0.4h-3L370.7,43.3z M339.8,43.3h3.2V26.4l18.2-25.6h-3.8l-16,22.8L325.6,0.7h-3.9l18.2,25.7V43.3z M285.3,43.3h30.6
		v-2.9h-27.4V23.3h24.4v-2.9h-24.4V3.6h27.1V0.7h-30.3V43.3z M245.7,22.8V3.6h14.5c7.7,0,12.2,3.6,12.2,9.3v0.1
		c0,6.1-5.3,9.7-12.4,9.7H245.7z M242.6,43.3h3.2V25.6h13.9l13.6,17.6h4l-14-18.2c7.2-1,12.5-5,12.5-12.2v-0.1c0-3-1.2-5.9-3.2-7.9
		c-2.6-2.6-6.7-4.2-12-4.2h-17.9V43.3z M212.9,41.1c-10.5,0-18.2-8.6-18.2-19.1v-0.1c0-10.5,7.5-19,18-19c10.5,0,18.2,8.6,18.2,19.1
		v0.1C231,32.6,223.4,41.1,212.9,41.1 M212.8,44c12.9,0,21.4-10.4,21.4-22v-0.1c0-11.6-8.4-21.9-21.3-21.9
		c-12.9,0-21.4,10.4-21.4,22v0.1C191.5,33.7,199.9,44,212.8,44 M169,44c7.5,0,12.4-3,16.9-7.4l-2.1-2.1c-4.3,4.3-8.5,6.6-14.6,6.6
		c-10.1,0-18-8.4-18-19.1v-0.1c0-10.7,7.7-19,17.9-19c6.4,0,10.6,2.7,14.3,6.3l2.2-2.3c-4.4-4-8.9-6.8-16.5-6.8
		c-12.3,0-21.3,10-21.3,22v0.1C147.8,34.3,156.8,44,169,44"/>
	<path fill="#FFFFFF" d="M392.5,100.1h6.9V69.7l15.8,30.4h6.2v-46h-6.9v29.3l-15.3-29.3h-6.6V100.1z M367.5,83.2l5.1-18.5l5,18.5
		H367.5z M355.9,100.1h7l2.8-10.6h13.5l2.9,10.6h7.3l-13.2-46.2h-7.2L355.9,100.1z M319.1,100.1h6.8v-32l9.6,20.8h0.2l9.6-20.8v32
		h6.9v-46H345l-9.3,20.5l-9.3-20.5h-7.3V100.1z M295.1,77.2V60.6h4.5c5.5,0,8.6,2.8,8.6,8.3c0,5-2.8,8.4-8.9,8.4H295.1z M288,100.1
		h7.1V83.6h4.5c0.3,0,0.5,0,0.9-0.1l8,16.6h8l-8.9-18.4c4.5-2,7.9-6.2,7.9-13v-0.3c0-4.5-1.4-8-3.7-10.4c-2.6-2.6-6.6-4-11.3-4H288
		V100.1z M261.5,100.1H285v-6.6h-16.4V80.2h14.4v-6.5h-14.4v-13h16.2v-6.6h-23.2V100.1z M242.2,100.1h7.1V60.7h9.3v-6.6H233v6.6h9.2
		V100.1z M213.5,100.1h7.1V60.7h9.3v-6.6h-25.6v6.6h9.2V100.1z M187.6,100.8c8.5,0,14.2-5.4,14.2-16.1V54.1h-7v31
		c0,6.1-2.8,9.1-7.1,9.1c-4.3,0-7.1-3-7.1-9.1v-31h-7.1v30.7C173.4,95.4,179.1,100.8,187.6,100.8 M147.8,100.1h7.1V80.7h13.9V74
		h-13.9V60.6h15.7v-6.6h-22.8V100.1z"/>
	<path fill="#FFFFFF" d="M407.9,120.6v-7.7h5.8c3,0,4.8,1.4,4.8,3.7v0.1c0,2.4-2,3.9-4.9,3.9H407.9z M405.8,129.8h2.1v-7.3h5.4
		l5.5,7.3h2.6l-5.8-7.7c3-0.5,5.1-2.4,5.1-5.5v-0.1c0-1.5-0.5-2.8-1.5-3.7c-1.2-1.2-3-1.9-5.4-1.9h-8.1V129.8z M387.7,129.8h13.8
		v-1.9h-11.7v-6.6h10.3v-1.9h-10.3v-6.5h11.5v-1.9h-13.6V129.8z M367.2,129.8h2.1v-15.5l12.2,15.5h1.7v-18.9h-2.1v15.1l-11.9-15.1
		h-2V129.8z M354.8,130.1c3.2,0,5.8-1.3,7.6-2.9v-7.5h-7.8v1.9h5.7v4.7c-1.3,1.1-3.3,1.9-5.5,1.9c-4.6,0-7.5-3.3-7.5-7.9v-0.1
		c0-4.2,3-7.7,7.2-7.7c2.7,0,4.3,0.9,5.7,2.2l1.4-1.6c-1.9-1.6-3.9-2.5-7-2.5c-5.7,0-9.5,4.6-9.5,9.8v0.1
		C345.2,125.8,348.9,130.1,354.8,130.1 M338.4,129.8h2.1v-18.9h-2.1V129.8z M327.4,130.1c3.8,0,6.4-2.1,6.4-5.3v-0.1
		c0-2.9-1.9-4.4-6.1-5.3c-4.2-0.9-5.1-1.9-5.1-3.7v-0.1c0-1.7,1.6-3,4-3c1.9,0,3.7,0.6,5.5,2.1l1.2-1.6c-1.9-1.5-3.9-2.3-6.6-2.3
		c-3.6,0-6.2,2.2-6.2,5.2v0.1c0,3.1,2,4.5,6.3,5.5c4,0.8,4.9,1.8,4.9,3.6v0.1c0,1.9-1.7,3.2-4.2,3.2c-2.6,0-4.5-0.9-6.5-2.7
		l-1.3,1.6C322,129.1,324.4,130.1,327.4,130.1 M302.9,129.8h13.8v-1.9H305v-6.6h10.3v-1.9H305v-6.5h11.5v-1.9h-13.6V129.8z
		 M288.9,112.9c4.8,0,7.8,3.3,7.8,7.5v0.1c0,4.2-3,7.4-7.8,7.4h-4.4v-15H288.9z M282.3,129.8h6.6c5.9,0,10-4.1,10-9.4v-0.1
		c0-5.3-4.1-9.4-10-9.4h-6.6V129.8z M262.9,130.1c3.4,0,5.6-1.3,7.6-3.3l-1.4-1.4c-1.8,1.7-3.5,2.7-6.1,2.7c-4.2,0-7.3-3.4-7.3-7.8
		v-0.1c0-4.3,3.1-7.7,7.3-7.7c2.6,0,4.3,1.1,5.9,2.6l1.5-1.6c-1.9-1.8-3.9-3-7.4-3c-5.6,0-9.5,4.4-9.5,9.8v0.1
		C253.5,125.9,257.5,130.1,262.9,130.1 M246.6,129.8h2.1v-18.9h-2.1V129.8z M226.5,129.8h2.1v-8.5h10.9v8.5h2.1v-18.9h-2.1v8.4
		h-10.9v-8.4h-2.1V129.8z M211.1,121.2v-8.3h4.8c3,0,5.1,1.4,5.1,4.1v0.1c0,2.5-2.1,4.2-5.2,4.2H211.1z M209,129.8h2.1v-6.7h4.6
		c4,0,7.4-2.1,7.4-6.2v-0.1c0-3.7-2.8-6-7.1-6H209V129.8z M191.9,122.9l4.3-9.6l4.3,9.6H191.9z M186.6,129.8h2.2l2.2-5h10.3l2.2,5
		h2.3l-8.6-19h-2L186.6,129.8z M170.9,120.6v-7.7h5.8c3,0,4.8,1.4,4.8,3.7v0.1c0,2.4-2,3.9-4.9,3.9H170.9z M168.7,129.8h2.1v-7.3
		h5.4l5.5,7.3h2.6l-5.8-7.7c3-0.5,5.1-2.4,5.1-5.5v-0.1c0-1.5-0.5-2.8-1.5-3.7c-1.2-1.2-3-1.9-5.4-1.9h-8.1V129.8z M157.4,130.1
		c3.2,0,5.8-1.3,7.6-2.9v-7.5h-7.8v1.9h5.7v4.7c-1.3,1.1-3.3,1.9-5.4,1.9c-4.6,0-7.5-3.3-7.5-7.9v-0.1c0-4.2,3-7.7,7.2-7.7
		c2.7,0,4.3,0.9,5.7,2.2l1.4-1.6c-1.9-1.6-3.9-2.5-7-2.5c-5.7,0-9.5,4.6-9.5,9.8v0.1C147.8,125.8,151.5,130.1,157.4,130.1"/>
	<path fill="#FFFFFF" d="M66.4,122C34.3,122,8.3,96.5,8.3,65.1c0-31.4,26-56.9,58.1-56.9c25.5,0,47.1,16.1,55,38.4h8.7
		C122,19.6,96.6,0,66.4,0C29.7,0,0,29.1,0,65.1c0,35.9,29.7,65.1,66.4,65.1c30.1,0,55.6-19.6,63.7-46.5h-8.7
		C113.6,105.9,91.9,122,66.4,122"/>
	<path fill="#FFFFFF" d="M62.4,61.1H23C25,40.7,41.5,24.4,62.4,22.6V61.1z M70.5,14.4c-1.3-0.1-2.7-0.2-4.1-0.2
		c-1.4,0-2.7,0-4.1,0.2C37,16.3,16.7,36.2,14.7,61.1c-0.1,1.3-0.2,2.6-0.2,4c0,1.3,0.1,2.7,0.2,4c1.4,17.1,11.4,31.9,25.8,40v-9.7
		C30.8,92.3,24.2,81.5,23,69h39.4v46.7c1.3,0.1,2.7,0.2,4.1,0.2c1.4,0,2.7,0,4.1-0.2V69h25.8v-8H70.5V22.6c0.6,0.1,1.3,0.1,1.9,0.2
		c0.3,0,0.6,0.1,0.9,0.1c0.3,0,0.6,0.1,0.9,0.2c0.1,0,0.2,0,0.3,0.1c0.5,0.1,1,0.2,1.6,0.3c0.1,0,0.3,0.1,0.4,0.1
		c0.1,0,0.2,0,0.3,0.1c0.3,0.1,0.6,0.1,0.9,0.2c0.1,0,0.2,0,0.2,0.1c0.4,0.1,0.7,0.2,1.1,0.3c0.2,0.1,0.5,0.1,0.7,0.2
		c0.2,0.1,0.4,0.1,0.7,0.2c0.1,0,0.1,0,0.2,0.1c0.3,0.1,0.5,0.2,0.8,0.3c0.3,0.1,0.6,0.2,1,0.4c0.2,0.1,0.4,0.1,0.6,0.2
		c0.3,0.1,0.5,0.2,0.8,0.3c0.4,0.2,0.9,0.4,1.3,0.6c0.2,0.1,0.4,0.2,0.6,0.3c0.2,0.1,0.4,0.2,0.6,0.3c0.6,0.3,1.2,0.6,1.8,1
		c0.2,0.1,0.4,0.2,0.6,0.3c0.2,0.1,0.4,0.2,0.6,0.3c0.2,0.1,0.4,0.3,0.6,0.4c0.4,0.2,0.7,0.4,1.1,0.7c0.4,0.3,0.8,0.6,1.2,0.9
		c0.2,0.1,0.4,0.3,0.6,0.4c0.4,0.3,0.7,0.6,1.1,0.8c0.1,0.1,0.2,0.2,0.3,0.2c0.1,0.1,0.2,0.1,0.3,0.2c0.2,0.1,0.3,0.3,0.5,0.4
		c0.2,0.1,0.4,0.3,0.5,0.4c0.2,0.1,0.3,0.3,0.5,0.5c0.2,0.1,0.3,0.3,0.5,0.5c0.2,0.1,0.3,0.3,0.5,0.5c0.2,0.2,0.3,0.3,0.5,0.5
		c0.2,0.2,0.3,0.3,0.5,0.5c0.1,0.1,0.2,0.3,0.4,0.4c0.1,0.1,0.2,0.2,0.3,0.3c0.1,0.1,0.2,0.2,0.3,0.3c0.2,0.3,0.5,0.5,0.7,0.8
		c0.2,0.2,0.4,0.5,0.6,0.7c0.2,0.2,0.4,0.5,0.6,0.7c0,0,0.1,0.1,0.1,0.1c0.2,0.3,0.4,0.5,0.6,0.8c0.2,0.2,0.3,0.4,0.5,0.6
		c0.2,0.2,0.3,0.4,0.5,0.7c0.1,0.1,0.2,0.3,0.3,0.4c0.3,0.5,0.6,0.9,0.9,1.4c0,0.1,0.1,0.2,0.1,0.2c0.1,0.2,0.3,0.5,0.4,0.7
		c0.1,0.2,0.3,0.5,0.4,0.8c0.4,0.7,0.8,1.5,1.2,2.3h9.1C107.7,28.8,90.7,15.9,70.5,14.4"/>
	<path fill="#FFFFFF" d="M88,27.9c-0.6-0.3-1.2-0.7-1.8-1C86.8,27.3,87.4,27.6,88,27.9"/>
</g>
</svg>
