<?xml version="1.0" encoding="utf-8"?>
<!-- Generator: Adobe Illustrator 18.1.1, SVG Export Plug-In . SVG Version: 6.00 Build 0)  -->
<svg version="1.1" id="Layer_1" xmlns="http://www.w3.org/2000/svg" xmlns:xlink="http://www.w3.org/1999/xlink" x="0px" y="0px"
	 viewBox="0 0 72 72" enable-background="new 0 0 72 72" xml:space="preserve">
<path fill="#003C73" d="M36,3.6C18.1,3.6,3.6,18.1,3.6,36S18.1,68.4,36,68.4S68.4,53.9,68.4,36S53.9,3.6,36,3.6z M19.8,19.8h32.4
	c0.6,0,1.2,0.1,1.7,0.4L36,41L18.1,20.2C18.6,19.9,19.2,19.8,19.8,19.8z M15.8,48.2V23.8c0-0.1,0-0.1,0-0.3l11.9,13.9L15.9,49.2
	C15.8,48.9,15.8,48.5,15.8,48.2z M52.2,52.2H19.8c-0.4,0-0.7-0.1-1.1-0.1l11.5-11.5l5.7,6.7l5.7-6.7l11.5,11.5
	C52.9,52.1,52.6,52.2,52.2,52.2z M56.2,48.2c0,0.4-0.1,0.7-0.1,1.1L44.4,37.4l11.9-13.8c0,0.1,0,0.1,0,0.3V48.2z"/>
<path fill="#FFFFFF" d="M151.3,21.5c-4-7.8-10.9-13.9-19.5-16.5c-3-0.9-6.1-1.4-9.4-1.4S115.9,4.1,113,5
	c-8.6,2.6-15.6,8.6-19.5,16.5C91.2,25.8,90,30.7,90,36s1.2,10.2,3.5,14.5c2.5,5,6.3,9.3,10.9,12.4c5.2,3.5,11.4,5.5,18,5.5
	c6.7,0,12.9-2,18-5.5c4.6-3.1,8.4-7.4,10.9-12.4c2.2-4.4,3.5-9.3,3.5-14.5S153.6,25.8,151.3,21.5z M115.1,52.1h-7.2V26.7h7.2V52.1z
	 M111.5,23.1c-2,0-3.6-1.6-3.6-3.6s1.6-3.6,3.6-3.6s3.6,1.7,3.6,3.6S113.5,23.1,111.5,23.1z M140.5,52.1h-7.3V37.6
	c0-2-1.6-3.6-3.6-3.6s-3.6,1.6-3.6,3.6v14.5h-7.2V26.7h7.2v4.5c1.5-2,3.7-4.5,6.3-4.5c4.5,0,8.1,4,8.1,9.1V52.1z"/>
<g>
	<path fill="#FFFFFF" d="M238.3,22.8c-2.9-6.4-7.8-11.7-14-15.1c-4.6-2.6-9.9-4-15.6-4c-5.6,0-10.9,1.4-15.6,4
		c-6.2,3.4-11.1,8.6-14,15.1c-1.9,4.1-2.9,8.6-2.9,13.3s1,9.3,2.9,13.3c3.7,8.1,10.6,14.4,19,17.3c3.3,1.2,6.8,1.7,10.5,1.7
		c3.7,0,7.2-0.6,10.5-1.7c8.5-2.9,15.4-9.2,19-17.4c1.9-4,2.9-8.6,2.9-13.3C241.2,31.2,240.2,26.8,238.3,22.8z M214.8,22.1h12.8
		c1.2,0,2.2,1,2.2,2.2c0,1.2-1,2.2-2.2,2.2h-12.8c-1.2,0-2.2-1-2.2-2.2C212.6,23,213.6,22.1,214.8,22.1z M209.6,44.6
		c0,0.1-0.1,0.4-0.1,0.6c-0.1,0.4-0.1,0.6-0.3,0.9c-0.6,1.7-1.8,3-3.3,4c-0.4,0.3-0.9,0.4-1.2,0.6c-0.4,0.2-0.9,0.4-1.4,0.4
		c-0.2,0.1-0.4,0.1-0.7,0.1c-0.1,0-0.2,0-0.3,0c-0.2,0.1-0.4,0.1-0.6,0.1h-0.2c-0.1,0.1-0.4,0.1-0.6,0.1h-0.2c-0.1,0-0.3,0-0.4,0
		h-11.4c-0.4,0-0.6,0-0.9-0.1c-0.7-0.1-1.2-0.4-1.4-0.7c-0.2-0.4-0.4-0.6-0.4-1.1c0-0.2,0-0.5,0-0.8V24.1c0-0.4,0.1-0.9,0.3-1.2
		c0.2-0.4,0.6-0.6,1.1-0.8l0.6-0.1h11.4c0.1,0,0.3,0,0.4,0.1l0.6,0.1c0.3,0,0.4,0,0.6,0.1l0.6,0.1c0.4,0,0.6,0.1,0.9,0.1
		c0.1,0,0.3,0.1,0.4,0.1c0.2,0.1,0.5,0.1,0.8,0.2c1.4,0.6,2.5,1.5,3.3,2.6c0.4,0.6,0.8,1.4,1.1,2.1c0.1,0.3,0.1,0.5,0.1,0.8
		c0,0.1,0,0.2,0.1,0.4c0.1,0.2,0.1,0.5,0.1,0.7v1.1c-0.1,0.2-0.1,0.4-0.1,0.6c0,0.3-0.1,0.6-0.1,0.9c-0.4,1.4-0.9,2.5-1.9,3.4
		c-0.1,0.2-0.4,0.4-0.7,0.6c0.2,0.1,0.3,0.2,0.4,0.2c0.9,0.6,1.6,1.2,2.2,2c0.2,0.4,0.4,0.7,0.6,1.1c0.1,0.4,0.3,0.7,0.4,1.1
		c0.2,0.6,0.3,1.4,0.3,2.2C209.9,43.3,209.7,44,209.6,44.6z M231.4,40.9c-0.1,0.6-0.2,0.9-0.5,1.2c-0.4,0.3-0.7,0.4-1.2,0.5
		c-0.5,0.1-1.2,0.1-1.9,0.1h-11.2l0,0c0.1,0.2,0.1,0.4,0.1,0.5l0.1,0.7c0.1,0.1,0.1,0.3,0.1,0.4c0.5,1.2,1.3,2,2.4,2.5
		c0.1,0.1,0.2,0.1,0.4,0.1l0.9,0.2c0.2,0.1,0.5,0.1,1.2,0.1c0.6,0,0.9-0.1,1.2-0.1c0.4-0.1,0.6-0.2,0.9-0.3c0.2-0.1,0.4-0.2,0.6-0.4
		s0.4-0.3,0.6-0.4c0.1-0.2,0.3-0.4,0.4-0.6c0.1-0.3,0.2-0.5,0.4-0.7c0.2-0.5,0.6-0.9,1.1-1.2c0.2-0.1,0.4-0.1,0.9-0.2
		c0.2,0,0.4-0.1,0.6-0.1h0.3c0.2,0,0.5,0.1,0.7,0.1c0.4,0.1,0.8,0.2,1,0.4c0.5,0.4,0.7,1.1,0.4,1.9c-0.2,0.7-0.5,1.4-0.9,2.1
		c-0.6,0.9-1.2,1.7-1.9,2.3c-0.7,0.6-1.7,1.1-2.8,1.4c-0.3,0.1-0.6,0.2-0.9,0.2c-0.3,0.1-0.5,0.1-0.8,0.1c-0.2,0.1-0.4,0.1-0.6,0.1
		h-0.7c0,0-0.2,0.1-0.4,0.1c-0.2,0-0.4,0-0.5-0.1h-0.6c-0.1,0-0.4,0-0.6-0.1c-0.1,0-0.1,0-0.3,0c-0.2,0-0.4-0.1-0.5-0.1
		c-0.3-0.1-0.5-0.1-0.8-0.2c-0.3-0.1-0.5-0.1-0.7-0.2c-0.3-0.1-0.4-0.1-0.6-0.2c-0.4-0.2-0.9-0.4-1.3-0.7c-0.9-0.6-1.6-1.2-2.2-2.1
		c-0.6-0.7-1.1-1.7-1.4-2.6c-0.1-0.3-0.3-0.6-0.4-1.1c-0.1-0.3-0.1-0.5-0.2-0.8c-0.1-0.2-0.1-0.4-0.1-0.6c-0.1-0.3-0.1-0.6-0.1-0.9
		c0-0.2-0.1-0.4-0.1-0.6v-0.6c0-0.1-0.1-0.3-0.1-0.5c0-0.3,0-0.5,0-0.7v-0.5l0.1-0.2c-0.1-0.1-0.1-0.4,0-0.6
		c0.1-0.4,0.2-0.8,0.2-1.2c0.1-0.5,0.2-1,0.4-1.4c0.1-0.3,0.2-0.6,0.4-0.9c0.1-0.4,0.3-0.6,0.4-1c0.6-1,1.4-1.9,2.2-2.6
		c0.8-0.7,1.8-1.4,3-1.9c0.4-0.1,0.7-0.2,1.1-0.4l1-0.2c0.2-0.1,0.3-0.1,0.4-0.1c0.1,0,0.1,0,0.2,0h0.2h0.7c1,0,2,0.1,2.8,0.4
		c0.9,0.3,1.7,0.6,2.4,1.1c0.1,0.1,0.4,0.2,0.5,0.4c0.4,0.2,0.6,0.4,0.9,0.7c0.3,0.2,0.5,0.5,0.7,0.7c0.4,0.6,0.8,1.2,1.1,1.7
		c0.2,0.4,0.4,0.7,0.5,1.2c0.1,0.3,0.2,0.6,0.4,0.9c0.1,0.4,0.3,0.8,0.4,1.2c0.1,0.4,0.1,0.6,0.2,1c0.1,0.4,0.1,0.5,0.1,0.7
		c0,0.1,0.1,0.3,0.1,0.5C231.5,40,231.5,40.4,231.4,40.9z"/>
	<path fill="#FFFFFF" d="M204.2,42.6c-0.1,0.2-0.1,0.4,0,0.6c0,0,0,0,0,0.1c-0.1,0.3-0.1,0.6-0.2,0.9c-0.1,0.2-0.1,0.4-0.3,0.6
		c-0.2,0.4-0.5,0.7-0.9,0.9s-0.9,0.4-1.4,0.6c-0.3,0.1-0.6,0.1-0.9,0.1h-8c-0.3,0-0.5,0-0.6,0.1c0,0-0.1-0.1-0.1-0.4v-5.6
		c0-0.4,0-0.7-0.1-1.2c0-0.2,0-0.4,0-0.4l7.3-0.1h0.1c0.4,0.1,0.7,0.1,1,0.1c0.3,0.1,0.6,0.1,0.9,0.1c0.2,0,0.4,0.1,0.4,0.1
		c0.6,0.2,1,0.4,1.4,0.6c0.3,0.2,0.6,0.4,0.8,0.7c0.2,0.3,0.4,0.6,0.4,1.1c0,0.1,0,0.4,0.1,0.6C204.2,42.3,204.2,42.4,204.2,42.6z"
		/>
	<path fill="#FFFFFF" d="M203,30.4c0,0.2,0,0.4-0.1,0.6c-0.1,0.6-0.2,1-0.4,1.3c-0.2,0.4-0.4,0.6-0.7,0.8c-0.4,0.2-0.8,0.4-1.3,0.6
		c-0.1,0.1-0.3,0.1-0.4,0.1c-0.4,0-0.7,0.1-0.9,0.1l-0.4-0.1c-0.1,0-0.3,0-0.4,0.1h-0.9l-0.4,0.1c-0.2,0-0.4-0.1-0.6-0.1H193
		c-0.1,0-0.4,0-0.6,0.1l-0.5-0.1l-0.1-0.1v-5.3c0-0.3,0-0.6-0.1-1c0-0.2,0-0.3,0-0.4l5-0.1c0.7,0,1.4,0,1.9,0.1
		c0.6,0,1.2,0.1,1.7,0.1c0.5,0.1,0.9,0.2,1.2,0.4c0.4,0.1,0.6,0.3,0.7,0.6c0.1,0.1,0.1,0.3,0.2,0.4l0.2,0.7c0,0.2,0,0.4,0.1,0.4
		C203,30.1,203,30.2,203,30.4z"/>
	<path fill="#FFFFFF" d="M225.8,37.8h-0.2c-0.6,0-1,0-1.4,0h-5.9c-0.4,0-0.8,0-1.4,0.1c-0.1,0-0.1,0-0.2,0v-0.1
		c0.1-0.1,0.1-0.4,0.1-0.5s0.1-0.2,0.2-0.4c0.3-0.6,0.6-1.1,1-1.5c0.4-0.4,0.9-0.7,1.4-0.9c0.2-0.1,0.4-0.1,0.5-0.1
		c0.2,0,0.4-0.1,0.6-0.1h0.1c0.1,0,0.3-0.1,0.4-0.1h0.4c0.1,0,0.3,0,0.4,0.1c0.2,0.1,0.4,0.1,0.6,0.1c0.1,0.1,0.3,0.1,0.4,0.1
		c0.6,0.2,1,0.5,1.4,0.9s0.7,0.8,1,1.3C225.5,36.9,225.7,37.4,225.8,37.8z"/>
</g>
<path fill="#FFFFFF" d="M295.2,3.6c-17.9,0-32.4,14.5-32.4,32.4s14.5,32.4,32.4,32.4s32.4-14.5,32.4-32.4S313.1,3.6,295.2,3.6z
	 M298.4,46.9c-3-0.2-4.2-1.7-6.5-3.1c-1.3,6.6-2.8,13-7.4,16.3c-1.4-10.1,2.1-17.6,3.7-25.6c-2.7-4.7,0.4-14,6.2-11.7
	c7.2,2.9-6.2,17.4,2.8,19.2c9.4,1.9,13.2-16.3,7.4-22.2c-8.4-8.6-24.6-0.2-22.5,12c0.5,3,3.6,3.9,1.2,8.1c-5.4-1.2-7-5.5-6.8-11.1
	c0.4-9.3,8.4-15.8,16.3-16.7c10.2-1.2,19.7,3.7,21,13.2C315.3,36.1,309.2,47.7,298.4,46.9z"/>
</svg>
