<?xml version="1.0" encoding="utf-8"?>
<!-- Generator: Adobe Illustrator 18.1.1, SVG Export Plug-In . SVG Version: 6.00 Build 0)  -->
<svg version="1.1" id="Layer_1" xmlns="http://www.w3.org/2000/svg" xmlns:xlink="http://www.w3.org/1999/xlink" x="0px" y="0px"
	 viewBox="0 0 100 100" enable-background="new 0 0 100 100" xml:space="preserve">
<path fill="#FFFFFF" d="M50,5C25.1,5,5,25.1,5,50s20.1,45,45,45c24.9,0,45-20.1,45-45S74.9,5,50,5z M27.5,27.5h45
	c0.8,0,1.6,0.2,2.3,0.5L50,56.9L25.2,28C25.9,27.7,26.7,27.5,27.5,27.5z M21.9,66.9V33.1c0-0.1,0-0.2,0-0.4L38.4,52L22.1,68.3
	C21.9,67.9,21.9,67.4,21.9,66.9z M72.5,72.5h-45c-0.5,0-1-0.1-1.5-0.2l16-16l7.9,9.3l7.9-9.3l16,16C73.5,72.4,73,72.5,72.5,72.5z
	 M78.1,66.9c0,0.5-0.1,1-0.2,1.5L61.6,52l16.5-19.2c0,0.1,0,0.2,0,0.4V66.9z"/>
<path fill="#FFFFFF" d="M210.2,29.8c-5.5-10.9-15.2-19.3-27.1-22.9C179,5.7,174.6,5,170,5s-9,0.7-13.1,1.9
	c-11.9,3.6-21.6,12-27.1,22.9c-3.1,6.1-4.8,12.9-4.8,20.2s1.7,14.1,4.8,20.2c3.5,6.9,8.7,12.9,15.2,17.2c7.2,4.8,15.8,7.6,25,7.6
	c9.3,0,17.9-2.8,25-7.6c6.4-4.3,11.7-10.3,15.2-17.2c3.1-6.1,4.8-12.9,4.8-20.2S213.3,35.9,210.2,29.8z M159.9,72.3h-10V37.1h10
	V72.3z M154.9,32.1c-2.8,0-5-2.2-5-5c0-2.8,2.2-5,5-5c2.8,0,5,2.3,5,5C159.9,29.8,157.7,32.1,154.9,32.1z M195.1,72.3h-10.1V52.2
	c0-2.8-2.2-5-5-5c-2.8,0-5,2.2-5,5v20.1H165V37.1H175v6.2c2.1-2.8,5.2-6.2,8.8-6.2c6.2,0,11.3,5.6,11.3,12.6V72.3z"/>
<g>
	<path fill="#FFFFFF" d="M331,31.6c-4-8.9-10.9-16.3-19.4-21C305.2,7,297.8,5,290,5c-7.8,0-15.2,2-21.6,5.5
		c-8.6,4.7-15.4,12-19.4,21c-2.6,5.7-4,11.9-4,18.5c0,6.6,1.4,12.9,4,18.5c5.1,11.2,14.7,20,26.4,24c4.6,1.6,9.5,2.4,14.6,2.4
		c5.1,0,10-0.8,14.6-2.4c11.8-4,21.4-12.8,26.4-24.1c2.6-5.6,4-11.9,4-18.5C335,43.4,333.6,37.2,331,31.6z M298.4,30.7h17.8
		c1.7,0,3,1.4,3,3.1c0,1.7-1.4,3-3,3h-17.8c-1.7,0-3-1.4-3-3C295.3,32,296.7,30.7,298.4,30.7z M291.1,62c0,0.2-0.1,0.5-0.2,0.8
		c-0.1,0.5-0.2,0.9-0.4,1.3c-0.9,2.3-2.5,4.2-4.6,5.6c-0.6,0.4-1.2,0.6-1.7,0.9c-0.6,0.3-1.2,0.5-1.9,0.6c-0.3,0.1-0.6,0.2-1,0.2
		c-0.1,0-0.3,0-0.4,0c-0.3,0.1-0.6,0.2-0.9,0.2h-0.3c-0.2,0.1-0.6,0.1-0.9,0.1h-0.3c-0.2,0-0.4,0-0.6,0h-15.8c-0.5,0-0.9,0-1.3-0.1
		c-1-0.1-1.6-0.6-1.9-1c-0.3-0.5-0.5-0.9-0.5-1.5c0-0.3,0-0.7,0-1.1V33.5c0-0.6,0.1-1.2,0.4-1.6c0.3-0.5,0.8-0.8,1.5-1.1l0.9-0.1
		l15.9,0c0.2,0,0.4,0,0.6,0.1l0.8,0.1c0.4,0,0.6,0,0.9,0.1l0.8,0.1c0.5,0,0.8,0.1,1.2,0.2c0.1,0,0.4,0.1,0.6,0.1
		c0.3,0.1,0.7,0.1,1.1,0.3c2,0.8,3.5,2.1,4.6,3.6c0.6,0.9,1.1,1.9,1.5,2.9c0.1,0.4,0.2,0.7,0.2,1.1c0,0.1,0,0.3,0.1,0.5
		c0.1,0.3,0.1,0.7,0.1,1l0,1.5c-0.1,0.3-0.1,0.5-0.1,0.8c0,0.4-0.1,0.8-0.2,1.2c-0.5,2-1.3,3.5-2.6,4.7c-0.2,0.3-0.6,0.6-1,0.9
		c0.3,0.1,0.4,0.3,0.6,0.3c1.2,0.8,2.2,1.7,3,2.8c0.3,0.5,0.6,1,0.9,1.5c0.2,0.5,0.4,1,0.6,1.5c0.3,0.9,0.4,1.9,0.4,3
		C291.5,60.2,291.3,61.1,291.1,62z M321.4,56.8c-0.1,0.8-0.3,1.3-0.7,1.7c-0.5,0.4-1,0.6-1.6,0.7c-0.7,0.1-1.7,0.1-2.7,0.1h-15.6
		c0,0,0,0,0,0c0.1,0.3,0.1,0.6,0.1,0.7l0.2,1c0.1,0.2,0.1,0.4,0.2,0.6c0.7,1.7,1.8,2.8,3.4,3.5c0.2,0.1,0.3,0.1,0.5,0.2l1.3,0.3
		c0.3,0.1,0.7,0.2,1.6,0.2c0.8,0,1.3-0.1,1.6-0.2c0.5-0.1,0.9-0.3,1.2-0.4c0.3-0.1,0.6-0.3,0.9-0.5c0.3-0.2,0.5-0.4,0.8-0.6
		c0.2-0.3,0.4-0.6,0.6-0.9c0.2-0.4,0.3-0.7,0.5-1c0.3-0.7,0.8-1.3,1.5-1.6c0.3-0.1,0.6-0.2,1.2-0.3c0.3,0,0.5-0.1,0.8-0.1h0.4
		c0.3,0,0.7,0.1,1,0.1c0.6,0.1,1.1,0.3,1.4,0.6c0.7,0.5,1,1.5,0.6,2.7c-0.3,1-0.7,2-1.3,2.9c-0.8,1.3-1.7,2.4-2.7,3.2
		c-1,0.8-2.4,1.5-3.9,2c-0.4,0.2-0.8,0.3-1.3,0.3c-0.4,0.1-0.7,0.1-1.1,0.2c-0.3,0.1-0.5,0.1-0.8,0.1l-1,0c0,0-0.3,0.1-0.6,0.1
		c-0.3,0-0.5,0-0.7-0.1l-0.8,0c-0.2,0-0.5,0-0.8-0.1c-0.1,0-0.2,0-0.4,0c-0.3,0-0.5-0.1-0.7-0.1c-0.4-0.1-0.7-0.2-1.1-0.3
		c-0.4-0.1-0.7-0.2-1-0.3c-0.4-0.1-0.6-0.2-0.9-0.3c-0.5-0.3-1.2-0.6-1.8-1c-1.2-0.8-2.2-1.7-3-2.9c-0.8-1-1.5-2.3-2-3.6
		c-0.2-0.4-0.4-0.9-0.5-1.5c-0.1-0.4-0.2-0.7-0.3-1.1c-0.1-0.3-0.1-0.6-0.1-0.8c-0.1-0.4-0.1-0.8-0.2-1.2c0-0.3-0.1-0.5-0.1-0.8
		l0-0.9c0-0.2-0.1-0.4-0.1-0.7c0-0.4,0-0.7,0-1V55l0.1-0.3c-0.1-0.2-0.1-0.6,0-0.9c0.1-0.6,0.3-1.1,0.3-1.6c0.1-0.7,0.3-1.4,0.6-2
		c0.2-0.4,0.3-0.8,0.5-1.2c0.2-0.5,0.4-0.9,0.6-1.4c0.9-1.4,1.9-2.6,3-3.6c1.1-1,2.5-1.9,4.1-2.6c0.5-0.2,1-0.3,1.5-0.5l1.4-0.3
		c0.3-0.1,0.4-0.1,0.6-0.1c0.1,0,0.2,0,0.3,0l0.3,0l1,0c1.4,0,2.8,0.2,3.9,0.5c1.2,0.4,2.3,0.9,3.3,1.5c0.1,0.1,0.5,0.3,0.7,0.6
		c0.5,0.3,0.8,0.6,1.2,1c0.4,0.3,0.7,0.7,1,1c0.6,0.8,1.1,1.6,1.5,2.3c0.3,0.5,0.5,1,0.7,1.6c0.1,0.4,0.3,0.9,0.5,1.3
		c0.2,0.6,0.4,1.1,0.5,1.7c0.1,0.5,0.2,0.9,0.3,1.4c0.1,0.5,0.1,0.7,0.1,1c0,0.2,0.1,0.4,0.1,0.7C321.5,55.6,321.5,56.1,321.4,56.8z
		"/>
	<path fill="#FFFFFF" d="M283.6,59.1c-0.1,0.3-0.1,0.6,0,0.9c0,0,0,0,0,0.1c-0.1,0.4-0.2,0.9-0.3,1.3c-0.1,0.3-0.2,0.6-0.4,0.8
		c-0.3,0.6-0.7,1-1.2,1.3c-0.5,0.3-1.2,0.6-2,0.9c-0.4,0.1-0.8,0.2-1.3,0.2h-11.1c-0.4,0-0.7,0-0.8,0.1c0,0-0.1-0.1-0.1-0.5v-7.8
		c0-0.5,0-1-0.1-1.6c0-0.3,0-0.5,0-0.6l10.2-0.1h0.1c0.5,0.2,1,0.1,1.4,0.1c0.4,0.1,0.8,0.1,1.2,0.2c0.3,0,0.5,0.1,0.6,0.1
		c0.8,0.3,1.4,0.5,1.9,0.8c0.4,0.3,0.8,0.6,1.1,1c0.3,0.4,0.5,0.8,0.6,1.5c0,0.2,0,0.5,0.1,0.8C283.6,58.7,283.6,58.9,283.6,59.1z"
		/>
	<path fill="#FFFFFF" d="M282,42.2c0,0.3,0,0.5-0.1,0.8c-0.1,0.8-0.3,1.4-0.5,1.8c-0.3,0.5-0.6,0.8-1,1.1c-0.5,0.3-1.1,0.6-1.8,0.8
		c-0.2,0.1-0.4,0.1-0.6,0.1c-0.5,0-1,0.1-1.3,0.2l-0.5-0.1c-0.2,0-0.4,0-0.5,0.1h-1.3l-0.5,0.1c-0.3,0-0.6-0.1-0.9-0.1h-4.9
		c-0.2,0-0.5,0-0.8,0.1l-0.7-0.1l-0.2-0.1v-7.4c0-0.4,0-0.9-0.1-1.4c0-0.3,0-0.4,0-0.5l7-0.1c1,0,1.9,0,2.7,0.1
		c0.9,0,1.7,0.1,2.4,0.2c0.7,0.1,1.3,0.3,1.7,0.6c0.5,0.2,0.8,0.4,1,0.8c0.1,0.2,0.2,0.4,0.3,0.6l0.3,1c0,0.3,0,0.5,0.1,0.6
		C282,41.8,282,42,282,42.2z"/>
	<path fill="#FFFFFF" d="M313.6,52.5h-0.3c-0.8,0-1.4,0-2,0h-8.2c-0.5,0-1.1,0-1.9,0.1c-0.1,0-0.2,0-0.3,0c0,0,0-0.1,0-0.1
		c0.1-0.2,0.1-0.5,0.2-0.7c0.1-0.2,0.1-0.3,0.3-0.5c0.4-0.8,0.9-1.5,1.4-2.1c0.5-0.5,1.2-1,1.9-1.2c0.3-0.1,0.5-0.1,0.7-0.2
		c0.3,0,0.5-0.1,0.8-0.2l0.2,0c0.2,0,0.4-0.1,0.6-0.1h0.6c0.2,0,0.4,0,0.6,0.1c0.3,0.1,0.6,0.1,0.9,0.2c0.2,0.1,0.4,0.1,0.5,0.1
		c0.8,0.3,1.4,0.7,1.9,1.2c0.5,0.5,1,1.1,1.4,1.8C313.2,51.3,313.5,51.9,313.6,52.5z"/>
</g>
<path fill="#FFFFFF" d="M410,5c-24.9,0-45,20.1-45,45s20.1,45,45,45s45-20.1,45-45S434.9,5,410,5z M414.4,65.1
	c-4.1-0.3-5.8-2.3-9-4.3c-1.8,9.2-3.9,18.1-10.3,22.7c-2-14,2.9-24.5,5.1-35.6c-3.8-6.5,0.5-19.5,8.6-16.3c10,4-8.6,24.1,3.9,26.6
	c13.1,2.6,18.4-22.7,10.3-30.9c-11.7-11.9-34.1-0.3-31.3,16.7c0.7,4.2,5,5.4,1.7,11.2c-7.5-1.7-9.7-7.6-9.4-15.4
	c0.5-12.9,11.6-21.9,22.7-23.2c14.1-1.6,27.3,5.2,29.2,18.4C437.9,50.1,429.4,66.3,414.4,65.1z"/>
</svg>
