<?xml version="1.0" encoding="utf-8"?>
<!-- Generator: Adobe Illustrator 19.0.1, SVG Export Plug-In . SVG Version: 6.00 Build 0)  -->
<svg version="1.1" id="Layer_1" xmlns="http://www.w3.org/2000/svg" xmlns:xlink="http://www.w3.org/1999/xlink" x="0px" y="0px"
	 viewBox="0 0 100 100" enable-background="new 0 0 100 100" xml:space="preserve">
<g>
	<path fill="#0071BB" d="M85.4,82.3c0.6,0.6-0.3,2.5-2.1,4.2c-1.7,1.7-3.7,2.6-4.3,2c-0.6-0.6,0.3-2.5,2.1-4.2
		C82.9,82.6,84.8,81.7,85.4,82.3"/>
	<path fill="#0071BB" d="M53.1,64.9c0.8,0.8,23.6,23.6,23.6,23.6l0,0c0.8,0.9,4-0.4,6.1-2.5c2.1-2.1,3.5-5,2.5-6l-0.1-0.1
		c0,0-22.8-22.8-23.6-23.6C60.9,55.6,52.2,64.1,53.1,64.9"/>
	<path fill="#0071BB" d="M61.6,56.3c0.4,0.4-1.1,2.7-3.5,5.1c-2.4,2.4-4.6,3.9-5.1,3.5c-0.4-0.4,1.1-2.7,3.5-5.1
		C58.9,57.4,61.2,55.8,61.6,56.3"/>
	<path fill="#0071BB" d="M57.5,54.7l-5.9,5.9l2.5,2.5l0,0c0.4,0.3,1.9-0.8,3.5-2.4c1.7-1.6,2.8-3.1,2.4-3.5c0,0,0,0,0,0l0,0
		L57.5,54.7z"/>
	<path fill="#0071BB" d="M56.8,52.5l-7.6,7.6l1.2,1.2c0.4,0.2,2.3-1.2,4.3-3.2c2.1-2.1,3.6-4,3.3-4.3c0,0,0,0,0,0l0,0L56.8,52.5z"/>
	<path fill="#0071BB" d="M56.8,52.5c0.2,0.2-1.3,2.1-3.4,4.2c-2.1,2.1-4,3.6-4.2,3.4c-0.2-0.2,1.3-2.1,3.4-4.2
		C54.7,53.8,56.6,52.3,56.8,52.5"/>
	<path fill="#0071BB" d="M53.9,55.3c0.1,0.1-0.3,0.6-0.8,1.2c-0.6,0.6-1.1,0.9-1.2,0.8c-0.1-0.1,0.3-0.6,0.8-1.2
		C53.2,55.5,53.8,55.2,53.9,55.3"/>
	<path fill="#0071BB" d="M11.6,16.5l0-0.1h0l1.5-1.4l0.1,0l3,2.1l3.3,4.4l34,34.1c0.1,0.1-0.2,0.4-0.6,0.8c-0.3,0.3-0.7,0.6-0.8,0.5
		l-34-34.1l-4.5-3.3L11.6,16.5z"/>
	<path fill="#0071BB" d="M13.2,14.9l3.1,2.2l3.7,5.1l-0.1,0.1c0,0-0.3,0.3-0.5,0.5c-0.2,0.2-0.5,0.4-0.4,0.3l-0.3,0.2l-5.1-3.7
		l-2.1-3.1L13.2,14.9z"/>
	<path fill="#0071BB" d="M52.3,59.2c0.2,0.3,0,0.9-0.5,1.2c-0.5,0.4-1.1,0.4-1.3,0.1c-0.2-0.3,0-0.9,0.5-1.2
		C51.4,58.9,52,58.9,52.3,59.2"/>
	<path fill="#0071BB" d="M55,56.6c0.3,0.3,0.1,0.9-0.3,1.3c-0.4,0.4-1,0.6-1.3,0.3c-0.3-0.3-0.1-0.9,0.3-1.3
		C54.1,56.4,54.7,56.3,55,56.6"/>
	<path fill="#0071BB" d="M57.3,53.6c0.3,0.2,0.3,0.8-0.1,1.3c-0.4,0.5-0.9,0.8-1.2,0.5c-0.3-0.2-0.3-0.8,0.1-1.3
		C56.5,53.6,57,53.4,57.3,53.6"/>
	<path fill="#0071BB" d="M15.6,86.3l-3.2-3.3l1.2-4.4l4.4-1.2l3.3,3.2l-1.2,4.4L15.6,86.3z M21.8,76.9c-2.7-2.7-7.2-2.7-9.9,0
		c-2.7,2.7-2.7,7.2,0,9.9c2.7,2.7,7.2,2.7,9.9,0C24.5,84.1,24.5,79.7,21.8,76.9"/>
	<path fill="#0071BB" d="M15.2,87.2l-4-4l1.5-5.5l5.5-1.5l4,4l-1.5,5.5L15.2,87.2z M24.3,83.9c0.1-0.3,0.2-0.7,0.2-1
		c0.2-0.9,0.5-2.2,0.7-3c0.4-1.4,2-3,2-3L71,33.1c0.8-0.7,1.9-1.7,3-2.4c2.1-1.3,3.8-1.1,3.8-1.1c2.9,0.3,5.9-0.7,8.1-2.9
		c3.9-3.9,3.9-10.3,0-14.2l-0.9,4.9c-0.6,3.5-3.4,5.9-6.7,5.3c-3.3-0.6-5.4-3.9-4.8-7.4l0.9-4.9c-1,0.5-2,1.2-2.9,2
		c-2.2,2.2-2.8,4.9-3,7.5c-0.2,2.6-0.2,2.6-1.2,4.5c-0.6,1.1-1.5,2.3-2.3,3L21.5,71.2c0,0-2.2,1.8-2.9,2.1c-0.3,0.2-1.1,0.3-2,0.5
		c-0.7,0-1.5,0.1-2.2,0.3h0c-1.2,0.4-2.3,1-3.2,1.9c-3,3-3,8,0,11c3,3,8,3,11,0C23.3,86.2,23.9,85.1,24.3,83.9L24.3,83.9z"/>
	<path fill="#0071BB" d="M15.4,87.4l-4-4l1.5-5.5l5.5-1.5l4,4l-1.5,5.5L15.4,87.4z M24.4,84.1c0.1-0.3,0.2-0.7,0.2-1
		c0.2-0.9,0.5-2.2,0.7-3c0.4-1.4,2-3,2-3l43.8-43.8c0.8-0.7,1.9-1.7,3-2.4c2.1-1.3,3.8-1.1,3.8-1.1c2.9,0.3,5.9-0.7,8.1-2.9
		c3.9-3.9,3.9-10.3,0-14.2l-0.9,4.9c-0.6,3.5-3.4,5.9-6.7,5.3c-3.3-0.6-5.4-3.9-4.8-7.4l0.9-4.9c-1.1,0.5-2,1.2-2.9,2
		c-2.2,2.2-2.8,4.9-3,7.5c-0.2,2.6-0.2,2.6-1.2,4.5c-0.6,1.1-1.5,2.3-2.3,3L21.7,71.4c0,0-2.2,1.8-2.8,2.1c-0.3,0.2-1.1,0.3-2,0.5
		c-0.7,0-1.5,0.1-2.2,0.3h0c-1.2,0.4-2.3,1-3.2,1.9c-3,3-3,8,0,11c3,3,8,3,11,0C23.4,86.3,24,85.2,24.4,84.1L24.4,84.1z"/>
	<path fill="#0071BB" d="M25.5,76.2c-0.8,0.8-2.2,0.8-3,0c-0.8-0.8-0.8-2.2,0-3l43.4-43.4c0.8-0.8,2.2-0.8,3,0c0.8,0.8,0.8,2.2,0,3
		L25.5,76.2z"/>
	<path fill="#0071BB" d="M86.3,12.8c0,0,0,0-0.2-0.1L85,18.6c-0.9,2.8-3,4.8-6.1,4.4c-3-0.5-5.9-3.6-5.3-6.1l1.1-6.2
		c-1,0.5-2.1,1.2-2.9,2c-3.8,3.8-4,10.5-0.2,14.4c3.8,3.8,10.6,3.7,14.4-0.1C89.9,23.1,90.1,16.7,86.3,12.8"/>
</g>
</svg>
