<?xml version="1.0" encoding="utf-8"?>
<!-- Generator: Adobe Illustrator 19.1.0, SVG Export Plug-In . SVG Version: 6.00 Build 0)  -->
<svg version="1.1" id="Layer_1" xmlns="http://www.w3.org/2000/svg" xmlns:xlink="http://www.w3.org/1999/xlink" x="0px" y="0px"
	 viewBox="0 0 100 100" enable-background="new 0 0 100 100" xml:space="preserve">
<path fill="#0071BB" d="M87.5,76.3L68.6,60.1c-2-1.8-4.1-2.6-5.7-2.5c4.5-5.2,7.2-12,7.2-19.5c0-16.6-13.4-30-30-30s-30,13.4-30,30
	s13.4,30,30,30c7.4,0,14.2-2.7,19.5-7.2c-0.1,1.7,0.7,3.8,2.5,5.7l16.1,18.9c2.8,3.1,7.3,3.3,10,0.6C90.8,83.5,90.6,79,87.5,76.3z
	 M40,58.2c-11,0-20-9-20-20s9-20,20-20s20,9,20,20S51,58.2,40,58.2z"/>
</svg>
