<?xml version="1.0" encoding="utf-8"?>
<!-- Generator: Adobe Illustrator 18.1.1, SVG Export Plug-In . SVG Version: 6.00 Build 0)  -->
<svg version="1.1" id="Layer_1" xmlns="http://www.w3.org/2000/svg" xmlns:xlink="http://www.w3.org/1999/xlink" x="0px" y="0px"
	 viewBox="0 0 538.9 283.9" enable-background="new 0 0 538.9 283.9" xml:space="preserve">
<g>
	<g>
		<g>
			<path fill="#929497" d="M132.8,112.3v3.1h-0.1c-7.4,0.1-13.5,5.7-14.4,12.9h-3.1c0.9-8.9,8.4-15.9,17.5-16H132.8z"/>
		</g>
		<g>
			<path fill="#929497" d="M132.6,115.4h35.4c5.8,0,10.5-4.7,10.5-10.5c0-5.8-4.7-10.5-10.5-10.5l-85,0v3.1l85,0
				c4.1,0,7.4,3.3,7.4,7.4c0,4.1-3.3,7.4-7.4,7.4h-35.4V115.4L132.6,115.4z"/>
		</g>
		<g>
			<path fill="#929497" d="M83.1,97.6c-5.8,0-10.5-4.7-10.5-10.5c0-5.8,4.7-10.5,10.5-10.5h165.4v3.1H83.1c-4.1,0-7.4,3.3-7.4,7.4
				c0,4.1,3.3,7.4,7.4,7.4"/>
		</g>
	</g>
	<g>
		<path fill="#D9DFDA" d="M327.2,146l20.1-18l8.5-7.6L278.5,34c-3.9,4.5-4.9,10.4-2.4,14.3c-2.6-4-1.6-9.9,2.4-14.4l-34.9-1.8
			l-1,17.1v0l-1.1,17.8c0,0,0,0,0,0l77.2,86.4L327.2,146z M243.6,65.8c4.4-2.2,9.2-2.1,12.4,0.5C252.9,63.8,248.1,63.7,243.6,65.8z
			 M242.1,66.7c0.4-0.3,0.9-0.6,1.3-0.8C242.9,66.2,242.5,66.5,242.1,66.7z"/>
		<polygon fill="#D9DFDA" points="355.8,120.6 347.4,128.1 327.3,146.1 318.8,153.6 326.6,162.3 335,154.8 355.1,136.8 363.6,129.3 
					"/>
	</g>
	<g>
		<path fill="#627590" d="M439.7,206L414,180.3c-2.4-2.4-2.4-6.2,0-8.6L502.8,83c2.4-2.4,6.2-2.4,8.6,0l25.7,25.7
			c2.4,2.4,2.4,6.2,0,8.6L448.2,206C445.9,208.4,442,208.4,439.7,206z M517.8,102.3c-2.1-2.1-5.4-2.1-7.5,0c-2.1,2.1-2.1,5.4,0,7.5
			c2.1,2.1,5.4,2.1,7.5,0C519.8,107.7,519.8,104.3,517.8,102.3z"/>
		<path fill="#8F9FB9" d="M420.1,186.4l-6.1-6c-2.4-2.4-2.4-6.2,0-8.6L502.8,83c2.4-2.4,6.2-2.4,8.6,0l6.1,6.1L420.1,186.4z"/>
		<g>
			<g>
				<polygon fill="#0F3754" points="506.2,93.9 499,86.7 500.1,85.7 507.2,92.8 506.2,93.9 				"/>
			</g>
			<g>
				<polygon fill="#0F3754" points="498.8,101.2 491.7,94.1 492.8,93 499.9,100.1 498.8,101.2 				"/>
			</g>
			<g>
				<polygon fill="#0F3754" points="491.5,108.6 484.3,101.4 485.4,100.4 492.5,107.5 491.5,108.6 				"/>
			</g>
			<g>
				<polygon fill="#0F3754" points="484.1,115.9 477,108.8 478.1,107.7 485.2,114.9 484.1,115.9 				"/>
			</g>
			<g>
				<polygon fill="#0F3754" points="476.8,123.3 469.6,116.2 470.7,115.1 477.8,122.2 476.8,123.3 				"/>
			</g>
			<g>
				<polygon fill="#0F3754" points="469.4,130.6 462.3,123.5 463.3,122.4 470.5,129.6 469.4,130.6 				"/>
			</g>
			<g>
				<polygon fill="#0F3754" points="462,138 454.9,130.9 456,129.8 463.1,136.9 462,138 				"/>
			</g>
			<g>
				<polygon fill="#0F3754" points="454.7,145.3 447.6,138.2 448.6,137.1 455.8,144.3 454.7,145.3 				"/>
			</g>
			<g>
				<polygon fill="#0F3754" points="447.3,152.7 440.2,145.6 441.3,144.5 448.4,151.6 447.3,152.7 				"/>
			</g>
			<g>
				<polygon fill="#0F3754" points="440,160.1 432.9,152.9 433.9,151.9 441.1,159 440,160.1 				"/>
			</g>
			<g>
				<polygon fill="#0F3754" points="432.6,167.4 425.5,160.3 426.6,159.2 433.7,166.3 432.6,167.4 				"/>
			</g>
			<g>
				<polygon fill="#0F3754" points="425.3,174.8 418.1,167.6 419.2,166.6 426.3,173.7 425.3,174.8 				"/>
			</g>
		</g>
	</g>
	<g>
		<polygon fill="#DAE1DB" points="482.9,243.7 482.9,112.7 482.9,47.1 435.8,0 304.5,0 304.5,48.6 304.5,112.7 304.5,243.7 		"/>
		<g>
			<polygon fill="#DAE1DB" points="435.8,47.1 482.9,47.1 435.8,0 			"/>
			<polygon fill="#DAE1DB" points="482.9,47.1 435.8,47.1 482.9,94.1 			"/>
		</g>
	</g>
	<g>
		<path fill="#0F3754" d="M319.2,160.3l-82-82c4.7-3.7,10.6-4.3,14.5-1.6l75.5,75.5L319.2,160.3z"/>
		<path fill="#174F78" d="M346.3,133.2l-19.1,19.1l-75.5-75.5l0,0c0,0,0-0.1-0.1-0.1c0,0,0.1,0.1,0.1,0.1
			c-3.1-4.3-1.9-11.2,2.9-16.1c4.9-4.9,11.8-6,16.1-2.9c0,0-0.1-0.1-0.1-0.1c0,0,0.1,0,0.1,0.1l0,0L346.3,133.2z"/>
		<path fill="#0F3754" d="M270.8,57.7c-2.8-3.8-2.1-9.7,1.6-14.5l82,82l-8,8L270.8,57.7z"/>
		<path fill="#C0E0DE" d="M272.4,43.2c-3.7,4.7-4.4,10.7-1.6,14.5l0,0c0,0-0.1,0-0.1-0.1c0,0,0.1,0.1,0.1,0.1
			c-4.3-3.1-11.2-2-16.1,2.9c-4.9,4.9-6,11.8-2.9,16.1c0,0-0.1-0.1-0.1-0.1c0,0,0,0.1,0.1,0.1l0,0c-3.8-2.8-9.8-2.1-14.5,1.6l0.2-35
			L272.4,43.2z"/>
		<path fill="#0F3754" d="M237.3,60.5l0.1-17.2l17.2-0.1c-2.3,3.3-4.8,6.5-7.8,9.4C243.8,55.7,240.6,58.3,237.3,60.5z"/>
		<g>
			<polygon fill="#627590" points="319.3,160.4 327.3,152.4 335.6,160.6 327.6,168.6 			"/>
			
				<rect x="327.5" y="141.1" transform="matrix(-0.7071 0.7071 -0.7071 -0.7071 686.0178 9.7625)" fill="#8F9FB9" width="27" height="11.6"/>
			<polygon fill="#627590" points="346.4,133.3 354.4,125.3 362.6,133.5 354.6,141.5 			"/>
		</g>
	</g>
	<g>
		<g>
			<polygon fill="#C0E0DE" points="476.4,252 476.4,121 476.4,55.3 429.3,8.3 298,8.3 298,56.9 298,121 298,252 			"/>
			<g>
				<polygon fill="#FFFFFF" points="429.3,55.3 476.4,55.3 429.3,8.3 				"/>
				<polygon fill="#8FC3D5" points="476.4,55.3 429.3,55.3 476.4,102.4 				"/>
			</g>
		</g>
		<g>
			<defs>
				<polygon id="SVGID_1_" points="476.4,252 476.4,121 476.4,55.3 429.3,8.3 298,8.3 298,56.9 298,121 298,252 				"/>
			</defs>
			<clipPath id="SVGID_2_">
				<use xlink:href="#SVGID_1_"  overflow="visible"/>
			</clipPath>
			<path clip-path="url(#SVGID_2_)" fill="#8FC3D5" d="M273.8,226.5c45.8-47.4,19.5-22.9,63.6-68.7l-2-2l8.7-8.7l2.4,2.4
				c2.9-3,5.8-6.2,8.5-9.8c6.2-8.3,10.9-17,13.7-25.2c8.5,5.2,19.8,7,29.8,4c4.4-1.3,8.1-3.5,10.9-6.2l4.9,4.9l-0.2,0.2l-28.6,28.6
				c-1.9-1.2-4.2-1.4-5.4-0.1c-1.5,1.5-1,4.5,1.2,6.7c2.2,2.2,5.2,2.7,6.7,1.2c1.2-1.2,1.1-3.4-0.2-5.4l28.7-28.6l0.2-0.2l4.9,4.9
				c-2.7,2.8-4.9,6.4-6.2,10.9c-3,10-1.2,21.3,4,29.8c-8.2,2.9-16.9,7.5-25.2,13.7c-3.6,2.7-6.8,5.6-9.8,8.5l2.4,2.4l-8.7,8.7l-2-2
				c-45.8,44.1-21.2,17.9-68.7,63.7C279.5,288.3,245.8,254.5,273.8,226.5z"/>
		</g>
		<g>
			<g>
				<g>
					<path fill="#174F78" d="M379.6,197.6L379.6,197.6c-16.1,0-31.3-6.3-42.7-17.7c-23.5-23.5-23.5-61.9,0-85.4
						c11.4-11.4,26.6-17.7,42.7-17.7c16.1,0,31.3,6.3,42.7,17.7c23.5,23.5,23.5,61.9,0,85.4C410.9,191.3,395.7,197.6,379.6,197.6
						L379.6,197.6z M379.6,79.9c-15.3,0-29.7,6-40.6,16.8c-22.4,22.4-22.4,58.7,0,81.1c10.8,10.8,25.2,16.8,40.6,16.8
						c15.3,0,29.7-6,40.6-16.8c22.4-22.4,22.4-58.7,0-81.1C409.3,85.8,394.9,79.9,379.6,79.9L379.6,79.9z"/>
				</g>
				<g>
					<polygon fill="#174F78" points="458.2,135.4 381.4,58.5 383.6,56.4 460.4,133.2 458.2,135.4 					"/>
				</g>
				<g>
					<g>
						<polygon fill="#FFFFFF" points="346.5,96.1 338.5,88.1 330.4,96.1 338.5,104.2 						"/>
						<path fill="#174F78" d="M338.5,106.3l-10.2-10.2l10.2-10.2l10.2,10.2L338.5,106.3L338.5,106.3z M332.5,96.1l5.9,5.9l5.9-5.9
							l-5.9-5.9L332.5,96.1L332.5,96.1z"/>
					</g>
					<g>
						<polygon fill="#FFFFFF" points="428.7,178.3 420.6,170.2 412.6,178.3 420.6,186.4 						"/>
						<path fill="#174F78" d="M420.6,188.5l-10.2-10.2l10.2-10.2l10.2,10.2L420.6,188.5L420.6,188.5z M414.7,178.3l5.9,5.9l5.9-5.9
							l-5.9-5.9L414.7,178.3L414.7,178.3z"/>
					</g>
				</g>
				<g>
					<polygon fill="#174F78" points="429,95.9 420.9,87.8 412.8,95.9 420.9,103.9 					"/>
					<path fill="#174F78" d="M420.9,106.1l-10.2-10.2l10.2-10.2l10.2,10.2L420.9,106.1L420.9,106.1z M415,95.9l5.9,5.9l5.9-5.9
						l-5.9-5.9L415,95.9L415,95.9z"/>
				</g>
				<g>
					<polygon fill="#FFFFFF" points="345.7,179.1 337.6,171.1 329.6,179.1 337.6,187.2 					"/>
					<path fill="#174F78" d="M337.6,189.3l-10.2-10.2l10.2-10.2l10.2,10.2L337.6,189.3L337.6,189.3z M331.7,179.1l5.9,5.9l5.9-5.9
						l-5.9-5.9L331.7,179.1L331.7,179.1z"/>
				</g>
				<g>
					<polygon fill="#174F78" points="387.9,54.8 379.8,46.7 371.7,54.8 379.8,62.8 					"/>
					<path fill="#174F78" d="M379.8,65l-10.2-10.2l10.2-10.2L390,54.8L379.8,65L379.8,65z M373.9,54.8l5.9,5.9l5.9-5.9l-5.9-5.9
						L373.9,54.8L373.9,54.8z"/>
				</g>
				<g>
					
						<rect x="456.3" y="131.3" transform="matrix(0.7071 0.7071 -0.7071 0.7071 232.1541 -286.549)" fill="#174F78" width="11.4" height="11.4"/>
					<path fill="#174F78" d="M462,147.2L451.8,137l10.2-10.2l10.2,10.2L462,147.2L462,147.2z M456.1,137l5.9,5.9l5.9-5.9l-5.9-5.9
						L456.1,137L456.1,137z"/>
				</g>
			</g>
		</g>
		<g>
			<path fill="#2C8AC7" d="M298.9,251.6c-28.1,28-61.8-5.7-33.7-33.8c46.3-48,18.9-22.3,65.2-70.3c12.9,13,25.9,25.9,38.9,38.8
				C321.2,232.7,346.9,205.3,298.9,251.6z"/>
			<path fill="#FFFFFF" d="M308.7,196.2c-4.3,4.1-11.1,10.5-24.6,23.8c-6,6-11.5,9.6-16.1,11.2c1.6-4.5,5.2-10,11.2-16.1
				c40.9-41.7,17.2-18.8,58.1-60.5c1.9,1.9,3.7,3.7,5.6,5.6C315.5,188.3,318.6,185.7,308.7,196.2z"/>
			<path fill="#0F3754" d="M389.9,110c4.4-1.3,8.1-3.5,10.9-6.2l4.9,4.9l-0.2,0.2l-28.7,28.7c-1.9-1.3-4.2-1.4-5.4-0.2
				c-1.5,1.5-1,4.5,1.2,6.7c2.2,2.2,5.2,2.7,6.7,1.2c1.2-1.2,1.1-3.4-0.2-5.4l28.7-28.6l0.2-0.2l5,4.9c-2.7,2.8-4.9,6.4-6.2,10.9
				c-3,10-1.2,21.3,4,29.8c-8.2,2.9-16.9,7.5-25.2,13.7c-6,4.5-11.1,9.4-15.3,14.3c-5.2-6.5-11.3-13.3-18.1-20.2
				c-6.8-6.8-13.7-12.9-20.2-18.1c5-4.2,9.8-9.3,14.3-15.3c6.2-8.3,10.9-17,13.7-25.2C368.7,111.1,379.9,113,389.9,110z"/>
			<polygon fill="#0072BC" points="369.6,189.9 326.8,147.2 335.5,138.5 378.2,181.3 			"/>
		</g>
	</g>
	<polygon fill="#D9DFDA" points="528.2,225.4 489.7,212.9 451.2,200.4 451.7,201.7 451.7,201.7 463.8,238.9 476.3,277.4 
		489.8,251.1 510.4,271.7 516,266 516,266 522.5,259.5 501.9,239 	"/>
	<g>
		<polygon fill="#0072BC" points="515.3,231.9 476.8,219.4 438.3,206.9 450.8,245.4 463.3,283.9 476.8,257.6 497.4,278.1 509.5,266 
			488.9,245.5 		"/>
		<polygon fill="#4196CD" points="476.8,219.4 438.3,206.9 438.7,208.2 503,272.5 509.5,266 488.9,245.5 515.3,231.9 		"/>
	</g>
	<g>
		<rect x="0" y="128.3" fill="#A6A8AB" width="234.8" height="88.1"/>
	</g>
	<rect x="0" y="140.3" fill="#A6A8AB" width="234.8" height="88.1"/>
	<rect x="0" y="137.6" fill="#DBDCDD" width="234.8" height="88.1"/>
	<g>
		<g>
			<rect x="49.7" y="154.9" fill="#7496AE" width="14.1" height="14.1"/>
			<rect x="69.2" y="154.9" fill="#7496AE" width="14.1" height="14.1"/>
			<rect x="88.7" y="154.9" fill="#7496AE" width="14.1" height="14.1"/>
			<rect x="108.2" y="154.9" fill="#7496AE" width="14.1" height="14.1"/>
			<rect x="127.7" y="154.9" fill="#7496AE" width="14.1" height="14.1"/>
			<rect x="147.3" y="154.9" fill="#7496AE" width="14.1" height="14.1"/>
			<rect x="166.8" y="154.9" fill="#7496AE" width="14.1" height="14.1"/>
			<rect x="186.3" y="154.9" fill="#7496AE" width="14.1" height="14.1"/>
			<rect x="205.8" y="154.9" fill="#7496AE" width="14.1" height="14.1"/>
		</g>
		<g>
			<rect x="49.7" y="174.4" fill="#7496AE" width="14.1" height="14.1"/>
			<rect x="69.2" y="174.4" fill="#7496AE" width="14.1" height="14.1"/>
			<rect x="88.7" y="174.4" fill="#7496AE" width="14.1" height="14.1"/>
			<rect x="108.2" y="174.4" fill="#7496AE" width="14.1" height="14.1"/>
			<rect x="127.7" y="174.4" fill="#7496AE" width="14.1" height="14.1"/>
			<rect x="147.3" y="174.4" fill="#7496AE" width="14.1" height="14.1"/>
			<rect x="166.8" y="174.4" fill="#7496AE" width="14.1" height="14.1"/>
			<rect x="186.3" y="174.4" fill="#7496AE" width="14.1" height="14.1"/>
			<rect x="205.8" y="174.4" fill="#7496AE" width="14.1" height="14.1"/>
		</g>
		<g>
			<rect x="49.7" y="193.8" fill="#7496AE" width="14.1" height="14.1"/>
			<polygon fill="#7496AE" points="155.5,193.8 147.3,193.8 69.2,193.8 69.2,207.9 147.3,207.9 155.5,207.9 161.4,207.9 
				161.4,193.8 			"/>
			<rect x="166.8" y="193.8" fill="#7496AE" width="14.1" height="14.1"/>
			<rect x="186.3" y="193.8" fill="#7496AE" width="14.1" height="14.1"/>
			<rect x="205.8" y="193.8" fill="#7496AE" width="14.1" height="14.1"/>
		</g>
	</g>
	<g>
		<g>
			<rect x="49.7" y="152.5" fill="#80B8DD" width="14.1" height="14.1"/>
			<rect x="69.2" y="152.5" fill="#80B8DD" width="14.1" height="14.1"/>
			<rect x="88.7" y="152.5" fill="#80B8DD" width="14.1" height="14.1"/>
			<rect x="108.2" y="152.5" fill="#80B8DD" width="14.1" height="14.1"/>
			<rect x="127.7" y="152.5" fill="#80B8DD" width="14.1" height="14.1"/>
			<rect x="147.3" y="152.5" fill="#80B8DD" width="14.1" height="14.1"/>
			<rect x="166.8" y="152.5" fill="#80B8DD" width="14.1" height="14.1"/>
			<rect x="186.3" y="152.5" fill="#80B8DD" width="14.1" height="14.1"/>
			<rect x="205.8" y="152.5" fill="#80B8DD" width="14.1" height="14.1"/>
		</g>
		<g>
			<rect x="49.7" y="171.9" fill="#80B8DD" width="14.1" height="14.1"/>
			<rect x="69.2" y="171.9" fill="#80B8DD" width="14.1" height="14.1"/>
			<rect x="88.7" y="171.9" fill="#80B8DD" width="14.1" height="14.1"/>
			<rect x="108.2" y="171.9" fill="#80B8DD" width="14.1" height="14.1"/>
			<rect x="127.7" y="171.9" fill="#80B8DD" width="14.1" height="14.1"/>
			<rect x="147.3" y="171.9" fill="#80B8DD" width="14.1" height="14.1"/>
			<rect x="166.8" y="171.9" fill="#80B8DD" width="14.1" height="14.1"/>
			<rect x="186.3" y="171.9" fill="#80B8DD" width="14.1" height="14.1"/>
			<rect x="205.8" y="171.9" fill="#80B8DD" width="14.1" height="14.1"/>
		</g>
		<g>
			<rect x="49.7" y="191.4" fill="#80B8DD" width="14.1" height="14.1"/>
			<polygon fill="#80B8DD" points="155.5,191.4 147.3,191.4 69.2,191.4 69.2,205.5 147.3,205.5 155.5,205.5 161.4,205.5 
				161.4,191.4 			"/>
			<rect x="166.8" y="191.4" fill="#80B8DD" width="14.1" height="14.1"/>
			<rect x="186.3" y="191.4" fill="#80B8DD" width="14.1" height="14.1"/>
			<rect x="205.8" y="191.4" fill="#80B8DD" width="14.1" height="14.1"/>
		</g>
	</g>
</g>
<g>
	<g>
		<polygon fill="#DAE1DB" points="1506.3,279.2 1506.3,156.5 1506.3,95 1462.2,50.9 1339.2,50.9 1339.2,96.4 1339.2,156.5 
			1339.2,279.2 		"/>
		<g>
			<polygon fill="#DAE1DB" points="1462.2,95 1506.3,95 1462.2,50.9 			"/>
			<polygon fill="#DAE1DB" points="1506.3,95 1462.2,95 1506.3,139.1 			"/>
		</g>
	</g>
	<g>
		<polygon fill="#C0E0DE" points="1500.3,286.8 1500.3,163 1500.3,100.9 1455.8,56.5 1331.8,56.5 1331.8,102.4 1331.8,163 
			1331.8,286.8 		"/>
		<polygon fill="#FFFFFF" points="1455.8,100.9 1500.3,100.9 1455.8,56.5 		"/>
		<polygon fill="#8FC3D5" points="1500.3,100.9 1455.8,100.9 1500.3,145.4 		"/>
		<g>
			<path fill="#174F78" d="M1361.6,76.7c0-3,2.4-5.3,5.4-5.3c3,0,5.4,2.4,5.4,5.3c0,3-2.4,5.4-5.4,5.4
				C1364,82,1361.6,79.6,1361.6,76.7z"/>
			<circle fill="#0072BC" cx="1352.1" cy="76.7" r="5.4"/>
			<path fill="#8FC1E1" d="M1387.3,76.7c0,3-2.4,5.4-5.4,5.4c-3,0-5.4-2.4-5.4-5.4c0-3,2.4-5.3,5.4-5.3
				C1384.9,71.3,1387.3,73.7,1387.3,76.7z"/>
		</g>
		<g>
			<rect x="1346.7" y="91" fill="#0072BC" width="48.2" height="2.7"/>
			<rect x="1346.7" y="97.5" fill="#8FC1E1" width="68.5" height="2.7"/>
			<rect x="1346.7" y="104.1" fill="#8FC1E1" width="54.2" height="2.7"/>
		</g>
		<g>
			<rect x="1372.3" y="161.9" fill="#8FC3D5" width="192.5" height="84.5"/>
			<path fill="#174F78" d="M1376.4,169.9l81.9,52.2c5.6,3.6,14.7,3.6,20.3,0l81.9-52.2c2.6-1.7,4-3.9,4.2-6.1V163
				c0-0.4-0.1-0.7-0.2-1.1h-192.1C1371.7,164.7,1373.1,167.7,1376.4,169.9z"/>
		</g>
		<g>
			<rect x="1345.4" y="219.4" fill="#174F78" width="82.1" height="51.3"/>
			<g>
				<path fill="#FFFFFF" d="M1365.5,232.3c0-2.5,2-4.6,4.6-4.6c2.5,0,4.6,2,4.6,4.6c0,2.5-2,4.6-4.6,4.6
					C1367.5,236.9,1365.5,234.9,1365.5,232.3z"/>
				<path fill="#0072BC" d="M1352.7,232.3c0-2.5,2-4.6,4.6-4.6c2.5,0,4.6,2,4.6,4.6c0,2.5-2,4.6-4.6,4.6
					C1354.8,236.9,1352.7,234.9,1352.7,232.3z"/>
				<path fill="#8FC1E1" d="M1387.4,232.3c0,2.5-2,4.6-4.6,4.6c-2.5,0-4.6-2-4.6-4.6c0-2.5,2-4.6,4.6-4.6
					C1385.3,227.8,1387.4,229.8,1387.4,232.3z"/>
			</g>
			<g>
				<rect x="1352.7" y="244.6" fill="#8FC1E1" width="41.2" height="2.3"/>
				<rect x="1352.7" y="250.2" fill="#8FC1E1" width="58.5" height="2.3"/>
				<rect x="1352.7" y="255.8" fill="#8FC1E1" width="46.3" height="2.3"/>
			</g>
		</g>
		<g>
			<path fill="#0F3754" d="M1298.9,111.4v139.4c2-0.3,3.5-1.9,3.8-3.8V111.4H1298.9z"/>
			<path fill="#174F78" d="M1311.7,111.4h-9V247l0,0c0,0,0,0,0,0.1c0,0,0,0,0-0.1c0.3,2.2,2.2,3.9,4.5,3.9c2.3,0,4.2-1.7,4.5-3.9
				c0,0,0,0,0,0.1c0,0,0,0,0-0.1h0V111.4z"/>
			<path fill="#0F3754" d="M1311.7,247c0.2,2,1.8,3.5,3.8,3.8V111.4h-3.8V247z"/>
			<path fill="#C0E0DE" d="M1315.5,250.8c-2-0.3-3.5-1.9-3.8-3.8h0c0,0,0,0,0,0.1c0,0,0,0,0-0.1c-0.3,2.2-2.2,3.9-4.5,3.9
				c-2.3,0-4.2-1.7-4.5-3.9c0,0,0,0,0,0.1c0,0,0,0,0-0.1l0,0c-0.2,2-1.8,3.5-3.8,3.8l8.3,10.3L1315.5,250.8z"/>
			<path fill="#0F3754" d="M1303.1,256.1l4.1,5.1l4.1-5.1c-1.3-0.3-2.7-0.5-4.1-0.5S1304.4,255.8,1303.1,256.1z"/>
			<g>
				<rect x="1298.9" y="106.5" fill="#0072BC" width="3.8" height="4.9"/>
				<rect x="1302.7" y="106.5" fill="#8FC1E1" width="9" height="4.9"/>
				<rect x="1311.7" y="106.5" fill="#0072BC" width="3.8" height="4.9"/>
			</g>
		</g>
	</g>
	<g>
		
			<rect x="1538.9" y="123.3" transform="matrix(-0.4285 0.9035 -0.9035 -0.4285 2428.8833 -1169.0938)" fill="#DBE3E5" width="90.4" height="120.6"/>
		
			<rect x="1546.2" y="130.5" transform="matrix(-0.4285 0.9035 -0.9035 -0.4285 2428.855 -1169.1096)" fill="#0072BC" width="76" height="106.1"/>
		<polygon fill="#57A2D3" points="1519.9,195.2 1648.4,172 1615.8,240.7 		"/>
	</g>
	<g>
		
			<rect x="1693.5" y="77.6" transform="matrix(-8.848991e-02 0.9961 -0.9961 -8.848991e-02 2029.9672 -1581.7637)" fill="#DBE3E5" width="90.4" height="120.6"/>
		<polygon fill="#175079" points="1682.5,171.1 1689.2,95.4 1794.9,104.8 1788.2,180.5 		"/>
		<polygon fill="#4B7797" points="1682.5,171.1 1794.9,104.8 1788.2,180.5 		"/>
	</g>
	<g>
		
			<rect x="1535.5" y="37.8" transform="matrix(-9.670053e-02 0.9953 -0.9953 -9.670053e-02 1831.1989 -1465.7092)" fill="#DBE3E5" width="90.4" height="120.6"/>
		
			<rect x="1542.7" y="45" transform="matrix(-9.668130e-02 0.9953 -0.9953 -9.668130e-02 1831.1644 -1465.7146)" fill="#8FC1E1" width="76" height="106.1"/>
		<polygon fill="#BCDAED" points="1524.2,130.8 1637.2,65.4 1629.9,141.1 		"/>
	</g>
	<g>
		<g>
			<g>
				<path fill="#30363D" d="M1708.9,44.8l-14.5,4L1673,33l-50.3,13.9l-10.3,24.6L1560,86c-6.1,1.7-9.7,8.1-8.1,14.2l26.9,97.4
					c1.7,6.2,8.1,9.8,14.2,8.1l148.9-41.2c6.1-1.7,9.7-8.1,8-14.2l-26.9-97.4C1721.4,46.7,1715.1,43.1,1708.9,44.8z"/>
				<path fill="#5A6374" d="M1709.8,108.9c6.1,22-6.8,44.8-28.8,50.9c-22,6.1-44.8-6.8-50.9-28.8c-6.1-22,6.8-44.8,28.8-50.9
					C1680.9,74,1703.7,86.9,1709.8,108.9z"/>
				<path fill="#30363D" d="M1704.4,110.4c5.3,19-5.9,38.7-24.9,44c-19,5.3-38.7-5.9-44-24.9c-5.3-19,5.9-38.7,24.9-44
					C1679.4,80.2,1699.1,91.4,1704.4,110.4z"/>
				<path fill="#90ABBF" d="M1695.5,112.9c3.9,14.1-4.4,28.8-18.5,32.7c-14.1,3.9-28.8-4.4-32.7-18.5c-3.9-14.1,4.4-28.8,18.5-32.7
					C1677,90.5,1691.6,98.7,1695.5,112.9z"/>
				<path fill="#FFFFFF" d="M1668.3,109.2c1.4,5-1.6,10.2-6.6,11.6c-5,1.4-10.2-1.6-11.6-6.6c-1.4-5,1.6-10.2,6.6-11.6
					C1661.8,101.2,1667,104.2,1668.3,109.2z"/>
				<path fill="#FFFFFF" d="M1659,126.9c0.8,2.8-0.9,5.7-3.7,6.5c-2.8,0.8-5.7-0.9-6.5-3.7c-0.8-2.8,0.9-5.7,3.7-6.5
					C1655.3,122.5,1658.2,124.1,1659,126.9z"/>
				<path fill="#484F5A" d="M1566.1,92.5c-4.3,1.2-8.6-0.2-11.5-3.2c-2.6,2.8-3.8,6.9-2.7,10.9l26.9,97.4c1.7,6.2,8.1,9.8,14.2,8.1
					l31.2-8.6l-31-112.1L1566.1,92.5z"/>
				<path fill="#484F5A" d="M1591.1,77.1c0.5,1.8-0.6,3.6-2.3,4.1l-21.8,6c-1.8,0.5-3.6-0.5-4.1-2.3l-0.4-1.6
					c-0.5-1.8,0.6-3.6,2.3-4.1l21.8-6c1.8-0.5,3.6,0.6,4.1,2.3L1591.1,77.1z"/>
				<path fill="#FFFFFF" d="M1675.4,47.3c0.5,1.8-0.6,3.7-2.4,4.3L1631.3,63c-1.8,0.5-3.8-0.6-4.3-2.4l-1.8-6.7
					c-0.5-1.8,0.6-3.7,2.4-4.3l41.7-11.5c1.8-0.5,3.7,0.6,4.3,2.4L1675.4,47.3z"/>
			</g>
		</g>
	</g>
	<g>
		<g>
			<g>
				<path fill="#CDD5D7" d="M1688.2,186.6l-124.6,65.1c-1.5,0.8-2,2.6-1.3,4.1l10.5,20.1c0.8,1.5,2.6,2,4.1,1.3l124.6-65.1
					c1.5-0.8,2-2.6,1.3-4.1l-10.5-20.1C1691.5,186.4,1689.7,185.8,1688.2,186.6z M1576.3,263.1c-0.8,0.4-1.9,0.1-2.3-0.7
					c-0.4-0.8-0.1-1.9,0.7-2.3c0.8-0.4,1.8-0.1,2.3,0.7C1577.4,261.7,1577.1,262.7,1576.3,263.1z"/>
				<path fill="#807F7F" d="M1574,258.9c-1.5,0.8-2.1,2.7-1.3,4.2c0.8,1.5,2.6,2.1,4.2,1.3c1.5-0.8,2.1-2.7,1.3-4.2
					C1577.4,258.7,1575.6,258.1,1574,258.9z M1576.3,263.1c-0.8,0.4-1.9,0.1-2.3-0.7c-0.4-0.8-0.1-1.9,0.7-2.3
					c0.8-0.4,1.8-0.1,2.3,0.7C1577.4,261.7,1577.1,262.7,1576.3,263.1z"/>
			</g>
			<g>
				<path fill="#C1C7CA" d="M1689.5,187.6L1564.6,252c-1.5,0.8-2.1,2.6-1.3,4l10.4,20.1c0.8,1.5,2.6,2,4,1.3l124.9-64.4
					c1.5-0.8,2.1-2.6,1.3-4l-10.4-20.1C1692.8,187.4,1691,186.8,1689.5,187.6z M1577.1,263.5c-0.8,0.4-1.9,0.1-2.3-0.7
					c-0.4-0.8-0.1-1.9,0.7-2.3c0.8-0.4,1.8-0.1,2.3,0.7C1578.3,262.1,1578,263.1,1577.1,263.5z"/>
				<polygon fill="#F5F1F0" points="1683.8,222.7 1703,212.9 1689.8,187.4 1670.7,197.3 				"/>
				<polygon fill="#DBE3E5" points="1664.8,232.5 1683.9,222.7 1670.8,197.2 1651.6,207.1 				"/>
				
					<rect x="1638" y="210.4" transform="matrix(-0.8888 0.4582 -0.4582 -0.8888 3217.2092 -331.0919)" fill="#CDD5D7" width="21.6" height="28.6"/>
				<polygon fill="#C1C7CA" points="1626.7,252.2 1645.9,242.3 1632.8,216.8 1613.6,226.7 				"/>
				<polygon fill="#A9AFB1" points="1607.7,262 1626.9,252.1 1613.7,226.6 1594.6,236.5 				"/>
				
					<rect x="1580.9" y="239.8" transform="matrix(-0.8888 0.4582 -0.4582 -0.8888 3122.8643 -249.361)" fill="#8D9293" width="21.6" height="28.6"/>
				<path fill="#989897" d="M1574.9,259.3c-1.5,0.8-2.1,2.6-1.3,4.2c0.8,1.5,2.6,2.1,4.1,1.3c1.5-0.8,2.1-2.6,1.3-4.1
					C1578.3,259.1,1576.4,258.5,1574.9,259.3z M1577.1,263.5c-0.8,0.4-1.9,0.1-2.3-0.7c-0.4-0.8-0.1-1.9,0.7-2.3
					c0.8-0.4,1.8-0.1,2.3,0.7C1578.3,262.1,1578,263.1,1577.1,263.5z"/>
			</g>
			<g>
				<path fill="#CDD5D7" d="M1696.9,200.7l-131.3,50.2c-1.6,0.6-2.3,2.3-1.7,3.9l8.1,21.1c0.6,1.6,2.3,2.3,3.9,1.7l131.3-50.2
					c1.6-0.6,2.3-2.3,1.7-3.9l-8.1-21.1C1700.2,200.9,1698.4,200.1,1696.9,200.7z M1576.8,263.7c-0.9,0.3-1.9-0.1-2.2-1
					c-0.3-0.9,0.1-1.9,1-2.2c0.9-0.3,1.9,0.1,2.2,1C1578.1,262.4,1577.7,263.4,1576.8,263.7z"/>
				<polygon fill="#9EAECB" points="1687.3,235 1707.5,227.3 1697.2,200.5 1677.1,208.2 				"/>
				<polygon fill="#8A98B1" points="1667.3,242.6 1687.5,234.9 1677.2,208.2 1657.1,215.9 				"/>
				<polygon fill="#758097" points="1647.3,250.3 1667.5,242.6 1657.2,215.8 1637.1,223.5 				"/>
				<polygon fill="#5A6374" points="1627.3,257.9 1647.5,250.2 1637.2,223.5 1617.1,231.2 				"/>
				<polygon fill="#484F5A" points="1607.3,265.6 1627.5,257.9 1617.2,231.1 1597.1,238.8 				"/>
				<polygon fill="#30363D" points="1587.3,273.2 1607.5,265.5 1597.2,238.8 1577.1,246.5 				"/>
				<path fill="#807F7F" d="M1575.1,259.3c-1.6,0.6-2.4,2.4-1.8,4c0.6,1.6,2.4,2.4,4,1.8c1.6-0.6,2.4-2.4,1.8-4
					C1578.4,259.5,1576.7,258.7,1575.1,259.3z M1576.8,263.7c-0.9,0.3-1.9-0.1-2.2-1c-0.3-0.9,0.1-1.9,1-2.2c0.9-0.3,1.9,0.1,2.2,1
					C1578.1,262.4,1577.7,263.4,1576.8,263.7z"/>
			</g>
			<g>
				<path fill="#DBE3E5" d="M1706.3,224.6l-138.4,24.5c-1.6,0.3-2.7,1.8-2.4,3.5l3.9,22.3c0.3,1.6,1.9,2.7,3.5,2.4l138.4-24.5
					c1.6-0.3,2.7-1.9,2.4-3.5l-3.9-22.3C1709.5,225.4,1708,224.3,1706.3,224.6z M1576.5,263.9c-0.9,0.2-1.8-0.5-2-1.4
					c-0.2-0.9,0.4-1.8,1.4-2c0.9-0.2,1.8,0.5,2,1.4C1578,262.8,1577.4,263.7,1576.5,263.9z"/>
				
					<rect x="1687.8" y="226.2" transform="matrix(-0.9847 0.1745 -0.1745 -0.9847 3413.0601 180.9939)" fill="#C2D1DC" width="21.6" height="28.6"/>
				<polygon fill="#A5BBCB" points="1669.4,260.2 1690.6,256.5 1685.6,228.3 1664.4,232 				"/>
				
					<rect x="1645.6" y="233.7" transform="matrix(-0.9847 0.1742 -0.1742 -0.9847 3330.6973 203.5737)" fill="#7C9CB3" width="21.6" height="28.6"/>
				<polygon fill="#57809E" points="1627.2,267.7 1648.5,263.9 1643.5,235.7 1622.2,239.5 				"/>
				<polygon fill="#36688B" points="1606.1,271.4 1627.4,267.7 1622.4,239.5 1601.1,243.2 				"/>
				<polygon fill="#175079" points="1585,275.2 1606.3,271.4 1601.3,243.2 1580.1,247 				"/>
				<path fill="#8A8A8A" d="M1575.7,259.2c-1.7,0.3-2.8,1.9-2.5,3.6c0.3,1.7,1.9,2.8,3.6,2.5c1.7-0.3,2.8-1.9,2.5-3.6
					C1578.9,260,1577.3,258.9,1575.7,259.2z M1576.5,263.9c-0.9,0.2-1.8-0.5-2-1.4c-0.2-0.9,0.4-1.8,1.4-2c0.9-0.2,1.8,0.5,2,1.4
					C1578,262.8,1577.4,263.7,1576.5,263.9z"/>
			</g>
			<g>
				<path fill="#F5F1F0" d="M1711.3,266.7l-139.2-19.6c-1.6-0.2-3.2,0.9-3.4,2.6l-3.2,22.4c-0.2,1.6,0.9,3.2,2.6,3.4l139.2,19.6
					c1.6,0.2,3.2-0.9,3.4-2.6l3.2-22.4C1714.1,268.4,1713,266.9,1711.3,266.7z M1575.7,263.8c-0.9-0.1-1.6-1-1.4-1.9
					c0.1-0.9,1-1.6,1.9-1.4c0.9,0.1,1.6,1,1.4,1.9C1577.5,263.3,1576.7,263.9,1575.7,263.8z"/>
				<polygon fill="#B0D3EA" points="1686.4,292.1 1707.7,295.1 1711.7,266.7 1690.4,263.7 				"/>
				<polygon fill="#A3CCE7" points="1665.2,289.1 1686.5,292.1 1690.5,263.7 1669.2,260.7 				"/>
				
					<rect x="1645.9" y="259.1" transform="matrix(-0.9903 -0.1391 0.1391 -0.9903 3259.1499 774.7154)" fill="#7DB7DD" width="21.6" height="28.6"/>
				
					<rect x="1624.7" y="256.1" transform="matrix(-0.9903 -0.1391 0.1391 -0.9903 3217.3655 765.8737)" fill="#58A2D3" width="21.6" height="28.6"/>
				<polygon fill="#2E8BC8" points="1601.6,280.2 1622.9,283.2 1626.9,254.8 1605.6,251.8 				"/>
				
					<rect x="1582.3" y="250.2" transform="matrix(-0.9903 -0.1391 0.1391 -0.9903 3133.8091 748.11)" fill="#0072BC" width="21.6" height="28.6"/>
				<path fill="#989897" d="M1576.4,259.1c-1.7-0.2-3.2,0.9-3.5,2.6c-0.2,1.7,0.9,3.2,2.6,3.5c1.7,0.2,3.2-0.9,3.5-2.6
					C1579.3,260.9,1578.1,259.3,1576.4,259.1z M1575.7,263.8c-0.9-0.1-1.6-1-1.4-1.9c0.1-0.9,1-1.6,1.9-1.4c0.9,0.1,1.6,1,1.4,1.9
					C1577.5,263.3,1576.7,263.9,1575.7,263.8z"/>
			</g>
		</g>
	</g>
</g>
<g>
	<g>
		<g>
			<path fill="#30363D" d="M928,204.7c-2.7,10.9-5.3,21.9-8,32.8c24.9,0,49.9,0,74.8,0c-2.7-10.9-5.3-21.9-8-32.8
				C967.2,204.7,947.6,204.7,928,204.7z"/>
			<path fill="#484F5A" d="M999.4,236.8h-84.1c-2.1,0-3.9,1.1-3.9,2.4v0.9h91.8v-0.9C1003.3,237.9,1001.6,236.8,999.4,236.8z"/>
			<path fill="#484F5A" d="M831,192V210c0,3.5,2.8,6.3,6.3,6.3h240.2c3.5,0,6.3-2.8,6.3-6.3V192H831z"/>
			<path fill="#30363D" d="M1083.8,192V39c0-3.5-2.8-6.3-6.3-6.3H837.3c-3.5,0-6.3,2.8-6.3,6.3V192H1083.8z"/>
			<rect x="841.3" y="42.6" fill="#FFFFFF" width="232.1" height="139"/>
		</g>
		<g>
			<rect x="855.1" y="80.8" fill="#0072BC" width="63" height="32.8"/>
			<rect x="925.9" y="80.8" fill="#174F78" width="63" height="32.8"/>
			<rect x="996.7" y="80.8" fill="#8FC1E1" width="63" height="32.8"/>
			<g>
				<rect x="872.4" y="61.2" fill="#CDD5D7" width="41.9" height="4.6"/>
				<circle fill="#CDD5D7" cx="861" cy="63.5" r="5.9"/>
			</g>
			<rect x="1038.8" y="62.6" fill="#CDD5D7" width="20.9" height="1.9"/>
			<rect x="1015.5" y="62.6" fill="#CDD5D7" width="20.9" height="1.9"/>
			<rect x="992.1" y="62.6" fill="#CDD5D7" width="20.8" height="1.9"/>
			<rect x="968.7" y="62.6" fill="#CDD5D7" width="20.9" height="1.9"/>
			<rect x="945.3" y="62.6" fill="#CDD5D7" width="20.8" height="1.9"/>
			<g>
				<rect x="855.1" y="134.3" fill="#CDD5D7" width="63" height="1.9"/>
				<rect x="855.1" y="140.6" fill="#CDD5D7" width="63" height="1.8"/>
				<rect x="855.1" y="147" fill="#CDD5D7" width="63" height="1.9"/>
				<rect x="855.1" y="153.4" fill="#CDD5D7" width="63" height="1.9"/>
				<rect x="855.1" y="159.8" fill="#CDD5D7" width="44.9" height="1.9"/>
				<rect x="855.1" y="123.5" fill="#CDD5D7" width="41.9" height="4.6"/>
			</g>
			<g>
				<rect x="925.9" y="134.3" fill="#CDD5D7" width="63" height="1.9"/>
				<rect x="925.9" y="140.6" fill="#CDD5D7" width="63" height="1.8"/>
				<rect x="925.9" y="147" fill="#CDD5D7" width="63" height="1.9"/>
				<rect x="925.9" y="153.4" fill="#CDD5D7" width="63" height="1.9"/>
				<rect x="925.9" y="159.8" fill="#CDD5D7" width="44.9" height="1.9"/>
				<rect x="925.9" y="123.5" fill="#CDD5D7" width="41.9" height="4.6"/>
			</g>
			<g>
				<rect x="996.7" y="134.3" fill="#CDD5D7" width="63" height="1.9"/>
				<rect x="996.7" y="140.6" fill="#CDD5D7" width="63" height="1.8"/>
				<rect x="996.7" y="147" fill="#CDD5D7" width="63" height="1.9"/>
				<rect x="996.7" y="153.4" fill="#CDD5D7" width="63" height="1.9"/>
				<rect x="996.7" y="159.8" fill="#CDD5D7" width="44.9" height="1.9"/>
				<rect x="996.7" y="123.5" fill="#CDD5D7" width="41.9" height="4.6"/>
			</g>
		</g>
	</g>
	<circle fill="#626262" cx="1072.3" cy="234.2" r="3.1"/>
	<g>
		<g>
			<g>
				<path fill="#565E6A" d="M1164,152.3h-31c-3.8,0-6.8,3-6.8,6.8v74.2c0,3.8,3,6.8,6.8,6.8h31c3.8,0,6.8-3,6.8-6.8v-74.2
					C1170.8,155.4,1167.7,152.3,1164,152.3z"/>
				<path fill="#FFFFFF" d="M1142.6,157.6h11.7c0.3,0,0.6,0.3,0.6,0.6c0,0.3-0.3,0.6-0.6,0.6h-11.7c-0.3,0-0.6-0.3-0.6-0.6
					C1142,157.8,1142.3,157.6,1142.6,157.6z"/>
				<rect x="1129.2" y="163.3" fill="#FFFFFF" width="38.6" height="63.7"/>
			</g>
			<g>
				<rect x="1131.4" y="175.7" fill="#0072BC" width="34.2" height="17.6"/>
				<g>
					<rect x="1140.8" y="168.1" fill="#CDD5D7" width="24.7" height="2.5"/>
					<path fill="#CDD5D7" d="M1137.8,169.3c0,1.8-1.4,3.2-3.2,3.2c-1.8,0-3.2-1.4-3.2-3.2c0-1.8,1.4-3.2,3.2-3.2
						C1136.4,166.1,1137.8,167.6,1137.8,169.3z"/>
				</g>
				<g>
					<rect x="1131.4" y="204.5" fill="#CDD5D7" width="34.2" height="1"/>
					<rect x="1131.4" y="216.1" fill="#CDD5D7" width="34.2" height="1"/>
					<rect x="1131.4" y="219.5" fill="#CDD5D7" width="34.2" height="1"/>
					<rect x="1131.4" y="223" fill="#CDD5D7" width="24.8" height="1"/>
					<rect x="1131.4" y="197.8" fill="#CDD5D7" width="22.8" height="2.5"/>
					<rect x="1131.4" y="212" fill="#CDD5D7" width="34.2" height="1"/>
					<rect x="1131.4" y="208" fill="#CDD5D7" width="34.2" height="1"/>
				</g>
			</g>
		</g>
		<circle fill="#626262" cx="1148.4" cy="233.4" r="3.1"/>
	</g>
	<g>
		<path fill="#DBE3E5" d="M877.7,116.5v96.5H831V109.4h39.7C874.6,109.4,877.7,112.6,877.7,116.5z"/>
		<g>
			<g>
				<g>
					<path fill="#30363D" d="M693.7,232.8c-1.2,0-2.3-0.5-3.1-1.3c-0.8-0.8-1.3-2-1.3-3.1l0-110.3c0-1.2,0.5-2.3,1.3-3.1
						c0.8-0.8,2-1.3,3.1-1.3h174.5c1.2,0,2.3,0.5,3.1,1.3c0.8,0.8,1.3,2,1.3,3.1v110.3c0,1.2-0.5,2.3-1.3,3.1
						c-0.8,0.8-2,1.3-3.1,1.3H693.7z"/>
					<path fill="#30363D" d="M871.4,114.9c-0.9-0.9-2-1.3-3.2-1.3H693.7c-1.2,0-2.3,0.5-3.2,1.3c-0.9,0.9-1.3,2-1.3,3.2l0,110.3
						c0,1.2,0.5,2.3,1.3,3.2c0.9,0.9,2,1.3,3.2,1.3h174.5c1.2,0,2.3-0.5,3.2-1.3c0.9-0.9,1.3-2,1.3-3.2V118.1
						C872.7,116.9,872.2,115.7,871.4,114.9z M872.5,228.4c0,1.2-0.5,2.2-1.3,3.1c-0.8,0.8-1.9,1.3-3.1,1.3H693.7
						c-1.2,0-2.2-0.5-3.1-1.3c-0.8-0.8-1.3-1.9-1.3-3.1l0-110.3c0-1.2,0.5-2.2,1.3-3.1c0.8-0.8,1.9-1.3,3.1-1.3h174.5
						c1.2,0,2.2,0.5,3.1,1.3c0.8,0.8,1.3,1.9,1.3,3.1V228.4z"/>
				</g>
			</g>
		</g>
		<g>
			<g>
				<rect x="697.2" y="121.6" fill="#FFFFFF" width="167.5" height="110.3"/>
			</g>
		</g>
		<path fill="#565E6A" d="M895,228.9c0-0.6-2.2-0.9-2.7-0.9H884h-1.4h-213c-0.6,0-2.7,0.3-2.7,0.9v8.1h0c3,3.7,5.4,2.9,7,3.1h16.7
			l2.5,0v0l87.8,0l90.3,0H888c1.6-0.2,4,0.6,7-3.1h0c0-0.1,0-0.2,0-0.3L895,228.9L895,228.9z"/>
		<g>
			<rect x="701" y="143.7" fill="#0072BC" width="48.9" height="25.5"/>
			<rect x="755.9" y="143.7" fill="#174F78" width="48.9" height="25.5"/>
			<rect x="810.9" y="143.7" fill="#8FC1E1" width="48.9" height="25.5"/>
			<rect x="701" y="176.5" fill="#0072BC" width="48.9" height="5.4"/>
			<rect x="755.9" y="176.5" fill="#174F78" width="48.9" height="5.4"/>
			<rect x="810.9" y="176.5" fill="#8FC1E1" width="48.9" height="5.4"/>
			<g>
				<rect x="714.4" y="128.5" fill="#CDD5D7" width="32.5" height="3.5"/>
				<circle fill="#CDD5D7" cx="705.6" cy="130.3" r="4.6"/>
			</g>
			<rect x="843.6" y="129.6" fill="#CDD5D7" width="16.2" height="1.4"/>
			<rect x="825.4" y="129.6" fill="#CDD5D7" width="16.2" height="1.4"/>
			<rect x="807.3" y="129.6" fill="#CDD5D7" width="16.2" height="1.4"/>
			<rect x="789.1" y="129.6" fill="#CDD5D7" width="16.2" height="1.4"/>
			<rect x="771" y="129.6" fill="#CDD5D7" width="16.2" height="1.4"/>
			<g>
				<rect x="701" y="196.1" fill="#CDD5D7" width="48.9" height="1.4"/>
				<rect x="701" y="201" fill="#CDD5D7" width="48.9" height="1.4"/>
				<rect x="701" y="206" fill="#CDD5D7" width="48.9" height="1.4"/>
				<rect x="701" y="210.9" fill="#CDD5D7" width="48.9" height="1.4"/>
				<rect x="701" y="215.9" fill="#CDD5D7" width="34.9" height="1.4"/>
				<rect x="701" y="187.8" fill="#CDD5D7" width="32.5" height="3.5"/>
			</g>
			<g>
				<rect x="755.9" y="196.1" fill="#CDD5D7" width="48.9" height="1.4"/>
				<rect x="755.9" y="201" fill="#CDD5D7" width="48.9" height="1.4"/>
				<rect x="755.9" y="206" fill="#CDD5D7" width="48.9" height="1.4"/>
				<rect x="755.9" y="210.9" fill="#CDD5D7" width="48.9" height="1.4"/>
				<rect x="755.9" y="215.9" fill="#CDD5D7" width="34.9" height="1.4"/>
				<rect x="755.9" y="187.8" fill="#CDD5D7" width="32.5" height="3.5"/>
			</g>
			<g>
				<rect x="810.9" y="196.1" fill="#CDD5D7" width="48.9" height="1.4"/>
				<rect x="810.9" y="201" fill="#CDD5D7" width="48.9" height="1.4"/>
				<rect x="810.9" y="206" fill="#CDD5D7" width="48.9" height="1.4"/>
				<rect x="810.9" y="210.9" fill="#CDD5D7" width="48.9" height="1.4"/>
				<rect x="810.9" y="215.9" fill="#CDD5D7" width="34.9" height="1.4"/>
				<rect x="810.9" y="187.8" fill="#CDD5D7" width="32.5" height="3.5"/>
			</g>
		</g>
		<g>
			<g>
				<g>
					<path fill="#626262" d="M878.8,232.9c0,0.1-0.1,0.3-0.2,0.3h-6.7c-0.1,0-0.2-0.1-0.2-0.3c0-0.1,0.1-0.3,0.2-0.3h6.7
						C878.7,232.6,878.8,232.8,878.8,232.9z"/>
				</g>
			</g>
			<g>
				<g>
					<path fill="#626262" d="M885.6,231.9c0.5,0,1,0.4,1,1c0,0.5-0.4,1-1,1c-0.5,0-1-0.4-1-1C884.6,232.4,885.1,231.9,885.6,231.9z"
						/>
				</g>
				<g>
					<path fill="#626262" d="M882.7,231.9c0.5,0,1,0.4,1,1c0,0.5-0.4,1-1,1c-0.5,0-1-0.4-1-1C881.8,232.4,882.2,231.9,882.7,231.9z"
						/>
				</g>
			</g>
		</g>
		<g>
			<g>
				<path fill="#626262" d="M674.6,234.3c0,0.2-0.1,0.3-0.3,0.3h-0.1c-0.2,0-0.3-0.1-0.3-0.3v-2.8c0-0.2,0.1-0.3,0.3-0.3h0.1
					c0.2,0,0.3,0.1,0.3,0.3V234.3z"/>
			</g>
			<g>
				<path fill="#626262" d="M676.1,234.3c0,0.2-0.1,0.3-0.3,0.3h-0.1c-0.2,0-0.3-0.1-0.3-0.3v-2.8c0-0.2,0.1-0.3,0.3-0.3h0.1
					c0.2,0,0.3,0.1,0.3,0.3V234.3z"/>
			</g>
			<g>
				<path fill="#626262" d="M677.7,234.3c0,0.2-0.1,0.3-0.3,0.3h-0.1c-0.2,0-0.3-0.1-0.3-0.3v-2.8c0-0.2,0.1-0.3,0.3-0.3h0.1
					c0.2,0,0.3,0.1,0.3,0.3V234.3z"/>
			</g>
			<g>
				<path fill="#626262" d="M679.2,234.3c0,0.2-0.1,0.3-0.3,0.3h-0.1c-0.2,0-0.3-0.1-0.3-0.3v-2.8c0-0.2,0.1-0.3,0.3-0.3h0.1
					c0.2,0,0.3,0.1,0.3,0.3V234.3z"/>
			</g>
		</g>
	</g>
	<path fill="#DBE3E5" d="M1037,123.8v96.5h46.7V116.8H1044C1040.2,116.8,1037,119.9,1037,123.8z"/>
	<g>
		<g>
			<path fill="#565E6A" d="M1112.3,123.1h-80c-3.2,0-5.8,2.6-5.8,5.8v105.4c0,3.2,2.6,5.8,5.8,5.8h80c3.2,0,5.8-2.6,5.8-5.8V128.9
				C1118.1,125.7,1115.5,123.1,1112.3,123.1z"/>
			<rect x="1036.8" y="134.4" fill="#FFFFFF" width="70.9" height="94.4"/>
		</g>
		<g>
			<g>
				<rect x="1064.6" y="143.1" fill="#CDD5D7" width="26.1" height="2.8"/>
				<path fill="#CDD5D7" d="M1061.2,144.5c0,2-1.6,3.7-3.7,3.7c-2,0-3.7-1.7-3.7-3.7c0-2,1.7-3.7,3.7-3.7
					C1059.5,140.8,1061.2,142.5,1061.2,144.5z"/>
			</g>
			<g>
				<rect x="1090.2" y="154.4" fill="#CDD5D7" width="10.3" height="1.4"/>
				<rect x="1078.7" y="154.4" fill="#CDD5D7" width="10.3" height="1.4"/>
				<rect x="1067.1" y="154.4" fill="#CDD5D7" width="10.3" height="1.4"/>
				<rect x="1055.5" y="154.4" fill="#CDD5D7" width="10.3" height="1.4"/>
				<rect x="1044" y="154.4" fill="#CDD5D7" width="10.3" height="1.4"/>
			</g>
			<g>
				<rect x="1040.4" y="161" fill="#0072BC" width="30" height="24.7"/>
				<rect x="1074.1" y="161" fill="#174F78" width="30" height="24.7"/>
				<g>
					<rect x="1040.4" y="201.1" fill="#CDD5D7" width="30" height="1.4"/>
					<rect x="1040.4" y="205.9" fill="#CDD5D7" width="30" height="1.4"/>
					<rect x="1040.4" y="210.7" fill="#CDD5D7" width="30" height="1.4"/>
					<rect x="1040.4" y="215.5" fill="#CDD5D7" width="30" height="1.4"/>
					<rect x="1040.4" y="220.3" fill="#CDD5D7" width="21.4" height="1.4"/>
					<rect x="1040.4" y="193.1" fill="#CDD5D7" width="19.9" height="3.4"/>
				</g>
				<g>
					<rect x="1074.1" y="201.1" fill="#CDD5D7" width="30" height="1.4"/>
					<rect x="1074.1" y="205.9" fill="#CDD5D7" width="30" height="1.4"/>
					<rect x="1074.1" y="210.7" fill="#CDD5D7" width="30" height="1.4"/>
					<rect x="1074.1" y="215.5" fill="#CDD5D7" width="30" height="1.4"/>
					<rect x="1074.1" y="220.3" fill="#CDD5D7" width="21.4" height="1.4"/>
					<rect x="1074.1" y="193.1" fill="#CDD5D7" width="19.9" height="3.4"/>
				</g>
			</g>
		</g>
	</g>
</g>
<rect x="30.7" y="154.9" fill="#7496AE" width="14.1" height="14.1"/>
<rect x="30.7" y="174.4" fill="#7496AE" width="14.1" height="14.1"/>
<rect x="30.7" y="193.8" fill="#7496AE" width="14.1" height="14.1"/>
<rect x="30.7" y="152.5" fill="#80B8DD" width="14.1" height="14.1"/>
<rect x="30.7" y="171.9" fill="#80B8DD" width="14.1" height="14.1"/>
<rect x="30.7" y="191.4" fill="#80B8DD" width="14.1" height="14.1"/>
<rect x="11.7" y="154.9" fill="#7496AE" width="14.1" height="14.1"/>
<rect x="11.7" y="174.4" fill="#7496AE" width="14.1" height="14.1"/>
<rect x="11.7" y="193.8" fill="#7496AE" width="14.1" height="14.1"/>
<rect x="11.7" y="152.5" fill="#80B8DD" width="14.1" height="14.1"/>
<rect x="11.7" y="171.9" fill="#80B8DD" width="14.1" height="14.1"/>
<rect x="11.7" y="191.4" fill="#80B8DD" width="14.1" height="14.1"/>
</svg>
