<?xml version="1.0" encoding="utf-8"?>
<!-- Generator: Adobe Illustrator 18.1.1, SVG Export Plug-In . SVG Version: 6.00 Build 0)  -->
<svg version="1.1" id="Layer_1" xmlns="http://www.w3.org/2000/svg" xmlns:xlink="http://www.w3.org/1999/xlink" x="0px" y="0px"
	 viewBox="0 0 504 262.8" enable-background="new 0 0 504 262.8" xml:space="preserve">
<g>
	<g>
		<g>
			<path fill="#929497" d="M-1166.1,79.3v3.1h-0.1c-7.4,0.1-13.5,5.7-14.4,12.9h-3.1c0.9-8.9,8.4-15.9,17.5-16H-1166.1z"/>
		</g>
		<g>
			<path fill="#929497" d="M-1166.2,82.4h35.4c5.8,0,10.5-4.7,10.5-10.5c0-5.8-4.7-10.5-10.5-10.5l-85,0v3.1l85,0
				c4.1,0,7.4,3.3,7.4,7.4c0,4.1-3.3,7.4-7.4,7.4h-35.4V82.4L-1166.2,82.4z"/>
		</g>
		<g>
			<path fill="#929497" d="M-1215.8,64.6c-5.8,0-10.5-4.7-10.5-10.5c0-5.8,4.7-10.5,10.5-10.5h165.4v3.1h-165.4
				c-4.1,0-7.4,3.3-7.4,7.4c0,4.1,3.3,7.4,7.4,7.4"/>
		</g>
	</g>
	<g>
		<path fill="#D9DFDA" d="M-971.7,113l20.1-18l8.5-7.6l-77.2-86.4c-3.9,4.5-4.9,10.4-2.4,14.3c-2.6-4-1.6-9.9,2.4-14.4l-34.9-1.8
			l-1,17.1v0l-1.1,17.8c0,0,0,0,0,0l77.2,86.4L-971.7,113z M-1055.2,32.9c4.4-2.2,9.2-2.1,12.4,0.5
			C-1046,30.8-1050.8,30.7-1055.2,32.9z M-1056.8,33.8c0.4-0.3,0.9-0.6,1.3-0.8C-1055.9,33.2-1056.4,33.5-1056.8,33.8z"/>
		<polygon fill="#D9DFDA" points="-943.1,87.6 -951.5,95.2 -971.6,113.1 -980.1,120.7 -972.3,129.4 -963.9,121.8 -943.7,103.8 
			-935.3,96.3 		"/>
	</g>
	<g>
		<path fill="#627590" d="M-859.2,173l-25.7-25.7c-2.4-2.4-2.4-6.2,0-8.6l88.8-88.8c2.4-2.4,6.2-2.4,8.6,0l25.7,25.7
			c2.4,2.4,2.4,6.2,0,8.6l-88.8,88.8C-853,175.4-856.8,175.4-859.2,173z M-781.1,69.3c-2.1-2.1-5.4-2.1-7.5,0
			c-2.1,2.1-2.1,5.4,0,7.5c2.1,2.1,5.4,2.1,7.5,0C-779,74.7-779,71.3-781.1,69.3z"/>
		<path fill="#8F9FB9" d="M-878.8,153.4l-6.1-6c-2.4-2.4-2.4-6.2,0-8.6l88.8-88.8c2.4-2.4,6.2-2.4,8.6,0l6.1,6.1L-878.8,153.4z"/>
		<g>
			<g>
				<polygon fill="#0F3754" points="-792.7,60.9 -799.8,53.8 -798.8,52.7 -791.6,59.8 -792.7,60.9 				"/>
			</g>
			<g>
				<polygon fill="#0F3754" points="-800.1,68.2 -807.2,61.1 -806.1,60 -799,67.2 -800.1,68.2 				"/>
			</g>
			<g>
				<polygon fill="#0F3754" points="-807.4,75.6 -814.5,68.5 -813.5,67.4 -806.3,74.5 -807.4,75.6 				"/>
			</g>
			<g>
				<polygon fill="#0F3754" points="-814.8,83 -821.9,75.8 -820.8,74.8 -813.7,81.9 -814.8,83 				"/>
			</g>
			<g>
				<polygon fill="#0F3754" points="-822.1,90.3 -829.2,83.2 -828.2,82.1 -821.1,89.2 -822.1,90.3 				"/>
			</g>
			<g>
				<polygon fill="#0F3754" points="-829.5,97.7 -836.6,90.5 -835.5,89.5 -828.4,96.6 -829.5,97.7 				"/>
			</g>
			<g>
				<polygon fill="#0F3754" points="-836.8,105 -844,97.9 -842.9,96.8 -835.8,104 -836.8,105 				"/>
			</g>
			<g>
				<polygon fill="#0F3754" points="-844.2,112.4 -851.3,105.2 -850.2,104.2 -843.1,111.3 -844.2,112.4 				"/>
			</g>
			<g>
				<polygon fill="#0F3754" points="-851.5,119.7 -858.7,112.6 -857.6,111.5 -850.5,118.7 -851.5,119.7 				"/>
			</g>
			<g>
				<polygon fill="#0F3754" points="-858.9,127.1 -866,120 -864.9,118.9 -857.8,126 -858.9,127.1 				"/>
			</g>
			<g>
				<polygon fill="#0F3754" points="-866.2,134.4 -873.4,127.3 -872.3,126.2 -865.2,133.4 -866.2,134.4 				"/>
			</g>
			<g>
				<polygon fill="#0F3754" points="-873.6,141.8 -880.7,134.7 -879.7,133.6 -872.5,140.7 -873.6,141.8 				"/>
			</g>
		</g>
	</g>
	<g>
		<polygon fill="#DAE1DB" points="-816,210.8 -816,79.8 -816,14.1 -863.1,-33 -994.4,-33 -994.4,15.6 -994.4,79.8 -994.4,210.8 		
			"/>
		<g>
			<polygon fill="#DAE1DB" points="-863.1,14.1 -816,14.1 -863.1,-33 			"/>
			<polygon fill="#DAE1DB" points="-816,14.1 -863.1,14.1 -816,61.1 			"/>
		</g>
	</g>
	<g>
		<path fill="#0F3754" d="M-979.7,127.3l-82-82c4.7-3.7,10.6-4.3,14.5-1.6l75.5,75.5L-979.7,127.3z"/>
		<path fill="#174F78" d="M-952.6,100.2l-19.1,19.1l-75.5-75.5l0,0c0,0,0-0.1-0.1-0.1c0,0,0.1,0.1,0.1,0.1
			c-3.1-4.3-1.9-11.2,2.9-16.1c4.9-4.9,11.8-6,16.1-2.9c0,0-0.1-0.1-0.1-0.1c0,0,0.1,0,0.1,0.1l0,0L-952.6,100.2z"/>
		<path fill="#0F3754" d="M-1028.1,24.7c-2.8-3.8-2.1-9.7,1.6-14.5l82,82l-8,8L-1028.1,24.7z"/>
		<path fill="#C0E0DE" d="M-1026.5,10.2c-3.7,4.7-4.4,10.7-1.6,14.5l0,0c0,0-0.1,0-0.1-0.1c0,0,0.1,0.1,0.1,0.1
			c-4.3-3.1-11.2-2-16.1,2.9c-4.9,4.9-6,11.8-2.9,16.1c0,0-0.1-0.1-0.1-0.1c0,0,0,0.1,0.1,0.1l0,0c-3.8-2.8-9.8-2.1-14.5,1.6l0.2-35
			L-1026.5,10.2z"/>
		<path fill="#0F3754" d="M-1061.6,27.6l0.1-17.2l17.2-0.1c-2.3,3.3-4.8,6.5-7.8,9.4C-1055.1,22.7-1058.3,25.3-1061.6,27.6z"/>
		<g>
			<polygon fill="#627590" points="-979.5,127.4 -971.5,119.4 -963.3,127.6 -971.3,135.7 			"/>
			
				<rect x="-971.4" y="108.2" transform="matrix(-0.7071 0.7071 -0.7071 -0.7071 -1554.6107 871.9299)" fill="#8F9FB9" width="27" height="11.6"/>
			<polygon fill="#627590" points="-952.5,100.3 -944.5,92.3 -936.2,100.6 -944.2,108.6 			"/>
		</g>
	</g>
	<g>
		<g>
			<polygon fill="#C0E0DE" points="-822.5,219 -822.5,88 -822.5,22.4 -869.6,-24.7 -1000.8,-24.7 -1000.8,23.9 -1000.8,88 
				-1000.8,219 			"/>
			<g>
				<polygon fill="#FFFFFF" points="-869.6,22.4 -822.5,22.4 -869.6,-24.7 				"/>
				<polygon fill="#8FC3D5" points="-822.5,22.4 -869.6,22.4 -822.5,69.4 				"/>
			</g>
		</g>
		<g>
			<defs>
				<polygon id="SVGID_1_" points="-822.5,219 -822.5,88 -822.5,22.4 -869.6,-24.7 -1000.8,-24.7 -1000.8,23.9 -1000.8,88 
					-1000.8,219 				"/>
			</defs>
			<clipPath id="SVGID_2_">
				<use xlink:href="#SVGID_1_"  overflow="visible"/>
			</clipPath>
			<path clip-path="url(#SVGID_2_)" fill="#8FC3D5" d="M-1025.1,193.5c45.8-47.4,19.5-22.9,63.6-68.7l-2-2l8.7-8.7l2.4,2.4
				c2.9-3,5.8-6.2,8.5-9.8c6.2-8.3,10.9-17,13.7-25.2c8.5,5.2,19.8,7,29.8,4c4.4-1.3,8.1-3.5,10.9-6.2l4.9,4.9l-0.2,0.2l-28.6,28.6
				c-1.9-1.2-4.2-1.4-5.4-0.1c-1.5,1.5-1,4.5,1.2,6.7c2.2,2.2,5.2,2.7,6.7,1.2c1.2-1.2,1.1-3.4-0.2-5.4l28.7-28.6l0.2-0.2l4.9,4.9
				c-2.7,2.8-4.9,6.4-6.2,10.9c-3,10-1.2,21.3,4,29.8c-8.2,2.9-16.9,7.5-25.2,13.7c-3.6,2.7-6.8,5.6-9.8,8.5l2.4,2.4l-8.7,8.7l-2-2
				c-45.8,44.1-21.2,17.9-68.7,63.7C-1019.4,255.3-1053.1,221.6-1025.1,193.5z"/>
		</g>
		<g>
			<g>
				<g>
					<path fill="#174F78" d="M-919.3,164.6L-919.3,164.6c-16.1,0-31.3-6.3-42.7-17.7c-23.5-23.5-23.5-61.9,0-85.4
						c11.4-11.4,26.6-17.7,42.7-17.7c16.1,0,31.3,6.3,42.7,17.7c23.5,23.5,23.5,61.9,0,85.4C-888,158.4-903.2,164.6-919.3,164.6
						L-919.3,164.6z M-919.3,46.9c-15.3,0-29.7,6-40.6,16.8c-22.4,22.4-22.4,58.7,0,81.1c10.8,10.8,25.2,16.8,40.6,16.8
						c15.3,0,29.7-6,40.6-16.8c22.4-22.4,22.4-58.7,0-81.1C-889.6,52.9-904,46.9-919.3,46.9L-919.3,46.9z"/>
				</g>
				<g>
					<polygon fill="#174F78" points="-840.7,102.4 -917.5,25.6 -915.3,23.4 -838.5,100.2 -840.7,102.4 					"/>
				</g>
				<g>
					<g>
						<polygon fill="#FFFFFF" points="-952.4,63.2 -960.4,55.1 -968.5,63.2 -960.4,71.2 						"/>
						<path fill="#174F78" d="M-960.4,73.4l-10.2-10.2l10.2-10.2l10.2,10.2L-960.4,73.4L-960.4,73.4z M-966.3,63.2l5.9,5.9l5.9-5.9
							l-5.9-5.9L-966.3,63.2L-966.3,63.2z"/>
					</g>
					<g>
						<polygon fill="#FFFFFF" points="-870.2,145.3 -878.2,137.3 -886.3,145.3 -878.2,153.4 						"/>
						<path fill="#174F78" d="M-878.2,155.5l-10.2-10.2l10.2-10.2l10.2,10.2L-878.2,155.5L-878.2,155.5z M-884.1,145.3l5.9,5.9
							l5.9-5.9l-5.9-5.9L-884.1,145.3L-884.1,145.3z"/>
					</g>
				</g>
				<g>
					<polygon fill="#174F78" points="-869.9,62.9 -878,54.9 -886,62.9 -878,71 					"/>
					<path fill="#174F78" d="M-878,73.1l-10.2-10.2l10.2-10.2l10.2,10.2L-878,73.1L-878,73.1z M-883.9,62.9l5.9,5.9l5.9-5.9L-878,57
						L-883.9,62.9L-883.9,62.9z"/>
				</g>
				<g>
					<polygon fill="#FFFFFF" points="-953.2,146.2 -961.2,138.1 -969.3,146.2 -961.2,154.2 					"/>
					<path fill="#174F78" d="M-961.2,156.4l-10.2-10.2l10.2-10.2l10.2,10.2L-961.2,156.4L-961.2,156.4z M-967.1,146.2l5.9,5.9
						l5.9-5.9l-5.9-5.9L-967.1,146.2L-967.1,146.2z"/>
				</g>
				<g>
					<polygon fill="#174F78" points="-911,21.8 -919.1,13.8 -927.1,21.8 -919.1,29.9 					"/>
					<path fill="#174F78" d="M-919.1,32l-10.2-10.2l10.2-10.2l10.2,10.2L-919.1,32L-919.1,32z M-925,21.8l5.9,5.9l5.9-5.9l-5.9-5.9
						L-925,21.8L-925,21.8z"/>
				</g>
				<g>
					
						<rect x="-842.6" y="98.3" transform="matrix(0.7071 0.7071 -0.7071 0.7071 -171.5748 622.223)" fill="#174F78" width="11.4" height="11.4"/>
					<path fill="#174F78" d="M-836.9,114.2l-10.2-10.2l10.2-10.2l10.2,10.2L-836.9,114.2L-836.9,114.2z M-842.8,104l5.9,5.9l5.9-5.9
						l-5.9-5.9L-842.8,104L-842.8,104z"/>
				</g>
			</g>
		</g>
		<g>
			<path fill="#2C8AC7" d="M-1000,218.6c-28.1,28-61.8-5.7-33.7-33.8c46.3-48,18.9-22.3,65.2-70.3c12.9,13,25.9,25.9,38.9,38.8
				C-977.7,199.8-952,172.3-1000,218.6z"/>
			<path fill="#FFFFFF" d="M-990.2,163.2c-4.3,4.1-11.1,10.5-24.6,23.8c-6,6-11.5,9.6-16.1,11.2c1.6-4.5,5.2-10,11.2-16.1
				c40.9-41.7,17.2-18.8,58.1-60.5c1.9,1.9,3.7,3.7,5.6,5.6C-983.4,155.3-980.3,152.7-990.2,163.2z"/>
			<path fill="#0F3754" d="M-908.9,77c4.4-1.3,8.1-3.5,10.9-6.2l4.9,4.9l-0.2,0.2l-28.7,28.7c-1.9-1.3-4.2-1.4-5.4-0.2
				c-1.5,1.5-1,4.5,1.2,6.7c2.2,2.2,5.2,2.7,6.7,1.2c1.2-1.2,1.1-3.4-0.2-5.4l28.7-28.6l0.2-0.2l5,4.9c-2.7,2.8-4.9,6.4-6.2,10.9
				c-3,10-1.2,21.3,4,29.8c-8.2,2.9-16.9,7.5-25.2,13.7c-6,4.5-11.1,9.4-15.3,14.3c-5.2-6.5-11.3-13.3-18.1-20.2
				c-6.8-6.8-13.7-12.9-20.2-18.1c5-4.2,9.8-9.3,14.3-15.3c6.2-8.3,10.9-17,13.7-25.2C-930.2,78.2-918.9,80-908.9,77z"/>
			<polygon fill="#0072BC" points="-929.3,157 -972.1,114.2 -963.4,105.5 -920.6,148.3 			"/>
		</g>
	</g>
	<polygon fill="#D9DFDA" points="-770.6,192.5 -809.1,180 -847.6,167.5 -847.2,168.7 -847.2,168.7 -835.1,206 -822.6,244.5 
		-809.1,218.1 -788.5,238.7 -782.9,233.1 -782.9,233.1 -776.4,226.6 -797,206 	"/>
	<g>
		<polygon fill="#0072BC" points="-783.6,199 -822.1,186.5 -860.6,174 -848.1,212.5 -835.6,251 -822.1,224.6 -801.5,245.2 
			-789.4,233.1 -810,212.5 		"/>
		<polygon fill="#4196CD" points="-822.1,186.5 -860.6,174 -860.2,175.2 -795.9,239.6 -789.4,233.1 -810,212.5 -783.6,199 		"/>
	</g>
	<g>
		<rect x="-1298.9" y="95.3" fill="#A6A8AB" width="234.8" height="88.1"/>
	</g>
	<rect x="-1298.9" y="107.3" fill="#A6A8AB" width="234.8" height="88.1"/>
	<rect x="-1298.9" y="104.6" fill="#DBDCDD" width="234.8" height="88.1"/>
	<g>
		<g>
			<rect x="-1249.2" y="121.9" fill="#7496AE" width="14.1" height="14.1"/>
			<rect x="-1229.7" y="121.9" fill="#7496AE" width="14.1" height="14.1"/>
			<rect x="-1210.2" y="121.9" fill="#7496AE" width="14.1" height="14.1"/>
			<rect x="-1190.6" y="121.9" fill="#7496AE" width="14.1" height="14.1"/>
			<rect x="-1171.1" y="121.9" fill="#7496AE" width="14.1" height="14.1"/>
			<rect x="-1151.6" y="121.9" fill="#7496AE" width="14.1" height="14.1"/>
			<rect x="-1132.1" y="121.9" fill="#7496AE" width="14.1" height="14.1"/>
			<rect x="-1112.6" y="121.9" fill="#7496AE" width="14.1" height="14.1"/>
			<rect x="-1093.1" y="121.9" fill="#7496AE" width="14.1" height="14.1"/>
		</g>
		<g>
			<rect x="-1249.2" y="141.4" fill="#7496AE" width="14.1" height="14.1"/>
			<rect x="-1229.7" y="141.4" fill="#7496AE" width="14.1" height="14.1"/>
			<rect x="-1210.2" y="141.4" fill="#7496AE" width="14.1" height="14.1"/>
			<rect x="-1190.6" y="141.4" fill="#7496AE" width="14.1" height="14.1"/>
			<rect x="-1171.1" y="141.4" fill="#7496AE" width="14.1" height="14.1"/>
			<rect x="-1151.6" y="141.4" fill="#7496AE" width="14.1" height="14.1"/>
			<rect x="-1132.1" y="141.4" fill="#7496AE" width="14.1" height="14.1"/>
			<rect x="-1112.6" y="141.4" fill="#7496AE" width="14.1" height="14.1"/>
			<rect x="-1093.1" y="141.4" fill="#7496AE" width="14.1" height="14.1"/>
		</g>
		<g>
			<rect x="-1249.2" y="160.8" fill="#7496AE" width="14.1" height="14.1"/>
			<polygon fill="#7496AE" points="-1143.4,160.8 -1151.6,160.8 -1229.7,160.8 -1229.7,174.9 -1151.6,174.9 -1143.4,174.9 
				-1137.5,174.9 -1137.5,160.8 			"/>
			<rect x="-1132.1" y="160.8" fill="#7496AE" width="14.1" height="14.1"/>
			<rect x="-1112.6" y="160.8" fill="#7496AE" width="14.1" height="14.1"/>
			<rect x="-1093.1" y="160.8" fill="#7496AE" width="14.1" height="14.1"/>
		</g>
	</g>
	<g>
		<g>
			<rect x="-1249.2" y="119.5" fill="#80B8DD" width="14.1" height="14.1"/>
			<rect x="-1229.7" y="119.5" fill="#80B8DD" width="14.1" height="14.1"/>
			<rect x="-1210.2" y="119.5" fill="#80B8DD" width="14.1" height="14.1"/>
			<rect x="-1190.6" y="119.5" fill="#80B8DD" width="14.1" height="14.1"/>
			<rect x="-1171.1" y="119.5" fill="#80B8DD" width="14.1" height="14.1"/>
			<rect x="-1151.6" y="119.5" fill="#80B8DD" width="14.1" height="14.1"/>
			<rect x="-1132.1" y="119.5" fill="#80B8DD" width="14.1" height="14.1"/>
			<rect x="-1112.6" y="119.5" fill="#80B8DD" width="14.1" height="14.1"/>
			<rect x="-1093.1" y="119.5" fill="#80B8DD" width="14.1" height="14.1"/>
		</g>
		<g>
			<rect x="-1249.2" y="139" fill="#80B8DD" width="14.1" height="14.1"/>
			<rect x="-1229.7" y="139" fill="#80B8DD" width="14.1" height="14.1"/>
			<rect x="-1210.2" y="139" fill="#80B8DD" width="14.1" height="14.1"/>
			<rect x="-1190.6" y="139" fill="#80B8DD" width="14.1" height="14.1"/>
			<rect x="-1171.1" y="139" fill="#80B8DD" width="14.1" height="14.1"/>
			<rect x="-1151.6" y="139" fill="#80B8DD" width="14.1" height="14.1"/>
			<rect x="-1132.1" y="139" fill="#80B8DD" width="14.1" height="14.1"/>
			<rect x="-1112.6" y="139" fill="#80B8DD" width="14.1" height="14.1"/>
			<rect x="-1093.1" y="139" fill="#80B8DD" width="14.1" height="14.1"/>
		</g>
		<g>
			<rect x="-1249.2" y="158.4" fill="#80B8DD" width="14.1" height="14.1"/>
			<polygon fill="#80B8DD" points="-1143.4,158.4 -1151.6,158.4 -1229.7,158.4 -1229.7,172.5 -1151.6,172.5 -1143.4,172.5 
				-1137.5,172.5 -1137.5,158.4 			"/>
			<rect x="-1132.1" y="158.4" fill="#80B8DD" width="14.1" height="14.1"/>
			<rect x="-1112.6" y="158.4" fill="#80B8DD" width="14.1" height="14.1"/>
			<rect x="-1093.1" y="158.4" fill="#80B8DD" width="14.1" height="14.1"/>
		</g>
	</g>
</g>
<g>
	<g>
		<polygon fill="#DAE1DB" points="207.4,246.3 207.4,123.5 207.4,62 163.3,17.9 40.3,17.9 40.3,63.5 40.3,123.5 40.3,246.3 		"/>
		<g>
			<polygon fill="#DAE1DB" points="163.3,62 207.4,62 163.3,17.9 			"/>
			<polygon fill="#DAE1DB" points="207.4,62 163.3,62 207.4,106.1 			"/>
		</g>
	</g>
	<g>
		<polygon fill="#C0E0DE" points="201.4,253.8 201.4,130 201.4,68 157,23.5 32.9,23.5 32.9,69.4 32.9,130 32.9,253.8 		"/>
		<polygon fill="#FFFFFF" points="157,68 201.4,68 157,23.5 		"/>
		<polygon fill="#8FC3D5" points="201.4,68 157,68 201.4,112.4 		"/>
		<g>
			<path fill="#174F78" d="M62.8,43.7c0-3,2.4-5.3,5.4-5.3c3,0,5.4,2.4,5.4,5.3c0,3-2.4,5.4-5.4,5.4C65.2,49,62.8,46.6,62.8,43.7z"
				/>
			<circle fill="#0072BC" cx="53.2" cy="43.7" r="5.4"/>
			<path fill="#8FC1E1" d="M88.4,43.7c0,3-2.4,5.4-5.4,5.4c-3,0-5.4-2.4-5.4-5.4c0-3,2.4-5.3,5.4-5.3C86,38.3,88.4,40.7,88.4,43.7z"
				/>
		</g>
		<g>
			<rect x="47.8" y="58" fill="#0072BC" width="48.2" height="2.7"/>
			<rect x="47.8" y="64.6" fill="#8FC1E1" width="68.5" height="2.7"/>
			<rect x="47.8" y="71.1" fill="#8FC1E1" width="54.2" height="2.7"/>
		</g>
		<g>
			<rect x="73.4" y="129" fill="#8FC3D5" width="192.5" height="84.5"/>
			<path fill="#174F78" d="M77.6,136.9l81.9,52.2c5.6,3.6,14.7,3.6,20.3,0l81.9-52.2c2.6-1.7,4-3.9,4.2-6.1v-0.8
				c0-0.4-0.1-0.7-0.2-1.1H73.6C72.9,131.8,74.2,134.8,77.6,136.9z"/>
		</g>
		<g>
			<rect x="46.5" y="186.4" fill="#174F78" width="82.1" height="51.3"/>
			<g>
				<path fill="#FFFFFF" d="M66.6,199.4c0-2.5,2-4.6,4.6-4.6c2.5,0,4.6,2,4.6,4.6c0,2.5-2,4.6-4.6,4.6
					C68.6,204,66.6,201.9,66.6,199.4z"/>
				<path fill="#0072BC" d="M53.9,199.4c0-2.5,2-4.6,4.6-4.6c2.5,0,4.6,2,4.6,4.6c0,2.5-2,4.6-4.6,4.6
					C55.9,204,53.9,201.9,53.9,199.4z"/>
				<path fill="#8FC1E1" d="M88.5,199.4c0,2.5-2,4.6-4.6,4.6c-2.5,0-4.6-2-4.6-4.6c0-2.5,2-4.6,4.6-4.6
					C86.4,194.8,88.5,196.9,88.5,199.4z"/>
			</g>
			<g>
				<rect x="53.9" y="211.6" fill="#8FC1E1" width="41.2" height="2.3"/>
				<rect x="53.9" y="217.2" fill="#8FC1E1" width="58.5" height="2.3"/>
				<rect x="53.9" y="222.8" fill="#8FC1E1" width="46.3" height="2.3"/>
			</g>
		</g>
		<g>
			<path fill="#0F3754" d="M0,78.4v139.4c2-0.3,3.5-1.9,3.8-3.8V78.4H0z"/>
			<path fill="#174F78" d="M12.8,78.4h-9V214l0,0c0,0,0,0,0,0.1c0,0,0,0,0-0.1c0.3,2.2,2.2,3.9,4.5,3.9c2.3,0,4.2-1.7,4.5-3.9
				c0,0,0,0,0,0.1c0,0,0,0,0-0.1h0V78.4z"/>
			<path fill="#0F3754" d="M12.8,214c0.2,2,1.8,3.5,3.8,3.8V78.4h-3.8V214z"/>
			<path fill="#C0E0DE" d="M16.6,217.9c-2-0.3-3.5-1.9-3.8-3.8h0c0,0,0,0,0,0.1c0,0,0,0,0-0.1c-0.3,2.2-2.2,3.9-4.5,3.9
				c-2.3,0-4.2-1.7-4.5-3.9c0,0,0,0,0,0.1c0,0,0,0,0-0.1l0,0c-0.2,2-1.8,3.5-3.8,3.8l8.3,10.3L16.6,217.9z"/>
			<path fill="#0F3754" d="M4.2,223.1l4.1,5.1l4.1-5.1c-1.3-0.3-2.7-0.5-4.1-0.5S5.5,222.8,4.2,223.1z"/>
			<g>
				<rect x="0" y="73.5" fill="#0072BC" width="3.8" height="4.9"/>
				<rect x="3.8" y="73.5" fill="#8FC1E1" width="9" height="4.9"/>
				<rect x="12.8" y="73.5" fill="#0072BC" width="3.8" height="4.9"/>
			</g>
		</g>
	</g>
	<g>
		
			<rect x="240.1" y="90.3" transform="matrix(-0.4285 0.9035 -0.9035 -0.4285 543.6244 -42.6141)" fill="#DBE3E5" width="90.4" height="120.6"/>
		
			<rect x="247.3" y="97.5" transform="matrix(-0.4285 0.9035 -0.9035 -0.4285 543.6218 -42.617)" fill="#0072BC" width="76" height="106.1"/>
		<polygon fill="#57A2D3" points="221.1,162.2 349.5,139 317,207.7 		"/>
	</g>
	<g>
		
			<rect x="394.6" y="44.7" transform="matrix(-8.848991e-02 0.9961 -0.9961 -8.848991e-02 583.3124 -323.87)" fill="#DBE3E5" width="90.4" height="120.6"/>
		<polygon fill="#175079" points="383.6,138.1 390.3,62.4 496.1,71.8 489.3,147.5 		"/>
		<polygon fill="#4B7797" points="383.6,138.1 496.1,71.8 489.3,147.5 		"/>
	</g>
	<g>
		
			<rect x="236.6" y="4.8" transform="matrix(-9.670053e-02 0.9953 -0.9953 -9.670053e-02 373.9045 -209.078)" fill="#DBE3E5" width="90.4" height="120.6"/>
		
			<rect x="243.8" y="12.1" transform="matrix(-9.668130e-02 0.9953 -0.9953 -9.668130e-02 373.8951 -209.0803)" fill="#8FC1E1" width="76" height="106.1"/>
		<polygon fill="#BCDAED" points="225.3,97.8 338.3,32.4 331,108.1 		"/>
	</g>
	<g>
		<g>
			<g>
				<path fill="#30363D" d="M410,11.8l-14.5,4L374.1,0l-50.3,13.9l-10.3,24.6L261.1,53c-6.1,1.7-9.7,8.1-8.1,14.2l26.9,97.4
					c1.7,6.2,8.1,9.8,14.2,8.1l148.9-41.2c6.1-1.7,9.7-8.1,8-14.2l-26.9-97.4C422.5,13.7,416.2,10.1,410,11.8z"/>
				<path fill="#5A6374" d="M410.9,76c6.1,22-6.8,44.8-28.8,50.9c-22,6.1-44.8-6.8-50.9-28.8c-6.1-22,6.8-44.8,28.8-50.9
					C382,41.1,404.8,54,410.9,76z"/>
				<path fill="#30363D" d="M405.5,77.5c5.3,19-5.9,38.7-24.9,44c-19,5.3-38.7-5.9-44-24.9c-5.3-19,5.9-38.7,24.9-44
					C380.6,47.3,400.3,58.4,405.5,77.5z"/>
				<path fill="#90ABBF" d="M396.7,79.9c3.9,14.1-4.4,28.8-18.5,32.7c-14.1,3.9-28.8-4.4-32.7-18.5c-3.9-14.1,4.4-28.8,18.5-32.7
					C378.1,57.5,392.8,65.8,396.7,79.9z"/>
				<path fill="#FFFFFF" d="M369.5,76.2c1.4,5-1.6,10.2-6.6,11.6c-5,1.4-10.2-1.6-11.6-6.6c-1.4-5,1.6-10.2,6.6-11.6
					C362.9,68.3,368.1,71.2,369.5,76.2z"/>
				<path fill="#FFFFFF" d="M360.1,94c0.8,2.8-0.9,5.7-3.7,6.5c-2.8,0.8-5.7-0.9-6.5-3.7c-0.8-2.8,0.9-5.7,3.7-6.5
					C356.4,89.5,359.3,91.2,360.1,94z"/>
				<path fill="#484F5A" d="M267.3,59.5c-4.3,1.2-8.6-0.2-11.5-3.2c-2.6,2.8-3.8,6.9-2.7,10.9l26.9,97.4c1.7,6.2,8.1,9.8,14.2,8.1
					l31.2-8.6L294.4,52L267.3,59.5z"/>
				<path fill="#484F5A" d="M292.3,44.2c0.5,1.8-0.6,3.6-2.3,4.1l-21.8,6c-1.8,0.5-3.6-0.5-4.1-2.3l-0.4-1.6
					c-0.5-1.8,0.6-3.6,2.3-4.1l21.8-6c1.8-0.5,3.6,0.6,4.1,2.3L292.3,44.2z"/>
				<path fill="#FFFFFF" d="M376.6,14.3c0.5,1.8-0.6,3.7-2.4,4.3l-41.7,11.5c-1.8,0.5-3.8-0.6-4.3-2.4l-1.8-6.7
					c-0.5-1.8,0.6-3.7,2.4-4.3l41.7-11.5c1.8-0.5,3.7,0.6,4.3,2.4L376.6,14.3z"/>
			</g>
		</g>
	</g>
	<g>
		<g>
			<g>
				<path fill="#CDD5D7" d="M389.3,153.6l-124.6,65.1c-1.5,0.8-2,2.6-1.3,4.1l10.5,20.1c0.8,1.5,2.6,2,4.1,1.3L402.6,179
					c1.5-0.8,2-2.6,1.3-4.1l-10.5-20.1C392.6,153.4,390.8,152.8,389.3,153.6z M277.4,230.2c-0.8,0.4-1.9,0.1-2.3-0.7
					c-0.4-0.8-0.1-1.9,0.7-2.3c0.8-0.4,1.8-0.1,2.3,0.7C278.5,228.7,278.2,229.7,277.4,230.2z"/>
				<path fill="#807F7F" d="M275.2,225.9c-1.5,0.8-2.1,2.7-1.3,4.2c0.8,1.5,2.6,2.1,4.2,1.3c1.5-0.8,2.1-2.7,1.3-4.2
					C278.5,225.7,276.7,225.2,275.2,225.9z M277.4,230.2c-0.8,0.4-1.9,0.1-2.3-0.7c-0.4-0.8-0.1-1.9,0.7-2.3
					c0.8-0.4,1.8-0.1,2.3,0.7C278.5,228.7,278.2,229.7,277.4,230.2z"/>
			</g>
			<g>
				<path fill="#C1C7CA" d="M390.6,154.6L265.7,219c-1.5,0.8-2.1,2.6-1.3,4l10.4,20.1c0.8,1.5,2.6,2,4,1.3l124.9-64.4
					c1.5-0.8,2.1-2.6,1.3-4l-10.4-20.1C393.9,154.4,392.1,153.8,390.6,154.6z M278.2,230.6c-0.8,0.4-1.9,0.1-2.3-0.7
					c-0.4-0.8-0.1-1.9,0.7-2.3c0.8-0.4,1.8-0.1,2.3,0.7C279.4,229.1,279.1,230.1,278.2,230.6z"/>
				<polygon fill="#F5F1F0" points="384.9,189.8 404.1,179.9 391,154.4 371.8,164.3 				"/>
				<polygon fill="#DBE3E5" points="365.9,199.6 385.1,189.7 371.9,164.2 352.8,174.1 				"/>
				
					<rect x="339.1" y="177.4" transform="matrix(-0.8888 0.4582 -0.4582 -0.8888 748.7274 201.7926)" fill="#CDD5D7" width="21.6" height="28.6"/>
				<polygon fill="#C1C7CA" points="327.8,219.2 347,209.3 333.9,183.9 314.7,193.7 				"/>
				<polygon fill="#A9AFB1" points="308.8,229 328,219.1 314.9,193.7 295.7,203.5 				"/>
				
					<rect x="282" y="206.8" transform="matrix(-0.8888 0.4582 -0.4582 -0.8888 654.389 283.5372)" fill="#8D9293" width="21.6" height="28.6"/>
				<path fill="#989897" d="M276.1,226.3c-1.5,0.8-2.1,2.6-1.3,4.2c0.8,1.5,2.6,2.1,4.1,1.3c1.5-0.8,2.1-2.6,1.3-4.1
					C279.4,226.1,277.6,225.5,276.1,226.3z M278.2,230.6c-0.8,0.4-1.9,0.1-2.3-0.7c-0.4-0.8-0.1-1.9,0.7-2.3
					c0.8-0.4,1.8-0.1,2.3,0.7C279.4,229.1,279.1,230.1,278.2,230.6z"/>
			</g>
			<g>
				<path fill="#CDD5D7" d="M398,167.7l-131.3,50.2c-1.6,0.6-2.3,2.3-1.7,3.9l8.1,21.1c0.6,1.6,2.3,2.3,3.9,1.7l131.3-50.2
					c1.6-0.6,2.3-2.3,1.7-3.9l-8.1-21.1C401.3,167.9,399.5,167.1,398,167.7z M277.9,230.8c-0.9,0.3-1.9-0.1-2.2-1
					c-0.3-0.9,0.1-1.9,1-2.2c0.9-0.3,1.9,0.1,2.2,1C279.2,229.5,278.8,230.4,277.9,230.8z"/>
				<polygon fill="#9EAECB" points="388.4,202 408.6,194.3 398.3,167.6 378.2,175.3 				"/>
				<polygon fill="#8A98B1" points="368.4,209.7 388.6,202 378.4,175.2 358.2,182.9 				"/>
				<polygon fill="#758097" points="348.4,217.3 368.6,209.6 358.4,182.9 338.2,190.6 				"/>
				<polygon fill="#5A6374" points="328.5,225 348.6,217.3 338.4,190.5 318.2,198.2 				"/>
				<polygon fill="#484F5A" points="308.5,232.6 328.6,224.9 318.4,198.1 298.2,205.9 				"/>
				<polygon fill="#30363D" points="288.5,240.3 308.6,232.6 298.4,205.8 278.2,213.5 				"/>
				<path fill="#807F7F" d="M276.2,226.3c-1.6,0.6-2.4,2.4-1.8,4c0.6,1.6,2.4,2.4,4,1.8c1.6-0.6,2.4-2.4,1.8-4
					C279.6,226.5,277.8,225.7,276.2,226.3z M277.9,230.8c-0.9,0.3-1.9-0.1-2.2-1c-0.3-0.9,0.1-1.9,1-2.2c0.9-0.3,1.9,0.1,2.2,1
					C279.2,229.5,278.8,230.4,277.9,230.8z"/>
			</g>
			<g>
				<path fill="#DBE3E5" d="M407.4,191.6l-138.4,24.5c-1.6,0.3-2.7,1.8-2.4,3.5l3.9,22.3c0.3,1.6,1.9,2.7,3.5,2.4l138.4-24.5
					c1.6-0.3,2.7-1.9,2.4-3.5l-3.9-22.3C410.6,192.4,409.1,191.3,407.4,191.6z M277.6,230.9c-0.9,0.2-1.8-0.5-2-1.4
					c-0.2-0.9,0.4-1.8,1.4-2c0.9-0.2,1.8,0.5,2,1.4C279.1,229.8,278.5,230.7,277.6,230.9z"/>
				
					<rect x="388.9" y="193.2" transform="matrix(-0.9847 0.1745 -0.1745 -0.9847 829.4783 342.1888)" fill="#C2D1DC" width="21.6" height="28.6"/>
				<polygon fill="#A5BBCB" points="370.5,227.3 391.7,223.5 386.7,195.3 365.5,199.1 				"/>
				
					<rect x="346.8" y="200.7" transform="matrix(-0.9847 0.1742 -0.1742 -0.9847 747.0672 364.4498)" fill="#7C9CB3" width="21.6" height="28.6"/>
				<polygon fill="#57809E" points="328.3,234.7 349.6,231 344.6,202.8 323.3,206.5 				"/>
				<polygon fill="#36688B" points="307.3,238.5 328.5,234.7 323.5,206.5 302.3,210.3 				"/>
				<polygon fill="#175079" points="286.2,242.2 307.4,238.4 302.4,210.2 281.2,214 				"/>
				<path fill="#8A8A8A" d="M276.8,226.2c-1.7,0.3-2.8,1.9-2.5,3.6c0.3,1.7,1.9,2.8,3.6,2.5c1.7-0.3,2.8-1.9,2.5-3.6
					C280,227,278.4,225.9,276.8,226.2z M277.6,230.9c-0.9,0.2-1.8-0.5-2-1.4c-0.2-0.9,0.4-1.8,1.4-2c0.9-0.2,1.8,0.5,2,1.4
					C279.1,229.8,278.5,230.7,277.6,230.9z"/>
			</g>
			<g>
				<path fill="#F5F1F0" d="M412.5,233.7l-139.2-19.6c-1.6-0.2-3.2,0.9-3.4,2.6l-3.2,22.4c-0.2,1.6,0.9,3.2,2.6,3.4l139.2,19.6
					c1.6,0.2,3.2-0.9,3.4-2.6l3.2-22.4C415.2,235.5,414.1,233.9,412.5,233.7z M276.9,230.8c-0.9-0.1-1.6-1-1.4-1.9
					c0.1-0.9,1-1.6,1.9-1.4c0.9,0.1,1.6,1,1.4,1.9C278.6,230.3,277.8,230.9,276.9,230.8z"/>
				<polygon fill="#B0D3EA" points="387.5,259.1 408.9,262.1 412.8,233.7 391.5,230.8 				"/>
				<polygon fill="#A3CCE7" points="366.3,256.1 387.7,259.1 391.6,230.8 370.3,227.8 				"/>
				
					<rect x="347" y="226.2" transform="matrix(-0.9903 -0.1391 0.1391 -0.9903 678.6157 528.3872)" fill="#7DB7DD" width="21.6" height="28.6"/>
				
					<rect x="325.8" y="223.2" transform="matrix(-0.9903 -0.1391 0.1391 -0.9903 636.8361 519.5165)" fill="#58A2D3" width="21.6" height="28.6"/>
				<polygon fill="#2E8BC8" points="302.7,247.2 324.1,250.2 328,221.8 306.7,218.8 				"/>
				
					<rect x="283.4" y="217.2" transform="matrix(-0.9903 -0.1391 0.1391 -0.9903 553.2797 501.7528)" fill="#0072BC" width="21.6" height="28.6"/>
				<path fill="#989897" d="M277.5,226.1c-1.7-0.2-3.2,0.9-3.5,2.6c-0.2,1.7,0.9,3.2,2.6,3.5c1.7,0.2,3.2-0.9,3.5-2.6
					C280.4,227.9,279.2,226.3,277.5,226.1z M276.9,230.8c-0.9-0.1-1.6-1-1.4-1.9c0.1-0.9,1-1.6,1.9-1.4c0.9,0.1,1.6,1,1.4,1.9
					C278.6,230.3,277.8,230.9,276.9,230.8z"/>
			</g>
		</g>
	</g>
</g>
<g>
	<g>
		<g>
			<path fill="#30363D" d="M-361.9,171.8c-2.7,10.9-5.3,21.9-8,32.8c24.9,0,49.9,0,74.8,0c-2.7-10.9-5.3-21.9-8-32.8
				C-322.7,171.8-342.3,171.8-361.9,171.8z"/>
			<path fill="#484F5A" d="M-290.4,203.9h-84.1c-2.1,0-3.9,1.1-3.9,2.4v0.9h91.8v-0.9C-286.6,204.9-288.3,203.9-290.4,203.9z"/>
			<path fill="#484F5A" d="M-458.9,159v18.1c0,3.5,2.8,6.3,6.3,6.3h240.2c3.5,0,6.3-2.8,6.3-6.3V159H-458.9z"/>
			<path fill="#30363D" d="M-206.1,159V6.1c0-3.5-2.8-6.3-6.3-6.3h-240.2c-3.5,0-6.3,2.8-6.3,6.3V159H-206.1z"/>
			<rect x="-448.5" y="9.6" fill="#FFFFFF" width="232.1" height="139"/>
		</g>
		<g>
			<rect x="-434.8" y="47.9" fill="#0072BC" width="63" height="32.8"/>
			<rect x="-364" y="47.9" fill="#174F78" width="63" height="32.8"/>
			<rect x="-293.1" y="47.9" fill="#8FC1E1" width="63" height="32.8"/>
			<g>
				<rect x="-417.5" y="28.3" fill="#CDD5D7" width="41.9" height="4.6"/>
				<circle fill="#CDD5D7" cx="-428.9" cy="30.5" r="5.9"/>
			</g>
			<rect x="-251" y="29.6" fill="#CDD5D7" width="20.9" height="1.9"/>
			<rect x="-274.4" y="29.6" fill="#CDD5D7" width="20.9" height="1.9"/>
			<rect x="-297.8" y="29.6" fill="#CDD5D7" width="20.8" height="1.9"/>
			<rect x="-321.2" y="29.6" fill="#CDD5D7" width="20.9" height="1.9"/>
			<rect x="-344.6" y="29.6" fill="#CDD5D7" width="20.8" height="1.9"/>
			<g>
				<rect x="-434.8" y="101.3" fill="#CDD5D7" width="63" height="1.9"/>
				<rect x="-434.8" y="107.7" fill="#CDD5D7" width="63" height="1.8"/>
				<rect x="-434.8" y="114" fill="#CDD5D7" width="63" height="1.9"/>
				<rect x="-434.8" y="120.4" fill="#CDD5D7" width="63" height="1.9"/>
				<rect x="-434.8" y="126.8" fill="#CDD5D7" width="44.9" height="1.9"/>
				<rect x="-434.8" y="90.6" fill="#CDD5D7" width="41.9" height="4.6"/>
			</g>
			<g>
				<rect x="-364" y="101.3" fill="#CDD5D7" width="63" height="1.9"/>
				<rect x="-364" y="107.7" fill="#CDD5D7" width="63" height="1.8"/>
				<rect x="-364" y="114" fill="#CDD5D7" width="63" height="1.9"/>
				<rect x="-364" y="120.4" fill="#CDD5D7" width="63" height="1.9"/>
				<rect x="-364" y="126.8" fill="#CDD5D7" width="44.9" height="1.9"/>
				<rect x="-364" y="90.6" fill="#CDD5D7" width="41.9" height="4.6"/>
			</g>
			<g>
				<rect x="-293.1" y="101.3" fill="#CDD5D7" width="63" height="1.9"/>
				<rect x="-293.1" y="107.7" fill="#CDD5D7" width="63" height="1.8"/>
				<rect x="-293.1" y="114" fill="#CDD5D7" width="63" height="1.9"/>
				<rect x="-293.1" y="120.4" fill="#CDD5D7" width="63" height="1.9"/>
				<rect x="-293.1" y="126.8" fill="#CDD5D7" width="44.9" height="1.9"/>
				<rect x="-293.1" y="90.6" fill="#CDD5D7" width="41.9" height="4.6"/>
			</g>
		</g>
	</g>
	<g>
		<g>
			<g>
				<path fill="#565E6A" d="M-134.9,119.4h-31c-3.8,0-6.8,3-6.8,6.8v74.2c0,3.8,3,6.8,6.8,6.8h31c3.8,0,6.8-3,6.8-6.8v-74.2
					C-128.1,122.4-131.1,119.4-134.9,119.4z"/>
				<path fill="#FFFFFF" d="M-156.2,124.6h11.7c0.3,0,0.6,0.3,0.6,0.6c0,0.3-0.3,0.6-0.6,0.6h-11.7c-0.3,0-0.6-0.3-0.6-0.6
					C-156.8,124.9-156.6,124.6-156.2,124.6z"/>
				<rect x="-169.7" y="130.3" fill="#FFFFFF" width="38.6" height="63.7"/>
			</g>
			<g>
				<rect x="-167.5" y="142.7" fill="#0072BC" width="34.2" height="17.6"/>
				<g>
					<rect x="-158.1" y="135.1" fill="#CDD5D7" width="24.7" height="2.5"/>
					<path fill="#CDD5D7" d="M-161.1,136.4c0,1.8-1.4,3.2-3.2,3.2c-1.8,0-3.2-1.4-3.2-3.2c0-1.8,1.4-3.2,3.2-3.2
						C-162.5,133.2-161.1,134.6-161.1,136.4z"/>
				</g>
				<g>
					<rect x="-167.5" y="171.6" fill="#CDD5D7" width="34.2" height="1"/>
					<rect x="-167.5" y="183.1" fill="#CDD5D7" width="34.2" height="1"/>
					<rect x="-167.5" y="186.6" fill="#CDD5D7" width="34.2" height="1"/>
					<rect x="-167.5" y="190" fill="#CDD5D7" width="24.8" height="1"/>
					<rect x="-167.5" y="164.8" fill="#CDD5D7" width="22.8" height="2.5"/>
					<rect x="-167.5" y="179.1" fill="#CDD5D7" width="34.2" height="1"/>
					<rect x="-167.5" y="175" fill="#CDD5D7" width="34.2" height="1"/>
				</g>
			</g>
		</g>
		<circle fill="#DAE1DB" cx="-150.5" cy="200.5" r="3.1"/>
	</g>
	<g>
		<path opacity="0.3" fill="#231F20" d="M-411.2,83.5v99.9h-47.7V76.4h40.7C-414.3,76.4-411.2,79.6-411.2,83.5z"/>
		<g>
			<g>
				<g>
					<path fill="#30363D" d="M-595.2,199.9c-1.2,0-2.3-0.5-3.1-1.3c-0.8-0.8-1.3-2-1.3-3.1l0-110.3c0-1.2,0.5-2.3,1.3-3.1
						c0.8-0.8,2-1.3,3.1-1.3h174.5c1.2,0,2.3,0.5,3.1,1.3c0.8,0.8,1.3,2,1.3,3.1v110.3c0,1.2-0.5,2.3-1.3,3.1
						c-0.8,0.8-2,1.3-3.1,1.3H-595.2z"/>
					<path fill="#30363D" d="M-417.5,81.9c-0.9-0.9-2-1.3-3.2-1.3h-174.5c-1.2,0-2.3,0.5-3.2,1.3c-0.9,0.9-1.3,2-1.3,3.2l0,110.3
						c0,1.2,0.5,2.3,1.3,3.2c0.9,0.9,2,1.3,3.2,1.3h174.5c1.2,0,2.3-0.5,3.2-1.3c0.9-0.9,1.3-2,1.3-3.2V85.1
						C-416.2,83.9-416.6,82.8-417.5,81.9z M-416.4,195.4c0,1.2-0.5,2.2-1.3,3.1c-0.8,0.8-1.9,1.3-3.1,1.3h-174.5
						c-1.2,0-2.2-0.5-3.1-1.3c-0.8-0.8-1.3-1.9-1.3-3.1l0-110.3c0-1.2,0.5-2.2,1.3-3.1c0.8-0.8,1.9-1.3,3.1-1.3h174.5
						c1.2,0,2.2,0.5,3.1,1.3c0.8,0.8,1.3,1.9,1.3,3.1V195.4z"/>
				</g>
			</g>
		</g>
		<g>
			<g>
				<rect x="-591.6" y="88.6" fill="#FFFFFF" width="167.5" height="110.3"/>
			</g>
		</g>
		<path fill="#565E6A" d="M-393.9,195.9c0-0.6-2.2-0.9-2.7-0.9h-8.2h-1.4h-213c-0.6,0-2.7,0.3-2.7,0.9v8.1h0c3,3.7,5.4,2.9,7,3.1
			h16.7l2.5,0v0l87.8,0l90.3,0h16.7c1.6-0.2,4,0.6,7-3.1h0c0-0.1,0-0.2,0-0.3L-393.9,195.9L-393.9,195.9z"/>
		<g>
			<rect x="-587.9" y="110.7" fill="#0072BC" width="48.9" height="25.5"/>
			<rect x="-532.9" y="110.7" fill="#174F78" width="48.9" height="25.5"/>
			<rect x="-478" y="110.7" fill="#8FC1E1" width="48.9" height="25.5"/>
			<rect x="-587.9" y="143.5" fill="#0072BC" width="48.9" height="5.4"/>
			<rect x="-532.9" y="143.5" fill="#174F78" width="48.9" height="5.4"/>
			<rect x="-478" y="143.5" fill="#8FC1E1" width="48.9" height="5.4"/>
			<g>
				<rect x="-574.5" y="95.5" fill="#CDD5D7" width="32.5" height="3.5"/>
				<circle fill="#CDD5D7" cx="-583.3" cy="97.3" r="4.6"/>
			</g>
			<rect x="-445.3" y="96.6" fill="#CDD5D7" width="16.2" height="1.4"/>
			<rect x="-463.4" y="96.6" fill="#CDD5D7" width="16.2" height="1.4"/>
			<rect x="-481.6" y="96.6" fill="#CDD5D7" width="16.2" height="1.4"/>
			<rect x="-499.7" y="96.6" fill="#CDD5D7" width="16.2" height="1.4"/>
			<rect x="-517.9" y="96.6" fill="#CDD5D7" width="16.2" height="1.4"/>
			<g>
				<rect x="-587.9" y="163.1" fill="#CDD5D7" width="48.9" height="1.4"/>
				<rect x="-587.9" y="168.1" fill="#CDD5D7" width="48.9" height="1.4"/>
				<rect x="-587.9" y="173" fill="#CDD5D7" width="48.9" height="1.4"/>
				<rect x="-587.9" y="178" fill="#CDD5D7" width="48.9" height="1.4"/>
				<rect x="-587.9" y="182.9" fill="#CDD5D7" width="34.9" height="1.4"/>
				<rect x="-587.9" y="154.8" fill="#CDD5D7" width="32.5" height="3.5"/>
			</g>
			<g>
				<rect x="-532.9" y="163.1" fill="#CDD5D7" width="48.9" height="1.4"/>
				<rect x="-532.9" y="168.1" fill="#CDD5D7" width="48.9" height="1.4"/>
				<rect x="-532.9" y="173" fill="#CDD5D7" width="48.9" height="1.4"/>
				<rect x="-532.9" y="178" fill="#CDD5D7" width="48.9" height="1.4"/>
				<rect x="-532.9" y="182.9" fill="#CDD5D7" width="34.9" height="1.4"/>
				<rect x="-532.9" y="154.8" fill="#CDD5D7" width="32.5" height="3.5"/>
			</g>
			<g>
				<rect x="-478" y="163.1" fill="#CDD5D7" width="48.9" height="1.4"/>
				<rect x="-478" y="168.1" fill="#CDD5D7" width="48.9" height="1.4"/>
				<rect x="-478" y="173" fill="#CDD5D7" width="48.9" height="1.4"/>
				<rect x="-478" y="178" fill="#CDD5D7" width="48.9" height="1.4"/>
				<rect x="-478" y="182.9" fill="#CDD5D7" width="34.9" height="1.4"/>
				<rect x="-478" y="154.8" fill="#CDD5D7" width="32.5" height="3.5"/>
			</g>
		</g>
		<g>
			<g>
				<g>
					<path fill="#DAE1DB" d="M-410.1,199.9c0,0.1-0.1,0.3-0.2,0.3h-6.7c-0.1,0-0.2-0.1-0.2-0.3c0-0.1,0.1-0.3,0.2-0.3h6.7
						C-410.2,199.7-410.1,199.8-410.1,199.9z"/>
				</g>
			</g>
			<g>
				<g>
					<path fill="#DAE1DB" d="M-403.3,199c0.5,0,1,0.4,1,1c0,0.5-0.4,1-1,1c-0.5,0-1-0.4-1-1C-404.3,199.4-403.8,199-403.3,199z"/>
				</g>
				<g>
					<path fill="#DAE1DB" d="M-406.1,199c0.5,0,1,0.4,1,1c0,0.5-0.4,1-1,1s-1-0.4-1-1C-407.1,199.4-406.7,199-406.1,199z"/>
				</g>
			</g>
		</g>
		<g>
			<g>
				<path fill="#DAE1DB" d="M-614.3,201.3c0,0.2-0.1,0.3-0.3,0.3h-0.1c-0.2,0-0.3-0.1-0.3-0.3v-2.8c0-0.2,0.1-0.3,0.3-0.3h0.1
					c0.2,0,0.3,0.1,0.3,0.3V201.3z"/>
			</g>
			<g>
				<path fill="#DAE1DB" d="M-612.8,201.3c0,0.2-0.1,0.3-0.3,0.3h-0.1c-0.2,0-0.3-0.1-0.3-0.3v-2.8c0-0.2,0.1-0.3,0.3-0.3h0.1
					c0.2,0,0.3,0.1,0.3,0.3V201.3z"/>
			</g>
			<g>
				<path fill="#DAE1DB" d="M-611.2,201.3c0,0.2-0.1,0.3-0.3,0.3h-0.1c-0.2,0-0.3-0.1-0.3-0.3v-2.8c0-0.2,0.1-0.3,0.3-0.3h0.1
					c0.2,0,0.3,0.1,0.3,0.3V201.3z"/>
			</g>
			<g>
				<path fill="#DAE1DB" d="M-609.7,201.3c0,0.2-0.1,0.3-0.3,0.3h-0.1c-0.2,0-0.3-0.1-0.3-0.3v-2.8c0-0.2,0.1-0.3,0.3-0.3h0.1
					c0.2,0,0.3,0.1,0.3,0.3V201.3z"/>
			</g>
		</g>
	</g>
	<path opacity="0.3" fill="#231F20" d="M-261.9,91.6v96.5h55.8V84.6h-48.8C-258.7,84.6-261.9,87.8-261.9,91.6z"/>
	<g>
		<g>
			<path fill="#565E6A" d="M-186.6,90.1h-80c-3.2,0-5.8,2.6-5.8,5.8v105.4c0,3.2,2.6,5.8,5.8,5.8h80c3.2,0,5.8-2.6,5.8-5.8V95.9
				C-180.7,92.7-183.4,90.1-186.6,90.1z"/>
			<rect x="-262" y="101.4" fill="#FFFFFF" width="70.9" height="94.4"/>
		</g>
		<g>
			<g>
				<rect x="-234.3" y="110.1" fill="#CDD5D7" width="26.1" height="2.8"/>
				<path fill="#CDD5D7" d="M-237.7,111.5c0,2-1.6,3.7-3.7,3.7c-2,0-3.7-1.7-3.7-3.7c0-2,1.7-3.7,3.7-3.7
					C-239.4,107.8-237.7,109.5-237.7,111.5z"/>
			</g>
			<g>
				<rect x="-208.7" y="121.4" fill="#CDD5D7" width="10.3" height="1.4"/>
				<rect x="-220.2" y="121.4" fill="#CDD5D7" width="10.3" height="1.4"/>
				<rect x="-231.8" y="121.4" fill="#CDD5D7" width="10.3" height="1.4"/>
				<rect x="-243.3" y="121.4" fill="#CDD5D7" width="10.3" height="1.4"/>
				<rect x="-254.9" y="121.4" fill="#CDD5D7" width="10.3" height="1.4"/>
			</g>
			<g>
				<rect x="-258.4" y="128" fill="#0072BC" width="30" height="24.7"/>
				<rect x="-224.8" y="128" fill="#174F78" width="30" height="24.7"/>
				<g>
					<rect x="-258.4" y="168.2" fill="#CDD5D7" width="30" height="1.4"/>
					<rect x="-258.4" y="173" fill="#CDD5D7" width="30" height="1.4"/>
					<rect x="-258.4" y="177.7" fill="#CDD5D7" width="30" height="1.4"/>
					<rect x="-258.4" y="182.5" fill="#CDD5D7" width="30" height="1.4"/>
					<rect x="-258.4" y="187.3" fill="#CDD5D7" width="21.4" height="1.4"/>
					<rect x="-258.4" y="160.1" fill="#CDD5D7" width="19.9" height="3.4"/>
				</g>
				<g>
					<rect x="-224.8" y="168.2" fill="#CDD5D7" width="30" height="1.4"/>
					<rect x="-224.8" y="173" fill="#CDD5D7" width="30" height="1.4"/>
					<rect x="-224.8" y="177.7" fill="#CDD5D7" width="30" height="1.4"/>
					<rect x="-224.8" y="182.5" fill="#CDD5D7" width="30" height="1.4"/>
					<rect x="-224.8" y="187.3" fill="#CDD5D7" width="21.4" height="1.4"/>
					<rect x="-224.8" y="160.1" fill="#CDD5D7" width="19.9" height="3.4"/>
				</g>
			</g>
		</g>
	</g>
	<circle fill="#DAE1DB" cx="-226.6" cy="201.2" r="3.1"/>
</g>
<rect x="-1268.2" y="121.9" fill="#7496AE" width="14.1" height="14.1"/>
<rect x="-1268.2" y="141.4" fill="#7496AE" width="14.1" height="14.1"/>
<rect x="-1268.2" y="160.8" fill="#7496AE" width="14.1" height="14.1"/>
<rect x="-1268.2" y="119.5" fill="#80B8DD" width="14.1" height="14.1"/>
<rect x="-1268.2" y="139" fill="#80B8DD" width="14.1" height="14.1"/>
<rect x="-1268.2" y="158.4" fill="#80B8DD" width="14.1" height="14.1"/>
<rect x="-1287.2" y="121.9" fill="#7496AE" width="14.1" height="14.1"/>
<rect x="-1287.2" y="141.4" fill="#7496AE" width="14.1" height="14.1"/>
<rect x="-1287.2" y="160.8" fill="#7496AE" width="14.1" height="14.1"/>
<rect x="-1287.2" y="119.5" fill="#80B8DD" width="14.1" height="14.1"/>
<rect x="-1287.2" y="139" fill="#80B8DD" width="14.1" height="14.1"/>
<rect x="-1287.2" y="158.4" fill="#80B8DD" width="14.1" height="14.1"/>
</svg>
