<?xml version="1.0" encoding="utf-8"?>
<!-- Generator: Adobe Illustrator 18.1.1, SVG Export Plug-In . SVG Version: 6.00 Build 0)  -->
<svg version="1.1" id="Layer_1" xmlns="http://www.w3.org/2000/svg" xmlns:xlink="http://www.w3.org/1999/xlink" x="0px" y="0px"
	 viewBox="0 0 494 207.3" enable-background="new 0 0 494 207.3" xml:space="preserve">
<g>
	<g>
		<g>
			<path fill="#929497" d="M-544.1,79.6v3.1h-0.1c-7.4,0.1-13.5,5.7-14.4,12.9h-3.1c0.9-8.9,8.4-15.9,17.5-16H-544.1z"/>
		</g>
		<g>
			<path fill="#929497" d="M-544.2,82.7h35.4c5.8,0,10.5-4.7,10.5-10.5c0-5.8-4.7-10.5-10.5-10.5l-85,0v3.1l85,0
				c4.1,0,7.4,3.3,7.4,7.4c0,4.1-3.3,7.4-7.4,7.4h-35.4V82.7L-544.2,82.7z"/>
		</g>
		<g>
			<path fill="#929497" d="M-593.8,64.8c-5.8,0-10.5-4.7-10.5-10.5c0-5.8,4.7-10.5,10.5-10.5h165.4V47h-165.4
				c-4.1,0-7.4,3.3-7.4,7.4c0,4.1,3.3,7.4,7.4,7.4"/>
		</g>
	</g>
	<g>
		<path fill="#D9DFDA" d="M-349.7,113.2l20.1-18l8.5-7.6l-77.2-86.4c-3.9,4.5-4.9,10.4-2.4,14.3c-2.6-4-1.6-9.9,2.4-14.4l-34.9-1.8
			l-1,17.1v0l-1.1,17.8c0,0,0,0,0,0l77.2,86.4L-349.7,113.2z M-433.2,33.1c4.4-2.2,9.2-2.1,12.4,0.5C-424,31-428.8,30.9-433.2,33.1z
			 M-434.8,34c0.4-0.3,0.9-0.6,1.3-0.8C-434,33.4-434.4,33.7-434.8,34z"/>
		<polygon fill="#D9DFDA" points="-321.1,87.8 -329.5,95.4 -349.6,113.4 -358.1,120.9 -350.3,129.6 -341.9,122 -321.8,104.1 
			-313.3,96.5 		"/>
	</g>
	<g>
		<path fill="#627590" d="M-237.2,173.3l-25.7-25.7c-2.4-2.4-2.4-6.2,0-8.6l88.8-88.8c2.4-2.4,6.2-2.4,8.6,0l25.7,25.7
			c2.4,2.4,2.4,6.2,0,8.6l-88.8,88.8C-231,175.6-234.8,175.6-237.2,173.3z M-159.1,69.5c-2.1-2.1-5.4-2.1-7.5,0
			c-2.1,2.1-2.1,5.4,0,7.5c2.1,2.1,5.4,2.1,7.5,0C-157,74.9-157,71.6-159.1,69.5z"/>
		<path fill="#8F9FB9" d="M-256.8,153.7l-6.1-6c-2.4-2.4-2.4-6.2,0-8.6l88.8-88.8c2.4-2.4,6.2-2.4,8.6,0l6.1,6.1L-256.8,153.7z"/>
		<g>
			<g>
				<polygon fill="#0F3754" points="-170.7,61.1 -177.8,54 -176.8,52.9 -169.6,60.1 -170.7,61.1 				"/>
			</g>
			<g>
				<polygon fill="#0F3754" points="-178.1,68.5 -185.2,61.4 -184.1,60.3 -177,67.4 -178.1,68.5 				"/>
			</g>
			<g>
				<polygon fill="#0F3754" points="-185.4,75.8 -192.5,68.7 -191.5,67.6 -184.4,74.8 -185.4,75.8 				"/>
			</g>
			<g>
				<polygon fill="#0F3754" points="-192.8,83.2 -199.9,76.1 -198.8,75 -191.7,82.1 -192.8,83.2 				"/>
			</g>
			<g>
				<polygon fill="#0F3754" points="-200.1,90.5 -207.3,83.4 -206.2,82.3 -199.1,89.5 -200.1,90.5 				"/>
			</g>
			<g>
				<polygon fill="#0F3754" points="-207.5,97.9 -214.6,90.8 -213.5,89.7 -206.4,96.8 -207.5,97.9 				"/>
			</g>
			<g>
				<polygon fill="#0F3754" points="-214.8,105.3 -222,98.1 -220.9,97.1 -213.8,104.2 -214.8,105.3 				"/>
			</g>
			<g>
				<polygon fill="#0F3754" points="-222.2,112.6 -229.3,105.5 -228.3,104.4 -221.1,111.5 -222.2,112.6 				"/>
			</g>
			<g>
				<polygon fill="#0F3754" points="-229.5,120 -236.7,112.8 -235.6,111.8 -228.5,118.9 -229.5,120 				"/>
			</g>
			<g>
				<polygon fill="#0F3754" points="-236.9,127.3 -244,120.2 -243,119.1 -235.8,126.2 -236.9,127.3 				"/>
			</g>
			<g>
				<polygon fill="#0F3754" points="-244.3,134.7 -251.4,127.5 -250.3,126.5 -243.2,133.6 -244.3,134.7 				"/>
			</g>
			<g>
				<polygon fill="#0F3754" points="-251.6,142 -258.7,134.9 -257.7,133.8 -250.5,141 -251.6,142 				"/>
			</g>
		</g>
	</g>
	<g>
		<polygon fill="#DAE1DB" points="-194,211 -194,80 -194,14.3 -241.1,-32.7 -372.4,-32.7 -372.4,15.9 -372.4,80 -372.4,211 		"/>
		<g>
			<polygon fill="#DAE1DB" points="-241.1,14.3 -194,14.3 -241.1,-32.7 			"/>
			<polygon fill="#DAE1DB" points="-194,14.3 -241.1,14.3 -194,61.4 			"/>
		</g>
	</g>
	<g>
		<path fill="#0F3754" d="M-357.7,127.6l-82-82c4.7-3.7,10.6-4.3,14.5-1.6l75.5,75.5L-357.7,127.6z"/>
		<path fill="#174F78" d="M-330.6,100.5l-19.1,19.1L-425.2,44l0,0c0,0,0-0.1-0.1-0.1c0,0,0.1,0.1,0.1,0.1
			c-3.1-4.3-1.9-11.2,2.9-16.1c4.9-4.9,11.8-6,16.1-2.9c0,0-0.1-0.1-0.1-0.1c0,0,0.1,0,0.1,0.1l0,0L-330.6,100.5z"/>
		<path fill="#0F3754" d="M-406.1,25c-2.8-3.8-2.1-9.7,1.6-14.5l82,82l-8,8L-406.1,25z"/>
		<path fill="#C0E0DE" d="M-404.5,10.5c-3.7,4.7-4.4,10.7-1.6,14.5l0,0c0,0-0.1,0-0.1-0.1c0,0,0.1,0.1,0.1,0.1
			c-4.3-3.1-11.2-2-16.1,2.9c-4.9,4.9-6,11.8-2.9,16.1c0,0-0.1-0.1-0.1-0.1c0,0,0,0.1,0.1,0.1l0,0c-3.8-2.8-9.8-2.1-14.5,1.6l0.2-35
			L-404.5,10.5z"/>
		<path fill="#0F3754" d="M-439.6,27.8l0.1-17.2l17.2-0.1c-2.3,3.3-4.8,6.5-7.8,9.4C-433.1,23-436.3,25.6-439.6,27.8z"/>
		<g>
			<polygon fill="#627590" points="-357.6,127.7 -349.6,119.6 -341.3,127.9 -349.3,135.9 			"/>
			
				<rect x="-349.4" y="108.4" transform="matrix(-0.7071 0.7071 -0.7071 -0.7071 -492.6463 432.5151)" fill="#8F9FB9" width="27" height="11.6"/>
			<polygon fill="#627590" points="-330.5,100.6 -322.5,92.6 -314.2,100.8 -322.2,108.8 			"/>
		</g>
	</g>
	<g>
		<g>
			<polygon fill="#C0E0DE" points="-200.5,219.3 -200.5,88.3 -200.5,22.6 -247.6,-24.5 -378.8,-24.5 -378.8,24.2 -378.8,88.3 
				-378.8,219.3 			"/>
			<g>
				<polygon fill="#FFFFFF" points="-247.6,22.6 -200.5,22.6 -247.6,-24.5 				"/>
				<polygon fill="#8FC3D5" points="-200.5,22.6 -247.6,22.6 -200.5,69.7 				"/>
			</g>
		</g>
		<g>
			<defs>
				<polygon id="SVGID_1_" points="-200.5,219.3 -200.5,88.3 -200.5,22.6 -247.6,-24.5 -378.8,-24.5 -378.8,24.2 -378.8,88.3 
					-378.8,219.3 				"/>
			</defs>
			<clipPath id="SVGID_2_">
				<use xlink:href="#SVGID_1_"  overflow="visible"/>
			</clipPath>
			<path clip-path="url(#SVGID_2_)" fill="#8FC3D5" d="M-403.1,193.8c45.8-47.4,19.5-22.9,63.6-68.7l-2-2l8.7-8.7l2.4,2.4
				c2.9-3,5.8-6.2,8.5-9.8c6.2-8.3,10.9-17,13.7-25.2c8.5,5.2,19.8,7,29.8,4c4.4-1.3,8.1-3.5,10.9-6.2l4.9,4.9l-0.2,0.2l-28.6,28.6
				c-1.9-1.2-4.2-1.4-5.4-0.1c-1.5,1.5-1,4.5,1.2,6.7c2.2,2.2,5.2,2.7,6.7,1.2c1.2-1.2,1.1-3.4-0.2-5.4l28.7-28.6l0.2-0.2l4.9,4.9
				c-2.7,2.8-4.9,6.4-6.2,10.9c-3,10-1.2,21.3,4,29.8c-8.2,2.9-16.9,7.5-25.2,13.7c-3.6,2.7-6.8,5.6-9.8,8.5l2.4,2.4l-8.7,8.7l-2-2
				c-45.8,44.1-21.2,17.9-68.7,63.7C-397.4,255.6-431.1,221.8-403.1,193.8z"/>
		</g>
		<g>
			<g>
				<g>
					<path fill="#174F78" d="M-297.3,164.9L-297.3,164.9c-16.1,0-31.3-6.3-42.7-17.7c-23.5-23.5-23.5-61.9,0-85.4
						c11.4-11.4,26.6-17.7,42.7-17.7c16.1,0,31.3,6.3,42.7,17.7c23.5,23.5,23.5,61.9,0,85.4C-266,158.6-281.2,164.9-297.3,164.9
						L-297.3,164.9z M-297.3,47.1c-15.3,0-29.7,6-40.6,16.8c-22.4,22.4-22.4,58.7,0,81.1c10.8,10.8,25.2,16.8,40.6,16.8
						c15.3,0,29.7-6,40.6-16.8c22.4-22.4,22.4-58.7,0-81.1C-267.6,53.1-282,47.1-297.3,47.1L-297.3,47.1z"/>
				</g>
				<g>
					<polygon fill="#174F78" points="-218.7,102.6 -295.5,25.8 -293.3,23.7 -216.5,100.5 -218.7,102.6 					"/>
				</g>
				<g>
					<g>
						<polygon fill="#FFFFFF" points="-330.4,63.4 -338.4,55.3 -346.5,63.4 -338.4,71.4 						"/>
						<path fill="#174F78" d="M-338.4,73.6l-10.2-10.2l10.2-10.2l10.2,10.2L-338.4,73.6L-338.4,73.6z M-344.3,63.4l5.9,5.9l5.9-5.9
							l-5.9-5.9L-344.3,63.4L-344.3,63.4z"/>
					</g>
					<g>
						<polygon fill="#FFFFFF" points="-248.2,145.6 -256.2,137.5 -264.3,145.6 -256.2,153.6 						"/>
						<path fill="#174F78" d="M-256.2,155.8l-10.2-10.2l10.2-10.2l10.2,10.2L-256.2,155.8L-256.2,155.8z M-262.2,145.6l5.9,5.9
							l5.9-5.9l-5.9-5.9L-262.2,145.6L-262.2,145.6z"/>
					</g>
				</g>
				<g>
					<polygon fill="#174F78" points="-247.9,63.1 -256,55.1 -264.1,63.1 -256,71.2 					"/>
					<path fill="#174F78" d="M-256,73.3l-10.2-10.2l10.2-10.2l10.2,10.2L-256,73.3L-256,73.3z M-261.9,63.1l5.9,5.9l5.9-5.9
						l-5.9-5.9L-261.9,63.1L-261.9,63.1z"/>
				</g>
				<g>
					<polygon fill="#FFFFFF" points="-331.2,146.4 -339.3,138.3 -347.3,146.4 -339.3,154.5 					"/>
					<path fill="#174F78" d="M-339.3,156.6l-10.2-10.2l10.2-10.2l10.2,10.2L-339.3,156.6L-339.3,156.6z M-345.2,146.4l5.9,5.9
						l5.9-5.9l-5.9-5.9L-345.2,146.4L-345.2,146.4z"/>
				</g>
				<g>
					<polygon fill="#174F78" points="-289,22.1 -297.1,14 -305.2,22.1 -297.1,30.1 					"/>
					<path fill="#174F78" d="M-297.1,32.3l-10.2-10.2l10.2-10.2l10.2,10.2L-297.1,32.3L-297.1,32.3z M-303,22.1l5.9,5.9l5.9-5.9
						l-5.9-5.9L-303,22.1L-303,22.1z"/>
				</g>
				<g>
					
						<rect x="-220.6" y="98.5" transform="matrix(0.7071 0.7071 -0.7071 0.7071 10.7597 182.487)" fill="#174F78" width="11.4" height="11.4"/>
					<path fill="#174F78" d="M-214.9,114.4l-10.2-10.2l10.2-10.2l10.2,10.2L-214.9,114.4L-214.9,114.4z M-220.8,104.2l5.9,5.9
						l5.9-5.9l-5.9-5.9L-220.8,104.2L-220.8,104.2z"/>
				</g>
			</g>
		</g>
		<g>
			<path fill="#2C8AC7" d="M-378,218.9c-28.1,28-61.8-5.7-33.7-33.8c46.3-48,18.9-22.3,65.2-70.3c12.9,13,25.9,25.9,38.9,38.8
				C-355.7,200-330,172.6-378,218.9z"/>
			<path fill="#FFFFFF" d="M-368.2,163.4c-4.3,4.1-11.1,10.5-24.6,23.8c-6,6-11.5,9.6-16.1,11.2c1.6-4.5,5.2-10,11.2-16.1
				c40.9-41.7,17.2-18.8,58.1-60.5c1.9,1.9,3.7,3.7,5.6,5.6C-361.4,155.5-358.3,153-368.2,163.4z"/>
			<path fill="#0F3754" d="M-287,77.2c4.4-1.3,8.1-3.5,10.9-6.2l4.9,4.9l-0.2,0.2l-28.7,28.7c-1.9-1.3-4.2-1.4-5.4-0.2
				c-1.5,1.5-1,4.5,1.2,6.7c2.2,2.2,5.2,2.7,6.7,1.2c1.2-1.2,1.1-3.4-0.2-5.4l28.7-28.6l0.2-0.2l5,4.9c-2.7,2.8-4.9,6.4-6.2,10.9
				c-3,10-1.2,21.3,4,29.8c-8.2,2.9-16.9,7.5-25.2,13.7c-6,4.5-11.1,9.4-15.3,14.3c-5.2-6.5-11.3-13.3-18.1-20.2
				c-6.8-6.8-13.7-12.9-20.2-18.1c5-4.2,9.8-9.3,14.3-15.3c6.2-8.3,10.9-17,13.7-25.2C-308.2,78.4-296.9,80.2-287,77.2z"/>
			<polygon fill="#0072BC" points="-307.3,157.2 -350.1,114.4 -341.4,105.8 -298.7,148.5 			"/>
		</g>
	</g>
	<polygon fill="#D9DFDA" points="-148.6,192.7 -187.1,180.2 -225.6,167.7 -225.2,169 -225.2,169 -213.1,206.2 -200.6,244.7 
		-187.1,218.4 -166.5,238.9 -160.9,233.3 -160.9,233.3 -154.4,226.8 -175,206.2 	"/>
	<g>
		<polygon fill="#0072BC" points="-161.6,199.2 -200.1,186.7 -238.6,174.2 -226.1,212.7 -213.6,251.2 -200.1,224.9 -179.5,245.4 
			-167.4,233.3 -188,212.7 		"/>
		<polygon fill="#4196CD" points="-200.1,186.7 -238.6,174.2 -238.2,175.5 -173.9,239.8 -167.4,233.3 -188,212.7 -161.6,199.2 		"/>
	</g>
	<g>
		<rect x="-676.9" y="95.5" fill="#A6A8AB" width="234.8" height="88.1"/>
	</g>
	<rect x="-676.9" y="107.5" fill="#A6A8AB" width="234.8" height="88.1"/>
	<rect x="-676.9" y="104.9" fill="#DBDCDD" width="234.8" height="88.1"/>
	<g>
		<g>
			<rect x="-627.2" y="122.2" fill="#7496AE" width="14.1" height="14.1"/>
			<rect x="-607.7" y="122.2" fill="#7496AE" width="14.1" height="14.1"/>
			<rect x="-588.2" y="122.2" fill="#7496AE" width="14.1" height="14.1"/>
			<rect x="-568.7" y="122.2" fill="#7496AE" width="14.1" height="14.1"/>
			<rect x="-549.1" y="122.2" fill="#7496AE" width="14.1" height="14.1"/>
			<rect x="-529.6" y="122.2" fill="#7496AE" width="14.1" height="14.1"/>
			<rect x="-510.1" y="122.2" fill="#7496AE" width="14.1" height="14.1"/>
			<rect x="-490.6" y="122.2" fill="#7496AE" width="14.1" height="14.1"/>
			<rect x="-471.1" y="122.2" fill="#7496AE" width="14.1" height="14.1"/>
		</g>
		<g>
			<rect x="-627.2" y="141.6" fill="#7496AE" width="14.1" height="14.1"/>
			<rect x="-607.7" y="141.6" fill="#7496AE" width="14.1" height="14.1"/>
			<rect x="-588.2" y="141.6" fill="#7496AE" width="14.1" height="14.1"/>
			<rect x="-568.7" y="141.6" fill="#7496AE" width="14.1" height="14.1"/>
			<rect x="-549.1" y="141.6" fill="#7496AE" width="14.1" height="14.1"/>
			<rect x="-529.6" y="141.6" fill="#7496AE" width="14.1" height="14.1"/>
			<rect x="-510.1" y="141.6" fill="#7496AE" width="14.1" height="14.1"/>
			<rect x="-490.6" y="141.6" fill="#7496AE" width="14.1" height="14.1"/>
			<rect x="-471.1" y="141.6" fill="#7496AE" width="14.1" height="14.1"/>
		</g>
		<g>
			<rect x="-627.2" y="161.1" fill="#7496AE" width="14.1" height="14.1"/>
			<polygon fill="#7496AE" points="-521.4,161.1 -529.6,161.1 -607.7,161.1 -607.7,175.2 -529.6,175.2 -521.4,175.2 -515.5,175.2 
				-515.5,161.1 			"/>
			<rect x="-510.1" y="161.1" fill="#7496AE" width="14.1" height="14.1"/>
			<rect x="-490.6" y="161.1" fill="#7496AE" width="14.1" height="14.1"/>
			<rect x="-471.1" y="161.1" fill="#7496AE" width="14.1" height="14.1"/>
		</g>
	</g>
	<g>
		<g>
			<rect x="-627.2" y="119.7" fill="#80B8DD" width="14.1" height="14.1"/>
			<rect x="-607.7" y="119.7" fill="#80B8DD" width="14.1" height="14.1"/>
			<rect x="-588.2" y="119.7" fill="#80B8DD" width="14.1" height="14.1"/>
			<rect x="-568.7" y="119.7" fill="#80B8DD" width="14.1" height="14.1"/>
			<rect x="-549.1" y="119.7" fill="#80B8DD" width="14.1" height="14.1"/>
			<rect x="-529.6" y="119.7" fill="#80B8DD" width="14.1" height="14.1"/>
			<rect x="-510.1" y="119.7" fill="#80B8DD" width="14.1" height="14.1"/>
			<rect x="-490.6" y="119.7" fill="#80B8DD" width="14.1" height="14.1"/>
			<rect x="-471.1" y="119.7" fill="#80B8DD" width="14.1" height="14.1"/>
		</g>
		<g>
			<rect x="-627.2" y="139.2" fill="#80B8DD" width="14.1" height="14.1"/>
			<rect x="-607.7" y="139.2" fill="#80B8DD" width="14.1" height="14.1"/>
			<rect x="-588.2" y="139.2" fill="#80B8DD" width="14.1" height="14.1"/>
			<rect x="-568.7" y="139.2" fill="#80B8DD" width="14.1" height="14.1"/>
			<rect x="-549.1" y="139.2" fill="#80B8DD" width="14.1" height="14.1"/>
			<rect x="-529.6" y="139.2" fill="#80B8DD" width="14.1" height="14.1"/>
			<rect x="-510.1" y="139.2" fill="#80B8DD" width="14.1" height="14.1"/>
			<rect x="-490.6" y="139.2" fill="#80B8DD" width="14.1" height="14.1"/>
			<rect x="-471.1" y="139.2" fill="#80B8DD" width="14.1" height="14.1"/>
		</g>
		<g>
			<rect x="-627.2" y="158.7" fill="#80B8DD" width="14.1" height="14.1"/>
			<polygon fill="#80B8DD" points="-521.4,158.7 -529.6,158.7 -607.7,158.7 -607.7,172.7 -529.6,172.7 -521.4,172.7 -515.5,172.7 
				-515.5,158.7 			"/>
			<rect x="-510.1" y="158.7" fill="#80B8DD" width="14.1" height="14.1"/>
			<rect x="-490.6" y="158.7" fill="#80B8DD" width="14.1" height="14.1"/>
			<rect x="-471.1" y="158.7" fill="#80B8DD" width="14.1" height="14.1"/>
		</g>
	</g>
</g>
<g>
	<g>
		<polygon fill="#DAE1DB" points="829.4,246.5 829.4,123.8 829.4,62.2 785.3,18.2 662.3,18.2 662.3,63.7 662.3,123.8 662.3,246.5 		
			"/>
		<g>
			<polygon fill="#DAE1DB" points="785.3,62.2 829.4,62.2 785.3,18.2 			"/>
			<polygon fill="#DAE1DB" points="829.4,62.2 785.3,62.2 829.4,106.3 			"/>
		</g>
	</g>
	<g>
		<polygon fill="#C0E0DE" points="823.4,254 823.4,130.3 823.4,68.2 779,23.7 654.9,23.7 654.9,69.7 654.9,130.3 654.9,254 		"/>
		<polygon fill="#FFFFFF" points="779,68.2 823.4,68.2 779,23.7 		"/>
		<polygon fill="#8FC3D5" points="823.4,68.2 779,68.2 823.4,112.7 		"/>
		<g>
			<path fill="#174F78" d="M684.7,43.9c0-3,2.4-5.3,5.4-5.3c3,0,5.4,2.4,5.4,5.3c0,3-2.4,5.4-5.4,5.4
				C687.1,49.3,684.7,46.9,684.7,43.9z"/>
			<circle fill="#0072BC" cx="675.2" cy="43.9" r="5.4"/>
			<path fill="#8FC1E1" d="M710.4,43.9c0,3-2.4,5.4-5.4,5.4c-3,0-5.4-2.4-5.4-5.4c0-3,2.4-5.3,5.4-5.3C708,38.6,710.4,41,710.4,43.9
				z"/>
		</g>
		<g>
			<rect x="669.8" y="58.2" fill="#0072BC" width="48.2" height="2.7"/>
			<rect x="669.8" y="64.8" fill="#8FC1E1" width="68.5" height="2.7"/>
			<rect x="669.8" y="71.4" fill="#8FC1E1" width="54.2" height="2.7"/>
		</g>
		<g>
			<rect x="695.4" y="129.2" fill="#8FC3D5" width="192.5" height="84.5"/>
			<path fill="#174F78" d="M699.6,137.1l81.9,52.2c5.6,3.6,14.7,3.6,20.3,0l81.9-52.2c2.6-1.7,4-3.9,4.2-6.1v-0.8
				c0-0.4-0.1-0.7-0.2-1.1H695.6C694.8,132,696.2,135,699.6,137.1z"/>
		</g>
		<g>
			<rect x="668.5" y="186.7" fill="#174F78" width="82.1" height="51.3"/>
			<g>
				<path fill="#FFFFFF" d="M688.6,199.6c0-2.5,2-4.6,4.6-4.6c2.5,0,4.6,2,4.6,4.6c0,2.5-2,4.6-4.6,4.6
					C690.6,204.2,688.6,202.1,688.6,199.6z"/>
				<path fill="#0072BC" d="M675.8,199.6c0-2.5,2-4.6,4.6-4.6c2.5,0,4.6,2,4.6,4.6c0,2.5-2,4.6-4.6,4.6
					C677.9,204.2,675.8,202.1,675.8,199.6z"/>
				<path fill="#8FC1E1" d="M710.5,199.6c0,2.5-2,4.6-4.6,4.6c-2.5,0-4.6-2-4.6-4.6c0-2.5,2-4.6,4.6-4.6
					C708.4,195,710.5,197.1,710.5,199.6z"/>
			</g>
			<g>
				<rect x="675.8" y="211.8" fill="#8FC1E1" width="41.2" height="2.3"/>
				<rect x="675.8" y="217.5" fill="#8FC1E1" width="58.5" height="2.3"/>
				<rect x="675.8" y="223.1" fill="#8FC1E1" width="46.3" height="2.3"/>
			</g>
		</g>
		<g>
			<path fill="#0F3754" d="M622,78.7v139.4c2-0.3,3.5-1.9,3.8-3.8V78.7H622z"/>
			<path fill="#174F78" d="M634.8,78.7h-9v135.6l0,0c0,0,0,0,0,0.1c0,0,0,0,0-0.1c0.3,2.2,2.2,3.9,4.5,3.9c2.3,0,4.2-1.7,4.5-3.9
				c0,0,0,0,0,0.1c0,0,0,0,0-0.1h0V78.7z"/>
			<path fill="#0F3754" d="M634.8,214.3c0.2,2,1.8,3.5,3.8,3.8V78.7h-3.8V214.3z"/>
			<path fill="#C0E0DE" d="M638.6,218.1c-2-0.3-3.5-1.9-3.8-3.8h0c0,0,0,0,0,0.1c0,0,0,0,0-0.1c-0.3,2.2-2.2,3.9-4.5,3.9
				c-2.3,0-4.2-1.7-4.5-3.9c0,0,0,0,0,0.1c0,0,0,0,0-0.1l0,0c-0.2,2-1.8,3.5-3.8,3.8l8.3,10.3L638.6,218.1z"/>
			<path fill="#0F3754" d="M626.2,223.3l4.1,5.1l4.1-5.1c-1.3-0.3-2.7-0.5-4.1-0.5S627.5,223,626.2,223.3z"/>
			<g>
				<rect x="622" y="73.7" fill="#0072BC" width="3.8" height="4.9"/>
				<rect x="625.8" y="73.7" fill="#8FC1E1" width="9" height="4.9"/>
				<rect x="634.8" y="73.7" fill="#0072BC" width="3.8" height="4.9"/>
			</g>
		</g>
	</g>
	<g>
		
			<rect x="862.1" y="90.6" transform="matrix(-0.4285 0.9035 -0.9035 -0.4285 1432.359 -604.2662)" fill="#DBE3E5" width="90.4" height="120.6"/>
		
			<rect x="869.3" y="97.8" transform="matrix(-0.4285 0.9035 -0.9035 -0.4285 1432.344 -604.2751)" fill="#0072BC" width="76" height="106.1"/>
		<polygon fill="#57A2D3" points="843,162.4 971.5,139.3 938.9,207.9 		"/>
	</g>
	<g>
		
			<rect x="1016.6" y="44.9" transform="matrix(-8.848991e-02 0.9961 -0.9961 -8.848991e-02 1260.5747 -943.1633)" fill="#DBE3E5" width="90.4" height="120.6"/>
		<polygon fill="#175079" points="1005.6,138.4 1012.3,62.7 1118.1,72 1111.3,147.7 		"/>
		<polygon fill="#4B7797" points="1005.6,138.4 1118.1,72 1111.3,147.7 		"/>
	</g>
	<g>
		
			<rect x="858.6" y="5.1" transform="matrix(-9.670053e-02 0.9953 -0.9953 -9.670053e-02 1056.2737 -827.8945)" fill="#DBE3E5" width="90.4" height="120.6"/>
		
			<rect x="865.8" y="12.3" transform="matrix(-9.668130e-02 0.9953 -0.9953 -9.668130e-02 1056.2522 -827.898)" fill="#8FC1E1" width="76" height="106.1"/>
		<polygon fill="#BCDAED" points="847.3,98.1 960.3,32.7 953,108.3 		"/>
	</g>
	<g>
		<g>
			<g>
				<path fill="#30363D" d="M1032,12l-14.5,4L996.1,0.2l-50.3,13.9l-10.3,24.6l-52.4,14.5c-6.1,1.7-9.7,8.1-8.1,14.2l26.9,97.4
					c1.7,6.2,8.1,9.8,14.2,8.1l148.9-41.2c6.1-1.7,9.7-8.1,8-14.2l-26.9-97.4C1044.5,14,1038.2,10.3,1032,12z"/>
				<path fill="#5A6374" d="M1032.9,76.2c6.1,22-6.8,44.8-28.8,50.9c-22,6.1-44.8-6.8-50.9-28.8c-6.1-22,6.8-44.8,28.8-50.9
					C1004,41.3,1026.8,54.2,1032.9,76.2z"/>
				<path fill="#30363D" d="M1027.5,77.7c5.3,19-5.9,38.7-24.9,44c-19,5.3-38.7-5.9-44-24.9c-5.3-19,5.9-38.7,24.9-44
					C1002.6,47.5,1022.3,58.7,1027.5,77.7z"/>
				<path fill="#90ABBF" d="M1018.6,80.1c3.9,14.1-4.4,28.8-18.5,32.7c-14.1,3.9-28.8-4.4-32.7-18.5c-3.9-14.1,4.4-28.8,18.5-32.7
					C1000.1,57.7,1014.7,66,1018.6,80.1z"/>
				<path fill="#FFFFFF" d="M991.5,76.4c1.4,5-1.6,10.2-6.6,11.6c-5,1.4-10.2-1.6-11.6-6.6c-1.4-5,1.6-10.2,6.6-11.6
					C984.9,68.5,990.1,71.4,991.5,76.4z"/>
				<path fill="#FFFFFF" d="M982.1,94.2c0.8,2.8-0.9,5.7-3.7,6.5c-2.8,0.8-5.7-0.9-6.5-3.7c-0.8-2.8,0.9-5.7,3.7-6.5
					C978.4,89.8,981.3,91.4,982.1,94.2z"/>
				<path fill="#484F5A" d="M889.3,59.7c-4.3,1.2-8.6-0.2-11.5-3.2c-2.6,2.8-3.8,6.9-2.7,10.9l26.9,97.4c1.7,6.2,8.1,9.8,14.2,8.1
					l31.2-8.6l-31-112.1L889.3,59.7z"/>
				<path fill="#484F5A" d="M914.2,44.4c0.5,1.8-0.6,3.6-2.3,4.1l-21.8,6c-1.8,0.5-3.6-0.5-4.1-2.3l-0.4-1.6
					c-0.5-1.8,0.6-3.6,2.3-4.1l21.8-6c1.8-0.5,3.6,0.6,4.1,2.3L914.2,44.4z"/>
				<path fill="#FFFFFF" d="M998.6,14.5c0.5,1.8-0.6,3.7-2.4,4.3l-41.7,11.5c-1.8,0.5-3.8-0.6-4.3-2.4l-1.8-6.7
					c-0.5-1.8,0.6-3.7,2.4-4.3l41.7-11.5c1.8-0.5,3.7,0.6,4.3,2.4L998.6,14.5z"/>
			</g>
		</g>
	</g>
	<g>
		<g>
			<g>
				<path fill="#CDD5D7" d="M1011.3,153.8l-124.6,65.1c-1.5,0.8-2,2.6-1.3,4.1L896,243c0.8,1.5,2.6,2,4.1,1.3l124.6-65.1
					c1.5-0.8,2-2.6,1.3-4.1l-10.5-20.1C1014.6,153.6,1012.8,153.1,1011.3,153.8z M899.4,230.4c-0.8,0.4-1.9,0.1-2.3-0.7
					c-0.4-0.8-0.1-1.9,0.7-2.3c0.8-0.4,1.8-0.1,2.3,0.7C900.5,229,900.2,230,899.4,230.4z"/>
				<path fill="#807F7F" d="M897.2,226.2c-1.5,0.8-2.1,2.7-1.3,4.2c0.8,1.5,2.6,2.1,4.2,1.3c1.5-0.8,2.1-2.7,1.3-4.2
					C900.5,226,898.7,225.4,897.2,226.2z M899.4,230.4c-0.8,0.4-1.9,0.1-2.3-0.7c-0.4-0.8-0.1-1.9,0.7-2.3c0.8-0.4,1.8-0.1,2.3,0.7
					C900.5,229,900.2,230,899.4,230.4z"/>
			</g>
			<g>
				<path fill="#C1C7CA" d="M1012.6,154.8l-124.9,64.4c-1.5,0.8-2.1,2.6-1.3,4l10.4,20.1c0.8,1.5,2.6,2,4,1.3l124.9-64.4
					c1.5-0.8,2.1-2.6,1.3-4l-10.4-20.1C1015.9,154.7,1014.1,154.1,1012.6,154.8z M900.2,230.8c-0.8,0.4-1.9,0.1-2.3-0.7
					c-0.4-0.8-0.1-1.9,0.7-2.3c0.8-0.4,1.8-0.1,2.3,0.7C901.4,229.3,901.1,230.4,900.2,230.8z"/>
				<polygon fill="#F5F1F0" points="1006.9,190 1026.1,180.1 1013,154.7 993.8,164.5 				"/>
				<polygon fill="#DBE3E5" points="987.9,199.8 1007.1,189.9 993.9,164.5 974.8,174.3 				"/>
				
					<rect x="961.1" y="177.6" transform="matrix(-0.8888 0.4582 -0.4582 -0.8888 1923.6744 -82.7663)" fill="#CDD5D7" width="21.6" height="28.6"/>
				<polygon fill="#C1C7CA" points="949.8,219.4 969,209.6 955.9,184.1 936.7,194 				"/>
				<polygon fill="#A9AFB1" points="930.8,229.2 950,219.4 936.8,193.9 917.7,203.8 				"/>
				
					<rect x="904" y="207.1" transform="matrix(-0.8888 0.4582 -0.4582 -0.8888 1829.3328 -1.0282)" fill="#8D9293" width="21.6" height="28.6"/>
				<path fill="#989897" d="M898,226.5c-1.5,0.8-2.1,2.6-1.3,4.2c0.8,1.5,2.6,2.1,4.1,1.3c1.5-0.8,2.1-2.6,1.3-4.1
					C901.4,226.4,899.6,225.8,898,226.5z M900.2,230.8c-0.8,0.4-1.9,0.1-2.3-0.7c-0.4-0.8-0.1-1.9,0.7-2.3c0.8-0.4,1.8-0.1,2.3,0.7
					C901.4,229.3,901.1,230.4,900.2,230.8z"/>
			</g>
			<g>
				<path fill="#CDD5D7" d="M1020,167.9l-131.3,50.2c-1.6,0.6-2.3,2.3-1.7,3.9l8.1,21.1c0.6,1.6,2.3,2.3,3.9,1.7l131.3-50.2
					c1.6-0.6,2.3-2.3,1.7-3.9l-8.1-21.1C1023.3,168.1,1021.5,167.3,1020,167.9z M899.9,231c-0.9,0.3-1.9-0.1-2.2-1
					c-0.3-0.9,0.1-1.9,1-2.2c0.9-0.3,1.9,0.1,2.2,1C901.2,229.7,900.8,230.7,899.9,231z"/>
				<polygon fill="#9EAECB" points="1010.4,202.3 1030.6,194.6 1020.3,167.8 1000.2,175.5 				"/>
				<polygon fill="#8A98B1" points="990.4,209.9 1010.6,202.2 1000.3,175.4 980.2,183.1 				"/>
				<polygon fill="#758097" points="970.4,217.5 990.6,209.8 980.3,183.1 960.2,190.8 				"/>
				<polygon fill="#5A6374" points="950.4,225.2 970.6,217.5 960.3,190.7 940.2,198.4 				"/>
				<polygon fill="#484F5A" points="930.4,232.8 950.6,225.1 940.3,198.4 920.2,206.1 				"/>
				<polygon fill="#30363D" points="910.4,240.5 930.6,232.8 920.4,206 900.2,213.7 				"/>
				<path fill="#807F7F" d="M898.2,226.5c-1.6,0.6-2.4,2.4-1.8,4c0.6,1.6,2.4,2.4,4,1.8c1.6-0.6,2.4-2.4,1.8-4
					C901.6,226.7,899.8,225.9,898.2,226.5z M899.9,231c-0.9,0.3-1.9-0.1-2.2-1c-0.3-0.9,0.1-1.9,1-2.2c0.9-0.3,1.9,0.1,2.2,1
					C901.2,229.7,900.8,230.7,899.9,231z"/>
			</g>
			<g>
				<path fill="#DBE3E5" d="M1029.4,191.9L891,216.4c-1.6,0.3-2.7,1.8-2.4,3.5l3.9,22.3c0.3,1.6,1.9,2.7,3.5,2.4l138.4-24.5
					c1.6-0.3,2.7-1.9,2.4-3.5l-3.9-22.3C1032.6,192.7,1031.1,191.6,1029.4,191.9z M899.6,231.1c-0.9,0.2-1.8-0.5-2-1.4
					c-0.2-0.9,0.4-1.8,1.4-2c0.9-0.2,1.8,0.5,2,1.4C901.1,230.1,900.5,231,899.6,231.1z"/>
				
					<rect x="1010.9" y="193.5" transform="matrix(-0.9847 0.1745 -0.1745 -0.9847 2063.9558 234.1294)" fill="#C2D1DC" width="21.6" height="28.6"/>
				<polygon fill="#A5BBCB" points="992.5,227.5 1013.7,223.7 1008.7,195.5 987.5,199.3 				"/>
				
					<rect x="968.7" y="200.9" transform="matrix(-0.9847 0.1742 -0.1742 -0.9847 1981.5718 256.5424)" fill="#7C9CB3" width="21.6" height="28.6"/>
				<polygon fill="#57809E" points="950.3,235 971.6,231.2 966.6,203 945.3,206.8 				"/>
				<polygon fill="#36688B" points="929.2,238.7 950.5,234.9 945.5,206.7 924.2,210.5 				"/>
				<polygon fill="#175079" points="908.2,242.4 929.4,238.7 924.4,210.5 903.2,214.2 				"/>
				<path fill="#8A8A8A" d="M898.8,226.4c-1.7,0.3-2.8,1.9-2.5,3.6c0.3,1.7,1.9,2.8,3.6,2.5c1.7-0.3,2.8-1.9,2.5-3.6
					C902,227.2,900.4,226.1,898.8,226.4z M899.6,231.1c-0.9,0.2-1.8-0.5-2-1.4c-0.2-0.9,0.4-1.8,1.4-2c0.9-0.2,1.8,0.5,2,1.4
					C901.1,230.1,900.5,231,899.6,231.1z"/>
			</g>
			<g>
				<path fill="#F5F1F0" d="M1034.5,233.9l-139.2-19.6c-1.6-0.2-3.2,0.9-3.4,2.6l-3.2,22.4c-0.2,1.6,0.9,3.2,2.6,3.4l139.2,19.6
					c1.6,0.2,3.2-0.9,3.4-2.6l3.2-22.4C1037.2,235.7,1036.1,234.2,1034.5,233.9z M898.9,231c-0.9-0.1-1.6-1-1.4-1.9
					c0.1-0.9,1-1.6,1.9-1.4c0.9,0.1,1.6,1,1.4,1.9C900.6,230.5,899.8,231.2,898.9,231z"/>
				<polygon fill="#B0D3EA" points="1009.5,259.4 1030.8,262.4 1034.8,234 1013.5,231 				"/>
				<polygon fill="#A3CCE7" points="988.3,256.4 1009.7,259.4 1013.6,231 992.3,228 				"/>
				
					<rect x="969" y="226.4" transform="matrix(-0.9903 -0.1391 0.1391 -0.9903 1916.5116 615.3898)" fill="#7DB7DD" width="21.6" height="28.6"/>
				
					<rect x="947.8" y="223.4" transform="matrix(-0.9903 -0.1391 0.1391 -0.9903 1874.7301 606.533)" fill="#58A2D3" width="21.6" height="28.6"/>
				<polygon fill="#2E8BC8" points="924.7,247.4 946.1,250.4 950,222.1 928.7,219.1 				"/>
				
					<rect x="905.4" y="217.4" transform="matrix(-0.9903 -0.1391 0.1391 -0.9903 1791.1737 588.7693)" fill="#0072BC" width="21.6" height="28.6"/>
				<path fill="#989897" d="M899.5,226.3c-1.7-0.2-3.2,0.9-3.5,2.6c-0.2,1.7,0.9,3.2,2.6,3.5c1.7,0.2,3.2-0.9,3.5-2.6
					C902.4,228.1,901.2,226.6,899.5,226.3z M898.9,231c-0.9-0.1-1.6-1-1.4-1.9c0.1-0.9,1-1.6,1.9-1.4c0.9,0.1,1.6,1,1.4,1.9
					C900.6,230.5,899.8,231.2,898.9,231z"/>
			</g>
		</g>
	</g>
</g>
<g>
	<g>
		<g>
			<path fill="#30363D" d="M260.1,172c-2.7,10.9-5.3,21.9-8,32.8c24.9,0,49.9,0,74.8,0c-2.7-10.9-5.3-21.9-8-32.8
				C299.3,172,279.7,172,260.1,172z"/>
			<path fill="#484F5A" d="M331.5,204.1h-84.1c-2.1,0-3.9,1.1-3.9,2.4v0.9h91.8v-0.9C335.4,205.2,333.7,204.1,331.5,204.1z"/>
			<path fill="#484F5A" d="M163.1,159.2v18.1c0,3.5,2.8,6.3,6.3,6.3h240.2c3.5,0,6.3-2.8,6.3-6.3v-18.1H163.1z"/>
			<path fill="#30363D" d="M415.9,159.2V6.3c0-3.5-2.8-6.3-6.3-6.3H169.4c-3.5,0-6.3,2.8-6.3,6.3v152.9H415.9z"/>
			<rect x="173.4" y="9.8" fill="#FFFFFF" width="232.1" height="139"/>
		</g>
		<g>
			<rect x="187.2" y="48.1" fill="#0072BC" width="63" height="32.8"/>
			<rect x="258" y="48.1" fill="#174F78" width="63" height="32.8"/>
			<rect x="328.8" y="48.1" fill="#8FC1E1" width="63" height="32.8"/>
			<g>
				<rect x="204.5" y="28.5" fill="#CDD5D7" width="41.9" height="4.6"/>
				<circle fill="#CDD5D7" cx="193.1" cy="30.8" r="5.9"/>
			</g>
			<rect x="371" y="29.9" fill="#CDD5D7" width="20.9" height="1.9"/>
			<rect x="347.6" y="29.9" fill="#CDD5D7" width="20.9" height="1.9"/>
			<rect x="324.2" y="29.9" fill="#CDD5D7" width="20.8" height="1.9"/>
			<rect x="300.8" y="29.9" fill="#CDD5D7" width="20.9" height="1.9"/>
			<rect x="277.4" y="29.9" fill="#CDD5D7" width="20.8" height="1.9"/>
			<g>
				<rect x="187.2" y="101.5" fill="#CDD5D7" width="63" height="1.9"/>
				<rect x="187.2" y="107.9" fill="#CDD5D7" width="63" height="1.8"/>
				<rect x="187.2" y="114.3" fill="#CDD5D7" width="63" height="1.9"/>
				<rect x="187.2" y="120.7" fill="#CDD5D7" width="63" height="1.9"/>
				<rect x="187.2" y="127" fill="#CDD5D7" width="44.9" height="1.9"/>
				<rect x="187.2" y="90.8" fill="#CDD5D7" width="41.9" height="4.6"/>
			</g>
			<g>
				<rect x="258" y="101.5" fill="#CDD5D7" width="63" height="1.9"/>
				<rect x="258" y="107.9" fill="#CDD5D7" width="63" height="1.8"/>
				<rect x="258" y="114.3" fill="#CDD5D7" width="63" height="1.9"/>
				<rect x="258" y="120.7" fill="#CDD5D7" width="63" height="1.9"/>
				<rect x="258" y="127" fill="#CDD5D7" width="44.9" height="1.9"/>
				<rect x="258" y="90.8" fill="#CDD5D7" width="41.9" height="4.6"/>
			</g>
			<g>
				<rect x="328.8" y="101.5" fill="#CDD5D7" width="63" height="1.9"/>
				<rect x="328.8" y="107.9" fill="#CDD5D7" width="63" height="1.8"/>
				<rect x="328.8" y="114.3" fill="#CDD5D7" width="63" height="1.9"/>
				<rect x="328.8" y="120.7" fill="#CDD5D7" width="63" height="1.9"/>
				<rect x="328.8" y="127" fill="#CDD5D7" width="44.9" height="1.9"/>
				<rect x="328.8" y="90.8" fill="#CDD5D7" width="41.9" height="4.6"/>
			</g>
		</g>
	</g>
	<g>
		<g>
			<g>
				<path fill="#565E6A" d="M487.1,119.6h-31c-3.8,0-6.8,3-6.8,6.8v74.2c0,3.8,3,6.8,6.8,6.8h31c3.8,0,6.8-3,6.8-6.8v-74.2
					C493.9,122.6,490.8,119.6,487.1,119.6z"/>
				<path fill="#FFFFFF" d="M465.8,124.8h11.7c0.3,0,0.6,0.3,0.6,0.6c0,0.3-0.3,0.6-0.6,0.6h-11.7c-0.3,0-0.6-0.3-0.6-0.6
					C465.2,125.1,465.4,124.8,465.8,124.8z"/>
				<rect x="452.3" y="130.5" fill="#FFFFFF" width="38.6" height="63.7"/>
			</g>
			<g>
				<rect x="454.5" y="142.9" fill="#0072BC" width="34.2" height="17.6"/>
				<g>
					<rect x="463.9" y="135.4" fill="#CDD5D7" width="24.7" height="2.5"/>
					<path fill="#CDD5D7" d="M460.9,136.6c0,1.8-1.4,3.2-3.2,3.2c-1.8,0-3.2-1.4-3.2-3.2c0-1.8,1.4-3.2,3.2-3.2
						C459.5,133.4,460.9,134.8,460.9,136.6z"/>
				</g>
				<g>
					<rect x="454.5" y="171.8" fill="#CDD5D7" width="34.2" height="1"/>
					<rect x="454.5" y="183.3" fill="#CDD5D7" width="34.2" height="1"/>
					<rect x="454.5" y="186.8" fill="#CDD5D7" width="34.2" height="1"/>
					<rect x="454.5" y="190.3" fill="#CDD5D7" width="24.8" height="1"/>
					<rect x="454.5" y="165.1" fill="#CDD5D7" width="22.8" height="2.5"/>
					<rect x="454.5" y="179.3" fill="#CDD5D7" width="34.2" height="1"/>
					<rect x="454.5" y="175.2" fill="#CDD5D7" width="34.2" height="1"/>
				</g>
			</g>
		</g>
		<circle fill="#DAE1DB" cx="471.5" cy="200.7" r="3.1"/>
	</g>
	<g>
		<path opacity="0.3" fill="#231F20" d="M210.8,83.7v99.9h-47.7V76.7h40.7C207.7,76.7,210.8,79.8,210.8,83.7z"/>
		<g>
			<g>
				<g>
					<path fill="#30363D" d="M26.8,200.1c-1.2,0-2.3-0.5-3.1-1.3c-0.8-0.8-1.3-2-1.3-3.1l0-110.3c0-1.2,0.5-2.3,1.3-3.1
						c0.8-0.8,2-1.3,3.1-1.3h174.5c1.2,0,2.3,0.5,3.1,1.3c0.8,0.8,1.3,2,1.3,3.1v110.3c0,1.2-0.5,2.3-1.3,3.1
						c-0.8,0.8-2,1.3-3.1,1.3H26.8z"/>
					<path fill="#30363D" d="M204.5,82.1c-0.9-0.9-2-1.3-3.2-1.3H26.8c-1.2,0-2.3,0.5-3.2,1.3c-0.9,0.9-1.3,2-1.3,3.2l0,110.3
						c0,1.2,0.5,2.3,1.3,3.2c0.9,0.9,2,1.3,3.2,1.3h174.5c1.2,0,2.3-0.5,3.2-1.3c0.9-0.9,1.3-2,1.3-3.2V85.3
						C205.8,84.1,205.3,83,204.5,82.1z M205.6,195.7c0,1.2-0.5,2.2-1.3,3.1c-0.8,0.8-1.9,1.3-3.1,1.3H26.8c-1.2,0-2.2-0.5-3.1-1.3
						c-0.8-0.8-1.3-1.9-1.3-3.1l0-110.3c0-1.2,0.5-2.2,1.3-3.1c0.8-0.8,1.9-1.3,3.1-1.3h174.5c1.2,0,2.2,0.5,3.1,1.3
						c0.8,0.8,1.3,1.9,1.3,3.1V195.7z"/>
				</g>
			</g>
		</g>
		<g>
			<g>
				<rect x="30.3" y="88.8" fill="#FFFFFF" width="167.5" height="110.3"/>
			</g>
		</g>
		<path fill="#565E6A" d="M228.1,196.2c0-0.6-2.2-0.9-2.7-0.9h-8.2h-1.4H2.7c-0.6,0-2.7,0.3-2.7,0.9v8.1h0c3,3.7,5.4,2.9,7,3.1h16.7
			l2.5,0v0l87.8,0l90.3,0h16.7c1.6-0.2,4,0.6,7-3.1h0c0-0.1,0-0.2,0-0.3L228.1,196.2L228.1,196.2z"/>
		<g>
			<rect x="34.1" y="111" fill="#0072BC" width="48.9" height="25.5"/>
			<rect x="89" y="111" fill="#174F78" width="48.9" height="25.5"/>
			<rect x="144" y="111" fill="#8FC1E1" width="48.9" height="25.5"/>
			<rect x="34.1" y="143.8" fill="#0072BC" width="48.9" height="5.4"/>
			<rect x="89" y="143.8" fill="#174F78" width="48.9" height="5.4"/>
			<rect x="144" y="143.8" fill="#8FC1E1" width="48.9" height="5.4"/>
			<g>
				<rect x="47.5" y="95.8" fill="#CDD5D7" width="32.5" height="3.5"/>
				<circle fill="#CDD5D7" cx="38.7" cy="97.5" r="4.6"/>
			</g>
			<rect x="176.7" y="96.8" fill="#CDD5D7" width="16.2" height="1.4"/>
			<rect x="158.5" y="96.8" fill="#CDD5D7" width="16.2" height="1.4"/>
			<rect x="140.4" y="96.8" fill="#CDD5D7" width="16.2" height="1.4"/>
			<rect x="122.2" y="96.8" fill="#CDD5D7" width="16.2" height="1.4"/>
			<rect x="104.1" y="96.8" fill="#CDD5D7" width="16.2" height="1.4"/>
			<g>
				<rect x="34.1" y="163.4" fill="#CDD5D7" width="48.9" height="1.4"/>
				<rect x="34.1" y="168.3" fill="#CDD5D7" width="48.9" height="1.4"/>
				<rect x="34.1" y="173.3" fill="#CDD5D7" width="48.9" height="1.4"/>
				<rect x="34.1" y="178.2" fill="#CDD5D7" width="48.9" height="1.4"/>
				<rect x="34.1" y="183.2" fill="#CDD5D7" width="34.9" height="1.4"/>
				<rect x="34.1" y="155" fill="#CDD5D7" width="32.5" height="3.5"/>
			</g>
			<g>
				<rect x="89" y="163.4" fill="#CDD5D7" width="48.9" height="1.4"/>
				<rect x="89" y="168.3" fill="#CDD5D7" width="48.9" height="1.4"/>
				<rect x="89" y="173.3" fill="#CDD5D7" width="48.9" height="1.4"/>
				<rect x="89" y="178.2" fill="#CDD5D7" width="48.9" height="1.4"/>
				<rect x="89" y="183.2" fill="#CDD5D7" width="34.9" height="1.4"/>
				<rect x="89" y="155" fill="#CDD5D7" width="32.5" height="3.5"/>
			</g>
			<g>
				<rect x="144" y="163.4" fill="#CDD5D7" width="48.9" height="1.4"/>
				<rect x="144" y="168.3" fill="#CDD5D7" width="48.9" height="1.4"/>
				<rect x="144" y="173.3" fill="#CDD5D7" width="48.9" height="1.4"/>
				<rect x="144" y="178.2" fill="#CDD5D7" width="48.9" height="1.4"/>
				<rect x="144" y="183.2" fill="#CDD5D7" width="34.9" height="1.4"/>
				<rect x="144" y="155" fill="#CDD5D7" width="32.5" height="3.5"/>
			</g>
		</g>
		<g>
			<g>
				<g>
					<path fill="#DAE1DB" d="M211.9,200.2c0,0.1-0.1,0.3-0.2,0.3H205c-0.1,0-0.2-0.1-0.2-0.3c0-0.1,0.1-0.3,0.2-0.3h6.7
						C211.8,199.9,211.9,200,211.9,200.2z"/>
				</g>
			</g>
			<g>
				<g>
					<path fill="#DAE1DB" d="M218.7,199.2c0.5,0,1,0.4,1,1c0,0.5-0.4,1-1,1c-0.5,0-1-0.4-1-1C217.7,199.6,218.2,199.2,218.7,199.2z"
						/>
				</g>
				<g>
					<path fill="#DAE1DB" d="M215.8,199.2c0.5,0,1,0.4,1,1c0,0.5-0.4,1-1,1c-0.5,0-1-0.4-1-1C214.9,199.6,215.3,199.2,215.8,199.2z"
						/>
				</g>
			</g>
		</g>
		<g>
			<g>
				<path fill="#DAE1DB" d="M7.7,201.5c0,0.2-0.1,0.3-0.3,0.3H7.3c-0.2,0-0.3-0.1-0.3-0.3v-2.8c0-0.2,0.1-0.3,0.3-0.3h0.1
					c0.2,0,0.3,0.1,0.3,0.3V201.5z"/>
			</g>
			<g>
				<path fill="#DAE1DB" d="M9.2,201.5c0,0.2-0.1,0.3-0.3,0.3H8.9c-0.2,0-0.3-0.1-0.3-0.3v-2.8c0-0.2,0.1-0.3,0.3-0.3h0.1
					c0.2,0,0.3,0.1,0.3,0.3V201.5z"/>
			</g>
			<g>
				<path fill="#DAE1DB" d="M10.8,201.5c0,0.2-0.1,0.3-0.3,0.3h-0.1c-0.2,0-0.3-0.1-0.3-0.3v-2.8c0-0.2,0.1-0.3,0.3-0.3h0.1
					c0.2,0,0.3,0.1,0.3,0.3V201.5z"/>
			</g>
			<g>
				<path fill="#DAE1DB" d="M12.3,201.5c0,0.2-0.1,0.3-0.3,0.3H12c-0.2,0-0.3-0.1-0.3-0.3v-2.8c0-0.2,0.1-0.3,0.3-0.3H12
					c0.2,0,0.3,0.1,0.3,0.3V201.5z"/>
			</g>
		</g>
	</g>
	<path opacity="0.3" fill="#231F20" d="M360.1,91.9v96.5h55.8V84.8h-48.8C363.3,84.8,360.1,88,360.1,91.9z"/>
	<g>
		<g>
			<path fill="#565E6A" d="M435.4,90.3h-80c-3.2,0-5.8,2.6-5.8,5.8v105.4c0,3.2,2.6,5.8,5.8,5.8h80c3.2,0,5.8-2.6,5.8-5.8V96.2
				C441.2,92.9,438.6,90.3,435.4,90.3z"/>
			<rect x="360" y="101.6" fill="#FFFFFF" width="70.9" height="94.4"/>
		</g>
		<g>
			<g>
				<rect x="387.7" y="110.4" fill="#CDD5D7" width="26.1" height="2.8"/>
				<path fill="#CDD5D7" d="M384.3,111.8c0,2-1.6,3.7-3.7,3.7c-2,0-3.7-1.7-3.7-3.7c0-2,1.7-3.7,3.7-3.7
					C382.6,108.1,384.3,109.7,384.3,111.8z"/>
			</g>
			<g>
				<rect x="413.3" y="121.7" fill="#CDD5D7" width="10.3" height="1.4"/>
				<rect x="401.8" y="121.7" fill="#CDD5D7" width="10.3" height="1.4"/>
				<rect x="390.2" y="121.7" fill="#CDD5D7" width="10.3" height="1.4"/>
				<rect x="378.7" y="121.7" fill="#CDD5D7" width="10.3" height="1.4"/>
				<rect x="367.1" y="121.7" fill="#CDD5D7" width="10.3" height="1.4"/>
			</g>
			<g>
				<rect x="363.5" y="128.2" fill="#0072BC" width="30" height="24.7"/>
				<rect x="397.2" y="128.2" fill="#174F78" width="30" height="24.7"/>
				<g>
					<rect x="363.5" y="168.4" fill="#CDD5D7" width="30" height="1.4"/>
					<rect x="363.5" y="173.2" fill="#CDD5D7" width="30" height="1.4"/>
					<rect x="363.5" y="178" fill="#CDD5D7" width="30" height="1.4"/>
					<rect x="363.5" y="182.8" fill="#CDD5D7" width="30" height="1.4"/>
					<rect x="363.5" y="187.6" fill="#CDD5D7" width="21.4" height="1.4"/>
					<rect x="363.5" y="160.3" fill="#CDD5D7" width="19.9" height="3.4"/>
				</g>
				<g>
					<rect x="397.2" y="168.4" fill="#CDD5D7" width="30" height="1.4"/>
					<rect x="397.2" y="173.2" fill="#CDD5D7" width="30" height="1.4"/>
					<rect x="397.2" y="178" fill="#CDD5D7" width="30" height="1.4"/>
					<rect x="397.2" y="182.8" fill="#CDD5D7" width="30" height="1.4"/>
					<rect x="397.2" y="187.6" fill="#CDD5D7" width="21.4" height="1.4"/>
					<rect x="397.2" y="160.3" fill="#CDD5D7" width="19.9" height="3.4"/>
				</g>
			</g>
		</g>
	</g>
	<circle fill="#DAE1DB" cx="395.4" cy="201.4" r="3.1"/>
</g>
<rect x="-646.2" y="122.2" fill="#7496AE" width="14.1" height="14.1"/>
<rect x="-646.2" y="141.6" fill="#7496AE" width="14.1" height="14.1"/>
<rect x="-646.2" y="161.1" fill="#7496AE" width="14.1" height="14.1"/>
<rect x="-646.2" y="119.7" fill="#80B8DD" width="14.1" height="14.1"/>
<rect x="-646.2" y="139.2" fill="#80B8DD" width="14.1" height="14.1"/>
<rect x="-646.2" y="158.7" fill="#80B8DD" width="14.1" height="14.1"/>
<rect x="-665.2" y="122.2" fill="#7496AE" width="14.1" height="14.1"/>
<rect x="-665.2" y="141.6" fill="#7496AE" width="14.1" height="14.1"/>
<rect x="-665.2" y="161.1" fill="#7496AE" width="14.1" height="14.1"/>
<rect x="-665.2" y="119.7" fill="#80B8DD" width="14.1" height="14.1"/>
<rect x="-665.2" y="139.2" fill="#80B8DD" width="14.1" height="14.1"/>
<rect x="-665.2" y="158.7" fill="#80B8DD" width="14.1" height="14.1"/>
</svg>
