<?xml version="1.0" encoding="utf-8"?>
<!-- Generator: Adobe Illustrator 19.0.1, SVG Export Plug-In . SVG Version: 6.00 Build 0)  -->
<svg version="1.1" id="Layer_1" xmlns="http://www.w3.org/2000/svg" xmlns:xlink="http://www.w3.org/1999/xlink" x="0px" y="0px"
	 viewBox="0 0 100 100" enable-background="new 0 0 100 100" xml:space="preserve">
<path fill="#0071BB" d="M59.9,65.6c-2-0.3-2-5.7-2-5.7s5.8-5.7,7.1-13.5c3.4,0,5.5-8.2,2.1-11.1c0.1-3,4.4-23.9-17-23.9
	S32.8,32.3,33,35.3c-3.4,2.9-1.3,11.1,2.1,11.1c1.3,7.7,7.1,13.5,7.1,13.5s0,5.4-2,5.7c-6.4,1-30.1,11.5-30.1,23h40h40
	C90,77.1,66.3,66.6,59.9,65.6z"/>
</svg>
