<?xml version="1.0" encoding="utf-8"?>
<!-- Generator: Adobe Illustrator 19.1.0, SVG Export Plug-In . SVG Version: 6.00 Build 0)  -->
<svg version="1.1" id="Layer_1" xmlns="http://www.w3.org/2000/svg" xmlns:xlink="http://www.w3.org/1999/xlink" x="0px" y="0px"
	 viewBox="0 0 100 100" enable-background="new 0 0 100 100" xml:space="preserve">
<path fill="#0071BB" d="M75.8,56.1c-1.1-1-3.4-1.6-7-1.7c-2.4,0-5.4,0.2-8.4,0.6c-1.4-0.8-2.8-1.7-3.9-2.7c-3-2.8-5.5-6.7-7.1-11
	c0.1-0.4,0.2-0.8,0.3-1.1c0,0,1.7-9.6,1.2-12.9c-0.1-0.4-0.1-0.6-0.2-0.9L50.5,26c-0.5-1.1-1.4-2.2-2.8-2.1l-0.8,0h0
	c-1.6,0-2.9,0.8-3.2,2c-1,3.8,0,9.4,2,16.8l-0.5,1.2c-1.4,3.4-3.1,6.7-4.6,9.7L40.3,54c-1.6,3.1-3,5.8-4.4,8l-1.4,0.7
	c-0.1,0.1-2.4,1.3-3,1.6c-4.6,2.8-7.7,5.9-8.2,8.4c-0.2,0.8,0,1.8,0.8,2.3l1.3,0.7c0.6,0.3,1.2,0.4,1.8,0.4c3.3,0,7.1-4.1,12.4-13.3
	c6.1-2,13-3.6,19.1-4.5c4.6,2.6,10.3,4.4,13.9,4.4c0.6,0,1.2-0.1,1.6-0.2c0.7-0.2,1.3-0.6,1.6-1.1c0.7-1.1,0.8-2.5,0.6-4
	C76.5,57,76.2,56.4,75.8,56.1z M26.5,73.6c0.6-1.6,3-4.9,6.5-7.8c0.2-0.2,0.8-0.7,1.3-1.2C30.6,70.5,28.2,72.9,26.5,73.6z
	 M47.4,25.6c1.1,0,1.7,2.7,1.7,5.2c0,2.5-0.5,4.3-1.3,5.6c-0.6-1.9-0.9-5-0.9-6.9C46.9,29.4,46.9,25.6,47.4,25.6z M41.2,59.8
	c0.7-1.3,1.5-2.7,2.3-4.2c1.9-3.6,3.1-6.5,4-8.8c1.8,3.3,4,6,6.6,8.2c0.3,0.3,0.7,0.6,1,0.8C49.8,57,45.2,58.2,41.2,59.8z
	 M74.8,59.5c-0.3,0.2-1.3,0.3-1.9,0.3c-1.9,0-4.3-0.9-7.7-2.3c1.3-0.1,2.5-0.1,3.5-0.1c1.9,0,2.5,0,4.4,0.5
	C75.1,58.3,75.1,59.3,74.8,59.5z M80.6,25.6L69.4,14.4C67,12,62.2,10,58.8,10H21.2c-3.4,0-6.2,2.8-6.2,6.2v67.5
	c0,3.4,2.8,6.2,6.2,6.2h57.5c3.4,0,6.2-2.8,6.2-6.2V36.2C85,32.8,83,28,80.6,25.6z M77,29.1c0.2,0.2,0.5,0.5,0.7,0.9H65V17.2
	c0.3,0.2,0.6,0.5,0.9,0.7L77,29.1z M80,83.8c0,0.7-0.6,1.2-1.2,1.2H21.2c-0.7,0-1.2-0.6-1.2-1.2V16.2c0-0.7,0.6-1.2,1.2-1.2h37.5
	c0.4,0,0.8,0,1.2,0.1V35h19.9c0.1,0.4,0.1,0.9,0.1,1.2V83.8z"/>
</svg>
