<?xml version="1.0" encoding="utf-8"?>
<!-- Generator: Adobe Illustrator 18.1.1, SVG Export Plug-In . SVG Version: 6.00 Build 0)  -->
<svg version="1.1" id="Layer_1" xmlns="http://www.w3.org/2000/svg" xmlns:xlink="http://www.w3.org/1999/xlink" x="0px" y="0px"
	 viewBox="0 0 72 72" enable-background="new 0 0 72 72" xml:space="preserve">
<path fill="#FFFFFF" d="M-223.2,3.6c-17.9,0-32.4,14.5-32.4,32.4s14.5,32.4,32.4,32.4s32.4-14.5,32.4-32.4S-205.3,3.6-223.2,3.6z
	 M-239.4,19.8h32.4c0.6,0,1.2,0.1,1.7,0.4L-223.2,41l-17.9-20.8C-240.6,19.9-240,19.8-239.4,19.8z M-243.4,48.2V23.8
	c0-0.1,0-0.1,0-0.3l11.9,13.8l-11.7,11.7C-243.4,48.9-243.4,48.5-243.4,48.2z M-207,52.2h-32.4c-0.4,0-0.7-0.1-1.1-0.1l11.5-11.5
	l5.7,6.7l5.7-6.7l11.5,11.5C-206.3,52.1-206.6,52.2-207,52.2z M-203,48.2c0,0.4-0.1,0.7-0.1,1.1l-11.7-11.8l11.9-13.8
	c0,0.1,0,0.1,0,0.3V48.2z"/>
<path fill="#FFFFFF" d="M-107.9,21.5c-4-7.8-10.9-13.9-19.5-16.5c-3-0.9-6.1-1.4-9.4-1.4c-3.3,0-6.5,0.5-9.4,1.4
	c-8.6,2.6-15.6,8.6-19.5,16.5c-2.2,4.4-3.5,9.3-3.5,14.5s1.2,10.2,3.5,14.5c2.5,5,6.3,9.3,10.9,12.4c5.2,3.5,11.4,5.5,18,5.5
	c6.7,0,12.9-2,18-5.5c4.6-3.1,8.4-7.4,10.9-12.4c2.2-4.4,3.5-9.3,3.5-14.5S-105.6,25.8-107.9,21.5z M-144.1,52.1h-7.2V26.7h7.2V52.1
	z M-147.7,23.1c-2,0-3.6-1.6-3.6-3.6s1.6-3.6,3.6-3.6s3.6,1.7,3.6,3.6S-145.7,23.1-147.7,23.1z M-118.7,52.1h-7.3V37.6
	c0-2-1.6-3.6-3.6-3.6s-3.6,1.6-3.6,3.6v14.5h-7.2V26.7h7.3v4.5c1.5-2,3.7-4.5,6.3-4.5c4.5,0,8.1,4,8.1,9.1L-118.7,52.1L-118.7,52.1z
	"/>
<g>
	<path fill="#FFFFFF" d="M-20.9,22.8c-2.9-6.4-7.8-11.7-14-15.1c-4.6-2.6-9.9-4-15.6-4S-61.3,5-66,7.6c-6.2,3.4-11.1,8.6-14,15.1
		c-1.9,4.1-2.9,8.6-2.9,13.3s1,9.3,2.9,13.3c3.7,8.1,10.6,14.4,19,17.3c3.3,1.2,6.8,1.8,10.5,1.8c3.7,0,7.2-0.6,10.5-1.7
		c8.5-2.9,15.4-9.2,19-17.4c1.9-4,2.9-8.6,2.9-13.3C-18,31.2-19,26.8-20.9,22.8z M-44.4,22.1h12.8c1.2,0,2.2,1,2.2,2.2
		c0,1.2-1,2.2-2.2,2.2h-12.8c-1.2,0-2.2-1-2.2-2.2C-46.6,23-45.6,22.1-44.4,22.1z M-49.6,44.6c0,0.1-0.1,0.4-0.1,0.6
		c-0.1,0.4-0.1,0.6-0.3,0.9c-0.6,1.7-1.8,3-3.3,4c-0.4,0.3-0.9,0.4-1.2,0.6c-0.4,0.2-0.9,0.4-1.4,0.4c-0.2,0.1-0.4,0.1-0.7,0.1
		c-0.1,0-0.2,0-0.3,0c-0.2,0.1-0.4,0.1-0.6,0.1h-0.2c-0.1,0.1-0.4,0.1-0.6,0.1h-0.2c-0.1,0-0.3,0-0.4,0h-11.4c-0.4,0-0.6,0-0.9-0.1
		c-0.7-0.1-1.2-0.4-1.4-0.7c-0.2-0.4-0.4-0.6-0.4-1.1c0-0.2,0-0.5,0-0.8V24.1c0-0.4,0.1-0.9,0.3-1.2c0.2-0.4,0.6-0.6,1.1-0.8
		l0.6-0.1h11.4c0.1,0,0.3,0,0.4,0.1l0.6,0.1c0.3,0,0.4,0,0.6,0.1l0.6,0.1c0.4,0,0.6,0.1,0.9,0.1c0.1,0,0.3,0.1,0.4,0.1
		c0.2,0.1,0.5,0.1,0.8,0.2c1.4,0.6,2.5,1.5,3.3,2.6c0.4,0.6,0.8,1.4,1.1,2.1c0.1,0.3,0.1,0.5,0.1,0.8c0,0.1,0,0.2,0.1,0.4
		c0.1,0.2,0.1,0.5,0.1,0.7v1.1c-0.1,0.2-0.1,0.4-0.1,0.6c0,0.3-0.1,0.6-0.1,0.9c-0.4,1.4-0.9,2.5-1.9,3.4c-0.1,0.2-0.4,0.4-0.7,0.6
		c0.2,0.1,0.3,0.2,0.4,0.2c0.9,0.6,1.6,1.2,2.2,2c0.2,0.4,0.4,0.7,0.6,1.1c0.1,0.4,0.3,0.7,0.4,1.1c0.2,0.6,0.3,1.4,0.3,2.2
		C-49.3,43.3-49.5,44-49.6,44.6z M-27.8,40.9c-0.1,0.6-0.2,0.9-0.5,1.2c-0.4,0.3-0.7,0.4-1.2,0.5c-0.5,0.1-1.2,0.1-1.9,0.1h-11.2
		l0,0c0.1,0.2,0.1,0.4,0.1,0.5l0.1,0.7c0.1,0.1,0.1,0.3,0.1,0.4c0.5,1.2,1.3,2,2.4,2.5c0.1,0.1,0.2,0.1,0.4,0.1l0.9,0.2
		c0.2,0.1,0.5,0.1,1.2,0.1c0.6,0,0.9-0.1,1.2-0.1c0.4-0.1,0.6-0.2,0.9-0.3s0.4-0.2,0.6-0.4c0.2-0.1,0.4-0.3,0.6-0.4
		c0.1-0.2,0.3-0.4,0.4-0.6c0.1-0.3,0.2-0.5,0.4-0.7c0.2-0.5,0.6-0.9,1.1-1.2c0.2-0.1,0.4-0.1,0.9-0.2c0.2,0,0.4-0.1,0.6-0.1h0.3
		c0.2,0,0.5,0.1,0.7,0.1c0.4,0.1,0.8,0.2,1,0.4c0.5,0.4,0.7,1.1,0.4,1.9c-0.2,0.7-0.5,1.4-0.9,2.1c-0.6,0.9-1.2,1.7-1.9,2.3
		c-0.7,0.6-1.7,1.1-2.8,1.4c-0.3,0.1-0.6,0.2-0.9,0.2c-0.3,0.1-0.5,0.1-0.8,0.1c-0.2,0.1-0.4,0.1-0.6,0.1h-0.7c0,0-0.2,0.1-0.4,0.1
		s-0.4,0-0.5-0.1h-0.6c-0.1,0-0.4,0-0.6-0.1c-0.1,0-0.1,0-0.3,0c-0.2,0-0.4-0.1-0.5-0.1c-0.3-0.1-0.5-0.1-0.8-0.2
		c-0.3-0.1-0.5-0.1-0.7-0.2c-0.3-0.1-0.4-0.1-0.6-0.2c-0.4-0.2-0.9-0.4-1.3-0.7c-0.9-0.6-1.6-1.2-2.2-2.1c-0.6-0.7-1.1-1.7-1.4-2.6
		c-0.1-0.3-0.3-0.6-0.4-1.1c-0.1-0.3-0.1-0.5-0.2-0.8c-0.1-0.2-0.1-0.4-0.1-0.6c-0.1-0.3-0.1-0.6-0.1-0.9c0-0.2-0.1-0.4-0.1-0.6
		v-0.6c0-0.1-0.1-0.3-0.1-0.5c0-0.3,0-0.5,0-0.7v-0.5l0.1-0.2c-0.1-0.1-0.1-0.4,0-0.6c0.1-0.4,0.2-0.8,0.2-1.2
		c0.1-0.5,0.2-1,0.4-1.4c0.1-0.3,0.2-0.6,0.4-0.9c0.1-0.4,0.3-0.6,0.4-1c0.6-1,1.4-1.9,2.2-2.6c0.8-0.7,1.8-1.4,3-1.9
		c0.4-0.1,0.7-0.2,1.1-0.4l1-0.2c0.2-0.1,0.3-0.1,0.4-0.1c0.1,0,0.1,0,0.2,0h0.2h0.7c1,0,2,0.1,2.8,0.4c0.9,0.3,1.7,0.6,2.4,1.1
		c0.1,0.1,0.4,0.2,0.5,0.4c0.4,0.2,0.6,0.4,0.9,0.7c0.3,0.2,0.5,0.5,0.7,0.7c0.4,0.6,0.8,1.2,1.1,1.7c0.2,0.4,0.4,0.7,0.5,1.2
		c0.1,0.3,0.2,0.6,0.4,0.9c0.1,0.4,0.3,0.8,0.4,1.2c0.1,0.4,0.1,0.6,0.2,1s0.1,0.5,0.1,0.7c0,0.1,0.1,0.3,0.1,0.5
		C-27.7,40-27.7,40.4-27.8,40.9z"/>
	<path fill="#FFFFFF" d="M-55,42.6c-0.1,0.2-0.1,0.4,0,0.6c0,0,0,0,0,0.1c-0.1,0.3-0.1,0.6-0.2,0.9c-0.1,0.2-0.1,0.4-0.3,0.6
		c-0.2,0.4-0.5,0.7-0.9,0.9s-0.9,0.4-1.4,0.6c-0.3,0.1-0.6,0.1-0.9,0.1h-8c-0.3,0-0.5,0-0.6,0.1c0,0-0.1-0.1-0.1-0.4v-5.6
		c0-0.4,0-0.7-0.1-1.2c0-0.2,0-0.4,0-0.4l7.3-0.1h0.1c0.4,0.1,0.7,0.1,1,0.1c0.3,0.1,0.6,0.1,0.9,0.1c0.2,0,0.4,0.1,0.4,0.1
		c0.6,0.2,1,0.4,1.4,0.6c0.3,0.2,0.6,0.4,0.8,0.7c0.2,0.3,0.4,0.6,0.4,1.1c0,0.1,0,0.4,0.1,0.6C-55,42.3-55,42.4-55,42.6z"/>
	<path fill="#FFFFFF" d="M-56.2,30.4c0,0.2,0,0.4-0.1,0.6c-0.1,0.6-0.2,1-0.4,1.3c-0.2,0.4-0.4,0.6-0.7,0.8
		c-0.4,0.2-0.8,0.4-1.3,0.6c-0.1,0.1-0.3,0.1-0.4,0.1c-0.4,0-0.7,0.1-0.9,0.1l-0.4-0.1c-0.1,0-0.3,0-0.4,0.1h-0.9l-0.4,0.1
		c-0.2,0-0.4-0.1-0.6-0.1h-3.5c-0.1,0-0.4,0-0.6,0.1l-0.5-0.1l-0.1-0.1v-5.3c0-0.3,0-0.6-0.1-1c0-0.2,0-0.3,0-0.4l5-0.1
		c0.7,0,1.4,0,1.9,0.1c0.6,0,1.2,0.1,1.7,0.1c0.5,0.1,0.9,0.2,1.2,0.4c0.4,0.1,0.6,0.3,0.7,0.6c0.1,0.1,0.1,0.3,0.2,0.4l0.2,0.7
		c0,0.2,0,0.4,0.1,0.4C-56.2,30.1-56.2,30.2-56.2,30.4z"/>
	<path fill="#FFFFFF" d="M-33.4,37.8h-0.2c-0.6,0-1,0-1.4,0H-41c-0.4,0-0.8,0-1.4,0.1c-0.1,0-0.1,0-0.2,0v-0.1
		c0.1-0.1,0.1-0.4,0.1-0.5c0.1-0.1,0.1-0.2,0.2-0.4c0.3-0.6,0.6-1.1,1-1.5c0.4-0.4,0.9-0.7,1.4-0.9c0.2-0.1,0.4-0.1,0.5-0.1
		c0.2,0,0.4-0.1,0.6-0.1h0.1c0.1,0,0.3-0.1,0.4-0.1h0.4c0.1,0,0.3,0,0.4,0.1c0.2,0.1,0.4,0.1,0.6,0.1c0.1,0.1,0.3,0.1,0.4,0.1
		c0.6,0.2,1,0.5,1.4,0.9s0.7,0.8,1,1.3C-33.7,36.9-33.5,37.4-33.4,37.8z"/>
</g>
<path fill="#003C73" d="M36,3.6C18.1,3.6,3.6,18.1,3.6,36S18.1,68.4,36,68.4S68.4,53.9,68.4,36S53.9,3.6,36,3.6z M39.2,46.9
	c-3-0.2-4.2-1.7-6.5-3.1c-1.3,6.6-2.8,13-7.4,16.3c-1.4-10.1,2.1-17.6,3.7-25.6c-2.7-4.7,0.4-14,6.2-11.7c7.2,2.9-6.2,17.4,2.8,19.2
	c9.4,1.9,13.2-16.3,7.3-22.2c-8.4-8.6-24.6-0.2-22.5,12c0.5,3,3.6,3.9,1.2,8.1c-5.4-1.2-7-5.5-6.8-11.1C17.6,19.4,25.6,13,33.6,12
	c10.2-1.2,19.7,3.7,21,13.2C56.1,36.1,50,47.7,39.2,46.9z"/>
</svg>
