<?xml version="1.0" encoding="utf-8"?>
<!-- Generator: Adobe Illustrator 19.1.0, SVG Export Plug-In . SVG Version: 6.00 Build 0)  -->
<svg version="1.1" id="Layer_1" xmlns="http://www.w3.org/2000/svg" xmlns:xlink="http://www.w3.org/1999/xlink" x="0px" y="0px"
	 viewBox="0 0 100 100" enable-background="new 0 0 100 100" xml:space="preserve">
<path fill="#0071BB" d="M85,27.5H65v-5c0-2.7-2.3-5-5-5H40c-2.7,0-5,2.3-5,5v5H15c-2.7,0-5,2.3-5,5v45c0,2.7,2.3,5,5,5h70
	c2.7,0,5-2.3,5-5v-45C90,29.8,87.7,27.5,85,27.5z M40,22.5C40,22.5,40,22.5,40,22.5l20,0c0,0,0,0,0,0l0,5H40V22.5z M85,47.5H75V55
	c0,1.4-1.1,2.5-2.5,2.5h-5c-1.4,0-2.5-1.1-2.5-2.5v-7.5H35V55c0,1.4-1.1,2.5-2.5,2.5h-5c-1.4,0-2.5-1.1-2.5-2.5v-7.5H15v-5h70V47.5z
	"/>
</svg>
