<?xml version="1.0" encoding="utf-8"?>
<!-- Generator: Adobe Illustrator 19.1.0, SVG Export Plug-In . SVG Version: 6.00 Build 0)  -->
<svg version="1.1" id="Layer_1" xmlns="http://www.w3.org/2000/svg" xmlns:xlink="http://www.w3.org/1999/xlink" x="0px" y="0px"
	 viewBox="0 0 100 100" enable-background="new 0 0 100 100" xml:space="preserve">
<path fill="#0071BB" d="M82.7,71.1L59.4,32.3V16.6h2.4c1.3,0,2.4-1.1,2.4-2.4c0-1.3-1.1-2.4-2.4-2.4H38.2c-1.3,0-2.4,1.1-2.4,2.4
	c0,1.3,1.1,2.4,2.4,2.4h2.4v15.7L17.3,71.1c-5.3,8.9-1.2,16.1,9.1,16.1h47.1C83.9,87.2,88,79.9,82.7,71.1z M30.1,59l15.2-25.4v-17
	h9.4v17L69.9,59H30.1z"/>
</svg>
