<?xml version="1.0" encoding="utf-8"?>
<!-- Generator: Adobe Illustrator 18.1.1, SVG Export Plug-In . SVG Version: 6.00 Build 0)  -->
<svg version="1.1" id="Layer_1" xmlns="http://www.w3.org/2000/svg" xmlns:xlink="http://www.w3.org/1999/xlink" x="0px" y="0px"
	 viewBox="0 0 163.9 94.5" enable-background="new 0 0 163.9 94.5" xml:space="preserve">
<rect x="87.1" y="1" fill="#0071BB" width="14.2" height="14.2"/>
<rect x="1" y="78.7" fill="#0071BB" width="14.2" height="14.2"/>
<rect x="87.1" y="20.4" fill="#0071BB" width="14.2" height="14.2"/>
<g>
	<path fill="#FFFFFF" d="M91.9,4.9h0.8l2.2,7.4h-0.8l-0.6-1.9H91l-0.6,1.9h-0.7L91.9,4.9z M93.3,9.7L92.3,6l-1.1,3.7H93.3z"/>
	<path fill="#FFFFFF" d="M95,9.6V9.5c0-1.8,0.8-2.8,1.9-2.8c1.1,0,1.8,1.1,1.8,2.8v0.4h-3c0.1,1.2,0.7,1.9,1.5,1.9
		c0.4,0,0.8-0.2,1.1-0.5l0.3,0.5c-0.4,0.4-0.9,0.6-1.5,0.6C95.9,12.4,95,11.4,95,9.6z M97.9,9.3c0-1.1-0.4-2-1.1-2
		c-0.6,0-1.1,0.7-1.2,2H97.9z"/>
</g>
<g>
	<path fill="#FFFFFF" d="M2.9,82.4h1.5c1.8,0,2.9,1.3,2.9,3.6v0.1c0,2.2-1.2,3.6-2.9,3.6H2.9V82.4z M3.7,83.1v6h0.8
		c1.3,0,2.2-1.1,2.2-2.9v-0.1c0-1.9-0.9-2.9-2.2-2.9H3.7z"/>
	<path fill="#FFFFFF" d="M7.7,84.3h0.7l1,4.3l1-4.3H11l1,4.3l1-4.3h0.7l-1.3,5.5h-0.7l-1-4.2l-1,4.2H9L7.7,84.3z"/>
</g>
<g>
	<path fill="#FFFFFF" d="M89.5,24.4h0.8l1.8,3.9l1.8-3.9h0.8v7.3h-0.7v-5.9l-1.8,3.9h0l-1.8-3.9v5.9h-0.7V24.4z"/>
	<path fill="#FFFFFF" d="M95.4,30v-3.8h0.7v3.6c0,0.9,0.4,1.4,1,1.4s1.1-0.5,1.1-1.4v-3.6H99v5.5h-0.7v-0.8
		c-0.2,0.5-0.7,0.9-1.3,0.9C96,31.8,95.4,31.2,95.4,30z"/>
</g>
<rect x="104.9" y="10.7" fill="#7DA6D7" width="36.8" height="4.5"/>
<rect x="104.9" y="30.1" fill="#7DA6D7" width="42.1" height="4.5"/>
<rect x="18.8" y="88.4" fill="#7DA6D7" width="31.6" height="4.5"/>
<rect x="1" y="1" fill="#0071BB" width="14.2" height="14.2"/>
<rect x="1" y="39.9" fill="#0071BB" width="14.2" height="14.2"/>
<rect x="1" y="20.4" fill="#0071BB" width="14.2" height="14.2"/>
<g>
	<path fill="#FFFFFF" d="M5.4,4.9h0.7v7.3H5.4V4.9z"/>
	<path fill="#FFFFFF" d="M7.1,9.6V9.4c0-1.8,0.8-2.8,1.7-2.8c0.7,0,1.2,0.5,1.4,1.1v-3H11v7.5h-0.7v-1c-0.3,0.6-0.7,1.1-1.4,1.1
		C7.9,12.4,7.1,11.5,7.1,9.6z M10.3,9.6V9.4c0-1.3-0.6-2.1-1.3-2.1c-0.7,0-1.2,0.7-1.2,2.1v0.1c0,1.4,0.5,2.1,1.2,2.1
		C9.7,11.7,10.3,10.9,10.3,9.6z"/>
</g>
<g>
	<path fill="#FFFFFF" d="M4.6,43.8h1.6c1.4,0,2.4,0.9,2.4,2.3v0c0,1.5-1,2.4-2.4,2.4H5.3v2.6H4.6V43.8z M6.1,47.9
		c1.1,0,1.7-0.7,1.7-1.7v0c0-1.1-0.6-1.7-1.7-1.7H5.3v3.4H6.1z"/>
	<path fill="#FFFFFF" d="M8.7,50.5L9.1,50c0.4,0.4,0.9,0.6,1.3,0.6c0.5,0,0.9-0.4,0.9-0.8v0c0-0.4-0.2-0.7-1-1.1
		C9.4,48.1,9,47.7,9,47v0c0-0.8,0.7-1.4,1.5-1.4c0.6,0,1.1,0.2,1.5,0.6l-0.4,0.5c-0.3-0.3-0.7-0.5-1.1-0.5c-0.5,0-0.8,0.3-0.8,0.7v0
		c0,0.4,0.3,0.7,1,1.1c1,0.6,1.3,1,1.3,1.7v0c0,0.9-0.7,1.5-1.6,1.5C9.9,51.2,9.3,51,8.7,50.5z"/>
</g>
<g>
	<path fill="#FFFFFF" d="M6.9,24.3h0.8l2.2,7.4H9.1l-0.6-1.9H6l-0.6,1.9H4.7L6.9,24.3z M8.3,29.1l-1.1-3.7l-1.1,3.7H8.3z"/>
	<path fill="#FFFFFF" d="M10.3,24.3h0.8v0.9h-0.8V24.3z M10.4,26.2h0.7v5.5h-0.7V26.2z"/>
</g>
<rect x="18.8" y="10.7" fill="#7DA6D7" width="52.6" height="4.5"/>
<rect x="18.8" y="30.1" fill="#7DA6D7" width="52.6" height="4.5"/>
<rect x="18.8" y="49.6" fill="#7DA6D7" width="47.3" height="4.5"/>
<rect x="18.9" y="10.8" fill="none" stroke="#0071BB" stroke-width="0.5" width="57.6" height="4.2"/>
<rect x="18.9" y="30.3" fill="none" stroke="#0071BB" stroke-width="0.5" width="57.6" height="4.2"/>
<g>
	<rect x="18.9" y="49.7" fill="none" stroke="#0071BB" stroke-width="0.5" width="57.6" height="4.2"/>
</g>
<rect x="18.8" y="69" fill="#7DA6D7" width="47.3" height="4.5"/>
<g>
	<rect x="18.9" y="69.1" fill="none" stroke="#0071BB" stroke-width="0.5" width="57.6" height="4.2"/>
</g>
<rect x="105" y="10.8" fill="none" stroke="#0071BB" stroke-width="0.5" width="57.6" height="4.2"/>
<rect x="105" y="30.3" fill="none" stroke="#0071BB" stroke-width="0.5" width="57.6" height="4.2"/>
<rect x="18.9" y="88.6" fill="none" stroke="#0071BB" stroke-width="0.5" width="57.6" height="4.2"/>
<rect x="87.3" y="39.9" fill="#0071BB" width="14.2" height="14.2"/>
<polygon fill="#FFFFFF" points="90.3,49.9 92.1,49.1 92.1,44.5 95.6,43.6 95.6,50.6 90.4,50 95.6,51.8 98.4,51 98.4,43 95.6,42.1 
	90.3,44 "/>
<rect x="87.3" y="59.3" fill="#0071BB" width="14.2" height="14.2"/>
<rect x="87.3" y="78.7" fill="#0071BB" width="14.2" height="14.2"/>
<g>
	<path fill="#FFFFFF" d="M95.9,82.2c0.4-0.4,0.6-1.1,0.5-1.7c-0.5,0-1.1,0.4-1.5,0.8c-0.3,0.4-0.6,1-0.5,1.6
		C94.9,83,95.5,82.6,95.9,82.2 M97.2,86.1c0-1.3,1.1-2,1.1-2c-0.6-0.9-1.5-1-1.9-1.1c-0.8-0.1-1.6,0.5-2,0.5c-0.4,0-1-0.5-1.7-0.5
		c-0.9,0-1.7,0.5-2.1,1.3c-0.9,1.6-0.2,4,0.7,5.3c0.4,0.6,0.9,1.4,1.6,1.3c0.7,0,0.9-0.4,1.7-0.4s1,0.4,1.7,0.4
		c0.7,0,1.1-0.7,1.6-1.3c0.5-0.7,0.7-1.5,0.7-1.5C98.5,88.3,97.2,87.7,97.2,86.1"/>
</g>
<path fill="#FFFFFF" d="M93.4,70.4l-3.9-0.5v-3.2h3.9V70.4z M99.2,66.7l0,4.6L94,70.5v-3.8H99.2z M94,62.2l5.2-0.8V66H94V62.2z
	 M89.5,66l0-3.2l3.9-0.5V66H89.5z"/>
<rect x="105" y="49.6" fill="#7DA6D7" width="47.3" height="4.5"/>
<rect x="105" y="69" fill="#7DA6D7" width="47.3" height="4.5"/>
<rect x="105" y="88.4" fill="#7DA6D7" width="52.6" height="4.5"/>
<g>
	<rect x="105.2" y="49.7" fill="none" stroke="#0071BB" stroke-width="0.5" width="57.6" height="4.2"/>
	<rect x="105.2" y="69.1" fill="none" stroke="#0071BB" stroke-width="0.5" width="57.6" height="4.2"/>
	<rect x="105.2" y="88.6" fill="none" stroke="#0071BB" stroke-width="0.5" width="57.6" height="4.2"/>
</g>
<g>
	<rect x="1" y="59.3" fill="#0071BB" width="14.2" height="14.2"/>
	<g>
		<path fill="#FFFFFF" d="M9.2,70h0.7v-3.1c0-1.1,0.6-1.7,1.5-1.7h0v-0.8c-0.7,0-1.2,0.4-1.5,1v-1H9.2V70z M7.7,68L7.7,68
			c0,0.9-0.7,1.4-1.7,1.4H5v-2.7h1C7,66.7,7.7,67.2,7.7,68 M7.4,64.6c0,0.9-0.6,1.4-1.5,1.4H5v-2.6h1C6.9,63.4,7.4,63.9,7.4,64.6
			L7.4,64.6z M4.2,70H6c1.5,0,2.4-0.7,2.4-2v0c0-1-0.6-1.5-1.4-1.8c0.6-0.2,1.2-0.7,1.2-1.7v0c0-0.5-0.2-0.9-0.5-1.2
			c-0.4-0.4-1-0.6-1.7-0.6H4.2V70z"/>
	</g>
</g>
</svg>
