<?xml version="1.0" encoding="utf-8"?>
<!-- Generator: Adobe Illustrator 19.0.1, SVG Export Plug-In . SVG Version: 6.00 Build 0)  -->
<svg version="1.1" id="Layer_1" xmlns="http://www.w3.org/2000/svg" xmlns:xlink="http://www.w3.org/1999/xlink" x="0px" y="0px"
	 viewBox="0 0 100 100" enable-background="new 0 0 100 100" xml:space="preserve">
<g>
	<path fill="#0071BB" d="M50,66.8c-9.3,0-16.8-7.5-16.8-16.8S40.7,33.2,50,33.2S66.8,40.7,66.8,50S59.3,66.8,50,66.8 M84.2,58
		c-4.3-7.5-1.7-17.2,5.8-21.6l-8.1-14.1c-2.3,1.4-5,2.1-7.9,2.1c-8.7,0-15.8-7.1-15.8-15.9l-16.3,0c0,2.7-0.7,5.5-2.1,8
		c-4.3,7.5-14,10.1-21.6,5.7L10,36.3c2.3,1.3,4.4,3.3,5.8,5.8c4.3,7.5,1.7,17.2-5.8,21.6l8.1,14.1c2.3-1.4,5-2.1,7.9-2.1
		c8.7,0,15.7,7.1,15.8,15.8h16.3c0-2.7,0.7-5.4,2.1-7.9c4.3-7.5,14-10.1,21.6-5.8l8.2-14.1C87.6,62.4,85.6,60.4,84.2,58"/>
</g>
</svg>
