<?xml version="1.0" encoding="utf-8"?>
<!-- Generator: Adobe Illustrator 19.1.0, SVG Export Plug-In . SVG Version: 6.00 Build 0)  -->
<svg version="1.1" id="Layer_1" xmlns="http://www.w3.org/2000/svg" xmlns:xlink="http://www.w3.org/1999/xlink" x="0px" y="0px"
	 viewBox="0 0 100 100" enable-background="new 0 0 100 100" xml:space="preserve">
<path fill="#0071BB" d="M85.6,75.2c0,3.2,1.8,5.9,4.4,7.2v1.1c-0.7,0.1-1.5,0.2-2.3,0.2c-4.7,0-9-2-12-5.2c-1.8,0.5-3.8,0.7-5.7,0.7
	c-11,0-20-8-20-17.8s9-17.8,20-17.8c11,0,20,8,20,17.8c0,3.8-1.4,7.4-3.7,10.3C85.8,72.9,85.6,74,85.6,75.2z M45.6,12.6
	c19.3,0,35.1,12.5,35.5,28.2c-3.4-1.5-7.2-2.3-11.1-2.3c-6.6,0-12.9,2.3-17.6,6.5c-4.9,4.4-7.6,10.2-7.6,16.5c0,3.1,0.7,6.1,1.9,8.9
	c-0.4,0-0.7,0-1.1,0c-1.9,0-3.7-0.1-5.5-0.4c-7.6,7.6-16.8,9-25.6,9.2v-1.9c4.8-2.3,8.9-6.6,8.9-11.4c0-0.7-0.1-1.3-0.2-2
	C15.1,58.7,10,50.6,10,41.5C10,25.6,25.9,12.6,45.6,12.6z"/>
</svg>
