<?xml version="1.0" encoding="utf-8"?>
<!-- Generator: Adobe Illustrator 19.1.0, SVG Export Plug-In . SVG Version: 6.00 Build 0)  -->
<svg version="1.1" id="Layer_1" xmlns="http://www.w3.org/2000/svg" xmlns:xlink="http://www.w3.org/1999/xlink" x="0px" y="0px"
	 viewBox="0 0 100 100" enable-background="new 0 0 100 100" xml:space="preserve">
<g>
	<path fill="#0071BB" d="M90,50c0-22.1-17.9-40-40-40c-22.1,0-40,17.9-40,40c0,22.1,17.9,40,40,40C72.1,90,90,72.1,90,50z M85.2,50
		c0,10.2-4.4,19.4-11.3,25.8c-0.3-0.3-0.6-0.6-0.9-1l1.2-2l-0.7-0.8l-1.2,2c-0.6-0.7-1.2-1.4-1.7-2.1l1.4-1.9l-0.6-0.9l-1.4,1.9
		c-0.5-0.7-1-1.5-1.5-2.3l1.6-1.7l-0.5-0.9l-1.6,1.7c-0.4-0.8-0.9-1.6-1.3-2.4l1.8-1.6l-0.4-1l-1.8,1.6c-0.4-0.8-0.7-1.7-1-2.6
		l1.9-1.4l-0.3-1l-1.9,1.4c-0.3-0.9-0.5-1.8-0.7-2.6l2.1-1.2l-0.2-1l-2.1,1.2c-0.2-0.9-0.3-1.8-0.4-2.7l2.2-0.9l-0.1-1.1l-2.2,0.9
		c-0.1-0.9-0.1-1.8-0.2-2.7l2.3-0.7v-1.1l-2.3,0.7c0-0.9,0.1-1.8,0.1-2.7l2.3-0.5l0.1-1.1l-2.3,0.5c0.1-0.9,0.2-1.8,0.4-2.7l2.4-0.2
		l0.2-1L64,42.1c0.2-0.9,0.4-1.8,0.7-2.7l2.4,0l0.3-1l-2.4,0c0.3-0.9,0.6-1.7,1-2.6l2.3,0.3l0.4-1l-2.3-0.3c0.4-0.8,0.8-1.7,1.2-2.5
		l2.3,0.5l0.5-0.9l-2.3-0.5c0.5-0.8,1-1.6,1.5-2.3l2.2,0.8l0.6-0.9l-2.2-0.8c0.5-0.7,1.1-1.4,1.7-2.1l2.1,1l0.7-0.8l-2.1-1
		c0.4-0.4,0.8-0.8,1.1-1.2C80.9,30.6,85.2,39.8,85.2,50z M14.8,50c0-10.2,4.4-19.4,11.3-25.8c0.3,0.3,0.6,0.6,0.9,1l-1.2,2l0.7,0.8
		l1.2-2c0.6,0.7,1.2,1.4,1.7,2.1L28,29.9l0.6,0.9l1.4-1.9c0.5,0.7,1,1.5,1.5,2.3L30,32.9l0.5,0.9l1.6-1.7c0.4,0.8,0.9,1.6,1.3,2.4
		l-1.8,1.6l0.4,1l1.8-1.6c0.4,0.8,0.7,1.7,1,2.6l-1.9,1.4l0.3,1l1.9-1.4c0.3,0.9,0.5,1.8,0.7,2.6l-2.1,1.2l0.2,1l2.1-1.2
		c0.2,0.9,0.3,1.8,0.4,2.7l-2.2,0.9l0.1,1.1l2.2-0.9c0.1,0.9,0.1,1.8,0.2,2.7L34.6,50v1.1l2.3-0.7c0,0.9-0.1,1.8-0.1,2.7l-2.3,0.5
		l-0.1,1.1l2.3-0.5c-0.1,0.9-0.2,1.8-0.4,2.7l-2.4,0.2l-0.2,1l2.4-0.2c-0.2,0.9-0.4,1.8-0.7,2.7l-2.4,0l-0.3,1l2.4,0
		c-0.3,0.9-0.6,1.7-1,2.6l-2.3-0.3l-0.4,1l2.3,0.3c-0.4,0.8-0.8,1.7-1.2,2.4L30,67.1L29.5,68l2.3,0.5c-0.5,0.8-1,1.6-1.5,2.3
		L28,70.1l-0.6,0.9l2.2,0.8c-0.5,0.7-1.1,1.4-1.7,2.1l-2.1-1l-0.7,0.8l2.1,1c-0.4,0.4-0.8,0.8-1.1,1.2C19.1,69.4,14.8,60.2,14.8,50z
		 M27.9,77.4c0.4-0.4,0.8-0.8,1.1-1.2l1.2,2.1l0.7-0.8l-1.2-2.1c0.7-0.8,1.3-1.5,1.9-2.3L33,75l0.6-0.9l-1.4-1.9
		c0.6-0.8,1.1-1.7,1.6-2.5l1.6,1.7l0.5-0.9l-1.6-1.8c0.5-0.9,0.9-1.8,1.4-2.7l1.8,1.6l0.4-1l-1.8-1.6c0.4-0.9,0.7-1.8,1.1-2.8
		l1.9,1.4l0.3-1l-1.9-1.4c0.3-0.9,0.5-1.9,0.8-2.9l2.1,1.2l0.2-1l-2.1-1.2c0.2-1,0.3-2,0.5-3l2.2,0.9l0.1-1.1l-2.2-0.9
		c0.1-1,0.1-2,0.1-3l2.3,0.7V50l-2.3-0.7c0-1-0.1-2-0.2-3l2.3,0.5l-0.1-1.1l-2.3-0.5c-0.1-1-0.3-2-0.5-3l2.4,0.2l-0.2-1l-2.4-0.2
		c-0.2-1-0.5-1.9-0.8-2.9l2.4,0l-0.3-1l-2.4,0c-0.3-0.9-0.7-1.9-1.1-2.8l2.4-0.3l-0.4-1l-2.4,0.3c-0.4-0.9-0.9-1.8-1.4-2.7l2.3-0.5
		L36,29.5L33.7,30c-0.5-0.9-1.1-1.7-1.6-2.5l2.3-0.8l-0.6-0.9l-2.3,0.8c-0.6-0.8-1.2-1.6-1.9-2.3l2.2-1l-0.7-0.8l-2.2,1
		c-0.3-0.3-0.6-0.6-0.9-0.9c6.1-4.9,13.8-7.8,22.1-7.8c8.4,0,16.1,2.9,22.1,7.8c-0.4,0.4-0.8,0.8-1.1,1.2l-1.2-2.1l-0.7,0.8l1.2,2.1
		c-0.7,0.8-1.3,1.5-1.9,2.3L67,25l-0.6,0.9l1.4,1.9c-0.6,0.8-1.1,1.7-1.6,2.5l-1.6-1.7L64,29.5l1.6,1.8c-0.5,0.9-0.9,1.8-1.4,2.7
		l-1.8-1.6l-0.4,1l1.8,1.6c-0.4,0.9-0.7,1.8-1.1,2.8l-1.9-1.4l-0.3,1l1.9,1.4c-0.3,0.9-0.5,1.9-0.8,2.9l-2.1-1.2l-0.2,1l2.1,1.2
		c-0.2,1-0.3,2-0.5,3l-2.2-0.9l-0.1,1.1l2.2,0.9c-0.1,1-0.1,2-0.1,3l-2.3-0.7V50l2.3,0.7c0,1,0.1,2,0.2,3l-2.3-0.5l0.1,1.1l2.3,0.5
		c0.1,1,0.3,2,0.5,3l-2.4-0.2l0.2,1l2.4,0.2c0.2,1,0.5,1.9,0.8,2.9l-2.4,0l0.3,1l2.4,0c0.3,0.9,0.7,1.9,1.1,2.8l-2.4,0.3l0.4,1
		l2.4-0.3c0.4,0.9,0.9,1.8,1.4,2.7l-2.3,0.5l0.5,0.9l2.3-0.5c0.5,0.9,1.1,1.7,1.6,2.5l-2.3,0.8l0.6,0.9l2.3-0.8
		c0.6,0.8,1.2,1.6,1.9,2.3l-2.2,1l0.7,0.8l2.2-1c0.3,0.3,0.6,0.6,0.9,0.9c-6.1,4.9-13.7,7.8-22.1,7.8C41.6,85.2,33.9,82.3,27.9,77.4
		z"/>
</g>
</svg>
